<?xml version="1.0" encoding="utf-8"?>
<!-- Generator: Adobe Illustrator 21.1.0, SVG Export Plug-In . SVG Version: 6.00 Build 0)  -->
<svg version="1.1" id="レイヤー_1" xmlns="http://www.w3.org/2000/svg" xmlns:xlink="http://www.w3.org/1999/xlink" x="0px"
	 y="0px" viewBox="0 0 311.811 283.465" enable-background="new 0 0 311.811 283.465" xml:space="preserve">
<g>
	
		<line fill="none" stroke="#DCDDDD" stroke-width="0.75" stroke-miterlimit="10" x1="243.043" y1="76.592" x2="67.313" y2="76.592"/>
	
		<line fill="none" stroke="#DCDDDD" stroke-width="0.75" stroke-miterlimit="10" x1="243.043" y1="110.905" x2="67.313" y2="110.905"/>
	
		<line fill="none" stroke="#DCDDDD" stroke-width="0.75" stroke-miterlimit="10" x1="243.043" y1="145.217" x2="67.313" y2="145.217"/>
	
		<line fill="none" stroke="#DCDDDD" stroke-width="0.75" stroke-miterlimit="10" x1="243.043" y1="179.53" x2="67.313" y2="179.53"/>
	
		<line fill="none" stroke="#DCDDDD" stroke-width="0.75" stroke-miterlimit="10" x1="243.043" y1="213.842" x2="67.313" y2="213.842"/>
</g>
<line fill="none" stroke="#000000" stroke-miterlimit="10" x1="243.043" y1="48.523" x2="243.043" y2="241.911"/>
<line fill="none" stroke="#DCDDDD" stroke-width="0.75" stroke-miterlimit="10" x1="199.11" y1="48.523" x2="199.11" y2="241.911"/>
<line fill="none" stroke="#DCDDDD" stroke-width="0.75" stroke-miterlimit="10" x1="155.178" y1="48.523" x2="155.178" y2="241.911"/>
<line fill="none" stroke="#DCDDDD" stroke-width="0.75" stroke-miterlimit="10" x1="111.245" y1="48.523" x2="111.245" y2="241.911"/>
<line fill="none" stroke="#000000" stroke-miterlimit="10" x1="67.313" y1="48.523" x2="67.313" y2="241.911"/>
<polyline fill="none" stroke="#000000" stroke-linecap="round" stroke-miterlimit="10" points="136.287,213.842 132.333,179.53 
	123.107,145.217 165.721,110.905 157.814,76.592 "/>
<g id="_x5F_added_x5F_direction_x5F_anchor_x5F__20_">
	<path d="M135.204,216.342c-0.78,0-1.417-0.638-1.417-1.417v-2.165c0-0.78,0.638-1.417,1.417-1.417h2.165
		c0.78,0,1.417,0.638,1.417,1.417v2.165c0,0.78-0.638,1.417-1.417,1.417H135.204z"/>
</g>
<g id="_x5F_added_x5F_direction_x5F_anchor_x5F__21_">
	<path d="M131.25,182.03c-0.78,0-1.417-0.638-1.417-1.417v-2.165c0-0.78,0.638-1.417,1.417-1.417h2.165
		c0.78,0,1.417,0.638,1.417,1.417v2.165c0,0.78-0.638,1.417-1.417,1.417H131.25z"/>
</g>
<g id="_x5F_added_x5F_direction_x5F_anchor_x5F__22_">
	<path d="M122.024,147.717c-0.78,0-1.417-0.638-1.417-1.417v-2.165c0-0.78,0.638-1.417,1.417-1.417h2.165
		c0.78,0,1.417,0.638,1.417,1.417v2.165c0,0.78-0.638,1.417-1.417,1.417H122.024z"/>
</g>
<g id="_x5F_added_x5F_direction_x5F_anchor_x5F__23_">
	<path d="M164.639,113.405c-0.78,0-1.417-0.638-1.417-1.417v-2.165c0-0.78,0.638-1.417,1.417-1.417h2.165
		c0.78,0,1.417,0.638,1.417,1.417v2.165c0,0.78-0.638,1.417-1.417,1.417H164.639z"/>
</g>
<g id="_x5F_added_x5F_direction_x5F_anchor_x5F__24_">
	<path d="M156.731,79.092c-0.78,0-1.417-0.638-1.417-1.417V75.51c0-0.78,0.638-1.417,1.417-1.417h2.165
		c0.78,0,1.417,0.638,1.417,1.417v2.165c0,0.78-0.638,1.417-1.417,1.417H156.731z"/>
</g>
<g>
	<path d="M135.767,31.271c-0.99-0.396-1.783-0.54-2.558-0.54c-1.332,0-2.178,0.559-2.178,1.423c0,0.773,0.414,1.26,2.269,1.926
		c2.341,0.829,3.331,1.909,3.331,3.764c0,2.412-1.837,3.925-4.735,3.925c-1.207,0-2.287-0.18-3.331-0.54l0.233-2.215
		c1.081,0.522,2.071,0.721,2.953,0.721c1.332,0,2.287-0.559,2.287-1.566c0-0.954-0.522-1.459-2.431-2.161
		c-2.233-0.81-3.188-1.818-3.188-3.601c0-2.232,1.818-3.638,4.501-3.638c1.117,0,2.053,0.126,3.043,0.45L135.767,31.271z"/>
	<path d="M140.517,41.553l-2.881-9.272h2.574l1.369,5.023c0.144,0.576,0.414,1.765,0.521,2.376h0.036
		c0.108-0.611,0.414-1.854,0.559-2.358l1.332-5.041h2.971l1.44,5.023c0.162,0.576,0.433,1.765,0.54,2.376h0.036
		c0.108-0.611,0.379-1.818,0.522-2.358l1.351-5.041h2.395l-2.863,9.272h-2.971l-1.458-5.312c-0.162-0.595-0.36-1.603-0.469-2.215
		h-0.035c-0.126,0.612-0.36,1.62-0.522,2.215l-1.459,5.312H140.517z"/>
	<path d="M154.917,30.515v-2.305h2.413v2.305H154.917z M154.917,32.28h2.413v9.272h-2.413V32.28z"/>
	<path d="M165.412,29.921c-0.288-0.126-0.576-0.197-0.918-0.197c-0.9,0-1.206,0.504-1.206,1.872v0.685h2.124v1.782h-2.124v7.49
		h-2.413v-7.49h-1.818V32.28h1.818v-0.648c0-2.557,0.99-3.763,3.35-3.763c0.485,0,1.008,0.071,1.386,0.18L165.412,29.921z"/>
	<path d="M165.951,34.062V32.28h1.818v-1.945l2.269-0.773v2.719h2.215v1.782h-2.215v3.619c0,1.404,0.27,2.034,1.44,2.034
		c0.288,0,0.612-0.054,0.882-0.144l0.055,1.854c-0.45,0.162-1.045,0.234-1.657,0.234c-2.124,0-3.024-1.045-3.024-3.493v-4.105
		H165.951z"/>
	<path d="M175.6,32.28l1.44,4.483c0.252,0.773,0.576,1.891,0.846,2.845h0.036c0.252-0.954,0.576-2.053,0.847-2.845l1.44-4.483h2.431
		l-3.655,9.921c-0.72,1.908-1.729,3.349-3.799,3.349c-0.595,0-1.278-0.108-1.729-0.252l0.18-1.801
		c0.396,0.126,0.774,0.181,1.188,0.181c0.792,0,1.368-0.45,1.746-1.729l-3.601-9.669H175.6z"/>
</g>
<g>
	<path d="M23.142,73.559c0-0.294-0.015-0.589-0.069-0.967c0.42,0.014,0.826,0.042,1.189,0.084c0.127,0.014,0.197,0.057,0.197,0.141
		s-0.057,0.14-0.084,0.21c-0.029,0.069-0.057,0.224-0.057,0.518v0.112c0.826,0,1.093-0.027,1.177-0.027
		c0.14,0,0.153,0.014,0.153,0.153v0.812c0,0.141-0.014,0.154-0.153,0.154c-0.084,0-0.309-0.014-0.995-0.028
		c0.406,0.406,0.799,0.701,1.346,1.022c-0.154,0.141-0.337,0.364-0.449,0.561c-0.098,0.183-0.154,0.252-0.238,0.252
		c-0.069,0-0.14-0.056-0.266-0.182c-0.252-0.252-0.448-0.504-0.631-0.799c0.015,1.359,0.07,2.214,0.07,2.396
		c0,0.154-0.014,0.168-0.154,0.168h-0.91c-0.141,0-0.154-0.014-0.154-0.168c0-0.182,0.057-0.98,0.07-2.171
		c-0.309,0.588-0.7,1.135-1.162,1.61c-0.141,0.141-0.225,0.21-0.295,0.21c-0.084,0-0.14-0.098-0.238-0.266
		c-0.154-0.309-0.336-0.561-0.476-0.7c-0.042,1.051-0.14,1.905-0.267,2.689c-0.195,1.19-0.561,2.269-1.12,3.376
		c-0.099,0.182-0.14,0.266-0.21,0.266c-0.057,0-0.141-0.084-0.267-0.238c-0.267-0.308-0.616-0.658-0.868-0.798
		c0.561-0.883,0.91-1.947,1.092-3.138c0.183-1.079,0.253-2.55,0.253-4.623c0-1.989-0.028-2.886-0.028-2.97
		c0-0.153,0.014-0.168,0.168-0.168c0.084,0,0.547,0.028,1.877,0.028h7.438c1.316,0,1.778-0.028,1.862-0.028
		c0.127,0,0.141,0.015,0.141,0.168v0.995c0,0.14-0.014,0.154-0.141,0.154c-0.084,0-0.56-0.028-1.877-0.028h-7.998v1.863
		c0,0.91-0.014,1.694-0.056,2.395c0.784-0.504,1.415-1.12,1.919-1.877h-0.098c-0.896,0-1.163,0.028-1.247,0.028
		c-0.154,0-0.168-0.014-0.168-0.154v-0.812c0-0.14,0.014-0.153,0.168-0.153c0.084,0,0.351,0.027,1.247,0.027h0.308V73.559z
		 M22.666,82.832c-1.317,0-1.779,0.028-1.863,0.028c-0.141,0-0.154-0.014-0.154-0.154v-0.98c0-0.14,0.014-0.154,0.154-0.154
		c0.07,0,0.477,0.028,1.513,0.028v-1.442c0-0.463-0.015-0.925-0.085-1.289c0.52,0.014,0.855,0.042,1.359,0.098
		c0.141,0.015,0.225,0.085,0.225,0.154c0,0.099-0.043,0.168-0.084,0.267c-0.07,0.168-0.084,0.392-0.084,0.756v1.457h1.555v-2.381
		c0-0.519-0.028-0.925-0.112-1.331c0.532,0.014,0.938,0.042,1.415,0.098c0.14,0.015,0.224,0.084,0.224,0.154
		c0,0.112-0.042,0.196-0.069,0.28c-0.057,0.141-0.099,0.364-0.099,0.742h1.653c1.148,0,1.456-0.014,1.541-0.014
		c0.14,0,0.153,0,0.153,0.14v0.925c0,0.141-0.014,0.154-0.153,0.154c-0.085,0-0.393-0.028-1.541-0.028h-1.653v1.261h2.396
		c1.373,0,1.849-0.028,1.933-0.028c0.14,0,0.154,0.015,0.154,0.154v0.98c0,0.141-0.015,0.154-0.154,0.154
		c-0.084,0-0.56-0.028-1.933-0.028H22.666z M27.54,73.545c0-0.252-0.015-0.56-0.069-0.938c0.447,0,0.826,0.028,1.218,0.07
		c0.126,0.014,0.169,0.057,0.169,0.141s-0.043,0.126-0.07,0.21c-0.028,0.084-0.057,0.196-0.057,0.504v0.126h0.477
		c0.994,0,1.303-0.027,1.4-0.027c0.141,0,0.154,0.014,0.154,0.153v0.812c0,0.141-0.014,0.154-0.154,0.154
		c-0.098,0-0.406-0.028-1.4-0.028h-0.28c0.7,0.854,1.457,1.457,2.409,1.976c-0.195,0.224-0.378,0.504-0.532,0.826
		c-0.069,0.168-0.126,0.238-0.196,0.238s-0.168-0.056-0.322-0.183c-0.686-0.574-1.219-1.232-1.625-1.961
		c0.028,1.331,0.084,2.172,0.084,2.354c0,0.154-0.014,0.168-0.168,0.168H27.68c-0.14,0-0.154-0.014-0.154-0.168
		c0-0.182,0.043-0.98,0.07-2.228c-0.336,0.645-0.798,1.219-1.288,1.695c-0.154,0.14-0.238,0.225-0.309,0.225
		c-0.069,0-0.14-0.099-0.252-0.28c-0.168-0.267-0.336-0.448-0.532-0.616c0.91-0.617,1.484-1.233,2.031-2.046
		c-0.701,0.015-0.953,0.028-1.023,0.028c-0.14,0-0.153-0.014-0.153-0.154v-0.812c0-0.14,0.014-0.153,0.153-0.153
		c0.085,0,0.379,0.027,1.317,0.027V73.545z"/>
	<path d="M39.607,77.537c-0.043,0.505-0.099,0.98-0.196,1.359c-0.14,0.518-0.322,0.994-0.589,1.429
		c1.569,0.784,3.656,1.177,6.514,1.288c-0.195,0.295-0.378,0.715-0.518,1.107c-0.099,0.308-0.127,0.406-0.295,0.406
		c-0.07,0-0.098,0-0.279-0.015c-2.732-0.224-4.791-0.742-6.374-1.625c-0.882,0.771-2.171,1.373-4.076,1.751
		c-0.14,0.028-0.267,0.042-0.322,0.042c-0.14,0-0.168-0.069-0.28-0.35c-0.168-0.379-0.364-0.687-0.602-0.98
		c1.862-0.21,3.18-0.658,4.062-1.317c-0.687-0.588-1.274-1.288-1.751-2.115c-0.07-0.14-0.042-0.168,0.126-0.266l0.827-0.448
		c0.153-0.084,0.182-0.084,0.252,0.042c0.406,0.672,0.91,1.247,1.498,1.723c0.168-0.294,0.295-0.603,0.379-0.952
		c0.07-0.294,0.126-0.673,0.154-1.079h-2.27c-1.373,0-1.85,0.028-1.934,0.028c-0.14,0-0.154-0.014-0.154-0.168
		c0-0.084,0.028-0.448,0.028-1.261v-1.989c0-0.812-0.028-1.177-0.028-1.261c0-0.14,0.015-0.153,0.154-0.153
		c0.084,0,0.561,0.027,1.934,0.027h2.354v-0.35c0-0.673-0.028-1.219-0.127-1.85c0.547,0.015,0.98,0.057,1.485,0.099
		c0.196,0.027,0.28,0.084,0.28,0.195c0,0.112-0.043,0.196-0.098,0.322c-0.07,0.154-0.099,0.393-0.099,0.967v0.616h2.396
		c1.358,0,1.835-0.027,1.919-0.027c0.14,0,0.153,0.014,0.153,0.153c0,0.084-0.027,0.448-0.027,1.261v1.989
		c0,0.812,0.027,1.177,0.027,1.261c0,0.154-0.014,0.168-0.153,0.168c-0.084,0-0.561-0.028-1.919-0.028H39.607z M38.206,76.234
		c0.015-0.714,0.015-1.471,0.015-2.156h-2.928v2.156H38.206z M42.619,74.078h-2.956c0,0.714,0.015,1.456,0,2.156h2.956V74.078z"/>
	<path d="M50.287,72.733c0.994,0,1.316-0.028,1.415-0.028c0.14,0,0.153,0.014,0.153,0.154c0,0.069-0.027,0.56-0.027,1.933
		c0.91-1.078,1.443-2.199,1.793-3.166c0.111-0.364,0.21-0.756,0.266-1.19c0.533,0.099,1.135,0.238,1.387,0.336
		c0.183,0.057,0.295,0.126,0.295,0.225c0,0.112-0.014,0.154-0.141,0.28c-0.111,0.098-0.238,0.322-0.378,0.714
		c-0.099,0.267-0.21,0.519-0.322,0.771h2.62c1.008,0,1.33-0.027,1.414-0.027c0.141,0,0.168,0.027,0.168,0.168
		c-0.027,0.392-0.027,0.771-0.027,1.162c-0.015,3.222-0.112,5.253-0.406,7.102c-0.225,1.43-0.799,2.102-2.115,2.13
		c-0.309,0-0.701,0.014-1.064-0.015c-0.406-0.027-0.406-0.027-0.505-0.476c-0.099-0.379-0.252-0.799-0.406-1.079
		c0.757,0.112,1.233,0.154,1.793,0.141c0.505,0,0.743-0.463,0.883-1.205c0.267-1.513,0.351-3.684,0.351-6.598h-3.334
		c-0.336,0.589-0.729,1.177-1.191,1.751c-0.14,0.168-0.224,0.252-0.294,0.252c-0.069,0-0.14-0.084-0.294-0.252
		c-0.154-0.154-0.322-0.308-0.49-0.435v2.9c0,3.264,0.027,3.88,0.027,3.964c0,0.14-0.014,0.154-0.153,0.154h-1.079
		c-0.14,0-0.154-0.015-0.154-0.154v-0.673h-2.002v1.065c0,0.153-0.015,0.168-0.168,0.168h-1.065c-0.14,0-0.153-0.015-0.153-0.168
		c0-0.085,0.027-0.743,0.027-4.146v-2.424c0-2.437-0.027-3.109-0.027-3.207c0-0.141,0.014-0.154,0.153-0.154
		c0.084,0,0.378,0.028,1.19,0.028c0.168-0.491,0.336-1.023,0.435-1.472c0.056-0.266,0.084-0.476,0.112-0.798
		c0.504,0.056,1.022,0.14,1.442,0.224c0.126,0.028,0.196,0.099,0.196,0.183c0,0.098-0.027,0.14-0.126,0.224
		c-0.084,0.07-0.154,0.196-0.196,0.309c-0.154,0.42-0.309,0.896-0.477,1.331H50.287z M48.467,73.979v2.479h2.002v-2.479H48.467z
		 M50.469,80.31V77.72h-2.002v2.591H50.469z M54.111,75.927c0.07-0.042,0.111-0.07,0.154-0.07c0.027,0,0.056,0.028,0.111,0.084
		c0.688,0.742,1.275,1.709,1.724,2.592c0.069,0.14,0.056,0.182-0.112,0.294l-0.869,0.603c-0.069,0.056-0.111,0.084-0.14,0.084
		c-0.042,0-0.069-0.042-0.098-0.126c-0.462-1.022-0.995-1.905-1.64-2.704c-0.084-0.111-0.069-0.14,0.099-0.252L54.111,75.927z"/>
	<path d="M9.742,109.245c0.07-0.098,0.14-0.168,0.266-0.14c1.051,0.351,1.891,0.799,2.689,1.373c0.098,0.069,0.154,0.126,0.154,0.21
		c0,0.042-0.027,0.098-0.057,0.154c-0.153,0.378-0.392,0.742-0.615,1.064c-0.07,0.084-0.127,0.14-0.183,0.14
		s-0.099-0.027-0.168-0.084c-0.896-0.658-1.808-1.12-2.829-1.526C9.35,109.876,9.574,109.47,9.742,109.245z M12.012,114.442
		c1.33-0.7,2.479-1.358,3.838-2.423c1.12-0.854,2.619-2.199,4.033-3.908c0.084,0.616,0.197,0.966,0.406,1.568
		c0.043,0.099,0.07,0.183,0.07,0.267c0,0.111-0.041,0.21-0.154,0.322c-1.303,1.4-2.185,2.171-3.558,3.235
		c-1.218,0.925-2.521,1.723-4.188,2.634c-0.336,0.182-0.672,0.336-0.812,0.476c-0.084,0.084-0.154,0.112-0.224,0.112
		c-0.099,0-0.196-0.056-0.28-0.168c-0.294-0.294-0.672-0.841-1.037-1.429C10.694,115.016,11.184,114.862,12.012,114.442z
		 M11.437,106.023c0.098-0.168,0.182-0.195,0.35-0.111c0.896,0.364,1.863,0.882,2.633,1.555c0.084,0.056,0.113,0.126,0.113,0.182
		c0,0.057-0.015,0.112-0.057,0.183c-0.196,0.35-0.477,0.798-0.715,1.051c-0.041,0.069-0.098,0.084-0.14,0.084
		c-0.07,0-0.14-0.042-0.21-0.099c-0.729-0.603-1.821-1.316-2.718-1.723C10.933,106.78,11.199,106.388,11.437,106.023z"/>
	<path d="M23.112,106.71c0.056-0.069,0.126-0.111,0.196-0.111c0.057,0,0.111,0.027,0.182,0.069c0.715,0.379,1.877,1.232,2.676,1.989
		c0.084,0.084,0.126,0.14,0.126,0.196c0,0.056-0.028,0.112-0.084,0.182c-0.21,0.28-0.673,0.841-0.868,1.051
		c-0.07,0.07-0.112,0.112-0.168,0.112c-0.057,0-0.112-0.042-0.183-0.112c-0.841-0.868-1.849-1.667-2.857-2.283
		C22.439,107.425,22.846,106.99,23.112,106.71z M24.331,114.092c1.709-0.882,2.62-1.471,4.034-2.605
		c1.709-1.387,2.647-2.283,3.838-3.81c0.084,0.7,0.211,1.177,0.393,1.639c0.042,0.099,0.07,0.183,0.07,0.267
		c0,0.126-0.07,0.238-0.225,0.42c-0.742,0.868-1.947,1.989-3.222,2.97c-1.163,0.91-2.339,1.695-4.23,2.745
		c-0.63,0.379-0.812,0.519-0.938,0.645c-0.084,0.084-0.168,0.141-0.252,0.141c-0.07,0-0.154-0.057-0.238-0.154
		c-0.35-0.393-0.784-0.967-1.121-1.555C23.154,114.597,23.589,114.471,24.331,114.092z"/>
	<path d="M37.254,108.559c-0.91,0-1.709,0.042-2.312,0.069c-0.183,0.015-0.237-0.084-0.267-0.28
		c-0.041-0.279-0.098-1.008-0.125-1.414c0.63,0.069,1.372,0.098,2.689,0.098h5c0.42,0,0.574-0.028,0.771-0.14
		c0.084-0.057,0.168-0.084,0.238-0.084c0.084,0,0.168,0.027,0.238,0.098c0.364,0.294,0.714,0.631,0.952,0.967
		c0.07,0.098,0.112,0.182,0.112,0.28c0,0.084-0.042,0.168-0.14,0.266c-0.127,0.126-0.197,0.267-0.322,0.547
		c-0.687,1.652-1.541,3.193-2.718,4.552c-1.204,1.373-2.563,2.536-3.978,3.334c-0.127,0.084-0.253,0.126-0.379,0.126
		c-0.112,0-0.238-0.042-0.35-0.154c-0.322-0.308-0.785-0.56-1.303-0.77c2.045-1.037,3.291-2.004,4.58-3.502
		c1.092-1.247,1.807-2.438,2.367-3.992H37.254z M46.933,105.87c0,0.84-0.673,1.498-1.514,1.498c-0.84,0-1.513-0.658-1.513-1.498
		c0-0.869,0.673-1.499,1.513-1.499C46.261,104.371,46.933,105.029,46.933,105.87z M44.594,105.87c0,0.476,0.35,0.826,0.826,0.826
		s0.826-0.351,0.826-0.826c0-0.477-0.35-0.827-0.826-0.827S44.594,105.393,44.594,105.87z"/>
	<path d="M50.975,107.648c0.238,0.07,0.266,0.238,0.182,0.435c-0.154,0.309-0.168,0.616-0.168,0.952
		c-0.027,1.751-0.294,3.082-0.756,4.118c-0.365,0.854-0.98,1.766-1.99,2.634c-0.14,0.112-0.252,0.182-0.363,0.182
		c-0.084,0-0.168-0.042-0.267-0.111c-0.351-0.238-0.687-0.406-1.19-0.589c1.092-0.826,1.835-1.681,2.325-2.787
		c0.392-0.952,0.574-1.723,0.589-3.964c0-0.532-0.029-0.757-0.141-1.177C49.994,107.438,50.639,107.537,50.975,107.648z
		 M54.084,113.574c0.687-0.364,1.33-0.799,1.989-1.303c0.841-0.645,1.667-1.387,2.451-2.382c0.056,0.49,0.196,0.953,0.435,1.415
		c0.041,0.098,0.084,0.168,0.084,0.238c0,0.098-0.057,0.196-0.211,0.35c-0.699,0.715-1.344,1.289-2.072,1.835
		c-0.729,0.561-1.514,1.107-2.494,1.682c-0.252,0.168-0.279,0.196-0.406,0.294c-0.084,0.07-0.182,0.112-0.279,0.112
		c-0.084,0-0.183-0.042-0.295-0.112c-0.308-0.21-0.63-0.574-0.84-0.854c-0.084-0.126-0.127-0.21-0.127-0.294
		c0-0.07,0.015-0.126,0.057-0.21c0.098-0.183,0.084-0.351,0.084-1.065v-4.384c0-1.219,0-1.793-0.141-2.438
		c0.561,0.07,1.332,0.168,1.752,0.294c0.182,0.042,0.252,0.126,0.252,0.238c0,0.084-0.042,0.21-0.112,0.351
		c-0.126,0.266-0.126,0.546-0.126,1.555V113.574z"/>
	<path d="M30.496,151.348c-0.112,0.237-0.154,0.336-0.252,0.336c-0.07,0-0.154-0.057-0.322-0.168
		c-2.676-1.724-4.301-4.118-4.945-6.696c-0.742,2.956-2.508,5.253-5.07,6.71c-0.154,0.084-0.252,0.141-0.322,0.141
		c-0.098,0-0.154-0.099-0.28-0.337c-0.238-0.392-0.519-0.687-0.812-0.938c3.685-1.709,5.478-5.211,5.448-9.133
		c-0.014-0.616-0.027-1.204-0.098-1.821c0.547,0.028,1.219,0.099,1.723,0.169c0.183,0.027,0.267,0.111,0.267,0.224
		c0,0.154-0.069,0.238-0.14,0.351c-0.084,0.14-0.112,0.476-0.112,0.924c-0.015,0.168-0.015,0.337-0.015,0.505
		c0.604,4.104,2.367,6.821,5.716,8.643C30.958,150.562,30.691,150.941,30.496,151.348z"/>
	<path d="M34.648,150.661c-1.246,0-1.682,0.027-1.766,0.027c-0.14,0-0.153-0.014-0.153-0.153v-1.177
		c0-0.141,0.014-0.154,0.153-0.154c0.084,0,0.52,0.028,1.766,0.028h3.375v-7.256h-2.465c-1.358,0-1.807,0.027-1.891,0.027
		c-0.141,0-0.154-0.014-0.154-0.153v-1.177c0-0.141,0.014-0.154,0.154-0.154c0.084,0,0.532,0.028,1.891,0.028h6.724
		c1.345,0,1.793-0.028,1.878-0.028c0.139,0,0.153,0.014,0.153,0.154v1.177c0,0.14-0.015,0.153-0.153,0.153
		c-0.085,0-0.533-0.027-1.878-0.027h-2.675v7.256h3.571c1.247,0,1.681-0.028,1.765-0.028c0.141,0,0.154,0.014,0.154,0.154v1.177
		c0,0.14-0.014,0.153-0.154,0.153c-0.084,0-0.518-0.027-1.765-0.027H34.648z"/>
	<path d="M50.287,141.36c0.994,0,1.316-0.028,1.415-0.028c0.14,0,0.153,0.014,0.153,0.154c0,0.069-0.027,0.56-0.027,1.933
		c0.91-1.078,1.443-2.199,1.793-3.166c0.111-0.364,0.21-0.756,0.266-1.19c0.533,0.099,1.135,0.238,1.387,0.336
		c0.183,0.057,0.295,0.126,0.295,0.225c0,0.112-0.014,0.154-0.141,0.28c-0.111,0.098-0.238,0.322-0.378,0.714
		c-0.099,0.267-0.21,0.519-0.322,0.771h2.62c1.008,0,1.33-0.027,1.414-0.027c0.141,0,0.168,0.027,0.168,0.168
		c-0.027,0.392-0.027,0.771-0.027,1.162c-0.015,3.222-0.112,5.253-0.406,7.102c-0.225,1.43-0.799,2.102-2.115,2.13
		c-0.309,0-0.701,0.014-1.064-0.015c-0.406-0.027-0.406-0.027-0.505-0.476c-0.099-0.379-0.252-0.799-0.406-1.079
		c0.757,0.112,1.233,0.154,1.793,0.141c0.505,0,0.743-0.463,0.883-1.205c0.267-1.513,0.351-3.684,0.351-6.598h-3.334
		c-0.336,0.589-0.729,1.177-1.191,1.751c-0.14,0.168-0.224,0.252-0.294,0.252c-0.069,0-0.14-0.084-0.294-0.252
		c-0.154-0.154-0.322-0.308-0.49-0.435v2.9c0,3.264,0.027,3.88,0.027,3.964c0,0.14-0.014,0.154-0.153,0.154h-1.079
		c-0.14,0-0.154-0.015-0.154-0.154v-0.673h-2.002v1.065c0,0.153-0.015,0.168-0.168,0.168h-1.065c-0.14,0-0.153-0.015-0.153-0.168
		c0-0.085,0.027-0.743,0.027-4.146v-2.424c0-2.437-0.027-3.109-0.027-3.207c0-0.141,0.014-0.154,0.153-0.154
		c0.084,0,0.378,0.028,1.19,0.028c0.168-0.491,0.336-1.023,0.435-1.472c0.056-0.266,0.084-0.476,0.112-0.798
		c0.504,0.056,1.022,0.14,1.442,0.224c0.126,0.028,0.196,0.099,0.196,0.183c0,0.098-0.027,0.14-0.126,0.224
		c-0.084,0.07-0.154,0.196-0.196,0.309c-0.154,0.42-0.309,0.896-0.477,1.331H50.287z M48.467,142.606v2.479h2.002v-2.479H48.467z
		 M50.469,148.937v-2.591h-2.002v2.591H50.469z M54.111,144.554c0.07-0.042,0.111-0.07,0.154-0.07c0.027,0,0.056,0.028,0.111,0.084
		c0.688,0.742,1.275,1.709,1.724,2.592c0.069,0.14,0.056,0.182-0.112,0.294l-0.869,0.603c-0.069,0.056-0.111,0.084-0.14,0.084
		c-0.042,0-0.069-0.042-0.098-0.126c-0.462-1.022-0.995-1.905-1.64-2.704c-0.084-0.111-0.069-0.14,0.099-0.252L54.111,144.554z"/>
	<path d="M33.136,177.311c0.126-0.154,0.168-0.168,0.294-0.098c0.631,0.364,1.33,0.854,1.961,1.429
		c0.057,0.056,0.084,0.098,0.084,0.14c0,0.028-0.027,0.084-0.07,0.154l-0.63,0.826c-0.112,0.154-0.154,0.183-0.267,0.07
		c-0.561-0.588-1.204-1.093-1.947-1.541c-0.069-0.042-0.098-0.084-0.098-0.111c0-0.042,0.028-0.07,0.07-0.127L33.136,177.311z
		 M33.248,184.189c0.392-0.771,0.938-1.961,1.4-3.277c0.182,0.21,0.462,0.49,0.756,0.728c0.211,0.183,0.295,0.253,0.295,0.364
		c0,0.084-0.028,0.183-0.084,0.337c-0.379,1.008-0.883,2.143-1.346,3.054c-0.111,0.224-0.182,0.406-0.209,0.546
		c-0.028,0.112-0.084,0.182-0.197,0.182c-0.069,0-0.14-0.027-0.252-0.098c-0.308-0.196-0.686-0.448-1.064-0.784
		C32.827,184.889,32.996,184.638,33.248,184.189z M33.682,173.74c0.126-0.141,0.168-0.127,0.295-0.07
		c0.699,0.435,1.344,0.938,1.933,1.499c0.056,0.056,0.084,0.084,0.084,0.111c0,0.042-0.028,0.084-0.084,0.169l-0.616,0.84
		c-0.127,0.154-0.154,0.168-0.267,0.07c-0.589-0.631-1.303-1.232-1.961-1.625c-0.126-0.084-0.126-0.098,0-0.252L33.682,173.74z
		 M37.954,180.365c-1.387,0-1.862,0.028-1.947,0.028c-0.14,0-0.153-0.014-0.153-0.154v-1.093c0-0.14,0.014-0.154,0.153-0.154
		c0.085,0,0.561,0.028,1.947,0.028h1.724v-1.765h-1.962c-0.183,0.35-0.392,0.714-0.616,1.036c-0.126,0.196-0.182,0.28-0.252,0.28
		s-0.154-0.07-0.309-0.21c-0.252-0.21-0.561-0.393-0.868-0.504c0.742-0.953,1.261-1.919,1.569-2.914
		c0.111-0.364,0.168-0.616,0.195-0.967c0.463,0.099,0.869,0.225,1.232,0.364c0.141,0.057,0.238,0.099,0.238,0.196
		c0,0.084-0.056,0.154-0.125,0.238c-0.07,0.098-0.154,0.28-0.253,0.588c-0.056,0.183-0.14,0.379-0.21,0.575h1.359v-0.393
		c0-0.967,0-1.387-0.099-2.045c0.532,0.014,1.022,0.042,1.485,0.098c0.14,0.014,0.237,0.07,0.237,0.154
		c0,0.112-0.056,0.196-0.098,0.294c-0.07,0.183-0.085,0.477-0.085,1.471v0.421h1.457c1.289,0,1.737-0.028,1.821-0.028
		c0.14,0,0.154,0.014,0.154,0.154v1.05c0,0.154-0.015,0.169-0.154,0.169c-0.084,0-0.532-0.028-1.821-0.028h-1.457v1.765h1.99
		c1.372,0,1.849-0.028,1.933-0.028c0.126,0,0.14,0.015,0.14,0.154v1.093c0,0.141-0.014,0.154-0.14,0.154
		c-0.084,0-0.561-0.028-1.933-0.028H42.24v3.712c0,0.309,0.042,0.463,0.168,0.519c0.154,0.07,0.351,0.084,0.645,0.084
		c0.35,0,0.49-0.056,0.645-0.182c0.196-0.154,0.225-0.519,0.252-1.695c0.238,0.154,0.603,0.28,0.98,0.378
		c0.351,0.099,0.364,0.099,0.336,0.463c-0.084,1.288-0.224,1.793-0.63,2.059c-0.392,0.267-0.952,0.336-1.751,0.336
		c-0.84,0-1.373-0.056-1.681-0.279c-0.238-0.183-0.364-0.406-0.364-1.065v-4.328h-1.148c-0.196,2.899-1.064,4.44-3.307,5.715
		c-0.154,0.084-0.252,0.127-0.336,0.127c-0.098,0-0.168-0.07-0.309-0.267c-0.237-0.336-0.504-0.603-0.77-0.757
		c2.354-1.05,3.18-2.437,3.291-4.818H37.954z"/>
	<path d="M54.658,186.263c-0.154,0-0.169-0.014-0.169-0.154c0-0.182,0.085-1.835,0.112-3.418c-0.7,1.148-1.667,2.129-2.731,2.886
		c-0.154,0.112-0.252,0.168-0.322,0.168c-0.084,0-0.14-0.084-0.267-0.294c-0.182-0.309-0.42-0.532-0.63-0.729
		c1.401-0.756,2.466-1.681,3.264-2.857h-0.069c-1.219,0-1.64,0.028-1.737,0.028c-0.14,0-0.154-0.015-0.154-0.154
		c0-0.084,0.028-0.462,0.028-1.289v-2.073c0-0.84-0.028-1.204-0.028-1.303c0-0.14,0.015-0.153,0.154-0.153
		c0.098,0,0.519,0.027,1.737,0.027h0.714v-0.924h-0.952c-1.331,0-1.766,0.027-1.85,0.027c-0.14,0-0.154-0.014-0.154-0.168v-0.126
		l-0.07,0.042c-0.14,0.099-0.224,0.225-0.434,0.547c-0.729,1.162-1.471,2.227-2.129,3.095c0.477-0.014,0.967-0.042,1.471-0.084
		c-0.112-0.308-0.225-0.602-0.35-0.882c-0.057-0.126-0.029-0.168,0.139-0.238l0.631-0.267c0.154-0.069,0.168-0.056,0.225,0.084
		c0.406,0.812,0.658,1.667,0.883,2.536c0.027,0.14,0,0.195-0.169,0.252l-0.687,0.252c-0.195,0.07-0.224,0.07-0.252-0.098
		l-0.126-0.574l-0.812,0.069v3.838c0,1.289,0.028,1.766,0.028,1.835c0,0.141-0.014,0.154-0.154,0.154h-1.064
		c-0.141,0-0.154-0.014-0.154-0.154c0-0.084,0.028-0.546,0.028-1.835v-3.726l-1.051,0.084c-0.238,0.014-0.42,0.056-0.532,0.112
		c-0.084,0.042-0.126,0.056-0.21,0.056c-0.099,0-0.14-0.084-0.169-0.224c-0.069-0.364-0.125-0.743-0.168-1.191
		c0.393,0.028,0.688,0.057,1.051,0.043c0.267-0.337,0.519-0.687,0.757-1.037c-0.532-0.729-1.163-1.429-1.821-2.073
		c-0.056-0.056-0.07-0.098-0.07-0.126c0-0.056,0.043-0.098,0.099-0.182l0.519-0.687c0.111-0.141,0.154-0.154,0.252-0.042
		c0.111,0.126,0.238,0.238,0.35,0.35c0.295-0.476,0.603-1.036,0.841-1.568c0.126-0.28,0.183-0.462,0.252-0.742
		c0.406,0.153,0.812,0.336,1.163,0.504c0.14,0.07,0.182,0.14,0.182,0.225c0,0.084-0.056,0.14-0.126,0.182
		c-0.112,0.07-0.168,0.154-0.267,0.336c-0.42,0.742-0.756,1.317-1.219,1.976c0.197,0.238,0.406,0.462,0.604,0.714
		c0.322-0.518,0.63-1.036,0.924-1.568c0.154-0.294,0.295-0.603,0.406-0.925c0.379,0.154,0.854,0.378,1.232,0.616v-0.504
		c0-0.141,0.015-0.154,0.154-0.154c0.084,0,0.519,0.028,1.85,0.028h0.952c-0.015-0.589-0.042-0.925-0.112-1.401
		c0.49,0.015,0.925,0.042,1.387,0.112c0.127,0.014,0.225,0.084,0.225,0.154c0,0.098-0.057,0.196-0.098,0.28
		c-0.057,0.126-0.085,0.308-0.085,0.854h1.442c1.332,0,1.779-0.028,1.85-0.028c0.141,0,0.154,0.014,0.154,0.154v0.952
		c0,0.154-0.014,0.168-0.154,0.168c-0.07,0-0.518-0.027-1.85-0.027h-1.442v0.924h0.799c1.232,0,1.667-0.027,1.765-0.027
		c0.141,0,0.154,0.014,0.154,0.153c0,0.084-0.028,0.463-0.028,1.303v2.073c0,0.827,0.028,1.205,0.028,1.289
		c0,0.14-0.014,0.154-0.154,0.154c-0.098,0-0.532-0.028-1.765-0.028h-0.21c0.77,1.064,1.793,1.849,3.109,2.592
		c-0.294,0.279-0.477,0.574-0.616,0.91c-0.099,0.21-0.14,0.308-0.224,0.308c-0.07,0-0.154-0.056-0.295-0.168
		c-1.121-0.854-1.961-1.736-2.619-2.885c0.027,1.597,0.111,3.306,0.111,3.487c0,0.141-0.014,0.154-0.153,0.154H54.658z
		 M46.981,182.299c0.028-0.309,0.042-0.561,0.028-0.896c0.42,0.069,0.77,0.14,1.078,0.224c0.168,0.042,0.238,0.112,0.238,0.168
		c0,0.084-0.014,0.126-0.07,0.21c-0.042,0.07-0.084,0.28-0.111,0.519c-0.084,0.784-0.225,1.723-0.463,2.521
		c-0.07,0.224-0.098,0.336-0.182,0.336c-0.07,0-0.168-0.069-0.322-0.168c-0.182-0.112-0.588-0.308-0.771-0.364
		C46.715,184.105,46.911,183.251,46.981,182.299z M51.029,181.304c0.168-0.056,0.183-0.042,0.238,0.099
		c0.196,0.518,0.406,1.303,0.547,1.975c0.027,0.141,0.027,0.183-0.168,0.252l-0.688,0.225c-0.195,0.069-0.209,0.056-0.237-0.099
		c-0.126-0.84-0.309-1.555-0.477-2.045c-0.042-0.14-0.028-0.154,0.14-0.21L51.029,181.304z M54.574,178.936v-0.952h-1.359v0.952
		H54.574z M54.574,180.842v-0.967h-1.359v0.967H54.574z M55.862,177.984v0.952h1.456v-0.952H55.862z M57.318,179.875h-1.456v0.967
		h1.456V179.875z"/>
	<path d="M21.474,217.873c-0.14,0-0.154,0-0.154-0.141c0-0.098,0.028-0.672,0.028-3.796v-2.228c0-2.213-0.028-2.829-0.028-2.913
		c0-0.141,0.015-0.154,0.154-0.154c0.099,0,0.42,0.028,1.415,0.028h1.625c0.994,0,1.316-0.028,1.414-0.028
		c0.141,0,0.154,0.014,0.154,0.154c0,0.084-0.027,0.672-0.027,2.507v2.409c0,2.97,0.027,3.53,0.027,3.614
		c0,0.141-0.014,0.154-0.154,0.154h-1.051c-0.154,0-0.168-0.014-0.168-0.154v-0.687h-1.988v1.093c0,0.141-0.015,0.141-0.168,0.141
		H21.474z M22.721,209.931v2.045h1.988v-2.045H22.721z M24.709,215.365v-2.129h-1.988v2.129H24.709z M32.82,216.962
		c0,0.658,0.027,1.373,0.027,1.934c0,0.546-0.098,0.882-0.406,1.148c-0.322,0.28-0.883,0.364-1.877,0.364
		c-0.434,0-0.434,0-0.532-0.435c-0.084-0.378-0.224-0.771-0.392-1.051c0.476,0.042,0.938,0.057,1.204,0.057
		c0.435,0,0.546-0.126,0.546-0.49V215.8h-2.871c-0.351,2.199-1.135,3.39-2.494,4.496c-0.168,0.14-0.252,0.21-0.336,0.21
		c-0.07,0-0.154-0.084-0.308-0.252c-0.267-0.28-0.519-0.504-0.854-0.7c2.129-1.541,2.787-2.773,2.787-7.48v-1.723
		c0-1.232-0.027-1.863-0.027-1.961c0-0.141,0.014-0.154,0.168-0.154c0.084,0,0.447,0.028,1.568,0.028h2.088
		c1.105,0,1.484-0.028,1.568-0.028c0.154,0,0.168,0.014,0.168,0.154c0,0.084-0.027,0.729-0.027,1.961V216.962z M31.391,214.511
		v-1.835h-2.633c-0.014,0.673-0.043,1.289-0.084,1.835H31.391z M28.758,209.58v1.807h2.633v-1.807H28.758z"/>
	<path d="M39.228,213.6c0.784-0.448,1.442-0.631,2.227-0.631c2.045,0,3.475,1.345,3.475,3.362c0,2.339-1.892,3.838-4.889,3.838
		c-1.766,0-2.83-0.757-2.83-2.06c0-0.938,0.883-1.709,1.975-1.709c1.317,0,2.283,0.701,2.634,2.046
		c0.98-0.448,1.429-1.064,1.429-2.13c0-1.274-0.896-2.115-2.199-2.115c-1.162,0-2.451,0.519-3.586,1.485
		c-0.406,0.364-0.799,0.771-1.219,1.19c-0.098,0.099-0.168,0.154-0.238,0.154c-0.056,0-0.125-0.042-0.209-0.126
		c-0.295-0.252-0.604-0.616-0.827-0.911c-0.084-0.111-0.042-0.21,0.07-0.321c1.093-0.883,2.06-1.779,3.319-3.096
		c0.869-0.896,1.527-1.598,2.172-2.396c-0.841,0.154-1.836,0.35-2.704,0.532c-0.183,0.042-0.364,0.084-0.588,0.168
		c-0.07,0.028-0.21,0.07-0.28,0.07c-0.141,0-0.238-0.07-0.309-0.238c-0.168-0.322-0.294-0.715-0.49-1.513
		c0.42,0.056,0.883,0.056,1.303,0.027c0.854-0.084,2.088-0.266,3.18-0.476c0.351-0.07,0.631-0.141,0.771-0.21
		c0.07-0.042,0.196-0.112,0.267-0.112c0.14,0,0.224,0.042,0.322,0.112c0.42,0.322,0.7,0.602,0.938,0.896
		c0.113,0.126,0.154,0.224,0.154,0.336c0,0.14-0.084,0.266-0.238,0.336c-0.237,0.112-0.35,0.21-0.615,0.448
		c-1.023,0.995-1.961,1.976-3.026,2.998L39.228,213.6z M39.242,217.593c-0.406,0-0.672,0.238-0.672,0.532
		c0,0.434,0.377,0.729,1.219,0.729c0.252,0,0.434-0.015,0.644-0.057C40.25,218.026,39.83,217.593,39.242,217.593z"/>
	<path d="M49.391,210.196c0.127,0.057,0.225,0.154,0.225,0.252c0,0.084-0.042,0.225-0.112,0.393
		c-0.056,0.168-0.126,0.771-0.126,1.373c0,0.896,0.027,1.904,0.252,3.193c0.196,1.106,0.561,2.06,1.148,2.06
		c0.449,0,0.799-0.49,1.346-1.947c0.308,0.49,0.615,0.812,0.896,1.078c0.168,0.154,0.168,0.322,0.098,0.519
		c-0.532,1.429-1.4,2.186-2.381,2.186c-1.094,0-2.242-1.289-2.62-3.656c-0.224-1.331-0.336-2.788-0.336-4.076
		c0-0.771-0.028-1.19-0.169-1.835C48.284,209.818,48.971,209.986,49.391,210.196z M55.891,211.079
		c0.056-0.028,0.111-0.057,0.154-0.057c0.056,0,0.098,0.028,0.154,0.085c1.273,1.106,2.395,3.039,2.745,4.79
		c0.042,0.183-0.042,0.238-0.154,0.309c-0.364,0.237-0.714,0.434-1.093,0.56c-0.168,0.057-0.266,0.015-0.294-0.153
		c-0.476-2.004-1.19-3.46-2.62-4.889C55.316,211.387,55.666,211.191,55.891,211.079z"/>
</g>
<g>
	<path d="M259.361,80.913c0,0.463,0.014,0.574,0.126,0.687c0.111,0.126,0.448,0.196,1.008,0.196c0.673,0,0.98-0.112,1.177-0.309
		c0.225-0.237,0.337-0.729,0.351-1.904c0.238,0.182,0.63,0.322,1.022,0.42c0.351,0.084,0.351,0.084,0.336,0.435
		c-0.056,1.148-0.294,1.723-0.687,2.114c-0.392,0.406-0.924,0.603-2.311,0.603c-1.289,0-1.877-0.154-2.157-0.42
		c-0.225-0.21-0.337-0.519-0.337-1.358v-3.853h-1.694c-0.042,1.499-0.364,2.577-0.995,3.516c-0.588,0.925-1.582,1.64-2.997,2.186
		c-0.154,0.056-0.252,0.098-0.322,0.098c-0.112,0-0.168-0.098-0.294-0.336c-0.21-0.35-0.463-0.645-0.742-0.91
		c1.597-0.406,2.465-0.967,3.067-1.766c0.462-0.63,0.784-1.471,0.812-2.787h-1.793c-1.261,0-1.681,0.028-1.766,0.028
		c-0.153,0-0.168-0.015-0.168-0.154v-1.093c0-0.126,0.015-0.14,0.168-0.14c0.085,0,0.505,0.027,1.766,0.027h3.445v-2.003h-2.675
		c-0.295,0.448-0.616,0.869-0.995,1.289c-0.14,0.154-0.224,0.238-0.294,0.238s-0.154-0.084-0.308-0.238
		c-0.238-0.225-0.519-0.448-0.827-0.603c0.995-0.938,1.639-1.961,2.06-2.941c0.196-0.406,0.28-0.729,0.336-1.106
		c0.504,0.112,0.938,0.266,1.303,0.406c0.126,0.056,0.224,0.126,0.224,0.21s-0.042,0.14-0.126,0.21
		c-0.098,0.084-0.168,0.21-0.252,0.406c-0.126,0.28-0.238,0.561-0.364,0.812h1.919v-0.771c0-0.784-0.014-1.135-0.098-1.555
		c0.532,0.028,1.009,0.056,1.499,0.112c0.126,0.014,0.224,0.069,0.224,0.153c0,0.099-0.042,0.169-0.084,0.28
		c-0.07,0.126-0.084,0.379-0.084,0.925v0.854h2.213c1.359,0,1.835-0.028,1.92-0.028c0.14,0,0.153,0.015,0.153,0.168v1.051
		c0,0.141-0.014,0.154-0.153,0.154c-0.085,0-0.561-0.028-1.92-0.028h-2.213v2.003h3.628c1.247,0,1.681-0.027,1.765-0.027
		c0.141,0,0.141,0.014,0.141,0.14v1.093c0,0.14,0,0.154-0.141,0.154c-0.084,0-0.518-0.028-1.765-0.028h-2.101V80.913z"/>
	<path d="M268.08,80.226c0.294,0.589,0.588,0.938,1.163,1.177c0.49,0.196,1.372,0.267,2.591,0.267c1.807,0,4.021-0.099,6.023-0.294
		c-0.196,0.294-0.322,0.658-0.378,1.05c-0.07,0.448-0.07,0.448-0.519,0.477c-1.779,0.098-3.446,0.126-4.902,0.126
		c-1.443,0-2.605-0.112-3.278-0.392c-0.645-0.267-1.022-0.659-1.373-1.247c-0.434,0.42-0.924,0.841-1.442,1.232
		c-0.14,0.112-0.224,0.196-0.28,0.28c-0.07,0.098-0.126,0.126-0.21,0.126c-0.056,0-0.14-0.056-0.196-0.168
		c-0.196-0.364-0.378-0.812-0.574-1.316c0.364-0.168,0.561-0.267,0.841-0.435c0.392-0.252,0.826-0.588,1.177-0.896v-3.109h-0.701
		c-0.756,0-0.952,0.027-1.022,0.027c-0.153,0-0.168-0.014-0.168-0.168v-1.064c0-0.14,0.015-0.154,0.168-0.154
		c0.07,0,0.267,0.028,1.022,0.028h0.883c0.742,0,0.967-0.028,1.051-0.028c0.14,0,0.154,0.015,0.154,0.154
		c0,0.084-0.028,0.477-0.028,1.331V80.226z M266.02,70.954c0.07-0.057,0.112-0.084,0.169-0.084c0.027,0,0.069,0.027,0.126,0.07
		c0.658,0.602,1.288,1.26,1.82,2.059c0.084,0.126,0.084,0.14-0.069,0.28l-0.785,0.672c-0.069,0.07-0.126,0.099-0.168,0.099
		s-0.069-0.028-0.111-0.099c-0.547-0.868-1.135-1.568-1.779-2.157c-0.112-0.111-0.099-0.126,0.056-0.252L266.02,70.954z
		 M268.948,75.507c-0.14,0.168-0.21,0.252-0.28,0.252c-0.084,0-0.153-0.099-0.294-0.28c-0.196-0.267-0.378-0.435-0.603-0.589
		c1.079-1.106,1.835-2.213,2.354-3.459c0.154-0.393,0.238-0.617,0.294-0.925c0.421,0.07,0.911,0.182,1.289,0.308
		c0.14,0.042,0.21,0.099,0.21,0.183c0,0.098-0.056,0.154-0.14,0.224c-0.126,0.099-0.168,0.211-0.28,0.435l-0.49,0.854h1.891
		c0.252-0.448,0.421-0.784,0.574-1.205c0.084-0.252,0.126-0.448,0.183-0.728c0.519,0.084,0.967,0.182,1.345,0.294
		c0.112,0.042,0.196,0.098,0.196,0.182s-0.057,0.141-0.141,0.21c-0.098,0.084-0.21,0.183-0.294,0.379
		c-0.14,0.336-0.28,0.588-0.435,0.868h0.925c1.219,0,1.625-0.028,1.709-0.028c0.154,0,0.168,0.015,0.168,0.168v0.883
		c0,0.141-0.014,0.154-0.168,0.154c-0.084,0-0.49-0.028-1.709-0.028h-1.19v1.148h0.616c1.219,0,1.625-0.027,1.709-0.027
		c0.14,0,0.154,0.014,0.154,0.168v0.868c0,0.141-0.015,0.154-0.154,0.154c-0.084,0-0.49-0.028-1.709-0.028h-0.616v1.177h0.616
		c1.219,0,1.625-0.028,1.709-0.028c0.14,0,0.154,0.015,0.154,0.169v0.854c0,0.14-0.015,0.153-0.154,0.153
		c-0.084,0-0.49-0.027-1.709-0.027h-0.616v1.232h1.135c1.33,0,1.778-0.028,1.862-0.028c0.141,0,0.154,0.015,0.154,0.168v0.896
		c0,0.154-0.014,0.168-0.154,0.168c-0.084,0-0.532-0.027-1.862-0.027h-3.811c-1.345,0-1.821,0.027-1.905,0.027
		c-0.14,0-0.153-0.014-0.153-0.168c0-0.084,0.027-0.658,0.027-1.849v-3.67L268.948,75.507z M272.744,74.806v-1.148h-2.072v1.148
		H272.744z M272.744,77.117V75.94h-2.072v1.177H272.744z M272.744,79.471v-1.232h-2.072v1.232H272.744z"/>
	<path d="M282.542,72.733c0.995,0,1.317-0.028,1.415-0.028c0.14,0,0.154,0.014,0.154,0.154c0,0.069-0.028,0.56-0.028,1.933
		c0.91-1.078,1.443-2.199,1.793-3.166c0.112-0.364,0.21-0.756,0.267-1.19c0.532,0.099,1.135,0.238,1.387,0.336
		c0.182,0.057,0.294,0.126,0.294,0.225c0,0.112-0.014,0.154-0.141,0.28c-0.111,0.098-0.237,0.322-0.378,0.714
		c-0.098,0.267-0.21,0.519-0.322,0.771h2.62c1.008,0,1.33-0.027,1.414-0.027c0.141,0,0.168,0.027,0.168,0.168
		c-0.027,0.392-0.027,0.771-0.027,1.162c-0.015,3.222-0.112,5.253-0.406,7.102c-0.225,1.43-0.799,2.102-2.115,2.13
		c-0.309,0-0.7,0.014-1.064-0.015c-0.406-0.027-0.406-0.027-0.505-0.476c-0.098-0.379-0.252-0.799-0.406-1.079
		c0.757,0.112,1.233,0.154,1.793,0.141c0.505,0,0.743-0.463,0.883-1.205c0.267-1.513,0.351-3.684,0.351-6.598h-3.334
		c-0.336,0.589-0.729,1.177-1.19,1.751c-0.141,0.168-0.225,0.252-0.295,0.252c-0.069,0-0.14-0.084-0.294-0.252
		c-0.154-0.154-0.322-0.308-0.49-0.435v2.9c0,3.264,0.028,3.88,0.028,3.964c0,0.14-0.015,0.154-0.154,0.154h-1.078
		c-0.141,0-0.154-0.015-0.154-0.154v-0.673h-2.003v1.065c0,0.153-0.015,0.168-0.168,0.168h-1.065c-0.14,0-0.153-0.015-0.153-0.168
		c0-0.085,0.027-0.743,0.027-4.146v-2.424c0-2.437-0.027-3.109-0.027-3.207c0-0.141,0.014-0.154,0.153-0.154
		c0.084,0,0.379,0.028,1.191,0.028c0.168-0.491,0.336-1.023,0.434-1.472c0.057-0.266,0.084-0.476,0.112-0.798
		c0.504,0.056,1.022,0.14,1.442,0.224c0.127,0.028,0.196,0.099,0.196,0.183c0,0.098-0.027,0.14-0.126,0.224
		c-0.084,0.07-0.154,0.196-0.196,0.309c-0.153,0.42-0.308,0.896-0.476,1.331H282.542z M280.722,73.979v2.479h2.003v-2.479H280.722z
		 M282.725,80.31V77.72h-2.003v2.591H282.725z M286.366,75.927c0.07-0.042,0.112-0.07,0.154-0.07c0.028,0,0.056,0.028,0.112,0.084
		c0.687,0.742,1.274,1.709,1.723,2.592c0.07,0.14,0.056,0.182-0.112,0.294l-0.868,0.603c-0.07,0.056-0.112,0.084-0.141,0.084
		c-0.042,0-0.069-0.042-0.098-0.126c-0.462-1.022-0.994-1.905-1.639-2.704c-0.084-0.111-0.07-0.14,0.098-0.252L286.366,75.927z"/>
	<path d="M252.371,112.426c-0.309,0.35-0.63,0.7-0.967,1.022c-0.098,0.098-0.182,0.153-0.252,0.153c-0.098,0-0.168-0.084-0.21-0.266
		c-0.112-0.393-0.267-0.757-0.435-0.98c1.317-1.009,2.367-2.438,3.054-4.091h-1.177c-0.938,0-1.232,0.028-1.316,0.028
		c-0.14,0-0.14-0.014-0.14-0.154v-1.036c0-0.141,0-0.154,0.14-0.154c0.084,0,0.378,0.028,1.316,0.028v-0.505
		c0-0.56,0-1.12-0.084-1.652c0.505,0.014,0.953,0.042,1.415,0.098c0.14,0.015,0.225,0.07,0.225,0.154
		c0,0.112-0.042,0.196-0.085,0.294c-0.084,0.168-0.084,0.463-0.084,1.093v0.519h0.379c0.126,0,0.196-0.028,0.238-0.057
		c0.042-0.027,0.098-0.056,0.168-0.056c0.111,0,0.182,0.056,0.462,0.336c0.21,0.225,0.336,0.435,0.336,0.532
		c0,0.084-0.056,0.141-0.14,0.211c-0.112,0.084-0.168,0.237-0.294,0.532c-0.309,0.672-0.673,1.358-1.121,2.045
		c0.154,0.21,0.309,0.406,0.477,0.588c0.224-0.28,0.392-0.546,0.532-0.812c0.084-0.154,0.168-0.322,0.238-0.532
		c0.28,0.168,0.602,0.364,0.84,0.547c0.084,0.056,0.126,0.098,0.126,0.168c0,0.069-0.042,0.084-0.111,0.126
		c-0.112,0.056-0.168,0.126-0.267,0.266c-0.182,0.267-0.392,0.561-0.672,0.896c0.224,0.183,0.49,0.379,0.784,0.574
		c-0.154,0.112-0.393,0.435-0.561,0.743c-0.084,0.14-0.126,0.21-0.196,0.21c-0.069,0-0.14-0.07-0.28-0.21
		c-0.35-0.364-0.672-0.729-0.952-1.093v3.88c0,1.051,0.028,1.555,0.028,1.625c0,0.14-0.015,0.154-0.154,0.154h-1.135
		c-0.14,0-0.154-0.015-0.154-0.154c0-0.084,0.028-0.574,0.028-1.625V112.426z M261.266,112.804c0.168,0,0.267-0.028,0.322-0.057
		c0.042-0.014,0.099-0.042,0.168-0.042c0.099,0,0.211,0.057,0.49,0.364c0.267,0.253,0.364,0.406,0.364,0.505
		c0,0.126-0.069,0.182-0.195,0.252c-0.112,0.056-0.211,0.14-0.421,0.393c-0.42,0.49-0.882,0.924-1.387,1.316
		c0.896,0.322,1.961,0.519,3.208,0.63c-0.183,0.225-0.336,0.547-0.435,0.883c-0.126,0.435-0.126,0.435-0.561,0.393
		c-1.372-0.211-2.535-0.561-3.529-1.093c-1.064,0.546-2.312,0.924-3.824,1.177c-0.42,0.069-0.42,0.069-0.603-0.337
		c-0.112-0.252-0.252-0.49-0.476-0.742c1.568-0.21,2.745-0.49,3.712-0.882c-0.406-0.322-0.771-0.673-1.107-1.079
		c-0.434,0.351-0.896,0.658-1.358,0.896c-0.168,0.084-0.266,0.14-0.336,0.14c-0.099,0-0.154-0.098-0.28-0.321
		c-0.14-0.253-0.351-0.505-0.519-0.645c0.995-0.435,1.919-1.079,2.605-1.808c0.183-0.195,0.336-0.392,0.463-0.616
		c-0.617,0.015-0.883,0.028-0.953,0.028c-0.14,0-0.14-0.014-0.14-0.154c0-0.098,0.014-0.392,0.014-1.177v-2.003
		c-0.154,0.183-0.238,0.267-0.336,0.267c-0.084,0-0.168-0.057-0.322-0.196c-0.238-0.21-0.532-0.378-0.799-0.49
		c0.743-0.757,1.331-1.779,1.667-2.647c0.126-0.351,0.225-0.687,0.252-1.022c0.505,0.056,0.967,0.168,1.275,0.224
		c0.14,0.042,0.238,0.07,0.238,0.168c0.014,0.07-0.015,0.141-0.112,0.238c-0.07,0.084-0.168,0.267-0.309,0.645h3.586
		c1.219,0,1.639-0.028,1.724-0.028c0.126,0,0.14,0.015,0.14,0.169v0.924c0,0.141-0.014,0.154-0.14,0.154
		c-0.085,0-0.505-0.028-1.724-0.028h-4.118c-0.112,0.225-0.238,0.448-0.364,0.673h3.601c1.219,0,1.624-0.028,1.723-0.028
		c0.14,0,0.154,0.014,0.154,0.168c0,0.084-0.028,0.406-0.028,1.163v1.652c0,0.785,0.028,1.093,0.028,1.177
		c0,0.141-0.015,0.154-0.154,0.154c-0.099,0-0.504-0.028-1.723-0.028h-2.354c0.14,0.042,0.266,0.099,0.42,0.141
		c0.084,0.027,0.126,0.069,0.126,0.14c0,0.084-0.056,0.126-0.14,0.183c-0.07,0.042-0.126,0.098-0.196,0.21H261.266z
		 M257.862,109.567h3.334v-0.672h-3.334V109.567z M261.196,110.478h-3.334v0.645h3.334V110.478z M258.017,113.826
		c0.364,0.435,0.812,0.798,1.316,1.106c0.477-0.322,0.91-0.672,1.331-1.106H258.017z"/>
	<path d="M268.879,113.014c0.49,0.645,1.148,1.219,1.975,1.737c-0.182,0.195-0.378,0.49-0.546,0.84
		c-0.057,0.126-0.126,0.196-0.211,0.196c-0.084,0-0.182-0.07-0.321-0.224c-0.406-0.435-0.896-0.995-1.261-1.598
		c0.027,1.653,0.069,3.152,0.069,3.502c0,0.154-0.014,0.168-0.153,0.168h-1.051c-0.141,0-0.154-0.014-0.154-0.168
		c0-0.336,0.028-1.694,0.056-3.264c-0.42,0.784-0.966,1.485-1.597,2.129c-0.14,0.141-0.224,0.211-0.294,0.211
		s-0.112-0.07-0.182-0.211c-0.196-0.392-0.393-0.658-0.617-0.868c0.925-0.616,1.682-1.429,2.298-2.451h-0.238
		c-1.121,0-1.513,0.028-1.597,0.028c-0.141,0-0.154-0.015-0.154-0.154v-0.98c0-0.126,0.014-0.141,0.154-0.141
		c0.084,0,0.476,0.028,1.597,0.028h0.616c0-0.672-0.028-1.036-0.084-1.541c0.504,0.015,0.868,0.042,1.274,0.112l0.112,0.028
		c-0.084-0.154-0.126-0.393-0.126-0.743l0.014-2.059l-0.784,0.014c-0.21,1.513-0.715,2.493-1.807,3.432
		c-0.168,0.141-0.253,0.211-0.337,0.211s-0.14-0.099-0.266-0.267c-0.183-0.266-0.406-0.477-0.673-0.645
		c1.135-0.7,1.64-1.429,1.85-2.703c-0.925,0.014-1.345,0.042-1.471,0.042s-0.141-0.014-0.141-0.168v-0.953
		c0-0.153,0.015-0.168,0.141-0.168c0.14,0,0.588,0.028,1.568,0.028c0.015-0.168,0.015-0.336,0.015-0.519c0-0.364,0-0.729-0.057-1.12
		c0.462,0.028,0.854,0.056,1.219,0.112c0.154,0.014,0.238,0.069,0.238,0.153c0,0.099-0.028,0.183-0.07,0.267
		c-0.07,0.098-0.084,0.28-0.098,0.714c0,0.127-0.015,0.253-0.015,0.364h0.225c1.12-0.014,1.484-0.042,1.555-0.042
		c0.126,0,0.141,0,0.141,0.154c-0.015,0.351-0.028,0.826-0.028,1.219l-0.015,1.457c0,0.196-0.014,0.28,0.015,0.35
		c0.028,0.057,0.084,0.084,0.196,0.084c0.084,0,0.14-0.014,0.195-0.084c0.057-0.069,0.085-0.434,0.085-1.19
		c0.153,0.126,0.308,0.225,0.434,0.309c0.729-0.98,1.177-2.144,1.443-3.068c0.056-0.195,0.126-0.518,0.168-0.826
		c0.476,0.084,0.924,0.183,1.219,0.267c0.153,0.042,0.252,0.126,0.252,0.224c0,0.07-0.042,0.141-0.126,0.21
		c-0.112,0.099-0.154,0.253-0.267,0.532c-0.126,0.364-0.294,0.757-0.477,1.177h1.359c0.196-0.448,0.35-0.868,0.477-1.303
		c0.084-0.28,0.153-0.602,0.195-0.91c0.463,0.084,0.938,0.196,1.247,0.294c0.14,0.042,0.238,0.099,0.238,0.196
		s-0.042,0.154-0.141,0.252c-0.084,0.084-0.153,0.168-0.28,0.532c-0.111,0.267-0.252,0.589-0.42,0.938h0.448
		c1.009,0,1.331-0.027,1.415-0.027c0.14,0,0.154,0.014,0.154,0.153v0.995c0,0.14-0.015,0.154-0.154,0.154
		c-0.084,0-0.406-0.028-1.415-0.028h-0.532v1.499c1.093,0,1.499-0.028,1.583-0.028c0.154,0,0.168,0.014,0.168,0.168v0.952
		c0,0.141-0.014,0.154-0.168,0.154c-0.084,0-0.49-0.027-1.583-0.027v1.555c1.093,0,1.499-0.028,1.583-0.028
		c0.154,0,0.168,0.014,0.168,0.154v0.952c0,0.154-0.014,0.168-0.168,0.168c-0.084,0-0.49-0.027-1.583-0.027v1.736h0.183
		c1.358,0,1.835-0.027,1.919-0.027c0.14,0,0.153,0.014,0.153,0.153v0.98c0,0.154-0.014,0.169-0.153,0.169
		c-0.084,0-0.561-0.028-1.919-0.028h-2.914v0.616c0,0.14-0.014,0.154-0.168,0.154h-1.037c-0.14,0-0.153-0.015-0.153-0.154
		c0-0.07,0.027-0.462,0.027-1.667v-6.317l-0.084-0.098l-0.182-0.169c-0.028,0.673-0.168,1.093-0.393,1.261
		c-0.196,0.169-0.406,0.267-0.952,0.267c-0.505,0-0.729-0.028-1.009-0.238c-0.014,0.099-0.056,0.183-0.084,0.238
		c-0.056,0.154-0.07,0.336-0.07,1.022h0.364c1.121,0,1.499-0.028,1.569-0.028c0.154,0,0.168,0.015,0.168,0.141v0.98
		c0,0.14-0.014,0.154-0.168,0.154c-0.07,0-0.448-0.028-1.569-0.028H268.879z M274.103,109.904v-1.499h-1.457v1.499H274.103z
		 M274.103,112.678v-1.555h-1.457v1.555H274.103z M274.103,115.633v-1.736h-1.457v1.736H274.103z"/>
	<path d="M252.554,151.851c-0.141,0-0.154-0.014-0.154-0.154c0-0.084,0.028-0.826,0.028-4.566v-2.591
		c0-2.605-0.028-3.376-0.028-3.475c0-0.14,0.014-0.153,0.154-0.153c0.098,0,0.588,0.027,1.947,0.027h0.91
		c0.224-0.448,0.35-0.812,0.519-1.316c0.069-0.183,0.111-0.393,0.153-0.658c0.477,0.042,1.093,0.14,1.499,0.21
		c0.126,0.028,0.196,0.112,0.196,0.182c0,0.084-0.056,0.141-0.112,0.196c-0.098,0.112-0.168,0.21-0.21,0.336
		c-0.14,0.337-0.266,0.631-0.49,1.051h2.731c1.358,0,1.849-0.027,1.947-0.027c0.14,0,0.154,0.014,0.154,0.153
		c0,0.084-0.028,0.869-0.028,3.096v2.956c0,3.74,0.028,4.482,0.028,4.553c0,0.14-0.015,0.153-0.154,0.153h-1.247
		c-0.14,0-0.154-0.014-0.154-0.153v-0.631h-6.317v0.658c0,0.141-0.014,0.154-0.153,0.154H252.554z M253.926,143.811h6.317v-1.527
		h-6.317V143.811z M260.243,146.696v-1.568h-6.317v1.568H260.243z M260.243,149.694v-1.681h-6.317v1.681H260.243z"/>
	<path d="M274.3,143.447c0.603,1.61,1.695,2.731,3.124,3.487c-0.238,0.309-0.435,0.631-0.603,1.022
		c-0.098,0.225-0.154,0.322-0.238,0.322s-0.168-0.056-0.322-0.168c-1.316-0.924-2.27-2.213-2.745-3.558
		c-0.519,1.583-1.485,2.731-2.815,3.558c-0.154,0.099-0.238,0.141-0.309,0.141c-0.084,0-0.14-0.084-0.28-0.267
		c-0.252-0.336-0.49-0.561-0.784-0.742c1.695-0.896,2.689-2.073,3.138-3.796h-0.252c-1.232,0-1.639,0.027-1.723,0.027
		c-0.799,1.877-2.102,3.572-4.385,4.819c-0.168,0.084-0.267,0.126-0.351,0.126c-0.098,0-0.153-0.084-0.294-0.309
		c-0.196-0.308-0.42-0.546-0.7-0.742c0.938-0.378,1.751-0.896,2.438-1.513c-0.322-0.378-0.687-0.7-1.064-0.98
		c-0.126-0.084-0.126-0.099,0.014-0.238l0.546-0.546c0.126-0.127,0.154-0.112,0.28-0.028c0.379,0.238,0.785,0.603,1.079,0.91
		c0.182-0.21,0.35-0.448,0.504-0.687c-0.336-0.364-0.7-0.658-1.036-0.882c-0.112-0.07-0.112-0.099,0-0.238l0.518-0.603
		c0.112-0.126,0.141-0.126,0.267-0.056c0.28,0.182,0.561,0.378,0.883,0.658c0.182-0.42,0.35-0.854,0.476-1.316h-1.778
		c-0.505,0.882-1.121,1.666-1.905,2.353c-0.154,0.141-0.252,0.225-0.351,0.225c-0.084,0-0.168-0.084-0.294-0.267
		c-0.196-0.28-0.406-0.49-0.645-0.658c1.19-0.883,2.073-2.017,2.647-3.53c0.141-0.321,0.21-0.63,0.252-0.91
		c0.435,0.07,0.827,0.154,1.219,0.267c0.154,0.042,0.21,0.098,0.21,0.182s-0.027,0.112-0.098,0.196
		c-0.084,0.084-0.154,0.21-0.252,0.462l-0.196,0.477h1.484c0.099,0,0.196,0,0.253-0.028c0.069-0.027,0.126-0.056,0.195-0.056
		c0.099,0,0.183,0.042,0.463,0.308c0.308,0.28,0.406,0.406,0.406,0.519c0,0.099-0.028,0.141-0.099,0.225
		c-0.069,0.098-0.14,0.322-0.21,0.532h1.709c0.028-0.309,0.042-0.631,0.057-0.967c0-0.841,0-1.345-0.07-1.933
		c0.504,0,0.882,0.014,1.387,0.069c0.14,0.028,0.224,0.099,0.224,0.154c0,0.084-0.014,0.141-0.084,0.252
		c-0.056,0.099-0.084,0.406-0.084,1.345c0,0.364-0.027,0.729-0.056,1.079h1.12c1.233,0,1.653-0.028,1.737-0.028
		c0.14,0,0.154,0.014,0.154,0.154v1.064c0,0.126-0.015,0.14-0.154,0.14c-0.084,0-0.504-0.027-1.737-0.027H274.3z M265.013,151.165
		c-0.182-0.14-0.182-0.168-0.084-0.266c0.715-0.673,1.289-1.485,1.681-2.34c0.057-0.14,0.07-0.154,0.28-0.056l0.771,0.378
		c0.154,0.07,0.168,0.112,0.112,0.252c-0.448,1.051-0.98,1.919-1.639,2.647c-0.057,0.057-0.084,0.084-0.126,0.084
		s-0.085-0.027-0.169-0.084L265.013,151.165z M269.859,148.727c0.183-0.014,0.21-0.014,0.252,0.141
		c0.196,0.798,0.28,1.709,0.351,2.633c0,0.141-0.042,0.196-0.225,0.211l-0.994,0.056c-0.21,0.014-0.238,0-0.238-0.141
		c0-0.896-0.07-1.82-0.224-2.646c-0.028-0.141,0.014-0.169,0.195-0.183L269.859,148.727z M272.549,148.643
		c0.183-0.042,0.21-0.027,0.267,0.099c0.336,0.771,0.602,1.723,0.784,2.549c0.042,0.154,0.014,0.196-0.168,0.238l-1.009,0.225
		c-0.21,0.056-0.225,0.042-0.252-0.112c-0.141-0.896-0.336-1.808-0.616-2.592c-0.057-0.126-0.042-0.168,0.153-0.21L272.549,148.643z
		 M275.196,148.349c0.154-0.07,0.196-0.07,0.28,0.028c0.63,0.742,1.247,1.639,1.709,2.535c0.07,0.14,0.056,0.168-0.112,0.266
		l-0.883,0.547c-0.182,0.098-0.224,0.084-0.279-0.042c-0.435-0.967-0.995-1.863-1.598-2.703c-0.084-0.112-0.084-0.154,0.099-0.238
		L275.196,148.349z M275.392,139.665c0.14-0.07,0.182-0.084,0.266,0.028c0.337,0.392,0.715,0.896,1.051,1.429
		c0.07,0.126,0.07,0.168-0.084,0.266l-0.687,0.421c-0.084,0.056-0.126,0.084-0.154,0.084c-0.042,0-0.069-0.042-0.111-0.127
		c-0.294-0.56-0.658-1.078-1.009-1.498c-0.098-0.126-0.098-0.168,0.07-0.252L275.392,139.665z"/>
	<path d="M282.402,141.36c0.995,0,1.317-0.028,1.415-0.028c0.14,0,0.154,0.014,0.154,0.154c0,0.069-0.028,0.56-0.028,1.933
		c0.91-1.078,1.443-2.199,1.793-3.166c0.112-0.364,0.21-0.756,0.267-1.19c0.532,0.099,1.135,0.238,1.387,0.336
		c0.182,0.057,0.294,0.126,0.294,0.225c0,0.112-0.014,0.154-0.141,0.28c-0.111,0.098-0.237,0.322-0.378,0.714
		c-0.098,0.267-0.21,0.519-0.322,0.771h2.62c1.008,0,1.33-0.027,1.414-0.027c0.141,0,0.168,0.027,0.168,0.168
		c-0.027,0.392-0.027,0.771-0.027,1.162c-0.015,3.222-0.112,5.253-0.406,7.102c-0.225,1.43-0.799,2.102-2.115,2.13
		c-0.309,0-0.7,0.014-1.064-0.015c-0.406-0.027-0.406-0.027-0.505-0.476c-0.098-0.379-0.252-0.799-0.406-1.079
		c0.757,0.112,1.233,0.154,1.793,0.141c0.505,0,0.743-0.463,0.883-1.205c0.267-1.513,0.351-3.684,0.351-6.598h-3.334
		c-0.336,0.589-0.729,1.177-1.19,1.751c-0.141,0.168-0.225,0.252-0.295,0.252c-0.069,0-0.14-0.084-0.294-0.252
		c-0.154-0.154-0.322-0.308-0.49-0.435v2.9c0,3.264,0.028,3.88,0.028,3.964c0,0.14-0.015,0.154-0.154,0.154h-1.078
		c-0.141,0-0.154-0.015-0.154-0.154v-0.673h-2.003v1.065c0,0.153-0.015,0.168-0.168,0.168h-1.065c-0.14,0-0.153-0.015-0.153-0.168
		c0-0.085,0.027-0.743,0.027-4.146v-2.424c0-2.437-0.027-3.109-0.027-3.207c0-0.141,0.014-0.154,0.153-0.154
		c0.084,0,0.379,0.028,1.191,0.028c0.168-0.491,0.336-1.023,0.434-1.472c0.057-0.266,0.084-0.476,0.112-0.798
		c0.504,0.056,1.022,0.14,1.442,0.224c0.127,0.028,0.196,0.099,0.196,0.183c0,0.098-0.027,0.14-0.126,0.224
		c-0.084,0.07-0.154,0.196-0.196,0.309c-0.153,0.42-0.308,0.896-0.476,1.331H282.402z M280.582,142.606v2.479h2.003v-2.479H280.582z
		 M282.585,148.937v-2.591h-2.003v2.591H282.585z M286.226,144.554c0.07-0.042,0.112-0.07,0.154-0.07
		c0.028,0,0.056,0.028,0.112,0.084c0.687,0.742,1.274,1.709,1.723,2.592c0.07,0.14,0.056,0.182-0.112,0.294l-0.868,0.603
		c-0.07,0.056-0.112,0.084-0.141,0.084c-0.042,0-0.069-0.042-0.098-0.126c-0.462-1.022-0.994-1.905-1.639-2.704
		c-0.084-0.111-0.07-0.14,0.098-0.252L286.226,144.554z"/>
	<path d="M253.309,182.593c0.056-0.49,0.07-0.757,0.042-1.135c0.477,0.042,0.938,0.098,1.387,0.182
		c0.154,0.028,0.28,0.07,0.28,0.183c0,0.098-0.056,0.168-0.112,0.266c-0.069,0.112-0.098,0.253-0.154,0.701
		c-0.224,1.639-1.12,2.815-2.591,3.361c-0.168,0.057-0.252,0.099-0.336,0.099c-0.099,0-0.154-0.085-0.309-0.322
		c-0.224-0.351-0.448-0.631-0.714-0.869C252.287,184.722,253.155,183.825,253.309,182.593z M254.332,174.553
		c0-0.406-0.014-0.729-0.084-1.065c0.477,0.015,0.995,0.042,1.4,0.084c0.112,0.015,0.196,0.07,0.196,0.141
		c0,0.084-0.027,0.126-0.084,0.21c-0.056,0.084-0.069,0.28-0.069,0.631h2.787c-0.014-0.393-0.028-0.729-0.084-1.065
		c0.477,0.015,1.009,0.057,1.4,0.099c0.126,0.014,0.196,0.056,0.196,0.14c0,0.07-0.014,0.126-0.07,0.21
		c-0.056,0.084-0.084,0.267-0.084,0.617h1.373c1.415,0,1.933-0.028,2.017-0.028c0.141,0,0.141,0.014,0.141,0.154v0.952
		c0,0.14,0,0.154-0.141,0.154c-0.084,0-0.602-0.028-2.017-0.028h-1.373c0,0.477,0.028,0.687,0.028,0.757
		c0,0.153-0.014,0.168-0.168,0.168h-1.093c-0.14,0-0.154-0.015-0.154-0.168c0-0.07,0.015-0.309,0.028-0.841h-2.787
		c0,0.532,0.027,0.771,0.027,0.841c0,0.14-0.014,0.153-0.154,0.153h-1.106c-0.14,0-0.154-0.014-0.154-0.153
		c0-0.07,0.015-0.28,0.028-0.757h-1.288c-1.373,0-1.85,0.028-1.934,0.028c-0.14,0-0.154-0.015-0.154-0.154v-0.952
		c0-0.141,0.015-0.154,0.154-0.154c0.084,0,0.561,0.028,1.934,0.028H254.332z M254.486,179.287c0,0.308,0.098,0.448,0.322,0.49
		c0.238,0.042,0.7,0.084,2.647,0.084c1.694,0,2.983-0.028,4.314-0.112c0.182-0.014,0.238,0.014,0.252,0.252l0.028,0.7
		c0.014,0.295,0,0.309-0.211,0.322c-1.274,0.07-2.451,0.099-4.454,0.099c-2.535,0-3.222-0.057-3.726-0.238
		c-0.393-0.154-0.616-0.393-0.616-1.19v-1.205c-1.177,0-1.598,0.028-1.682,0.028c-0.153,0-0.168-0.015-0.168-0.154v-0.952
		c0-0.141,0.015-0.154,0.168-0.154c0.084,0,0.519,0.028,1.808,0.028h3.249v-0.085c0-0.405,0-0.616-0.084-0.994
		c0.547,0,0.854,0.028,1.317,0.07c0.14,0.014,0.21,0.07,0.21,0.154s-0.042,0.153-0.07,0.224c-0.042,0.112-0.056,0.225-0.056,0.561
		v0.07h3.403c1.289,0,1.737-0.028,1.821-0.028c0.14,0,0.154,0.014,0.154,0.154v0.952c0,0.14-0.015,0.154-0.154,0.154
		c-0.084,0-0.532-0.028-1.821-0.028h-6.653V179.287z M256.266,183.026c0-0.672-0.015-1.022-0.084-1.414
		c0.518,0.014,0.938,0.042,1.442,0.098c0.126,0.015,0.21,0.07,0.21,0.154c0,0.112-0.042,0.182-0.084,0.294
		c-0.042,0.126-0.07,0.322-0.07,0.841v1.246c0,0.967,0.028,1.345,0.028,1.429c0,0.141-0.014,0.154-0.168,0.154h-1.135
		c-0.154,0-0.168-0.014-0.168-0.154c0-0.098,0.028-0.462,0.028-1.429V183.026z M260.678,184.329c0,0.253,0.014,0.337,0.098,0.393
		c0.07,0.042,0.28,0.07,0.547,0.07c0.322,0,0.602-0.028,0.687-0.183c0.111-0.168,0.126-0.49,0.126-1.33
		c0.294,0.153,0.616,0.266,0.938,0.336c0.364,0.084,0.364,0.098,0.35,0.462c-0.056,0.953-0.182,1.331-0.49,1.625
		c-0.266,0.267-0.658,0.378-1.709,0.378c-0.729,0-1.204-0.014-1.555-0.21c-0.238-0.126-0.392-0.392-0.392-0.994v-1.821
		c0-0.616-0.028-1.022-0.085-1.526c0.505,0.014,0.995,0.042,1.43,0.098c0.14,0.014,0.21,0.084,0.21,0.154
		c0,0.098-0.042,0.168-0.084,0.238c-0.057,0.126-0.07,0.238-0.07,0.771V184.329z"/>
	<path d="M267.478,175.883c0.126,0.057,0.224,0.154,0.224,0.252c0,0.084-0.042,0.225-0.112,0.393
		c-0.056,0.168-0.126,0.771-0.126,1.373c0,0.896,0.028,1.904,0.252,3.193c0.196,1.106,0.561,2.06,1.149,2.06
		c0.448,0,0.798-0.49,1.345-1.947c0.308,0.49,0.616,0.812,0.896,1.078c0.168,0.154,0.168,0.322,0.098,0.519
		c-0.532,1.429-1.4,2.186-2.381,2.186c-1.093,0-2.241-1.289-2.62-3.656c-0.224-1.331-0.336-2.788-0.336-4.076
		c0-0.771-0.028-1.19-0.168-1.835C266.371,175.505,267.058,175.673,267.478,175.883z M273.977,176.765
		c0.056-0.028,0.112-0.057,0.154-0.057c0.056,0,0.098,0.028,0.154,0.085c1.274,1.106,2.395,3.039,2.745,4.79
		c0.042,0.183-0.042,0.238-0.154,0.309c-0.364,0.237-0.714,0.434-1.093,0.56c-0.168,0.057-0.266,0.015-0.294-0.153
		c-0.476-2.004-1.19-3.46-2.619-4.889C273.403,177.073,273.754,176.878,273.977,176.765z"/>
	<path d="M255.228,214.44c0,3.572,0.028,4.287,0.028,4.371c0,0.14-0.014,0.153-0.154,0.153h-1.009c-0.126,0-0.14-0.014-0.14-0.153
		v-0.603h-1.331v1.093c0,0.14-0.014,0.153-0.154,0.153h-1.008c-0.141,0-0.154-0.014-0.154-0.153c0-0.099,0.028-0.841,0.028-4.623
		v-2.619c0-2.619-0.028-3.39-0.028-3.488c0-0.14,0.014-0.153,0.154-0.153c0.098,0,0.364,0.027,1.219,0.027h1.204
		c0.854,0,1.121-0.027,1.219-0.027c0.141,0,0.154,0.014,0.154,0.153c0,0.084-0.028,0.812-0.028,2.998V214.44z M252.623,209.72v2.886
		h1.331v-2.886H252.623z M253.954,216.934v-3.082h-1.331v3.082H253.954z M257.638,213.726c-1.345,0-1.807,0.027-1.891,0.027
		c-0.141,0-0.154-0.014-0.154-0.168v-0.98c0-0.14,0.014-0.153,0.154-0.153c0.084,0,0.546,0.027,1.891,0.027h2.578
		c0.168-0.462,0.308-0.952,0.378-1.204c0.056-0.211,0.098-0.435,0.126-0.729c0.448,0.069,0.91,0.154,1.274,0.238
		c0.154,0.042,0.21,0.069,0.21,0.153c0,0.099-0.042,0.141-0.111,0.211c-0.07,0.069-0.141,0.21-0.196,0.363
		c-0.112,0.295-0.225,0.575-0.393,0.967h0.084c1.331,0,1.793-0.027,1.877-0.027c0.154,0,0.168,0.014,0.168,0.153v0.98
		c0,0.154-0.014,0.168-0.168,0.168c-0.084,0-0.546-0.027-1.877-0.027H257.638z M257.904,210.421c-1.274,0-1.723,0.027-1.821,0.027
		c-0.14,0-0.154-0.014-0.154-0.168v-0.966c0-0.127,0.015-0.141,0.154-0.141c0.099,0,0.547,0.028,1.821,0.028h0.812v-0.252
		c0-0.519-0.028-0.883-0.099-1.219c0.532,0.014,0.98,0.042,1.471,0.084c0.141,0.014,0.225,0.069,0.225,0.14
		c0,0.099-0.042,0.168-0.084,0.267c-0.042,0.098-0.07,0.308-0.07,0.742v0.238h1.135c1.274,0,1.723-0.028,1.807-0.028
		c0.154,0,0.168,0.014,0.168,0.141v0.966c0,0.154-0.014,0.168-0.168,0.168c-0.084,0-0.532-0.027-1.807-0.027H257.904z
		 M256.615,220.548c-0.14,0-0.154-0.014-0.154-0.154c0-0.084,0.028-0.476,0.028-2.591v-1.331c0-1.303-0.028-1.694-0.028-1.793
		c0-0.14,0.015-0.154,0.154-0.154c0.084,0,0.477,0.028,1.653,0.028h2.438c1.162,0,1.568-0.028,1.639-0.028
		c0.154,0,0.168,0.015,0.168,0.154c0,0.084-0.028,0.49-0.028,1.583v1.513c0,2.115,0.028,2.508,0.028,2.592
		c0,0.126-0.014,0.14-0.168,0.14h-1.022c-0.154,0-0.168-0.014-0.168-0.14v-0.477h-3.349v0.504c0,0.141-0.014,0.154-0.153,0.154
		H256.615z M257.904,210.56c0.154-0.042,0.196-0.014,0.266,0.112c0.196,0.378,0.379,0.84,0.477,1.219
		c0.042,0.14,0.028,0.154-0.154,0.196l-0.84,0.237c-0.168,0.042-0.211,0.015-0.253-0.153c-0.098-0.393-0.252-0.827-0.434-1.177
		c-0.084-0.154-0.042-0.183,0.14-0.225L257.904,210.56z M257.806,216.639h3.349v-0.98h-3.349V216.639z M261.154,218.783v-1.079
		h-3.349v1.079H261.154z"/>
	<path d="M267.478,210.196c0.126,0.057,0.224,0.154,0.224,0.252c0,0.084-0.042,0.225-0.112,0.393
		c-0.056,0.168-0.126,0.771-0.126,1.373c0,0.896,0.028,1.904,0.252,3.193c0.196,1.106,0.561,2.06,1.149,2.06
		c0.448,0,0.798-0.49,1.345-1.947c0.308,0.49,0.616,0.812,0.896,1.078c0.168,0.154,0.168,0.322,0.098,0.519
		c-0.532,1.429-1.4,2.186-2.381,2.186c-1.093,0-2.241-1.289-2.62-3.656c-0.224-1.331-0.336-2.788-0.336-4.076
		c0-0.771-0.028-1.19-0.168-1.835C266.371,209.818,267.058,209.986,267.478,210.196z M273.977,211.079
		c0.056-0.028,0.112-0.057,0.154-0.057c0.056,0,0.098,0.028,0.154,0.085c1.274,1.106,2.395,3.039,2.745,4.79
		c0.042,0.183-0.042,0.238-0.154,0.309c-0.364,0.237-0.714,0.434-1.093,0.56c-0.168,0.057-0.266,0.015-0.294-0.153
		c-0.476-2.004-1.19-3.46-2.619-4.889C273.403,211.387,273.754,211.191,273.977,211.079z"/>
</g>
</svg>
