<?xml version="1.0" encoding="utf-8"?>
<!-- Generator: Adobe Illustrator 21.1.0, SVG Export Plug-In . SVG Version: 6.00 Build 0)  -->
<svg version="1.1" id="レイヤー_1" xmlns="http://www.w3.org/2000/svg" xmlns:xlink="http://www.w3.org/1999/xlink" x="0px"
	 y="0px" viewBox="0 0 141.732 141.732" enable-background="new 0 0 141.732 141.732" xml:space="preserve">
<g>
	<path fill="#C9CACA" d="M70.866,70.826L49.631,18.268c6.966-2.815,13.721-4.128,21.235-4.128V70.826z"/>
	<path fill="#9FA0A0" d="M70.866,70.826L22.794,40.787c6.636-10.62,15.226-17.828,26.837-22.519L70.866,70.826z"/>
	<path fill="#727171" d="M70.866,70.826H14.181c0-11.27,2.641-20.481,8.613-30.039L70.866,70.826z"/>
	<path fill="#595757" d="M70.866,70.826l52.92,20.314c-11.219,29.227-44.007,43.825-73.234,32.606
		c-22.213-8.527-36.371-29.127-36.371-52.92H70.866z"/>
	<path fill="#3E3A39" d="M70.866,70.826V14.141c31.306,0,56.685,25.379,56.685,56.685c0,7.514-1.072,13.3-3.765,20.314
		L70.866,70.826z"/>
</g>
<g>
	<path fill="#FFFFFF" d="M91.037,57.968v-1.039c0.11,0.01,0.229,0.02,0.339,0.02c1.18,0,1.849-0.31,1.849-0.999
		c0-0.62-0.54-0.96-1.339-0.96c-0.56,0-1.119,0.12-1.609,0.35l-0.09-1.099c0.58-0.221,1.279-0.3,1.899-0.3
		c1.569,0,2.519,0.68,2.519,1.818c0,0.93-0.66,1.489-1.659,1.619v0.03c1.049,0.109,1.749,0.76,1.749,1.709
		c0,1.26-1.189,2.039-2.878,2.039c-0.609,0-1.219-0.07-1.829-0.26l0.07-1.17c0.609,0.24,1.149,0.36,1.689,0.36
		c0.879,0,1.529-0.32,1.529-1.069c0-0.75-0.69-1.06-1.889-1.06C91.306,57.958,91.157,57.958,91.037,57.968z"/>
	<path fill="#FFFFFF" d="M99.535,61.036h-1.419v-3.648c0-0.589,0.02-1.539,0.04-1.908h-0.02c-0.16,0.159-0.49,0.439-0.85,0.729
		l-0.36,0.29l-0.689-0.939l2.029-1.5h1.27V61.036z"/>
</g>
<g>
	<path fill="#FFFFFF" d="M82.243,49.505c-0.06-0.045-0.06-0.065-0.025-0.105c0.225-0.21,0.39-0.455,0.505-0.735
		c0.025-0.05,0.035-0.04,0.1-0.016l0.305,0.126c0.06,0.02,0.07,0.029,0.05,0.08c-0.135,0.34-0.315,0.585-0.546,0.851
		c-0.015,0.02-0.03,0.03-0.045,0.03s-0.035-0.011-0.06-0.03L82.243,49.505z M82.904,46.857c-0.445,0-0.596,0.01-0.626,0.01
		c-0.05,0-0.055-0.005-0.055-0.056v-0.32c0-0.05,0.005-0.055,0.055-0.055c0.03,0,0.181,0.01,0.626,0.01h0.565
		c-0.045-0.125-0.095-0.245-0.155-0.365c-0.48,0-0.646,0.01-0.676,0.01c-0.055,0-0.06-0.005-0.06-0.06v-0.3
		c0-0.051,0.005-0.056,0.06-0.056c0.03,0,0.195,0.01,0.681,0.01h0.821v-0.034c0-0.16-0.01-0.271-0.035-0.391
		c0.18,0,0.38,0.01,0.556,0.024c0.045,0.005,0.075,0.025,0.075,0.051c0,0.034-0.015,0.06-0.03,0.095
		c-0.015,0.045-0.02,0.095-0.02,0.221v0.034h0.886c0.485,0,0.651-0.01,0.681-0.01c0.05,0,0.055,0.005,0.055,0.056v0.3
		c0,0.055-0.005,0.06-0.055,0.06c-0.03,0-0.195-0.01-0.686-0.01h-0.065c-0.015,0.025-0.035,0.056-0.045,0.085
		c-0.03,0.065-0.07,0.181-0.12,0.28h0.621c0.445,0,0.596-0.01,0.626-0.01c0.055,0,0.06,0.005,0.06,0.055v0.32
		c0,0.051-0.005,0.056-0.06,0.056c-0.03,0-0.181-0.01-0.626-0.01H82.904z M85.261,47.072c0.485,0,0.655-0.01,0.69-0.01
		c0.05,0,0.055,0.005,0.055,0.055c0,0.03-0.01,0.141-0.01,0.4v0.516c0,0.261,0.01,0.37,0.01,0.4c0,0.05-0.005,0.055-0.055,0.055
		c-0.035,0-0.205-0.01-0.69-0.01h-1.662c-0.485,0-0.655,0.01-0.69,0.01c-0.05,0-0.055-0.005-0.055-0.055c0-0.035,0.01-0.14,0.01-0.4
		v-0.516c0-0.26-0.01-0.365-0.01-0.4c0-0.05,0.005-0.055,0.055-0.055c0.035,0,0.205,0.01,0.69,0.01H85.261z M83.914,49.149
		c0,0.105,0.02,0.16,0.08,0.186c0.08,0.029,0.25,0.034,0.456,0.034c0.32,0,0.521-0.005,0.63-0.06c0.085-0.04,0.125-0.186,0.13-0.4
		c0.1,0.06,0.22,0.11,0.365,0.15c0.125,0.035,0.125,0.035,0.11,0.17c-0.045,0.266-0.13,0.41-0.255,0.476
		c-0.185,0.09-0.476,0.115-0.996,0.115c-0.436,0-0.716-0.021-0.855-0.085c-0.11-0.061-0.186-0.141-0.186-0.411v-0.315
		c0-0.149-0.005-0.27-0.025-0.415c0.165,0.005,0.36,0.015,0.51,0.035c0.065,0.01,0.09,0.024,0.09,0.045
		c0,0.025-0.005,0.045-0.025,0.075c-0.025,0.04-0.03,0.1-0.03,0.21V49.149z M83.379,47.407v0.216h2.097v-0.216H83.379z
		 M85.476,47.923h-2.097v0.226h2.097V47.923z M83.845,46.081c0.05,0.105,0.095,0.226,0.14,0.365h0.826
		c0.055-0.12,0.11-0.26,0.14-0.365H83.845z M84.395,48.544c0.055-0.04,0.07-0.04,0.115-0.01c0.14,0.095,0.295,0.234,0.431,0.395
		c0.03,0.04,0.03,0.051-0.021,0.091l-0.225,0.189c-0.03,0.025-0.05,0.035-0.065,0.035c-0.02,0-0.03-0.01-0.05-0.035
		c-0.12-0.16-0.246-0.285-0.396-0.42c-0.055-0.035-0.05-0.03,0.015-0.085L84.395,48.544z M85.911,48.589
		c0.055-0.035,0.065-0.03,0.105,0.005c0.265,0.23,0.486,0.485,0.671,0.751c0.03,0.045,0.025,0.06-0.025,0.095l-0.311,0.205
		c-0.03,0.021-0.05,0.03-0.065,0.03s-0.025-0.015-0.04-0.04c-0.18-0.335-0.36-0.546-0.616-0.801c-0.04-0.04-0.035-0.04,0.025-0.08
		L85.911,48.589z"/>
	<path fill="#FFFFFF" d="M88.034,46.151c0.351,0,0.471-0.01,0.496-0.01c0.045,0,0.05,0.005,0.05,0.055v0.355
		c0,0.055-0.005,0.061-0.05,0.061c-0.025,0-0.145-0.011-0.496-0.011h-0.36c-0.355,0-0.465,0.011-0.495,0.011
		c-0.045,0-0.05-0.006-0.05-0.061v-0.355c0-0.05,0.005-0.055,0.05-0.055c0.03,0,0.14,0.01,0.495,0.01H88.034z M88.474,49.009
		c0,0.556,0.01,0.666,0.01,0.696c0,0.05-0.005,0.055-0.055,0.055h-0.32c-0.05,0-0.055-0.005-0.055-0.055V49.54h-0.345v0.26
		c0,0.045-0.005,0.05-0.055,0.05h-0.325c-0.055,0-0.06-0.005-0.06-0.05c0-0.035,0.01-0.15,0.01-0.73v-0.355
		c0-0.315-0.01-0.436-0.01-0.471c0-0.05,0.005-0.055,0.06-0.055c0.03,0,0.135,0.01,0.456,0.01h0.185c0.32,0,0.425-0.01,0.46-0.01
		c0.05,0,0.055,0.005,0.055,0.055c0,0.03-0.01,0.15-0.01,0.386V49.009z M88.019,45.48c0.295,0,0.39-0.01,0.42-0.01
		c0.05,0,0.055,0.005,0.055,0.055v0.331c0,0.05-0.005,0.055-0.055,0.055c-0.03,0-0.125-0.01-0.42-0.01h-0.271
		c-0.3,0-0.396,0.01-0.425,0.01c-0.045,0-0.05-0.005-0.05-0.055v-0.331c0-0.05,0.005-0.055,0.05-0.055c0.03,0,0.125,0.01,0.425,0.01
		H88.019z M87.973,46.852c0.28,0,0.366-0.011,0.391-0.011c0.055,0,0.06,0.005,0.06,0.056v0.325c0,0.05-0.005,0.055-0.06,0.055
		c-0.025,0-0.11-0.01-0.391-0.01h-0.205c-0.285,0-0.371,0.01-0.396,0.01c-0.05,0-0.05-0.005-0.05-0.055v-0.325
		c0-0.051,0-0.056,0.05-0.056c0.025,0,0.11,0.011,0.396,0.011H87.973z M87.973,47.527c0.28,0,0.366-0.01,0.391-0.01
		c0.055,0,0.06,0.005,0.06,0.056v0.32c0,0.05-0.005,0.055-0.06,0.055c-0.025,0-0.11-0.01-0.391-0.01h-0.205
		c-0.285,0-0.371,0.01-0.396,0.01c-0.05,0-0.05-0.005-0.05-0.055v-0.32c0-0.051,0-0.056,0.05-0.056c0.025,0,0.11,0.01,0.396,0.01
		H87.973z M87.708,48.608v0.521h0.345v-0.521H87.708z M89.315,47.277c-0.485,0-0.65,0.01-0.681,0.01c-0.055,0-0.06-0.005-0.06-0.055
		v-0.33c0-0.056,0.005-0.061,0.06-0.061c0.02,0,0.11,0.005,0.325,0.011c-0.035-0.141-0.085-0.306-0.13-0.416
		c-0.02-0.05-0.01-0.055,0.055-0.075l0.24-0.069c0.055-0.016,0.06-0.011,0.085,0.039c0.055,0.126,0.115,0.336,0.15,0.521h0.24
		c0.035-0.121,0.065-0.251,0.085-0.361c0.01-0.06,0.02-0.125,0.025-0.215c0.14,0.03,0.295,0.07,0.396,0.105
		c0.035,0.015,0.06,0.024,0.06,0.055c0,0.035-0.015,0.05-0.03,0.061c-0.02,0.015-0.04,0.04-0.05,0.074l-0.09,0.281h0.44
		l-0.015-0.842c-0.005-0.335-0.01-0.485-0.035-0.695c0.185,0.005,0.295,0.01,0.47,0.035c0.045,0.005,0.085,0.025,0.085,0.05
		c0,0.04-0.021,0.07-0.03,0.105c-0.025,0.06-0.035,0.15-0.03,0.49c0,0.311,0,0.596,0.01,0.856h0.09c0.485,0,0.655-0.011,0.686-0.011
		c0.05,0,0.055,0.005,0.055,0.061v0.33c0,0.05-0.005,0.055-0.055,0.055c-0.03,0-0.2-0.01-0.686-0.01h-0.075
		c0.015,0.341,0.04,0.631,0.08,0.881c0.045-0.085,0.09-0.18,0.13-0.28c0.05-0.125,0.09-0.25,0.115-0.4
		c0.115,0.055,0.28,0.115,0.38,0.19c0.045,0.035,0.065,0.055,0.065,0.085c0,0.04-0.02,0.061-0.06,0.1
		c-0.03,0.035-0.085,0.146-0.13,0.246c-0.115,0.245-0.235,0.465-0.371,0.665c0.09,0.306,0.186,0.456,0.235,0.456
		c0.055,0,0.1-0.12,0.12-0.586c0.07,0.065,0.165,0.13,0.255,0.18c0.09,0.051,0.085,0.065,0.075,0.166
		c-0.065,0.596-0.205,0.806-0.445,0.806c-0.205,0-0.41-0.19-0.575-0.591c-0.2,0.221-0.431,0.42-0.696,0.61
		c-0.05,0.035-0.08,0.056-0.105,0.056c-0.035,0-0.055-0.035-0.101-0.101c-0.06-0.095-0.155-0.19-0.21-0.235
		c0.125-0.08,0.245-0.155,0.355-0.24h-0.23c-0.05,0-0.055-0.005-0.055-0.055v-0.055h-0.536v0.279c0,0.051-0.005,0.056-0.055,0.056
		h-0.325c-0.05,0-0.055-0.005-0.055-0.056c0-0.029,0.01-0.165,0.01-0.896v-0.396c0-0.436-0.01-0.58-0.01-0.615
		c0-0.05,0.005-0.055,0.055-0.055c0.035,0,0.13,0.01,0.43,0.01h0.436c0.3,0,0.4-0.01,0.43-0.01c0.05,0,0.055,0.005,0.055,0.055
		c0,0.03-0.01,0.17-0.01,0.49v0.45c0,0.396,0.005,0.591,0.005,0.681c0.175-0.14,0.325-0.29,0.46-0.455
		c-0.015-0.05-0.025-0.105-0.035-0.16c-0.075-0.34-0.115-0.766-0.14-1.276H89.315z M89.21,46.217c-0.345,0-0.451,0.01-0.48,0.01
		c-0.045,0-0.05-0.005-0.05-0.061v-0.325c0-0.05,0.005-0.055,0.05-0.055c0.03,0,0.135,0.01,0.48,0.01h0.035v-0.14
		c0-0.141-0.01-0.256-0.03-0.371c0.18,0,0.311,0.005,0.476,0.025c0.05,0.005,0.08,0.025,0.08,0.045c0,0.035-0.02,0.061-0.035,0.095
		c-0.015,0.041-0.015,0.101-0.015,0.206v0.14h0.04c0.346,0,0.451-0.01,0.476-0.01c0.05,0,0.055,0.005,0.055,0.055v0.325
		c0,0.056-0.005,0.061-0.055,0.061c-0.025,0-0.13-0.01-0.476-0.01H89.21z M89.205,48.143h0.536v-0.266h-0.536V48.143z
		 M89.741,48.794v-0.285h-0.536v0.285H89.741z M91.347,46.457c-0.06,0.024-0.08,0.024-0.095-0.035
		c-0.06-0.261-0.145-0.491-0.245-0.671c-0.025-0.045-0.02-0.065,0.04-0.09l0.225-0.09c0.06-0.025,0.065-0.03,0.095,0.015
		c0.12,0.2,0.215,0.455,0.27,0.66c0.015,0.051,0.005,0.08-0.045,0.101L91.347,46.457z"/>
	<path fill="#FFFFFF" d="M93.264,45.616c0.085,0.02,0.12,0.045,0.12,0.095c0,0.055-0.03,0.115-0.05,0.165
		c-0.025,0.07-0.045,0.226-0.07,0.61c-0.05,0.771-0.075,1.281-0.075,1.938c0,0.505,0.06,0.62,0.46,0.62
		c0.445,0,1.141-0.27,1.752-0.921c0.02,0.19,0.065,0.355,0.115,0.476c0.025,0.055,0.04,0.09,0.04,0.12
		c0,0.045-0.021,0.085-0.101,0.155c-0.54,0.495-1.246,0.751-1.896,0.751c-0.641,0-0.941-0.256-0.941-1.021
		c0-0.841,0.045-1.562,0.07-2.162c0.01-0.295,0.025-0.615-0.05-0.916C92.869,45.551,93.109,45.576,93.264,45.616z"/>
	<path fill="#FFFFFF" d="M97.801,46.446c-0.611,0.115-1.146,0.221-1.682,0.331c-0.19,0.045-0.24,0.055-0.315,0.08
		c-0.035,0.015-0.07,0.04-0.11,0.04c-0.035,0-0.075-0.03-0.095-0.075c-0.065-0.136-0.12-0.311-0.185-0.541
		c0.255-0.01,0.405-0.03,0.795-0.085c0.616-0.09,1.717-0.255,3.008-0.426c0.075-0.01,0.1,0.021,0.105,0.056
		c0.025,0.115,0.05,0.3,0.055,0.44c0,0.06-0.03,0.075-0.095,0.075c-0.235,0.015-0.396,0.04-0.611,0.11
		c-0.851,0.29-1.276,0.875-1.276,1.476c0,0.646,0.461,0.996,1.332,1.052c0.08,0,0.11,0.02,0.11,0.074
		c0,0.131-0.02,0.306-0.055,0.431c-0.015,0.075-0.035,0.105-0.095,0.105c-0.881,0-1.847-0.506-1.847-1.547
		c0-0.71,0.355-1.19,0.961-1.586V46.446z"/>
	<path fill="#FFFFFF" d="M100.849,46.161c0.045,0.021,0.08,0.056,0.08,0.09c0,0.03-0.015,0.08-0.04,0.141
		c-0.02,0.061-0.045,0.275-0.045,0.49c0,0.32,0.01,0.681,0.09,1.142c0.07,0.396,0.2,0.735,0.411,0.735
		c0.16,0,0.285-0.175,0.48-0.695c0.11,0.175,0.22,0.29,0.32,0.385c0.06,0.056,0.06,0.115,0.035,0.186
		c-0.19,0.511-0.5,0.781-0.851,0.781c-0.391,0-0.801-0.461-0.936-1.307c-0.08-0.476-0.12-0.996-0.12-1.457
		c0-0.274-0.01-0.425-0.06-0.655C100.453,46.026,100.699,46.086,100.849,46.161z M103.171,46.476c0.02-0.01,0.04-0.02,0.055-0.02
		c0.02,0,0.035,0.01,0.055,0.029c0.455,0.396,0.855,1.087,0.98,1.712c0.015,0.065-0.015,0.085-0.055,0.11
		c-0.13,0.085-0.255,0.155-0.391,0.2c-0.06,0.02-0.095,0.005-0.105-0.055c-0.17-0.716-0.425-1.236-0.936-1.747
		C102.966,46.587,103.091,46.517,103.171,46.476z"/>
	<path fill="#FFFFFF" d="M106.445,47.378c0.28-0.16,0.516-0.226,0.796-0.226c0.731,0,1.241,0.48,1.241,1.201
		c0,0.836-0.676,1.371-1.747,1.371c-0.63,0-1.011-0.271-1.011-0.735c0-0.336,0.315-0.61,0.706-0.61c0.47,0,0.815,0.25,0.941,0.73
		c0.35-0.16,0.51-0.381,0.51-0.761c0-0.455-0.32-0.756-0.786-0.756c-0.416,0-0.876,0.186-1.281,0.53
		c-0.145,0.13-0.285,0.275-0.436,0.426c-0.035,0.035-0.06,0.055-0.085,0.055c-0.02,0-0.045-0.015-0.075-0.045
		c-0.105-0.09-0.215-0.22-0.295-0.325c-0.03-0.04-0.015-0.075,0.025-0.115c0.39-0.315,0.735-0.636,1.186-1.105
		c0.31-0.32,0.545-0.571,0.776-0.856c-0.3,0.056-0.656,0.125-0.966,0.19c-0.065,0.015-0.13,0.03-0.21,0.06
		c-0.025,0.011-0.075,0.025-0.1,0.025c-0.05,0-0.085-0.025-0.11-0.085c-0.06-0.115-0.105-0.256-0.175-0.541
		c0.15,0.021,0.315,0.021,0.465,0.011c0.305-0.03,0.746-0.096,1.136-0.171c0.125-0.024,0.225-0.05,0.275-0.074
		c0.025-0.016,0.07-0.041,0.095-0.041c0.05,0,0.08,0.016,0.115,0.041c0.15,0.114,0.25,0.215,0.335,0.32
		c0.04,0.045,0.055,0.08,0.055,0.119c0,0.051-0.03,0.096-0.085,0.121c-0.085,0.039-0.125,0.074-0.22,0.16
		c-0.365,0.354-0.701,0.705-1.081,1.07L106.445,47.378z M106.45,48.804c-0.145,0-0.24,0.085-0.24,0.19
		c0,0.155,0.135,0.261,0.435,0.261c0.09,0,0.155-0.006,0.23-0.021C106.81,48.959,106.66,48.804,106.45,48.804z"/>
</g>
<g>
	<path fill="#FFFFFF" d="M62.977,102.469h0.949v1.059h-0.949v1.43h-1.33v-1.43H58.42v-1.119l2.858-4.428h1.699V102.469z
		 M61.678,101.289c0-0.59,0.01-1.499,0.04-2.278h-0.02c-0.26,0.51-0.75,1.339-0.99,1.719l-1.079,1.739h2.049V101.289z"/>
	<path fill="#FFFFFF" d="M68.937,102.469h0.949v1.059h-0.949v1.43h-1.33v-1.43H64.38v-1.119l2.858-4.428h1.699V102.469z
		 M67.638,101.289c0-0.59,0.01-1.499,0.04-2.278h-0.02c-0.26,0.51-0.75,1.339-0.99,1.719l-1.079,1.739h2.049V101.289z"/>
</g>
<g>
	<path fill="#FFFFFF" d="M43.572,91.699c-0.346,0.01-0.686,0.01-1.031-0.021c-0.055,0-0.075-0.02-0.08-0.085
		c-0.02-0.11-0.03-0.311-0.03-0.426c0.371,0.045,0.751,0.056,1.126,0.04c-0.005-0.189-0.005-0.385-0.01-0.575
		c-0.48,0.015-0.841,0.015-1.196-0.025c-0.055,0-0.08-0.02-0.085-0.069c-0.015-0.126-0.025-0.245-0.035-0.451
		c0.436,0.051,0.871,0.051,1.312,0.051c0-0.186-0.005-0.315-0.01-0.485c-0.01-0.115-0.021-0.206-0.061-0.336
		c0.266,0.016,0.48,0.045,0.631,0.09c0.06,0.021,0.09,0.091,0.055,0.15c-0.035,0.07-0.07,0.155-0.075,0.24
		c-0.005,0.101-0.005,0.17-0.01,0.32c0.466-0.035,0.801-0.09,1.096-0.15c0.06-0.015,0.08,0,0.085,0.061
		c0.02,0.14,0.025,0.275,0.025,0.365c0,0.065-0.015,0.075-0.055,0.08c-0.355,0.061-0.676,0.1-1.156,0.13
		c0,0.2,0.005,0.386,0.005,0.565c0.381-0.024,0.621-0.074,0.981-0.13c0.06-0.015,0.075-0.005,0.08,0.04
		c0.005,0.096,0.015,0.261,0.015,0.41c0,0.051-0.02,0.065-0.075,0.07c-0.33,0.055-0.561,0.09-0.98,0.12
		c0.01,0.23,0.02,0.476,0.035,0.706c0.48,0.135,0.891,0.315,1.327,0.605c0.05,0.045,0.05,0.06,0.035,0.12
		c-0.035,0.095-0.14,0.28-0.22,0.37c-0.02,0.03-0.04,0.04-0.065,0.04c-0.015,0-0.035-0.005-0.055-0.024
		c-0.305-0.24-0.615-0.416-0.996-0.571c-0.005,0.541-0.33,0.761-1.016,0.761c-0.651,0-1.021-0.285-1.021-0.7
		c0-0.405,0.395-0.711,1.001-0.711c0.125,0,0.245,0,0.48,0.021C43.587,92.074,43.577,91.869,43.572,91.699z M43.141,92.71
		c-0.365,0-0.541,0.104-0.541,0.265c0,0.131,0.15,0.226,0.496,0.226c0.2,0,0.385-0.06,0.455-0.15c0.04-0.055,0.055-0.14,0.055-0.28
		C43.462,92.734,43.282,92.71,43.141,92.71z"/>
	<path fill="#FFFFFF" d="M48.137,89.441c0.06,0.021,0.09,0.051,0.09,0.09c0,0.035-0.005,0.056-0.025,0.08
		c-0.045,0.056-0.06,0.126-0.07,0.181c-0.015,0.09-0.025,0.165-0.04,0.25c0.46-0.045,0.815-0.1,1.301-0.21
		c0.061-0.015,0.075,0.005,0.085,0.05c0.025,0.105,0.05,0.23,0.05,0.341c0,0.064-0.05,0.09-0.105,0.1
		c-0.661,0.136-0.966,0.17-1.421,0.211c-0.02,0.21-0.03,0.33-0.035,0.505c0.195-0.065,0.521-0.104,0.766-0.11
		c0.03-0.08,0.08-0.225,0.085-0.365c0.18,0.056,0.375,0.136,0.445,0.186c0.06,0.04,0.09,0.08,0.09,0.11c0,0.02-0.01,0.04-0.03,0.06
		c-0.025,0.025-0.04,0.055-0.065,0.101c0.646,0.17,1.026,0.595,1.026,1.221c0,0.726-0.596,1.196-1.391,1.411
		c-0.11,0.03-0.166,0.016-0.221-0.095c-0.035-0.07-0.135-0.175-0.295-0.311c0.36-0.075,0.746-0.235,0.931-0.365
		c0.24-0.175,0.4-0.391,0.4-0.751c0-0.4-0.285-0.641-0.621-0.726c-0.29,0.551-0.585,0.946-0.946,1.312
		c0.025,0.09,0.055,0.146,0.09,0.226c0.03,0.064,0.01,0.09-0.04,0.125c-0.115,0.085-0.23,0.145-0.3,0.175
		c-0.05,0.025-0.07,0.025-0.101-0.025c-0.035-0.06-0.06-0.119-0.085-0.194c-0.355,0.245-0.615,0.36-0.871,0.36
		c-0.34,0-0.556-0.23-0.556-0.621c0-0.641,0.556-1.251,1.171-1.557c0.005-0.215,0.015-0.436,0.025-0.625
		c-0.295,0.01-0.431,0.005-0.516,0.005c-0.145,0-0.225,0-0.285-0.011c-0.055-0.005-0.085-0.029-0.09-0.114
		c-0.015-0.11-0.015-0.24-0.025-0.381c0.32,0.035,0.596,0.025,0.971,0.021c0.02-0.181,0.04-0.406,0.04-0.546
		c0-0.075-0.005-0.146-0.021-0.226C47.841,89.361,48.012,89.396,48.137,89.441z M46.805,92.654c0,0.121,0.075,0.19,0.166,0.19
		c0.14,0,0.325-0.09,0.58-0.29c-0.05-0.301-0.09-0.57-0.1-0.861C47.065,91.969,46.805,92.329,46.805,92.654z M48.582,91.353
		c-0.18,0.005-0.41,0.04-0.641,0.115c0.005,0.26,0.02,0.495,0.06,0.751C48.206,91.984,48.442,91.634,48.582,91.353z"/>
	<path fill="#FFFFFF" d="M52.597,91.699c-0.346,0.01-0.686,0.01-1.031-0.021c-0.055,0-0.075-0.02-0.08-0.085
		c-0.02-0.11-0.03-0.311-0.03-0.426c0.371,0.045,0.751,0.056,1.126,0.04c-0.005-0.189-0.005-0.385-0.01-0.575
		c-0.48,0.015-0.841,0.015-1.196-0.025c-0.055,0-0.08-0.02-0.085-0.069c-0.015-0.126-0.025-0.245-0.035-0.451
		c0.436,0.051,0.871,0.051,1.312,0.051c0-0.186-0.005-0.315-0.01-0.485c-0.01-0.115-0.021-0.206-0.061-0.336
		c0.266,0.016,0.48,0.045,0.631,0.09c0.06,0.021,0.09,0.091,0.055,0.15c-0.035,0.07-0.07,0.155-0.075,0.24
		c-0.005,0.101-0.005,0.17-0.01,0.32c0.466-0.035,0.801-0.09,1.096-0.15c0.06-0.015,0.08,0,0.085,0.061
		c0.02,0.14,0.025,0.275,0.025,0.365c0,0.065-0.015,0.075-0.055,0.08c-0.355,0.061-0.676,0.1-1.156,0.13
		c0,0.2,0.005,0.386,0.005,0.565c0.381-0.024,0.621-0.074,0.981-0.13c0.06-0.015,0.075-0.005,0.08,0.04
		c0.005,0.096,0.015,0.261,0.015,0.41c0,0.051-0.02,0.065-0.075,0.07c-0.33,0.055-0.561,0.09-0.98,0.12
		c0.01,0.23,0.02,0.476,0.035,0.706c0.48,0.135,0.891,0.315,1.327,0.605c0.05,0.045,0.05,0.06,0.035,0.12
		c-0.035,0.095-0.14,0.28-0.22,0.37c-0.02,0.03-0.04,0.04-0.065,0.04c-0.015,0-0.035-0.005-0.055-0.024
		c-0.305-0.24-0.615-0.416-0.996-0.571c-0.005,0.541-0.33,0.761-1.016,0.761c-0.651,0-1.021-0.285-1.021-0.7
		c0-0.405,0.395-0.711,1.001-0.711c0.125,0,0.245,0,0.48,0.021C52.611,92.074,52.601,91.869,52.597,91.699z M52.166,92.71
		c-0.365,0-0.541,0.104-0.541,0.265c0,0.131,0.15,0.226,0.496,0.226c0.2,0,0.385-0.06,0.455-0.15c0.04-0.055,0.055-0.14,0.055-0.28
		C52.486,92.734,52.306,92.71,52.166,92.71z"/>
	<path fill="#FFFFFF" d="M57.162,89.441c0.06,0.021,0.09,0.051,0.09,0.09c0,0.035-0.005,0.056-0.025,0.08
		c-0.045,0.056-0.06,0.126-0.07,0.181c-0.015,0.09-0.025,0.165-0.04,0.25c0.46-0.045,0.815-0.1,1.301-0.21
		c0.061-0.015,0.075,0.005,0.085,0.05c0.025,0.105,0.05,0.23,0.05,0.341c0,0.064-0.05,0.09-0.105,0.1
		c-0.661,0.136-0.966,0.17-1.421,0.211c-0.02,0.21-0.03,0.33-0.035,0.505c0.195-0.065,0.521-0.104,0.766-0.11
		c0.03-0.08,0.08-0.225,0.085-0.365c0.18,0.056,0.375,0.136,0.445,0.186c0.06,0.04,0.09,0.08,0.09,0.11c0,0.02-0.01,0.04-0.03,0.06
		c-0.025,0.025-0.04,0.055-0.065,0.101c0.646,0.17,1.026,0.595,1.026,1.221c0,0.726-0.596,1.196-1.391,1.411
		c-0.11,0.03-0.166,0.016-0.221-0.095c-0.035-0.07-0.135-0.175-0.295-0.311c0.36-0.075,0.746-0.235,0.931-0.365
		c0.24-0.175,0.4-0.391,0.4-0.751c0-0.4-0.285-0.641-0.621-0.726c-0.29,0.551-0.585,0.946-0.946,1.312
		c0.025,0.09,0.055,0.146,0.09,0.226c0.03,0.064,0.01,0.09-0.04,0.125c-0.115,0.085-0.23,0.145-0.3,0.175
		c-0.05,0.025-0.07,0.025-0.101-0.025c-0.035-0.06-0.06-0.119-0.085-0.194c-0.355,0.245-0.615,0.36-0.871,0.36
		c-0.34,0-0.556-0.23-0.556-0.621c0-0.641,0.556-1.251,1.171-1.557c0.005-0.215,0.015-0.436,0.025-0.625
		c-0.295,0.01-0.431,0.005-0.516,0.005c-0.145,0-0.225,0-0.285-0.011c-0.055-0.005-0.085-0.029-0.09-0.114
		c-0.015-0.11-0.015-0.24-0.025-0.381c0.32,0.035,0.596,0.025,0.971,0.021c0.02-0.181,0.04-0.406,0.04-0.546
		c0-0.075-0.005-0.146-0.021-0.226C56.867,89.361,57.037,89.396,57.162,89.441z M55.83,92.654c0,0.121,0.075,0.19,0.166,0.19
		c0.14,0,0.325-0.09,0.58-0.29c-0.05-0.301-0.09-0.57-0.1-0.861C56.091,91.969,55.83,92.329,55.83,92.654z M57.607,91.353
		c-0.18,0.005-0.41,0.04-0.641,0.115c0.005,0.26,0.02,0.495,0.06,0.751C57.232,91.984,57.467,91.634,57.607,91.353z"/>
	<path fill="#FFFFFF" d="M60.03,93.426c-0.06-0.045-0.06-0.065-0.025-0.105c0.226-0.21,0.391-0.455,0.506-0.735
		c0.025-0.05,0.035-0.04,0.1-0.016l0.305,0.126c0.06,0.02,0.07,0.029,0.05,0.08c-0.135,0.34-0.315,0.585-0.545,0.851
		c-0.015,0.02-0.03,0.03-0.045,0.03s-0.035-0.011-0.06-0.03L60.03,93.426z M60.691,90.778c-0.446,0-0.596,0.01-0.625,0.01
		c-0.05,0-0.055-0.005-0.055-0.056v-0.32c0-0.05,0.005-0.055,0.055-0.055c0.03,0,0.18,0.01,0.625,0.01h0.565
		c-0.045-0.125-0.095-0.245-0.155-0.365c-0.48,0-0.646,0.01-0.675,0.01c-0.055,0-0.061-0.005-0.061-0.06v-0.3
		c0-0.051,0.005-0.056,0.061-0.056c0.03,0,0.195,0.01,0.681,0.01h0.82v-0.034c0-0.16-0.01-0.271-0.035-0.391
		c0.18,0,0.38,0.01,0.555,0.024c0.045,0.005,0.075,0.025,0.075,0.051c0,0.034-0.015,0.06-0.03,0.095
		c-0.015,0.045-0.02,0.095-0.02,0.221v0.034h0.886c0.485,0,0.65-0.01,0.681-0.01c0.05,0,0.055,0.005,0.055,0.056v0.3
		c0,0.055-0.005,0.06-0.055,0.06c-0.03,0-0.195-0.01-0.686-0.01h-0.065c-0.015,0.025-0.035,0.056-0.045,0.085
		c-0.03,0.065-0.07,0.181-0.12,0.28h0.621c0.446,0,0.596-0.01,0.625-0.01c0.055,0,0.061,0.005,0.061,0.055v0.32
		c0,0.051-0.005,0.056-0.061,0.056c-0.03,0-0.18-0.01-0.625-0.01H60.691z M63.048,90.993c0.486,0,0.656-0.01,0.691-0.01
		c0.05,0,0.055,0.005,0.055,0.055c0,0.03-0.01,0.141-0.01,0.4v0.516c0,0.261,0.01,0.37,0.01,0.4c0,0.05-0.005,0.055-0.055,0.055
		c-0.035,0-0.205-0.01-0.691-0.01h-1.661c-0.486,0-0.656,0.01-0.691,0.01c-0.05,0-0.055-0.005-0.055-0.055
		c0-0.035,0.01-0.14,0.01-0.4v-0.516c0-0.26-0.01-0.365-0.01-0.4c0-0.05,0.005-0.055,0.055-0.055c0.035,0,0.205,0.01,0.691,0.01
		H63.048z M61.701,93.07c0,0.105,0.02,0.16,0.08,0.186c0.08,0.029,0.25,0.034,0.456,0.034c0.32,0,0.521-0.005,0.631-0.06
		c0.085-0.04,0.125-0.186,0.13-0.4c0.1,0.06,0.22,0.11,0.365,0.15c0.125,0.035,0.125,0.035,0.11,0.17
		c-0.045,0.266-0.13,0.41-0.255,0.476c-0.185,0.09-0.476,0.115-0.996,0.115c-0.435,0-0.715-0.021-0.856-0.085
		c-0.11-0.061-0.185-0.141-0.185-0.411V92.93c0-0.149-0.005-0.27-0.025-0.415c0.165,0.005,0.36,0.015,0.511,0.035
		c0.065,0.01,0.09,0.024,0.09,0.045c0,0.025-0.005,0.045-0.025,0.075c-0.025,0.04-0.03,0.1-0.03,0.21V93.07z M61.166,91.328v0.216
		h2.097v-0.216H61.166z M63.263,91.844h-2.097v0.226h2.097V91.844z M61.632,90.002c0.05,0.105,0.095,0.226,0.14,0.365h0.826
		c0.055-0.12,0.11-0.26,0.14-0.365H61.632z M62.182,92.465c0.055-0.04,0.07-0.04,0.115-0.01c0.14,0.095,0.295,0.234,0.43,0.395
		c0.03,0.04,0.03,0.051-0.02,0.091l-0.226,0.189c-0.03,0.025-0.05,0.035-0.065,0.035c-0.02,0-0.03-0.01-0.05-0.035
		c-0.12-0.16-0.245-0.285-0.395-0.42c-0.055-0.035-0.05-0.03,0.015-0.085L62.182,92.465z M63.699,92.51
		c0.055-0.035,0.065-0.03,0.105,0.005c0.266,0.23,0.485,0.485,0.671,0.751c0.03,0.045,0.025,0.06-0.025,0.095l-0.31,0.205
		c-0.03,0.021-0.05,0.03-0.065,0.03c-0.015,0-0.025-0.015-0.04-0.04c-0.18-0.335-0.36-0.546-0.616-0.801
		c-0.04-0.04-0.035-0.04,0.025-0.08L63.699,92.51z"/>
	<path fill="#FFFFFF" d="M65.821,90.072c0.351,0,0.471-0.01,0.496-0.01c0.045,0,0.05,0.005,0.05,0.055v0.355
		c0,0.055-0.005,0.061-0.05,0.061c-0.025,0-0.145-0.011-0.496-0.011h-0.36c-0.355,0-0.465,0.011-0.496,0.011
		c-0.045,0-0.05-0.006-0.05-0.061v-0.355c0-0.05,0.005-0.055,0.05-0.055c0.03,0,0.141,0.01,0.496,0.01H65.821z M66.261,92.93
		c0,0.556,0.01,0.666,0.01,0.696c0,0.05-0.005,0.055-0.055,0.055h-0.32c-0.05,0-0.055-0.005-0.055-0.055v-0.165h-0.345v0.26
		c0,0.045-0.005,0.05-0.055,0.05h-0.325c-0.055,0-0.06-0.005-0.06-0.05c0-0.035,0.01-0.15,0.01-0.73v-0.355
		c0-0.315-0.01-0.436-0.01-0.471c0-0.05,0.005-0.055,0.06-0.055c0.03,0,0.135,0.01,0.456,0.01h0.185c0.32,0,0.425-0.01,0.46-0.01
		c0.05,0,0.055,0.005,0.055,0.055c0,0.03-0.01,0.15-0.01,0.386V92.93z M65.806,89.401c0.295,0,0.391-0.01,0.421-0.01
		c0.05,0,0.055,0.005,0.055,0.055v0.331c0,0.05-0.005,0.055-0.055,0.055c-0.03,0-0.125-0.01-0.421-0.01h-0.27
		c-0.3,0-0.396,0.01-0.425,0.01c-0.045,0-0.05-0.005-0.05-0.055v-0.331c0-0.05,0.005-0.055,0.05-0.055c0.03,0,0.125,0.01,0.425,0.01
		H65.806z M65.761,90.773c0.28,0,0.365-0.011,0.391-0.011c0.055,0,0.06,0.005,0.06,0.056v0.325c0,0.05-0.005,0.055-0.06,0.055
		c-0.025,0-0.11-0.01-0.391-0.01h-0.205c-0.285,0-0.37,0.01-0.396,0.01c-0.05,0-0.05-0.005-0.05-0.055v-0.325
		c0-0.051,0-0.056,0.05-0.056c0.025,0,0.11,0.011,0.396,0.011H65.761z M65.761,91.448c0.28,0,0.365-0.01,0.391-0.01
		c0.055,0,0.06,0.005,0.06,0.056v0.32c0,0.05-0.005,0.055-0.06,0.055c-0.025,0-0.11-0.01-0.391-0.01h-0.205
		c-0.285,0-0.37,0.01-0.396,0.01c-0.05,0-0.05-0.005-0.05-0.055v-0.32c0-0.051,0-0.056,0.05-0.056c0.025,0,0.11,0.01,0.396,0.01
		H65.761z M65.495,92.529v0.521h0.345v-0.521H65.495z M67.102,91.198c-0.485,0-0.65,0.01-0.681,0.01c-0.055,0-0.06-0.005-0.06-0.055
		v-0.33c0-0.056,0.005-0.061,0.06-0.061c0.02,0,0.11,0.005,0.326,0.011c-0.035-0.141-0.085-0.306-0.13-0.416
		c-0.02-0.05-0.01-0.055,0.055-0.075l0.24-0.069c0.055-0.016,0.06-0.011,0.085,0.039c0.055,0.126,0.115,0.336,0.15,0.521h0.24
		c0.035-0.121,0.065-0.251,0.085-0.361c0.01-0.06,0.02-0.125,0.025-0.215c0.14,0.03,0.295,0.07,0.396,0.105
		c0.035,0.015,0.06,0.024,0.06,0.055c0,0.035-0.015,0.05-0.03,0.061c-0.02,0.015-0.04,0.04-0.05,0.074l-0.09,0.281h0.44
		l-0.015-0.842c-0.005-0.335-0.01-0.485-0.035-0.695c0.185,0.005,0.295,0.01,0.47,0.035c0.045,0.005,0.085,0.025,0.085,0.05
		c0,0.04-0.02,0.07-0.03,0.105c-0.025,0.06-0.035,0.15-0.03,0.49c0,0.311,0,0.596,0.01,0.856h0.09c0.486,0,0.656-0.011,0.686-0.011
		c0.05,0,0.055,0.005,0.055,0.061v0.33c0,0.05-0.005,0.055-0.055,0.055c-0.03,0-0.2-0.01-0.686-0.01h-0.075
		c0.015,0.341,0.04,0.631,0.08,0.881c0.045-0.085,0.09-0.18,0.13-0.28c0.05-0.125,0.09-0.25,0.115-0.4
		c0.115,0.055,0.28,0.115,0.38,0.19c0.045,0.035,0.065,0.055,0.065,0.085c0,0.04-0.02,0.061-0.06,0.1
		c-0.03,0.035-0.085,0.146-0.13,0.246c-0.115,0.245-0.235,0.465-0.371,0.665c0.09,0.306,0.185,0.456,0.235,0.456
		c0.055,0,0.1-0.12,0.12-0.586c0.07,0.065,0.165,0.13,0.255,0.18c0.09,0.051,0.085,0.065,0.075,0.166
		c-0.065,0.596-0.206,0.806-0.446,0.806c-0.205,0-0.41-0.19-0.576-0.591c-0.2,0.221-0.43,0.42-0.695,0.61
		c-0.05,0.035-0.08,0.056-0.105,0.056c-0.035,0-0.055-0.035-0.1-0.101c-0.061-0.095-0.155-0.19-0.21-0.235
		c0.125-0.08,0.245-0.155,0.355-0.24h-0.23c-0.05,0-0.055-0.005-0.055-0.055v-0.055h-0.535v0.279c0,0.051-0.005,0.056-0.055,0.056
		h-0.325c-0.05,0-0.055-0.005-0.055-0.056c0-0.029,0.01-0.165,0.01-0.896v-0.396c0-0.436-0.01-0.58-0.01-0.615
		c0-0.05,0.005-0.055,0.055-0.055c0.035,0,0.13,0.01,0.43,0.01h0.436c0.3,0,0.4-0.01,0.431-0.01c0.05,0,0.055,0.005,0.055,0.055
		c0,0.03-0.01,0.17-0.01,0.49v0.45c0,0.396,0.005,0.591,0.005,0.681c0.175-0.14,0.325-0.29,0.46-0.455
		c-0.015-0.05-0.025-0.105-0.035-0.16c-0.075-0.34-0.115-0.766-0.14-1.276H67.102z M66.997,90.138c-0.345,0-0.45,0.01-0.48,0.01
		c-0.045,0-0.05-0.005-0.05-0.061v-0.325c0-0.05,0.005-0.055,0.05-0.055c0.03,0,0.135,0.01,0.48,0.01h0.035v-0.14
		c0-0.141-0.01-0.256-0.03-0.371c0.18,0,0.311,0.005,0.476,0.025c0.05,0.005,0.08,0.025,0.08,0.045c0,0.035-0.02,0.061-0.035,0.095
		c-0.015,0.041-0.015,0.101-0.015,0.206v0.14h0.04c0.345,0,0.45-0.01,0.475-0.01c0.05,0,0.055,0.005,0.055,0.055v0.325
		c0,0.056-0.005,0.061-0.055,0.061c-0.025,0-0.13-0.01-0.475-0.01H66.997z M66.992,92.064h0.535v-0.266h-0.535V92.064z
		 M67.527,92.715V92.43h-0.535v0.285H67.527z M69.134,90.378c-0.06,0.024-0.08,0.024-0.095-0.035
		c-0.06-0.261-0.145-0.491-0.245-0.671c-0.025-0.045-0.02-0.065,0.04-0.09l0.225-0.09c0.06-0.025,0.065-0.03,0.095,0.015
		c0.12,0.2,0.215,0.455,0.27,0.66c0.015,0.051,0.005,0.08-0.045,0.101L69.134,90.378z"/>
	<path fill="#FFFFFF" d="M71.052,89.537c0.085,0.02,0.12,0.045,0.12,0.095c0,0.055-0.03,0.115-0.05,0.165
		c-0.025,0.07-0.045,0.226-0.07,0.61c-0.05,0.771-0.075,1.281-0.075,1.938c0,0.505,0.06,0.62,0.46,0.62
		c0.446,0,1.141-0.27,1.752-0.921c0.02,0.19,0.065,0.355,0.115,0.476c0.025,0.055,0.04,0.09,0.04,0.12c0,0.045-0.02,0.085-0.1,0.155
		c-0.541,0.495-1.247,0.751-1.897,0.751c-0.641,0-0.941-0.256-0.941-1.021c0-0.841,0.045-1.562,0.07-2.162
		c0.01-0.295,0.025-0.615-0.05-0.916C70.656,89.472,70.896,89.497,71.052,89.537z"/>
	<path fill="#FFFFFF" d="M75.588,90.367c-0.611,0.115-1.146,0.221-1.682,0.331c-0.19,0.045-0.24,0.055-0.315,0.08
		c-0.035,0.015-0.07,0.04-0.11,0.04c-0.035,0-0.075-0.03-0.095-0.075c-0.065-0.136-0.12-0.311-0.186-0.541
		c0.255-0.01,0.406-0.03,0.796-0.085c0.616-0.09,1.717-0.255,3.008-0.426c0.075-0.01,0.101,0.021,0.105,0.056
		c0.025,0.115,0.05,0.3,0.055,0.44c0,0.06-0.03,0.075-0.095,0.075c-0.235,0.015-0.396,0.04-0.611,0.11
		c-0.851,0.29-1.276,0.875-1.276,1.476c0,0.646,0.46,0.996,1.331,1.052c0.08,0,0.11,0.02,0.11,0.074
		c0,0.131-0.021,0.306-0.055,0.431c-0.015,0.075-0.035,0.105-0.095,0.105c-0.881,0-1.847-0.506-1.847-1.547
		c0-0.71,0.355-1.19,0.961-1.586V90.367z"/>
	<path fill="#FFFFFF" d="M78.636,90.082c0.045,0.021,0.08,0.056,0.08,0.09c0,0.03-0.015,0.08-0.04,0.141
		c-0.02,0.061-0.045,0.275-0.045,0.49c0,0.32,0.01,0.681,0.09,1.142c0.07,0.396,0.2,0.735,0.411,0.735
		c0.16,0,0.285-0.175,0.48-0.695c0.11,0.175,0.22,0.29,0.32,0.385c0.06,0.056,0.06,0.115,0.035,0.186
		c-0.19,0.511-0.5,0.781-0.851,0.781c-0.391,0-0.801-0.461-0.936-1.307c-0.08-0.476-0.12-0.996-0.12-1.457
		c0-0.274-0.01-0.425-0.06-0.655C78.24,89.947,78.485,90.007,78.636,90.082z M80.958,90.397c0.02-0.01,0.04-0.02,0.055-0.02
		c0.02,0,0.035,0.01,0.055,0.029c0.455,0.396,0.855,1.087,0.98,1.712c0.015,0.065-0.015,0.085-0.055,0.11
		c-0.13,0.085-0.255,0.155-0.391,0.2c-0.06,0.02-0.095,0.005-0.105-0.055c-0.17-0.716-0.425-1.236-0.936-1.747
		C80.753,90.508,80.878,90.437,80.958,90.397z"/>
	<path fill="#FFFFFF" d="M84.232,91.299c0.28-0.16,0.515-0.226,0.795-0.226c0.731,0,1.241,0.48,1.241,1.201
		c0,0.836-0.675,1.371-1.747,1.371c-0.631,0-1.011-0.271-1.011-0.735c0-0.336,0.315-0.61,0.706-0.61c0.47,0,0.816,0.25,0.941,0.73
		c0.35-0.16,0.51-0.381,0.51-0.761c0-0.455-0.32-0.756-0.786-0.756c-0.416,0-0.876,0.186-1.281,0.53
		c-0.145,0.13-0.285,0.275-0.436,0.426c-0.035,0.035-0.06,0.055-0.085,0.055c-0.02,0-0.045-0.015-0.075-0.045
		c-0.105-0.09-0.215-0.22-0.295-0.325c-0.03-0.04-0.015-0.075,0.025-0.115c0.39-0.315,0.736-0.636,1.186-1.105
		c0.311-0.32,0.545-0.571,0.776-0.856c-0.3,0.056-0.656,0.125-0.966,0.19c-0.065,0.015-0.13,0.03-0.21,0.06
		c-0.025,0.011-0.075,0.025-0.1,0.025c-0.05,0-0.085-0.025-0.11-0.085c-0.061-0.115-0.105-0.256-0.175-0.541
		c0.15,0.021,0.315,0.021,0.465,0.011c0.305-0.03,0.746-0.096,1.136-0.171c0.125-0.024,0.225-0.05,0.275-0.074
		c0.025-0.016,0.07-0.041,0.095-0.041c0.05,0,0.08,0.016,0.115,0.041c0.15,0.114,0.25,0.215,0.335,0.32
		c0.04,0.045,0.055,0.08,0.055,0.119c0,0.051-0.03,0.096-0.085,0.121c-0.085,0.039-0.125,0.074-0.22,0.16
		c-0.365,0.354-0.701,0.705-1.081,1.07L84.232,91.299z M84.237,92.725c-0.146,0-0.24,0.085-0.24,0.19
		c0,0.155,0.135,0.261,0.436,0.261c0.09,0,0.155-0.006,0.23-0.021C84.597,92.88,84.447,92.725,84.237,92.725z"/>
</g>
<g>
	<path fill="#FFFFFF" d="M24.392,57.513c0.43,0.2,0.889,0.31,1.369,0.31c1.279,0,1.899-0.89,1.929-2.349h-0.02
		c-0.36,0.52-0.99,0.779-1.619,0.779c-1.27,0-2.119-0.829-2.119-2.158c0-1.39,0.939-2.438,2.539-2.438
		c1.709,0,2.569,1.179,2.569,3.357c0,2.479-1.16,3.858-3.198,3.858c-0.59,0-1.16-0.09-1.579-0.25L24.392,57.513z M27.58,54.015
		c0-0.77-0.459-1.379-1.119-1.379c-0.76,0-1.14,0.64-1.14,1.358c0,0.75,0.4,1.25,1.129,1.25C27.11,55.244,27.58,54.725,27.58,54.015
		z"/>
</g>
<g>
	<path d="M52.101,54.364h-1.419v-3.648c0-0.589,0.02-1.539,0.04-1.908h-0.02c-0.16,0.159-0.49,0.439-0.85,0.729l-0.36,0.29
		l-0.689-0.939l2.029-1.5h1.27V54.364z"/>
	<path d="M59.46,50.856c0,2.259-0.739,3.628-2.539,3.628c-1.799,0-2.568-1.35-2.568-3.548c0-2.489,0.83-3.668,2.619-3.668
		C58.621,47.268,59.46,48.468,59.46,50.856z M55.763,50.816c0,1.759,0.41,2.639,1.159,2.639c0.729,0,1.14-0.88,1.14-2.569
		c0-1.729-0.41-2.588-1.149-2.588C56.172,48.298,55.763,49.147,55.763,50.816z"/>
</g>
<g>
	<path d="M65.6,35.101c-0.419-0.181-0.849-0.271-1.289-0.271c-1.169,0-1.869,0.84-1.899,2.299h0.02c0.35-0.47,0.979-0.76,1.619-0.76
		c1.329,0,2.159,0.89,2.159,2.219c0,1.39-0.969,2.409-2.559,2.409c-1.709,0-2.588-1.189-2.588-3.368
		c0-2.469,1.199-3.848,3.178-3.848c0.53,0,1.079,0.069,1.499,0.22L65.6,35.101z M62.522,38.638c0,0.78,0.5,1.38,1.179,1.38
		c0.76,0,1.149-0.609,1.149-1.329c0-0.75-0.3-1.319-1.089-1.319C63.132,37.369,62.522,37.938,62.522,38.638z"/>
</g>
<g>
	<path fill="#FFFFFF" d="M21.304,61.8c0.06,0.016,0.09,0.041,0.09,0.08c0,0.07-0.035,0.141-0.035,0.211
		c0,0.1,0.015,0.22,0.025,0.335c0.045,0.351,0.095,0.601,0.16,0.861c0.25-0.136,0.43-0.23,0.71-0.381
		c0.146-0.085,0.266-0.17,0.346-0.271c0.16,0.166,0.29,0.341,0.365,0.471c0.02,0.03,0.035,0.07,0.035,0.105
		c0,0.05-0.03,0.09-0.101,0.1c-0.15,0.025-0.32,0.085-0.48,0.15c-0.43,0.175-0.831,0.36-1.176,0.586
		c-0.436,0.285-0.591,0.521-0.591,0.756c0,0.29,0.205,0.42,0.831,0.42c0.561,0,1.106-0.045,1.491-0.115
		c0.055-0.01,0.08,0,0.09,0.061c0.025,0.135,0.04,0.314,0.05,0.465c0.005,0.056-0.03,0.08-0.09,0.085
		c-0.456,0.061-0.856,0.075-1.492,0.075c-0.946,0-1.446-0.311-1.446-0.961c0-0.556,0.365-0.921,0.951-1.291
		c-0.12-0.386-0.21-0.836-0.261-1.221c-0.035-0.266-0.07-0.441-0.13-0.581C20.889,61.74,21.119,61.755,21.304,61.8z M22.94,61.86
		c0.025-0.02,0.045-0.015,0.075,0.01c0.155,0.12,0.335,0.32,0.476,0.536c0.02,0.029,0.02,0.055-0.015,0.08l-0.21,0.155
		c-0.035,0.024-0.06,0.02-0.085-0.016c-0.15-0.23-0.31-0.42-0.505-0.58L22.94,61.86z M23.386,61.535
		c0.03-0.021,0.045-0.015,0.075,0.01c0.186,0.141,0.366,0.341,0.476,0.516c0.02,0.03,0.025,0.06-0.015,0.09l-0.2,0.155
		c-0.04,0.03-0.065,0.016-0.085-0.015c-0.135-0.216-0.295-0.405-0.5-0.576L23.386,61.535z"/>
	<path fill="#FFFFFF" d="M25.524,62.081c0.02-0.221,0.015-0.351-0.01-0.486c0.285,0.03,0.471,0.065,0.601,0.105
		c0.065,0.02,0.1,0.05,0.1,0.09c0,0.025-0.02,0.061-0.035,0.08c-0.035,0.045-0.075,0.131-0.085,0.186
		c-0.025,0.135-0.045,0.235-0.07,0.41c0.25-0.035,0.661-0.11,0.941-0.186c0.07-0.02,0.095-0.015,0.105,0.051
		c0.02,0.115,0.035,0.25,0.035,0.37c0,0.055-0.015,0.07-0.06,0.08c-0.431,0.095-0.701,0.15-1.121,0.205
		c-0.07,0.415-0.14,0.751-0.23,1.102c0.391-0.341,0.891-0.531,1.437-0.531c0.666,0,1.116,0.431,1.116,0.946
		c0,0.44-0.185,0.766-0.571,1.011c-0.3,0.195-0.73,0.315-1.276,0.4c-0.125,0.021-0.245,0.035-0.37,0.035
		c-0.05,0-0.085-0.024-0.125-0.12c-0.08-0.165-0.155-0.26-0.271-0.355c0.731-0.045,1.036-0.109,1.437-0.275
		c0.385-0.16,0.57-0.39,0.57-0.705c0-0.261-0.19-0.476-0.57-0.476c-0.541,0-1.036,0.25-1.316,0.62
		c-0.045,0.065-0.095,0.125-0.14,0.19c-0.035,0.061-0.05,0.08-0.095,0.075c-0.11-0.01-0.275-0.065-0.375-0.11
		c-0.08-0.035-0.11-0.055-0.11-0.1c0-0.021,0.005-0.056,0.02-0.101c0.025-0.085,0.045-0.16,0.065-0.235
		c0.11-0.44,0.181-0.811,0.266-1.311c-0.271,0.02-0.586,0.045-0.841,0.045c-0.055,0-0.085-0.025-0.095-0.07
		c-0.015-0.06-0.05-0.271-0.07-0.436c0.39,0,0.7-0.015,1.086-0.045C25.489,62.366,25.509,62.2,25.524,62.081z"/>
	<path fill="#FFFFFF" d="M29.824,62.856c0.055,0.025,0.08,0.055,0.08,0.095c0,0.025-0.01,0.05-0.025,0.075
		c-0.045,0.08-0.08,0.17-0.1,0.266c-0.05,0.255-0.1,0.625-0.12,0.91c0.46-0.465,1.061-0.79,1.672-0.79
		c0.73,0,1.166,0.425,1.166,1.071c0,0.545-0.325,0.905-0.756,1.121c-0.335,0.17-0.851,0.29-1.281,0.345
		c-0.11,0.015-0.155,0.01-0.2-0.065c-0.095-0.17-0.185-0.305-0.34-0.425c0.561-0.035,1.041-0.13,1.376-0.28
		c0.405-0.176,0.59-0.436,0.59-0.756c0-0.271-0.17-0.516-0.601-0.516c-0.44,0-0.971,0.285-1.441,0.761
		c-0.09,0.09-0.155,0.175-0.215,0.275c-0.03,0.05-0.05,0.05-0.115,0.035c-0.115-0.04-0.235-0.085-0.34-0.136
		c-0.05-0.02-0.07-0.029-0.07-0.1c0.03-0.58,0.095-1.171,0.155-1.616c0.02-0.15,0.045-0.28,0.045-0.451
		C29.498,62.731,29.709,62.791,29.824,62.856z M29.949,61.59c0.025-0.024,0.055-0.04,0.095-0.024
		c0.371,0.145,0.681,0.335,0.981,0.596c0.025,0.02,0.035,0.034,0.035,0.055c0,0.015-0.01,0.035-0.025,0.06
		c-0.065,0.105-0.17,0.251-0.255,0.351c-0.02,0.025-0.04,0.04-0.055,0.04c-0.02,0-0.035-0.01-0.06-0.035
		c-0.28-0.245-0.616-0.476-1.011-0.65C29.774,61.8,29.869,61.67,29.949,61.59z"/>
	<path fill="#FFFFFF" d="M35.24,62.661c-0.61,0.115-1.146,0.221-1.682,0.33c-0.19,0.045-0.24,0.056-0.315,0.08
		c-0.035,0.016-0.07,0.04-0.11,0.04c-0.035,0-0.075-0.03-0.095-0.075c-0.065-0.135-0.12-0.31-0.185-0.54
		c0.255-0.01,0.405-0.03,0.796-0.085c0.616-0.09,1.716-0.256,3.008-0.426c0.075-0.01,0.1,0.021,0.105,0.055
		c0.025,0.115,0.05,0.301,0.055,0.441c0,0.06-0.03,0.074-0.095,0.074c-0.235,0.016-0.396,0.04-0.61,0.11
		c-0.851,0.29-1.276,0.876-1.276,1.477c0,0.646,0.46,0.996,1.331,1.051c0.08,0,0.11,0.021,0.11,0.075c0,0.13-0.02,0.306-0.055,0.431
		c-0.015,0.075-0.035,0.104-0.095,0.104c-0.881,0-1.847-0.505-1.847-1.546c0-0.711,0.355-1.191,0.961-1.587V62.661z M36.231,63.202
		c0.025-0.021,0.045-0.016,0.075,0.01c0.155,0.12,0.335,0.32,0.475,0.535c0.02,0.03,0.02,0.055-0.015,0.08l-0.21,0.155
		c-0.035,0.025-0.06,0.021-0.085-0.015c-0.15-0.23-0.311-0.421-0.506-0.581L36.231,63.202z M36.677,62.876
		c0.03-0.02,0.045-0.015,0.075,0.011c0.185,0.14,0.365,0.34,0.476,0.515c0.02,0.03,0.025,0.061-0.015,0.091l-0.2,0.155
		c-0.04,0.029-0.065,0.015-0.085-0.016c-0.135-0.215-0.295-0.405-0.5-0.575L36.677,62.876z"/>
	<path fill="#FFFFFF" d="M39.045,64.768c0,0.46,0.2,0.641,0.666,0.641c0.585,0,0.911-0.226,0.911-0.676
		c0-0.28-0.07-0.511-0.45-0.911c0.2,0.025,0.31,0,0.51-0.03c0.035-0.01,0.075-0.005,0.105,0.021c0.275,0.26,0.426,0.601,0.426,0.94
		c0,0.711-0.581,1.172-1.441,1.172c-0.886,0-1.261-0.4-1.261-1.132c0-0.104,0.015-0.245,0.035-0.47c-0.3-0.046-0.5-0.091-0.681-0.15
		c-0.035-0.01-0.05-0.035-0.055-0.096c-0.015-0.154-0.02-0.31-0.01-0.465c0.3,0.109,0.526,0.165,0.811,0.195
		c0.025-0.186,0.065-0.511,0.085-0.716c-0.351-0.045-0.53-0.075-0.721-0.141c-0.06-0.015-0.08-0.04-0.08-0.085
		c-0.005-0.12-0.015-0.285-0.015-0.465c0.34,0.109,0.581,0.154,0.906,0.189c0.04-0.29,0.055-0.425,0.065-0.575
		c0.01-0.141,0.01-0.285-0.005-0.421c0.23,0.03,0.49,0.096,0.601,0.141c0.07,0.025,0.11,0.07,0.11,0.115
		c0,0.035-0.015,0.064-0.04,0.095c-0.035,0.035-0.06,0.101-0.09,0.216c-0.025,0.114-0.055,0.285-0.08,0.47
		c0.2,0.016,0.406,0,0.616-0.03c0.035,0,0.05,0.025,0.05,0.061c0.005,0.12,0.005,0.26-0.01,0.375c0,0.056-0.02,0.07-0.08,0.075
		c-0.22,0.025-0.445,0.03-0.666,0.025c-0.03,0.175-0.08,0.516-0.11,0.716c0.266,0.005,0.471,0,0.711-0.016
		c0.065-0.01,0.08,0.011,0.08,0.056c0,0.09-0.01,0.271-0.025,0.375c-0.005,0.061-0.02,0.08-0.07,0.08
		c-0.25,0.021-0.51,0.021-0.766,0.015C39.05,64.558,39.045,64.678,39.045,64.768z"/>
	<path fill="#FFFFFF" d="M44.16,62.346c0.045-0.015,0.065-0.015,0.075,0.04c0.025,0.125,0.04,0.275,0.045,0.405
		c0,0.045-0.02,0.056-0.06,0.061c-0.27,0.055-0.516,0.09-0.826,0.135c-0.32,0.846-0.616,1.536-0.976,2.147
		c-0.02,0.035-0.035,0.05-0.055,0.05c-0.015,0-0.035-0.01-0.061-0.025c-0.115-0.069-0.26-0.175-0.345-0.255
		c-0.025-0.02-0.035-0.035-0.035-0.055c0-0.016,0.005-0.035,0.025-0.061c0.375-0.62,0.641-1.146,0.866-1.746
		c-0.19,0.01-0.345,0.01-0.5,0.01c-0.11,0-0.15,0-0.275-0.005c-0.05,0-0.06-0.016-0.07-0.08c-0.025-0.096-0.04-0.261-0.05-0.426
		c0.206,0.015,0.32,0.021,0.465,0.021c0.195,0,0.346-0.006,0.576-0.025c0.06-0.21,0.095-0.381,0.13-0.561
		c0.03-0.176,0.03-0.25,0.03-0.405c0.215,0.03,0.431,0.06,0.585,0.104c0.05,0.011,0.08,0.04,0.08,0.075
		c0,0.04-0.015,0.065-0.045,0.096c-0.03,0.04-0.05,0.085-0.08,0.185c-0.035,0.12-0.075,0.275-0.12,0.426
		C43.734,62.435,43.965,62.391,44.16,62.346z M44.3,63.687c-0.005-0.136-0.01-0.216-0.04-0.355c0.245,0.024,0.375,0.045,0.546,0.095
		c0.045,0.01,0.07,0.035,0.07,0.08c0,0.01-0.01,0.045-0.03,0.105c-0.021,0.06-0.025,0.12-0.021,0.205
		c0,0.295,0.015,0.511,0.055,0.851c0.36,0.146,0.606,0.255,0.901,0.466c0.05,0.035,0.055,0.055,0.03,0.104
		c-0.075,0.155-0.146,0.28-0.23,0.405c-0.015,0.025-0.03,0.035-0.045,0.035s-0.03-0.01-0.05-0.029
		c-0.221-0.19-0.406-0.301-0.611-0.421c0,0.501-0.36,0.73-0.931,0.73c-0.55,0-0.921-0.28-0.921-0.71c0-0.436,0.36-0.731,0.926-0.731
		c0.095,0,0.235,0.005,0.395,0.03C44.315,64.227,44.305,63.923,44.3,63.687z M43.944,64.948c-0.25,0-0.445,0.101-0.445,0.29
		c0,0.16,0.14,0.24,0.426,0.24c0.27,0,0.435-0.145,0.435-0.354c0-0.046,0-0.07-0.005-0.101
		C44.235,64.983,44.099,64.948,43.944,64.948z M44.875,62.541c0.03-0.05,0.055-0.055,0.105-0.035c0.295,0.08,0.691,0.28,0.981,0.471
		c0.03,0.02,0.045,0.035,0.045,0.055c0,0.016-0.005,0.035-0.021,0.061c-0.05,0.11-0.14,0.265-0.21,0.37
		c-0.015,0.025-0.03,0.035-0.045,0.035c-0.015,0-0.025-0.005-0.045-0.021c-0.295-0.2-0.656-0.42-1.036-0.545
		C44.735,62.781,44.81,62.631,44.875,62.541z"/>
	<path fill="#FFFFFF" d="M47.453,62.351c0.045,0.021,0.08,0.056,0.08,0.09c0,0.03-0.015,0.08-0.04,0.141
		c-0.02,0.061-0.045,0.275-0.045,0.49c0,0.32,0.01,0.681,0.09,1.142c0.07,0.396,0.2,0.735,0.411,0.735
		c0.16,0,0.285-0.175,0.48-0.695c0.11,0.175,0.22,0.29,0.32,0.385c0.06,0.056,0.06,0.115,0.035,0.186
		c-0.19,0.511-0.501,0.781-0.851,0.781c-0.39,0-0.801-0.461-0.936-1.307c-0.08-0.476-0.12-0.996-0.12-1.457
		c0-0.274-0.01-0.425-0.06-0.655C47.058,62.216,47.304,62.275,47.453,62.351z M49.776,62.666c0.02-0.01,0.04-0.02,0.055-0.02
		c0.02,0,0.035,0.01,0.055,0.029c0.456,0.396,0.856,1.087,0.981,1.712c0.015,0.065-0.015,0.085-0.055,0.11
		c-0.13,0.085-0.255,0.155-0.391,0.2c-0.06,0.02-0.095,0.005-0.105-0.055c-0.17-0.716-0.425-1.236-0.936-1.747
		C49.571,62.776,49.696,62.706,49.776,62.666z"/>
</g>
<g>
	<path d="M36.473,29.912c0.06,0.021,0.09,0.051,0.09,0.09c0,0.035-0.005,0.057-0.025,0.08c-0.045,0.057-0.06,0.127-0.07,0.182
		c-0.015,0.09-0.025,0.164-0.04,0.25c0.46-0.045,0.815-0.1,1.301-0.211c0.061-0.014,0.075,0.006,0.085,0.051
		c0.025,0.105,0.05,0.23,0.05,0.34c0,0.064-0.05,0.09-0.105,0.1c-0.661,0.137-0.966,0.17-1.421,0.211
		c-0.02,0.211-0.03,0.33-0.035,0.506c0.195-0.066,0.521-0.105,0.766-0.111c0.03-0.08,0.08-0.225,0.085-0.365
		c0.18,0.057,0.375,0.137,0.445,0.186c0.06,0.041,0.09,0.08,0.09,0.111c0,0.02-0.01,0.039-0.03,0.059
		c-0.025,0.025-0.04,0.055-0.065,0.102c0.646,0.17,1.026,0.594,1.026,1.221c0,0.725-0.596,1.195-1.391,1.41
		c-0.11,0.031-0.166,0.016-0.221-0.094c-0.035-0.07-0.135-0.176-0.295-0.311c0.36-0.076,0.746-0.236,0.931-0.365
		c0.24-0.176,0.4-0.391,0.4-0.752c0-0.4-0.285-0.641-0.621-0.725c-0.29,0.551-0.585,0.945-0.946,1.311
		c0.025,0.09,0.055,0.146,0.09,0.227c0.03,0.064,0.01,0.09-0.04,0.125c-0.115,0.084-0.23,0.145-0.3,0.174
		c-0.05,0.025-0.07,0.025-0.101-0.025c-0.035-0.059-0.06-0.119-0.085-0.193c-0.355,0.244-0.615,0.359-0.871,0.359
		c-0.34,0-0.556-0.23-0.556-0.621c0-0.641,0.556-1.25,1.171-1.557c0.005-0.215,0.015-0.436,0.025-0.625
		c-0.295,0.01-0.431,0.006-0.516,0.006c-0.145,0-0.225,0-0.285-0.012c-0.055-0.004-0.085-0.029-0.09-0.113
		c-0.015-0.111-0.015-0.24-0.025-0.381c0.32,0.035,0.596,0.025,0.971,0.02c0.02-0.18,0.04-0.406,0.04-0.545
		c0-0.076-0.005-0.146-0.021-0.227C36.178,29.832,36.348,29.867,36.473,29.912z M35.141,33.125c0,0.121,0.075,0.191,0.166,0.191
		c0.14,0,0.325-0.09,0.58-0.291c-0.05-0.301-0.09-0.57-0.1-0.861C35.402,32.439,35.141,32.801,35.141,33.125z M36.918,31.824
		c-0.18,0.006-0.41,0.041-0.641,0.115c0.005,0.26,0.02,0.496,0.06,0.752C36.543,32.455,36.778,32.105,36.918,31.824z"/>
	<path d="M40.933,32.17c-0.346,0.01-0.686,0.01-1.031-0.02c-0.055,0-0.075-0.02-0.08-0.086c-0.02-0.109-0.03-0.311-0.03-0.426
		c0.371,0.045,0.751,0.057,1.126,0.041c-0.005-0.189-0.005-0.385-0.01-0.576c-0.48,0.016-0.841,0.016-1.196-0.025
		c-0.055,0-0.08-0.02-0.085-0.068c-0.015-0.127-0.025-0.246-0.035-0.451c0.436,0.051,0.871,0.051,1.312,0.051
		c0-0.186-0.005-0.316-0.01-0.486c-0.01-0.115-0.021-0.205-0.061-0.336c0.266,0.016,0.48,0.045,0.631,0.09
		c0.06,0.021,0.09,0.092,0.055,0.15c-0.035,0.07-0.07,0.156-0.075,0.24c-0.005,0.102-0.005,0.17-0.01,0.32
		c0.466-0.035,0.801-0.09,1.096-0.15c0.06-0.014,0.08,0,0.085,0.061c0.02,0.141,0.025,0.275,0.025,0.365
		c0,0.066-0.015,0.076-0.055,0.08c-0.355,0.061-0.676,0.1-1.156,0.131c0,0.199,0.005,0.385,0.005,0.564
		c0.381-0.023,0.621-0.074,0.981-0.129c0.06-0.016,0.075-0.006,0.08,0.039c0.005,0.096,0.015,0.262,0.015,0.41
		c0,0.051-0.02,0.066-0.075,0.07c-0.33,0.055-0.561,0.09-0.98,0.121c0.01,0.23,0.02,0.475,0.035,0.705
		c0.48,0.135,0.891,0.316,1.327,0.605c0.05,0.045,0.05,0.061,0.035,0.121c-0.035,0.094-0.14,0.279-0.22,0.369
		c-0.02,0.031-0.04,0.041-0.065,0.041c-0.015,0-0.035-0.006-0.055-0.025c-0.305-0.24-0.615-0.416-0.996-0.57
		c-0.005,0.541-0.33,0.76-1.016,0.76c-0.651,0-1.021-0.285-1.021-0.699c0-0.406,0.395-0.711,1.001-0.711c0.125,0,0.245,0,0.48,0.02
		C40.948,32.545,40.938,32.34,40.933,32.17z M40.502,33.182c-0.365,0-0.541,0.104-0.541,0.264c0,0.131,0.15,0.227,0.496,0.227
		c0.2,0,0.385-0.061,0.455-0.15c0.04-0.055,0.055-0.141,0.055-0.281C40.823,33.205,40.642,33.182,40.502,33.182z"/>
	<path d="M44.602,30.018c0.065,0.025,0.095,0.055,0.095,0.1c0,0.031-0.01,0.051-0.035,0.08c-0.035,0.041-0.06,0.111-0.09,0.236
		c-0.07,0.34-0.11,0.695-0.14,0.955c-0.01,0.182-0.025,0.371-0.015,0.551c0.11-0.195,0.215-0.385,0.35-0.641
		c0.045,0.15,0.095,0.24,0.155,0.326c0.025,0.029,0.03,0.055,0.03,0.08c0,0.039-0.02,0.08-0.05,0.125
		c-0.11,0.209-0.225,0.42-0.295,0.641c-0.015,0.045-0.02,0.09-0.025,0.15c0,0.049-0.02,0.07-0.065,0.08
		c-0.06,0.014-0.275,0.045-0.4,0.059c-0.035,0.006-0.06-0.029-0.07-0.064c-0.08-0.215-0.15-0.6-0.15-1.016
		c0-0.336,0.055-0.746,0.12-1.246c0.02-0.176,0.04-0.346,0.04-0.57C44.282,29.908,44.472,29.957,44.602,30.018z M46.229,29.934
		c0.1,0.023,0.11,0.049,0.1,0.135c-0.01,0.07-0.01,0.16-0.01,0.23c0.035,0.475,0.07,0.93,0.07,1.291
		c0,0.711-0.115,1.326-0.381,1.736c-0.195,0.311-0.51,0.605-0.826,0.807c-0.035,0.023-0.07,0.033-0.1,0.033
		c-0.035,0-0.065-0.014-0.105-0.055c-0.11-0.094-0.265-0.186-0.425-0.23c0.405-0.225,0.65-0.404,0.851-0.67
		c0.291-0.395,0.42-0.807,0.42-1.596c0-0.355-0.025-0.877-0.06-1.197c-0.025-0.244-0.05-0.369-0.105-0.545
		C45.878,29.883,46.083,29.893,46.229,29.934z"/>
	<path d="M32.091,39.896c-0.06-0.045-0.06-0.064-0.025-0.105c0.225-0.209,0.39-0.455,0.505-0.734c0.025-0.051,0.035-0.041,0.1-0.016
		l0.305,0.125c0.06,0.02,0.07,0.029,0.05,0.08c-0.135,0.34-0.315,0.586-0.546,0.852c-0.015,0.02-0.03,0.029-0.045,0.029
		s-0.035-0.01-0.06-0.029L32.091,39.896z M32.751,37.25c-0.445,0-0.596,0.01-0.626,0.01c-0.05,0-0.055-0.006-0.055-0.057v-0.32
		c0-0.049,0.005-0.055,0.055-0.055c0.03,0,0.181,0.01,0.626,0.01h0.565c-0.045-0.125-0.095-0.244-0.155-0.365
		c-0.48,0-0.646,0.01-0.676,0.01c-0.055,0-0.06-0.004-0.06-0.059v-0.301c0-0.051,0.005-0.055,0.06-0.055
		c0.03,0,0.195,0.01,0.681,0.01h0.821v-0.035c0-0.16-0.01-0.27-0.035-0.391c0.18,0,0.38,0.01,0.556,0.025
		c0.045,0.004,0.075,0.025,0.075,0.051c0,0.033-0.015,0.059-0.03,0.094c-0.015,0.045-0.02,0.096-0.02,0.221v0.035h0.886
		c0.485,0,0.651-0.01,0.681-0.01c0.05,0,0.055,0.004,0.055,0.055v0.301c0,0.055-0.005,0.059-0.055,0.059
		c-0.03,0-0.195-0.01-0.686-0.01h-0.065c-0.015,0.025-0.035,0.057-0.045,0.086c-0.03,0.064-0.07,0.18-0.12,0.279h0.621
		c0.445,0,0.596-0.01,0.626-0.01c0.055,0,0.06,0.006,0.06,0.055v0.32c0,0.051-0.005,0.057-0.06,0.057c-0.03,0-0.181-0.01-0.626-0.01
		H32.751z M35.109,37.465c0.485,0,0.655-0.01,0.69-0.01c0.05,0,0.055,0.004,0.055,0.055c0,0.029-0.01,0.141-0.01,0.4v0.516
		c0,0.26,0.01,0.369,0.01,0.4c0,0.049-0.005,0.055-0.055,0.055c-0.035,0-0.205-0.01-0.69-0.01h-1.662c-0.485,0-0.655,0.01-0.69,0.01
		c-0.05,0-0.055-0.006-0.055-0.055c0-0.035,0.01-0.141,0.01-0.4V37.91c0-0.26-0.01-0.365-0.01-0.4c0-0.051,0.005-0.055,0.055-0.055
		c0.035,0,0.205,0.01,0.69,0.01H35.109z M33.762,39.541c0,0.105,0.02,0.16,0.08,0.186c0.08,0.029,0.25,0.035,0.456,0.035
		c0.32,0,0.521-0.006,0.63-0.061c0.085-0.039,0.125-0.186,0.13-0.4c0.1,0.061,0.22,0.111,0.365,0.15
		c0.125,0.035,0.125,0.035,0.11,0.17c-0.045,0.266-0.13,0.41-0.255,0.477c-0.185,0.09-0.476,0.115-0.996,0.115
		c-0.436,0-0.716-0.021-0.855-0.086c-0.11-0.061-0.186-0.141-0.186-0.41V39.4c0-0.148-0.005-0.27-0.025-0.414
		c0.165,0.004,0.36,0.014,0.51,0.035c0.065,0.01,0.09,0.023,0.09,0.045c0,0.025-0.005,0.045-0.025,0.074
		c-0.025,0.041-0.03,0.1-0.03,0.211V39.541z M33.227,37.799v0.217h2.097v-0.217H33.227z M35.324,38.314h-2.097v0.227h2.097V38.314z
		 M33.692,36.473c0.05,0.105,0.095,0.227,0.14,0.365h0.826c0.055-0.119,0.11-0.26,0.14-0.365H33.692z M34.243,38.935
		c0.055-0.039,0.07-0.039,0.115-0.01c0.14,0.096,0.295,0.234,0.431,0.395c0.03,0.041,0.03,0.051-0.021,0.092l-0.225,0.189
		c-0.03,0.025-0.05,0.035-0.065,0.035c-0.02,0-0.03-0.01-0.05-0.035c-0.12-0.16-0.246-0.285-0.396-0.42
		c-0.055-0.035-0.05-0.031,0.015-0.086L34.243,38.935z M35.759,38.98c0.055-0.035,0.065-0.029,0.105,0.006
		c0.265,0.23,0.486,0.484,0.671,0.75c0.03,0.045,0.025,0.061-0.025,0.096L36.2,40.037c-0.03,0.02-0.05,0.029-0.065,0.029
		s-0.025-0.014-0.04-0.039c-0.18-0.336-0.36-0.547-0.616-0.801c-0.04-0.041-0.035-0.041,0.025-0.08L35.759,38.98z"/>
	<path d="M37.881,36.543c0.351,0,0.471-0.01,0.496-0.01c0.045,0,0.05,0.006,0.05,0.055v0.355c0,0.055-0.005,0.061-0.05,0.061
		c-0.025,0-0.145-0.01-0.496-0.01h-0.36c-0.355,0-0.465,0.01-0.495,0.01c-0.045,0-0.05-0.006-0.05-0.061v-0.355
		c0-0.049,0.005-0.055,0.05-0.055c0.03,0,0.14,0.01,0.495,0.01H37.881z M38.322,39.4c0,0.557,0.01,0.666,0.01,0.697
		c0,0.049-0.005,0.055-0.055,0.055h-0.32c-0.05,0-0.055-0.006-0.055-0.055v-0.166h-0.345v0.26c0,0.045-0.005,0.051-0.055,0.051
		h-0.325c-0.055,0-0.06-0.006-0.06-0.051c0-0.035,0.01-0.15,0.01-0.73v-0.355c0-0.314-0.01-0.436-0.01-0.471
		c0-0.049,0.005-0.055,0.06-0.055c0.03,0,0.135,0.01,0.456,0.01h0.185c0.32,0,0.425-0.01,0.46-0.01c0.05,0,0.055,0.006,0.055,0.055
		c0,0.031-0.01,0.15-0.01,0.387V39.4z M37.867,35.873c0.295,0,0.39-0.01,0.42-0.01c0.05,0,0.055,0.004,0.055,0.055v0.33
		c0,0.051-0.005,0.055-0.055,0.055c-0.03,0-0.125-0.01-0.42-0.01h-0.271c-0.3,0-0.396,0.01-0.425,0.01
		c-0.045,0-0.05-0.004-0.05-0.055v-0.33c0-0.051,0.005-0.055,0.05-0.055c0.03,0,0.125,0.01,0.425,0.01H37.867z M37.821,37.244
		c0.28,0,0.366-0.01,0.391-0.01c0.055,0,0.06,0.004,0.06,0.055v0.326c0,0.049-0.005,0.055-0.06,0.055c-0.025,0-0.11-0.01-0.391-0.01
		h-0.205c-0.285,0-0.371,0.01-0.396,0.01c-0.05,0-0.05-0.006-0.05-0.055v-0.326c0-0.051,0-0.055,0.05-0.055
		c0.025,0,0.11,0.01,0.396,0.01H37.821z M37.821,37.92c0.28,0,0.366-0.01,0.391-0.01c0.055,0,0.06,0.004,0.06,0.055v0.32
		c0,0.051-0.005,0.055-0.06,0.055c-0.025,0-0.11-0.01-0.391-0.01h-0.205c-0.285,0-0.371,0.01-0.396,0.01
		c-0.05,0-0.05-0.004-0.05-0.055v-0.32c0-0.051,0-0.055,0.05-0.055c0.025,0,0.11,0.01,0.396,0.01H37.821z M37.556,39v0.521h0.345V39
		H37.556z M39.162,37.67c-0.485,0-0.65,0.01-0.681,0.01c-0.055,0-0.06-0.006-0.06-0.055v-0.33c0-0.057,0.005-0.061,0.06-0.061
		c0.02,0,0.11,0.004,0.325,0.01c-0.035-0.141-0.085-0.305-0.13-0.416c-0.02-0.049-0.01-0.055,0.055-0.074l0.24-0.07
		c0.055-0.016,0.06-0.01,0.085,0.039c0.055,0.127,0.115,0.336,0.15,0.521h0.24c0.035-0.121,0.065-0.25,0.085-0.361
		c0.01-0.059,0.02-0.125,0.025-0.215c0.14,0.031,0.295,0.07,0.396,0.105c0.035,0.016,0.06,0.025,0.06,0.055
		c0,0.035-0.015,0.051-0.03,0.061c-0.02,0.016-0.04,0.041-0.05,0.074l-0.09,0.281h0.44l-0.015-0.842
		c-0.005-0.334-0.01-0.484-0.035-0.695c0.185,0.006,0.295,0.01,0.47,0.035c0.045,0.006,0.085,0.025,0.085,0.051
		c0,0.039-0.021,0.07-0.03,0.105c-0.025,0.059-0.035,0.15-0.03,0.49c0,0.311,0,0.596,0.01,0.855h0.09c0.485,0,0.655-0.01,0.686-0.01
		c0.05,0,0.055,0.004,0.055,0.061v0.33c0,0.049-0.005,0.055-0.055,0.055c-0.03,0-0.2-0.01-0.686-0.01h-0.075
		c0.015,0.34,0.04,0.631,0.08,0.881c0.045-0.086,0.09-0.18,0.13-0.281c0.05-0.125,0.09-0.25,0.115-0.4
		c0.115,0.055,0.28,0.115,0.38,0.191c0.045,0.035,0.065,0.055,0.065,0.084c0,0.041-0.02,0.061-0.06,0.1
		c-0.03,0.035-0.085,0.146-0.13,0.246c-0.115,0.246-0.235,0.465-0.371,0.666c0.09,0.305,0.186,0.455,0.235,0.455
		c0.055,0,0.1-0.119,0.12-0.586c0.07,0.066,0.165,0.131,0.255,0.18c0.09,0.051,0.085,0.066,0.075,0.166
		c-0.065,0.596-0.205,0.807-0.445,0.807c-0.205,0-0.41-0.191-0.575-0.592c-0.2,0.221-0.431,0.42-0.696,0.611
		c-0.05,0.035-0.08,0.055-0.105,0.055c-0.035,0-0.055-0.035-0.101-0.1c-0.06-0.096-0.155-0.191-0.21-0.236
		c0.125-0.08,0.245-0.154,0.355-0.24h-0.23c-0.05,0-0.055-0.004-0.055-0.055v-0.055h-0.536v0.279c0,0.051-0.005,0.057-0.055,0.057
		h-0.325c-0.05,0-0.055-0.006-0.055-0.057c0-0.029,0.01-0.164,0.01-0.895v-0.396c0-0.436-0.01-0.58-0.01-0.615
		c0-0.049,0.005-0.055,0.055-0.055c0.035,0,0.13,0.01,0.43,0.01h0.436c0.3,0,0.4-0.01,0.43-0.01c0.05,0,0.055,0.006,0.055,0.055
		c0,0.031-0.01,0.17-0.01,0.49v0.451c0,0.395,0.005,0.59,0.005,0.68c0.175-0.139,0.325-0.289,0.46-0.455
		c-0.015-0.049-0.025-0.105-0.035-0.16c-0.075-0.34-0.115-0.766-0.14-1.275H39.162z M39.057,36.609c-0.345,0-0.451,0.01-0.48,0.01
		c-0.045,0-0.05-0.006-0.05-0.061v-0.326c0-0.049,0.005-0.055,0.05-0.055c0.03,0,0.135,0.01,0.48,0.01h0.035v-0.139
		c0-0.141-0.01-0.256-0.03-0.371c0.18,0,0.311,0.004,0.476,0.025c0.05,0.004,0.08,0.025,0.08,0.045c0,0.035-0.02,0.061-0.035,0.094
		c-0.015,0.041-0.015,0.102-0.015,0.207v0.139h0.04c0.346,0,0.451-0.01,0.476-0.01c0.05,0,0.055,0.006,0.055,0.055v0.326
		c0,0.055-0.005,0.061-0.055,0.061c-0.025,0-0.13-0.01-0.476-0.01H39.057z M39.053,38.535h0.536v-0.266h-0.536V38.535z
		 M39.588,39.185V38.9h-0.536v0.285H39.588z M41.195,36.85c-0.06,0.023-0.08,0.023-0.095-0.035c-0.06-0.262-0.145-0.492-0.245-0.672
		c-0.025-0.045-0.02-0.064,0.04-0.09l0.225-0.09c0.06-0.025,0.065-0.029,0.095,0.016c0.12,0.199,0.215,0.455,0.27,0.66
		c0.015,0.051,0.005,0.08-0.045,0.1L41.195,36.85z"/>
	<path d="M43.112,36.008c0.085,0.02,0.12,0.045,0.12,0.096c0,0.055-0.03,0.115-0.05,0.164c-0.025,0.07-0.045,0.227-0.07,0.611
		c-0.05,0.771-0.075,1.281-0.075,1.938c0,0.504,0.06,0.619,0.46,0.619c0.445,0,1.141-0.27,1.752-0.92
		c0.02,0.189,0.065,0.355,0.115,0.475c0.025,0.055,0.04,0.09,0.04,0.121c0,0.045-0.021,0.084-0.101,0.154
		c-0.54,0.496-1.246,0.752-1.896,0.752c-0.641,0-0.941-0.256-0.941-1.021c0-0.842,0.045-1.562,0.07-2.162
		c0.01-0.295,0.025-0.615-0.05-0.916C42.717,35.943,42.957,35.969,43.112,36.008z"/>
	<path d="M47.648,36.838c-0.611,0.115-1.146,0.221-1.682,0.332c-0.19,0.045-0.24,0.055-0.315,0.08
		c-0.035,0.014-0.07,0.039-0.11,0.039c-0.035,0-0.075-0.029-0.095-0.074c-0.065-0.137-0.12-0.311-0.185-0.541
		c0.255-0.01,0.405-0.031,0.795-0.086c0.616-0.09,1.717-0.254,3.008-0.426c0.075-0.01,0.1,0.021,0.105,0.057
		c0.025,0.115,0.05,0.299,0.055,0.439c0,0.061-0.03,0.076-0.095,0.076c-0.235,0.014-0.396,0.039-0.611,0.109
		c-0.851,0.291-1.276,0.875-1.276,1.477c0,0.645,0.461,0.996,1.332,1.051c0.08,0,0.11,0.02,0.11,0.074
		c0,0.131-0.02,0.307-0.055,0.432c-0.015,0.074-0.035,0.105-0.095,0.105c-0.881,0-1.847-0.506-1.847-1.547
		c0-0.711,0.355-1.191,0.961-1.586V36.838z"/>
	<path d="M34.564,42.553c0.045,0.021,0.08,0.057,0.08,0.09c0,0.031-0.015,0.08-0.04,0.141c-0.02,0.061-0.045,0.275-0.045,0.49
		c0,0.32,0.01,0.682,0.09,1.143c0.07,0.395,0.2,0.734,0.411,0.734c0.16,0,0.285-0.174,0.48-0.695c0.11,0.176,0.22,0.291,0.32,0.385
		c0.06,0.057,0.06,0.115,0.035,0.186c-0.19,0.512-0.5,0.781-0.851,0.781c-0.391,0-0.801-0.461-0.936-1.307
		c-0.08-0.475-0.12-0.996-0.12-1.457c0-0.273-0.01-0.424-0.06-0.654C34.168,42.418,34.413,42.478,34.564,42.553z M36.886,42.869
		c0.02-0.01,0.04-0.02,0.055-0.02c0.02,0,0.035,0.01,0.055,0.029c0.455,0.395,0.855,1.086,0.98,1.711
		c0.015,0.066-0.015,0.086-0.055,0.111c-0.13,0.084-0.255,0.154-0.391,0.199c-0.06,0.02-0.095,0.006-0.105-0.055
		c-0.17-0.715-0.425-1.236-0.936-1.746C36.681,42.978,36.806,42.908,36.886,42.869z"/>
	<path d="M40.86,42.549c0.045-0.016,0.065-0.016,0.075,0.039c0.025,0.125,0.04,0.275,0.045,0.406c0,0.045-0.02,0.055-0.06,0.061
		c-0.27,0.055-0.516,0.09-0.826,0.135c-0.32,0.846-0.616,1.535-0.976,2.146c-0.02,0.035-0.035,0.051-0.055,0.051
		c-0.015,0-0.035-0.01-0.061-0.025c-0.115-0.07-0.26-0.176-0.345-0.256c-0.025-0.02-0.035-0.035-0.035-0.055
		c0-0.016,0.005-0.035,0.025-0.061c0.375-0.619,0.641-1.146,0.866-1.746c-0.19,0.01-0.345,0.01-0.5,0.01c-0.11,0-0.15,0-0.275-0.004
		c-0.05,0-0.06-0.016-0.07-0.08c-0.025-0.096-0.04-0.262-0.05-0.426c0.206,0.014,0.32,0.02,0.465,0.02
		c0.195,0,0.346-0.006,0.576-0.025c0.06-0.209,0.095-0.381,0.13-0.561c0.03-0.176,0.03-0.25,0.03-0.404
		c0.215,0.029,0.431,0.059,0.585,0.104c0.05,0.012,0.08,0.041,0.08,0.076c0,0.039-0.015,0.064-0.045,0.096
		c-0.03,0.039-0.05,0.084-0.08,0.184c-0.035,0.121-0.075,0.275-0.12,0.426C40.435,42.639,40.665,42.594,40.86,42.549z M41,43.891
		c-0.005-0.137-0.01-0.217-0.04-0.355c0.245,0.023,0.375,0.045,0.546,0.094c0.045,0.01,0.07,0.035,0.07,0.08
		c0,0.01-0.01,0.045-0.03,0.105c-0.021,0.061-0.025,0.121-0.021,0.205c0,0.295,0.015,0.512,0.055,0.852
		c0.36,0.145,0.606,0.254,0.901,0.465c0.05,0.035,0.055,0.055,0.03,0.105c-0.075,0.154-0.146,0.279-0.23,0.404
		c-0.015,0.025-0.03,0.035-0.045,0.035s-0.03-0.01-0.05-0.029c-0.221-0.189-0.406-0.301-0.611-0.42c0,0.5-0.36,0.73-0.931,0.73
		c-0.55,0-0.921-0.281-0.921-0.711c0-0.436,0.36-0.73,0.926-0.73c0.095,0,0.235,0.004,0.395,0.029
		C41.015,44.43,41.005,44.125,41,43.891z M40.645,45.15c-0.25,0-0.445,0.102-0.445,0.291c0,0.16,0.14,0.24,0.426,0.24
		c0.27,0,0.435-0.145,0.435-0.355c0-0.045,0-0.07-0.005-0.1C40.935,45.185,40.8,45.15,40.645,45.15z M41.576,42.744
		c0.03-0.051,0.055-0.055,0.105-0.035c0.295,0.08,0.691,0.279,0.981,0.471c0.03,0.02,0.045,0.035,0.045,0.055
		c0,0.016-0.005,0.035-0.021,0.061c-0.05,0.109-0.14,0.264-0.21,0.369c-0.015,0.025-0.03,0.035-0.045,0.035
		c-0.015,0-0.025-0.004-0.045-0.02c-0.295-0.201-0.656-0.42-1.036-0.545C41.436,42.984,41.511,42.834,41.576,42.744z"/>
	<path d="M44.154,42.553c0.045,0.021,0.08,0.057,0.08,0.09c0,0.031-0.015,0.08-0.04,0.141c-0.02,0.061-0.045,0.275-0.045,0.49
		c0,0.32,0.01,0.682,0.09,1.143c0.07,0.395,0.2,0.734,0.411,0.734c0.16,0,0.285-0.174,0.48-0.695c0.11,0.176,0.22,0.291,0.32,0.385
		c0.06,0.057,0.06,0.115,0.035,0.186c-0.19,0.512-0.501,0.781-0.851,0.781c-0.39,0-0.801-0.461-0.936-1.307
		c-0.08-0.475-0.12-0.996-0.12-1.457c0-0.273-0.01-0.424-0.06-0.654C43.759,42.418,44.004,42.478,44.154,42.553z M46.476,42.869
		c0.02-0.01,0.04-0.02,0.055-0.02c0.02,0,0.035,0.01,0.055,0.029c0.456,0.395,0.856,1.086,0.981,1.711
		c0.015,0.066-0.015,0.086-0.055,0.111c-0.13,0.084-0.255,0.154-0.391,0.199c-0.06,0.02-0.095,0.006-0.105-0.055
		c-0.17-0.715-0.425-1.236-0.936-1.746C46.271,42.978,46.396,42.908,46.476,42.869z"/>
</g>
<g>
	<path d="M52.369,24.257c-0.06-0.045-0.06-0.065-0.025-0.105c0.225-0.21,0.39-0.455,0.505-0.735c0.025-0.05,0.035-0.04,0.1-0.016
		l0.305,0.126c0.06,0.02,0.07,0.029,0.05,0.08c-0.135,0.34-0.315,0.585-0.546,0.851c-0.015,0.02-0.03,0.03-0.045,0.03
		s-0.035-0.011-0.06-0.03L52.369,24.257z M53.03,21.609c-0.445,0-0.596,0.01-0.626,0.01c-0.05,0-0.055-0.005-0.055-0.056v-0.32
		c0-0.05,0.005-0.055,0.055-0.055c0.03,0,0.181,0.01,0.626,0.01h0.565c-0.045-0.125-0.095-0.245-0.155-0.365
		c-0.48,0-0.646,0.01-0.676,0.01c-0.055,0-0.06-0.005-0.06-0.06v-0.3c0-0.051,0.005-0.056,0.06-0.056c0.03,0,0.195,0.01,0.681,0.01
		h0.821v-0.034c0-0.16-0.01-0.271-0.035-0.391c0.18,0,0.38,0.01,0.556,0.024c0.045,0.005,0.075,0.025,0.075,0.051
		c0,0.034-0.015,0.06-0.03,0.095c-0.015,0.045-0.02,0.095-0.02,0.221v0.034h0.886c0.485,0,0.651-0.01,0.681-0.01
		c0.05,0,0.055,0.005,0.055,0.056v0.3c0,0.055-0.005,0.06-0.055,0.06c-0.03,0-0.195-0.01-0.686-0.01h-0.065
		c-0.015,0.025-0.035,0.056-0.045,0.085c-0.03,0.065-0.07,0.181-0.12,0.28h0.621c0.445,0,0.596-0.01,0.626-0.01
		c0.055,0,0.06,0.005,0.06,0.055v0.32c0,0.051-0.005,0.056-0.06,0.056c-0.03,0-0.181-0.01-0.626-0.01H53.03z M55.388,21.824
		c0.485,0,0.655-0.01,0.69-0.01c0.05,0,0.055,0.005,0.055,0.055c0,0.03-0.01,0.141-0.01,0.4v0.516c0,0.261,0.01,0.37,0.01,0.4
		c0,0.05-0.005,0.055-0.055,0.055c-0.035,0-0.205-0.01-0.69-0.01h-1.662c-0.485,0-0.655,0.01-0.69,0.01
		c-0.05,0-0.055-0.005-0.055-0.055c0-0.035,0.01-0.14,0.01-0.4v-0.516c0-0.26-0.01-0.365-0.01-0.4c0-0.05,0.005-0.055,0.055-0.055
		c0.035,0,0.205,0.01,0.69,0.01H55.388z M54.041,23.901c0,0.105,0.02,0.16,0.08,0.186c0.08,0.029,0.25,0.034,0.456,0.034
		c0.32,0,0.521-0.005,0.63-0.06c0.085-0.04,0.125-0.186,0.13-0.4c0.1,0.06,0.22,0.11,0.365,0.15c0.125,0.035,0.125,0.035,0.11,0.17
		c-0.045,0.266-0.13,0.41-0.255,0.476c-0.185,0.09-0.476,0.115-0.996,0.115c-0.436,0-0.716-0.021-0.855-0.085
		c-0.11-0.061-0.186-0.141-0.186-0.411v-0.315c0-0.149-0.005-0.27-0.025-0.415c0.165,0.005,0.36,0.015,0.51,0.035
		c0.065,0.01,0.09,0.024,0.09,0.045c0,0.025-0.005,0.045-0.025,0.075c-0.025,0.04-0.03,0.1-0.03,0.21V23.901z M53.506,22.159v0.216
		h2.097v-0.216H53.506z M55.602,22.675h-2.097V22.9h2.097V22.675z M53.971,20.833c0.05,0.105,0.095,0.226,0.14,0.365h0.826
		c0.055-0.12,0.11-0.26,0.14-0.365H53.971z M54.521,23.296c0.055-0.04,0.07-0.04,0.115-0.01c0.14,0.095,0.295,0.234,0.431,0.395
		c0.03,0.04,0.03,0.051-0.021,0.091l-0.225,0.189c-0.03,0.025-0.05,0.035-0.065,0.035c-0.02,0-0.03-0.01-0.05-0.035
		c-0.12-0.16-0.246-0.285-0.396-0.42c-0.055-0.035-0.05-0.03,0.015-0.085L54.521,23.296z M56.038,23.341
		c0.055-0.035,0.065-0.03,0.105,0.005c0.265,0.23,0.486,0.485,0.671,0.751c0.03,0.045,0.025,0.06-0.025,0.095l-0.311,0.205
		c-0.03,0.021-0.05,0.03-0.065,0.03s-0.025-0.015-0.04-0.04c-0.18-0.335-0.36-0.546-0.616-0.801c-0.04-0.04-0.035-0.04,0.025-0.08
		L56.038,23.341z"/>
	<path d="M58.16,20.903c0.351,0,0.471-0.01,0.496-0.01c0.045,0,0.05,0.005,0.05,0.055v0.355c0,0.055-0.005,0.061-0.05,0.061
		c-0.025,0-0.145-0.011-0.496-0.011H57.8c-0.355,0-0.465,0.011-0.495,0.011c-0.045,0-0.05-0.006-0.05-0.061v-0.355
		c0-0.05,0.005-0.055,0.05-0.055c0.03,0,0.14,0.01,0.495,0.01H58.16z M58.6,23.761c0,0.556,0.01,0.666,0.01,0.696
		c0,0.05-0.005,0.055-0.055,0.055h-0.32c-0.05,0-0.055-0.005-0.055-0.055v-0.165h-0.345v0.26c0,0.045-0.005,0.05-0.055,0.05h-0.325
		c-0.055,0-0.06-0.005-0.06-0.05c0-0.035,0.01-0.15,0.01-0.73v-0.355c0-0.315-0.01-0.436-0.01-0.471c0-0.05,0.005-0.055,0.06-0.055
		c0.03,0,0.135,0.01,0.456,0.01h0.185c0.32,0,0.425-0.01,0.46-0.01c0.05,0,0.055,0.005,0.055,0.055c0,0.03-0.01,0.15-0.01,0.386
		V23.761z M58.145,20.232c0.295,0,0.39-0.01,0.42-0.01c0.05,0,0.055,0.005,0.055,0.055v0.331c0,0.05-0.005,0.055-0.055,0.055
		c-0.03,0-0.125-0.01-0.42-0.01h-0.271c-0.3,0-0.396,0.01-0.425,0.01c-0.045,0-0.05-0.005-0.05-0.055v-0.331
		c0-0.05,0.005-0.055,0.05-0.055c0.03,0,0.125,0.01,0.425,0.01H58.145z M58.1,21.604c0.28,0,0.366-0.011,0.391-0.011
		c0.055,0,0.06,0.005,0.06,0.056v0.325c0,0.05-0.005,0.055-0.06,0.055c-0.025,0-0.11-0.01-0.391-0.01h-0.205
		c-0.285,0-0.371,0.01-0.396,0.01c-0.05,0-0.05-0.005-0.05-0.055v-0.325c0-0.051,0-0.056,0.05-0.056c0.025,0,0.11,0.011,0.396,0.011
		H58.1z M58.1,22.279c0.28,0,0.366-0.01,0.391-0.01c0.055,0,0.06,0.005,0.06,0.056v0.32c0,0.05-0.005,0.055-0.06,0.055
		c-0.025,0-0.11-0.01-0.391-0.01h-0.205c-0.285,0-0.371,0.01-0.396,0.01c-0.05,0-0.05-0.005-0.05-0.055v-0.32
		c0-0.051,0-0.056,0.05-0.056c0.025,0,0.11,0.01,0.396,0.01H58.1z M57.835,23.36v0.521h0.345V23.36H57.835z M59.441,22.029
		c-0.485,0-0.65,0.01-0.681,0.01c-0.055,0-0.06-0.005-0.06-0.055v-0.33c0-0.056,0.005-0.061,0.06-0.061
		c0.02,0,0.11,0.005,0.325,0.011c-0.035-0.141-0.085-0.306-0.13-0.416c-0.02-0.05-0.01-0.055,0.055-0.075l0.24-0.069
		c0.055-0.016,0.06-0.011,0.085,0.039c0.055,0.126,0.115,0.336,0.15,0.521h0.24c0.035-0.121,0.065-0.251,0.085-0.361
		c0.01-0.06,0.02-0.125,0.025-0.215c0.14,0.03,0.295,0.07,0.396,0.105c0.035,0.015,0.06,0.024,0.06,0.055
		c0,0.035-0.015,0.05-0.03,0.061c-0.02,0.015-0.04,0.04-0.05,0.074l-0.09,0.281h0.44l-0.015-0.842
		c-0.005-0.335-0.01-0.485-0.035-0.695c0.185,0.005,0.295,0.01,0.47,0.035c0.045,0.005,0.085,0.025,0.085,0.05
		c0,0.04-0.021,0.07-0.03,0.105c-0.025,0.06-0.035,0.15-0.03,0.49c0,0.311,0,0.596,0.01,0.856h0.09c0.485,0,0.655-0.011,0.686-0.011
		c0.05,0,0.055,0.005,0.055,0.061v0.33c0,0.05-0.005,0.055-0.055,0.055c-0.03,0-0.2-0.01-0.686-0.01h-0.075
		c0.015,0.341,0.04,0.631,0.08,0.881c0.045-0.085,0.09-0.18,0.13-0.28c0.05-0.125,0.09-0.25,0.115-0.4
		c0.115,0.055,0.28,0.115,0.38,0.19c0.045,0.035,0.065,0.055,0.065,0.085c0,0.04-0.02,0.061-0.06,0.1
		c-0.03,0.035-0.085,0.146-0.13,0.246c-0.115,0.245-0.235,0.465-0.371,0.665c0.09,0.306,0.186,0.456,0.235,0.456
		c0.055,0,0.1-0.12,0.12-0.586c0.07,0.065,0.165,0.13,0.255,0.18c0.09,0.051,0.085,0.065,0.075,0.166
		c-0.065,0.596-0.205,0.806-0.445,0.806c-0.205,0-0.41-0.19-0.575-0.591c-0.2,0.221-0.431,0.42-0.696,0.61
		c-0.05,0.035-0.08,0.056-0.105,0.056c-0.035,0-0.055-0.035-0.101-0.101c-0.06-0.095-0.155-0.19-0.21-0.235
		c0.125-0.08,0.245-0.155,0.355-0.24h-0.23c-0.05,0-0.055-0.005-0.055-0.055v-0.055h-0.536v0.279c0,0.051-0.005,0.056-0.055,0.056
		h-0.325c-0.05,0-0.055-0.005-0.055-0.056c0-0.029,0.01-0.165,0.01-0.896v-0.396c0-0.436-0.01-0.58-0.01-0.615
		c0-0.05,0.005-0.055,0.055-0.055c0.035,0,0.13,0.01,0.43,0.01h0.436c0.3,0,0.4-0.01,0.43-0.01c0.05,0,0.055,0.005,0.055,0.055
		c0,0.03-0.01,0.17-0.01,0.49v0.45c0,0.396,0.005,0.591,0.005,0.681c0.175-0.14,0.325-0.29,0.46-0.455
		c-0.015-0.05-0.025-0.105-0.035-0.16c-0.075-0.34-0.115-0.766-0.14-1.276H59.441z M59.336,20.969c-0.345,0-0.451,0.01-0.48,0.01
		c-0.045,0-0.05-0.005-0.05-0.061v-0.325c0-0.05,0.005-0.055,0.05-0.055c0.03,0,0.135,0.01,0.48,0.01h0.035v-0.14
		c0-0.141-0.01-0.256-0.03-0.371c0.18,0,0.311,0.005,0.476,0.025c0.05,0.005,0.08,0.025,0.08,0.045c0,0.035-0.02,0.061-0.035,0.095
		c-0.015,0.041-0.015,0.101-0.015,0.206v0.14h0.04c0.346,0,0.451-0.01,0.476-0.01c0.05,0,0.055,0.005,0.055,0.055v0.325
		c0,0.056-0.005,0.061-0.055,0.061c-0.025,0-0.13-0.01-0.476-0.01H59.336z M59.331,22.895h0.536V22.63h-0.536V22.895z
		 M59.867,23.546v-0.285h-0.536v0.285H59.867z M61.473,21.209c-0.06,0.024-0.08,0.024-0.095-0.035
		c-0.06-0.261-0.145-0.491-0.245-0.671c-0.025-0.045-0.02-0.065,0.04-0.09l0.225-0.09c0.06-0.025,0.065-0.03,0.095,0.015
		c0.12,0.2,0.215,0.455,0.27,0.66c0.015,0.051,0.005,0.08-0.045,0.101L61.473,21.209z"/>
	<path d="M63.391,20.368c0.085,0.02,0.12,0.045,0.12,0.095c0,0.055-0.03,0.115-0.05,0.165c-0.025,0.07-0.045,0.226-0.07,0.61
		c-0.05,0.771-0.075,1.281-0.075,1.938c0,0.505,0.06,0.62,0.46,0.62c0.445,0,1.141-0.27,1.752-0.921
		c0.02,0.19,0.065,0.355,0.115,0.476c0.025,0.055,0.04,0.09,0.04,0.12c0,0.045-0.021,0.085-0.101,0.155
		c-0.54,0.495-1.246,0.751-1.896,0.751c-0.641,0-0.941-0.256-0.941-1.021c0-0.841,0.045-1.562,0.07-2.162
		c0.01-0.295,0.025-0.615-0.05-0.916C62.995,20.303,63.236,20.328,63.391,20.368z"/>
	<path d="M67.927,21.198c-0.611,0.115-1.146,0.221-1.682,0.331c-0.19,0.045-0.24,0.055-0.315,0.08c-0.035,0.015-0.07,0.04-0.11,0.04
		c-0.035,0-0.075-0.03-0.095-0.075c-0.065-0.136-0.12-0.311-0.185-0.541c0.255-0.01,0.405-0.03,0.795-0.085
		c0.616-0.09,1.717-0.255,3.008-0.426c0.075-0.01,0.1,0.021,0.105,0.056c0.025,0.115,0.05,0.3,0.055,0.44
		c0,0.06-0.03,0.075-0.095,0.075c-0.235,0.015-0.396,0.04-0.611,0.11c-0.851,0.29-1.276,0.875-1.276,1.476
		c0,0.646,0.461,0.996,1.332,1.052c0.08,0,0.11,0.02,0.11,0.074c0,0.131-0.02,0.306-0.055,0.431
		c-0.015,0.075-0.035,0.105-0.095,0.105c-0.881,0-1.847-0.506-1.847-1.547c0-0.71,0.355-1.19,0.961-1.586V21.198z"/>
	<path d="M54.843,26.913c0.045,0.021,0.08,0.056,0.08,0.09c0,0.03-0.015,0.08-0.04,0.141c-0.02,0.061-0.045,0.275-0.045,0.49
		c0,0.32,0.01,0.681,0.09,1.142c0.07,0.396,0.2,0.735,0.411,0.735c0.16,0,0.285-0.175,0.48-0.695c0.11,0.175,0.22,0.29,0.32,0.385
		c0.06,0.056,0.06,0.115,0.035,0.186c-0.19,0.511-0.5,0.781-0.851,0.781c-0.391,0-0.801-0.461-0.936-1.307
		c-0.08-0.476-0.12-0.996-0.12-1.457c0-0.274-0.01-0.425-0.06-0.655C54.447,26.778,54.692,26.838,54.843,26.913z M57.165,27.228
		c0.02-0.01,0.04-0.02,0.055-0.02c0.02,0,0.035,0.01,0.055,0.029c0.455,0.396,0.855,1.087,0.98,1.712
		c0.015,0.065-0.015,0.085-0.055,0.11c-0.13,0.085-0.255,0.155-0.391,0.2c-0.06,0.02-0.095,0.005-0.105-0.055
		c-0.17-0.716-0.425-1.236-0.936-1.747C56.96,27.339,57.085,27.268,57.165,27.228z"/>
	<path d="M61.139,26.908c0.045-0.015,0.065-0.015,0.075,0.04c0.025,0.125,0.04,0.275,0.045,0.405c0,0.045-0.02,0.056-0.06,0.061
		c-0.27,0.055-0.516,0.09-0.826,0.135c-0.32,0.846-0.616,1.536-0.976,2.147c-0.02,0.035-0.035,0.05-0.055,0.05
		c-0.015,0-0.035-0.01-0.061-0.025c-0.115-0.069-0.26-0.175-0.345-0.255c-0.025-0.02-0.035-0.035-0.035-0.055
		c0-0.016,0.005-0.035,0.025-0.061c0.375-0.62,0.641-1.146,0.866-1.746c-0.19,0.01-0.345,0.01-0.5,0.01c-0.11,0-0.15,0-0.275-0.005
		c-0.05,0-0.06-0.016-0.07-0.08c-0.025-0.096-0.04-0.261-0.05-0.426c0.206,0.015,0.32,0.021,0.465,0.021
		c0.195,0,0.346-0.006,0.576-0.025c0.06-0.21,0.095-0.381,0.13-0.561c0.03-0.176,0.03-0.25,0.03-0.405
		c0.215,0.03,0.431,0.06,0.585,0.104c0.05,0.011,0.08,0.04,0.08,0.075c0,0.04-0.015,0.065-0.045,0.096
		c-0.03,0.04-0.05,0.085-0.08,0.185c-0.035,0.12-0.075,0.275-0.12,0.426C60.714,26.998,60.944,26.953,61.139,26.908z M61.279,28.25
		c-0.005-0.136-0.01-0.216-0.04-0.355c0.245,0.024,0.375,0.045,0.546,0.095c0.045,0.01,0.07,0.035,0.07,0.08
		c0,0.01-0.01,0.045-0.03,0.105c-0.021,0.06-0.025,0.12-0.021,0.205c0,0.295,0.015,0.511,0.055,0.851
		c0.36,0.146,0.606,0.255,0.901,0.466c0.05,0.035,0.055,0.055,0.03,0.104c-0.075,0.155-0.146,0.28-0.23,0.405
		c-0.015,0.025-0.03,0.035-0.045,0.035s-0.03-0.01-0.05-0.029c-0.221-0.19-0.406-0.301-0.611-0.421c0,0.501-0.36,0.73-0.931,0.73
		c-0.55,0-0.921-0.28-0.921-0.71c0-0.436,0.36-0.731,0.926-0.731c0.095,0,0.235,0.005,0.395,0.03
		C61.294,28.79,61.284,28.485,61.279,28.25z M60.924,29.511c-0.25,0-0.445,0.101-0.445,0.29c0,0.16,0.14,0.24,0.426,0.24
		c0.27,0,0.435-0.145,0.435-0.354c0-0.046,0-0.07-0.005-0.101C61.214,29.546,61.079,29.511,60.924,29.511z M61.855,27.103
		c0.03-0.05,0.055-0.055,0.105-0.035c0.295,0.08,0.691,0.28,0.981,0.471c0.03,0.02,0.045,0.035,0.045,0.055
		c0,0.016-0.005,0.035-0.021,0.061c-0.05,0.11-0.14,0.265-0.21,0.37c-0.015,0.025-0.03,0.035-0.045,0.035
		c-0.015,0-0.025-0.005-0.045-0.021c-0.295-0.2-0.656-0.42-1.036-0.545C61.715,27.344,61.79,27.193,61.855,27.103z"/>
	<path d="M64.433,26.913c0.045,0.021,0.08,0.056,0.08,0.09c0,0.03-0.015,0.08-0.04,0.141c-0.02,0.061-0.045,0.275-0.045,0.49
		c0,0.32,0.01,0.681,0.09,1.142c0.07,0.396,0.2,0.735,0.411,0.735c0.16,0,0.285-0.175,0.48-0.695c0.11,0.175,0.22,0.29,0.32,0.385
		c0.06,0.056,0.06,0.115,0.035,0.186c-0.19,0.511-0.501,0.781-0.851,0.781c-0.39,0-0.801-0.461-0.936-1.307
		c-0.08-0.476-0.12-0.996-0.12-1.457c0-0.274-0.01-0.425-0.06-0.655C64.037,26.778,64.283,26.838,64.433,26.913z M66.755,27.228
		c0.02-0.01,0.04-0.02,0.055-0.02c0.02,0,0.035,0.01,0.055,0.029c0.456,0.396,0.856,1.087,0.981,1.712
		c0.015,0.065-0.015,0.085-0.055,0.11c-0.13,0.085-0.255,0.155-0.391,0.2c-0.06,0.02-0.095,0.005-0.105-0.055
		c-0.17-0.716-0.425-1.236-0.936-1.747C66.55,27.339,66.675,27.268,66.755,27.228z"/>
</g>
</svg>
