<?xml version="1.0" encoding="utf-8"?>
<!-- Generator: Adobe Illustrator 22.0.1, SVG Export Plug-In . SVG Version: 6.00 Build 0)  -->
<svg version="1.1" id="レイヤー_1" xmlns="http://www.w3.org/2000/svg" xmlns:xlink="http://www.w3.org/1999/xlink" x="0px"
	 y="0px" viewBox="0 0 531.2 500" enable-background="new 0 0 531.2 500" xml:space="preserve">
<title>アートボード 1</title>
<path fill="#898989" d="M278.8,268.4l-0.3-0.2L40.2,130.6l170.3-98.3l0.3,0.2l238.4,137.6L278.8,268.4z M42.8,130.6l236,136.3
	l167.6-96.8l-236-136.3L42.8,130.6z"/>
<polygon fill="#898989" points="329.8,296.7 328.5,296.7 328.5,102.7 160.5,199.7 159.8,198.6 329.8,100.4 "/>
<polygon fill="#898989" points="159.5,395.4 159.5,199.1 160.8,199.1 160.8,393.1 328.8,296.1 329.5,297.2 "/>
<path fill="#898989" d="M278.2,463.9V267.3l0.3-0.2l170-98.1v196.6l-0.3,0.2L278.2,463.9z M279.5,268v193.6l167.6-96.8V171.2
	L279.5,268z"/>
<path fill="#898989" d="M364,415.1l-86.5-49.9l85.1-49.2v-98.3l86.5,49.9L364,316.8V415.1z M280.2,365.2l82.5,47.6v-95.3
	L280.2,365.2z M364,220v95.2l82.5-47.6L364,220z"/>
<path fill="#898989" d="M40.8,326.9V130.2l0.3-0.2l170-98.1v196.6l-0.3,0.2L40.8,326.9z M42.1,131v193.5l167.6-96.8V34.2L42.1,131z"
	/>
<rect x="125.3" y="81.8" fill="#898989" width="1.3" height="195.1"/>
<rect x="28.375" y="178.712" transform="matrix(0.8661 -0.4998 0.4998 0.8661 -72.7912 86.9488)" fill="#898989" width="195.093" height="1.3"/>
<rect x="244" y="150.4" fill="#898989" width="1.3" height="195.1"/>
<rect x="193.4" y="207.1" fill="#FBFBFB" width="34.4" height="32.4"/>
<path fill="#231815" d="M225.9,237.6h-10.1v-2.9h3.2l-3.8-10.3l-4.5-12.3l-8.8,22.5h3.3v2.9h-9.9v-2.9h3.4l10.7-25.8h3.2l9.8,25.7
	h3.5L225.9,237.6z M204.4,223.4h11l0.9,2.9h-12L204.4,223.4z"/>
<rect x="313.9" y="273.6" fill="#FBFBFB" width="32.8" height="33.3"/>
<path fill="#231815" d="M344.9,305h-10.1v-1.4h3.5l-5.1-12.8l-3.7-9.5l-8.9,22.4h3.3v1.4h-8.2v-1.4h3l11.5-27.9
	c0.1-0.4,0.3-0.3,0.5,0l11.2,27.9h2.9L344.9,305z M324.6,290.8h9.5v1.7h-9.7L324.6,290.8z"/>
<rect x="362.707" y="218.88" transform="matrix(0.5 -0.866 0.866 0.5 -92.358 472.8844)" fill="#898989" width="1.3" height="195.096"/>
<rect x="193.5" y="110.7" fill="#FBFBFB" width="34.2" height="32.4"/>
<path fill="#231815" d="M225.8,141.2h-10.1v-2.4l0.7-0.2c0.7-0.2,1.8-0.4,2.5-0.5l-3.7-10l-4.5-12.3l-8.7,22.3
	c0.8,0.1,1.5,0.3,2.2,0.5l1.1,0.2v2.4h-9.9v-2.4l0.8-0.2l2.6-0.5l10.6-25.5h3.2l9.7,25.4c0.9,0.1,2,0.3,2.8,0.5l0.7,0.2L225.8,141.2
	L225.8,141.2z M204.4,127h11l0.9,2.7h-12L204.4,127z"/>
<path fill="#231815" d="M225.1,138.5c-0.8-0.2-2-0.4-2.8-0.5l-9.7-25.4h-3.2l-10.6,25.5l-2.6,0.5l-0.8,0.2v2.4h9.9v-2.4l-1.1-0.2
	c-0.7-0.1-1.5-0.3-2.2-0.5l3.3-8.4h10.6l3.1,8.4c-0.7,0.1-1.8,0.3-2.5,0.5l-0.7,0.2v2.4h10.1v-2.5L225.1,138.5z M210.7,115.8
	l4.1,11.2h-8.5L210.7,115.8z"/>
<rect x="229.4" y="322" fill="#FBFBFB" width="32.8" height="33.3"/>
<path fill="#231815" d="M260.4,353.4h-10.1V352h3.5l-5.1-12.8l-3.7-9.6l-8.8,22.4h3.3v1.4h-8.2V352h3l11.6-27.9
	c0.1-0.4,0.3-0.3,0.5,0l11.2,27.9h2.9L260.4,353.4z M240.1,339.2h9.5v1.7h-9.7L240.1,339.2z"/>
<path fill="#231815" d="M259.9,352h-2.4l-11.2-27.9c-0.1-0.3-0.3-0.4-0.5,0L234.3,352h-3v1.4h8.2V352h-3.3l4.4-11.1h8.9l4.4,11.1
	h-3.5v1.4h10.1V352H259.9z M241.3,339.2l3.8-9.6l3.7,9.5l0,0L241.3,339.2z"/>
<rect x="147.077" y="247.212" transform="matrix(0.8659 -0.5003 0.5003 0.8659 -91.1865 155.6312)" fill="#898989" width="195.108" height="1.3"/>
<rect x="313.8" y="181.5" fill="#FBFBFB" width="33" height="33.3"/>
<path fill="#231815" d="M344.9,212.9h-10.2v-1.2l1.2-0.3c0.7-0.2,1.3-0.4,2-0.6l-4.8-12.1l-3.7-9.5l-8.6,21.6l2,0.7l1,0.3v1.2h-8.3
	v-1.2l0.9-0.3c0.9-0.2,1.7-0.5,2.6-0.8l11.2-27c0.1-0.4,0.3-0.3,0.5,0l10.9,27l2.8,1l0.5,0.1V212.9z M324.6,198.7h9.5v1.7h-9.7
	L324.6,198.7z"/>
<path fill="#231815" d="M344.5,211.6l-2.8-1l-10.9-27c-0.1-0.3-0.3-0.4-0.5,0l-11.2,27c-0.9,0.2-1.7,0.5-2.6,0.8l-0.9,0.3v1.2h8.3
	v-1.2l-1-0.3l-2-0.7l4.1-10.3h8.9l4.1,10.4c-0.7,0.2-1.3,0.4-2,0.6l-1.2,0.3v1.2H345v-1.2L344.5,211.6z M325.7,198.7l3.8-9.6
	l3.7,9.5l0,0L325.7,198.7z"/>
<rect x="243.999" y="13.302" transform="matrix(0.5 -0.866 0.866 0.5 -7.8831 287.0435)" fill="#898989" width="1.3" height="274.094"/>
<rect x="229.4" y="229.4" fill="#FBFBFB" width="32.9" height="33.3"/>
<path fill="#231815" d="M260.4,260.8h-10.1v-1.3l1.3-0.1c0.7,0,1.4-0.3,1.9-0.8l-4.7-12L245,237l-8.5,21.5c0.5,0.5,1.1,0.8,1.8,0.8
	l1.2,0.2v1.3h-8.2v-1.3l0.7-0.2c1-0.1,1.9-0.5,2.8-1l11.1-26.9c0.1-0.4,0.3-0.3,0.5,0l10.8,26.9c0.9,0.5,1.8,0.9,2.8,1h0.5
	L260.4,260.8z M240.1,246.6h9.5v1.7h-9.7L240.1,246.6z"/>
<path fill="#E61673" d="M259.9,259.4c-1-0.1-2-0.5-2.8-1l-10.8-26.9c-0.1-0.3-0.3-0.4-0.5,0l-11.1,26.9c-0.8,0.5-1.8,0.9-2.8,1
	l-0.7,0.2v1.3h8.2v-1.3l-1.2-0.2c-0.7-0.1-1.3-0.3-1.8-0.8l4.1-10.2h8.9l4,10.2c-0.5,0.5-1.2,0.8-1.9,0.8l-1.3,0.1v1.3h10.1v-1.3
	L259.9,259.4z M241.2,246.6l3.8-9.6l3.7,9.5l0,0L241.2,246.6z"/>
<rect x="109.2" y="159.4" fill="#FBFBFB" width="34.3" height="32.4"/>
<path fill="#231815" d="M141.6,189.9h-10.1v-2.5l0.8-0.1c0.8,0,1.6-0.3,2.2-0.7l-3.6-9.8l-4.5-12.3l-8.6,22c0.6,0.4,1.3,0.7,2,0.7
	l1.2,0.1v2.5h-10v-2.5l0.9-0.1c1-0.1,1.9-0.3,2.8-0.7l10.5-25.3h3l9.6,25.2c0.9,0.4,1.9,0.7,2.9,0.7l0.8,0.1L141.6,189.9z
	 M120.1,175.7h11l0.9,2.7h-12L120.1,175.7z"/>
<path fill="#231815" d="M140.8,187.2c-1,0-2-0.3-2.9-0.7l-9.6-25.2h-3.1l-10.5,25.3c-0.9,0.4-1.8,0.7-2.8,0.7l-0.9,0.1v2.5h9.8v-2.5
	l-1.2-0.1c-0.7,0-1.4-0.3-2-0.7l3.2-8.2h10.5l3,8.2c-0.7,0.4-1.4,0.7-2.2,0.7l-0.8,0.1v2.5h10.1v-2.6L140.8,187.2z M126.4,164.5
	l4.1,11.2H122L126.4,164.5z"/>
<rect x="109.3" y="62.1" fill="#FBFBFB" width="34.2" height="32.4"/>
<path fill="#231815" d="M141.6,92.6h-10.1v-2.1l1-0.2c0.9-0.1,1.6-0.6,1.8-1.5l-3.4-9.3l-4.5-12.3L118,88.8c0.2,0.8,1,1.4,1.9,1.4
	l1.1,0.2v2.2h-9.7v-2.1l1.3-0.2c1-0.1,1.9-0.6,2.5-1.4L125.3,64h3l9.4,24.7c0.7,0.8,1.6,1.3,2.7,1.5l1.2,0.2L141.6,92.6z
	 M120.1,78.4h11l0.9,2.5h-12L120.1,78.4z"/>
<path fill="#231815" d="M140.4,90.2c-1-0.1-2-0.7-2.7-1.5L128.3,64h-3L115,88.8c-0.6,0.8-1.5,1.3-2.5,1.4l-1.3,0.2v2.2h9.7v-2.1
	l-1.1-0.2c-0.9,0-1.6-0.6-1.9-1.4L121,81h10.4l2.9,7.9c-0.2,0.8-1,1.4-1.8,1.5l-1,0.2v2.2h10.1v-2.2L140.4,90.2z M126.4,67.2
	l4.1,11.2H122L126.4,67.2z"/>
<rect x="109.8" y="256" fill="#FBFBFB" width="34.4" height="32.4"/>
<path fill="#231815" d="M142.3,286.5h-10.1v-2.9h3.2l-3.8-10.3l-4.5-12.3l-8.8,22.5h3.3v2.9h-9.9v-2.9h3.4l10.7-25.8h3.2l9.8,25.7
	h3.5L142.3,286.5z M120.8,272.3h11l0.9,2.9h-12L120.8,272.3z"/>
<path fill="#231815" d="M141.9,283.5h-3l-9.9-25.7h-3.2l-10.7,25.8h-3.4v2.9h9.9v-2.9h-3.3l3.3-8.5h10.7l3.2,8.5h-3.2v2.9h10.1v-3
	L141.9,283.5z M127.1,261.1l4.1,11.2h-8.5L127.1,261.1z"/>
<path fill="#898989" d="M279.5,463.9l-1-0.6L40.8,326.1V129.4l238.7,137.8V463.9z M42.1,325.3l236,136.3V268l-236-136.3L42.1,325.3z
	"/>
<rect x="159.485" y="159.635" transform="matrix(0.5 -0.866 0.866 0.5 -176.8667 287.0178)" fill="#898989" width="1.3" height="274.094"/>
<rect x="313" y="82.6" fill="#FBFBFB" width="33.2" height="33.3"/>
<path fill="#231815" d="M344.3,114H334v-1l1-0.6l2-1.3l-4.5-11.4l-3.7-9.5l-8.3,20.9c0.6,0.5,1.3,0.9,1.9,1.4l0.9,0.6v1h-8.5v-0.9
	l1.1-0.7l2.7-1.6l10.8-26.2c0.1-0.4,0.3-0.3,0.5,0l10.5,26.1c1.1,0.7,2.2,1.3,3.3,2l0.5,0.3L344.3,114z M323.8,99.8h9.5v1.7h-9.7
	L323.8,99.8z"/>
<rect x="431.4" y="151.1" fill="#FBFBFB" width="33.5" height="33.3"/>
<path fill="#231815" d="M463,182.6h-9.6v-0.2l0.7-0.4c0.7-0.3,1.3-0.7,2-1l-5-12.6l-4.3-11.1L437,181l2.4,1.1l0.8,0.3v0.2h-7v-0.2
	l1-0.4l2.5-1l11.5-27.6c0.1-0.4,0.3-0.3,0.5,0l11.1,27.6l2.3,1l0.9,0.4V182.6z M441.8,169.1H452v0.2h-10.3L441.8,169.1z"/>
<rect x="431.4" y="245.5" fill="#FBFBFB" width="33.7" height="33.3"/>
<path fill="#231815" d="M463.2,276.9h-9.6v-0.2l0.6-0.2c0.7-0.2,1.6-0.4,2.2-0.5l-5.2-13.3l-4.3-11.1L436.8,276
	c0.7,0.2,1.5,0.3,2.2,0.5l1,0.2v0.2h-6.8v-0.2l0.8-0.2c0.9-0.1,1.7-0.3,2.5-0.5l11.7-28.4c0.1-0.4,0.3-0.3,0.5,0l11.4,28.4
	c0.8,0.1,1.6,0.3,2.4,0.5l0.7,0.2V276.9z M441.8,263.4H452v0.2h-10.3L441.8,263.4z"/>
<path fill="#231815" d="M462.5,276.5c-0.8-0.2-1.6-0.4-2.4-0.5l-11.4-28.4c-0.1-0.3-0.3-0.4-0.5,0L436.5,276
	c-0.8,0.1-1.6,0.3-2.5,0.5l-0.8,0.2v0.2h6.8v-0.2l-1-0.2c-0.8-0.2-1.5-0.3-2.2-0.5l5.1-12.3h9.7l4.9,12.3c-0.7,0.1-1.6,0.3-2.2,0.5
	l-0.6,0.2v0.2h9.6v-0.2L462.5,276.5z M441.9,263.4l4.9-11.9l4.3,11.1l0.3,0.8H441.9z"/>
<rect x="229.3" y="131" fill="#FBFBFB" width="33" height="33.3"/>
<path fill="#231815" d="M260.5,162.5h-10.2v-1.2l1.2-0.3c0.8-0.1,1.5-0.7,1.6-1.6l-4.4-11.2l-3.7-9.5l-8.2,20.7
	c0.1,0.8,0.8,1.5,1.6,1.7l1.1,0.3v1.2h-8.4v-1.2l0.9-0.3c1.2-0.2,2.3-0.9,3-1.9l10.7-25.9c0.1-0.4,0.3-0.3,0.5,0l10.5,25.8
	c0.8,1.1,2,1.8,3.3,2.1l0.5,0.1V162.5z M240.1,148.3h9.5v1.7h-9.7L240.1,148.3z"/>
<path fill="#231815" d="M260,161.1c-1.3-0.3-2.5-1-3.3-2.1l-10.4-25.9c-0.1-0.3-0.3-0.4-0.5,0L235.1,159c-0.7,1-1.8,1.6-3,1.9
	l-0.9,0.3v1.2h8.4v-1.2l-1.1-0.3c-0.8-0.2-1.5-0.8-1.6-1.7l3.7-9.4h8.9l3.7,9.4c-0.1,0.8-0.8,1.5-1.6,1.6l-1.2,0.3v1.2h10.2v-1.2
	H260z M241.2,148.3l3.8-9.6l3.7,9.5l0,0L241.2,148.3z"/>
<rect x="143.8" y="180.2" fill="#FBFBFB" width="32.8" height="33.3"/>
<path fill="#231815" d="M174.8,211.6h-10.1v-1.4h1.4c1.2,0,1.7-0.8,1.3-1.9l-4.3-10.9l-3.7-9.5l-8.1,20.4c-0.5,1.2,0,2,1.3,2h1.3
	v1.4h-8.2v-1.4h0.5c1.5,0.1,2.9-0.8,3.3-2.2l10.6-25.7c0.1-0.4,0.3-0.3,0.5,0L171,208c0.5,1.4,1.8,2.3,3.3,2.2h0.5V211.6z
	 M154.5,197.4h9.5v1.7h-9.7L154.5,197.4z"/>
<rect x="263" y="245.5" fill="#FBFBFB" width="33.8" height="33.3"/>
<path fill="#231815" d="M294.9,276.9h-10.5v-0.2h0.7c2,0,2.8-1.2,2-3l-4.3-11l-4.3-11.1l-9.2,22.1c-0.8,1.9,0.1,3,2,3h0.5v0.2h-7
	v-0.2h0.1c1.8,0.1,3.4-1,4-2.7l10.9-26.4c0.1-0.4,0.3-0.3,0.5,0L291,274c0.5,1.7,2.1,2.8,3.9,2.7l0,0V276.9z M273.5,263.4h10.3v0.2
	h-10.4L273.5,263.4z"/>
<rect x="263" y="343" fill="#FBFBFB" width="33.8" height="33.3"/>
<path fill="#231815" d="M294.9,374.5h-10.1v-0.2h0.6c1.3,0,2.3-0.6,2.3-1.5l-5-12.5l-4.3-11.1l-9.8,23.6c0,0.9,0.8,1.5,2.1,1.5h0.9
	v0.2h-6.8v-0.2h0.3c1.2,0.1,2.4-0.4,3.2-1.3l11.5-27.7c0.1-0.4,0.3-0.3,0.5,0l11.2,27.7c0.8,0.9,1.9,1.4,3.1,1.3h0.2L294.9,374.5z
	 M273.5,361h10.3v0.2h-10.4L273.5,361z"/>
<path fill="#231815" d="M294.7,374.2c-1.2,0.1-2.4-0.4-3.1-1.3l-11.2-27.7c-0.1-0.3-0.3-0.4-0.5,0l-11.4,27.7
	c-0.8,0.9-2,1.4-3.2,1.3H265v0.2h6.8v-0.2h-0.9c-1.3,0-2.1-0.6-2.1-1.5l4.8-11.5h9.7l4.6,11.5c0,0.9-1,1.5-2.3,1.5H285v0.2h10.1
	v-0.2H294.7z M273.6,361l4.9-11.9l4.3,11.1l0.3,0.8H273.6z"/>
<rect x="347.5" y="294.2" fill="#FBFBFB" width="33.7" height="33.3"/>
<path fill="#231815" d="M379.4,325.7h-9.8v-0.2l0.6-0.1c0.9,0,1.7-0.4,2.3-1l-5.1-12.9l-4.3-11.2l-9.9,24c0.5,0.6,1.3,1,2.1,1l1,0.1
	v0.2h-6.8v-0.2l0.5-0.1c1-0.1,2-0.4,2.9-1l11.6-28c0.1-0.4,0.3-0.3,0.5,0l11.3,28c0.8,0.6,1.8,0.9,2.8,1l0.5,0.1L379.4,325.7z
	 M357.9,312.2h10.3v0.2h-10.4L357.9,312.2z"/>
<path fill="#231815" d="M378.9,325.4c-1-0.1-2-0.4-2.8-1l-11.3-28c-0.1-0.3-0.3-0.4-0.5,0l-11.6,28c-0.8,0.6-1.8,0.9-2.9,1l-0.5,0.1
	v0.2h6.8v-0.2l-1-0.1c-0.8,0-1.6-0.4-2.1-1l5-11.9h9.7l4.7,11.9c-0.6,0.6-1.4,1-2.3,1l-0.6,0.1v0.2h9.8v-0.2L378.9,325.4z
	 M358.1,312.2l4.9-11.9l4.3,11.1l0.3,0.8H358.1z"/>
<rect x="347.5" y="200.6" fill="#FBFBFB" width="33.7" height="33.3"/>
<path fill="#231815" d="M379.3,232h-10.1v-0.2l0.7-0.2c1.1,0,2-0.9,2-2c0,0,0,0,0-0.1l-4.7-11.8l-4.3-11.1l-9.5,22.9
	c0,1.1,0.8,1.9,2.2,2.1l0.7,0.2v0.2h-7v-0.2l0.6-0.2c1.3-0.1,2.5-0.8,3.2-1.8l11.2-27c0.1-0.4,0.3-0.3,0.5,0l10.9,27
	c0.7,1,1.8,1.7,3.1,1.9l0.5,0.2L379.3,232z M357.9,218.5h10.3v0.2h-10.4L357.9,218.5z"/>
<path fill="#231815" d="M378.9,231.6c-1.3-0.1-2.4-0.8-3.1-1.9l-10.9-27c-0.1-0.3-0.3-0.4-0.5,0l-11.2,27c-0.8,1-2,1.7-3.2,1.8
	l-0.6,0.2v0.2h7v-0.2l-0.7-0.2c-1.4-0.2-2.2-1-2.2-2.1l4.5-10.8h9.7l4.3,10.8c0,1.1-0.8,2-1.9,2c0,0,0,0-0.1,0l-0.7,0.2v0.2h10.1
	v-0.2H378.9z M358.1,218.5l4.9-11.9l4.3,11.1l0.3,0.8L358.1,218.5z"/>
<rect x="143.8" y="369.6" fill="#FBFBFB" width="32.8" height="33.3"/>
<path fill="#231815" d="M174.8,401h-10.1v-1.4h3.5l-5.1-12.8l-3.7-9.5l-8.9,22.4h3.3v1.4h-8.1v-1.4h3l11.6-27.9
	c0.1-0.4,0.3-0.3,0.5,0l11.2,27.9h2.9L174.8,401z M154.5,386.8h9.5v1.7h-9.7L154.5,386.8z"/>
<rect x="144.9" y="273.9" fill="#FBFBFB" width="32.8" height="33.3"/>
<path fill="#231815" d="M175.9,305.4h-10.1V304h1.4c1,0,1.6-0.4,1.7-1l-4.7-11.9l-3.7-9.5L152,303c0.1,0.6,0.7,1,1.7,1h1.2v1.4h-8.2
	V304h0.5c1.1,0.1,2.1-0.3,2.9-1.1l11.1-26.8c0.1-0.4,0.3-0.3,0.5,0l10.8,26.7c0.7,0.8,1.8,1.2,2.8,1.1h0.5L175.9,305.4z
	 M155.6,291.2h9.5v1.7h-9.7L155.6,291.2z"/>
<path fill="#231815" d="M175.4,304c-1.1,0-2.1-0.4-2.8-1.1l-10.8-26.7c-0.1-0.3-0.3-0.4-0.5,0L150.2,303c-0.8,0.8-1.8,1.2-2.9,1.1
	h-0.5v1.4h8.2v-1.4h-1.3c-1,0-1.6-0.4-1.7-1l4-10.1h8.9l4,10.1c-0.1,0.6-0.7,1-1.7,1h-1.4v1.4h10.1V304H175.4z M156.8,291.2l3.8-9.6
	l3.7,9.5l0,0L156.8,291.2z"/>
<rect x="347.6" y="387.8" fill="#FBFBFB" width="33.8" height="33.3"/>
<path fill="#231815" d="M379.5,419.2h-9.6V419h3l-5.5-14l-4.3-11.1L352.7,419h3.3v0.2h-6.5V419h3l12-29.1c0.1-0.4,0.3-0.3,0.5,0
	l11.7,29.1h2.9v0.2H379.5z M358,405.7h10.3v0.3H358V405.7z"/>
<path fill="#231815" d="M379,419h-2.4L365,389.9c-0.1-0.3-0.3-0.4-0.5,0l-12,29.1h-3v0.2h6.5V419h-3.3l5.4-13h9.7l5.1,13h-3v0.2h9.6
	V419H379z M358.1,405.7l4.9-11.9l4.3,11.1l0.3,0.8H358.1z"/>
<rect x="432.1" y="339.8" fill="#FBFBFB" width="33.8" height="33.3"/>
<path fill="#231815" d="M464,371.2h-9.6V371h3l-5.5-14l-4.3-11.1L437.2,371h3.3v0.2H434V371h3l12-29.1c0.1-0.4,0.3-0.3,0.5,0
	l11.7,29.1h2.9v0.2H464z M442.5,357.7h10.3v0.2h-10.4L442.5,357.7z"/>
<rect x="263" y="438.7" fill="#FBFBFB" width="33.8" height="33.3"/>
<path fill="#231815" d="M294.9,470.1h-9.6v-0.2h3l-5.5-14l-4.3-11.1l-10.4,25.1h3.3v0.2h-6.5v-0.2h3l12-29.1c0.1-0.4,0.3-0.3,0.5,0
	l11.7,29.1h2.9v0.2H294.9z M273.5,456.6h10.3v0.2h-10.4L273.5,456.6z"/>
<rect x="24.7" y="304.3" fill="#FBFBFB" width="34.4" height="32.4"/>
<path fill="#231815" d="M57.2,334.9H47.1V332h3.2l-3.8-10.3L42,309.5L33.1,332h3.3v2.9h-9.9V332H30l10.7-25.8h3.2l9.8,25.7h3.5
	V334.9z M35.7,320.6h11l0.9,2.9h-12L35.7,320.6z"/>
<rect x="25" y="110.7" fill="#FBFBFB" width="34.2" height="32.4"/>
<path fill="#231815" d="M57.3,141.2h-10v-2.4h1.2c1.2,0,1.8-0.7,1.3-1.9l-3.2-8.8L42,115.8l-8.3,21.1c-0.4,1.1,0,1.9,1.3,1.9h1.3
	v2.4h-9.5v-2.4h1.4c1.2,0.1,2.3-0.7,2.7-1.8L41,112.6h2.7l9.3,24.3c0.4,1.2,1.5,2,2.7,1.9h1.5L57.3,141.2z M35.7,127h11l0.9,2.4h-12
	L35.7,127z"/>
<rect x="194" y="17" fill="#FBFBFB" width="34" height="32.4"/>
<path fill="#231815" d="M226.1,47.5H216v-1.9l0.9-0.4c0.8-0.3,1.5-0.7,2.3-1l-3.6-9.8L211,22.2l-8.6,22l2.4,1l1,0.4v1.9h-9.9v-1.9
	l1.1-0.4l2.3-1l10.5-25.3h3.2l9.6,25.2l2.6,1l0.9,0.4V47.5z M204.8,33.3h11l0.9,2.6h-12L204.8,33.3z"/>
<path fill="#E8AD36" d="M222.4,234.7l-9.8-25.7h-3.2l-10.7,25.8h-3.4v2.9h9.9v-2.9h-3.3l3.3-8.5h10.7l3.2,8.5h-3.2v2.9H226v-3H222.4
	L222.4,234.7z M210.7,212.2l4.1,11.2h-8.5L210.7,212.2z"/>
<path fill="#E8AD36" d="M342,303.6l-11.2-27.9c-0.1-0.3-0.3-0.4-0.5,0l-11.5,27.9h-3v1.4h8.2v-1.4h-3.3l4.4-11.1h8.9l4.4,11.1h-3.5
	v1.4H345v-1.4H342z M325.7,290.8l3.8-9.6l3.7,9.5l0,0L325.7,290.8z"/>
<path fill="#E8AD36" d="M323.3,113.1l-0.9-0.6c-0.6-0.5-1.3-0.9-1.9-1.4l3.8-9.6h8.9l3.8,9.6l-2,1.3l-1,0.6v1h10.3v-1l-0.5-0.3
	c-1.1-0.7-2.2-1.3-3.3-2l-10.5-26c-0.1-0.3-0.3-0.4-0.5,0l-10.8,26.2l-2.7,1.6l-1.1,0.7v0.9h8.5L323.3,113.1z M332.5,99.8
	L332.5,99.8H325l3.8-9.6L332.5,99.8z"/>
<path fill="#E8AD36" d="M440.2,182.3l-0.8-0.3l-2.4-1.1l4.8-11.6h9.7l4.6,11.6c-0.7,0.3-1.3,0.7-2,1l-0.7,0.4v0.2h9.6v-0.2l-0.9-0.4
	l-2.3-1l-11.1-27.6c-0.1-0.3-0.3-0.4-0.5,0l-11.5,27.6l-2.5,1l-1,0.4v0.2h7L440.2,182.3z M451.1,168.3l0.3,0.8h-9.5l4.9-11.9
	L451.1,168.3z"/>
<path fill="#E8AD36" d="M171,208l-10.3-25.6c-0.1-0.3-0.3-0.4-0.5,0L149.6,208c-0.5,1.4-1.9,2.3-3.3,2.2h-0.5v1.4h8.2v-1.4h-1.3
	c-1.2,0-1.8-0.8-1.3-2l3.6-9.1h8.9l3.6,9.2c0.4,1.1,0,1.9-1.3,1.9h-1.4v1.4h10.1v-1.4h-0.5C172.8,210.2,171.5,209.4,171,208z
	 M155.6,197.4l3.8-9.6l3.7,9.5l0,0L155.6,197.4z"/>
<path fill="#E8AD36" d="M271.9,276.7h-0.5c-2,0-2.8-1.2-2-3l4.1-10h9.7l4,10c0.7,1.9-0.1,3-2,3h-0.7v0.2H295v-0.2l0,0
	c-1.8,0.1-3.4-1-4-2.7l-10.6-26.4c-0.1-0.3-0.3-0.4-0.5,0L269,274c-0.6,1.7-2.2,2.8-4,2.7h-0.1v0.2h7V276.7z M282.8,262.7l0.3,0.8
	h-9.5l4.9-11.9L282.8,262.7z"/>
<path fill="#E8AD36" d="M171.9,399.6l-11.2-27.9c-0.1-0.3-0.3-0.4-0.5,0l-11.6,27.9h-3v1.4h8.2v-1.4h-3.3l4.5-11h8.9l4.4,11.1h-3.5
	v1.4h10.1v-1.4L171.9,399.6L171.9,399.6z M155.6,386.8l3.8-9.6l3.7,9.5l0,0L155.6,386.8z"/>
<path fill="#E8AD36" d="M463.5,371h-2.4l-11.7-29.1c-0.1-0.3-0.3-0.4-0.5,0L437,371h-3v0.2h6.5V371h-3.3l5.4-13h9.7l5.1,13h-3v0.2
	h9.6V371H463.5z M442.7,357.7l4.9-11.9l4.3,11.1l0.3,0.8H442.7z"/>
<path fill="#E8AD36" d="M292.1,469.9l-11.7-29.1c-0.1-0.3-0.3-0.4-0.5,0l-12,29.1h-3v0.2h6.5v-0.2h-3.3l5.4-13h9.7l5.1,13h-3v0.2
	h9.6v-0.2H292.1L292.1,469.9z M273.6,456.6l4.9-11.9l4.3,11.1l0.3,0.8H273.6z"/>
<path fill="#E8AD36" d="M53.7,331.9l-9.8-25.7h-3.2L30,332h-3.4v2.9h9.9V332h-3.3l3.3-8.5h10.7l3.2,8.5h-3.2v2.9h10.1v-3H53.7
	L53.7,331.9z M42,309.5l4.1,11.2h-8.5L42,309.5z"/>
<path fill="#E8AD36" d="M53.1,136.9l-9.3-24.3h-2.7L31,137c-0.4,1.2-1.5,1.9-2.8,1.9h-1.4v2.4h9.4v-2.4H35c-1.2,0-1.7-0.8-1.3-1.9
	l3-7.5H47l2.8,7.5c0.4,1.2-0.1,1.9-1.3,1.9h-1.2v2.4h10.1v-2.5h-1.5C54.6,138.9,53.5,138.1,53.1,136.9z M42,115.8l4.1,11.2h-8.5
	L42,115.8z"/>
<path fill="#E8AD36" d="M222.6,44.1L213,18.9h-3.2l-10.5,25.3l-2.3,1l-1.1,0.4v1.9h9.9v-1.9l-1-0.4l-2.4-1l3.2-8.3h10.5l3.1,8.3
	c-0.8,0.3-1.5,0.7-2.3,1l-0.9,0.4v2h10.1v-2l-0.9-0.4L222.6,44.1z M211.1,22.1l4.1,11.2h-8.5L211.1,22.1z"/>
<rect x="24.8" y="207.1" fill="#FBFBFB" width="34.3" height="32.4"/>
<path fill="#231815" d="M57.3,237.6H47.2V235H48c1,0,1.9-0.4,2-1l-3.5-9.5L42,212.2L33.5,234c0.1,0.6,0.8,1,1.7,1h1.2v2.6h-9.7V235
	h1c1,0,2-0.3,2.8-1l10.4-25h3l9.5,25c0.8,0.7,1.8,1,2.9,1h1L57.3,237.6z M35.7,223.4h11l0.9,2.6h-12L35.7,223.4z"/>
<path fill="#231815" d="M56.3,234.9c-1,0-2.1-0.3-2.9-1l-9.5-25h-3L30.5,234c-0.8,0.7-1.8,1-2.8,1h-1v2.6h9.7V235h-1.2
	c-1,0-1.6-0.4-1.7-1l3.1-8h10.5l3,8c-0.1,0.6-1,1-2,1h-0.8v2.6h10v-2.7L56.3,234.9z M42,212.2l4.1,11.2h-8.5L42,212.2z"/>
<g enable-background="new    ">
	<path fill="#231815" d="M41.224,363.729l-2.445-1.418l4.526-2.602c0.77-0.442,2.065-1.152,2.578-1.412l-0.03-0.018
		c-0.464-0.027-1.45-0.118-2.371-0.23l-0.892-0.11l0.284-1.462l5.265,0.749l2.189,1.27L41.224,363.729z"/>
	<path fill="#231815" d="M56.953,367.505c-3.157,1.813-6.014,2.07-8.757,0.479c-2.744-1.591-2.387-3.251,0.587-4.96
		c3.392-1.949,6.138-2.073,8.958-0.438C60.32,364.08,60.083,365.705,56.953,367.505z M51.431,364.272
		c-2.243,1.289-2.797,2.248-1.763,2.848c0.99,0.574,2.668,0.268,4.782-0.947c2.204-1.267,2.735-2.193,1.7-2.794
		C55.129,362.787,53.531,363.065,51.431,364.272z"/>
	<path fill="#231815" d="M66.014,372.759c-3.157,1.813-6.013,2.07-8.758,0.479c-2.743-1.591-2.386-3.251,0.588-4.96
		c3.392-1.949,6.138-2.074,8.957-0.439C69.38,369.335,69.144,370.96,66.014,372.759z M60.49,369.526
		c-2.243,1.29-2.796,2.249-1.762,2.85c0.989,0.573,2.668,0.267,4.782-0.948c2.204-1.267,2.734-2.194,1.7-2.794
		C64.19,368.042,62.591,368.319,60.49,369.526z"/>
	<path fill="#231815" d="M75.073,378.013c-3.157,1.813-6.014,2.071-8.757,0.479c-2.744-1.592-2.387-3.252,0.587-4.961
		c3.392-1.949,6.138-2.073,8.958-0.438C78.44,374.589,78.204,376.214,75.073,378.013z M69.551,374.781
		c-2.243,1.29-2.797,2.249-1.763,2.849c0.99,0.574,2.668,0.268,4.782-0.947c2.204-1.268,2.735-2.194,1.7-2.795
		C73.25,373.296,71.651,373.574,69.551,374.781z"/>
	<path fill="#231815" d="M109.709,394.879l-2.795-1.667l-7.461,4.289l-2.504-1.453l7.461-4.287l-2.813-1.587l1.683-0.967
		l8.112,4.705L109.709,394.879z"/>
	<path fill="#231815" d="M111.423,397.966c1.339-0.111,2.744,0.086,3.853,0.729c1.979,1.148,1.828,2.326-0.011,3.383l-3.979,2.287
		l-2.339-1.357l3.222-1.852c1.266-0.727,1.838-1.298,0.698-1.959c-1.351-0.783-2.798-0.418-4.051,0.302l-2.974,1.709l-2.339-1.356
		l9.861-5.668l2.324,1.349l-2.7,1.552c-0.47,0.27-1.084,0.605-1.597,0.865L111.423,397.966z"/>
	<path fill="#231815" d="M115.61,406.871l-2.37-1.374l6.744-3.876l2.37,1.374L115.61,406.871z M123.489,402.342l-2.37-1.374
		l1.708-0.981l2.37,1.373L123.489,402.342z"/>
	<path fill="#231815" d="M128.117,408.22c-0.276-0.326-0.618-0.614-1.099-0.893c-1.334-0.774-2.912-0.786-4.085-0.11
		c-1.187,0.682-1.181,1.544,0.243,2.37c0.465,0.27,0.937,0.482,1.599,0.656l-1.462,0.944c-0.784-0.259-1.345-0.509-2.02-0.9
		c-2.594-1.504-2.942-3.242-0.79-4.479c2.126-1.222,5.286-0.926,7.67,0.457c0.72,0.417,1.237,0.777,1.62,1.181L128.117,408.22z"/>
	<path fill="#231815" d="M130.031,413.322c0.107-0.495,0.298-1.228,0.438-1.688l-0.03-0.018l-3.339,1.918l-2.385-1.383l9.861-5.667
		l2.385,1.383l-5.909,3.396l0.03,0.018c0.691-0.051,1.914-0.095,2.749-0.107l2.562-0.035l2.685,1.557l-6.04-0.009l-0.434,4.041
		l-2.924-1.696L130.031,413.322z"/>
	<path fill="#231815" d="M141.41,415.373c1.353-0.119,2.862,0.14,3.972,0.782c1.979,1.148,1.799,2.309-0.027,3.357l-3.991,2.295
		l-2.34-1.357l3.222-1.852c1.278-0.734,1.868-1.281,0.729-1.942c-0.69-0.4-1.497-0.507-2.252-0.402
		c-0.616,0.095-1.241,0.35-1.828,0.688l-2.974,1.709l-2.34-1.356l4.604-2.646c0.613-0.353,1.315-0.773,2.065-1.273l2.219,1.287
		c-0.257,0.182-0.735,0.492-1.087,0.694L141.41,415.373z"/>
	<path fill="#231815" d="M147.98,422.406c-0.827,0.544-0.571,1.401,0.839,2.22c0.824,0.478,1.774,0.832,2.846,1.047l-1.494,0.911
		c-0.947-0.218-2.062-0.668-3.096-1.268c-2.639-1.53-3.104-3.307-0.848-4.604c2.074-1.192,5.157-1.077,7.601,0.341
		c2.294,1.33,2.409,2.753-0.043,4.162c-0.104,0.061-0.406,0.217-0.512,0.26L147.98,422.406z M152.452,423.524
		c1.004-0.578,0.862-1.172-0.067-1.711c-0.854-0.496-2.069-0.628-3.142-0.15L152.452,423.524z"/>
	<path fill="#231815" d="M162.138,427.951c-0.433-0.582-0.933-1.022-1.592-1.405c-0.676-0.391-1.36-0.518-1.765-0.285
		c-0.378,0.218-0.266,0.448,0.63,1.284c1.006,0.945,1.608,1.776,0.291,2.534c-1.422,0.816-3.554,0.484-5.594-0.699
		c-0.809-0.469-1.648-1.077-2.241-1.707l1.659-0.814c0.5,0.682,1.196,1.252,1.901,1.66c0.629,0.365,1.391,0.551,1.809,0.311
		c0.391-0.225,0.308-0.454-0.626-1.372c-1.182-1.138-1.319-1.804-0.223-2.435c1.317-0.757,3.397-0.514,5.406,0.65
		c0.915,0.531,1.575,1.035,1.985,1.543L162.138,427.951z"/>
	<path fill="#231815" d="M169.232,432.066c-0.433-0.582-0.932-1.022-1.592-1.405c-0.675-0.391-1.358-0.517-1.763-0.284
		c-0.378,0.218-0.268,0.447,0.628,1.283c1.006,0.945,1.608,1.776,0.291,2.534c-1.422,0.816-3.554,0.484-5.593-0.699
		c-0.81-0.469-1.65-1.078-2.243-1.707l1.659-0.815c0.501,0.683,1.197,1.251,1.902,1.661c0.63,0.364,1.391,0.551,1.809,0.311
		c0.391-0.225,0.309-0.454-0.625-1.372c-1.183-1.138-1.32-1.804-0.224-2.435c1.317-0.757,3.397-0.515,5.407,0.65
		c0.914,0.531,1.574,1.035,1.984,1.543L169.232,432.066z"/>
	<path fill="#231815" d="M231.899,468.968c-3.157,1.814-6.014,2.07-8.757,0.479c-2.744-1.592-2.387-3.252,0.587-4.961
		c3.392-1.949,6.138-2.073,8.958-0.438C235.267,465.544,235.03,467.169,231.899,468.968z M226.377,465.735
		c-2.243,1.29-2.797,2.249-1.763,2.85c0.99,0.574,2.668,0.267,4.782-0.948c2.204-1.267,2.735-2.194,1.7-2.794
		C230.076,464.251,228.478,464.528,226.377,465.735z"/>
</g>
<g enable-background="new    ">
	<path fill="#231815" d="M328.742,470.133l-2.443,1.418l-4.526-2.602c-0.771-0.442-2.006-1.188-2.458-1.481l-0.03,0.017
		c-0.047,0.268-0.198,0.839-0.388,1.37l-0.188,0.516l-2.532-0.157l1.272-3.044l2.188-1.27L328.742,470.133z"/>
	<path fill="#231815" d="M335.211,461.034c3.156,1.814,3.614,3.462,0.87,5.054c-2.744,1.591-5.622,1.392-8.596-0.317
		c-3.392-1.949-3.619-3.534-0.8-5.169C329.265,459.105,332.08,459.234,335.211,461.034z M329.637,464.237
		c2.244,1.289,3.907,1.604,4.942,1.004c0.989-0.574,0.45-1.541-1.663-2.756c-2.205-1.267-3.813-1.568-4.849-0.969
		C327.048,462.108,327.537,463.03,329.637,464.237z"/>
	<path fill="#231815" d="M344.271,455.779c3.156,1.814,3.614,3.462,0.87,5.054s-5.622,1.393-8.596-0.316
		c-3.392-1.95-3.619-3.535-0.8-5.17C338.324,453.85,341.141,453.979,344.271,455.779z M338.697,458.982
		c2.244,1.289,3.907,1.604,4.941,1.004c0.99-0.573,0.451-1.541-1.662-2.756c-2.205-1.267-3.814-1.568-4.849-0.969
		C336.108,456.853,336.598,457.775,338.697,458.982z"/>
	<path fill="#231815" d="M353.332,450.524c3.156,1.814,3.613,3.463,0.869,5.054c-2.744,1.592-5.621,1.393-8.595-0.316
		c-3.392-1.95-3.62-3.534-0.801-5.17C347.385,448.596,350.201,448.725,353.332,450.524z M347.758,453.727
		c2.244,1.29,3.906,1.604,4.941,1.005c0.99-0.574,0.451-1.542-1.662-2.757c-2.205-1.267-3.814-1.568-4.849-0.969
		C345.168,451.598,345.658,452.52,347.758,453.727z"/>
</g>
<g enable-background="new    ">
	<path fill="#231815" d="M364.956,440.905c-1.044,0.271-1.775,0.57-2.361,0.908c-0.9,0.517-1.188,1.057-0.601,1.394
		c0.509,0.292,1.083,0.277,2.856-0.188c2.257-0.606,3.836-0.63,5.219,0.165c1.799,1.034,1.512,2.459-0.705,3.733
		c-0.926,0.532-1.904,0.944-2.975,1.26l-1.617-1.14c1.2-0.255,2.178-0.637,2.818-1.005c0.912-0.524,1.187-1.087,0.521-1.47
		c-0.588-0.336-1.317-0.291-3.104,0.181c-2.087,0.555-3.665,0.606-4.997-0.157c-1.747-1.005-1.251-2.414,0.758-3.568
		c0.861-0.495,1.682-0.878,2.646-1.163L364.956,440.905z"/>
</g>
<g enable-background="new    ">
	<path fill="#231815" d="M366.568,440.579l1.356-0.78l-1.474-0.847l1.277-1.484l2.127,1.222l1.617-0.93l1.447,0.833l-1.617,0.93
		l2.635,1.514c0.705,0.405,1.396,0.638,2.23,0.158c0.234-0.135,0.457-0.293,0.6-0.451l1.488,0.796
		c-0.287,0.284-0.73,0.6-1.162,0.847c-1.669,0.96-3.156,0.944-4.891-0.053l-2.896-1.664l-1.291,0.742L366.568,440.579z"/>
</g>
<g enable-background="new    ">
	<path fill="#231815" d="M375.809,436.856c-0.637-0.756-0.6-1.438,0.418-2.023c0.236-0.135,0.496-0.255,0.744-0.322l1.684,1.027
		c-0.301,0.082-0.549,0.194-0.797,0.336c-1.188,0.683-0.861,1.471,0.912,2.49l2.57,1.477l-2.074,1.191l-4.734-2.721
		c-0.717-0.412-1.461-0.825-2.074-1.117l1.879-1.08c0.299,0.143,1.068,0.54,1.447,0.758L375.809,436.856z"/>
</g>
<g enable-background="new    ">
	<path fill="#231815" d="M387.564,434.973c0.314,0.69,0.039,1.417-1.057,2.047c-1.344,0.772-3.156,0.869-4.447,0.127
		c-1.475-0.847-0.953-2.016,1.291-3.306c0.273-0.157,0.652-0.36,1.004-0.532c-0.939-0.539-1.852-0.465-2.844,0.105
		c-0.717,0.412-1.291,1.012-1.564,1.559l-1.553-0.817c0.367-0.6,1.227-1.274,2.035-1.739c2.18-1.252,4.135-1.191,5.91-0.172
		c0.43,0.247,1.121,0.675,1.668,0.989c1.215,0.697,2.023,1.117,2.506,1.335l-1.787,1.027c-0.131-0.045-0.379-0.173-0.574-0.286
		c-0.145-0.082-0.34-0.21-0.561-0.352L387.564,434.973z M384.93,434.224c-1.291,0.742-1.721,1.319-1.004,1.731
		c0.574,0.33,1.238,0.262,1.852-0.09c0.887-0.51,0.939-1.229-0.285-1.934C385.32,434.014,385.125,434.112,384.93,434.224z"/>
	<path fill="#231815" d="M386.264,427.955l-2.061,1.185l-1.709-0.982l2.061-1.185L386.264,427.955z M394.143,432.482l-2.061,1.185
		l-6.744-3.876l2.061-1.185L394.143,432.482z"/>
	<path fill="#231815" d="M395.07,425.397c-0.443-0.225-0.73-0.39-1.07-0.585l1.904-1.095l6.145,3.531
		c2.27,1.305,2.139,2.789-0.314,4.199c-0.912,0.524-1.982,0.988-3.168,1.311l-1.527-1.041c1.266-0.232,2.27-0.585,3.027-1.02
		c1.174-0.675,1.486-1.455,0.025-2.295c-0.184-0.105-0.404-0.232-0.625-0.39l-0.027,0.015c0.275,0.683,0.027,1.38-0.99,1.965
		c-1.787,1.027-4.318,0.922-6.354-0.247c-2.074-1.192-2.27-2.729-0.469-3.764c1.057-0.607,2.164-0.75,3.416-0.57L395.07,425.397z
		 M394.131,428.516c1.082,0.622,2.479,0.734,3.365,0.225c0.9-0.518,0.744-1.357-0.326-1.973c-1.096-0.629-2.543-0.727-3.482-0.187
		C392.826,427.077,393.035,427.886,394.131,428.516z"/>
	<path fill="#231815" d="M400.773,422.223c-0.273-0.727-0.051-1.469,0.914-2.023c1.723-0.99,3.639-0.832,5.479,0.225l3.979,2.287
		l-2.035,1.169l-3.223-1.852c-1.266-0.728-2.23-1.072-3.221-0.503c-1.174,0.675-0.484,1.478,0.768,2.197l2.975,1.709l-2.035,1.17
		l-9.861-5.668l2.023-1.162l2.699,1.552c0.471,0.271,1.057,0.622,1.514,0.915L400.773,422.223z"/>
	<path fill="#231815" d="M405.344,418.294l1.355-0.78l-1.473-0.847l1.277-1.484l2.127,1.222l1.617-0.93l1.447,0.833l-1.617,0.93
		l2.635,1.514c0.705,0.404,1.396,0.637,2.23,0.157c0.234-0.135,0.457-0.292,0.6-0.45l1.488,0.795c-0.287,0.285-0.73,0.6-1.162,0.848
		c-1.67,0.959-3.156,0.944-4.891-0.053l-2.896-1.664l-1.291,0.742L405.344,418.294z"/>
	<path fill="#231815" d="M417.059,416.089c0.939,0.479,2.309,0.396,3.535-0.308c0.717-0.412,1.227-0.9,1.5-1.462l1.578,0.861
		c-0.287,0.495-0.939,1.065-1.84,1.582c-2.295,1.32-5.139,1.455-7.395,0.158c-2.074-1.192-2.1-2.842,0.025-4.063
		c1.996-1.147,4.291-1.117,6.744,0.293c0.104,0.06,0.379,0.231,0.457,0.292L417.059,416.089z M418.559,413.757
		c-1.004-0.577-1.957-0.539-2.766-0.074c-0.742,0.427-0.873,1.071-0.025,1.679L418.559,413.757z"/>
	<path fill="#231815" d="M422.332,410.119c-0.639-0.757-0.6-1.439,0.418-2.024c0.234-0.135,0.496-0.255,0.742-0.322l1.684,1.027
		c-0.301,0.082-0.549,0.194-0.797,0.337c-1.188,0.683-0.859,1.47,0.914,2.489l2.568,1.477l-2.072,1.192l-4.734-2.722
		c-0.719-0.412-1.463-0.824-2.076-1.117l1.879-1.079c0.301,0.142,1.07,0.539,1.447,0.757L422.332,410.119z"/>
</g>
<g enable-background="new    ">
	<path fill="#231815" d="M459.971,388.967c3.156,1.814,3.614,3.463,0.87,5.054c-2.744,1.592-5.622,1.393-8.595-0.316
		c-3.393-1.95-3.619-3.534-0.8-5.17C454.025,387.04,456.84,387.169,459.971,388.967z M454.396,392.171
		c2.244,1.289,3.907,1.604,4.942,1.004c0.989-0.573,0.451-1.541-1.662-2.756c-2.205-1.267-3.814-1.568-4.849-0.969
		C451.808,390.042,452.297,390.964,454.396,392.171z"/>
</g>
<polygon fill="#231815" points="174.1,443.1 170,445.5 77,391.8 77,391.8 74.9,390.6 79,388.2 66.3,386.3 69.7,393.6 73.8,391.3 
	166.8,445 166.8,445 168.9,446.1 164.8,448.5 177.5,450.5 "/>
<polygon fill="#231815" points="353.1,459.7 357.2,462.1 450.2,408.4 450.2,408.4 452.2,407.2 448.2,404.8 460.9,402.9 457.5,410.2 
	453.4,407.9 360.4,461.5 360.4,461.5 358.3,462.8 362.4,465.1 349.7,467.1 "/>
<polygon fill="#231815" points="491.7,330 495.8,332.4 495.8,225 495.8,225 495.8,222.6 491.7,220.2 496.4,213.6 501,225.6 
	496.9,223.2 496.9,330.6 496.9,330.6 496.9,333 501,335.4 496.4,342 "/>
<g enable-background="new    ">
	<path fill="#231815" d="M482.39,355.609c3.156,1.813,4.813,3.967,4.813,6.712c0,2.744-1.618,3.074-4.592,1.365
		c-3.392-1.949-4.879-4.063-4.879-6.884C477.732,354.223,479.259,353.809,482.39,355.609z M482.363,361.143
		c2.244,1.29,3.352,1.372,3.352,0.338c0-0.99-1.107-2.197-3.221-3.412c-2.205-1.268-3.274-1.342-3.274-0.307
		C479.22,358.782,480.264,359.937,482.363,361.143z"/>
	<path fill="#231815" d="M487.02,290.321v2.49l-3.86-2.219v3.944l3.86,2.22v2.489l-9.104-5.233v-2.49l3.548,2.04v-3.944l-3.548-2.04
		v-2.49L487.02,290.321z"/>
	<path fill="#231815" d="M484.216,284.749c0.887,0.449,1.499-0.068,1.499-1.479c0-0.824-0.169-1.702-0.521-2.624l1.539,0.84
		c0.287,0.825,0.457,1.866,0.457,2.901c0,2.641-1.304,3.66-3.561,2.363c-2.074-1.191-3.521-3.658-3.521-6.104
		c0-2.295,1.173-2.91,3.626-1.5c0.104,0.059,0.392,0.239,0.482,0.307V284.749z M482.938,280.819
		c-1.004-0.577-1.447-0.247-1.447,0.683c0,0.855,0.494,1.86,1.447,2.527V280.819z"/>
	<path fill="#231815" d="M479.142,272.577v2.37l-1.71-0.982v-2.37L479.142,272.577z M487.02,277.105v2.37l-6.743-3.876v-2.37
		L487.02,277.105z"/>
	<path fill="#231815" d="M481.319,266.209c-0.417-0.21-0.704-0.374-1.043-0.569v-2.189l6.144,3.53
		c2.27,1.305,3.496,3.569,3.496,6.39c0,1.05-0.131,2.055-0.443,2.88l-1.67-1.125c0.431-0.712,0.627-1.53,0.627-2.399
		c0-1.351-0.522-2.61-1.983-3.45c-0.183-0.104-0.404-0.232-0.652-0.405v0.03c0.731,0.945,1.214,2.063,1.214,3.233
		c0,2.055-1.357,2.624-3.393,1.455c-2.074-1.192-3.508-3.441-3.508-5.512c0-1.215,0.43-1.748,1.212-1.838V266.209z M483.562,271.158
		c1.084,0.622,1.879,0.39,1.879-0.63c0-1.035-0.809-2.25-1.879-2.865c-1.095-0.629-1.903-0.359-1.903,0.721
		C481.659,269.374,482.468,270.528,483.562,271.158z"/>
	<path fill="#231815" d="M481.41,259.811c-0.77-1.013-1.303-2.189-1.303-3.3c0-1.979,1.096-2.295,2.934-1.238l3.979,2.287v2.34
		l-3.221-1.852c-1.266-0.728-2.049-0.967-2.049,0.173c0,1.35,1.043,2.354,2.296,3.074l2.974,1.709v2.341l-9.861-5.668v-2.325
		l2.701,1.552c0.469,0.271,1.068,0.63,1.551,0.937V259.811z"/>
	<path fill="#231815" d="M480.276,252.604v-1.561l-1.474-0.847l-0.652-2.595l2.126,1.222v-1.86l1.448,0.832v1.86l2.635,1.515
		c0.704,0.404,1.252,0.555,1.252-0.405c0-0.271-0.026-0.57-0.092-0.848l1.436,0.765c0.104,0.51,0.156,1.109,0.156,1.605
		c0,1.92-0.757,2.324-2.492,1.327l-2.895-1.664v1.485L480.276,252.604z"/>
	<path fill="#231815" d="M487.02,213.37v2.445l-4.525-2.602c-0.77-0.442-2.035-1.199-2.518-1.507v0.03
		c0.209,0.375,0.626,1.184,0.992,1.95l0.351,0.742l-1.407,0.315l-1.997-4.417v-2.19L487.02,213.37z"/>
	<path fill="#231815" d="M482.39,199.609c3.156,1.814,4.813,3.966,4.813,6.711s-1.618,3.075-4.592,1.366
		c-3.392-1.949-4.879-4.063-4.879-6.883C477.732,198.222,479.259,197.809,482.39,199.609z M482.363,205.143
		c2.244,1.29,3.352,1.372,3.352,0.337c0-0.99-1.107-2.197-3.221-3.412c-2.205-1.267-3.274-1.342-3.274-0.307
		C479.22,202.782,480.264,203.937,482.363,205.143z"/>
	<path fill="#231815" d="M482.39,190.549c3.156,1.814,4.813,3.967,4.813,6.711c0,2.745-1.618,3.075-4.592,1.366
		c-3.392-1.949-4.879-4.063-4.879-6.884C477.732,189.162,479.259,188.749,482.39,190.549z M482.363,196.083
		c2.244,1.29,3.352,1.372,3.352,0.337c0-0.99-1.107-2.197-3.221-3.412c-2.205-1.267-3.274-1.342-3.274-0.307
		C479.22,193.721,480.264,194.877,482.363,196.083z"/>
	<path fill="#231815" d="M482.39,181.488c3.156,1.814,4.813,3.966,4.813,6.711s-1.618,3.075-4.592,1.366
		c-3.392-1.949-4.879-4.063-4.879-6.883C477.732,180.102,479.259,179.689,482.39,181.488z M482.363,187.023
		c2.244,1.29,3.352,1.372,3.352,0.337c0-0.99-1.107-2.197-3.221-3.412c-2.205-1.267-3.274-1.342-3.274-0.307
		C479.22,184.662,480.264,185.817,482.363,187.023z"/>
</g>
</svg>
