<?xml version="1.0" encoding="utf-8"?>
<!-- Generator: Adobe Illustrator 22.0.1, SVG Export Plug-In . SVG Version: 6.00 Build 0)  -->
<svg version="1.1" id="レイヤー_1" xmlns="http://www.w3.org/2000/svg" xmlns:xlink="http://www.w3.org/1999/xlink" x="0px"
	 y="0px" viewBox="0 0 935.433 496.063" enable-background="new 0 0 935.433 496.063" xml:space="preserve">
<g>
	<g>
		<path fill="#231815" d="M861.677,70.426h-15.168v-3.955h1.221c0.814,0,1.498-0.131,2.049-0.395
			c0.551-0.262,0.899-0.611,1.042-1.041l-5.319-14.377l-6.829-18.474l-12.867,32.851c0.096,0.431,0.371,0.779,0.827,1.041
			c0.454,0.264,1.041,0.395,1.761,0.395h1.868v3.955h-14.592v-3.955h1.438c0.814,0,1.605-0.119,2.372-0.358
			c0.766-0.241,1.39-0.599,1.87-1.079l15.742-37.739c0.766,0,1.498,0,2.193,0c0.694,0,1.448,0,2.264,0l14.377,37.666
			c0.528,0.48,1.162,0.826,1.905,1.041c0.743,0.218,1.546,0.325,2.409,0.325h1.438V70.426z M829.185,49.004h16.604l1.367,3.955
			h-18.115L829.185,49.004z"/>
	</g>
	<g>
		<path fill="#231815" d="M521.695,70.426h-15.168v-0.36h0.934c1.006,0,1.82-0.204,2.445-0.611c0.622-0.407,0.957-0.971,1.006-1.689
			l-7.476-18.834l-6.47-16.747l-14.737,35.654c-0.047,0.672,0.218,1.21,0.791,1.617c0.576,0.407,1.341,0.611,2.3,0.611h1.294v0.36
			H476.48v-0.36h0.503c1.006,0,1.905-0.154,2.696-0.468c0.791-0.309,1.474-0.826,2.047-1.544l17.325-41.763
			c0.096-0.288,0.215-0.419,0.36-0.395c0.143,0.023,0.262,0.154,0.358,0.395l16.822,41.836c0.573,0.672,1.233,1.163,1.975,1.472
			c0.744,0.314,1.643,0.468,2.696,0.468h0.433V70.426z M489.347,50.082h15.455v0.36h-15.6L489.347,50.082z"/>
	</g>
	<g>
		<path fill="#231815" d="M521.549,408.276h-14.447v-0.359l0.934-0.216c0.477-0.143,1.018-0.287,1.617-0.431
			c0.599-0.144,1.161-0.288,1.689-0.432l-7.907-20.056l-6.47-16.748l-15.168,36.876c0.526,0.096,1.079,0.215,1.654,0.359
			c0.573,0.144,1.126,0.288,1.652,0.431l1.509,0.216v0.359H476.48v-0.359l1.149-0.288c0.622-0.096,1.247-0.215,1.87-0.359
			c0.622-0.144,1.245-0.288,1.87-0.432l17.683-42.698c0.096-0.288,0.215-0.419,0.36-0.395c0.143,0.025,0.262,0.156,0.358,0.395
			l17.18,42.771c0.576,0.096,1.163,0.215,1.762,0.359c0.599,0.144,1.186,0.263,1.76,0.359l1.079,0.288V408.276z M489.347,387.933
			h15.455v0.36h-15.6L489.347,387.933z"/>
	</g>
	<g>
		<path fill="#231815" d="M862,408.276h-15.168v-3.594l1.079-0.288c0.622-0.144,1.258-0.288,1.905-0.431
			c0.647-0.144,1.258-0.263,1.833-0.36l-5.607-15.095l-6.829-18.474l-13.155,33.569c0.576,0.097,1.138,0.216,1.689,0.36
			c0.55,0.143,1.114,0.263,1.689,0.359l1.582,0.359v3.594h-14.881v-3.594l1.151-0.288c0.67-0.144,1.352-0.288,2.049-0.431
			c0.694-0.144,1.329-0.288,1.905-0.432l16.03-38.386c0.862,0,1.665,0,2.408,0s1.546,0,2.408,0l14.664,38.314
			c0.67,0.143,1.365,0.276,2.085,0.394c0.718,0.121,1.438,0.252,2.156,0.395l1.006,0.288V408.276z M829.725,386.855h16.604
			l1.367,4.097h-18.115L829.725,386.855z"/>
	</g>
	<g>
		<path fill="#E7AC35" d="M804.96,408.276h-15.239v-3.019l1.221-0.36c0.622-0.095,1.234-0.215,1.833-0.359
			c0.599-0.144,1.21-0.288,1.833-0.432l-6.182-16.174l-6.397-17.107l-13.155,33.281c0.528,0.097,1.054,0.216,1.582,0.36
			c0.526,0.144,1.102,0.287,1.726,0.431l1.653,0.288v3.091h-14.233v-3.091l1.294-0.215c0.67-0.144,1.329-0.3,1.976-0.468
			c0.647-0.167,1.281-0.346,1.905-0.538l16.246-39.105c0.622-0.095,1.21-0.144,1.761-0.144c0.55,0,1.137,0.049,1.761,0.144
			l15.311,39.033c0.622,0.144,1.306,0.312,2.049,0.503c0.743,0.192,1.425,0.385,2.049,0.576l1.006,0.215V408.276z M773.188,386.855
			h15.886l0.935,3.594h-17.037L773.188,386.855z"/>
	</g>
	<g>
		<path fill="#E7AC35" d="M747.92,408.276h-15.239v-2.444l1.582-0.359c0.574-0.191,1.15-0.347,1.725-0.468
			c0.576-0.118,1.079-0.298,1.51-0.538l-6.614-17.109l-5.966-15.742l-12.94,32.922c0.479,0.097,0.982,0.241,1.51,0.432
			c0.526,0.192,1.03,0.336,1.509,0.431l1.582,0.432v2.444h-13.227v-2.444l1.15-0.432c0.718-0.143,1.389-0.311,2.012-0.503
			c0.622-0.191,1.221-0.359,1.797-0.503l16.748-39.895c0.336-0.191,0.672-0.288,1.007-0.288c0.335,0,0.694,0.097,1.078,0.288
			l15.743,39.824c0.67,0.288,1.365,0.515,2.084,0.682c0.72,0.168,1.461,0.349,2.229,0.539l0.718,0.288V408.276z M716.723,386.855
			h15.168l0.432,3.162h-15.815L716.723,386.855z"/>
	</g>
	<g>
		<path fill="#E7AC35" d="M690.911,408.276H675.6v-1.797l1.797-0.432c0.526-0.191,1.042-0.359,1.546-0.503
			c0.503-0.144,0.993-0.311,1.473-0.503l-7.188-18.259l-5.535-14.377l-12.939,32.635c0.479,0.144,0.971,0.312,1.474,0.503
			c0.503,0.192,0.993,0.359,1.473,0.503l1.582,0.432v1.797h-12.436v-1.797l1.221-0.432c0.67-0.191,1.33-0.395,1.977-0.611
			c0.647-0.215,1.281-0.419,1.905-0.611l16.892-40.686c0.096-0.288,0.216-0.419,0.36-0.395c0.143,0.025,0.262,0.156,0.359,0.395
			l16.389,40.686c0.67,0.24,1.365,0.48,2.085,0.718c0.718,0.241,1.438,0.48,2.156,0.72l0.718,0.215V408.276z M660.217,386.855
			h14.377v2.588H659.93L660.217,386.855z"/>
	</g>
	<g>
		<path fill="#E7AC35" d="M634.265,408.276h-15.024v-1.294l1.509-0.432c0.576-0.191,1.138-0.346,1.689-0.467
			c0.55-0.119,1.042-0.275,1.474-0.467l-7.405-18.834l-5.822-15.166l-13.73,34.072c0.526,0.097,1.053,0.241,1.581,0.432
			c0.526,0.192,1.031,0.336,1.509,0.431l1.654,0.36v1.365h-11.79v-1.365l1.223-0.36c0.718-0.191,1.389-0.37,2.012-0.538
			c0.622-0.167,1.223-0.348,1.797-0.539l17.18-41.333c0.096-0.288,0.216-0.419,0.36-0.395c0.143,0.025,0.262,0.156,0.359,0.395
			l16.677,41.26c0.574,0.288,1.21,0.529,1.905,0.72c0.694,0.192,1.402,0.384,2.12,0.574l0.72,0.288V408.276z M603.139,387.215
			h14.737v1.87h-14.952L603.139,387.215z"/>
	</g>
	<g>
		<path fill="#E7AC35" d="M578.05,408.276h-14.664v-0.862l1.079-0.216c0.576-0.191,1.125-0.37,1.654-0.538
			c0.526-0.167,1.079-0.3,1.652-0.395l-7.691-19.481l-6.182-15.957l-14.377,35.439c0.48,0.144,0.983,0.287,1.512,0.431
			c0.526,0.144,1.076,0.312,1.652,0.503l1.509,0.288v0.791H533.34v-0.791l1.076-0.359c0.672-0.144,1.317-0.311,1.942-0.503
			c0.622-0.191,1.245-0.335,1.867-0.432l17.468-42.051c0.096-0.288,0.218-0.419,0.36-0.395c0.143,0.025,0.262,0.156,0.36,0.395
			l16.965,42.124c0.62,0.096,1.245,0.228,1.867,0.395c0.622,0.168,1.271,0.347,1.942,0.538l0.861,0.216V408.276z M546.351,387.574
			h15.095v1.079h-15.31L546.351,387.574z"/>
	</g>
	<g>
		<path fill="#E7AC35" d="M521.549,351.968h-14.664v-0.359l1.079-0.216c0.576-0.095,1.151-0.252,1.725-0.467
			c0.576-0.215,1.079-0.419,1.512-0.611l-7.764-19.84l-6.47-16.748l-15.023,36.66c0.381,0.241,0.861,0.456,1.437,0.647
			c0.576,0.192,1.149,0.312,1.725,0.359l1.509,0.216v0.359H476.48v-0.359l1.006-0.288c0.718-0.047,1.402-0.154,2.047-0.323
			c0.648-0.167,1.282-0.395,1.907-0.683l17.611-42.483c0.096-0.288,0.215-0.419,0.36-0.395c0.143,0.025,0.262,0.156,0.358,0.395
			l17.107,42.554c0.622,0.288,1.235,0.493,1.835,0.612c0.599,0.119,1.21,0.227,1.832,0.323l1.006,0.288V351.968z M489.347,331.624
			h15.455v0.36h-15.6L489.347,331.624z"/>
	</g>
	<g>
		<path fill="#E7AC35" d="M861.892,351.968h-15.239v-3.666l1.15-0.216c0.622-0.095,1.258-0.239,1.905-0.431
			c0.647-0.192,1.21-0.36,1.689-0.503l-5.463-14.952l-6.829-18.474l-13.011,33.426c0.432,0.143,0.922,0.311,1.474,0.503
			c0.55,0.192,1.114,0.311,1.688,0.359l1.726,0.215v3.738h-14.88v-3.738l1.079-0.215c0.718-0.048,1.425-0.167,2.12-0.359
			c0.694-0.192,1.354-0.384,1.977-0.576l15.957-38.242c0.814,0,1.594,0,2.336,0c0.743,0,1.546,0,2.408,0l14.521,38.171
			c0.67,0.287,1.39,0.48,2.156,0.574c0.766,0.097,1.486,0.192,2.157,0.288l1.078,0.288V351.968z M829.617,330.547h16.604
			l1.367,4.097h-18.115L829.617,330.547z"/>
	</g>
	<g>
		<path fill="#E7AC35" d="M804.852,351.968h-15.168v-3.091l1.294-0.215c0.622-0.144,1.221-0.311,1.797-0.503
			c0.574-0.192,1.125-0.36,1.653-0.503l-6.038-16.031l-6.397-17.107l-13.011,33.138c0.432,0.143,0.899,0.323,1.402,0.538
			c0.503,0.216,1.042,0.349,1.618,0.395l1.797,0.216v3.162h-14.161v-3.162l1.223-0.216c0.718-0.095,1.402-0.239,2.049-0.431
			c0.647-0.192,1.305-0.407,1.976-0.647l16.174-38.961c0.622-0.095,1.198-0.144,1.726-0.144c0.526,0,1.101,0.049,1.725,0.144
			l15.168,38.889c0.622,0.336,1.317,0.576,2.085,0.72c0.766,0.144,1.461,0.287,2.085,0.431l1.006,0.216V351.968z M773.152,330.547
			h15.886l0.935,3.666h-17.037L773.152,330.547z"/>
	</g>
	<g>
		<path fill="#E7AC35" d="M747.884,351.968h-15.31v-2.515l1.725-0.36c0.576-0.095,1.138-0.227,1.689-0.395
			c0.55-0.167,1.018-0.346,1.402-0.538l-6.541-17.109l-5.966-15.742l-12.867,32.922c0.431,0.144,0.899,0.3,1.402,0.467
			c0.503,0.168,0.994,0.324,1.473,0.468l1.726,0.288v2.515h-13.227v-2.515l1.079-0.36c0.718-0.095,1.402-0.239,2.049-0.431
			c0.647-0.191,1.281-0.384,1.905-0.576l16.533-39.895c0.383-0.191,0.73-0.288,1.042-0.288c0.311,0,0.683,0.097,1.114,0.288
			l15.671,39.824c0.67,0.288,1.367,0.528,2.085,0.718c0.718,0.192,1.461,0.336,2.229,0.432l0.79,0.288V351.968z M716.686,330.547
			h15.168l0.432,3.091h-15.815L716.686,330.547z"/>
	</g>
	<g>
		<path fill="#E7AC35" d="M690.839,351.968h-15.311v-1.868l1.941-0.36c0.526-0.144,1.03-0.311,1.509-0.503
			c0.479-0.191,0.935-0.383,1.367-0.574l-7.117-18.187l-5.535-14.377l-12.866,32.564c0.431,0.192,0.886,0.395,1.365,0.611
			c0.479,0.215,0.958,0.372,1.438,0.467l1.725,0.36v1.868h-12.436v-1.868l1.079-0.36c0.718-0.144,1.402-0.335,2.049-0.574
			c0.647-0.24,1.305-0.479,1.976-0.72l16.821-40.613c0.096-0.288,0.216-0.419,0.36-0.395c0.143,0.025,0.262,0.156,0.359,0.395
			l16.318,40.613c0.67,0.336,1.365,0.612,2.084,0.827c0.72,0.215,1.438,0.42,2.157,0.611l0.718,0.216V351.968z M660.217,330.547
			h14.377v2.588H659.93L660.217,330.547z"/>
	</g>
	<g>
		<path fill="#E7AC35" d="M634.265,351.968h-15.096v-1.438l1.654-0.215c0.526-0.191,1.053-0.371,1.581-0.539
			c0.528-0.167,0.982-0.371,1.367-0.611l-7.261-18.69l-5.822-15.166l-13.587,33.928c0.432,0.144,0.899,0.336,1.402,0.576
			c0.504,0.24,1.018,0.407,1.546,0.503l1.726,0.215v1.438h-11.789v-1.438l1.078-0.288c0.72-0.143,1.403-0.323,2.049-0.538
			c0.647-0.216,1.282-0.419,1.906-0.612l17.107-41.26c0.096-0.288,0.216-0.419,0.36-0.395c0.143,0.025,0.262,0.156,0.359,0.395
			l16.604,41.189c0.576,0.384,1.223,0.659,1.941,0.827c0.72,0.168,1.413,0.347,2.085,0.538l0.791,0.144V351.968z M603.139,330.906
			h14.737v1.87h-14.952L603.139,330.906z"/>
	</g>
	<g>
		<path fill="#E7AC35" d="M577.98,351.968h-14.737v-0.791l1.221-0.359c0.526-0.096,1.079-0.252,1.654-0.467
			c0.576-0.216,1.102-0.419,1.582-0.612l-7.621-19.265l-6.182-15.957l-14.304,35.222c0.431,0.193,0.91,0.408,1.439,0.647
			c0.526,0.241,1.076,0.385,1.652,0.432l1.582,0.288v0.862H533.34v-0.862l1.006-0.216c0.765-0.143,1.46-0.323,2.083-0.538
			c0.622-0.216,1.271-0.419,1.942-0.612l17.323-41.907c0.096-0.288,0.218-0.419,0.36-0.395c0.143,0.025,0.262,0.156,0.36,0.395
			l16.82,41.98c0.672,0.192,1.329,0.384,1.977,0.574c0.646,0.192,1.306,0.336,1.977,0.432l0.791,0.359V351.968z M546.351,331.265
			h15.095v1.079h-15.31L546.351,331.265z"/>
	</g>
	<g>
		<path fill="#E7AC35" d="M521.622,295.659h-14.737V295.3l0.936-0.144c0.669-0.144,1.294-0.335,1.867-0.576
			c0.576-0.239,1.102-0.479,1.582-0.718l-7.834-19.697l-6.47-16.748l-15.095,36.516c0.384,0.336,0.861,0.589,1.437,0.756
			c0.576,0.168,1.198,0.347,1.87,0.538l1.437,0.073v0.359H476.48V295.3l0.934-0.216c0.718-0.047,1.425-0.179,2.12-0.394
			c0.695-0.216,1.306-0.443,1.835-0.683l17.683-42.483c0.096-0.288,0.215-0.419,0.36-0.395c0.143,0.025,0.262,0.156,0.358,0.395
			l17.18,42.554c0.526,0.192,1.102,0.385,1.725,0.576c0.622,0.192,1.343,0.359,2.157,0.503l0.791,0.144V295.659z M489.347,275.316
			h15.455v0.36h-15.6L489.347,275.316z"/>
	</g>
	<g>
		<path fill="#E7AC35" d="M861.964,295.658h-15.311v-3.666l1.15-0.288c0.622-0.048,1.246-0.167,1.87-0.359
			c0.622-0.192,1.221-0.36,1.797-0.503l-5.607-14.952l-6.829-18.474l-13.155,33.426c0.479,0.192,0.982,0.359,1.509,0.503
			c0.528,0.143,1.102,0.287,1.726,0.431l1.797,0.073v3.809h-15.024v-3.809l1.365-0.073c0.672-0.047,1.39-0.167,2.157-0.359
			c0.765-0.191,1.389-0.406,1.868-0.647l15.886-38.242c0.814,0,1.594,0,2.336,0s1.546,0,2.408,0l14.664,38.171
			c0.576,0.144,1.233,0.312,1.977,0.503c0.742,0.192,1.473,0.359,2.193,0.503l1.221,0.144V295.658z M829.545,274.237h16.604
			l1.367,4.026h-18.115L829.545,274.237z"/>
	</g>
	<g>
		<path fill="#E7AC35" d="M804.815,295.658h-15.31v-3.091l1.509-0.288c0.622-0.144,1.221-0.311,1.797-0.503
			c0.574-0.191,1.102-0.359,1.581-0.503l-6.11-15.958l-6.397-17.107l-13.083,33.066c0.479,0.241,0.97,0.443,1.473,0.611
			c0.503,0.168,1.066,0.301,1.689,0.395l1.653,0.216v3.162h-14.089v-3.162l1.294-0.216c0.67-0.095,1.365-0.239,2.085-0.431
			c0.718-0.192,1.341-0.407,1.868-0.647l16.246-38.961c0.621-0.095,1.197-0.144,1.725-0.144c0.526,0,1.079,0.049,1.653,0.144
			l15.24,38.889c0.526,0.241,1.161,0.456,1.905,0.647c0.742,0.192,1.521,0.359,2.336,0.503l0.934,0.216V295.658z M773.043,274.237
			h15.886l0.935,3.594h-17.037L773.043,274.237z"/>
	</g>
	<g>
		<path fill="#E7AC35" d="M747.92,295.658h-15.312v-2.515l1.726-0.36c0.574-0.095,1.126-0.227,1.653-0.395
			c0.526-0.167,1.03-0.37,1.509-0.611l-6.685-17.036l-5.966-15.742l-13.011,32.851c0.479,0.192,0.958,0.371,1.438,0.538
			c0.479,0.168,0.982,0.349,1.509,0.539l1.797,0.144v2.588h-13.37v-2.588l1.223-0.215c0.765-0.096,1.496-0.252,2.193-0.468
			c0.694-0.215,1.281-0.442,1.761-0.682l16.604-39.824c0.336-0.191,0.659-0.288,0.971-0.288c0.311,0,0.683,0.097,1.114,0.288
			l15.815,39.751c0.576,0.288,1.21,0.552,1.905,0.791c0.694,0.241,1.45,0.432,2.265,0.576l0.862,0.144V295.658z M716.65,274.237
			h15.168l0.432,3.091h-15.815L716.65,274.237z"/>
	</g>
	<g>
		<path fill="#E7AC35" d="M690.911,295.658h-15.383v-1.868l2.014-0.36c0.526-0.144,1.03-0.311,1.509-0.503
			c0.479-0.191,0.935-0.383,1.365-0.574l-7.188-18.187l-5.535-14.377l-12.939,32.564c0.432,0.24,0.887,0.456,1.365,0.647
			c0.479,0.192,0.983,0.359,1.51,0.503l1.725,0.215v1.941h-12.507v-1.941l1.15-0.288c0.718-0.095,1.425-0.262,2.12-0.503
			c0.695-0.239,1.306-0.503,1.833-0.791l16.892-40.613c0.096-0.288,0.216-0.419,0.36-0.395c0.143,0.025,0.262,0.156,0.359,0.395
			l16.389,40.613c0.576,0.288,1.223,0.564,1.941,0.827c0.718,0.264,1.485,0.491,2.3,0.683l0.718,0.144V295.658z M660.217,274.237
			h14.377v2.588H659.93L660.217,274.237z"/>
	</g>
	<g>
		<path fill="#E7AC35" d="M634.336,295.658h-15.239v-1.365l1.653-0.288c0.67-0.191,1.258-0.383,1.761-0.576
			c0.504-0.191,0.947-0.406,1.33-0.647l-7.332-18.618l-5.822-15.166l-13.658,33.857c0.432,0.288,0.91,0.515,1.438,0.683
			c0.526,0.168,1.078,0.347,1.653,0.538l1.653,0.144v1.438h-11.789v-1.438l1.006-0.215c0.766-0.144,1.485-0.324,2.156-0.539
			c0.67-0.215,1.294-0.467,1.87-0.755l17.107-41.189c0.096-0.288,0.216-0.419,0.36-0.395c0.143,0.025,0.262,0.156,0.359,0.395
			l16.604,41.118c0.528,0.336,1.162,0.635,1.906,0.899c0.742,0.263,1.52,0.443,2.335,0.538l0.647,0.216V295.658z M603.139,274.596
			h14.737v1.87h-14.952L603.139,274.596z"/>
	</g>
	<g>
		<path fill="#E7AC35" d="M578.122,295.658H563.17v-0.791l1.224-0.288c0.62-0.095,1.21-0.262,1.76-0.503
			c0.55-0.239,1.067-0.479,1.547-0.718l-7.621-19.193l-6.182-15.957l-14.304,35.151c0.431,0.288,0.91,0.539,1.439,0.755
			c0.526,0.215,1.076,0.395,1.652,0.539l1.654,0.071v0.935h-11.07v-0.935l1.079-0.215c0.718,0,1.425-0.131,2.12-0.395
			c0.693-0.263,1.329-0.515,1.905-0.755l17.323-41.836c0.096-0.288,0.218-0.419,0.36-0.395c0.143,0.025,0.262,0.156,0.36,0.395
			l16.82,41.907c0.576,0.241,1.198,0.48,1.87,0.72c0.669,0.24,1.437,0.431,2.3,0.574l0.718,0.144V295.658z M546.351,274.955h15.095
			v1.079h-15.31L546.351,274.955z"/>
	</g>
	<g>
		<path fill="#E7AC35" d="M521.549,239.352h-14.807v-0.359l0.934-0.216c0.814,0,1.521-0.143,2.122-0.431
			c0.597-0.288,1.065-0.647,1.402-1.079l-7.764-19.409l-6.47-16.748l-15.023,36.23c0.285,0.48,0.718,0.826,1.294,1.042
			c0.573,0.215,1.245,0.371,2.012,0.467l1.364,0.144v0.359H476.48v-0.359l0.934-0.144c0.768-0.096,1.498-0.24,2.193-0.432
			c0.695-0.191,1.329-0.526,1.905-1.006l17.54-42.195c0.096-0.288,0.215-0.419,0.36-0.395c0.143,0.025,0.262,0.156,0.358,0.395
			l17.037,42.268c0.622,0.384,1.245,0.695,1.867,0.934c0.622,0.241,1.367,0.385,2.23,0.432l0.646,0.144V239.352z M489.347,219.008
			h15.455v0.36h-15.6L489.347,219.008z"/>
	</g>
	<g>
		<path fill="#E7AC35" d="M861.821,239.352h-15.168v-3.809l1.078-0.073c0.72-0.047,1.377-0.191,1.977-0.431
			c0.599-0.24,1.114-0.503,1.546-0.791l-5.463-14.664l-6.829-18.474l-13.011,33.138c0.335,0.384,0.755,0.659,1.258,0.826
			c0.503,0.168,1.089,0.301,1.762,0.395l1.797,0.073v3.809h-14.881v-3.809l1.438-0.144c0.622-0.048,1.317-0.167,2.085-0.359
			c0.766-0.192,1.413-0.432,1.941-0.72l15.886-38.098c0.766,0,1.509,0,2.229,0c0.718,0,1.509,0,2.372,0l14.521,38.027
			c0.622,0.288,1.306,0.528,2.049,0.718c0.743,0.192,1.474,0.312,2.193,0.359l1.223,0.073V239.352z M829.473,217.931h16.604
			l1.367,4.097h-18.115L829.473,217.931z"/>
	</g>
	<g>
		<path fill="#E7AC35" d="M804.78,239.352h-15.239v-3.235l1.438-0.144c0.718-0.047,1.354-0.191,1.905-0.431
			c0.55-0.24,0.994-0.503,1.33-0.791l-5.967-15.743l-6.397-17.107l-12.939,32.851c0.335,0.336,0.742,0.599,1.221,0.791
			c0.479,0.192,1.054,0.336,1.726,0.431l1.725,0.216v3.162h-14.017v-3.162l1.294-0.288c0.72-0.047,1.413-0.167,2.085-0.359
			c0.67-0.192,1.294-0.479,1.87-0.863l16.245-38.745c0.576-0.095,1.126-0.144,1.653-0.144c0.526,0,1.079,0.049,1.653,0.144
			l15.096,38.674c0.574,0.432,1.233,0.743,1.976,0.935c0.743,0.192,1.521,0.312,2.336,0.359l1.006,0.144V239.352z M773.008,217.931
			h15.886l0.935,3.594h-17.037L773.008,217.931z"/>
	</g>
	<g>
		<path fill="#E7AC35" d="M747.848,239.352h-15.239v-2.659l1.726-0.144c0.67-0.096,1.258-0.252,1.761-0.468
			c0.503-0.215,0.945-0.467,1.33-0.755l-6.614-16.892l-5.966-15.742l-12.94,32.707c0.384,0.288,0.803,0.528,1.259,0.718
			c0.454,0.192,0.993,0.359,1.617,0.503l1.726,0.144v2.588h-13.227v-2.588l1.221-0.215c0.67-0.144,1.365-0.3,2.085-0.468
			c0.718-0.167,1.341-0.442,1.868-0.826l16.533-39.68c0.384-0.191,0.72-0.288,1.007-0.288c0.287,0,0.647,0.097,1.078,0.288
			l15.743,39.607c0.621,0.385,1.268,0.708,1.94,0.971c0.672,0.264,1.413,0.42,2.229,0.467l0.862,0.073V239.352z M716.65,217.931
			h15.168l0.432,3.162h-15.815L716.65,217.931z"/>
	</g>
	<g>
		<path fill="#E7AC35" d="M690.839,239.352h-15.311v-2.012l2.014-0.216c0.621-0.047,1.161-0.191,1.617-0.431
			c0.455-0.24,0.851-0.503,1.186-0.791l-7.117-18.043l-5.535-14.377l-12.866,32.42c0.335,0.336,0.73,0.6,1.185,0.791
			c0.455,0.192,0.995,0.359,1.618,0.503l1.725,0.215v1.941h-12.436v-1.941l1.079-0.288c0.718-0.095,1.425-0.252,2.12-0.467
			c0.695-0.215,1.33-0.539,1.905-0.97l16.821-40.471c0.096-0.288,0.216-0.419,0.36-0.395c0.143,0.025,0.262,0.156,0.359,0.395
			l16.318,40.471c0.621,0.431,1.281,0.779,1.976,1.041c0.695,0.264,1.45,0.445,2.265,0.539l0.718,0.073V239.352z M660.217,217.931
			h14.377v2.588H659.93L660.217,217.931z"/>
	</g>
	<g>
		<path fill="#E7AC35" d="M634.336,239.352h-15.168v-1.509l1.582-0.216c0.72,0,1.341-0.131,1.87-0.394
			c0.526-0.263,0.886-0.563,1.078-0.899l-7.188-18.475l-5.822-15.166l-13.514,33.713c0.288,0.336,0.683,0.6,1.186,0.791
			c0.503,0.192,1.089,0.359,1.761,0.503l1.653,0.215v1.438h-11.717v-1.438l0.935-0.288c0.814-0.047,1.546-0.191,2.193-0.431
			c0.647-0.24,1.281-0.526,1.905-0.862l17.036-41.118c0.096-0.288,0.216-0.419,0.36-0.395c0.143,0.025,0.262,0.156,0.359,0.395
			l16.533,41.045c0.574,0.48,1.221,0.839,1.941,1.079c0.718,0.24,1.485,0.384,2.3,0.431l0.718,0.073V239.352z M603.139,218.29
			h14.737v1.87h-14.952L603.139,218.29z"/>
	</g>
	<g>
		<path fill="#E7AC35" d="M578.05,239.352h-15.023v-0.862l1.367-0.216c0.669-0.047,1.28-0.215,1.832-0.503
			c0.55-0.287,1.018-0.598,1.402-0.934l-7.549-18.978l-6.182-15.957l-14.232,34.936c0.335,0.384,0.753,0.707,1.257,0.97
			c0.505,0.264,1.116,0.443,1.835,0.539l1.582,0.144v0.862h-11.07v-0.862l1.006-0.216c0.765-0.095,1.509-0.239,2.228-0.431
			c0.718-0.191,1.367-0.551,1.942-1.079l17.25-41.548c0.096-0.288,0.218-0.419,0.36-0.395c0.143,0.025,0.262,0.156,0.36,0.395
			l16.747,41.621c0.622,0.431,1.271,0.779,1.942,1.041c0.669,0.264,1.413,0.421,2.228,0.468l0.718,0.144V239.352z M546.351,218.649
			h15.095v1.079h-15.31L546.351,218.649z"/>
	</g>
	<g>
		<path fill="#E7AC35" d="M521.622,183.043h-14.88v-0.359l0.863-0.073c0.861-0.047,1.591-0.227,2.193-0.538
			c0.597-0.311,0.992-0.707,1.184-1.186l-7.546-19.337l-6.47-16.748l-14.807,36.157c0.143,0.432,0.489,0.815,1.041,1.15
			c0.55,0.336,1.233,0.48,2.05,0.432l1.364,0.144v0.359H476.48v-0.359l0.718-0.073c0.91-0.047,1.725-0.191,2.445-0.431
			c0.718-0.24,1.364-0.622,1.94-1.15l17.468-42.124c0.096-0.288,0.215-0.419,0.36-0.395c0.143,0.025,0.262,0.156,0.358,0.395
			l16.965,42.195c0.576,0.48,1.21,0.827,1.905,1.042c0.695,0.215,1.474,0.349,2.338,0.395l0.646,0.144V183.043z M489.347,162.7
			h15.455v0.36h-15.6L489.347,162.7z"/>
	</g>
	<g>
		<path fill="#E7AC35" d="M861.749,183.043h-15.096v-3.809l1.15-0.073c0.72-0.047,1.377-0.179,1.977-0.395
			c0.599-0.215,1.018-0.49,1.258-0.826l-5.319-14.664l-6.829-18.474l-12.867,33.138c0.239,0.24,0.611,0.491,1.114,0.755
			c0.503,0.263,1.042,0.372,1.618,0.323l1.868,0.216v3.809h-14.664v-3.809l1.223-0.144c0.814,0,1.582-0.108,2.3-0.324
			c0.718-0.215,1.365-0.514,1.941-0.899l15.742-37.954c0.766,0,1.521,0,2.265,0c0.742,0,1.52,0,2.335,0l14.377,37.883
			c0.622,0.432,1.306,0.718,2.049,0.862c0.743,0.144,1.521,0.215,2.336,0.215l1.223,0.216V183.043z M829.402,161.622h16.604
			l1.367,4.026h-18.115L829.402,161.622z"/>
	</g>
	<g>
		<path fill="#E7AC35" d="M804.637,183.043h-15.024v-3.235l1.365-0.144c0.719-0.047,1.341-0.179,1.87-0.395
			c0.526-0.215,0.958-0.49,1.294-0.826l-5.967-15.743l-6.397-17.107l-12.939,32.851c0.287,0.288,0.658,0.551,1.114,0.791
			c0.455,0.24,0.995,0.384,1.617,0.431l1.87,0.144v3.235h-13.946v-3.235l1.223-0.071c0.814-0.096,1.569-0.252,2.264-0.468
			c0.695-0.215,1.354-0.514,1.977-0.899l16.03-38.745c0.576-0.095,1.114-0.144,1.617-0.144c0.504,0,1.066,0.049,1.689,0.144
			l15.096,38.674c0.574,0.432,1.221,0.755,1.941,0.97c0.718,0.216,1.461,0.324,2.228,0.324l1.079,0.144V183.043z M772.937,161.622
			h15.886l0.935,3.522H772.72L772.937,161.622z"/>
	</g>
	<g>
		<path fill="#E7AC35" d="M747.812,183.043h-15.239v-2.659l1.797-0.073c0.67-0.095,1.258-0.239,1.761-0.431
			c0.503-0.192,0.874-0.503,1.115-0.935l-6.47-16.821l-5.966-15.742l-12.796,32.634c0.24,0.241,0.586,0.503,1.042,0.791
			c0.455,0.288,0.994,0.408,1.618,0.359l1.797,0.216v2.659h-13.155v-2.659l1.006-0.144c0.862-0.047,1.629-0.191,2.3-0.432
			c0.67-0.239,1.294-0.55,1.87-0.935l16.533-39.607c0.288-0.191,0.599-0.288,0.935-0.288c0.335,0,0.694,0.097,1.078,0.288
			l15.599,39.536c0.622,0.528,1.281,0.887,1.976,1.079c0.695,0.192,1.45,0.312,2.265,0.359l0.934,0.144V183.043z M716.615,161.622
			h15.168l0.432,3.162H716.4L716.615,161.622z"/>
	</g>
	<g>
		<path fill="#E7AC35" d="M690.768,183.043H675.6v-2.012l2.012-0.144c0.622-0.096,1.162-0.252,1.617-0.468
			c0.455-0.215,0.803-0.49,1.042-0.826l-7.044-18.043l-5.535-14.377l-12.795,32.42c0.239,0.288,0.586,0.564,1.042,0.826
			c0.455,0.264,0.97,0.395,1.546,0.395l1.797,0.216v2.012h-12.292v-2.012l0.862-0.144c0.862-0.096,1.629-0.263,2.3-0.503
			c0.67-0.24,1.317-0.576,1.941-1.006l16.748-40.471c0.096-0.288,0.216-0.419,0.36-0.395c0.143,0.025,0.262,0.156,0.359,0.395
			l16.245,40.471c0.622,0.479,1.282,0.839,1.977,1.078c0.694,0.241,1.448,0.384,2.264,0.432l0.72,0.144V183.043z M660.217,161.622
			h14.377v2.588H659.93L660.217,161.622z"/>
	</g>
	<g>
		<path fill="#E7AC35" d="M634.265,183.043h-15.096v-1.438l1.654-0.215c0.67-0.047,1.281-0.204,1.832-0.467
			c0.551-0.263,0.874-0.563,0.971-0.899l-7.117-18.475l-5.822-15.166l-13.443,33.713c0.191,0.24,0.528,0.516,1.006,0.827
			s1.054,0.443,1.726,0.394l1.726,0.288v1.438h-11.646v-1.438l0.72-0.215c1.006-0.047,1.832-0.191,2.479-0.432
			c0.647-0.239,1.259-0.574,1.833-1.006l17.036-41.045c0.096-0.288,0.216-0.419,0.36-0.395c0.143,0.025,0.262,0.156,0.359,0.395
			l16.533,40.974c0.526,0.574,1.15,0.958,1.868,1.15c0.72,0.192,1.486,0.336,2.3,0.431l0.72,0.144V183.043z M603.139,161.981h14.737
			v1.87h-14.952L603.139,161.981z"/>
	</g>
	<g>
		<path fill="#E7AC35" d="M578.05,183.043H563.1v-0.862l1.221-0.073c0.718-0.144,1.352-0.346,1.905-0.611
			c0.55-0.263,0.971-0.611,1.259-1.042l-7.406-18.906l-6.182-15.957l-14.089,34.863c0.192,0.336,0.541,0.672,1.044,1.006
			c0.503,0.336,1.114,0.529,1.832,0.576l1.582,0.071v0.935h-10.855v-0.935h0.718c0.863-0.144,1.643-0.335,2.338-0.574
			c0.693-0.24,1.376-0.599,2.047-1.079l17.18-41.548c0.096-0.288,0.218-0.419,0.36-0.395c0.143,0.025,0.262,0.156,0.36,0.395
			l16.677,41.621c0.622,0.431,1.28,0.779,1.975,1.041c0.695,0.264,1.474,0.395,2.338,0.395l0.646,0.216V183.043z M546.351,162.34
			h15.095v1.079h-15.31L546.351,162.34z"/>
	</g>
	<g>
		<path fill="#E7AC35" d="M521.765,126.734H506.67v-0.36l0.863-0.073c0.957,0,1.748-0.178,2.373-0.538
			c0.622-0.36,0.98-0.849,1.076-1.474l-7.546-19.05l-6.47-16.747l-14.807,35.869c0.047,0.576,0.358,1.041,0.934,1.402
			c0.576,0.36,1.294,0.538,2.157,0.538l1.364,0.073v0.36H476.48v-0.36l0.576-0.073c1.006,0,1.879-0.154,2.623-0.466
			c0.742-0.311,1.402-0.73,1.977-1.259l17.395-41.979c0.096-0.288,0.215-0.419,0.36-0.395c0.143,0.023,0.262,0.154,0.358,0.395
			l16.892,42.051c0.576,0.526,1.224,0.934,1.942,1.221s1.582,0.456,2.588,0.503h0.573V126.734z M489.347,106.391h15.455v0.36h-15.6
			L489.347,106.391z"/>
	</g>
	<g>
		<path fill="#E7AC35" d="M861.785,126.734h-15.24v-3.882h1.223c0.814-0.095,1.496-0.262,2.049-0.503
			c0.55-0.239,0.97-0.526,1.258-0.862l-5.463-14.521l-6.829-18.474l-13.011,32.995c0.24,0.336,0.586,0.647,1.042,0.935
			c0.455,0.287,1.042,0.407,1.761,0.359l1.797,0.071v3.882h-14.664v-3.882h1.367c0.862-0.095,1.677-0.252,2.444-0.467
			c0.766-0.215,1.365-0.539,1.797-0.971l15.815-37.81c0.814,0,1.569,0,2.264,0c0.694,0,1.448,0,2.264,0l14.521,37.739
			c0.526,0.384,1.15,0.683,1.87,0.899c0.718,0.215,1.509,0.372,2.372,0.467h1.367V126.734z M829.293,105.313h16.604l1.367,4.026
			h-18.115L829.293,105.313z"/>
	</g>
	<g>
		<path fill="#E7AC35" d="M804.816,126.734h-15.311v-3.306h1.51c0.814-0.048,1.473-0.191,1.976-0.432
			c0.503-0.239,0.874-0.574,1.115-1.006l-5.967-15.599l-6.397-17.107l-12.939,32.707c0.191,0.432,0.503,0.779,0.934,1.042
			c0.432,0.263,1.031,0.372,1.797,0.323l1.87,0.073v3.306h-14.017v-3.306l1.294-0.073c0.862,0,1.653-0.131,2.372-0.395
			c0.72-0.262,1.319-0.586,1.797-0.97l16.174-38.674c0.528-0.095,1.054-0.144,1.582-0.144c0.526,0,1.079,0.049,1.653,0.144
			l15.096,38.602c0.479,0.431,1.089,0.755,1.832,0.97c0.743,0.215,1.546,0.372,2.409,0.467h1.221V126.734z M772.9,105.313h15.886
			l0.935,3.594h-17.037L772.9,105.313z"/>
	</g>
	<g>
		<path fill="#E7AC35" d="M747.776,126.734H732.61v-2.732l1.797-0.071c0.765-0.047,1.389-0.18,1.868-0.395
			c0.479-0.215,0.814-0.515,1.006-0.899l-6.541-16.821l-5.966-15.742l-12.867,32.634c0.191,0.288,0.503,0.564,0.935,0.827
			c0.431,0.264,0.982,0.395,1.653,0.395l1.868,0.071v2.732h-13.154v-2.732l1.006-0.071c0.909-0.047,1.725-0.18,2.444-0.395
			c0.718-0.215,1.294-0.563,1.725-1.042l16.533-39.536c0.384-0.191,0.73-0.288,1.042-0.288c0.311,0,0.659,0.097,1.042,0.288
			l15.671,39.464c0.526,0.48,1.138,0.839,1.833,1.078c0.694,0.241,1.498,0.408,2.408,0.503h0.862V126.734z M716.579,105.313h15.168
			l0.432,3.091h-15.815L716.579,105.313z"/>
	</g>
	<g>
		<path fill="#E7AC35" d="M690.839,126.734H675.6v-2.085l2.084-0.071c0.72-0.048,1.294-0.191,1.726-0.432
			c0.432-0.239,0.743-0.55,0.935-0.935l-7.117-17.971l-5.535-14.377l-12.866,32.348c0.191,0.385,0.503,0.708,0.934,0.971
			c0.432,0.263,0.982,0.395,1.653,0.395l1.87,0.071v2.085h-12.364v-2.085l0.862-0.071c0.91-0.048,1.726-0.204,2.444-0.468
			c0.72-0.262,1.317-0.634,1.797-1.114l16.821-40.398c0.096-0.288,0.216-0.419,0.36-0.395c0.143,0.025,0.262,0.156,0.359,0.395
			l16.318,40.398c0.526,0.48,1.137,0.852,1.832,1.114c0.695,0.264,1.498,0.445,2.409,0.539h0.718V126.734z M660.217,105.313h14.377
			v2.588H659.93L660.217,105.313z"/>
	</g>
	<g>
		<path fill="#E7AC35" d="M634.336,126.734h-15.168v-1.582h1.582c0.91-0.047,1.605-0.202,2.085-0.467
			c0.479-0.263,0.766-0.659,0.862-1.186l-7.188-18.259l-5.822-15.166l-13.514,33.498c0.144,0.48,0.455,0.862,0.935,1.15
			c0.479,0.287,1.078,0.431,1.797,0.431h1.797v1.582h-11.717v-1.582h0.791c0.958-0.047,1.797-0.215,2.515-0.503
			c0.718-0.288,1.317-0.647,1.797-1.078l17.036-40.974c0.096-0.288,0.216-0.419,0.36-0.395c0.143,0.025,0.262,0.156,0.359,0.395
			l16.533,40.901c0.479,0.528,1.079,0.923,1.797,1.186c0.718,0.264,1.582,0.42,2.588,0.467h0.574V126.734z M603.139,105.673h14.737
			v1.87h-14.952L603.139,105.673z"/>
	</g>
	<g>
		<path fill="#E7AC35" d="M578.122,126.734h-15.095v-0.862l1.294-0.144c0.814,0,1.509-0.18,2.085-0.539
			c0.573-0.359,0.957-0.755,1.149-1.186l-7.476-18.762l-6.182-15.957l-14.159,34.719c0.143,0.432,0.454,0.839,0.934,1.223
			c0.477,0.384,1.149,0.551,2.012,0.503l1.582,0.144v0.862h-10.998v-0.862l0.646-0.144c1.055,0,1.954-0.144,2.696-0.432
			c0.744-0.288,1.355-0.718,1.835-1.294l17.25-41.404c0.096-0.288,0.218-0.419,0.36-0.395c0.143,0.025,0.262,0.156,0.36,0.395
			l16.747,41.477c0.529,0.528,1.151,0.923,1.87,1.185c0.718,0.264,1.556,0.468,2.515,0.612h0.576V126.734z M546.351,106.032h15.095
			v1.079h-15.31L546.351,106.032z"/>
	</g>
	<g>
		<path fill="#E7AC35" d="M804.672,70.425h-15.168v-3.379h1.509c0.814,0,1.474-0.131,1.977-0.395
			c0.503-0.262,0.826-0.611,0.97-1.041l-5.894-15.528l-6.397-17.107l-12.867,32.635c0.096,0.431,0.359,0.779,0.791,1.041
			c0.432,0.264,1.03,0.395,1.797,0.395h1.868v3.379h-13.874v-3.379h1.294c0.863,0,1.654-0.118,2.373-0.359
			c0.718-0.239,1.341-0.622,1.868-1.15l16.03-38.53c0.576-0.095,1.115-0.144,1.618-0.144c0.503,0,1.042,0.049,1.617,0.144
			l15.024,38.458c0.479,0.528,1.089,0.91,1.833,1.15c0.743,0.24,1.546,0.359,2.408,0.359h1.223V70.425z M772.828,49.004h15.886
			l0.935,3.522h-17.037L772.828,49.004z"/>
	</g>
	<g>
		<path fill="#E7AC35" d="M747.74,70.425h-15.166v-2.803h1.868c0.766,0,1.39-0.119,1.868-0.359c0.479-0.24,0.766-0.599,0.863-1.079
			l-6.47-16.677l-5.966-15.742l-12.796,32.49c0.096,0.385,0.359,0.708,0.791,0.971c0.432,0.264,1.006,0.395,1.726,0.395h1.868v2.803
			h-13.083v-2.803h1.006c0.91,0,1.726-0.119,2.444-0.359c0.72-0.24,1.317-0.622,1.797-1.15l16.462-39.464
			c0.335-0.191,0.658-0.288,0.97-0.288c0.311,0,0.659,0.097,1.042,0.288l15.599,39.392c0.526,0.576,1.137,0.983,1.832,1.223
			s1.498,0.359,2.409,0.359h0.934V70.425z M716.542,49.004h15.168l0.432,3.091h-15.815L716.542,49.004z"/>
	</g>
	<g>
		<path fill="#E7AC35" d="M690.768,70.425H675.6v-2.156h2.156c0.718,0,1.294-0.132,1.725-0.395c0.432-0.263,0.695-0.611,0.791-1.042
			l-7.044-17.899l-5.535-14.377L654.898,66.83c0.096,0.432,0.359,0.779,0.791,1.042c0.431,0.263,1.006,0.395,1.725,0.395h1.87v2.156
			h-12.292v-2.156h0.79c0.91,0,1.726-0.132,2.444-0.395c0.72-0.263,1.342-0.683,1.87-1.258l16.748-40.327
			c0.096-0.288,0.216-0.419,0.36-0.395c0.143,0.025,0.262,0.156,0.359,0.395l16.245,40.327c0.526,0.574,1.138,0.994,1.833,1.258
			c0.694,0.263,1.498,0.395,2.408,0.395h0.72V70.425z M660.217,49.004h14.377v2.588H659.93L660.217,49.004z"/>
	</g>
	<g>
		<path fill="#E7AC35" d="M634.265,70.425h-15.168v-1.582h1.726c0.862,0,1.546-0.154,2.049-0.467
			c0.503-0.311,0.755-0.73,0.755-1.258l-7.117-18.187l-5.822-15.166L597.245,67.19c0.048,0.48,0.311,0.875,0.791,1.186
			c0.479,0.312,1.125,0.467,1.941,0.467h1.726v1.582h-11.646v-1.582h0.647c1.006,0,1.87-0.144,2.588-0.431
			c0.718-0.288,1.341-0.72,1.87-1.294l16.964-40.83c0.096-0.288,0.216-0.419,0.36-0.395c0.143,0.025,0.262,0.156,0.359,0.395
			l16.462,40.757c0.477,0.672,1.089,1.14,1.832,1.402c0.743,0.264,1.594,0.395,2.552,0.395h0.576V70.425z M603.139,49.363h14.737
			v1.87h-14.952L603.139,49.363z"/>
	</g>
	<g>
		<path fill="#E7AC35" d="M578.122,70.425h-15.168V69.49h1.294c0.91,0,1.64-0.191,2.193-0.574c0.55-0.384,0.875-0.863,0.971-1.438
			l-7.333-18.546l-6.182-15.957l-14.016,34.504c0,0.574,0.253,1.054,0.756,1.438c0.503,0.384,1.21,0.574,2.12,0.574h1.509v0.935
			H533.34V69.49h0.573c1.006,0,1.893-0.154,2.661-0.467c0.765-0.311,1.437-0.803,2.012-1.474l17.107-41.26
			c0.096-0.288,0.218-0.419,0.36-0.395c0.143,0.025,0.262,0.156,0.36,0.395l16.604,41.333c0.576,0.624,1.233,1.09,1.977,1.402
			c0.742,0.312,1.617,0.467,2.623,0.467h0.503V70.425z M546.351,49.722h15.095v1.079h-15.31L546.351,49.722z"/>
	</g>
	<g>
		<path fill="#231815" d="M405.318,430.9l-0.421,1.88l-3.187-0.05l-2.132,9.884h-2.45l2.164-9.884l-3.475,0.05l0.405-1.88H405.318z"
			/>
		<path fill="#231815" d="M408.484,432.948c-0.133,0.587-0.438,1.796-0.555,2.198h0.035c0.636-0.957,1.61-1.376,2.466-1.376
			c1.895,0,2.852,1.141,2.852,2.752c0,0.521-0.084,1.108-0.253,1.897l-0.906,4.196h-2.181l0.906-4.212
			c0.168-0.789,0.253-1.242,0.253-1.645c0-0.772-0.421-1.275-1.259-1.275c-0.906,0-1.512,0.537-1.947,1.342
			c-0.302,0.555-0.555,1.377-0.824,2.685l-0.653,3.105h-2.183l2.686-12.687h2.216L408.484,432.948z"/>
		<path fill="#231815" d="M418.564,433.971l-1.846,8.643h-2.216l1.83-8.643H418.564z M419.32,430.178l-0.47,2.132h-2.249
			l0.487-2.132H419.32z"/>
		<path fill="#231815" d="M426.097,435.985c-0.47-0.252-0.973-0.402-1.577-0.402c-1.729,0-2.787,1.494-2.787,3.357
			c0,1.175,0.655,2.064,2.132,2.064c0.555,0,1.142-0.117,1.577-0.336l-0.25,1.729c-0.587,0.218-1.191,0.302-1.898,0.302
			c-2.466,0-3.891-1.578-3.891-3.626c0-2.987,2.164-5.185,5.202-5.185c0.756,0,1.477,0.135,2.047,0.37L426.097,435.985z"/>
		<path fill="#231815" d="M428.694,442.614h-2.2l2.686-12.687h2.197l-1.61,7.367h0.033c0.152-0.185,0.772-0.839,3.274-3.323h2.904
			l-4.231,3.826l2.703,4.817h-2.567c-1.645-3.222-2.083-4.196-2.249-4.598H429.6L428.694,442.614z"/>
		<path fill="#231815" d="M439.278,435.313c0.672-1.074,1.68-1.543,2.635-1.543c1.898,0,2.855,1.141,2.855,2.752
			c0,0.521-0.084,1.108-0.253,1.897l-0.906,4.196h-2.183l0.908-4.212c0.166-0.789,0.25-1.242,0.25-1.645
			c0-0.772-0.419-1.275-1.259-1.275c-0.906,0-1.509,0.537-1.947,1.342c-0.302,0.555-0.552,1.377-0.821,2.685l-0.655,3.105h-2.181
			l1.427-6.796c0.117-0.571,0.234-1.209,0.318-1.846h2.012c-0.033,0.386-0.15,0.939-0.234,1.342H439.278z"/>
		<path fill="#231815" d="M448.385,438.921c-0.016,0.135-0.016,0.219-0.016,0.269c0,1.241,0.805,1.947,2.284,1.947
			c0.906,0,1.795-0.168,2.717-0.655l-0.302,1.812c-0.805,0.37-1.863,0.521-2.752,0.521c-2.719,0-4.111-1.46-4.111-3.591
			c0-2.938,1.83-5.454,4.951-5.454c2.164,0,3.372,1.108,3.372,3.238c0,0.571-0.066,1.192-0.218,1.913H448.385z M452.515,437.411
			c0.016-0.117,0.033-0.284,0.033-0.453c0-1.09-0.555-1.627-1.561-1.627c-1.142,0-2.047,0.755-2.382,2.08H452.515z"/>
		<path fill="#231815" d="M461.788,435.934c-0.653-0.369-1.341-0.537-1.996-0.537c-0.889,0-1.376,0.302-1.376,0.856
			c0,0.469,0.234,0.704,1.224,1.326c1.009,0.638,1.696,1.259,1.696,2.416c0,1.914-1.493,2.82-3.592,2.82
			c-1.074,0-2.132-0.218-2.953-0.587l0.519-1.778c0.739,0.419,1.678,0.67,2.45,0.67c0.889,0,1.327-0.318,1.327-0.923
			c0-0.385-0.201-0.755-1.21-1.376c-1.376-0.855-1.762-1.477-1.762-2.416c0-1.661,1.477-2.635,3.643-2.635
			c0.838,0,1.746,0.167,2.499,0.487L461.788,435.934z"/>
		<path fill="#231815" d="M469.168,435.934c-0.653-0.369-1.341-0.537-1.996-0.537c-0.889,0-1.376,0.302-1.376,0.856
			c0,0.469,0.234,0.704,1.224,1.326c1.009,0.638,1.696,1.259,1.696,2.416c0,1.914-1.493,2.82-3.592,2.82
			c-1.074,0-2.132-0.218-2.953-0.587l0.519-1.778c0.739,0.419,1.678,0.67,2.45,0.67c0.889,0,1.327-0.318,1.327-0.923
			c0-0.385-0.201-0.755-1.21-1.376c-1.376-0.855-1.762-1.477-1.762-2.416c0-1.661,1.477-2.635,3.643-2.635
			c0.838,0,1.746,0.167,2.499,0.487L469.168,435.934z"/>
	</g>
	<g>
		<path fill="#231815" d="M426.407,399.869c-0.42,0.805-0.672,1.762-0.672,2.584c0,1.107,0.521,2.014,1.477,2.014
			c0.621,0,1.024-0.402,1.712-1.695c0.806-1.493,1.611-2.434,3.357-2.434c2.283,0,3.809,1.712,3.809,4.499
			c0,1.191-0.185,2.366-0.654,3.691l-1.947-0.604c0.487-0.973,0.772-2.031,0.772-2.87c0-1.275-0.521-2.283-1.796-2.283
			c-0.806,0-1.225,0.42-1.88,1.661c-0.923,1.729-1.694,2.367-3.088,2.367c-2.114,0-3.524-1.712-3.524-4.364
			c0-1.09,0.218-2.382,0.553-3.154L426.407,399.869z"/>
		<path fill="#231815" d="M425.417,396.501l-0.806-2.317l2.635,0.555v-2.064l1.611,0.335v2.065l3.793,0.789
			c0.336,0.067,0.587,0.101,0.738,0.101c0.519,0,0.839-0.269,0.839-0.99c0-0.285-0.05-0.605-0.151-0.923l1.762,0.352
			c0.135,0.47,0.167,0.907,0.167,1.259c0,1.627-0.839,2.5-2.281,2.5c-0.487,0-1.041-0.101-1.679-0.235l-3.188-0.704v1.627
			l-1.611-0.336v-1.627L425.417,396.501z"/>
		<path fill="#231815" d="M427.246,388.885c0.436,0.067,1.007,0.167,1.595,0.302v-0.034c-1.124-0.722-1.796-1.611-1.796-2.735
			c0-0.318,0.034-0.553,0.084-0.755l2.114,0.503c-0.101,0.268-0.135,0.487-0.135,0.805c0,1.528,1.141,2.35,3.088,2.753l3.692,0.755
			v2.216l-5.924-1.225c-1.225-0.253-2.031-0.404-2.719-0.504V388.885z"/>
		<path fill="#231815" d="M434.513,380.564c1.191,0.722,1.543,1.712,1.543,2.803c0,1.594-0.956,2.768-2.517,2.768
			c-2.584,0-3.071-2.852-3.071-4.95c0-0.235,0.016-0.756,0.034-1.09c-0.253-0.05-0.42-0.05-0.571-0.05
			c-0.839,0-1.275,0.654-1.275,1.812c0,0.755,0.167,1.744,0.587,2.635l-1.78-0.235c-0.268-0.856-0.419-1.863-0.419-2.703
			c0-2.215,0.889-3.557,2.719-3.557c0.972,0,3.591,0.638,4.614,0.789c0.402,0.067,1.024,0.151,1.51,0.151v1.762
			c-0.487-0.016-0.907-0.084-1.376-0.168V380.564z M431.861,381.035c0,2.148,0.67,2.903,1.577,2.903
			c0.688,0,1.056-0.519,1.056-1.141c0-1.343-1.191-2.299-2.601-2.5C431.861,380.582,431.861,380.816,431.861,381.035z"/>
		<path fill="#231815" d="M423.453,372.129l2.132,0.47v2.249l-2.132-0.487V372.129z M427.246,372.884l8.643,1.846v2.216l-8.643-1.83
			V372.884z"/>
		<path fill="#231815" d="M437.13,372.131c0.454-0.956,0.689-1.98,0.689-2.802c0-1.762-0.907-2.735-3.425-3.189v0.034
			c0.84,0.537,1.427,1.326,1.427,2.601c0,2.065-1.444,3.172-3.457,3.172c-3.071,0-5.32-1.929-5.32-4.447
			c0-1.207,0.469-2.014,1.477-2.484v-0.033l-1.275-0.252v-2.132l8.14,1.712c2.802,0.587,4.228,2.148,4.228,5.085
			c0,1.04-0.234,2.215-0.654,3.323L437.13,372.131z M432.129,369.698c1.209,0,2.031-0.503,2.031-1.627
			c0-1.527-1.729-2.551-3.424-2.551c-1.225,0-2.046,0.604-2.046,1.627C428.69,368.507,430.283,369.698,432.129,369.698z"/>
		<path fill="#231815" d="M426.222,357.788c0.587,0.133,1.796,0.436,2.198,0.553v-0.034c-0.957-0.638-1.376-1.611-1.376-2.466
			c0-1.897,1.141-2.854,2.752-2.854c0.521,0,1.108,0.084,1.897,0.252l4.196,0.907v2.182l-4.212-0.907
			c-0.789-0.167-1.243-0.252-1.645-0.252c-0.772,0-1.275,0.42-1.275,1.259c0,0.906,0.537,1.51,1.342,1.947
			c0.555,0.302,1.377,0.553,2.685,0.822l3.105,0.654v2.182l-12.687-2.685v-2.216L426.222,357.788z"/>
		<path fill="#231815" d="M425.417,349.05l-0.806-2.315l2.635,0.553v-2.064l1.611,0.335v2.065l3.793,0.789
			c0.336,0.067,0.587,0.101,0.738,0.101c0.519,0,0.839-0.269,0.839-0.99c0-0.285-0.05-0.605-0.151-0.923l1.762,0.352
			c0.135,0.47,0.167,0.907,0.167,1.259c0,1.627-0.839,2.5-2.281,2.5c-0.487,0-1.041-0.101-1.679-0.235l-3.188-0.704v1.627
			l-1.611-0.336v-1.627L425.417,349.05z"/>
		<path fill="#231815" d="M432.196,342.71c0.135,0.016,0.219,0.016,0.269,0.016c1.241,0,1.947-0.805,1.947-2.283
			c0-0.906-0.168-1.795-0.655-2.718l1.812,0.302c0.37,0.805,0.521,1.863,0.521,2.752c0,2.719-1.46,4.111-3.591,4.111
			c-2.938,0-5.454-1.829-5.454-4.95c0-2.164,1.108-3.373,3.238-3.373c0.571,0,1.192,0.067,1.913,0.218V342.71z M430.686,338.581
			c-0.117-0.016-0.284-0.034-0.453-0.034c-1.09,0-1.627,0.555-1.627,1.561c0,1.142,0.755,2.047,2.08,2.383V338.581z"/>
		<path fill="#231815" d="M427.246,332.042c0.436,0.067,1.007,0.167,1.595,0.302v-0.034c-1.124-0.722-1.796-1.611-1.796-2.735
			c0-0.318,0.034-0.553,0.084-0.755l2.114,0.503c-0.101,0.268-0.135,0.487-0.135,0.805c0,1.528,1.141,2.35,3.088,2.753l3.692,0.755
			v2.216l-5.924-1.225c-1.225-0.253-2.031-0.404-2.719-0.504V332.042z"/>
	</g>
	<g>
		<path fill="#231815" d="M500.573,434.89c0,6.354-2.328,10.151-6.498,10.151c-4.199,0-6.527-3.825-6.527-10.324
			c0-6.671,2.271-10.323,6.729-10.323C498.359,424.394,500.573,428.247,500.573,434.89z M489.043,434.689
			c0,6.068,1.782,9.115,4.975,9.115c3.192,0,5.089-3.106,5.089-9.058c0-6.01-1.87-9.087-5.089-9.087
			C490.854,425.659,489.043,428.736,489.043,434.689z"/>
	</g>
	<g>
		<path fill="#231815" d="M465.777,398.412c0,6.355-2.328,10.151-6.498,10.151c-4.199,0-6.527-3.823-6.527-10.324
			c0-6.671,2.271-10.322,6.729-10.322C463.563,387.918,465.777,391.769,465.777,398.412z M454.247,398.211
			c0,6.068,1.782,9.116,4.975,9.116c3.192,0,5.089-3.107,5.089-9.058c0-6.011-1.87-9.088-5.089-9.088
			C456.058,389.181,454.247,392.258,454.247,398.211z"/>
	</g>
	<g>
		<path fill="#231815" d="M411.693,70.425h-1.381V57.197c0-1.667,0.057-4.399,0.115-5.406h-0.057
			c-0.69,0.662-1.84,1.639-2.531,2.186l-1.265,1.035l-0.748-0.92l4.63-3.739h1.237V70.425z"/>
		<path fill="#231815" d="M432.999,60.562c0,6.354-2.328,10.151-6.498,10.151c-4.199,0-6.527-3.825-6.527-10.324
			c0-6.671,2.271-10.323,6.729-10.323C430.785,50.066,432.999,53.919,432.999,60.562z M421.468,60.36
			c0,6.068,1.782,9.115,4.975,9.115c3.192,0,5.089-3.106,5.089-9.058c0-6.01-1.87-9.087-5.089-9.087
			C423.28,51.331,421.468,54.408,421.468,60.36z"/>
		<path fill="#231815" d="M449.388,60.562c0,6.354-2.328,10.151-6.498,10.151c-4.199,0-6.527-3.825-6.527-10.324
			c0-6.671,2.271-10.323,6.729-10.323C447.174,50.066,449.388,53.919,449.388,60.562z M437.858,60.36
			c0,6.068,1.782,9.115,4.975,9.115c3.192,0,5.089-3.106,5.089-9.058c0-6.01-1.87-9.087-5.089-9.087
			C439.669,51.331,437.858,54.408,437.858,60.36z"/>
		<path fill="#231815" d="M465.777,60.562c0,6.354-2.328,10.151-6.498,10.151c-4.199,0-6.527-3.825-6.527-10.324
			c0-6.671,2.271-10.323,6.729-10.323C463.563,50.066,465.777,53.919,465.777,60.562z M454.247,60.36
			c0,6.068,1.782,9.115,4.975,9.115c3.192,0,5.089-3.106,5.089-9.058c0-6.01-1.87-9.087-5.089-9.087
			C456.058,51.331,454.247,54.408,454.247,60.36z"/>
	</g>
	<g>
		<path fill="#231815" d="M806.902,444.753h-1.381v-13.228c0-1.667,0.057-4.399,0.115-5.406h-0.057
			c-0.69,0.662-1.84,1.639-2.531,2.186l-1.265,1.035l-0.748-0.92l4.63-3.739h1.237V444.753z"/>
		<path fill="#231815" d="M828.207,434.89c0,6.354-2.328,10.151-6.498,10.151c-4.199,0-6.527-3.825-6.527-10.324
			c0-6.671,2.271-10.323,6.729-10.323C825.994,424.394,828.207,428.247,828.207,434.89z M816.677,434.689
			c0,6.068,1.782,9.115,4.975,9.115c3.192,0,5.089-3.106,5.089-9.058c0-6.01-1.87-9.087-5.089-9.087
			C818.488,425.659,816.677,428.736,816.677,434.689z"/>
		<path fill="#231815" d="M844.596,434.89c0,6.354-2.328,10.151-6.498,10.151c-4.199,0-6.527-3.825-6.527-10.324
			c0-6.671,2.271-10.323,6.729-10.323C842.383,424.394,844.596,428.247,844.596,434.89z M833.066,434.689
			c0,6.068,1.782,9.115,4.975,9.115c3.192,0,5.089-3.106,5.089-9.058c0-6.01-1.87-9.087-5.089-9.087
			C834.877,425.659,833.066,428.736,833.066,434.689z"/>
		<path fill="#231815" d="M860.985,434.89c0,6.354-2.328,10.151-6.498,10.151c-4.199,0-6.527-3.825-6.527-10.324
			c0-6.671,2.271-10.323,6.729-10.323C858.772,424.394,860.985,428.247,860.985,434.89z M849.455,434.689
			c0,6.068,1.782,9.115,4.975,9.115c3.192,0,5.089-3.106,5.089-9.058c0-6.01-1.87-9.087-5.089-9.087
			C851.266,425.659,849.455,428.736,849.455,434.689z"/>
	</g>
</g>
<g>
	
		<line fill="none" stroke="#888888" stroke-width="0.78" stroke-miterlimit="10" x1="319.336" y1="241.902" x2="179.68" y2="161.272"/>
	<polygon fill="none" stroke="#C8C9CA" stroke-width="0.78" stroke-miterlimit="10" points="219.927,241.903 80.271,161.273 
		179.679,103.88 319.335,184.51 	"/>
	<polygon fill="none" stroke="#C8C9CA" stroke-width="0.78" stroke-miterlimit="10" points="319.336,299.295 219.927,356.689 
		219.927,241.903 319.336,184.509 	"/>
	
		<line fill="none" stroke="#888888" stroke-width="0.78" stroke-miterlimit="10" x1="219.927" y1="299.296" x2="319.336" y2="241.902"/>
	<polygon fill="none" stroke="#C8C9CA" stroke-width="0.78" stroke-miterlimit="10" points="179.68,218.665 80.271,276.059 
		80.271,161.273 179.68,103.879 	"/>
	
		<line fill="none" stroke="#888888" stroke-width="0.78" stroke-miterlimit="10" x1="80.271" y1="218.666" x2="179.68" y2="161.272"/>
	<g>
		<g>
			<rect x="169.651" y="206.294" fill="#FAFAFA" width="20.236" height="19.057"/>
		</g>
		<g opacity="0.5">
			<path fill="#DFA839" d="M188.782,224.245h-5.924v-1.685h0.28c0.393,0,1.207,0,1.6,0l-2.246-6.036l-2.668-7.216l-5.194,13.252
				c0.393,0,0.842,0,1.236,0h0.73v1.685h-5.84v-1.685h0.309c0.477,0,1.236,0,1.712,0l6.29-15.161c0.73,0,1.151,0,1.881,0
				l5.784,15.106c0.478,0,1.292,0,1.769,0h0.28V224.245z M176.12,215.879h6.485l0.533,1.684h-7.075L176.12,215.879z"/>
		</g>
	</g>
	<g>
		<g>
			<rect x="240.555" y="245.382" fill="#FAFAFA" width="19.31" height="19.608"/>
		</g>
		<g opacity="0.5">
			<path fill="#DFA839" d="M258.76,263.885h-5.925v-0.842h0.842c0.393,0,0.814,0,1.207,0l-2.976-7.552l-2.162-5.615l-5.222,13.168
				c0.393,0,0.814,0,1.207,0h0.73v0.842h-4.801v-0.842h0.309c0.477,0,0.954,0,1.432,0l6.795-16.397c0.084-0.225,0.197-0.197,0.28,0
				l6.598,16.397c0.478,0,0.927,0,1.404,0h0.281V263.885z M246.827,255.518h5.615v1.011h-5.727L246.827,255.518z"/>
		</g>
	</g>
	<polyline fill="none" stroke="#C8C9CA" stroke-width="0.78" stroke-miterlimit="10" points="319.336,299.295 269.631,270.6 
		219.927,241.903 	"/>
	<g>
		<g>
			<rect x="169.707" y="149.565" fill="#FAFAFA" width="20.124" height="19.057"/>
		</g>
		<g>
			<path fill="#231815" d="M188.725,167.516h-5.924v-1.404l0.421-0.112c0.421-0.113,1.039-0.225,1.46-0.309l-2.19-5.896
				l-2.668-7.216l-5.138,13.111c0.449,0.085,0.898,0.197,1.319,0.281l0.646,0.14v1.404h-5.84v-1.404l0.478-0.14
				c0.477-0.085,1.095-0.197,1.544-0.281l6.233-15.021c0.73,0,1.151,0,1.881,0l5.728,14.965c0.505,0.085,1.179,0.197,1.656,0.309
				l0.393,0.112V167.516z M176.12,159.15h6.485l0.533,1.6h-7.075L176.12,159.15z"/>
		</g>
		<g>
			<path fill="#231815" d="M188.725,167.516h-5.924v-1.404l0.421-0.112c0.421-0.113,1.039-0.225,1.46-0.309l-2.19-5.896
				l-2.668-7.216l-5.138,13.111c0.449,0.085,0.898,0.197,1.319,0.281l0.646,0.14v1.404h-5.84v-1.404l0.478-0.14
				c0.477-0.085,1.095-0.197,1.544-0.281l6.233-15.021c0.73,0,1.151,0,1.881,0l5.728,14.965c0.505,0.085,1.179,0.197,1.656,0.309
				l0.393,0.112V167.516z M176.12,159.15h6.485l0.533,1.6h-7.075L176.12,159.15z"/>
		</g>
	</g>
	
		<line fill="none" stroke="#888888" stroke-width="0.78" stroke-miterlimit="10" x1="150.099" y1="258.981" x2="249.507" y2="201.588"/>
	<g>
		<g>
			<rect x="240.499" y="191.218" fill="#FAFAFA" width="19.421" height="19.608"/>
		</g>
		<g>
			<path fill="#231815" d="M258.815,209.72h-5.98v-0.702l0.702-0.197c0.393-0.112,0.786-0.252,1.179-0.365l-2.808-7.131
				l-2.162-5.615l-5.054,12.718c0.393,0.141,0.786,0.281,1.179,0.421l0.618,0.169v0.702h-4.885v-0.702l0.505-0.197
				c0.506-0.14,1.011-0.309,1.517-0.449l6.57-15.892c0.084-0.225,0.197-0.197,0.28,0l6.401,15.864
				c0.561,0.197,1.095,0.393,1.657,0.59l0.28,0.085V209.72z M246.827,201.354h5.615v1.011h-5.727L246.827,201.354z"/>
		</g>
		<g>
			<path fill="#231815" d="M258.815,209.72h-5.98v-0.702l0.702-0.197c0.393-0.112,0.786-0.252,1.179-0.365l-2.808-7.131
				l-2.162-5.615l-5.054,12.718c0.393,0.141,0.786,0.281,1.179,0.421l0.618,0.169v0.702h-4.885v-0.702l0.505-0.197
				c0.506-0.14,1.011-0.309,1.517-0.449l6.57-15.892c0.084-0.225,0.197-0.197,0.28,0l6.401,15.864
				c0.561,0.197,1.095,0.393,1.657,0.59l0.28,0.085V209.72z M246.827,201.354h5.615v1.011h-5.727L246.827,201.354z"/>
		</g>
	</g>
	<g>
		<g>
			<rect x="190.824" y="219.39" fill="#FAFAFA" width="19.366" height="19.609"/>
		</g>
		<g>
			<path fill="#231815" d="M209.084,237.893h-5.953v-0.786l0.759-0.085c0.477-0.056,0.87-0.225,1.095-0.477l-2.78-7.048
				l-2.162-5.615l-5.026,12.663c0.225,0.252,0.618,0.421,1.067,0.477l0.702,0.113v0.758h-4.857v-0.758l0.393-0.113
				c0.617-0.084,1.151-0.252,1.628-0.561l6.542-15.808c0.084-0.225,0.197-0.197,0.28,0l6.373,15.808
				c0.478,0.309,1.011,0.506,1.657,0.618l0.281,0.028V237.893z M197.124,229.526h5.615v1.011h-5.727L197.124,229.526z"/>
		</g>
		<g>
			<path fill="#E51373" d="M209.084,237.893h-5.953v-0.786l0.759-0.085c0.477-0.056,0.87-0.225,1.095-0.477l-2.78-7.048
				l-2.162-5.615l-5.026,12.663c0.225,0.252,0.618,0.421,1.067,0.477l0.702,0.113v0.758h-4.857v-0.758l0.393-0.113
				c0.617-0.084,1.151-0.252,1.628-0.561l6.542-15.808c0.084-0.225,0.197-0.197,0.28,0l6.373,15.808
				c0.478,0.309,1.011,0.506,1.657,0.618l0.281,0.028V237.893z M197.124,229.526h5.615v1.011h-5.727L197.124,229.526z"/>
		</g>
	</g>
	<g>
		<g>
			<rect x="120.096" y="178.2" fill="#FAFAFA" width="20.18" height="19.057"/>
		</g>
		<g>
			<path fill="#231815" d="M139.17,196.152h-5.924v-1.488l0.449-0.056c0.477-0.028,1.066-0.197,1.319-0.421l-2.134-5.756
				l-2.668-7.216l-5.082,12.971c0.253,0.225,0.674,0.365,1.152,0.421l0.702,0.056v1.488h-5.784v-1.488l0.533-0.056
				c0.562-0.056,1.18-0.168,1.629-0.421l6.177-14.881c0.702,0,1.095,0,1.797,0l5.672,14.825c0.449,0.253,1.123,0.393,1.685,0.421
				l0.477,0.056V196.152z M126.508,187.785h6.485l0.533,1.572h-7.075L126.508,187.785z"/>
		</g>
		<g>
			<path fill="#231815" d="M139.17,196.152h-5.924v-1.488l0.449-0.056c0.477-0.028,1.066-0.197,1.319-0.421l-2.134-5.756
				l-2.668-7.216l-5.082,12.971c0.253,0.225,0.674,0.365,1.152,0.421l0.702,0.056v1.488h-5.784v-1.488l0.533-0.056
				c0.562-0.056,1.18-0.168,1.629-0.421l6.177-14.881c0.702,0,1.095,0,1.797,0l5.672,14.825c0.449,0.253,1.123,0.393,1.685,0.421
				l0.477,0.056V196.152z M126.508,187.785h6.485l0.533,1.572h-7.075L126.508,187.785z"/>
		</g>
	</g>
	<polygon fill="none" stroke="#C8C9CA" stroke-width="0.78" stroke-miterlimit="10" points="219.927,356.689 80.271,276.059 
		80.271,161.273 219.927,241.903 	"/>
	
		<line fill="none" stroke="#888888" stroke-width="0.78" stroke-miterlimit="10" x1="80.271" y1="218.666" x2="219.927" y2="299.296"/>
	<g>
		<g>
			<rect x="240.001" y="133.025" fill="#FAFAFA" width="19.534" height="19.608"/>
		</g>
		<g opacity="0.5">
			<path fill="#DFA839" d="M258.429,151.528h-6.064v-0.561l0.561-0.365c0.393-0.253,0.786-0.506,1.179-0.759l-2.639-6.71
				l-2.162-5.615l-4.886,12.298c0.366,0.28,0.759,0.533,1.124,0.814l0.533,0.365v0.533h-4.969v-0.533l0.674-0.393
				c0.533-0.309,1.066-0.618,1.6-0.927l6.373-15.386c0.084-0.225,0.197-0.197,0.28,0l6.177,15.358
				c0.646,0.393,1.292,0.759,1.938,1.152l0.28,0.168V151.528z M246.385,143.161H252v1.011h-5.727L246.385,143.161z"/>
		</g>
	</g>
	<g>
		<g>
			<rect x="309.66" y="173.34" fill="#FAFAFA" width="19.731" height="19.608"/>
		</g>
		<g opacity="0.5">
			<path fill="#DFA839" d="M328.285,191.843h-5.644v-0.14l0.421-0.225c0.393-0.197,0.758-0.421,1.151-0.618l-2.92-7.412
				l-2.527-6.542l-5.756,13.954c0.477,0.225,0.926,0.421,1.404,0.646l0.477,0.197v0.14h-4.127v-0.14l0.618-0.253
				c0.477-0.197,0.983-0.393,1.459-0.59l6.739-16.257c0.084-0.225,0.197-0.197,0.28,0l6.542,16.257
				c0.449,0.197,0.927,0.421,1.376,0.618l0.505,0.225V191.843z M315.792,183.897h6.036v0.14h-6.092L315.792,183.897z"/>
		</g>
	</g>
	<g>
		<g>
			<rect x="309.66" y="228.859" fill="#FAFAFA" width="19.815" height="19.608"/>
		</g>
		<g>
			<path fill="#231815" d="M328.37,247.362h-5.644v-0.14l0.337-0.113c0.393-0.112,0.927-0.225,1.32-0.309l-3.089-7.834l-2.527-6.542
				l-5.925,14.375c0.421,0.112,0.871,0.197,1.32,0.309l0.59,0.113v0.14h-3.987v-0.14l0.449-0.141
				c0.505-0.084,0.983-0.197,1.459-0.28l6.907-16.678c0.084-0.225,0.197-0.197,0.28,0l6.711,16.678
				c0.477,0.084,0.926,0.197,1.404,0.309l0.393,0.113V247.362z M315.792,239.417h6.036v0.14h-6.092L315.792,239.417z"/>
		</g>
		<g>
			<path fill="#231815" d="M328.37,247.362h-5.644v-0.14l0.337-0.113c0.393-0.112,0.927-0.225,1.32-0.309l-3.089-7.834l-2.527-6.542
				l-5.925,14.375c0.421,0.112,0.871,0.197,1.32,0.309l0.59,0.113v0.14h-3.987v-0.14l0.449-0.141
				c0.505-0.084,0.983-0.197,1.459-0.28l6.907-16.678c0.084-0.225,0.197-0.197,0.28,0l6.711,16.678
				c0.477,0.084,0.926,0.197,1.404,0.309l0.393,0.113V247.362z M315.792,239.417h6.036v0.14h-6.092L315.792,239.417z"/>
		</g>
	</g>
	<g>
		<g>
			<rect x="140.485" y="190.45" fill="#FAFAFA" width="19.31" height="19.608"/>
		</g>
		<g opacity="0.5">
			<path fill="#DFA839" d="M158.689,208.953h-5.925v-0.842h0.842c0.73,0,1.011-0.449,0.758-1.123l-2.527-6.43l-2.162-5.615
				l-4.773,12.017c-0.281,0.702,0.028,1.151,0.758,1.151h0.758v0.842h-4.829v-0.842h0.309c0.954,0,1.6-0.393,1.965-1.291
				l6.261-15.106c0.084-0.225,0.197-0.197,0.28,0l6.065,15.077c0.365,0.898,0.983,1.319,1.937,1.319h0.281V208.953z
				 M146.757,200.586h5.615v1.011h-5.727L146.757,200.586z"/>
		</g>
	</g>
	<g>
		<g>
			<rect x="210.633" y="228.859" fill="#FAFAFA" width="19.871" height="19.608"/>
		</g>
		<g opacity="0.5">
			<path fill="#DFA839" d="M229.398,247.362h-6.205v-0.14h0.421c1.152,0,1.629-0.702,1.207-1.797l-2.555-6.458l-2.527-6.542
				l-5.391,12.999c-0.449,1.095,0.056,1.797,1.207,1.797h0.308v0.14h-4.127v-0.14h0.056c1.151,0,1.881-0.506,2.33-1.572l6.43-15.527
				c0.084-0.225,0.197-0.197,0.28,0l6.233,15.527c0.421,1.066,1.151,1.572,2.302,1.572h0.028V247.362z M216.764,239.417h6.036v0.14
				h-6.092L216.764,239.417z"/>
		</g>
	</g>
	<g>
		<g>
			<rect x="210.633" y="286.253" fill="#FAFAFA" width="19.871" height="19.608"/>
		</g>
		<g>
			<path fill="#231815" d="M229.398,304.755h-5.924v-0.14h0.365c0.758,0,1.347-0.365,1.347-0.899l-2.92-7.356l-2.527-6.542
				l-5.756,13.898c-0.028,0.534,0.449,0.899,1.235,0.899h0.506v0.14h-3.987v-0.14h0.168c0.842,0,1.432-0.253,1.909-0.786
				l6.739-16.313c0.084-0.225,0.197-0.197,0.28,0l6.57,16.313c0.449,0.533,1.039,0.786,1.853,0.786h0.14V304.755z M216.764,296.81
				h6.036v0.14h-6.092L216.764,296.81z"/>
		</g>
		<g>
			<path fill="#231815" d="M229.398,304.755h-5.924v-0.14h0.365c0.758,0,1.347-0.365,1.347-0.899l-2.92-7.356l-2.527-6.542
				l-5.756,13.898c-0.028,0.534,0.449,0.899,1.235,0.899h0.506v0.14h-3.987v-0.14h0.168c0.842,0,1.432-0.253,1.909-0.786
				l6.739-16.313c0.084-0.225,0.197-0.197,0.28,0l6.57,16.313c0.449,0.533,1.039,0.786,1.853,0.786h0.14V304.755z M216.764,296.81
				h6.036v0.14h-6.092L216.764,296.81z"/>
		</g>
	</g>
	<g>
		<g>
			<rect x="260.337" y="257.556" fill="#FAFAFA" width="19.843" height="19.608"/>
		</g>
		<g>
			<path fill="#231815" d="M279.074,276.059h-5.784v-0.14l0.337-0.056c0.59-0.056,1.151-0.281,1.347-0.618l-3.004-7.581
				l-2.527-6.542l-5.84,14.122c0.197,0.337,0.674,0.561,1.264,0.618l0.561,0.056v0.14h-3.987v-0.14l0.308-0.056
				c0.674-0.056,1.207-0.225,1.685-0.561l6.823-16.481c0.084-0.225,0.197-0.197,0.28,0l6.626,16.481
				c0.478,0.337,0.983,0.505,1.629,0.561l0.28,0.056V276.059z M266.469,268.113h6.036v0.14h-6.092L266.469,268.113z"/>
		</g>
		<g>
			<path fill="#231815" d="M279.074,276.059h-5.784v-0.14l0.337-0.056c0.59-0.056,1.151-0.281,1.347-0.618l-3.004-7.581
				l-2.527-6.542l-5.84,14.122c0.197,0.337,0.674,0.561,1.264,0.618l0.561,0.056v0.14h-3.987v-0.14l0.308-0.056
				c0.674-0.056,1.207-0.225,1.685-0.561l6.823-16.481c0.084-0.225,0.197-0.197,0.28,0l6.626,16.481
				c0.478,0.337,0.983,0.505,1.629,0.561l0.28,0.056V276.059z M266.469,268.113h6.036v0.14h-6.092L266.469,268.113z"/>
		</g>
	</g>
	<g>
		<g>
			<rect x="140.484" y="301.89" fill="#FAFAFA" width="19.31" height="19.608"/>
		</g>
		<g opacity="0.5">
			<path fill="#DFA839" d="M158.689,320.393h-5.925v-0.842h0.842c0.393,0,0.814,0,1.207,0l-2.976-7.552l-2.162-5.615l-5.222,13.167
				c0.393,0,0.814,0,1.207,0h0.73v0.842h-4.801v-0.842h0.309c0.477,0,0.954,0,1.432,0l6.795-16.397c0.084-0.224,0.197-0.197,0.28,0
				l6.598,16.397c0.478,0,0.927,0,1.404,0h0.281V320.393z M146.756,312.026h5.615v1.012h-5.727L146.756,312.026z"/>
		</g>
	</g>
	<g>
		<g>
			<rect x="141.811" y="246.045" fill="#FAFAFA" width="19.31" height="19.608"/>
		</g>
		<g>
			<path fill="#231815" d="M160.016,264.548h-5.925v-0.842h0.842c0.561,0,0.927-0.225,0.983-0.561l-2.751-6.991l-2.162-5.615
				l-4.998,12.578c0.056,0.365,0.421,0.59,0.983,0.59h0.758v0.842h-4.829v-0.842h0.309c0.73,0,1.291-0.197,1.712-0.646l6.514-15.751
				c0.084-0.225,0.197-0.197,0.28,0l6.345,15.723c0.421,0.449,0.955,0.673,1.657,0.673h0.281V264.548z M148.083,256.181h5.615v1.011
				h-5.727L148.083,256.181z"/>
		</g>
		<g>
			<path fill="#231815" d="M160.016,264.548h-5.925v-0.842h0.842c0.561,0,0.927-0.225,0.983-0.561l-2.751-6.991l-2.162-5.615
				l-4.998,12.578c0.056,0.365,0.421,0.59,0.983,0.59h0.758v0.842h-4.829v-0.842h0.309c0.73,0,1.291-0.197,1.712-0.646l6.514-15.751
				c0.084-0.225,0.197-0.197,0.28,0l6.345,15.723c0.421,0.449,0.955,0.673,1.657,0.673h0.281V264.548z M148.083,256.181h5.615v1.011
				h-5.727L148.083,256.181z"/>
		</g>
	</g>
	<g>
		<g>
			<rect x="310.101" y="284.334" fill="#FAFAFA" width="19.871" height="19.608"/>
		</g>
		<g opacity="0.5">
			<path fill="#DFA839" d="M328.866,302.837h-5.643v-0.14h0.28c0.393,0,1.095,0,1.488,0l-3.257-8.255l-2.527-6.542l-6.121,14.796
				c0.393,0,0.842,0,1.236,0h0.73v0.14h-3.847v-0.14h0.309c0.478,0,0.954,0,1.432,0l7.076-17.099c0.084-0.225,0.197-0.197,0.28,0
				l6.879,17.099c0.477,0,0.926,0,1.404,0h0.28V302.837z M316.232,294.891h6.036v0.14h-6.092L316.232,294.891z"/>
		</g>
	</g>
	<g>
		<g>
			<rect x="210.633" y="342.523" fill="#FAFAFA" width="19.871" height="19.608"/>
		</g>
		<g opacity="0.5">
			<path fill="#DFA839" d="M229.398,361.026h-5.643v-0.14h0.28c0.393,0,1.095,0,1.488,0l-3.257-8.255l-2.527-6.542l-6.121,14.796
				c0.393,0,0.842,0,1.236,0h0.73v0.14h-3.847v-0.14h0.308c0.478,0,0.954,0,1.432,0l7.076-17.099c0.084-0.225,0.197-0.197,0.28,0
				l6.879,17.099c0.477,0,0.926,0,1.404,0h0.28V361.026z M216.764,353.08h6.036v0.14h-6.092L216.764,353.08z"/>
		</g>
	</g>
	<g>
		<g>
			<rect x="70.389" y="263.491" fill="#FAFAFA" width="20.236" height="19.057"/>
		</g>
		<g opacity="0.5">
			<path fill="#DFA839" d="M89.519,281.442h-5.924v-1.685h0.28c0.393,0,1.207,0,1.6,0l-2.246-6.036l-2.668-7.216l-5.194,13.252
				c0.393,0,0.842,0,1.236,0h0.73v1.685h-5.84v-1.685h0.309c0.477,0,1.236,0,1.712,0l6.29-15.161c0.73,0,1.151,0,1.881,0
				l5.784,15.106c0.478,0,1.292,0,1.769,0h0.28V281.442z M76.857,273.076h6.485l0.533,1.684h-7.075L76.857,273.076z"/>
		</g>
	</g>
	<g>
		<g>
			<rect x="70.558" y="149.565" fill="#FAFAFA" width="20.152" height="19.057"/>
		</g>
		<g opacity="0.5">
			<path fill="#DFA839" d="M89.604,167.517h-5.925v-1.404h0.674c0.73,0,1.039-0.421,0.786-1.123l-1.909-5.194l-2.668-7.216
				l-4.857,12.41c-0.252,0.673,0.028,1.123,0.759,1.123h0.758v1.404h-5.559v-1.404h0.842c0.786,0,1.32-0.337,1.629-1.095
				l5.952-14.348c0.618,0,0.983,0,1.6,0l5.447,14.291c0.281,0.758,0.814,1.095,1.6,1.095h0.871V167.517z M76.857,159.15h6.485
				l0.533,1.404h-7.075L76.857,159.15z"/>
		</g>
	</g>
	<g>
		<g>
			<rect x="169.984" y="94.429" fill="#FAFAFA" width="20.012" height="19.057"/>
		</g>
		<g opacity="0.5">
			<path fill="#DFA839" d="M188.891,112.381h-5.925v-1.123l0.534-0.225c0.449-0.197,0.898-0.421,1.347-0.618l-2.134-5.756
				l-2.668-7.216l-5.082,12.971c0.478,0.197,0.927,0.393,1.404,0.59l0.562,0.253v1.123h-5.84v-1.123l0.646-0.253
				c0.449-0.197,0.926-0.393,1.376-0.59l6.177-14.881c0.73,0,1.151,0,1.881,0l5.672,14.825c0.505,0.197,1.039,0.421,1.544,0.618
				l0.506,0.225V112.381z M176.34,104.014h6.485l0.533,1.544h-7.075L176.34,104.014z"/>
		</g>
	</g>
	<g>
		<g>
			<rect x="70.473" y="206.293" fill="#FAFAFA" width="20.208" height="19.057"/>
		</g>
		<g>
			<path fill="#231815" d="M89.576,224.245h-5.924v-1.544h0.477c0.561,0,1.123-0.225,1.179-0.561l-2.077-5.615l-2.668-7.216
				l-5.026,12.831c0.085,0.337,0.449,0.561,1.011,0.561h0.73v1.544h-5.699v-1.544h0.59c0.618,0,1.264-0.168,1.657-0.561l6.12-14.741
				c0.674,0,1.067,0,1.741,0l5.615,14.684c0.393,0.393,1.067,0.561,1.685,0.561h0.59V224.245z M76.857,215.878h6.485l0.533,1.544
				h-7.075L76.857,215.878z"/>
		</g>
		<g>
			<path fill="#231815" d="M89.576,224.245h-5.924v-1.544h0.477c0.561,0,1.123-0.225,1.179-0.561l-2.077-5.615l-2.668-7.216
				l-5.026,12.831c0.085,0.337,0.449,0.561,1.011,0.561h0.73v1.544h-5.699v-1.544h0.59c0.618,0,1.264-0.168,1.657-0.561l6.12-14.741
				c0.674,0,1.067,0,1.741,0l5.615,14.684c0.393,0.393,1.067,0.561,1.685,0.561h0.59V224.245z M76.857,215.878h6.485l0.533,1.544
				h-7.075L76.857,215.878z"/>
		</g>
	</g>
	<polygon opacity="0.2" fill="#E7AC35" points="219.927,299.296 319.336,241.902 179.68,161.272 80.271,218.666 	"/>
</g>
</svg>
