<svg id="レイヤー_1" data-name="レイヤー 1" xmlns="http://www.w3.org/2000/svg" viewBox="0 0 1025.99 578.56"><defs><style>.cls-1{fill:#c8c9ca;}.cls-2{fill:none;}.cls-3{fill:#231815;}.cls-4{fill:#f1b130;}</style></defs><title>アートボード 1</title><path class="cls-1" d="M186.53,91.55c3.75,9.79,8.71,23.1,11.5,26.85,1.33,1.94,3.87,2.42,6.29,2.66v2.06a34.49,34.49,0,0,0-3.75-.24c-1.33-.12-3-.12-5.57-.12-7.14,0-12.1.48-14,.6v-1.93c2.54-.48,5.93-1.21,5.93-3.87,0-2.42-2.18-8.34-2.66-9.43l-4.36-11.85a85.83,85.83,0,0,0-11.13-.48H164a69.1,69.1,0,0,0-12.35.73l-4.36,10.88c-2.3,5.44-2.9,7-2.9,8.59,0,2.42,1.09,4.47,9.44,5.68v1.94c-1.45-.24-2.9-.36-4.72-.6s-4.12-.24-7-.24c-4.24,0-7.87.24-10.77.48v-1.69a12.19,12.19,0,0,0,5.45-2.78c2.9-2.42,10.17-19.59,12-24.55l9.44-22.61c3.51-8.1,7.5-17.17,9.92-25.88h1.94c1.82,6.65,2.78,9.19,4,12.58Zm-31-4.23a41.82,41.82,0,0,1-1.82,4.6,76.39,76.39,0,0,0,10.29.73l5.45-.12c1.09,0,6.9-.12,8.84-.24-.48-1.33-2.06-5.93-2.66-7.13L171.4,74.26c-.73-2.06-4.6-10.76-5.57-12.82-1.33,3-3,7.38-3.63,8.71Z"/><path class="cls-1" d="M321.07,123.11q-3.39,0-7.13.12l-7.25.23a7.16,7.16,0,0,1-.23-1.75,1.41,1.41,0,0,1,.7-1.4l3-.47a4.76,4.76,0,0,0,2.57-1,2.42,2.42,0,0,0,.58-1.69,6.79,6.79,0,0,0-.35-1.75q-.35-1.17-.82-2.57t-1-2.86q-.53-1.46-1-2.63l-4.56-12.26a1.39,1.39,0,0,0-.82-.7H279a1.39,1.39,0,0,0-.82.7l-4.09,12.26Q273.5,109,273,111a15,15,0,0,0-.53,3.85,6,6,0,0,0,.88,3.27,4.29,4.29,0,0,0,3.21,1.75l3,.47a1.41,1.41,0,0,1,.7,1.4,7.25,7.25,0,0,1-.23,1.75q-3.62-.12-6.25-.23t-5.78-.12q-2.92,0-5.43.12t-6,.23a7.18,7.18,0,0,1-.23-1.75,1.41,1.41,0,0,1,.7-1.4l2.57-.58a9.45,9.45,0,0,0,2.22-1,7.48,7.48,0,0,0,2-2,21,21,0,0,0,2-3.62,57.64,57.64,0,0,0,2.22-5.78l18.35-53.24a12.6,12.6,0,0,0,.94-3.85,6.49,6.49,0,0,0-.23-1.28,3,3,0,0,1,1.75-1.81A14,14,0,0,0,292.2,45a22.72,22.72,0,0,0,2.57-2.51,2.49,2.49,0,0,1,2-1,2.1,2.1,0,0,1,1.05.35q.7,2.57,1.93,6.19t3.92,10l19.52,49.27q1.4,3.5,2.4,5.72a22,22,0,0,0,1.93,3.56,8.16,8.16,0,0,0,1.93,2,7.18,7.18,0,0,0,2.28,1.05l2.81.58a1.36,1.36,0,0,1,.93,1.4,7.27,7.27,0,0,1-.23,1.75l-7.13-.23Q324.46,123.11,321.07,123.11ZM302.25,88.9a3,3,0,0,0,.7-.7l-11.8-31.87h-.23L280.4,88.2a1.48,1.48,0,0,0,.7.7Z"/><path class="cls-1" d="M438.24,94.61H408.85l-2,4.9q-4.45,10.66-4.45,13.91a6.21,6.21,0,0,0,2.37,5.27,9.78,9.78,0,0,0,6.08,1.8v2.62h-23v-2.62q5.14-.8,7.65-3.62t6-11.89q.28-.85,2.74-6.61l22.48-53.65H429l25.85,61.4,3.54,8.1a10.75,10.75,0,0,0,3.22,4.3,11.78,11.78,0,0,0,6.08,2v2.62H437.27v-2.62q5.59,0,7.56-.83a3.2,3.2,0,0,0,2-3.28q0-1.25-2.62-7.47Zm-1-2.57-13.69-33L409.94,92Z"/><path class="cls-1" d="M517.52,124.45h9.55l29.3-77.62H559l29.52,77.62h9.66V126H564.72v-1.52h12L565.37,94.31H540.2L528.8,124.45h12V126H517.52Zm35.27-63.21L540.85,92.79h23.87Z"/><path class="cls-1" d="M696.88,47.39l21,61.65q.93,2.8,1.69,4.5a9.53,9.53,0,0,0,1.64,2.63,4.12,4.12,0,0,0,2,1.23,11.66,11.66,0,0,0,2.8.29h6.19V126H689v-8.29h7.83q6.43,0,6.43-3.27a24.63,24.63,0,0,0-1.52-5.37L699,101.1H672.8L670.35,109a25.82,25.82,0,0,0-1.05,3.62,12.54,12.54,0,0,0-.23,2.22q0,2.8,4,2.8h9.47V126H643.59v-8.29h4.56a17.41,17.41,0,0,0,3.56-.29,7,7,0,0,0,2.63-1.23,5.13,5.13,0,0,0,.82-.76,5.51,5.51,0,0,0,.7-1.11q.35-.7.88-1.93T658,109l22-61.65ZM686,61.87,675.72,92.81h21.15Z"/><path class="cls-1" d="M838.15,98.09h-28.6l-6.07,18h9.64V126H781.86V116h9.6l21.67-60.43h-9.65v-9h40.57v9h-9.87L856.4,116h8.88V126h-31.1V116h9.87Zm-3-9.29L824.6,55.62h-1.08l-11,33.18Z"/><path class="cls-1" d="M959.82,126V123l9.12-4.44L960.4,94.09H935.28l-9,24.52,9,4.44V126H909.33V123l9-4.44L948.25,46h6.66L981,118.61l8.88,4.44V126ZM952,69.8c-1.87-5.37-2.1-6.19-3.39-10.63L937.15,89.3h21.27Z"/><rect class="cls-2" x="129.89" y="24.56" width="860" height="140"/><path class="cls-3" d="M204.42,236.46H177.56v-3.82h3.82c3.31,0,4.58-2,3.44-5.1l-11.46-29.17-9.8-25.48-21.64,54.52c-1.27,3.18.13,5.22,3.44,5.22h3.44v3.82h-21.9v-3.82h1.4c4.33,0,7.26-1.78,8.91-5.86l28.39-68.53c.38-1,.89-.89,1.27,0l27.5,68.4c1.66,4.08,4.46,6,8.79,6h1.27Zm-54.11-38h25.46v4.58h-26Z"/><path class="cls-3" d="M333.14,236.46H306v-3.18l3.18-.89a5,5,0,0,0,4.33-4.2l-11.71-29.81L292,172.9l-21.9,55.16a5.24,5.24,0,0,0,4.33,4.46l2.93.76v3.18H255.09v-3.18l2.29-.89a12.8,12.8,0,0,0,8-5l28.65-69.17c.38-1,.89-.89,1.27,0l27.76,69a15.51,15.51,0,0,0,8.78,5.6l1.27.38Zm-54.37-38h25.46v4.58h-26Z"/><path class="cls-3" d="M465.93,236.46H437.79v-.64h1.91c5.22,0,7.38-3.18,5.47-8.15l-11.59-29.3-11.46-29.68-24.45,59c-2,5,.25,8.15,5.47,8.15h1.4v.64H385.85v-.64h.25c5.22,0,8.53-2.29,10.57-7.13l29.16-70.44c.38-1,.89-.89,1.27,0l28.26,70.44c1.91,4.84,5.22,7.13,10.44,7.13h.13Zm-57.29-36H436V201H408.38Z"/><path class="cls-3" d="M596.68,236.46H571.09v-.64h8l-14.77-37.45-11.46-29.68-27.76,67.13H534v.64H516.6v-.64h7.89l32.08-77.57c.38-1,.89-.89,1.27,0L589,235.82h7.64Zm-57.29-36h27.37V201H539.14Z"/><path class="cls-3" d="M729,236.46H702.1v-6.37h3.06c3.31,0,4.71-1.91,3.56-5.09l-8.66-23.57L688,168.69l-22,56.3c-1.15,3.06.13,5.09,3.44,5.09h3.44v6.37H647.61v-6.37h3.82a7.26,7.26,0,0,0,7.38-5l27-65.09h7.26l24.7,64.84c1.27,3.44,3.69,5,7.26,5H729Zm-57.8-38h29.41l2.42,6.37H670.91Z"/><path class="cls-3" d="M864.56,236.46H837.69v-7.64h8.53L836,201.43l-12.1-32.74-23.55,60.12h8.91v7.64H782.82v-7.64H792L820.5,160H829l26.23,68.53h9.29Zm-57.42-38h29.41l2.42,7.64H806.88Z"/><path class="cls-3" d="M989.32,236.46h-27.5v-2.55l2.55-1.66,5.35-3.44-12-30.44-9.8-25.48-22.15,55.79c1.66,1.27,3.44,2.42,5.09,3.69L933.3,234v2.42H910.77V234l3.06-1.78,7.26-4.2,28.9-69.8c.38-1,.89-.89,1.27,0l28,69.68c2.93,1.78,5.86,3.44,8.79,5.22l1.27.76Zm-54.62-38h25.46v4.58h-26Z"/><rect class="cls-2" x="126.89" y="134.56" width="862" height="134"/><path class="cls-4" d="M205.89,326.21A27.92,27.92,0,1,1,178,298.44a27.84,27.84,0,0,1,27.92,27.76"/><path class="cls-3" d="M166.14,316.4c2.06,5.45-.23,9.09-6.17,9.09h-6.86v6.82h48.22v-6.82H199c-7.77,0-12.8-3.41-15.77-10.68L167.58,276H150.17Z"/><path class="cls-4" d="M326.89,325.21a27.79,27.79,0,1,1-27.79-27.76,27.77,27.77,0,0,1,27.79,27.76"/><path class="cls-3" d="M288.81,316.54c-.45,3.64-3.18,6.59-7.73,7.5l-5.69,1.59v5.68h48.44v-5.68l-2.27-.68a27.71,27.71,0,0,1-15.69-10l-15.31-38H273.22Z"/><path class="cls-4" d="M459.89,325.94a28,28,0,1,1-28-27.88,27.92,27.92,0,0,1,28,27.88"/><path class="cls-3" d="M420.53,316.32c3.43,8.9-.46,14.6-9.84,14.6h-3.43v1.14h50.58v-1.14h-.23c-9.38,0-15.33-4.11-18.77-12.78L422.65,278H405.3Z"/><path class="cls-4" d="M593.89,325.94A27.84,27.84,0,1,1,566,298.06a27.86,27.86,0,0,1,27.84,27.88"/><path class="cls-3" d="M557.74,330.92H543.39v1.14h45.79v-1.14H575.51l-19.83-49.37H538.29Z"/><path class="cls-4" d="M724.89,326.21A27.88,27.88,0,1,1,697,298.44a27.82,27.82,0,0,1,27.87,27.76"/><path class="cls-3" d="M684.48,311.86c2.05,5.68-.46,9.09-6.39,9.09h-5.47v11.36h48.13V320.49h-7.07c-6.39,0-10.72-2.73-13-8.86l-11.89-31.07H672.93Z"/><path class="cls-4" d="M853.89,325.41a28.27,28.27,0,1,1-28.27-28.11,28.19,28.19,0,0,1,28.27,28.11"/><path class="cls-3" d="M816.44,317.79h-15.5v13.8h48.82V317.33H832.87L818.4,279.75H802.21Z"/><path class="cls-4" d="M977.89,325.41a28.12,28.12,0,1,1-28.12-28.11,28.12,28.12,0,0,1,28.12,28.11"/><path d="M939.38,317.79,929.72,324l-4.6,3v4.6h49.71V327l-2.3-1.38c-5.29-3.22-10.59-6.21-15.88-9.43L940.09,275H922.57Z"/><path d="M137.09,383.37c-.51-1.23-.84-1.69-1.78-1.8l-.4,0a.37.37,0,0,1,0-.55c.64,0,1.34.07,2.29.07s1.74,0,2.66-.07a.38.38,0,0,1,0,.55l-.33,0c-.84.11-1,.24-1,.42a27.69,27.69,0,0,0,1.1,3.08c1,2.55,2,5.08,3.12,7.59.68-1.45,1.61-3.72,2.11-4.88.64-1.5,1.67-4,2-4.93a2.34,2.34,0,0,0,.2-.86c0-.15-.22-.33-1-.42l-.4,0a.38.38,0,0,1,0-.55c.62,0,1.45.07,2.29.07s1.41,0,2.13-.07a.43.43,0,0,1,0,.55l-.66,0a1.41,1.41,0,0,0-1.14.77A53,53,0,0,0,146,387.4l-1.19,2.71c-.88,2-1.91,4.58-2.29,5.74a.44.44,0,0,1-.24.07.88.88,0,0,1-.33-.07,25.74,25.74,0,0,0-1-2.93Z"/><path d="M150.42,389.93c-.57,0-.59,0-.59.59,0,2.22,1.3,4.12,3.65,4.12a2.37,2.37,0,0,0,2-1.08.29.29,0,0,1,.4.26,3.85,3.85,0,0,1-3.45,2,3.94,3.94,0,0,1-3.19-1.45,4.67,4.67,0,0,1-.92-2.86c0-2.71,1.78-5,4.42-5a2.88,2.88,0,0,1,3.12,2.62,1.35,1.35,0,0,1-.09.57c-.07.13-.37.15-1.3.15Zm1.36-.66c1.63,0,2.11-.09,2.29-.22s.13-.13.13-.42c0-.62-.42-1.39-1.69-1.39a2.58,2.58,0,0,0-2.44,1.91s0,.11.15.11Z"/><path d="M158.43,389.24c0-.86,0-1-.59-1.36l-.2-.13a.3.3,0,0,1,0-.4,12,12,0,0,0,2.2-1.08.26.26,0,0,1,.24.15c0,.51,0,.84,0,1a.23.23,0,0,0,.24.24,6,6,0,0,1,3.08-1.12,2.44,2.44,0,0,1,2.57,2.73v3.78c0,1.58,0,1.8.84,1.92l.48.07a.39.39,0,0,1,0,.55c-.66,0-1.3-.07-2.07-.07s-1.45,0-2,.07a.39.39,0,0,1,0-.55l.42-.07c.81-.13.84-.33.84-1.92v-3.28a1.91,1.91,0,0,0-2.07-2.18,2.4,2.4,0,0,0-1.87.77,1.85,1.85,0,0,0-.33,1.32v3.37c0,1.58,0,1.78.84,1.92l.4.07a.39.39,0,0,1,0,.55c-.59,0-1.23-.07-2-.07s-1.45,0-2.07.07a.39.39,0,0,1,0-.55l.46-.07c.81-.11.84-.33.84-1.92Z"/><path d="M170.68,389.93c-.57,0-.59,0-.59.59,0,2.22,1.3,4.12,3.65,4.12a2.37,2.37,0,0,0,2-1.08.29.29,0,0,1,.4.26,3.85,3.85,0,0,1-3.45,2,3.94,3.94,0,0,1-3.19-1.45,4.67,4.67,0,0,1-.92-2.86c0-2.71,1.78-5,4.42-5a2.88,2.88,0,0,1,3.12,2.62,1.35,1.35,0,0,1-.09.57c-.07.13-.37.15-1.3.15Zm1.36-.66c1.63,0,2.11-.09,2.29-.22s.13-.13.13-.42c0-.62-.42-1.39-1.69-1.39a2.58,2.58,0,0,0-2.44,1.91s0,.11.15.11Z"/><path d="M180.49,387.81c-.37,0-.4.07-.4.53v4.11c0,1.28.15,2.44,1.61,2.44a1.67,1.67,0,0,0,.59-.11c.2-.07.48-.31.55-.31s.26.24.22.37a3,3,0,0,1-2.31,1c-1.89,0-2.29-1.06-2.29-2.38v-5c0-.59,0-.64-.46-.64h-.62a.37.37,0,0,1-.07-.46,4.36,4.36,0,0,0,1.41-.68,5.43,5.43,0,0,0,.92-1.3c.11,0,.37,0,.46.11v1c0,.4,0,.42.4.42H183a.7.7,0,0,1,0,.92Z"/><path d="M185.44,389.24c0-.86,0-1-.59-1.36l-.2-.13a.3.3,0,0,1,0-.4,15.09,15.09,0,0,0,2.27-1.08c.11,0,.2,0,.22.13,0,.77-.09,1.83-.09,2.73v4c0,1.58,0,1.8.84,1.92l.46.07a.39.39,0,0,1,0,.55c-.66,0-1.3-.07-2.07-.07s-1.45,0-2.07.07a.39.39,0,0,1,0-.55l.46-.07c.81-.11.84-.33.84-1.92Zm1.83-6.27a1.14,1.14,0,0,1-2.29,0,1.14,1.14,0,0,1,1.19-1.19A1.1,1.1,0,0,1,187.27,383Z"/><path d="M194.16,391c.33-.11.37-.31.37-.64l0-1c0-.81-.24-1.91-1.61-1.91-.62,0-1.36.31-1.41,1,0,.35,0,.62-.22.75a2.37,2.37,0,0,1-1.25.42.28.28,0,0,1-.31-.31c0-1.14,2.49-2.71,4.09-2.71s2.35.92,2.29,2.57L196,393c0,1,.15,1.91,1,1.91a1.27,1.27,0,0,0,.55-.13c.11-.07.22-.15.29-.15s.15.13.15.29a2.31,2.31,0,0,1-1.85,1,1.76,1.76,0,0,1-1.43-.68c-.09-.13-.22-.31-.35-.31a3.36,3.36,0,0,0-.86.44,3.25,3.25,0,0,1-1.58.55,2.28,2.28,0,0,1-1.54-.51,2.06,2.06,0,0,1-.68-1.54c0-.86.42-1.36,1.83-1.87Zm-1.36,3.87a2.48,2.48,0,0,0,1.34-.55c.26-.26.26-.57.29-1l0-1.3c0-.24-.09-.29-.22-.29a4.16,4.16,0,0,0-.9.22c-1.3.44-1.94.77-1.94,1.63A1.33,1.33,0,0,0,192.79,394.88Z"/><path d="M200,389.24c0-.86,0-1-.59-1.36l-.2-.13a.3.3,0,0,1,0-.4,12,12,0,0,0,2.2-1.08.26.26,0,0,1,.24.15c0,.51,0,.84,0,1a.23.23,0,0,0,.24.24,6,6,0,0,1,3.08-1.12,2.44,2.44,0,0,1,2.57,2.73v3.78c0,1.58,0,1.8.84,1.92l.48.07a.39.39,0,0,1,0,.55c-.66,0-1.3-.07-2.07-.07s-1.45,0-2,.07a.39.39,0,0,1,0-.55L205,395c.81-.13.84-.33.84-1.92v-3.28a1.91,1.91,0,0,0-2.07-2.18,2.4,2.4,0,0,0-1.87.77,1.85,1.85,0,0,0-.33,1.32v3.37c0,1.58,0,1.78.84,1.92l.4.07a.39.39,0,0,1,0,.55c-.59,0-1.23-.07-2-.07s-1.45,0-2.07.07a.39.39,0,0,1,0-.55l.46-.07c.81-.11.84-.33.84-1.92Z"/><path d="M256.9,388.45a7.61,7.61,0,0,1,7.83-7.77,7.24,7.24,0,0,1,7.64,7.55,7.51,7.51,0,0,1-7.64,7.68C259.85,395.91,256.9,392.41,256.9,388.45Zm13.27.46c0-3.63-1.61-7.55-5.81-7.55-2.29,0-5.26,1.56-5.26,6.38,0,3.26,1.58,7.48,5.92,7.48C267.66,395.23,270.17,393.25,270.17,388.91Z"/><path d="M276.7,393.09c0,1.58,0,1.8.84,1.92l.53.07a.39.39,0,0,1,0,.55c-.73,0-1.36-.07-2.13-.07s-1.45,0-2.11.07a.39.39,0,0,1,0-.55l.51-.07c.81-.11.84-.33.84-1.92v-9.95c0-1.3,0-1.43-.68-1.83l-.22-.13a.34.34,0,0,1,0-.44,15.62,15.62,0,0,0,2.38-.92.24.24,0,0,1,.22.13c0,.66-.07,1.76-.07,2.73Z"/><path d="M287.9,392.35c0,1.74,0,2.55.64,2.55a3.62,3.62,0,0,0,.95-.22c.15,0,.18.59,0,.7a16.5,16.5,0,0,0-2.9.7c-.13,0-.24-.07-.24-.18v-.37a2.45,2.45,0,0,0,0-.68h-.09a4.58,4.58,0,0,1-2.77,1,4,4,0,0,1-4.07-4.22,5,5,0,0,1,5.32-5.06,4.52,4.52,0,0,1,1.47.2c.11,0,.13-.13.13-.31v-3.32c0-1.3,0-1.43-.68-1.83l-.22-.13a.34.34,0,0,1,0-.44,15.58,15.58,0,0,0,2.38-.92.24.24,0,0,1,.22.13c0,.66-.07,1.76-.07,2.73Zm-1.63-3.3a1.29,1.29,0,0,0-.24-.86,2.3,2.3,0,0,0-1.85-.92c-2,0-3,1.74-3,3.65s1.12,3.89,3.28,3.89a2.69,2.69,0,0,0,1.69-.62,1.33,1.33,0,0,0,.15-.81Z"/><path d="M300.2,395.91a6.87,6.87,0,0,1-3.43-.81,10.16,10.16,0,0,1-.59-3.08c.11-.15.44-.2.53-.07a4,4,0,0,0,3.78,3.28,2.5,2.5,0,0,0,2.75-2.53,3.31,3.31,0,0,0-1.8-3.08l-2.09-1.36a4.69,4.69,0,0,1-2.38-3.79c0-2.09,1.63-3.78,4.49-3.78a8.49,8.49,0,0,1,2,.29,3,3,0,0,0,.77.13,9.63,9.63,0,0,1,.4,2.68c-.09.13-.44.2-.55.07a2.88,2.88,0,0,0-3-2.49,2.31,2.31,0,0,0-2.62,2.44,3.46,3.46,0,0,0,1.87,2.71l1.76,1.1a5,5,0,0,1,2.75,4.22C304.88,394.26,303.06,395.91,300.2,395.91Z"/><path d="M309.48,387.81c-.37,0-.4.07-.4.53v4.11c0,1.28.15,2.44,1.61,2.44a1.67,1.67,0,0,0,.59-.11c.2-.07.48-.31.55-.31s.26.24.22.37a3,3,0,0,1-2.31,1c-1.89,0-2.29-1.06-2.29-2.38v-5c0-.59,0-.64-.46-.64h-.62a.37.37,0,0,1-.07-.46,4.36,4.36,0,0,0,1.41-.68,5.43,5.43,0,0,0,.92-1.3c.11,0,.37,0,.46.11v1c0,.4,0,.42.4.42h2.44a.7.7,0,0,1,0,.92Z"/><path d="M312.8,400.09a.82.82,0,0,1,.88-.88h.42a.8.8,0,0,0,.73-.4,14.05,14.05,0,0,0,1.28-2.44,3.35,3.35,0,0,0,.22-.95,4.18,4.18,0,0,0-.37-1.52l-1.72-4.71c-.37-1-.53-1.56-1.3-1.72l-.55-.11c-.13-.11-.11-.48.07-.55.7,0,1.36.07,2.09.07s1.21,0,1.91-.07c.18.07.2.44,0,.55l-.55.11c-.31.07-.48.13-.48.29a16.69,16.69,0,0,0,.64,2.07l.7,2a12.25,12.25,0,0,0,.64,1.56,10.71,10.71,0,0,0,.81-1.63l.75-1.74a10.2,10.2,0,0,0,.77-2.2c0-.15-.13-.31-.53-.37l-.68-.11c-.15-.11-.13-.48,0-.55.7,0,1.36.07,1.94.07s1.06,0,1.67-.07a.37.37,0,0,1,0,.55l-.37.07c-.73.13-1.12.77-1.87,2.33l-1.23,2.53c-.73,1.47-2.53,5.3-3.61,7.7a1.46,1.46,0,0,1-1.41,1A.88.88,0,0,1,312.8,400.09Z"/><path d="M325.47,393.09c0,1.58,0,1.8.84,1.92l.53.07a.39.39,0,0,1,0,.55c-.73,0-1.36-.07-2.13-.07s-1.45,0-2.11.07a.39.39,0,0,1,0-.55L323,395c.81-.11.84-.33.84-1.92v-9.95c0-1.3,0-1.43-.68-1.83l-.22-.13a.34.34,0,0,1,0-.44,15.6,15.6,0,0,0,2.38-.92.24.24,0,0,1,.22.13c0,.66-.07,1.76-.07,2.73Z"/><path d="M330.2,389.93c-.57,0-.59,0-.59.59,0,2.22,1.3,4.12,3.65,4.12a2.37,2.37,0,0,0,2-1.08.29.29,0,0,1,.4.26,3.85,3.85,0,0,1-3.45,2,3.94,3.94,0,0,1-3.19-1.45,4.67,4.67,0,0,1-.92-2.86c0-2.71,1.78-5,4.42-5a2.88,2.88,0,0,1,3.12,2.62,1.35,1.35,0,0,1-.09.57c-.07.13-.37.15-1.3.15Zm1.36-.66c1.63,0,2.11-.09,2.29-.22s.13-.13.13-.42c0-.62-.42-1.39-1.69-1.39a2.58,2.58,0,0,0-2.44,1.91s0,.11.15.11Z"/><path d="M389.54,391.82c0,.66,0,3.28.07,3.85a.4.4,0,0,1-.42.24c-.26-.37-.9-1.14-2.82-3.32l-5.1-5.81c-.59-.68-2.09-2.49-2.55-3h0a5.58,5.58,0,0,0-.11,1.43V390c0,1,0,3.89.4,4.55.13.24.57.37,1.12.42l.68.07a.4.4,0,0,1,0,.55c-1,0-1.76-.07-2.57-.07s-1.52,0-2.29.07a.41.41,0,0,1,0-.55l.59-.07c.51-.07.86-.2,1-.44a21.24,21.24,0,0,0,.29-4.53v-6.36a2,2,0,0,0-.48-1.58,2.38,2.38,0,0,0-1.36-.53l-.37,0a.38.38,0,0,1,0-.55c.92.07,2.09.07,2.49.07a7.12,7.12,0,0,0,1-.07c.44,1.12,3,4,3.76,4.84l2.13,2.4c1.52,1.69,2.6,2.93,3.63,4h0a2.22,2.22,0,0,0,.09-.92v-4.71c0-1,0-3.89-.44-4.55-.13-.2-.48-.33-1.36-.44l-.37,0c-.15-.13-.13-.48,0-.55,1,0,1.76.07,2.6.07s1.52,0,2.27-.07a.39.39,0,0,1,0,.55l-.31,0c-.7.11-1.14.29-1.23.46-.37.79-.33,3.52-.33,4.53Z"/><path d="M394.34,389.93c-.57,0-.59,0-.59.59,0,2.22,1.3,4.12,3.65,4.12a2.37,2.37,0,0,0,2-1.08.29.29,0,0,1,.4.26,3.85,3.85,0,0,1-3.45,2,3.94,3.94,0,0,1-3.19-1.45,4.67,4.67,0,0,1-.92-2.86c0-2.71,1.78-5,4.42-5a2.88,2.88,0,0,1,3.12,2.62,1.35,1.35,0,0,1-.09.57c-.07.13-.37.15-1.3.15Zm1.36-.66c1.63,0,2.11-.09,2.29-.22s.13-.13.13-.42c0-.62-.42-1.39-1.69-1.39a2.58,2.58,0,0,0-2.44,1.91s0,.11.15.11Z"/><path d="M410.11,391.14a4.49,4.49,0,0,1-4.64,4.73,4.35,4.35,0,0,1-4.51-4.53,4.62,4.62,0,0,1,4.69-4.75A4.4,4.4,0,0,1,410.11,391.14Zm-4.73-3.89c-1.45,0-2.53,1.39-2.53,3.81,0,2,.9,4.16,2.84,4.16s2.53-2,2.53-3.72C408.22,389.62,407.47,387.24,405.38,387.24Z"/><path d="M420.12,382.56a9.48,9.48,0,0,1,5.94-1.87,17,17,0,0,1,3.9.53,1.68,1.68,0,0,0,.62.09c0,.51.13,1.89.31,3.23a.46.46,0,0,1-.59,0c-.33-1.5-1.32-3.21-4.51-3.21-3.37,0-6.23,2.13-6.23,6.69s2.93,7.17,6.54,7.17a4.69,4.69,0,0,0,4.6-3.15.46.46,0,0,1,.57.09,8.26,8.26,0,0,1-1.06,3,4.45,4.45,0,0,0-.77.22,12.94,12.94,0,0,1-3.48.51,9.64,9.64,0,0,1-5.48-1.47,7.09,7.09,0,0,1-3.12-6.05A7.31,7.31,0,0,1,420.12,382.56Z"/><path d="M435.26,393.09c0,1.58,0,1.8.84,1.92l.53.07a.39.39,0,0,1,0,.55c-.73,0-1.36-.07-2.13-.07s-1.45,0-2.11.07a.39.39,0,0,1,0-.55l.51-.07c.81-.11.84-.33.84-1.92v-9.95c0-1.3,0-1.43-.68-1.83l-.22-.13a.34.34,0,0,1,0-.44,15.62,15.62,0,0,0,2.38-.92.24.24,0,0,1,.22.13c0,.66-.07,1.76-.07,2.73Z"/><path d="M442.34,391c.33-.11.37-.31.37-.64l0-1c0-.81-.24-1.91-1.61-1.91-.62,0-1.36.31-1.41,1,0,.35,0,.62-.22.75a2.37,2.37,0,0,1-1.25.42.28.28,0,0,1-.31-.31c0-1.14,2.49-2.71,4.09-2.71s2.35.92,2.29,2.57l-.13,3.83c0,1,.15,1.91,1,1.91a1.27,1.27,0,0,0,.55-.13c.11-.07.22-.15.29-.15s.15.13.15.29a2.31,2.31,0,0,1-1.85,1,1.76,1.76,0,0,1-1.43-.68c-.09-.13-.22-.31-.35-.31a3.36,3.36,0,0,0-.86.44,3.25,3.25,0,0,1-1.58.55,2.28,2.28,0,0,1-1.54-.51,2.06,2.06,0,0,1-.68-1.54c0-.86.42-1.36,1.83-1.87ZM441,394.88a2.48,2.48,0,0,0,1.34-.55c.26-.26.26-.57.29-1l0-1.3c0-.24-.09-.29-.22-.29a4.17,4.17,0,0,0-.9.22c-1.3.44-1.94.77-1.94,1.63A1.33,1.33,0,0,0,441,394.88Z"/><path d="M452,387a5.13,5.13,0,0,1,.35,1.78.38.38,0,0,1-.53.07,2.15,2.15,0,0,0-1.94-1.61,1.3,1.3,0,0,0-1.41,1.34c0,.9.92,1.39,1.69,1.83,1.17.66,2.24,1.41,2.24,3s-1.54,2.51-3.17,2.51a3.66,3.66,0,0,1-2.35-.66,6.54,6.54,0,0,1-.26-2.22.37.37,0,0,1,.51,0c.37,1.21,1.08,2.27,2.33,2.27a1.36,1.36,0,0,0,1.47-1.41c0-1-.88-1.56-1.69-2-1.28-.73-2.18-1.5-2.18-2.71,0-1.61,1.32-2.51,3-2.51A3.89,3.89,0,0,1,452,387Z"/><path d="M459.15,387a5.13,5.13,0,0,1,.35,1.78.38.38,0,0,1-.53.07,2.15,2.15,0,0,0-1.94-1.61,1.3,1.3,0,0,0-1.41,1.34c0,.9.92,1.39,1.69,1.83,1.17.66,2.24,1.41,2.24,3s-1.54,2.51-3.17,2.51a3.66,3.66,0,0,1-2.35-.66,6.54,6.54,0,0,1-.26-2.22.37.37,0,0,1,.51,0c.37,1.21,1.08,2.27,2.33,2.27a1.36,1.36,0,0,0,1.47-1.41c0-1-.88-1.56-1.69-2-1.28-.73-2.18-1.5-2.18-2.71,0-1.61,1.32-2.51,3-2.51A3.89,3.89,0,0,1,459.15,387Z"/><path d="M462.38,389.24c0-.86,0-1-.59-1.36l-.2-.13a.3.3,0,0,1,0-.4,15.09,15.09,0,0,0,2.27-1.08c.11,0,.2,0,.22.13,0,.77-.09,1.83-.09,2.73v4c0,1.58,0,1.8.84,1.92l.46.07a.39.39,0,0,1,0,.55c-.66,0-1.3-.07-2.07-.07s-1.45,0-2.07.07a.39.39,0,0,1,0-.55l.46-.07c.81-.11.84-.33.84-1.92Zm1.83-6.27a1.14,1.14,0,0,1-2.29,0,1.14,1.14,0,0,1,1.19-1.19A1.1,1.1,0,0,1,464.21,383Z"/><path d="M474,387a1.25,1.25,0,0,1,.33.88c0,.4-.22.81-.48.81a.38.38,0,0,1-.31-.15,3,3,0,0,0-2.2-1.17c-1.54,0-3,1.21-3,3.54a3.62,3.62,0,0,0,3.54,3.76,2.69,2.69,0,0,0,2.44-1.32.35.35,0,0,1,.4.31,4,4,0,0,1-3.67,2.24,4.26,4.26,0,0,1-3-1.12,4.38,4.38,0,0,1-1.28-3.26c0-2.38,1.67-4.91,5.32-4.91A5.5,5.5,0,0,1,474,387Z"/><path d="M479.89,391c.33-.11.37-.31.37-.64l0-1c0-.81-.24-1.91-1.61-1.91-.62,0-1.36.31-1.41,1,0,.35,0,.62-.22.75a2.37,2.37,0,0,1-1.25.42.28.28,0,0,1-.31-.31c0-1.14,2.49-2.71,4.09-2.71s2.35.92,2.29,2.57l-.13,3.83c0,1,.15,1.91,1,1.91a1.27,1.27,0,0,0,.55-.13c.11-.07.22-.15.29-.15s.15.13.15.29a2.31,2.31,0,0,1-1.85,1,1.76,1.76,0,0,1-1.43-.68c-.09-.13-.22-.31-.35-.31a3.36,3.36,0,0,0-.86.44,3.25,3.25,0,0,1-1.58.55,2.28,2.28,0,0,1-1.54-.51,2.06,2.06,0,0,1-.68-1.54c0-.86.42-1.36,1.83-1.87Zm-1.36,3.87a2.48,2.48,0,0,0,1.34-.55c.26-.26.26-.57.29-1l0-1.3c0-.24-.09-.29-.22-.29a4.16,4.16,0,0,0-.9.22c-1.3.44-1.94.77-1.94,1.63A1.33,1.33,0,0,0,478.53,394.88Z"/><path d="M487.13,393.09c0,1.58,0,1.8.84,1.92l.53.07a.39.39,0,0,1,0,.55c-.73,0-1.36-.07-2.13-.07s-1.45,0-2.11.07a.39.39,0,0,1,0-.55l.51-.07c.81-.11.84-.33.84-1.92v-9.95c0-1.3,0-1.43-.68-1.83l-.22-.13a.34.34,0,0,1,0-.44,15.62,15.62,0,0,0,2.38-.92.24.24,0,0,1,.22.13c0,.66-.07,1.76-.07,2.73Z"/><path d="M530.7,383.9c0-1.54-.11-2-1-2.13l-.48-.07a.33.33,0,0,1,0-.55c1.87-.11,3.65-.18,5.52-.18a13.79,13.79,0,0,1,4.84.66,6.59,6.59,0,0,1,4.47,6.49,7.22,7.22,0,0,1-3.85,6.56,10.63,10.63,0,0,1-4.93,1.06c-1.41,0-2.82-.18-3.59-.18-.92,0-1.72,0-2.75.07a.43.43,0,0,1,0-.55l.51-.07c1.28-.18,1.32-.44,1.32-2.75Zm1.8,7.86a4.08,4.08,0,0,0,.44,2.4c.48.68,1.32.9,2.71.9,4.27,0,6.18-2.79,6.18-6.89,0-2.42-1.17-6.51-6.93-6.51a4.88,4.88,0,0,0-2.18.31c-.18.13-.22.68-.22,1.67Z"/><path d="M547,389.24c0-.86,0-1-.59-1.36l-.2-.13a.3.3,0,0,1,0-.4,15.09,15.09,0,0,0,2.27-1.08c.11,0,.2,0,.22.13,0,.77-.09,1.83-.09,2.73v4c0,1.58,0,1.8.84,1.92l.46.07a.39.39,0,0,1,0,.55c-.66,0-1.3-.07-2.07-.07s-1.45,0-2.07.07a.39.39,0,0,1,0-.55l.46-.07c.81-.11.84-.33.84-1.92Zm1.83-6.27a1.14,1.14,0,0,1-2.29,0,1.14,1.14,0,0,1,1.19-1.19A1.1,1.1,0,0,1,548.79,383Z"/><path d="M559.79,392.35c0,1.74,0,2.55.64,2.55a3.62,3.62,0,0,0,.95-.22c.15,0,.18.59,0,.7a16.5,16.5,0,0,0-2.9.7c-.13,0-.24-.07-.24-.18v-.37a2.45,2.45,0,0,0,0-.68h-.09a4.58,4.58,0,0,1-2.77,1,4,4,0,0,1-4.07-4.22,5,5,0,0,1,5.32-5.06,4.51,4.51,0,0,1,1.47.2c.11,0,.13-.13.13-.31v-3.32c0-1.3,0-1.43-.68-1.83l-.22-.13a.34.34,0,0,1,0-.44,15.58,15.58,0,0,0,2.38-.92.24.24,0,0,1,.22.13c0,.66-.07,1.76-.07,2.73Zm-1.63-3.3a1.29,1.29,0,0,0-.24-.86,2.3,2.3,0,0,0-1.85-.92c-2,0-3,1.74-3,3.65s1.12,3.89,3.28,3.89a2.69,2.69,0,0,0,1.69-.62,1.33,1.33,0,0,0,.15-.81Z"/><path d="M571.58,391.14a4.49,4.49,0,0,1-4.64,4.73,4.35,4.35,0,0,1-4.51-4.53,4.62,4.62,0,0,1,4.69-4.75A4.4,4.4,0,0,1,571.58,391.14Zm-4.73-3.89c-1.45,0-2.53,1.39-2.53,3.81,0,2,.9,4.16,2.84,4.16s2.53-2,2.53-3.72C569.69,389.62,568.94,387.24,566.85,387.24Z"/><path d="M574.5,389.24c0-.86,0-1-.59-1.36l-.2-.13a.3.3,0,0,1,0-.4,12,12,0,0,0,2.2-1.08.26.26,0,0,1,.24.15c0,.51,0,.84,0,1a.23.23,0,0,0,.24.24,6,6,0,0,1,3.08-1.12,2.44,2.44,0,0,1,2.57,2.73v3.78c0,1.58,0,1.8.84,1.92l.48.07a.39.39,0,0,1,0,.55c-.66,0-1.3-.07-2.07-.07s-1.45,0-2,.07a.39.39,0,0,1,0-.55l.42-.07c.81-.13.84-.33.84-1.92v-3.28a1.91,1.91,0,0,0-2.07-2.18,2.4,2.4,0,0,0-1.87.77,1.85,1.85,0,0,0-.33,1.32v3.37c0,1.58,0,1.78.84,1.92l.4.07a.39.39,0,0,1,0,.55c-.59,0-1.23-.07-2-.07s-1.45,0-2.07.07a.39.39,0,0,1,0-.55l.46-.07c.81-.11.84-.33.84-1.92Z"/><path d="M586.76,389.93c-.57,0-.59,0-.59.59,0,2.22,1.3,4.12,3.65,4.12a2.37,2.37,0,0,0,2-1.08.29.29,0,0,1,.4.26,3.84,3.84,0,0,1-3.45,2,3.94,3.94,0,0,1-3.19-1.45,4.67,4.67,0,0,1-.92-2.86c0-2.71,1.78-5,4.42-5a2.88,2.88,0,0,1,3.12,2.62,1.36,1.36,0,0,1-.09.57c-.07.13-.37.15-1.3.15Zm1.37-.66c1.63,0,2.11-.09,2.29-.22s.13-.13.13-.42c0-.62-.42-1.39-1.69-1.39a2.58,2.58,0,0,0-2.44,1.91s0,.11.15.11Z"/><path d="M651.63,382.56a9.48,9.48,0,0,1,5.94-1.87,17,17,0,0,1,3.89.53,1.68,1.68,0,0,0,.62.09c0,.51.13,1.89.31,3.23a.46.46,0,0,1-.59,0c-.33-1.5-1.32-3.21-4.51-3.21-3.37,0-6.23,2.13-6.23,6.69s2.93,7.17,6.54,7.17a4.69,4.69,0,0,0,4.6-3.15.46.46,0,0,1,.57.09,8.26,8.26,0,0,1-1.06,3,4.43,4.43,0,0,0-.77.22,12.93,12.93,0,0,1-3.48.51,9.64,9.64,0,0,1-5.48-1.47,7.09,7.09,0,0,1-3.12-6.05A7.31,7.31,0,0,1,651.63,382.56Z"/><path d="M666.76,393.09c0,1.58,0,1.8.84,1.92l.53.07a.39.39,0,0,1,0,.55c-.73,0-1.37-.07-2.13-.07s-1.45,0-2.11.07a.39.39,0,0,1,0-.55l.51-.07c.81-.11.84-.33.84-1.92v-9.95c0-1.3,0-1.43-.68-1.83l-.22-.13a.34.34,0,0,1,0-.44,15.6,15.6,0,0,0,2.38-.92.24.24,0,0,1,.22.13c0,.66-.07,1.76-.07,2.73Z"/><path d="M673.85,391c.33-.11.37-.31.37-.64l0-1c0-.81-.24-1.91-1.61-1.91-.62,0-1.36.31-1.41,1,0,.35,0,.62-.22.75a2.37,2.37,0,0,1-1.25.42.28.28,0,0,1-.31-.31c0-1.14,2.49-2.71,4.09-2.71s2.36.92,2.29,2.57L675.7,393c0,1,.15,1.91,1,1.91a1.27,1.27,0,0,0,.55-.13c.11-.07.22-.15.29-.15s.15.13.15.29a2.31,2.31,0,0,1-1.85,1,1.75,1.75,0,0,1-1.43-.68c-.09-.13-.22-.31-.35-.31a3.38,3.38,0,0,0-.86.44,3.25,3.25,0,0,1-1.58.55,2.28,2.28,0,0,1-1.54-.51,2.06,2.06,0,0,1-.68-1.54c0-.86.42-1.36,1.83-1.87Zm-1.36,3.87a2.49,2.49,0,0,0,1.34-.55c.26-.26.26-.57.29-1l0-1.3c0-.24-.09-.29-.22-.29a4.17,4.17,0,0,0-.9.22c-1.3.44-1.94.77-1.94,1.63A1.33,1.33,0,0,0,672.48,394.88Z"/><path d="M679.68,389.24c0-.86,0-1-.59-1.36l-.2-.13a.3.3,0,0,1,0-.4,17,17,0,0,0,2.22-1.08c.11,0,.18.07.18.15v1.28c0,.11,0,.18.07.2a4.45,4.45,0,0,1,2.42-1.32.91.91,0,0,1,1,.88,1,1,0,0,1-.95,1,.85.85,0,0,1-.48-.15,1.81,1.81,0,0,0-1-.35,1,1,0,0,0-.79.44,3.34,3.34,0,0,0-.29,1.69v3c0,1.58,0,1.85.88,1.92l.79.07a.39.39,0,0,1,0,.55c-1,0-1.67-.07-2.44-.07s-1.45,0-2,.07a.39.39,0,0,1,0-.55l.42-.07c.81-.13.84-.33.84-1.92Z"/><path d="M687.49,389.93c-.57,0-.59,0-.59.59,0,2.22,1.3,4.12,3.65,4.12a2.37,2.37,0,0,0,2-1.08.29.29,0,0,1,.4.26,3.84,3.84,0,0,1-3.45,2,3.94,3.94,0,0,1-3.19-1.45,4.67,4.67,0,0,1-.92-2.86c0-2.71,1.78-5,4.42-5a2.88,2.88,0,0,1,3.13,2.62,1.36,1.36,0,0,1-.09.57c-.07.13-.37.15-1.3.15Zm1.36-.66c1.63,0,2.11-.09,2.29-.22s.13-.13.13-.42c0-.62-.42-1.39-1.7-1.39a2.58,2.58,0,0,0-2.44,1.91s0,.11.15.11Z"/><path d="M695.49,389.24c0-.86,0-1-.59-1.36l-.2-.13a.3.3,0,0,1,0-.4,12,12,0,0,0,2.2-1.08.26.26,0,0,1,.24.15c0,.51,0,.84,0,1a.23.23,0,0,0,.24.24,6,6,0,0,1,3.08-1.12,2.44,2.44,0,0,1,2.57,2.73v3.78c0,1.58,0,1.8.84,1.92l.48.07a.39.39,0,0,1,0,.55c-.66,0-1.3-.07-2.07-.07s-1.45,0-2,.07a.39.39,0,0,1,0-.55l.42-.07c.81-.13.84-.33.84-1.92v-3.28a1.91,1.91,0,0,0-2.07-2.18,2.4,2.4,0,0,0-1.87.77,1.85,1.85,0,0,0-.33,1.32v3.37c0,1.58,0,1.78.84,1.92l.4.07a.39.39,0,0,1,0,.55c-.59,0-1.23-.07-2-.07s-1.45,0-2.07.07a.39.39,0,0,1,0-.55l.46-.07c.81-.11.84-.33.84-1.92Z"/><path d="M714.22,392.35c0,1.74,0,2.55.64,2.55a3.61,3.61,0,0,0,.95-.22c.15,0,.18.59,0,.7a16.5,16.5,0,0,0-2.9.7c-.13,0-.24-.07-.24-.18v-.37a2.45,2.45,0,0,0,0-.68h-.09a4.58,4.58,0,0,1-2.77,1,4,4,0,0,1-4.07-4.22,5,5,0,0,1,5.32-5.06,4.52,4.52,0,0,1,1.47.2c.11,0,.13-.13.13-.31v-3.32c0-1.3,0-1.43-.68-1.83l-.22-.13a.33.33,0,0,1,0-.44,15.56,15.56,0,0,0,2.38-.92.24.24,0,0,1,.22.13c0,.66-.07,1.76-.07,2.73Zm-1.63-3.3a1.29,1.29,0,0,0-.24-.86,2.3,2.3,0,0,0-1.85-.92c-2,0-3,1.74-3,3.65s1.12,3.89,3.28,3.89a2.69,2.69,0,0,0,1.69-.62,1.34,1.34,0,0,0,.15-.81Z"/><path d="M726,391.14a4.49,4.49,0,0,1-4.64,4.73,4.35,4.35,0,0,1-4.51-4.53,4.62,4.62,0,0,1,4.69-4.75A4.4,4.4,0,0,1,726,391.14Zm-4.73-3.89c-1.45,0-2.53,1.39-2.53,3.81,0,2,.9,4.16,2.84,4.16s2.53-2,2.53-3.72C724.12,389.62,723.37,387.24,721.28,387.24Z"/><path d="M728.93,389.24c0-.86,0-1-.59-1.36l-.2-.13a.3.3,0,0,1,0-.4,12,12,0,0,0,2.2-1.08.26.26,0,0,1,.24.15c0,.51,0,.84,0,1a.23.23,0,0,0,.24.24,6,6,0,0,1,3.08-1.12,2.44,2.44,0,0,1,2.57,2.73v3.78c0,1.58,0,1.8.84,1.92l.48.07a.39.39,0,0,1,0,.55c-.66,0-1.3-.07-2.07-.07s-1.45,0-2,.07a.39.39,0,0,1,0-.55L734,395c.81-.13.84-.33.84-1.92v-3.28a1.91,1.91,0,0,0-2.07-2.18,2.4,2.4,0,0,0-1.87.77,1.85,1.85,0,0,0-.33,1.32v3.37c0,1.58,0,1.78.84,1.92l.4.07a.39.39,0,0,1,0,.55c-.59,0-1.23-.07-2-.07s-1.45,0-2.07.07a.39.39,0,0,1,0-.55l.46-.07c.81-.11.84-.33.84-1.92Z"/><path d="M812.82,395.91a6.87,6.87,0,0,1-3.43-.81,10.18,10.18,0,0,1-.59-3.08c.11-.15.44-.2.53-.07a4,4,0,0,0,3.79,3.28,2.5,2.5,0,0,0,2.75-2.53,3.3,3.3,0,0,0-1.8-3.08L812,388.25a4.7,4.7,0,0,1-2.38-3.79c0-2.09,1.63-3.78,4.49-3.78a8.48,8.48,0,0,1,2,.29,3,3,0,0,0,.77.13,9.65,9.65,0,0,1,.4,2.68c-.09.13-.44.2-.55.07a2.88,2.88,0,0,0-3-2.49,2.31,2.31,0,0,0-2.62,2.44,3.46,3.46,0,0,0,1.87,2.71l1.76,1.1a5,5,0,0,1,2.75,4.22C817.5,394.26,815.68,395.91,812.82,395.91Z"/><path d="M822,393.09c0,1.58,0,1.8.84,1.92l.53.07a.39.39,0,0,1,0,.55c-.73,0-1.36-.07-2.13-.07s-1.45,0-2.11.07a.39.39,0,0,1,0-.55l.51-.07c.81-.11.84-.33.84-1.92v-9.95c0-1.3,0-1.43-.68-1.83l-.22-.13a.33.33,0,0,1,0-.44,15.59,15.59,0,0,0,2.38-.92.24.24,0,0,1,.22.13c0,.66-.07,1.76-.07,2.73Z"/><path d="M829.05,391c.33-.11.38-.31.38-.64l0-1c0-.81-.24-1.91-1.61-1.91-.62,0-1.36.31-1.41,1,0,.35,0,.62-.22.75a2.37,2.37,0,0,1-1.25.42.28.28,0,0,1-.31-.31c0-1.14,2.49-2.71,4.09-2.71s2.35.92,2.29,2.57L830.9,393c0,1,.15,1.91,1,1.91a1.27,1.27,0,0,0,.55-.13c.11-.07.22-.15.29-.15s.15.13.15.29a2.31,2.31,0,0,1-1.85,1,1.76,1.76,0,0,1-1.43-.68c-.09-.13-.22-.31-.35-.31a3.36,3.36,0,0,0-.86.44,3.25,3.25,0,0,1-1.58.55,2.28,2.28,0,0,1-1.54-.51,2.06,2.06,0,0,1-.68-1.54c0-.86.42-1.36,1.83-1.87Zm-1.36,3.87a2.49,2.49,0,0,0,1.34-.55c.26-.26.26-.57.29-1l0-1.3c0-.24-.09-.29-.22-.29a4.16,4.16,0,0,0-.9.22c-1.3.44-1.94.77-1.94,1.63A1.33,1.33,0,0,0,827.69,394.88Z"/><path d="M834.38,383.15c0-1.3,0-1.43-.68-1.83l-.22-.13a.34.34,0,0,1,0-.44,20.09,20.09,0,0,0,2.4-.92.24.24,0,0,1,.22.13c0,.77-.09,1.76-.09,2.73v4.16c0,.37.09.46.22.46a5.08,5.08,0,0,1,2.53-.73,4.12,4.12,0,0,1,4.2,4.31,4.82,4.82,0,0,1-5.06,5,6.3,6.3,0,0,1-1.87-.29,4.7,4.7,0,0,0-.92-.29c-.18,0-.35.18-.46.33s0,0-.09,0a.24.24,0,0,1-.22-.13c0-.31,0-.73,0-1.87Zm1.63,9.42a3,3,0,0,0,.55,1.91,2.1,2.1,0,0,0,1.67.73c2.07,0,2.88-1.76,2.88-3.65,0-2.27-1.17-4-3.34-4a2.87,2.87,0,0,0-1.5.35c-.22.15-.26.4-.26,1.25Z"/><path d="M926.82,395.91a6.87,6.87,0,0,1-3.43-.81,10.18,10.18,0,0,1-.59-3.08c.11-.15.44-.2.53-.07a4,4,0,0,0,3.79,3.28,2.5,2.5,0,0,0,2.75-2.53,3.3,3.3,0,0,0-1.8-3.08L926,388.25a4.7,4.7,0,0,1-2.38-3.79c0-2.09,1.63-3.78,4.49-3.78a8.48,8.48,0,0,1,2,.29,3,3,0,0,0,.77.13,9.65,9.65,0,0,1,.4,2.68c-.09.13-.44.2-.55.07a2.88,2.88,0,0,0-3-2.49,2.31,2.31,0,0,0-2.62,2.44,3.46,3.46,0,0,0,1.87,2.71l1.76,1.1a5,5,0,0,1,2.75,4.22C931.5,394.26,929.68,395.91,926.82,395.91Z"/><path d="M934.3,389c-.51-1.23-.77-1.45-1.32-1.58l-.35-.09c-.11-.11-.13-.44.07-.53.68,0,1.3.07,2,.07s1.32,0,1.91-.07a.34.34,0,0,1,0,.53l-.51.09c-.31,0-.48.18-.48.31a4.48,4.48,0,0,0,.35,1.14l1.36,3.37c.2.51.4.9.4.95a4.94,4.94,0,0,0,.51-1.06l1.08-2.66c.29-.7.31-1,.2-1.28a1.23,1.23,0,0,0-1-.77l-.35-.09a.34.34,0,0,1,.07-.53c.55,0,1.25.07,1.83.07s1.34,0,2.09-.07c.2.07.2.42.07.53l-.46.09c-.88.18-.84.24-.57,1s1.43,3.52,1.67,4.12a2.31,2.31,0,0,0,.29.62,3.59,3.59,0,0,0,.31-.62c.29-.64,1.17-3,1.5-3.89a3.17,3.17,0,0,0,.22-.95c0-.13-.13-.24-.4-.29l-.55-.09a.34.34,0,0,1,0-.53c.64,0,1.19.07,1.74.07s.95,0,1.43-.07a.37.37,0,0,1,.07.53l-.44.09c-.53.11-.73.42-1.19,1.39-.59,1.23-1.65,3.87-2.07,5-.31.79-.57,1.43-.75,2a.44.44,0,0,1-.29.09.33.33,0,0,1-.24-.09c-.13-.4-.53-1.54-.9-2.42l-1.06-2.53a11.29,11.29,0,0,0-.51-1.12,10.49,10.49,0,0,0-.48,1.08l-1.14,2.75c-.4.95-.7,1.74-.88,2.24a.35.35,0,0,1-.26.09.38.38,0,0,1-.26-.09c-.13-.46-.48-1.36-.66-1.83Z"/><path d="M949.32,389.24c0-.86,0-1-.59-1.36l-.2-.13a.3.3,0,0,1,0-.4,15.08,15.08,0,0,0,2.27-1.08c.11,0,.2,0,.22.13,0,.77-.09,1.83-.09,2.73v4c0,1.58,0,1.8.84,1.92l.46.07a.39.39,0,0,1,0,.55c-.66,0-1.3-.07-2.07-.07s-1.45,0-2.07.07a.39.39,0,0,1,0-.55l.46-.07c.81-.11.84-.33.84-1.92Zm1.83-6.27a1.14,1.14,0,0,1-2.29,0,1.14,1.14,0,0,1,1.19-1.19A1.1,1.1,0,0,1,951.15,383Z"/><path d="M956.91,387.81c-.37,0-.37,0-.37.64v4.64c0,1.58,0,1.85.84,1.92l.79.07a.39.39,0,0,1,0,.55c-1,0-1.63-.07-2.4-.07s-1.45,0-2.11.07a.39.39,0,0,1,0-.55l.51-.07c.81-.11.84-.33.84-1.92v-4.64c0-.59,0-.64-.44-.64h-.77a.31.31,0,0,1-.07-.42l.95-.46a.5.5,0,0,0,.33-.44,9.86,9.86,0,0,1,.68-3.87,4.33,4.33,0,0,1,4-2.79c1.17,0,2.16.53,2.16,1.32a.84.84,0,0,1-.84.79.63.63,0,0,1-.53-.26,2.46,2.46,0,0,0-1.76-1,1.7,1.7,0,0,0-1.56,1.21,11.66,11.66,0,0,0-.48,3.72v.64c0,.59,0,.62.37.62h2.51a.68.68,0,0,1-.15.92Z"/><path d="M963.16,387.81c-.37,0-.4.07-.4.53v4.11c0,1.28.15,2.44,1.61,2.44a1.67,1.67,0,0,0,.59-.11c.2-.07.48-.31.55-.31s.26.24.22.37a3,3,0,0,1-2.31,1c-1.89,0-2.29-1.06-2.29-2.38v-5c0-.59,0-.64-.46-.64h-.62a.37.37,0,0,1-.07-.46,4.36,4.36,0,0,0,1.41-.68,5.42,5.42,0,0,0,.92-1.3c.11,0,.38,0,.46.11v1c0,.4,0,.42.4.42h2.44a.7.7,0,0,1,0,.92Z"/><path d="M966.48,400.09a.82.82,0,0,1,.88-.88h.42a.8.8,0,0,0,.73-.4,14,14,0,0,0,1.28-2.44,3.36,3.36,0,0,0,.22-.95,4.18,4.18,0,0,0-.37-1.52l-1.72-4.71c-.37-1-.53-1.56-1.3-1.72l-.55-.11c-.13-.11-.11-.48.07-.55.7,0,1.36.07,2.09.07s1.21,0,1.92-.07c.18.07.2.44,0,.55l-.55.11c-.31.07-.48.13-.48.29a16.68,16.68,0,0,0,.64,2.07l.7,2a12.17,12.17,0,0,0,.64,1.56,10.73,10.73,0,0,0,.81-1.63l.75-1.74a10.21,10.21,0,0,0,.77-2.2c0-.15-.13-.31-.53-.37l-.68-.11c-.15-.11-.13-.48,0-.55.7,0,1.36.07,1.94.07s1.06,0,1.67-.07a.37.37,0,0,1,0,.55l-.37.07c-.73.13-1.12.77-1.87,2.33l-1.23,2.53c-.73,1.47-2.53,5.3-3.61,7.7a1.46,1.46,0,0,1-1.41,1A.88.88,0,0,1,966.48,400.09Z"/><path d="M58.66,90.3c.15-.06.21-.06.29.07A14.16,14.16,0,0,1,60.28,93c0,.13,0,.18-.13.27l-.8.43c-.2.1-.22.1-.27-.07l-.2-.55c-1.09.46-2.35.9-3.49,1.26a1.57,1.57,0,0,0-.55.24.36.36,0,0,1-.21.1c-.11,0-.2-.06-.25-.21a13.42,13.42,0,0,1-.36-1.3A9.23,9.23,0,0,0,55,93v-7c0-1.51,0-2.3,0-2.4s0-.15.15-.15.6,0,1.58,0H58.5c.85,0,1.23,0,1.32,0s.14,0,.14.15,0,.57,0,1.58V88c0,1,0,1.5,0,1.58s0,.17-.14.17-.46,0-1.32,0H56.37v2.91c.66-.2,1.4-.43,2.06-.69-.18-.38-.38-.74-.62-1.16-.06-.1,0-.18.14-.24Zm-2.3-5.52v1.27h2.2V84.78Zm2.2,2.42h-2.2v1.32h2.2Zm6.26,6.47c0,.24,0,.38.1.45a.46.46,0,0,0,.35.1.44.44,0,0,0,.45-.21c.13-.2.15-.45.17-1.6a3.54,3.54,0,0,0,.9.32c.34.07.34.13.32.48-.07,1.3-.25,1.63-.53,1.92a1.93,1.93,0,0,1-1.39.39A2.32,2.32,0,0,1,64,95.32c-.31-.18-.41-.52-.41-1.09V91.77a10,10,0,0,1-3.38,3.63.66.66,0,0,1-.34.17c-.11,0-.18-.11-.28-.32a2.54,2.54,0,0,0-.62-.83,8.53,8.53,0,0,0,3.74-3.81,7.07,7.07,0,0,0,.49-1.13h-1c-1.22,0-1.64,0-1.72,0s-.15,0-.15-.15v-1c0-.14,0-.15.15-.15l.76,0V84.8h-.48c-.14,0-.15,0-.15-.14v-1c0-.14,0-.15.15-.15s.48,0,1.67,0h2.41c1.18,0,1.57,0,1.65,0s.15,0,.15.15v1c0,.13,0,.14-.15.14l-1.12,0c-.13,1.3-.27,2.42-.46,3.42H65c1.22,0,1.64,0,1.72,0s.14,0,.14.15v1c0,.14,0,.15-.14.15s-.5,0-1.72,0h-.41a8.43,8.43,0,0,1-.29.84l.5,0c.14,0,.21.08.21.18a.88.88,0,0,1-.08.28A3.48,3.48,0,0,0,64.83,92Zm-2.31-8.9V88.2h1a22.38,22.38,0,0,0,.42-3.42Z"/><path d="M70.8,87.36a13.74,13.74,0,0,0,1-1.61H70.17c-1.23,0-1.65,0-1.74,0s-.15,0-.15-.15V84.56c0-.14,0-.15.15-.15s.5,0,1.74,0h2.2c.07-.18.14-.36.2-.55a5.45,5.45,0,0,0,.25-1.19c.46.06,1,.15,1.47.24.17,0,.27.11.27.21a.46.46,0,0,1-.17.31,2,2,0,0,0-.35.71,1.48,1.48,0,0,1-.1.27h5c1.23,0,1.65,0,1.72,0s.15,0,.15.15v1.06c0,.14,0,.15-.15.15s-.49,0-1.72,0H73.39a16.69,16.69,0,0,1-1.68,2.8v5c0,1.22,0,1.83,0,1.9s0,.15-.15.15H70.41c-.14,0-.15,0-.15-.15s0-.69,0-1.9V90.23c-.34.35-.69.69-1.06,1-.15.11-.24.18-.31.18s-.13-.08-.24-.29A3.89,3.89,0,0,0,68,90.2a12.94,12.94,0,0,0,2.24-2.13c0-.27,0-.49-.07-.74Zm3.74,4.37c-1.33,0-1.81,0-1.89,0s-.15,0-.15-.15v-1c0-.14,0-.15.15-.15s.56,0,1.89,0H76a7.47,7.47,0,0,0-.1-1.22l.63.06a11.79,11.79,0,0,0,1.26-1H75.21c-1.23,0-1.65,0-1.74,0s-.15,0-.15-.15v-1c0-.13,0-.14.15-.14s.5,0,1.74,0H78.6a.65.65,0,0,0,.28,0,.47.47,0,0,1,.17-.06c.11,0,.25.06.6.36s.43.48.43.6-.08.21-.22.27a2.38,2.38,0,0,0-.56.38,13.3,13.3,0,0,1-1.9,1.53v.39h1.26c1.34,0,1.81,0,1.89,0s.14,0,.14.15v1c0,.14,0,.15-.14.15s-.55,0-1.89,0H77.4v.7c0,.55,0,1,0,1.67A1.2,1.2,0,0,1,77,95.2a3.7,3.7,0,0,1-2,.32c-.45,0-.45,0-.55-.42a3.18,3.18,0,0,0-.43-1,11.71,11.71,0,0,0,1.4.08c.49,0,.6-.11.6-.53V91.73Z"/><path d="M84.16,90.78c-1.23,0-1.65,0-1.74,0s-.14,0-.14-.15v-.77c0-.13,0-.14.14-.14s.5,0,1.74,0h3.63v-.56H85.7c-1.37,0-1.84,0-1.93,0s-.14,0-.14-.15v-.6c0-.14,0-.15.14-.15s.56,0,1.93,0h2.09v-.56H85.84c-1.34,0-1.81,0-1.89,0s-.17,0-.17-.15V87c0-.14,0-.15.17-.15s.55,0,1.89,0h1.95v-.6H84.48c-1.33,0-1.81,0-1.89,0s-.15,0-.15-.15v-.74c0-.14,0-.15.15-.15s.56,0,1.89,0h3.31V84.7H85.91c-1.37,0-1.85,0-1.95,0s-.15,0-.15-.15v-.71c0-.15,0-.17.15-.17s.57,0,1.95,0h1.88a5,5,0,0,0-.1-1c.52,0,1,0,1.47.1.11,0,.2.07.2.15a.69.69,0,0,1-.07.25,1.22,1.22,0,0,0-.07.46h1.63c1.48,0,2.23,0,2.31,0s.15,0,.15.17,0,.45,0,1.22v.14c.74,0,1.18,0,1.26,0s.17,0,.17.17v.85c0,.14,0,.15-.17.15s-.52,0-1.26,0v.08c0,.74,0,1.16,0,1.25s0,.15-.15.15-.83,0-2.31,0H89.21v.56h2.24c1.36,0,1.83,0,1.92,0s.14,0,.14.15v.6c0,.14,0,.15-.14.15s-.56,0-1.92,0H89.21v.56H93c1.23,0,1.65,0,1.74,0s.15,0,.15.14v.77c0,.14,0,.15-.15.15s-.5,0-1.74,0Zm.1,4.86c-.14,0-.15,0-.15-.15s0-.36,0-2v-.9c0-.77,0-1.09,0-1.18s0-.17.15-.17.59,0,1.95,0h4.73c1.36,0,1.85,0,1.95,0s.15,0,.15.17,0,.41,0,1v1c0,1.57,0,1.86,0,1.95s0,.14-.15.14H91.76c-.14,0-.15,0-.15-.14v-.32H85.53v.36c0,.14,0,.15-.15.15Zm1.27-2.83h6.08v-.59H85.53Zm6.08,1.41v-.6H85.53v.6Zm-2.4-9.52v.59H91.9V84.7Zm2.69,1.58H89.21v.6H91.9Z"/><path d="M102,87.14c-1.37,0-1.83,0-1.92,0s-.15,0-.15-.15V85.93c0-.15,0-.15.15-.15s.55,0,1.92,0h1.42v-.91a15.53,15.53,0,0,0-.1-2,12.48,12.48,0,0,1,1.47.11c.14,0,.22.07.22.14a.73.73,0,0,1-.1.29,4.82,4.82,0,0,0-.08,1.42v.94h3.92c.13,0,.14,0,.14.15V87c0,.14,0,.15-.14.15s-.57,0-1.93,0h-1.46a14.22,14.22,0,0,0,3.89,4.79,3.57,3.57,0,0,0-.69.94c-.1.2-.15.29-.22.29s-.15-.08-.29-.22a13.82,13.82,0,0,1-3.26-4.71c0,1.26,0,2.51,0,3.6h.32c1.09,0,1.44,0,1.53,0s.15,0,.15.15v1c0,.15,0,.17-.15.17s-.43,0-1.53,0h-.31c0,1.33,0,2.26,0,2.4s0,.15-.15.15h-1.21c-.15,0-.17,0-.17-.15s0-1.08.06-2.4h-.25c-1.09,0-1.44,0-1.53,0s-.15,0-.15-.17V92c0-.14,0-.15.15-.15s.43,0,1.53,0h.27c0-1.09,0-2.34,0-3.59a13.11,13.11,0,0,1-3.19,4.68c-.14.13-.22.21-.29.21s-.13-.08-.22-.27a4.54,4.54,0,0,0-.63-.83v1.34c0,1.37,0,2.06,0,2.13s0,.15-.15.15H97.76c-.13,0-.14,0-.14-.15s0-.76,0-2.13V90.2c0-.46,0-1,0-1.58-.27.35-.53.7-.81,1-.1.11-.18.18-.25.18s-.11-.08-.15-.25a4,4,0,0,0-.48-1.2,12.39,12.39,0,0,0,2.66-4.55,4.89,4.89,0,0,0,.21-1,9.7,9.7,0,0,1,1.36.43c.15.07.22.11.22.21s0,.15-.15.25a1.35,1.35,0,0,0-.28.56,20.27,20.27,0,0,1-.91,2V92a13,13,0,0,0,3.67-4.86Z"/><path d="M50.31,190.72c2.65,0,3.85,1.06,3.85,3A2.76,2.76,0,0,1,52,196.43l2.51,5.16h-2l-2.2-4.87h-2v4.86H46.41V190.72Zm-2.06,4.61h1.89c1.48,0,2.13-.62,2.13-1.62s-.55-1.57-2-1.57h-2Z"/><path d="M62.48,194.28c-.27-1.51-1.05-2.3-2.28-2.3-1.61,0-2.73,1.4-2.73,4.17s1.15,4.17,2.73,4.17c1.3,0,2.09-.74,2.4-2.33l1.78.55a3.89,3.89,0,0,1-4.19,3.24c-2.82,0-4.72-2-4.72-5.62s1.92-5.65,4.72-5.65a3.94,3.94,0,0,1,4.13,3.31Z"/><path d="M75.35,193.74c-.28-1.18-.92-1.78-1.93-1.78s-1.81.55-1.81,1.42.42,1.39,2,1.82l.57.17c2.48.67,3.18,1.61,3.18,3.21,0,1.91-1.32,3.22-3.92,3.22-2.12,0-3.59-.92-4.1-2.82l1.81-.57a2.24,2.24,0,0,0,2.26,2c1.43,0,2.07-.62,2.07-1.55s-.34-1.37-2.12-1.88l-.56-.17c-2.31-.69-3.05-1.6-3.05-3.26s1.29-3,3.63-3a3.68,3.68,0,0,1,3.82,2.7Z"/><path d="M87.14,201.59h-2l-.77-3.45c-.18-.87-.35-1.78-.55-2.79h-.17c-.18,1-.36,1.93-.56,2.8l-.81,3.43h-2l-2.06-7.69h1.81l.73,3.38c.21,1,.39,2,.57,2.83h.15c.2-.87.38-1.91.59-2.8l.76-3.4h2.07l.73,3.4c.21,1,.41,1.92.55,2.8h.17c.2-.92.35-1.84.57-2.82l.74-3.39h1.68Z"/><path d="M97.19,197.73c0,2.49-1.39,4-3.49,4s-3.47-1.51-3.47-4,1.4-4,3.49-4S97.19,195.24,97.19,197.73Zm-5.15,0c0,1.78.53,2.76,1.67,2.76s1.68-1,1.68-2.76S94.85,195,93.71,195,92,196,92,197.75Z"/><path d="M107.16,201.59h-2l-.77-3.45c-.18-.87-.35-1.78-.55-2.79h-.17c-.18,1-.36,1.93-.56,2.8l-.81,3.43h-2l-2.06-7.69H100l.73,3.38c.21,1,.39,2,.57,2.83h.15c.2-.87.38-1.91.59-2.8l.76-3.4h2.07l.73,3.4c.21,1,.41,1.92.55,2.8h.17c.2-.92.35-1.84.57-2.82l.74-3.39h1.68Z"/><path d="M35.43,315.89a11.4,11.4,0,0,0-.18-2.47,10,10,0,0,1,1.81.28c.18,0,.27.13.27.25a.45.45,0,0,1-.08.22,2.51,2.51,0,0,0-.18,1.25v1.44l3.66-.85a2,2,0,0,0,1-.41.33.33,0,0,1,.2-.08.3.3,0,0,1,.2.08,5.46,5.46,0,0,1,1,.91.36.36,0,0,1,.13.25.38.38,0,0,1-.18.28,1.83,1.83,0,0,0-.43.55,14.75,14.75,0,0,1-2.23,3,.55.55,0,0,1-.36.21.45.45,0,0,1-.27-.1,4.78,4.78,0,0,0-1.16-.53,11.65,11.65,0,0,0,2.28-2.8l-3.85,1v3.18c0,.74.25,1,1.77,1a21,21,0,0,0,3.39-.31c.2,0,.21.07.24.28a6.74,6.74,0,0,1,.13,1.18c0,.14-.08.2-.29.21a27.38,27.38,0,0,1-3.35.17c-2.68,0-3.5-.57-3.5-2.46v-2.83l-.9.24a15,15,0,0,0-2,.6.57.57,0,0,1-.17.06c-.1,0-.15-.07-.22-.22a10.44,10.44,0,0,1-.56-1.43,21.56,21.56,0,0,0,2.63-.49l1.19-.29Z"/><path d="M46.46,315.35a9.62,9.62,0,0,0-.15-2,10.33,10.33,0,0,1,1.74.29c.17,0,.24.13.24.22a.58.58,0,0,1-.06.21,3.23,3.23,0,0,0-.15,1.33v2.83c0,.73,0,1.28,0,1.77,0,.21-.08.28-.31.28H46.68c-.2,0-.28-.07-.27-.24,0-.49,0-1.3,0-1.91Zm6.6,2.62a7.23,7.23,0,0,1-1.13,4.57,7.23,7.23,0,0,1-3.08,2.2.89.89,0,0,1-.29.07.45.45,0,0,1-.34-.17,4.57,4.57,0,0,0-1.19-.85,6.84,6.84,0,0,0,3.42-2,5.77,5.77,0,0,0,.94-3.74v-2.65a10.28,10.28,0,0,0-.15-2.28,8.74,8.74,0,0,1,1.82.31.24.24,0,0,1,.2.24.44.44,0,0,1-.06.22,4.23,4.23,0,0,0-.13,1.53Z"/><path d="M59.07,316c-.91,0-1.71,0-2.31.07-.18,0-.24-.08-.27-.28s-.1-1-.13-1.42a24.47,24.47,0,0,0,2.69.1h5a1.34,1.34,0,0,0,.77-.14.39.39,0,0,1,.21-.06.69.69,0,0,1,.27.07,4.32,4.32,0,0,1,1,.92.35.35,0,0,1,.1.24.48.48,0,0,1-.2.35,1.69,1.69,0,0,0-.32.55,16.5,16.5,0,0,1-2.72,4.55,15.69,15.69,0,0,1-4,3.33.68.68,0,0,1-.38.13.49.49,0,0,1-.35-.15,4.17,4.17,0,0,0-1.3-.77,13.55,13.55,0,0,0,4.58-3.5,11.79,11.79,0,0,0,2.37-4Z"/><path d="M75.54,315.54a17.55,17.55,0,0,1-1.75,6,2.66,2.66,0,0,1-2.38,1.61c-1.23,0-2.48-1.32-2.48-3.6a5.16,5.16,0,0,1,1.58-3.64,6.13,6.13,0,0,1,4.55-1.79c3.36,0,5.34,2.07,5.34,4.86,0,2.61-1.47,4.24-4.31,5.1-.29.08-.42,0-.6-.25a3,3,0,0,0-1-.88c2.37-.56,4.23-1.54,4.23-4.19a3.18,3.18,0,0,0-3.14-3.25Zm-4,1.36a4,4,0,0,0-1.09,2.59c0,1.29.52,2,1,2s.67-.18,1.05-.85a16,16,0,0,0,1.48-5A4.23,4.23,0,0,0,71.52,316.89Z"/><path d="M85.29,318.8a18.14,18.14,0,0,1-.2,2.24,8.33,8.33,0,0,1-1.61,3.75c-.13.15-.2.24-.27.24s-.15-.08-.28-.24a3.24,3.24,0,0,0-.88-.78,6,6,0,0,0,1.68-3.47,17.31,17.31,0,0,0,.14-1.74l-1.48,0c-.13,0-.14,0-.14-.17v-1.09c0-.14,0-.15.14-.15s.48,0,1.51,0c0-.52,0-1.06,0-1.67V314.5l-1.13,0c-.14,0-.15,0-.15-.15v-1.09c0-.15,0-.17.15-.17s.5,0,1.77,0h3.07c1.26,0,1.69,0,1.76,0s.15,0,.15.17v1.09c0,.14,0,.15-.15.15l-1.11,0v2.94c.9,0,1.25,0,1.32,0s.15,0,.15.15v1.09c0,.15,0,.17-.15.17l-1.32,0v4c0,1.3,0,2.12,0,2.2s0,.14-.17.14H87c-.15,0-.17,0-.17-.14s0-.9,0-2.2v-4Zm1.57-1.36V314.5H85.33v2.94Zm6.54,3.15a7.2,7.2,0,0,0,.53-.78,7.38,7.38,0,0,1,1.13.88c.1.1.13.14.13.24s-.08.13-.18.17a2.06,2.06,0,0,0-.49.5,12.81,12.81,0,0,1-4.37,3.29.92.92,0,0,1-.34.13c-.11,0-.15-.1-.29-.34a3.58,3.58,0,0,0-.74-.9A10.35,10.35,0,0,0,93.4,320.59Zm.71-7.21a.31.31,0,0,1,.14.22c0,.1-.07.15-.17.2a1.48,1.48,0,0,0-.48.34,12.31,12.31,0,0,1-3.31,2.33.8.8,0,0,1-.32.13c-.11,0-.17-.11-.28-.36a3.28,3.28,0,0,0-.6-.87,9.45,9.45,0,0,0,3.36-2.12,4,4,0,0,0,.5-.67A5.66,5.66,0,0,1,94.12,313.38Zm.48,3.42c.13.13.15.17.15.24s-.08.14-.17.17a1.61,1.61,0,0,0-.46.42,12.48,12.48,0,0,1-3.66,2.8.76.76,0,0,1-.31.13c-.1,0-.17-.1-.29-.34a3.19,3.19,0,0,0-.69-.84A10.3,10.3,0,0,0,93,316.68a2.51,2.51,0,0,0,.46-.67A6.79,6.79,0,0,1,94.59,316.8Z"/><path d="M98.7,314.54a13,13,0,0,0-.11-2.12c.55,0,1,0,1.48.1.14,0,.22.07.22.14a.71.71,0,0,1-.08.28,5.92,5.92,0,0,0-.08,1.56v8.12c0,1.6,0,2.4,0,2.46s0,.15-.15.15H98.84c-.15,0-.17,0-.17-.15s0-.87,0-2.45v-2.16c-.46.32-.91.59-1.36.87a1.26,1.26,0,0,0-.36.29.28.28,0,0,1-.2.13.24.24,0,0,1-.21-.14c-.17-.39-.36-.9-.52-1.34a7.25,7.25,0,0,0,.78-.32,12,12,0,0,0,1.86-1Zm-1.53,0c.15-.07.18-.06.25.07a14,14,0,0,1,1,2.33c.06.14,0,.2-.15.28l-.84.38c-.18.08-.22.08-.27-.07a11.55,11.55,0,0,0-1-2.33c-.07-.14-.06-.18.11-.27Zm5.58,3.11c-1.36,0-1.82,0-1.91,0s-.15,0-.15-.15v-1.08c0-.14,0-.15.15-.15s.55,0,1.91,0h1c0-.57,0-1.19,0-1.86a15.84,15.84,0,0,0-.1-2c.52,0,1,0,1.53.1.15,0,.22.08.22.17a.53.53,0,0,1-.1.29,4,4,0,0,0-.08,1.39c0,.63,0,1.26,0,1.88h1.65c1.34,0,1.82,0,1.91,0s.14,0,.14.15v1.08c0,.14,0,.15-.14.15s-.56,0-1.91,0h-1.46a9.82,9.82,0,0,0,3.81,6.21,3.94,3.94,0,0,0-.76,1c-.1.18-.17.28-.25.28s-.15-.06-.29-.17a10,10,0,0,1-3.12-5.06c-.06.28-.14.55-.21.78a9.39,9.39,0,0,1-2.87,4.24c-.15.13-.24.2-.31.2s-.14-.08-.27-.25a4.28,4.28,0,0,0-.8-.85,7.83,7.83,0,0,0,2.83-3.85,10.81,10.81,0,0,0,.5-2.54Zm4-4.62a.3.3,0,0,1,.17-.07s.08,0,.14.1a10.76,10.76,0,0,1,1.4,1.81c.07.13.07.15-.1.27l-.83.49a.3.3,0,0,1-.17.08s-.07,0-.11-.11a11.15,11.15,0,0,0-1.32-1.85c-.1-.11-.08-.17.08-.27Z"/><path d="M87.06,386.68a16,16,0,0,1-3.36,2.58.7.7,0,0,1-.32.14c-.1,0-.17-.1-.29-.32a3,3,0,0,0-.71-.78,12.67,12.67,0,0,0,4.57-3.68,3.49,3.49,0,0,0,.48-.83,9.92,9.92,0,0,1,1.44.35c.14,0,.2.1.2.2a.29.29,0,0,1-.18.25,1.62,1.62,0,0,0-.42.45l-.28.38h3.05a1.31,1.31,0,0,0,.41,0,.68.68,0,0,1,.25-.07c.13,0,.28.08.59.36s.43.48.43.59,0,.2-.2.28a1.92,1.92,0,0,0-.46.45,18.14,18.14,0,0,1-4,3.84h3.6c1.2,0,1.82,0,1.9,0s.15,0,.15.14,0,.5,0,1.81V394c0,2,0,2.35,0,2.44s0,.15-.15.15H92.59c-.15,0-.17,0-.17-.15v-.63H87.49v.7c0,.14,0,.15-.14.15h-1.2c-.14,0-.15,0-.15-.15s0-.52,0-2.48v-1.83a28,28,0,0,1-2.59,1.25,1,1,0,0,1-.32.11c-.11,0-.15-.11-.28-.36a3.19,3.19,0,0,0-.67-.9,20.26,20.26,0,0,0,4.9-2.34,11.87,11.87,0,0,0-1.46-1.3c-.06,0-.1-.08-.1-.11s0-.08.11-.14l.74-.6a.31.31,0,0,1,.17-.08.33.33,0,0,1,.17.07,12.57,12.57,0,0,1,1.54,1.27,16.64,16.64,0,0,0,2.37-2.41Zm.43,5.42v2.48h4.93V392.1Z"/><path d="M98.31,386c-.29.08-.6.15-.9.21-.45.08-.45.08-.62-.34a5.42,5.42,0,0,0-.45-.76,15.7,15.7,0,0,0,3.29-.81,4.31,4.31,0,0,0,.67-.35,7.29,7.29,0,0,1,.8.81c.08.11.11.14.11.24s-.1.18-.24.18a1.35,1.35,0,0,0-.46.13c-.27.11-.56.22-.87.32v2c.78,0,1,0,1.12,0s.17,0,.17.15v.46a10.62,10.62,0,0,0,1.6-3.32,4.67,4.67,0,0,0,.18-1.11c.46.07.85.14,1.29.24.15,0,.27.1.27.2a.36.36,0,0,1-.13.25,1.61,1.61,0,0,0-.27.63c-.13.41-.25.77-.38,1.12H107c1.22,0,1.63,0,1.71,0s.15,0,.15.15v1.07c0,.14,0,.15-.15.15s-.49,0-1.71,0h-1.19v5c0,.85,0,1.68,0,2.31s-.07,1-.43,1.32-.85.35-2,.35c-.42,0-.42,0-.52-.42a4,4,0,0,0-.38-1.06c.46,0,.8.06,1.25.06s.57-.08.57-.52v-7H103a8.45,8.45,0,0,1-.88,1.5c-.11.17-.18.25-.25.25s-.17-.08-.32-.24a3.91,3.91,0,0,0-.56-.48v.17c0,.14,0,.15-.17.15l-1.06,0a7.3,7.3,0,0,0,1.53,2,4.17,4.17,0,0,0-.52.94c-.06.15-.11.22-.15.22s-.11-.07-.21-.22a13,13,0,0,1-.74-1.36c0,3.39.1,5.71.1,6,0,.14,0,.15-.15.15H98.42c-.15,0-.17,0-.17-.15s.1-2.63.11-5.72a11.57,11.57,0,0,1-1.53,3c-.1.14-.18.21-.24.21s-.11-.07-.15-.24a5,5,0,0,0-.45-1.15,10.63,10.63,0,0,0,2.12-3.77h-.25c-1,0-1.33,0-1.42,0s-.15,0-.15-.15v-1c0-.14,0-.15.15-.15s.39,0,1.42,0h.45Zm3.92,4.19a6.27,6.27,0,0,0,.14-1.09,9.17,9.17,0,0,1,1.2.32c.18.06.27.11.27.21a.36.36,0,0,1-.1.22,2.55,2.55,0,0,0-.21.64,13,13,0,0,1-1.26,3.32c-.11.21-.18.31-.27.31s-.15-.06-.29-.15a4.55,4.55,0,0,0-.9-.46A10.17,10.17,0,0,0,102.23,390.19Zm5.24-1.16c.2-.07.21,0,.24.11a15.13,15.13,0,0,0,1.47,4.29,4.08,4.08,0,0,0-1,.62c-.15.13-.24.2-.31.2s-.13-.1-.21-.32a26.37,26.37,0,0,1-1.27-4.38c0-.14,0-.15.2-.22Z"/><path d="M52.86,436.33l-2.73,0v8.17h-2v-8.17l-2.68,0v-1.65h7.41Z"/><path d="M56,436.71c0,.63,0,1.32,0,1.75h0a2.69,2.69,0,0,1,2.33-1.39c1.92,0,2.63,1.25,2.63,3.19v4.19H59.11V441c0-1.37-.11-2.41-1.34-2.41s-1.75,1-1.75,2.62v3.26H54.17V433.87H56Z"/><path d="M63,435.87v-1.79H64.9v1.79Zm0,1.37H64.9v7.21H63Z"/><path d="M71.71,438.78a2.76,2.76,0,0,0-1.13-.22,2.09,2.09,0,0,0-2.16,2.28,2,2,0,0,0,2.2,2.27,2.85,2.85,0,0,0,1.22-.25l.1,1.47a4.6,4.6,0,0,1-1.53.22c-2.4,0-4-1.43-4-3.67a3.67,3.67,0,0,1,3.89-3.73,4.85,4.85,0,0,1,1.5.2Z"/><path d="M76.64,442.57c-.38-.52-.91-1.29-1.23-1.78h0v3.67h-1.9V433.87h1.9v6.43h0c.29-.42.87-1.13,1.26-1.61l1.23-1.44h2.16l-2.91,3.21,3.24,4H78Z"/><path d="M83.2,438.45a2.72,2.72,0,0,1,2.4-1.37c1.92,0,2.59,1.25,2.59,3.18v4.2H86.34V441c0-1.39-.07-2.41-1.3-2.41a1.69,1.69,0,0,0-1.47.94,3.71,3.71,0,0,0-.31,1.68v3.26H81.41v-5c0-.7,0-1.47-.07-2.24h1.78c0,.31.06.83.06,1.21Z"/><path d="M91.64,441.37c0,1.11.92,1.82,2.23,1.82a3.88,3.88,0,0,0,2.1-.59l0,1.54a5.57,5.57,0,0,1-2.35.48,3.58,3.58,0,0,1-3.92-3.81,3.51,3.51,0,0,1,3.61-3.74c2.09,0,3.17,1.25,3.17,3.85a4.47,4.47,0,0,1,0,.45Zm3.14-1.29c0-1.18-.59-1.68-1.51-1.68a1.65,1.65,0,0,0-1.65,1.68Z"/><path d="M97.72,442.76a4.72,4.72,0,0,0,2,.49c.63,0,1.18-.25,1.18-.77s-.27-.7-1.41-1.11c-1.37-.48-1.92-1-1.92-2.09,0-1.37,1.13-2.21,2.86-2.21a5.18,5.18,0,0,1,2,.34l-.15,1.4a4,4,0,0,0-1.72-.41c-.63,0-1.09.27-1.09.76s.29.66,1.32,1c1.27.42,2,.94,2,2.17,0,1.48-1.21,2.3-3,2.3a6.27,6.27,0,0,1-2.23-.38Z"/><path d="M104,442.76a4.72,4.72,0,0,0,2,.49c.63,0,1.18-.25,1.18-.77s-.27-.7-1.41-1.11c-1.37-.48-1.92-1-1.92-2.09,0-1.37,1.13-2.21,2.86-2.21a5.18,5.18,0,0,1,2,.34l-.15,1.4a4,4,0,0,0-1.72-.41c-.63,0-1.09.27-1.09.76s.29.66,1.32,1c1.27.42,2,.94,2,2.17,0,1.48-1.21,2.3-3,2.3a6.27,6.27,0,0,1-2.23-.38Z"/><path d="M65.51,462.68h2v3.89h3.92v-3.89h2v9.78h-2v-4.23H67.49v4.23h-2Z"/><path d="M77,469.37c0,1.11.92,1.82,2.23,1.82a3.88,3.88,0,0,0,2.1-.59l0,1.54a5.57,5.57,0,0,1-2.35.48,3.58,3.58,0,0,1-3.92-3.81,3.51,3.51,0,0,1,3.61-3.74c2.09,0,3.17,1.25,3.17,3.85a4.47,4.47,0,0,1,0,.45Zm3.14-1.29c0-1.18-.59-1.68-1.51-1.68A1.65,1.65,0,0,0,77,468.09Z"/><path d="M83.53,463.87v-1.79H85.4v1.79Zm0,1.37H85.4v7.21H83.53Z"/><path d="M94.29,465.24v6.65c0,2.16-1.16,3.67-3.8,3.67a8.09,8.09,0,0,1-2.87-.48l.14-1.6a5.44,5.44,0,0,0,2.58.67,2,2,0,0,0,2.13-2.27,6.74,6.74,0,0,1,0-.74h0a2.57,2.57,0,0,1-2.31,1.3c-1.88,0-3.11-1.44-3.11-3.57s1.25-3.81,3.22-3.81a2.47,2.47,0,0,1,2.28,1.32h0c0-.45,0-.78,0-1.15ZM89,468.79c0,1.29.64,2.2,1.68,2.2s1.78-1,1.78-2.21-.71-2.26-1.79-2.26S89,467.5,89,468.79Z"/><path d="M98.21,464.71c0,.63,0,1.32,0,1.75h0a2.69,2.69,0,0,1,2.33-1.39c1.92,0,2.63,1.25,2.63,3.19v4.19h-1.85V469c0-1.37-.11-2.41-1.34-2.41s-1.75,1-1.75,2.62v3.26H96.36V461.87h1.85Z"/><path d="M104.28,466.63v-1.39h1.41v-1.51l1.77-.6v2.12h1.72v1.39h-1.72v2.82c0,1.09.21,1.58,1.12,1.58a2.27,2.27,0,0,0,.69-.11l0,1.44a4,4,0,0,1-1.29.18c-1.65,0-2.35-.81-2.35-2.72v-3.19Z"/><path d="M49.28,492.46a5.17,5.17,0,0,0-2-.42c-1,0-1.69.43-1.69,1.11s.32,1,1.77,1.5c1.82.64,2.59,1.49,2.59,2.93,0,1.88-1.43,3.05-3.68,3.05a7.79,7.79,0,0,1-2.59-.42l.18-1.72a5.24,5.24,0,0,0,2.3.56c1,0,1.78-.43,1.78-1.22s-.41-1.13-1.89-1.68c-1.74-.63-2.48-1.42-2.48-2.8,0-1.74,1.42-2.83,3.5-2.83a7.26,7.26,0,0,1,2.37.35Z"/><path d="M50.68,494.63v-1.39H52.1v-1.51l1.77-.6v2.12h1.72v1.39H53.86v2.82c0,1.09.21,1.58,1.12,1.58a2.27,2.27,0,0,0,.69-.11l0,1.44a4,4,0,0,1-1.29.18c-1.65,0-2.35-.81-2.35-2.72v-3.19Z"/><path d="M58.75,494.62a2.15,2.15,0,0,1,2.07-1.54,1.77,1.77,0,0,1,.62.08l0,1.61a2,2,0,0,0-.64-.1c-1.26,0-1.88,1-1.88,2.84v2.94H57v-5.07c0-.76,0-1.54-.07-2.14h1.77c0,.32.06,1,.06,1.37Z"/><path d="M62.49,493.64a6,6,0,0,1,2.59-.56c2.24,0,3.12,1.15,3.12,2.94,0,.55,0,1.6,0,2.14,0,.85.06,1.82.1,2.3H66.64a5.72,5.72,0,0,1,0-.57c0-.17,0-.41,0-.63h0a2.7,2.7,0,0,1-2.48,1.34,2.19,2.19,0,0,1-2.41-2.24c0-1.51,1.33-2.35,3.71-2.35.29,0,.69,0,1,0,0-1.11-.52-1.6-1.69-1.6a4.47,4.47,0,0,0-2.2.64Zm3.38,3.47c-1.48,0-2.3.31-2.3,1.15,0,.63.41,1,1.12,1,1,0,1.79-.62,1.79-2.1A4.91,4.91,0,0,0,65.87,497.11Z"/><path d="M70.13,491.87v-1.79H72v1.79Zm0,1.37H72v7.21H70.13Z"/><path d="M80.89,493.24v6.65c0,2.16-1.16,3.67-3.8,3.67a8.09,8.09,0,0,1-2.87-.48l.14-1.6a5.44,5.44,0,0,0,2.58.67,2,2,0,0,0,2.13-2.27,6.74,6.74,0,0,1,0-.74h0a2.57,2.57,0,0,1-2.31,1.3c-1.88,0-3.11-1.44-3.11-3.57s1.25-3.81,3.22-3.81a2.47,2.47,0,0,1,2.28,1.32h0c0-.45,0-.78,0-1.15Zm-5.31,3.54c0,1.29.64,2.2,1.68,2.2S79,498,79,496.77s-.71-2.26-1.79-2.26S75.58,495.5,75.58,496.79Z"/><path d="M84.81,492.71c0,.63,0,1.32,0,1.75h0a2.69,2.69,0,0,1,2.33-1.39c1.92,0,2.63,1.25,2.63,3.19v4.19H87.91V497c0-1.37-.11-2.41-1.34-2.41s-1.75,1-1.75,2.62v3.26H83V489.87h1.85Z"/><path d="M90.88,494.63v-1.39H92.3v-1.51l1.77-.6v2.12h1.72v1.39H94.06v2.82c0,1.09.21,1.58,1.12,1.58a2.27,2.27,0,0,0,.69-.11l0,1.44a4,4,0,0,1-1.29.18c-1.65,0-2.35-.81-2.35-2.72v-3.19Z"/><path d="M98.65,497.37c0,1.11.92,1.82,2.23,1.82a3.88,3.88,0,0,0,2.1-.59l0,1.54a5.57,5.57,0,0,1-2.35.48,3.58,3.58,0,0,1-3.92-3.81,3.51,3.51,0,0,1,3.61-3.74c2.09,0,3.17,1.25,3.17,3.85a4.47,4.47,0,0,1,0,.45Zm3.14-1.29c0-1.18-.59-1.68-1.51-1.68a1.65,1.65,0,0,0-1.65,1.68Z"/><path d="M106.83,494.62a2.15,2.15,0,0,1,2.07-1.54,1.77,1.77,0,0,1,.62.08l0,1.61a2,2,0,0,0-.64-.1c-1.26,0-1.88,1-1.88,2.84v2.94h-1.9v-5.07c0-.76,0-1.54-.07-2.14h1.77c0,.32.06,1,.06,1.37Z"/><path d="M168.75,430.49l-.32,1.38h-5.79l-1,4.06a6.77,6.77,0,0,1,1.5-.14c2.5,0,4.14,1.32,4.14,3.66,0,3.24-2.4,5.22-6,5.22a11.5,11.5,0,0,1-3.14-.46l.32-1.4a7.51,7.51,0,0,0,2.82.52c2.56,0,4.34-1.4,4.34-3.7,0-1.7-1.16-2.58-3.28-2.58a8.65,8.65,0,0,0-2.6.44l1.7-7Z"/><path d="M179.88,434.59c0,3.86-1.88,10.08-6.37,10.08-2.38,0-3.66-1.58-3.66-4.56,0-3.78,2-9.84,6.41-9.84C178.58,430.27,179.88,431.85,179.88,434.59Zm-8.33,5.7c0,1.9.64,3,2,3,3.24,0,4.68-5.82,4.68-8.64,0-2-.66-3-2-3C172.92,431.61,171.56,437.48,171.56,440.3Z"/><path d="M191.29,434.59c0,3.86-1.88,10.08-6.37,10.08-2.38,0-3.66-1.58-3.66-4.56,0-3.78,2-9.84,6.41-9.84C190,430.27,191.29,431.85,191.29,434.59ZM183,440.3c0,1.9.64,3,2,3,3.24,0,4.68-5.82,4.68-8.64,0-2-.66-3-2-3C184.33,431.61,183,437.48,183,440.3Z"/><path d="M157.86,463.9c.26-1.24.66-3,.84-3.58h0c-.66.52-1.64,1.2-2.7,1.88l-.74-1.22,4-2.48h1.44l-3,14H156Z"/><path d="M174.18,462.59c0,3.86-1.88,10.08-6.37,10.08-2.38,0-3.66-1.58-3.66-4.56,0-3.78,2-9.84,6.41-9.84C172.88,458.27,174.18,459.85,174.18,462.59Zm-8.33,5.7c0,1.9.64,3,2,3,3.24,0,4.68-5.82,4.68-8.64,0-2-.66-3-2-3C167.21,459.61,165.85,465.48,165.85,468.3Z"/><path d="M185.59,462.59c0,3.86-1.88,10.08-6.37,10.08-2.38,0-3.66-1.58-3.66-4.56,0-3.78,2-9.84,6.41-9.84C184.29,458.27,185.59,459.85,185.59,462.59Zm-8.33,5.7c0,1.9.64,3,2,3,3.24,0,4.68-5.82,4.68-8.64,0-2-.66-3-2-3C178.62,459.61,177.26,465.48,177.26,468.3Z"/><path d="M197,462.59c0,3.86-1.88,10.08-6.37,10.08-2.38,0-3.66-1.58-3.66-4.56,0-3.78,2-9.84,6.41-9.84C195.7,458.27,197,459.85,197,462.59Zm-8.33,5.7c0,1.9.64,3,2,3,3.24,0,4.68-5.82,4.68-8.64,0-2-.66-3-2-3C190,459.61,188.67,465.48,188.67,468.3Z"/><path d="M157.86,491.9c.26-1.24.66-3,.84-3.58h0c-.66.52-1.64,1.2-2.7,1.88l-.74-1.22,4-2.48h1.44l-3,14H156Z"/><path d="M174.18,490.59c0,3.86-1.88,10.08-6.37,10.08-2.38,0-3.66-1.58-3.66-4.56,0-3.78,2-9.84,6.41-9.84C172.88,486.27,174.18,487.85,174.18,490.59Zm-8.33,5.7c0,1.9.64,3,2,3,3.24,0,4.68-5.82,4.68-8.64,0-2-.66-3-2-3C167.21,487.61,165.85,493.48,165.85,496.3Z"/><path d="M185.59,490.59c0,3.86-1.88,10.08-6.37,10.08-2.38,0-3.66-1.58-3.66-4.56,0-3.78,2-9.84,6.41-9.84C184.29,486.27,185.59,487.85,185.59,490.59Zm-8.33,5.7c0,1.9.64,3,2,3,3.24,0,4.68-5.82,4.68-8.64,0-2-.66-3-2-3C178.62,487.61,177.26,493.48,177.26,496.3Z"/><path d="M197,490.59c0,3.86-1.88,10.08-6.37,10.08-2.38,0-3.66-1.58-3.66-4.56,0-3.78,2-9.84,6.41-9.84C195.7,486.27,197,487.85,197,490.59Zm-8.33,5.7c0,1.9.64,3,2,3,3.24,0,4.68-5.82,4.68-8.64,0-2-.66-3-2-3C190,487.61,188.67,493.48,188.67,496.3Z"/><path d="M290.49,430.49l-.32,1.38h-5.79l-1,4.06a6.77,6.77,0,0,1,1.5-.14c2.5,0,4.14,1.32,4.14,3.66,0,3.24-2.4,5.22-6,5.22a11.5,11.5,0,0,1-3.14-.46l.32-1.4a7.51,7.51,0,0,0,2.82.52c2.56,0,4.34-1.4,4.34-3.7,0-1.7-1.16-2.58-3.28-2.58a8.65,8.65,0,0,0-2.6.44l1.7-7Z"/><path d="M301.62,434.59c0,3.86-1.88,10.08-6.37,10.08-2.38,0-3.66-1.58-3.66-4.56,0-3.78,2-9.84,6.41-9.84C300.32,430.27,301.62,431.85,301.62,434.59Zm-8.33,5.7c0,1.9.64,3,2,3,3.24,0,4.68-5.82,4.68-8.64,0-2-.66-3-2-3C294.65,431.61,293.29,437.48,293.29,440.3Z"/><path d="M313,434.59c0,3.86-1.88,10.08-6.37,10.08-2.38,0-3.66-1.58-3.66-4.56,0-3.78,2-9.84,6.41-9.84C311.73,430.27,313,431.85,313,434.59Zm-8.33,5.7c0,1.9.64,3,2,3,3.24,0,4.68-5.82,4.68-8.64,0-2-.66-3-2-3C306.06,431.61,304.7,437.48,304.7,440.3Z"/><path d="M279.6,463.9c.26-1.24.66-3,.84-3.58h0c-.66.52-1.64,1.2-2.7,1.88L277,461l4-2.48h1.44l-3,14h-1.64Z"/><path d="M295.91,462.59c0,3.86-1.88,10.08-6.37,10.08-2.38,0-3.66-1.58-3.66-4.56,0-3.78,2-9.84,6.41-9.84C294.61,458.27,295.91,459.85,295.91,462.59Zm-8.33,5.7c0,1.9.64,3,2,3,3.24,0,4.68-5.82,4.68-8.64,0-2-.66-3-2-3C288.95,459.61,287.58,465.48,287.58,468.3Z"/><path d="M307.32,462.59c0,3.86-1.88,10.08-6.37,10.08-2.38,0-3.66-1.58-3.66-4.56,0-3.78,2-9.84,6.41-9.84C306,458.27,307.32,459.85,307.32,462.59ZM299,468.3c0,1.9.64,3,2,3,3.24,0,4.68-5.82,4.68-8.64,0-2-.66-3-2-3C300.36,459.61,299,465.48,299,468.3Z"/><path d="M318.73,462.59c0,3.86-1.88,10.08-6.37,10.08-2.38,0-3.66-1.58-3.66-4.56,0-3.78,2-9.84,6.41-9.84C317.43,458.27,318.73,459.85,318.73,462.59Zm-8.33,5.7c0,1.9.64,3,2,3,3.24,0,4.68-5.82,4.68-8.64,0-2-.66-3-2-3C311.77,459.61,310.41,465.48,310.41,468.3Z"/><path d="M290.49,486.49l-.32,1.38h-5.79l-1,4.06a6.77,6.77,0,0,1,1.5-.14c2.5,0,4.14,1.32,4.14,3.66,0,3.24-2.4,5.22-6,5.22a11.5,11.5,0,0,1-3.14-.46l.32-1.4a7.51,7.51,0,0,0,2.82.52c2.56,0,4.34-1.4,4.34-3.7,0-1.7-1.16-2.58-3.28-2.58a8.65,8.65,0,0,0-2.6.44l1.7-7Z"/><path d="M301.62,490.59c0,3.86-1.88,10.08-6.37,10.08-2.38,0-3.66-1.58-3.66-4.56,0-3.78,2-9.84,6.41-9.84C300.32,486.27,301.62,487.85,301.62,490.59Zm-8.33,5.7c0,1.9.64,3,2,3,3.24,0,4.68-5.82,4.68-8.64,0-2-.66-3-2-3C294.65,487.61,293.29,493.48,293.29,496.3Z"/><path d="M313,490.59c0,3.86-1.88,10.08-6.37,10.08-2.38,0-3.66-1.58-3.66-4.56,0-3.78,2-9.84,6.41-9.84C311.73,486.27,313,487.85,313,490.59Zm-8.33,5.7c0,1.9.64,3,2,3,3.24,0,4.68-5.82,4.68-8.64,0-2-.66-3-2-3C306.06,487.61,304.7,493.48,304.7,496.3Z"/><path d="M434.07,434.59c0,3.86-1.88,10.08-6.37,10.08-2.38,0-3.66-1.58-3.66-4.56,0-3.78,2-9.84,6.41-9.84C432.77,430.27,434.07,431.85,434.07,434.59Zm-8.33,5.7c0,1.9.64,3,2,3,3.24,0,4.68-5.82,4.68-8.64,0-2-.66-3-2-3C427.1,431.61,425.74,437.48,425.74,440.3Z"/><path d="M412,463.9c.26-1.24.66-3,.84-3.58h0c-.66.52-1.64,1.2-2.7,1.88L409.4,461l4-2.48h1.44l-3,14h-1.64Z"/><path d="M428.36,462.59c0,3.86-1.88,10.08-6.37,10.08-2.38,0-3.66-1.58-3.66-4.56,0-3.78,2-9.84,6.41-9.84C427.06,458.27,428.36,459.85,428.36,462.59ZM420,468.3c0,1.9.64,3,2,3,3.24,0,4.68-5.82,4.68-8.64,0-2-.66-3-2-3C421.39,459.61,420,465.48,420,468.3Z"/><path d="M439.77,462.59c0,3.86-1.88,10.08-6.37,10.08-2.38,0-3.66-1.58-3.66-4.56,0-3.78,2-9.84,6.41-9.84C438.47,458.27,439.77,459.85,439.77,462.59Zm-8.33,5.7c0,1.9.64,3,2,3,3.24,0,4.68-5.82,4.68-8.64,0-2-.66-3-2-3C432.8,459.61,431.44,465.48,431.44,468.3Z"/><path d="M451.18,462.59c0,3.86-1.88,10.08-6.37,10.08-2.38,0-3.66-1.58-3.66-4.56,0-3.78,2-9.84,6.41-9.84C449.88,458.27,451.18,459.85,451.18,462.59Zm-8.33,5.7c0,1.9.64,3,2,3,3.24,0,4.68-5.82,4.68-8.64,0-2-.66-3-2-3C444.21,459.61,442.85,465.48,442.85,468.3Z"/><path d="M412,491.9c.26-1.24.66-3,.84-3.58h0c-.66.52-1.64,1.2-2.7,1.88L409.4,489l4-2.48h1.44l-3,14h-1.64Z"/><path d="M428.36,490.59c0,3.86-1.88,10.08-6.37,10.08-2.38,0-3.66-1.58-3.66-4.56,0-3.78,2-9.84,6.41-9.84C427.06,486.27,428.36,487.85,428.36,490.59ZM420,496.3c0,1.9.64,3,2,3,3.24,0,4.68-5.82,4.68-8.64,0-2-.66-3-2-3C421.39,487.61,420,493.48,420,496.3Z"/><path d="M439.77,490.59c0,3.86-1.88,10.08-6.37,10.08-2.38,0-3.66-1.58-3.66-4.56,0-3.78,2-9.84,6.41-9.84C438.47,486.27,439.77,487.85,439.77,490.59Zm-8.33,5.7c0,1.9.64,3,2,3,3.24,0,4.68-5.82,4.68-8.64,0-2-.66-3-2-3C432.8,487.61,431.44,493.48,431.44,496.3Z"/><path d="M451.18,490.59c0,3.86-1.88,10.08-6.37,10.08-2.38,0-3.66-1.58-3.66-4.56,0-3.78,2-9.84,6.41-9.84C449.88,486.27,451.18,487.85,451.18,490.59Zm-8.33,5.7c0,1.9.64,3,2,3,3.24,0,4.68-5.82,4.68-8.64,0-2-.66-3-2-3C444.21,487.61,442.85,493.48,442.85,496.3Z"/><path d="M565,434.59c0,3.86-1.88,10.08-6.37,10.08-2.38,0-3.66-1.58-3.66-4.56,0-3.78,2-9.84,6.41-9.84C563.67,430.27,565,431.85,565,434.59Zm-8.33,5.7c0,1.9.64,3,2,3,3.24,0,4.68-5.82,4.68-8.64,0-2-.66-3-2-3C558,431.61,556.64,437.48,556.64,440.3Z"/><path d="M565,462.59c0,3.86-1.88,10.08-6.37,10.08-2.38,0-3.66-1.58-3.66-4.56,0-3.78,2-9.84,6.41-9.84C563.67,458.27,565,459.85,565,462.59Zm-8.33,5.7c0,1.9.64,3,2,3,3.24,0,4.68-5.82,4.68-8.64,0-2-.66-3-2-3C558,459.61,556.64,465.48,556.64,468.3Z"/><path d="M562.46,494.46l-.24,1.32H557l.26-1.32Z"/><path d="M677.35,435.9c.26-1.24.66-3,.84-3.58h0c-.66.52-1.64,1.2-2.7,1.88l-.74-1.22,4-2.48h1.44l-3,14h-1.64Z"/><path d="M693.66,434.59c0,3.86-1.88,10.08-6.37,10.08-2.38,0-3.66-1.58-3.66-4.56,0-3.78,2-9.84,6.41-9.84C692.36,430.27,693.66,431.85,693.66,434.59Zm-8.33,5.7c0,1.9.64,3,2,3,3.24,0,4.68-5.82,4.68-8.64,0-2-.66-3-2-3C686.7,431.61,685.33,437.48,685.33,440.3Z"/><path d="M705.07,434.59c0,3.86-1.88,10.08-6.37,10.08-2.38,0-3.66-1.58-3.66-4.56,0-3.78,2-9.84,6.41-9.84C703.77,430.27,705.07,431.85,705.07,434.59Zm-8.33,5.7c0,1.9.64,3,2,3,3.24,0,4.69-5.82,4.69-8.64,0-2-.66-3-2-3C698.11,431.61,696.75,437.48,696.75,440.3Z"/><path d="M716.48,434.59c0,3.86-1.88,10.08-6.37,10.08-2.38,0-3.66-1.58-3.66-4.56,0-3.78,2-9.84,6.41-9.84C715.18,430.27,716.48,431.85,716.48,434.59Zm-8.33,5.7c0,1.9.64,3,2,3,3.24,0,4.69-5.82,4.69-8.64,0-2-.66-3-2-3C709.52,431.61,708.16,437.48,708.16,440.3Z"/><path d="M677.35,463.9c.26-1.24.66-3,.84-3.58h0c-.66.52-1.64,1.2-2.7,1.88l-.74-1.22,4-2.48h1.44l-3,14h-1.64Z"/><path d="M693.66,462.59c0,3.86-1.88,10.08-6.37,10.08-2.38,0-3.66-1.58-3.66-4.56,0-3.78,2-9.84,6.41-9.84C692.36,458.27,693.66,459.85,693.66,462.59Zm-8.33,5.7c0,1.9.64,3,2,3,3.24,0,4.68-5.82,4.68-8.64,0-2-.66-3-2-3C686.7,459.61,685.33,465.48,685.33,468.3Z"/><path d="M705.07,462.59c0,3.86-1.88,10.08-6.37,10.08-2.38,0-3.66-1.58-3.66-4.56,0-3.78,2-9.84,6.41-9.84C703.77,458.27,705.07,459.85,705.07,462.59Zm-8.33,5.7c0,1.9.64,3,2,3,3.24,0,4.69-5.82,4.69-8.64,0-2-.66-3-2-3C698.11,459.61,696.75,465.48,696.75,468.3Z"/><path d="M716.48,462.59c0,3.86-1.88,10.08-6.37,10.08-2.38,0-3.66-1.58-3.66-4.56,0-3.78,2-9.84,6.41-9.84C715.18,458.27,716.48,459.85,716.48,462.59Zm-8.33,5.7c0,1.9.64,3,2,3,3.24,0,4.69-5.82,4.69-8.64,0-2-.66-3-2-3C709.52,459.61,708.16,465.48,708.16,468.3Z"/><path d="M677.35,491.9c.26-1.24.66-3,.84-3.58h0c-.66.52-1.64,1.2-2.7,1.88l-.74-1.22,4-2.48h1.44l-3,14h-1.64Z"/><path d="M693.66,490.59c0,3.86-1.88,10.08-6.37,10.08-2.38,0-3.66-1.58-3.66-4.56,0-3.78,2-9.84,6.41-9.84C692.36,486.27,693.66,487.85,693.66,490.59Zm-8.33,5.7c0,1.9.64,3,2,3,3.24,0,4.68-5.82,4.68-8.64,0-2-.66-3-2-3C686.7,487.61,685.33,493.48,685.33,496.3Z"/><path d="M705.07,490.59c0,3.86-1.88,10.08-6.37,10.08-2.38,0-3.66-1.58-3.66-4.56,0-3.78,2-9.84,6.41-9.84C703.77,486.27,705.07,487.85,705.07,490.59Zm-8.33,5.7c0,1.9.64,3,2,3,3.24,0,4.69-5.82,4.69-8.64,0-2-.66-3-2-3C698.11,487.61,696.75,493.48,696.75,496.3Z"/><path d="M716.48,490.59c0,3.86-1.88,10.08-6.37,10.08-2.38,0-3.66-1.58-3.66-4.56,0-3.78,2-9.84,6.41-9.84C715.18,486.27,716.48,487.85,716.48,490.59Zm-8.33,5.7c0,1.9.64,3,2,3,3.24,0,4.69-5.82,4.69-8.64,0-2-.66-3-2-3C709.52,487.61,708.16,493.48,708.16,496.3Z"/><path d="M804,435.9c.26-1.24.66-3,.84-3.58h0c-.66.52-1.64,1.2-2.7,1.88l-.74-1.22,4-2.48h1.44l-3,14h-1.64Z"/><path d="M820.27,434.59c0,3.86-1.88,10.08-6.37,10.08-2.38,0-3.66-1.58-3.66-4.56,0-3.78,2-9.84,6.41-9.84C819,430.27,820.27,431.85,820.27,434.59Zm-8.33,5.7c0,1.9.64,3,2,3,3.24,0,4.68-5.82,4.68-8.64,0-2-.66-3-2-3C813.3,431.61,811.94,437.48,811.94,440.3Z"/><path d="M831.68,434.59c0,3.86-1.88,10.08-6.37,10.08-2.38,0-3.66-1.58-3.66-4.56,0-3.78,2-9.84,6.41-9.84C830.38,430.27,831.68,431.85,831.68,434.59Zm-8.33,5.7c0,1.9.64,3,2,3,3.24,0,4.68-5.82,4.68-8.64,0-2-.66-3-2-3C824.71,431.61,823.35,437.48,823.35,440.3Z"/><path d="M843.09,434.59c0,3.86-1.88,10.08-6.37,10.08-2.38,0-3.66-1.58-3.66-4.56,0-3.78,2-9.84,6.41-9.84C841.79,430.27,843.09,431.85,843.09,434.59Zm-8.33,5.7c0,1.9.64,3,2,3,3.24,0,4.68-5.82,4.68-8.64,0-2-.66-3-2-3C836.12,431.61,834.76,437.48,834.76,440.3Z"/><path d="M826,462.59c0,3.86-1.88,10.08-6.37,10.08-2.38,0-3.66-1.58-3.66-4.56,0-3.78,2-9.84,6.41-9.84C824.67,458.27,826,459.85,826,462.59Zm-8.33,5.7c0,1.9.64,3,2,3,3.24,0,4.68-5.82,4.68-8.64,0-2-.66-3-2-3C819,459.61,817.65,465.48,817.65,468.3Z"/><path d="M823.46,494.46l-.24,1.32H818l.26-1.32Z"/><path d="M938.92,430.49l-.32,1.38h-5.79l-1,4.06a6.77,6.77,0,0,1,1.5-.14c2.5,0,4.14,1.32,4.14,3.66,0,3.24-2.4,5.22-6,5.22a11.5,11.5,0,0,1-3.14-.46l.32-1.4a7.51,7.51,0,0,0,2.82.52c2.56,0,4.34-1.4,4.34-3.7,0-1.7-1.16-2.58-3.28-2.58a8.65,8.65,0,0,0-2.6.44l1.7-7Z"/><path d="M950.05,434.59c0,3.86-1.88,10.08-6.37,10.08-2.38,0-3.66-1.58-3.66-4.56,0-3.78,2-9.84,6.41-9.84C948.75,430.27,950.05,431.85,950.05,434.59Zm-8.33,5.7c0,1.9.64,3,2,3,3.24,0,4.68-5.82,4.68-8.64,0-2-.66-3-2-3C943.08,431.61,941.72,437.48,941.72,440.3Z"/><path d="M961.46,434.59c0,3.86-1.88,10.08-6.37,10.08-2.38,0-3.66-1.58-3.66-4.56,0-3.78,2-9.84,6.41-9.84C960.16,430.27,961.46,431.85,961.46,434.59Zm-8.33,5.7c0,1.9.64,3,2,3,3.24,0,4.68-5.82,4.68-8.64,0-2-.66-3-2-3C954.5,431.61,953.13,437.48,953.13,440.3Z"/><path d="M928,463.9c.26-1.24.66-3,.84-3.58h0c-.66.52-1.64,1.2-2.7,1.88l-.74-1.22,4-2.48h1.44l-3,14h-1.64Z"/><path d="M944.35,462.59c0,3.86-1.88,10.08-6.37,10.08-2.38,0-3.66-1.58-3.66-4.56,0-3.78,2-9.84,6.41-9.84C943,458.27,944.35,459.85,944.35,462.59ZM936,468.3c0,1.9.64,3,2,3,3.24,0,4.68-5.82,4.68-8.64,0-2-.66-3-2-3C937.38,459.61,936,465.48,936,468.3Z"/><path d="M955.76,462.59c0,3.86-1.88,10.08-6.37,10.08-2.38,0-3.66-1.58-3.66-4.56,0-3.78,2-9.84,6.41-9.84C954.46,458.27,955.76,459.85,955.76,462.59Zm-8.33,5.7c0,1.9.64,3,2,3,3.24,0,4.68-5.82,4.68-8.64,0-2-.66-3-2-3C948.79,459.61,947.43,465.48,947.43,468.3Z"/><path d="M967.17,462.59c0,3.86-1.88,10.08-6.37,10.08-2.38,0-3.66-1.58-3.66-4.56,0-3.78,2-9.84,6.41-9.84C965.87,458.27,967.17,459.85,967.17,462.59Zm-8.33,5.7c0,1.9.64,3,2,3,3.24,0,4.68-5.82,4.68-8.64,0-2-.66-3-2-3C960.2,459.61,958.84,465.48,958.84,468.3Z"/><path d="M950.05,490.59c0,3.86-1.88,10.08-6.37,10.08-2.38,0-3.66-1.58-3.66-4.56,0-3.78,2-9.84,6.41-9.84C948.75,486.27,950.05,487.85,950.05,490.59Zm-8.33,5.7c0,1.9.64,3,2,3,3.24,0,4.68-5.82,4.68-8.64,0-2-.66-3-2-3C943.08,487.61,941.72,493.48,941.72,496.3Z"/><path d="M568,536.31l-.36.36-4.53-4.51-4.5,4.51-.36-.36,4.5-4.51-4.48-4.47.36-.36,4.48,4.47,4.48-4.47.36.36-4.48,4.47Zm-7.17-4.51a1,1,0,1,1-1-1A1,1,0,0,1,560.87,531.8Zm3.24-3.23a1,1,0,0,1-1,.95.94.94,0,0,1-.95-.95,1,1,0,0,1,.95-1A1,1,0,0,1,564.11,528.58Zm0,6.48a1,1,0,0,1-1,.95.94.94,0,0,1-.95-.95,1,1,0,0,1,.95-1A1,1,0,0,1,564.11,535.05Zm3.23-3.25a1,1,0,0,1-1,.95.94.94,0,0,1-.95-.95,1,1,0,0,1,.95-1A1,1,0,0,1,567.34,531.8Z"/><path d="M577.38,536.39h-1.61v-4.2H571.9v4.2h-1.61v-9.31h1.61v3.79h3.88v-3.79h1.61Z"/><path d="M580.56,533.42c0,1.25.56,2.08,1.66,2.08.68,0,1.17-.38,1.39-1.25l1.37.4a2.61,2.61,0,0,1-2.77,1.91c-2,0-3.12-1.26-3.12-3.42s1.21-3.48,3-3.48,2.94,1.22,2.94,3.45v.31Zm3-1c-.07-1.1-.54-1.73-1.44-1.73s-1.44.67-1.51,1.73Z"/><path d="M588.1,528.63h-1.63v-1.55h1.63Zm-.06,7.76h-1.51V529.8H588Z"/><path d="M595.56,530.1a1.5,1.5,0,0,0-1.18.34,1.92,1.92,0,0,1,.54,1.32c0,1.37-1.07,2.17-2.59,2.17a3.37,3.37,0,0,1-.85-.11c-.29.14-.48.35-.48.58s.16.41.91.48l1.49.12c1.73.17,2.28.74,2.28,1.7,0,1.15-1.17,2-3.31,2-1.91,0-3-.65-3-1.6,0-.58.48-1,1.21-1.28-.6-.13-.92-.47-.92-.95s.3-.92,1-1.37a2,2,0,0,1-.94-1.74c0-1.27,1.07-2.11,2.58-2.11a3.07,3.07,0,0,1,1.41.31,1.88,1.88,0,0,1,1.91-1.08Zm-4,5.9c-.56.18-.89.49-.89.9,0,.58.72.91,1.81.91,1.29,0,1.92-.41,1.92-.87s-.22-.66-1.21-.77Zm-.38-4.26a1.2,1.2,0,1,0,2.4,0,1.2,1.2,0,1,0-2.4,0Z"/><path d="M598.47,530.92a2.68,2.68,0,0,1,2.11-1.25,1.8,1.8,0,0,1,1.89,2v4.75h-1.55v-4.32c0-.77-.32-1.1-.91-1.1a2,2,0,0,0-1.54,1.13v4.29H597v-9.48h1.51Z"/><path d="M606.18,529.8h1.48v1.1h-1.48v3.61c0,.66.26.95.82.95a3.43,3.43,0,0,0,.77-.07l-.06,1.08a8,8,0,0,1-1.18.07c-1.25,0-1.84-.54-1.84-1.75V530.9h-1v-1.1h1V528l1.49-.34Z"/><path d="M612.12,528.15a8.2,8.2,0,0,0,.12-1.33,8.83,8.83,0,0,1,1.44.4.25.25,0,0,1,.19.24.25.25,0,0,1-.08.18,1.53,1.53,0,0,0-.24.46c-.16.49-.28.94-.43,1.44a9.14,9.14,0,0,1,1,0c1.12,0,1.72.78,1.72,2.31a10.21,10.21,0,0,1-.65,3.75,1.72,1.72,0,0,1-1.62,1.13,3.18,3.18,0,0,1-1.25-.18.32.32,0,0,1-.22-.34,3.4,3.4,0,0,0-.23-1.12,3.2,3.2,0,0,0,1.38.31c.4,0,.58-.14.77-.64a9.25,9.25,0,0,0,.47-3c0-.84-.16-1.1-.68-1.1a7.8,7.8,0,0,0-1,.08,33.16,33.16,0,0,1-2.41,5.64.2.2,0,0,1-.31.11,5.41,5.41,0,0,1-.83-.53.25.25,0,0,1-.1-.18.22.22,0,0,1,0-.13,25.32,25.32,0,0,0,2.2-4.7l-1.18.2a3.42,3.42,0,0,0-.66.19.26.26,0,0,1-.38-.16,10.89,10.89,0,0,1-.37-1.24c.53,0,1.06,0,1.58-.08s.95-.11,1.42-.18C612,529,612,528.55,612.12,528.15Zm4.76.8c.08,0,.14,0,.23.06a8,8,0,0,1,2,2.91.17.17,0,0,1,0,.24,4.93,4.93,0,0,1-.9.6c-.12.06-.24,0-.28-.1a8.11,8.11,0,0,0-2-3.11A10.25,10.25,0,0,1,616.88,528.95Zm.32-1.68c.06,0,.11,0,.18,0a5.53,5.53,0,0,1,1.14,1.28.12.12,0,0,1,0,.19l-.5.37a.13.13,0,0,1-.2,0,6,6,0,0,0-1.21-1.39Zm1.07-.78c.07,0,.11,0,.18,0a5,5,0,0,1,1.14,1.24.14.14,0,0,1,0,.22l-.48.37a.12.12,0,0,1-.2,0,5.67,5.67,0,0,0-1.2-1.38Z"/><path d="M626.39,531.78c0,3.39-1,4.77-2.91,4.77s-2.87-1.35-2.87-4.75,1-4.73,2.89-4.73S626.39,528.4,626.39,531.78Zm-4.23,0c0,2.7.37,3.57,1.32,3.57s1.36-.89,1.36-3.57-.37-3.53-1.33-3.53S622.16,529.08,622.16,531.79Z"/><path d="M633.6,529a15,15,0,0,1-1.5,5.17,2.28,2.28,0,0,1-2,1.38c-1.06,0-2.13-1.13-2.13-3.08a4.41,4.41,0,0,1,1.36-3.12,5.26,5.26,0,0,1,3.9-1.54c2.88,0,4.58,1.77,4.58,4.16,0,2.23-1.26,3.63-3.7,4.37-.25.07-.36,0-.52-.22a2.53,2.53,0,0,0-.84-.76c2-.48,3.63-1.32,3.63-3.59a2.73,2.73,0,0,0-2.69-2.78Zm-3.45,1.16a3.45,3.45,0,0,0-.94,2.22c0,1.1.44,1.71.82,1.71s.58-.16.9-.73a13.69,13.69,0,0,0,1.27-4.29A3.62,3.62,0,0,0,630.15,530.17Z"/><path d="M645.72,528a1.77,1.77,0,0,0,.83-.11.2.2,0,0,1,.13,0,.4.4,0,0,1,.2.1,4.36,4.36,0,0,1,.78.84.32.32,0,0,1,.06.16.33.33,0,0,1-.16.24,2.19,2.19,0,0,0-.44.53,18.9,18.9,0,0,1-1.54,2.24,28.25,28.25,0,0,1,3.33,2.9.27.27,0,0,1,.1.17.29.29,0,0,1-.08.18,6.32,6.32,0,0,1-.8.82.2.2,0,0,1-.14.07.25.25,0,0,1-.17-.1,21.87,21.87,0,0,0-3.12-3,17.29,17.29,0,0,1-4,3.17.77.77,0,0,1-.28.1.27.27,0,0,1-.2-.11,3.29,3.29,0,0,0-1-.78,15,15,0,0,0,6.48-6.07h-3.1c-.62,0-1.25,0-1.9.07-.1,0-.13-.07-.16-.2a6.94,6.94,0,0,1-.11-1.25c.65,0,1.25,0,2,0Z"/><path d="M657.38,528.39a1.17,1.17,0,0,0,.66-.18.35.35,0,0,1,.2-.08.42.42,0,0,1,.22.1,3.9,3.9,0,0,1,.82.73.29.29,0,0,1,.1.22.31.31,0,0,1-.13.23,1.5,1.5,0,0,0-.36.46,18.72,18.72,0,0,1-1.77,2.9,10.65,10.65,0,0,1,1.3,1.21.24.24,0,0,1,.07.17.23.23,0,0,1-.07.16,7.46,7.46,0,0,1-.75.76.25.25,0,0,1-.14.06.21.21,0,0,1-.13-.07,13.34,13.34,0,0,0-1.16-1.16,14.67,14.67,0,0,1-3.83,3,.66.66,0,0,1-.3.11.36.36,0,0,1-.23-.11,3.42,3.42,0,0,0-1.14-.61,14.56,14.56,0,0,0,4.42-3.25,10.08,10.08,0,0,0-1.73-1.13c.26-.29.52-.6.79-.85a.23.23,0,0,1,.16-.08.3.3,0,0,1,.12,0,12.13,12.13,0,0,1,1.55,1,11.53,11.53,0,0,0,1.4-2.37l-3,.06a14.49,14.49,0,0,1-2.57,2.7.43.43,0,0,1-.24.11.28.28,0,0,1-.19-.08,5,5,0,0,0-1-.55,13.39,13.39,0,0,0,3.4-3.77,4.44,4.44,0,0,0,.65-1.48,7.58,7.58,0,0,1,1.4.59.21.21,0,0,1,.13.19.32.32,0,0,1-.14.24,1,1,0,0,0-.25.25c-.1.17-.17.29-.37.6Z"/><path d="M666.66,534.12c0,.83,0,1.54,0,2.5,0,.16,0,.2-.18.2a10.25,10.25,0,0,1-1.2,0c-.13,0-.18,0-.17-.19,0-.86,0-1.64,0-2.46v-2.79a20.76,20.76,0,0,1-3.3,2.3.34.34,0,0,1-.43-.07,4.47,4.47,0,0,0-1-.71,20.4,20.4,0,0,0,6.34-5,3.46,3.46,0,0,0,.76-1.24,10.6,10.6,0,0,1,1.33.84.21.21,0,0,1,.1.18.34.34,0,0,1-.17.26,4,4,0,0,0-.72.66,19.09,19.09,0,0,1-1.41,1.51Z"/><path d="M674,528.76c.2.06.23.2.16.37a1.74,1.74,0,0,0-.14.82,9,9,0,0,1-.65,3.53,6.18,6.18,0,0,1-1.71,2.25.55.55,0,0,1-.31.16.41.41,0,0,1-.23-.1,4.25,4.25,0,0,0-1-.5,6,6,0,0,0,2-2.39,7.79,7.79,0,0,0,.5-3.39,3.23,3.23,0,0,0-.12-1A9.55,9.55,0,0,1,674,528.76Zm2.67,5.07a12.18,12.18,0,0,0,1.71-1.12,11.52,11.52,0,0,0,2.1-2,3.45,3.45,0,0,0,.37,1.21.59.59,0,0,1,.07.2c0,.08,0,.17-.18.3A15.18,15.18,0,0,1,679,534a20,20,0,0,1-2.14,1.44,3.86,3.86,0,0,0-.35.25.38.38,0,0,1-.24.1.51.51,0,0,1-.25-.1,3.43,3.43,0,0,1-.72-.73.47.47,0,0,1-.11-.25.37.37,0,0,1,0-.18c.08-.16.07-.3.07-.91v-3.75a9.56,9.56,0,0,0-.12-2.09,11.33,11.33,0,0,1,1.5.25c.16,0,.22.11.22.2a.76.76,0,0,1-.1.3,3.3,3.3,0,0,0-.11,1.33Z"/><path d="M685,527.43c.13.07.18.14.18.24a.6.6,0,0,1-.08.26,2.45,2.45,0,0,0-.22.66,23.77,23.77,0,0,0-.6,4.37c0,.48,0,1,0,1.54.24-.55.49-1.07.75-1.67a3.19,3.19,0,0,0,.42.76.26.26,0,0,1,.07.17.35.35,0,0,1-.07.19,7.11,7.11,0,0,0-.61,1.82,2.29,2.29,0,0,0,0,.64c0,.08,0,.12-.14.16a5,5,0,0,1-.9.2c-.13,0-.18,0-.24-.14A11.14,11.14,0,0,1,683,533a26,26,0,0,1,.49-4.54,6,6,0,0,0,.08-1.42A9.51,9.51,0,0,1,685,527.43Zm4.13,3.2a24.3,24.3,0,0,1-2.47,0c-.16,0-.2,0-.22-.16a7.24,7.24,0,0,1-.08-1.09,17.43,17.43,0,0,0,2.74,0c0-.43,0-.82,0-1.26a4.9,4.9,0,0,0-.16-1.17,6.67,6.67,0,0,1,1.45.23c.13,0,.22.1.22.2a.52.52,0,0,1-.07.2,1.34,1.34,0,0,0-.1.42c0,.41,0,.72,0,1.27.56,0,1.19-.13,1.71-.22.14,0,.17,0,.19.14a4.81,4.81,0,0,1,.07.85c0,.11,0,.17-.13.18a13.61,13.61,0,0,1-1.85.25c0,1.34,0,2.18.08,3.21a7.88,7.88,0,0,1,2,1.15c.11.07.12.11.06.24a6.48,6.48,0,0,1-.55.92.14.14,0,0,1-.11.07.17.17,0,0,1-.11-.06,7.16,7.16,0,0,0-1.3-1c-.1,1-.78,1.56-2.2,1.56s-2.15-.65-2.15-1.68.89-1.69,2.1-1.69a5,5,0,0,1,1,.1C689.11,532.45,689.1,531.58,689.09,530.63Zm-1,3.73c-.56,0-.9.2-.9.58s.26.6,1,.6,1-.35,1-.78a1.72,1.72,0,0,0,0-.24A3.35,3.35,0,0,0,688.12,534.36Z"/><path d="M694.47,534.27a.26.26,0,0,1,.18-.1.24.24,0,0,1,.16.07,8.93,8.93,0,0,1,2.39,2.2c.07.1.08.13.08.18s0,.11-.12.19l-.73.62c-.08.07-.13.11-.17.11s-.11,0-.17-.12a9,9,0,0,0-2.27-2.29c-.07,0-.11-.08-.11-.12s0-.07.08-.14Z"/><path d="M704.88,529.67c-.24-1-.79-1.52-1.66-1.52s-1.55.47-1.55,1.21.36,1.19,1.71,1.56l.49.14c2.13.58,2.73,1.38,2.73,2.75,0,1.63-1.13,2.76-3.36,2.76a3.27,3.27,0,0,1-3.52-2.41l1.55-.49a1.92,1.92,0,0,0,1.93,1.68c1.22,0,1.78-.53,1.78-1.33s-.29-1.18-1.81-1.61l-.48-.14c-2-.59-2.62-1.37-2.62-2.79s1.11-2.54,3.11-2.54a3.15,3.15,0,0,1,3.28,2.31Z"/><path d="M710,529.8h1.48v1.1H710v3.61c0,.66.26.95.82.95a3.43,3.43,0,0,0,.77-.07l-.06,1.08a8,8,0,0,1-1.18.07c-1.25,0-1.84-.54-1.84-1.75V530.9h-1v-1.1h1V528l1.49-.34Z"/><path d="M716.09,531.07c-.79,0-1.45.52-1.87,1.67v3.65h-1.49V529.8h1.42v1.62c.47-1.29,1.15-1.76,2-1.76Z"/><path d="M717.25,531.46a2.53,2.53,0,0,1,2.73-1.81c1.71,0,2.56.72,2.56,2.18v2.61a17.32,17.32,0,0,0,.11,1.94h-1.39c0-.29-.07-.48-.11-.86a2.47,2.47,0,0,1-2.08,1,1.87,1.87,0,0,1-2-2c0-1.15.72-1.89,2.15-2.17a12.8,12.8,0,0,1,1.89-.19v-.37c0-.83-.35-1.16-1.14-1.16a1.25,1.25,0,0,0-1.26,1.15Zm3.82,1.7a6.86,6.86,0,0,0-1.51.19c-.71.17-1.08.53-1.08,1.12a.93.93,0,0,0,1.06,1,1.8,1.8,0,0,0,1.54-1.08Z"/><path d="M726,528.63h-1.63v-1.55H726Zm-.06,7.76h-1.51V529.8h1.51Z"/><path d="M733.45,530.1a1.5,1.5,0,0,0-1.18.34,1.91,1.91,0,0,1,.54,1.32c0,1.37-1.07,2.17-2.59,2.17a3.38,3.38,0,0,1-.85-.11c-.29.14-.48.35-.48.58s.16.41.91.48l1.49.12c1.73.17,2.28.74,2.28,1.7,0,1.15-1.16,2-3.31,2-1.91,0-3-.65-3-1.6,0-.58.48-1,1.21-1.28-.6-.13-.92-.47-.92-.95s.3-.92,1-1.37a2,2,0,0,1-.94-1.74c0-1.27,1.07-2.11,2.58-2.11a3.07,3.07,0,0,1,1.41.31,1.88,1.88,0,0,1,1.91-1.08Zm-4,5.9c-.56.18-.89.49-.89.9,0,.58.72.91,1.81.91,1.29,0,1.92-.41,1.92-.87s-.22-.66-1.21-.77Zm-.38-4.26a1.2,1.2,0,1,0,2.4,0,1.2,1.2,0,1,0-2.4,0Z"/><path d="M736.35,530.92a2.68,2.68,0,0,1,2.11-1.25,1.8,1.8,0,0,1,1.89,2v4.75H738.8v-4.32c0-.77-.32-1.1-.91-1.1a2,2,0,0,0-1.54,1.13v4.29h-1.51v-9.48h1.51Z"/><path d="M744.07,529.8h1.48v1.1h-1.48v3.61c0,.66.26.95.82.95a3.43,3.43,0,0,0,.77-.07l-.06,1.08a8,8,0,0,1-1.18.07c-1.25,0-1.84-.54-1.84-1.75V530.9h-1v-1.1h1V528l1.49-.34Z"/><path d="M747.91,533.42c0,1.25.56,2.08,1.66,2.08.68,0,1.17-.38,1.39-1.25l1.37.4a2.61,2.61,0,0,1-2.77,1.91c-2,0-3.12-1.26-3.12-3.42s1.21-3.48,3-3.48,2.94,1.22,2.94,3.45v.31Zm3-1c-.07-1.1-.54-1.73-1.44-1.73s-1.44.67-1.51,1.73Z"/><path d="M757.25,531.07c-.79,0-1.45.52-1.87,1.67v3.65h-1.49V529.8h1.42v1.62c.47-1.29,1.15-1.76,2-1.76Z"/><path d="M761.78,528.15a8.2,8.2,0,0,0,.12-1.33,8.83,8.83,0,0,1,1.44.4.25.25,0,0,1,.19.24.25.25,0,0,1-.08.18,1.53,1.53,0,0,0-.24.46c-.16.49-.28.94-.43,1.44a9.14,9.14,0,0,1,1,0c1.12,0,1.72.78,1.72,2.31a10.21,10.21,0,0,1-.65,3.75,1.72,1.72,0,0,1-1.62,1.13,3.18,3.18,0,0,1-1.25-.18.32.32,0,0,1-.22-.34,3.4,3.4,0,0,0-.23-1.12,3.2,3.2,0,0,0,1.38.31c.4,0,.58-.14.77-.64a9.25,9.25,0,0,0,.47-3c0-.84-.16-1.1-.68-1.1a7.8,7.8,0,0,0-1,.08,33.16,33.16,0,0,1-2.41,5.64.2.2,0,0,1-.31.11,5.41,5.41,0,0,1-.83-.53.25.25,0,0,1-.1-.18.22.22,0,0,1,0-.13,25.32,25.32,0,0,0,2.2-4.7l-1.18.2a3.42,3.42,0,0,0-.66.19.26.26,0,0,1-.38-.16,10.89,10.89,0,0,1-.37-1.24c.53,0,1.06,0,1.58-.08s.95-.11,1.42-.18C761.61,529,761.7,528.55,761.78,528.15Zm4.76.8c.08,0,.14,0,.23.06a8,8,0,0,1,2,2.91.17.17,0,0,1,0,.24,4.93,4.93,0,0,1-.9.6c-.12.06-.24,0-.28-.1a8.11,8.11,0,0,0-2-3.11A10.25,10.25,0,0,1,766.54,528.95Zm.32-1.68c.06,0,.11,0,.18,0a5.53,5.53,0,0,1,1.14,1.28.12.12,0,0,1,0,.19l-.5.37a.13.13,0,0,1-.2,0,6,6,0,0,0-1.21-1.39Zm1.07-.78c.07,0,.11,0,.18,0a5,5,0,0,1,1.14,1.24.14.14,0,0,1,0,.22l-.48.37a.12.12,0,0,1-.2,0,5.67,5.67,0,0,0-1.2-1.38Z"/><path d="M776.05,531.78c0,3.39-1,4.77-2.91,4.77s-2.87-1.35-2.87-4.75,1-4.73,2.89-4.73S776.05,528.4,776.05,531.78Zm-4.23,0c0,2.7.37,3.57,1.32,3.57s1.36-.89,1.36-3.57-.37-3.53-1.33-3.53S771.82,529.08,771.82,531.79Z"/><path d="M782.93,529.16c-1.46.28-2.75.53-4,.79-.46.11-.58.13-.76.19a.7.7,0,0,1-.26.1.28.28,0,0,1-.23-.18,8.32,8.32,0,0,1-.44-1.29,16.71,16.71,0,0,0,1.91-.2c1.48-.22,4.12-.61,7.22-1,.18,0,.24,0,.25.13a6.76,6.76,0,0,1,.13,1.06c0,.14-.07.18-.23.18a5.37,5.37,0,0,0-1.47.26c-2,.7-3.06,2.1-3.06,3.54s1.1,2.39,3.19,2.52c.19,0,.26,0,.26.18a4.26,4.26,0,0,1-.13,1c0,.18-.08.25-.23.25-2.11,0-4.43-1.21-4.43-3.71a4.34,4.34,0,0,1,2.31-3.8Zm2.38,1.3c.06,0,.11,0,.18,0a5.53,5.53,0,0,1,1.14,1.28.12.12,0,0,1,0,.19l-.5.37a.13.13,0,0,1-.2,0,6,6,0,0,0-1.21-1.39Zm1.07-.78c.07,0,.11,0,.18,0a5,5,0,0,1,1.14,1.24.14.14,0,0,1,0,.22l-.48.37a.12.12,0,0,1-.2,0,5.69,5.69,0,0,0-1.2-1.38Z"/><path d="M792.07,534.21c0,1.1.48,1.54,1.6,1.54,1.41,0,2.19-.54,2.19-1.62a2.89,2.89,0,0,0-1.08-2.18,3.84,3.84,0,0,0,1.22-.07.28.28,0,0,1,.25,0,3.13,3.13,0,0,1,1,2.25c0,1.7-1.39,2.81-3.46,2.81s-3-1-3-2.71c0-.25,0-.59.08-1.13a9.46,9.46,0,0,1-1.63-.36c-.08,0-.12-.08-.13-.23a7,7,0,0,1,0-1.12,7.55,7.55,0,0,0,1.95.47c.06-.44.16-1.22.21-1.72a8.42,8.42,0,0,1-1.73-.33c-.14,0-.19-.1-.19-.2,0-.29,0-.68,0-1.12a9.79,9.79,0,0,0,2.17.46c.1-.7.13-1,.16-1.38a5.68,5.68,0,0,0,0-1,7.19,7.19,0,0,1,1.44.34c.17.06.26.17.26.28a.35.35,0,0,1-.1.23,1.18,1.18,0,0,0-.22.52c-.06.28-.13.68-.19,1.13a6.89,6.89,0,0,0,1.48-.07c.08,0,.12.06.12.14a5.61,5.61,0,0,1,0,.9c0,.13,0,.17-.19.18a12,12,0,0,1-1.6.06c-.07.42-.19,1.24-.26,1.71.64,0,1.13,0,1.71,0,.16,0,.19,0,.19.13a8,8,0,0,1-.06.9c0,.14,0,.19-.17.19-.6,0-1.22,0-1.84,0A7.48,7.48,0,0,0,792.07,534.21Z"/><path d="M802.57,535.22h1.72v1.16h-4.95v-1.16h1.8V528.7a6.71,6.71,0,0,1-1.69.82l-.24-1.26a6.76,6.76,0,0,0,2.14-1.08h1.22Z"/><path d="M811.47,531.78c0,3.39-1,4.77-2.91,4.77s-2.87-1.35-2.87-4.75,1-4.73,2.89-4.73S811.47,528.4,811.47,531.78Zm-4.23,0c0,2.7.37,3.57,1.32,3.57s1.36-.89,1.36-3.57-.37-3.53-1.33-3.53S807.24,529.08,807.24,531.79Z"/><path d="M818.35,531.78c0,3.39-1,4.77-2.91,4.77s-2.87-1.35-2.87-4.75,1-4.73,2.89-4.73S818.35,528.4,818.35,531.78Zm-4.23,0c0,2.7.37,3.57,1.32,3.57s1.36-.89,1.36-3.57-.37-3.53-1.33-3.53S814.13,529.08,814.13,531.79Z"/><path d="M825.24,531.78c0,3.39-1,4.77-2.91,4.77s-2.87-1.35-2.87-4.75,1-4.73,2.89-4.73S825.24,528.4,825.24,531.78Zm-4.23,0c0,2.7.37,3.57,1.32,3.57s1.36-.89,1.36-3.57-.37-3.53-1.33-3.53S821,529.08,821,531.79Z"/><path d="M832.12,529.16c-1.46.28-2.75.53-4,.79-.46.11-.58.13-.76.19a.7.7,0,0,1-.26.1.28.28,0,0,1-.23-.18,8.32,8.32,0,0,1-.44-1.29,16.71,16.71,0,0,0,1.91-.2c1.48-.22,4.12-.61,7.22-1,.18,0,.24,0,.25.13a6.76,6.76,0,0,1,.13,1.06c0,.14-.07.18-.23.18a5.37,5.37,0,0,0-1.47.26c-2,.7-3.06,2.1-3.06,3.54s1.1,2.39,3.19,2.52c.19,0,.26,0,.26.18a4.26,4.26,0,0,1-.13,1c0,.18-.08.25-.23.25-2.11,0-4.43-1.21-4.43-3.71a4.34,4.34,0,0,1,2.31-3.8Zm2.38,1.3c.06,0,.11,0,.18,0a5.53,5.53,0,0,1,1.14,1.28.12.12,0,0,1,0,.19l-.5.37a.13.13,0,0,1-.2,0,6,6,0,0,0-1.21-1.39Zm1.07-.78c.07,0,.11,0,.18,0a5,5,0,0,1,1.14,1.24.14.14,0,0,1,0,.22l-.48.37a.12.12,0,0,1-.2,0,5.69,5.69,0,0,0-1.2-1.38Z"/><path d="M841.26,534.21c0,1.1.48,1.54,1.6,1.54,1.41,0,2.19-.54,2.19-1.62a2.89,2.89,0,0,0-1.08-2.18,3.84,3.84,0,0,0,1.22-.07.28.28,0,0,1,.25,0,3.13,3.13,0,0,1,1,2.25c0,1.7-1.39,2.81-3.46,2.81s-3-1-3-2.71c0-.25,0-.59.08-1.13a9.46,9.46,0,0,1-1.63-.36c-.08,0-.12-.08-.13-.23a7,7,0,0,1,0-1.12,7.55,7.55,0,0,0,1.95.47c.06-.44.16-1.22.21-1.72a8.42,8.42,0,0,1-1.73-.33c-.14,0-.19-.1-.19-.2,0-.29,0-.68,0-1.12a9.79,9.79,0,0,0,2.17.46c.1-.7.13-1,.16-1.38a5.68,5.68,0,0,0,0-1,7.19,7.19,0,0,1,1.44.34c.17.06.26.17.26.28a.35.35,0,0,1-.1.23,1.18,1.18,0,0,0-.22.52c-.06.28-.13.68-.19,1.13a6.89,6.89,0,0,0,1.48-.07c.08,0,.12.06.12.14a5.61,5.61,0,0,1,0,.9c0,.13,0,.17-.19.18a12,12,0,0,1-1.6.06c-.07.42-.19,1.24-.26,1.71.64,0,1.13,0,1.71,0,.16,0,.19,0,.19.13a8,8,0,0,1-.06.9c0,.14,0,.19-.17.19-.6,0-1.22,0-1.84,0A7.48,7.48,0,0,0,841.26,534.21Z"/><path d="M849.63,529.61a2.47,2.47,0,0,0,.3-.65,6.1,6.1,0,0,1,1,.46c.08,0,.16.13.16.19a.24.24,0,0,1-.11.22,1.1,1.1,0,0,0-.34.36,8.25,8.25,0,0,1-1.41,1.63c-.13.11-.2.17-.28.17s-.16-.08-.3-.24a3.16,3.16,0,0,0-.62-.5A5.42,5.42,0,0,0,849.63,529.61Zm5.66,3a.78.78,0,0,0,.36,0,.39.39,0,0,1,.19-.06c.12,0,.18.08.49.38s.34.41.34.52a.24.24,0,0,1-.17.24,1.53,1.53,0,0,0-.37.3,11,11,0,0,1-1.5,1.27A16.2,16.2,0,0,0,859,536a3.05,3.05,0,0,0-.43.86c-.12.37-.12.37-.49.34a13.55,13.55,0,0,1-4.61-1.26,13.42,13.42,0,0,1-4.39,1.29c-.37,0-.37,0-.53-.31a2.56,2.56,0,0,0-.42-.71,14.84,14.84,0,0,0,4.23-.95,8,8,0,0,1-1.18-1,9.81,9.81,0,0,1-1.74,1.07.92.92,0,0,1-.26.11c-.08,0-.14-.08-.25-.29a2.32,2.32,0,0,0-.54-.61A8.1,8.1,0,0,0,852,532a2.08,2.08,0,0,0,.31-.53,7.21,7.21,0,0,1,1,.3c.11,0,.17.1.17.18s-.06.14-.18.2a2.08,2.08,0,0,0-.31.35,1.18,1.18,0,0,1-.16.19Zm-2.23-4a3.73,3.73,0,0,1-2.07,3.6.82.82,0,0,1-.31.13c-.07,0-.13-.07-.26-.23a2.19,2.19,0,0,0-.65-.48c1.43-.67,2-1.2,2.1-3h-1.95c-1.09,0-1.46,0-1.54,0s-.13,0-.13-.13v-.89c0-.11,0-.12.13-.12s.44,0,1.54,0h2.86v-.17a5.46,5.46,0,0,0-.08-1.13c.42,0,.87,0,1.29.07.12,0,.18.06.18.12a.54.54,0,0,1-.06.23,1.88,1.88,0,0,0-.06.7v.18H857c1.09,0,1.46,0,1.54,0s.13,0,.13.12v.89c0,.12,0,.13-.13.13s-.44,0-1.54,0h-1.56v1c0,.65,0,1,0,1.25a.94.94,0,0,1-.4.88,1.75,1.75,0,0,1-1,.22c-.38,0-.38,0-.48-.36a3.23,3.23,0,0,0-.31-.73,3.75,3.75,0,0,0,.61.06c.32,0,.42-.13.42-.42v-1.89ZM852,533.57l0,0a8,8,0,0,0,1.49,1.13,7.15,7.15,0,0,0,1.48-1.15Zm4.78-4.46a.38.38,0,0,1,.13-.06s.07,0,.13.07a8.28,8.28,0,0,1,1.61,2c.06.11,0,.14-.1.23l-.73.46a.33.33,0,0,1-.14.06s0,0-.08-.08a8.8,8.8,0,0,0-1.51-2.12c-.08-.1-.08-.13,0-.22Z"/><path d="M861.85,532.63c0-.46,0-1,0-1.54a13.11,13.11,0,0,1-1.07,1.25c-.12.11-.19.18-.26.18s-.12-.08-.18-.26a4.61,4.61,0,0,0-.46-1,9.89,9.89,0,0,0,2.77-4.05,4.47,4.47,0,0,0,.24-.84,8.32,8.32,0,0,1,1.17.38c.16.06.2.1.2.18a.25.25,0,0,1-.11.2,1.24,1.24,0,0,0-.3.52,14.21,14.21,0,0,1-.76,1.55v6.13c0,1.16,0,1.75,0,1.82s0,.12-.13.12h-1c-.13,0-.14,0-.14-.12s0-.66,0-1.82Zm4.58,2.45c0,.43.07.59.34.68a4.25,4.25,0,0,0,1.19.08,1.79,1.79,0,0,0,1.24-.3c.2-.17.31-.68.36-1.82a3.75,3.75,0,0,0,.92.49c.3.11.29.11.26.42-.08,1.17-.29,1.69-.7,2a4.05,4.05,0,0,1-2.17.41,5.05,5.05,0,0,1-2.09-.24c-.4-.19-.64-.5-.64-1.31v-7.57a8.42,8.42,0,0,0-.07-1.39c.48,0,.86,0,1.29.08.16,0,.23.06.23.16a.47.47,0,0,1-.07.23,1.92,1.92,0,0,0-.08.82v3a13.21,13.21,0,0,0,2.22-1.76,4.67,4.67,0,0,0,.71-.82,10.44,10.44,0,0,1,.94.79c.1.1.13.16.13.24s-.08.16-.2.19a2.47,2.47,0,0,0-.62.46,20.85,20.85,0,0,1-3.17,2.33Z"/><path d="M875.62,528.15a8.09,8.09,0,0,0,.12-1.33,8.8,8.8,0,0,1,1.44.4.24.24,0,0,1,.11.42,1.51,1.51,0,0,0-.24.46c-.16.49-.28.94-.43,1.44a9.15,9.15,0,0,1,1,0c1.12,0,1.72.78,1.72,2.31a10.21,10.21,0,0,1-.65,3.75,1.72,1.72,0,0,1-1.62,1.13,3.19,3.19,0,0,1-1.25-.18.32.32,0,0,1-.22-.34,3.43,3.43,0,0,0-.23-1.12,3.2,3.2,0,0,0,1.38.31c.4,0,.58-.14.77-.64a9.22,9.22,0,0,0,.47-3c0-.84-.16-1.1-.68-1.1a7.82,7.82,0,0,0-1,.08,33.09,33.09,0,0,1-2.41,5.64.2.2,0,0,1-.31.11,5.42,5.42,0,0,1-.83-.53.25.25,0,0,1-.1-.18.22.22,0,0,1,0-.13,25.26,25.26,0,0,0,2.2-4.7l-1.18.2a3.47,3.47,0,0,0-.66.19.26.26,0,0,1-.38-.16,11.06,11.06,0,0,1-.37-1.24c.53,0,1.06,0,1.59-.08s.95-.11,1.42-.18C875.46,529,875.54,528.55,875.62,528.15Zm4.76.8c.08,0,.14,0,.23.06a8,8,0,0,1,2,2.91.17.17,0,0,1,0,.24,4.94,4.94,0,0,1-.9.6c-.12.06-.24,0-.28-.1a8.12,8.12,0,0,0-2-3.11A10.11,10.11,0,0,1,880.38,528.95Zm.32-1.68c.06,0,.11,0,.18,0a5.53,5.53,0,0,1,1.14,1.28.12.12,0,0,1,0,.19l-.5.37a.13.13,0,0,1-.2,0,6,6,0,0,0-1.21-1.39Zm1.07-.78c.07,0,.11,0,.18,0a5,5,0,0,1,1.14,1.24.14.14,0,0,1,0,.22l-.48.37a.12.12,0,0,1-.2,0,5.67,5.67,0,0,0-1.2-1.38Z"/><path d="M889.67,528.41c.11,0,.16,0,.18.1a6.52,6.52,0,0,1,.11,1c0,.11,0,.13-.14.14-.65.13-1.24.22-2,.32a33.15,33.15,0,0,1-2.34,5.14c0,.08-.08.12-.13.12a.35.35,0,0,1-.14-.06,5.65,5.65,0,0,1-.83-.61c-.06,0-.08-.08-.08-.13a.23.23,0,0,1,.06-.14,24.2,24.2,0,0,0,2.08-4.19c-.46,0-.83,0-1.2,0h-.66c-.12,0-.14,0-.17-.19a6.34,6.34,0,0,1-.12-1c.49,0,.77,0,1.12,0s.83,0,1.38-.06c.14-.5.23-.91.31-1.34a4.69,4.69,0,0,0,.07-1,11.08,11.08,0,0,1,1.41.25c.12,0,.19.1.19.18a.29.29,0,0,1-.11.23,1.33,1.33,0,0,0-.19.44c-.08.29-.18.66-.29,1A13,13,0,0,0,889.67,528.41Zm.34,3.21a4.24,4.24,0,0,0-.1-.85,6.47,6.47,0,0,1,1.31.23.19.19,0,0,1,.17.19,1.57,1.57,0,0,1-.07.25,1.23,1.23,0,0,0,0,.49,15.7,15.7,0,0,0,.13,2,9.4,9.4,0,0,1,2.16,1.12c.12.08.13.13.07.25a7.32,7.32,0,0,1-.55,1c0,.06-.07.08-.11.08s-.07,0-.12-.07a8.87,8.87,0,0,0-1.46-1c0,1.2-.87,1.75-2.23,1.75s-2.21-.67-2.21-1.7.86-1.75,2.22-1.75a6.23,6.23,0,0,1,.95.07C890,532.92,890,532.19,890,531.62Zm-.85,3c-.6,0-1.07.24-1.07.7s.34.58,1,.58,1-.35,1-.85a1.42,1.42,0,0,0,0-.24A3.07,3.07,0,0,0,889.15,534.65Zm2.23-5.77a.17.17,0,0,1,.25-.08,9.35,9.35,0,0,1,2.35,1.13c.07,0,.11.08.11.13a.29.29,0,0,1,0,.14,7.27,7.27,0,0,1-.5.89c0,.06-.07.08-.11.08a.17.17,0,0,1-.11,0,10.4,10.4,0,0,0-2.49-1.31C891,529.45,891.23,529.09,891.38,528.88Z"/><path d="M897.58,528.42c.11,0,.19.13.19.22a1.06,1.06,0,0,1-.1.34,5.32,5.32,0,0,0-.11,1.17,15.05,15.05,0,0,0,.22,2.73c.17.95.48,1.76,1,1.76s.68-.42,1.15-1.67a4.58,4.58,0,0,0,.77.92.37.37,0,0,1,.08.44c-.46,1.22-1.2,1.87-2,1.87s-1.92-1.1-2.25-3.13a21.69,21.69,0,0,1-.29-3.49,6.41,6.41,0,0,0-.14-1.57A5.19,5.19,0,0,1,897.58,528.42Zm5.57.76a.35.35,0,0,1,.13,0,.19.19,0,0,1,.13.07,7.93,7.93,0,0,1,2.35,4.1c0,.16,0,.2-.13.26a4.08,4.08,0,0,1-.94.48c-.14,0-.23,0-.25-.13a8.07,8.07,0,0,0-2.25-4.19C902.66,529.44,903,529.27,903.15,529.18Z"/><path d="M913.26,529a15,15,0,0,1-1.5,5.17,2.28,2.28,0,0,1-2,1.38c-1.06,0-2.12-1.13-2.12-3.08a4.42,4.42,0,0,1,1.36-3.12,5.26,5.26,0,0,1,3.9-1.54c2.88,0,4.58,1.77,4.58,4.16,0,2.23-1.26,3.63-3.7,4.37-.25.07-.36,0-.52-.22a2.55,2.55,0,0,0-.84-.76c2-.48,3.63-1.32,3.63-3.59A2.72,2.72,0,0,0,913.3,529Zm-3.45,1.16a3.45,3.45,0,0,0-.94,2.22c0,1.1.44,1.71.82,1.71s.58-.16.9-.73a13.69,13.69,0,0,0,1.27-4.29A3.62,3.62,0,0,0,909.81,530.17Z"/><path d="M924.74,529.16c-1.46.28-2.75.53-4,.79-.46.11-.58.13-.76.19a.7.7,0,0,1-.26.1.28.28,0,0,1-.23-.18,8.32,8.32,0,0,1-.44-1.29,16.71,16.71,0,0,0,1.91-.2c1.48-.22,4.12-.61,7.22-1,.18,0,.24,0,.25.13a6.76,6.76,0,0,1,.13,1.06c0,.14-.07.18-.23.18a5.37,5.37,0,0,0-1.47.26c-2,.7-3.06,2.1-3.06,3.54s1.1,2.39,3.19,2.52c.19,0,.26,0,.26.18a4.26,4.26,0,0,1-.13,1c0,.18-.08.25-.23.25-2.11,0-4.43-1.21-4.43-3.71a4.34,4.34,0,0,1,2.31-3.8Zm2.38,1.3c.06,0,.11,0,.18,0a5.53,5.53,0,0,1,1.14,1.28.12.12,0,0,1,0,.19l-.5.37a.13.13,0,0,1-.2,0,6,6,0,0,0-1.21-1.39Zm1.07-.78c.07,0,.11,0,.18,0a5,5,0,0,1,1.14,1.24.14.14,0,0,1,0,.22l-.48.37a.12.12,0,0,1-.2,0,5.69,5.69,0,0,0-1.2-1.38Z"/><path d="M937.73,533.34h-3.51v-1.17h3.51Z"/><path d="M948.32,529.16c-1.46.28-2.75.53-4,.79-.46.11-.58.13-.76.19a.7.7,0,0,1-.26.1.28.28,0,0,1-.23-.18,8.32,8.32,0,0,1-.44-1.29,16.71,16.71,0,0,0,1.91-.2c1.48-.22,4.12-.61,7.22-1,.18,0,.24,0,.25.13a6.76,6.76,0,0,1,.13,1.06c0,.14-.07.18-.23.18a5.37,5.37,0,0,0-1.47.26c-2,.7-3.06,2.1-3.06,3.54s1.1,2.39,3.19,2.52c.19,0,.26,0,.26.18a4.26,4.26,0,0,1-.13,1c0,.18-.08.25-.23.25-2.11,0-4.43-1.21-4.43-3.71a4.34,4.34,0,0,1,2.31-3.8Zm2.38,1.3c.06,0,.11,0,.18,0a5.53,5.53,0,0,1,1.14,1.28.12.12,0,0,1,0,.19l-.5.37a.13.13,0,0,1-.2,0,6,6,0,0,0-1.21-1.39Zm1.07-.78c.07,0,.11,0,.18,0a5,5,0,0,1,1.14,1.24.14.14,0,0,1,0,.22l-.48.37a.12.12,0,0,1-.2,0,5.69,5.69,0,0,0-1.2-1.38Z"/><path d="M955.8,532.36c-1.07,0-1.42,0-1.5,0s-.12,0-.12-.13v-.84c0-.12,0-.13.12-.13s.43,0,1.5,0h3v-.87h-1.56c-1.16,0-1.57,0-1.64,0s-.14,0-.14-.13v-.8c0-.12,0-.13.14-.13s.48,0,1.64,0h1.56v-.8h-2.1c-1.15,0-1.54,0-1.61,0s-.14,0-.14-.13v-.83c0-.12,0-.13.14-.13s.46,0,1.61,0h2.1v-.12a5.15,5.15,0,0,0-.1-1.14c.43,0,.9,0,1.32.08.12,0,.18.07.18.12a.7.7,0,0,1-.06.26,1.32,1.32,0,0,0-.08.66v.13h2.31c1.17,0,1.55,0,1.62,0s.13,0,.13.13v.83c0,.12,0,.13-.13.13s-.46,0-1.62,0h-2.31v.8h1.8c1.18,0,1.58,0,1.66,0s.13,0,.13.13v.8c0,.12,0,.13-.13.13s-.48,0-1.66,0h-1.8v.88h3.23c1.07,0,1.43,0,1.5,0s.12,0,.12.13v.84c0,.12,0,.13-.12.13s-.43,0-1.5,0h-2.58a6,6,0,0,0,.92,1.51,7,7,0,0,0,1-.92,2,2,0,0,0,.37-.5,6.9,6.9,0,0,1,.95.64.29.29,0,0,1,.12.18c0,.1,0,.14-.16.18a1.08,1.08,0,0,0-.4.24,12.42,12.42,0,0,1-1.2.94,6.93,6.93,0,0,0,2.8,1.4,3.25,3.25,0,0,0-.64.84c-.11.2-.16.28-.25.28A1.28,1.28,0,0,1,964,537a7.64,7.64,0,0,1-4.48-4.69h-.14a9.88,9.88,0,0,1-1,.9v2.47c.82-.16,1.63-.35,2.53-.59a3.4,3.4,0,0,0-.06.71c0,.37,0,.37-.38.47-1.48.38-2.87.66-4,.85a1.22,1.22,0,0,0-.46.12.32.32,0,0,1-.19.07c-.08,0-.16,0-.19-.17a11.2,11.2,0,0,1-.29-1.09c.47,0,.92-.06,1.43-.12l.38,0v-1.82a13.08,13.08,0,0,1-2.19,1.06.92.92,0,0,1-.28.07c-.11,0-.16-.08-.26-.3a2.72,2.72,0,0,0-.5-.67,10,10,0,0,0,3.86-1.91Z"/><path d="M969.75,528.41c.91,0,1.21,0,1.28,0s.12,0,.12.13v.85c0,.13,0,.14-.12.14s-.37,0-1.28,0h-2.09c-.91,0-1.21,0-1.29,0s-.12,0-.12-.14v-.85c0-.12,0-.13.12-.13s.37,0,1.29,0Zm1,6.84c0,1.39,0,1.66,0,1.73s0,.13-.13.13h-.95c-.12,0-.13,0-.13-.13v-.38h-1.48v.61c0,.12,0,.13-.13.13H967c-.13,0-.14,0-.14-.13s0-.36,0-1.81v-.79c0-.76,0-1,0-1.13s0-.13.14-.13.32,0,1.09,0h1.43c.77,0,1,0,1.1,0s.13,0,.13.13,0,.36,0,.92Zm-1.21-8.46c.77,0,1,0,1.08,0s.14,0,.14.13v.8c0,.12,0,.13-.14.13s-.31,0-1.08,0h-1.42c-.78,0-1,0-1.09,0s-.13,0-.13-.13v-.8c0-.12,0-.13.13-.13s.31,0,1.09,0Zm0,3.33c.72,0,.94,0,1,0s.14,0,.14.13V531c0,.12,0,.13-.14.13s-.29,0-1,0h-1.31c-.73,0-.95,0-1,0s-.13,0-.13-.13v-.77c0-.12,0-.13.13-.13s.29,0,1,0Zm0,1.61c.72,0,.94,0,1,0s.14,0,.14.13v.78c0,.11,0,.12-.14.12s-.29,0-1,0h-1.31c-.73,0-.95,0-1,0s-.13,0-.13-.12v-.78c0-.12,0-.13.13-.13s.29,0,1,0Zm-1.4,2.65v1.19h1.48v-1.19Zm5-6.3c-1,0-1.28,0-1.36,0s-.13,0-.13-.13V527c0-.12,0-.13.13-.13s.38,0,1.36,0h1.9c1,0,1.3,0,1.37,0s.14,0,.14.13,0,.43,0,1.28V531c0,.84,0,1.2,0,1.27s0,.14-.14.14h-1c-.12,0-.13,0-.13-.14v-.46h-2.26v3.35c0,.3,0,.47.14.54a2.14,2.14,0,0,0,1.1.16c.9,0,1.24-.08,1.43-.3s.24-.55.26-1.52a2.9,2.9,0,0,0,.86.34c.36.08.38.11.36.48-.07,1-.26,1.45-.55,1.73s-.92.47-2.5.47c-1.12,0-1.72-.07-2-.31s-.35-.52-.35-1.18v-3.43c0-.83,0-1.25,0-1.33s0-.13.13-.13.47,0,1.26,0h2.13v-2.61Z"/></svg>