<?xml version="1.0" encoding="utf-8"?>
<!-- Generator: Adobe Illustrator 22.0.1, SVG Export Plug-In . SVG Version: 6.00 Build 0)  -->
<svg version="1.1" id="レイヤー_1" xmlns="http://www.w3.org/2000/svg" xmlns:xlink="http://www.w3.org/1999/xlink" x="0px"
	 y="0px" viewBox="0 0 531.2 500" enable-background="new 0 0 531.2 500" xml:space="preserve">
<g>
	<path fill="#231815" d="M434.072,109.408h-12.66v-3.301h1.02c0.68,0,1.25-0.109,1.71-0.33c0.46-0.219,0.75-0.51,0.87-0.869
		l-4.439-12l-5.7-15.42l-10.74,27.42c0.08,0.359,0.31,0.65,0.69,0.869c0.379,0.221,0.869,0.33,1.47,0.33h1.56v3.301h-12.18v-3.301
		h1.2c0.68,0,1.34-0.1,1.979-0.299c0.64-0.201,1.16-0.5,1.561-0.9l13.14-31.5c0.64,0,1.25,0,1.83,0c0.579,0,1.209,0,1.89,0
		l12,31.439c0.44,0.4,0.97,0.689,1.59,0.869c0.62,0.182,1.29,0.271,2.011,0.271h1.2V109.408z M406.952,91.527h13.859l1.141,3.301
		h-15.12L406.952,91.527z"/>
</g>
<g>
	<path fill="#231815" d="M150.294,109.408h-12.66v-0.301h0.779c0.84,0,1.52-0.17,2.041-0.51c0.52-0.34,0.799-0.811,0.84-1.41
		l-6.24-15.721l-5.4-13.979l-12.301,29.76c-0.039,0.561,0.182,1.01,0.66,1.35c0.48,0.34,1.119,0.51,1.92,0.51h1.08v0.301h-8.459
		v-0.301h0.42c0.84,0,1.59-0.129,2.25-0.391c0.66-0.258,1.23-0.689,1.709-1.289l14.461-34.859c0.08-0.24,0.18-0.35,0.301-0.33
		c0.119,0.02,0.219,0.129,0.299,0.33l14.041,34.92c0.479,0.561,1.029,0.971,1.648,1.229c0.621,0.262,1.371,0.391,2.25,0.391h0.361
		V109.408z M123.294,92.428h12.9v0.301h-13.021L123.294,92.428z"/>
</g>
<g>
	<path fill="#231815" d="M150.173,391.407h-12.059v-0.3l0.779-0.181c0.398-0.119,0.85-0.239,1.35-0.359s0.969-0.24,1.41-0.36
		l-6.6-16.74l-5.4-13.979l-12.66,30.78c0.439,0.08,0.9,0.18,1.381,0.3c0.479,0.12,0.939,0.24,1.379,0.359l1.26,0.181v0.3h-8.459
		v-0.3l0.959-0.24c0.52-0.08,1.041-0.18,1.561-0.3s1.039-0.24,1.561-0.36l14.76-35.64c0.08-0.24,0.18-0.35,0.301-0.33
		c0.119,0.021,0.219,0.13,0.299,0.33l14.34,35.7c0.48,0.08,0.971,0.18,1.471,0.3s0.99,0.22,1.469,0.3l0.9,0.24V391.407z
		 M123.294,374.427h12.9v0.301h-13.021L123.294,374.427z"/>
</g>
<g>
	<path fill="#231815" d="M434.342,391.407h-12.66v-3l0.9-0.24c0.52-0.12,1.05-0.24,1.59-0.359c0.54-0.12,1.05-0.22,1.53-0.301
		l-4.68-12.6l-5.7-15.42l-10.98,28.02c0.48,0.081,0.95,0.181,1.41,0.301c0.459,0.119,0.93,0.22,1.41,0.3l1.32,0.3v3h-12.421v-3
		l0.961-0.24c0.56-0.12,1.129-0.24,1.71-0.359c0.579-0.12,1.109-0.24,1.59-0.36l13.38-32.04c0.72,0,1.39,0,2.01,0s1.29,0,2.01,0
		l12.24,31.98c0.56,0.119,1.14,0.23,1.74,0.329c0.6,0.101,1.2,0.21,1.8,0.33l0.84,0.24V391.407z M407.403,373.527h13.859l1.141,3.42
		h-15.12L407.403,373.527z"/>
</g>
<g>
	<path fill="#E7AC35" d="M386.732,391.407h-12.72v-2.52l1.02-0.301c0.52-0.079,1.03-0.18,1.53-0.3s1.01-0.24,1.53-0.36l-5.16-13.5
		l-5.34-14.279l-10.98,27.779c0.44,0.081,0.88,0.181,1.32,0.301c0.439,0.12,0.92,0.239,1.44,0.359l1.38,0.24v2.58h-11.88v-2.58
		l1.08-0.18c0.56-0.12,1.109-0.25,1.649-0.391c0.54-0.14,1.069-0.289,1.59-0.449l13.561-32.641c0.52-0.079,1.01-0.12,1.47-0.12
		c0.459,0,0.949,0.041,1.47,0.12l12.78,32.58c0.52,0.12,1.09,0.261,1.71,0.42c0.62,0.16,1.189,0.321,1.71,0.48l0.84,0.18V391.407z
		 M360.212,373.527h13.26l0.78,3h-14.221L360.212,373.527z"/>
</g>
<g>
	<path fill="#E7AC35" d="M339.121,391.407h-12.72v-2.04l1.32-0.3c0.479-0.159,0.96-0.29,1.439-0.391
		c0.48-0.099,0.9-0.249,1.261-0.449l-5.521-14.28l-4.979-13.14l-10.801,27.479c0.399,0.081,0.819,0.201,1.261,0.36
		c0.439,0.16,0.859,0.28,1.26,0.359l1.32,0.36v2.04h-11.04v-2.04l0.96-0.36c0.6-0.119,1.159-0.26,1.68-0.42
		c0.52-0.159,1.02-0.3,1.5-0.42l13.979-33.3c0.28-0.159,0.561-0.24,0.841-0.24c0.279,0,0.579,0.081,0.899,0.24l13.141,33.24
		c0.56,0.24,1.14,0.43,1.739,0.569c0.601,0.141,1.22,0.291,1.86,0.45l0.6,0.24V391.407z M313.081,373.527h12.66l0.36,2.64h-13.2
		L313.081,373.527z"/>
</g>
<g>
	<path fill="#E7AC35" d="M291.536,391.407h-12.779v-1.5l1.5-0.36c0.439-0.159,0.87-0.3,1.29-0.42s0.829-0.26,1.229-0.42l-6-15.24
		l-4.62-12l-10.8,27.24c0.399,0.12,0.811,0.261,1.23,0.42c0.42,0.16,0.829,0.3,1.229,0.42l1.32,0.36v1.5h-10.38v-1.5l1.02-0.36
		c0.56-0.159,1.11-0.33,1.65-0.51s1.069-0.35,1.59-0.51l14.1-33.96c0.08-0.24,0.181-0.35,0.301-0.33
		c0.119,0.021,0.219,0.13,0.3,0.33l13.68,33.96c0.56,0.2,1.14,0.4,1.74,0.6c0.6,0.201,1.2,0.4,1.8,0.601l0.6,0.18V391.407z
		 M265.917,373.527h12v2.16h-12.24L265.917,373.527z"/>
</g>
<g>
	<path fill="#E7AC35" d="M244.255,391.407h-12.54v-1.08l1.26-0.36c0.48-0.159,0.95-0.289,1.41-0.39c0.459-0.1,0.87-0.229,1.23-0.39
		l-6.181-15.721l-4.859-12.659l-11.46,28.439c0.439,0.081,0.879,0.201,1.319,0.36c0.439,0.16,0.86,0.28,1.26,0.359l1.381,0.301v1.14
		h-9.841v-1.14l1.021-0.301c0.6-0.159,1.159-0.309,1.68-0.449c0.52-0.14,1.021-0.29,1.5-0.45l14.34-34.5
		c0.08-0.24,0.181-0.35,0.301-0.33c0.119,0.021,0.219,0.13,0.3,0.33l13.92,34.439c0.479,0.24,1.01,0.441,1.59,0.601
		c0.579,0.16,1.17,0.32,1.77,0.479l0.601,0.24V391.407z M218.275,373.827h12.301v1.561h-12.48L218.275,373.827z"/>
</g>
<g>
	<path fill="#E7AC35" d="M197.333,391.407h-12.24v-0.72l0.9-0.181c0.48-0.159,0.939-0.309,1.381-0.449
		c0.439-0.14,0.9-0.25,1.379-0.33l-6.42-16.261l-5.16-13.319l-12,29.58c0.4,0.12,0.82,0.239,1.262,0.359
		c0.439,0.12,0.898,0.261,1.379,0.42l1.26,0.24v0.66h-9.059v-0.66l0.898-0.3c0.561-0.12,1.1-0.26,1.621-0.42
		c0.52-0.159,1.039-0.279,1.559-0.36l14.58-35.1c0.08-0.24,0.182-0.35,0.301-0.33c0.119,0.021,0.219,0.13,0.301,0.33l14.16,35.16
		c0.518,0.08,1.039,0.19,1.559,0.33c0.52,0.141,1.061,0.29,1.621,0.449l0.719,0.181V391.407z M170.874,374.127h12.6v0.9h-12.779
		L170.874,374.127z"/>
</g>
<g>
	<path fill="#E7AC35" d="M150.173,344.407h-12.24v-0.3l0.9-0.181c0.48-0.079,0.961-0.21,1.439-0.39c0.48-0.18,0.9-0.35,1.262-0.51
		l-6.48-16.561l-5.4-13.979l-12.539,30.6c0.318,0.201,0.719,0.381,1.199,0.54c0.48,0.16,0.959,0.261,1.439,0.3l1.26,0.181v0.3
		h-8.459v-0.3l0.84-0.24c0.6-0.039,1.17-0.129,1.709-0.27c0.541-0.14,1.07-0.33,1.592-0.57l14.699-35.46
		c0.08-0.24,0.18-0.35,0.301-0.33c0.119,0.021,0.219,0.13,0.299,0.33l14.279,35.52c0.52,0.24,1.031,0.411,1.531,0.511
		s1.01,0.189,1.529,0.27l0.84,0.24V344.407z M123.294,327.427h12.9v0.301h-13.021L123.294,327.427z"/>
</g>
<g>
	<path fill="#E7AC35" d="M434.252,344.407h-12.72v-3.06l0.96-0.181c0.52-0.079,1.05-0.199,1.59-0.359s1.01-0.301,1.41-0.42
		l-4.56-12.48l-5.7-15.42l-10.86,27.9c0.36,0.119,0.77,0.26,1.23,0.42c0.459,0.16,0.93,0.26,1.409,0.3l1.44,0.18v3.12h-12.42v-3.12
		l0.9-0.18c0.6-0.04,1.189-0.14,1.77-0.3c0.579-0.16,1.13-0.32,1.65-0.48l13.319-31.92c0.68,0,1.33,0,1.95,0s1.29,0,2.01,0
		l12.12,31.86c0.56,0.239,1.16,0.4,1.8,0.479c0.64,0.081,1.24,0.16,1.801,0.24l0.899,0.24V344.407z M407.313,326.527h13.859
		l1.141,3.42h-15.12L407.313,326.527z"/>
</g>
<g>
	<path fill="#E7AC35" d="M386.642,344.407h-12.66v-2.58l1.08-0.18c0.52-0.12,1.02-0.26,1.5-0.42c0.479-0.16,0.939-0.301,1.38-0.42
		l-5.04-13.381l-5.34-14.279l-10.86,27.66c0.36,0.119,0.75,0.27,1.17,0.449c0.42,0.181,0.87,0.291,1.351,0.33l1.5,0.181v2.64h-11.82
		v-2.64l1.021-0.181c0.6-0.079,1.17-0.199,1.71-0.359s1.089-0.34,1.649-0.54l13.5-32.521c0.52-0.079,1-0.12,1.44-0.12
		c0.439,0,0.919,0.041,1.439,0.12l12.66,32.46c0.52,0.28,1.1,0.48,1.74,0.601c0.64,0.12,1.22,0.239,1.74,0.359l0.84,0.181V344.407z
		 M360.182,326.527h13.26l0.78,3.06h-14.221L360.182,326.527z"/>
</g>
<g>
	<path fill="#E7AC35" d="M339.091,344.407h-12.779v-2.1l1.439-0.301c0.48-0.079,0.95-0.189,1.41-0.33
		c0.459-0.14,0.85-0.289,1.17-0.449l-5.46-14.28l-4.979-13.14l-10.74,27.479c0.359,0.12,0.75,0.25,1.17,0.39
		c0.42,0.141,0.83,0.271,1.229,0.391l1.44,0.24v2.1h-11.04v-2.1l0.9-0.301c0.6-0.079,1.17-0.199,1.71-0.359
		c0.54-0.159,1.069-0.32,1.59-0.48l13.8-33.3c0.319-0.159,0.609-0.24,0.87-0.24c0.26,0,0.57,0.081,0.93,0.24l13.08,33.24
		c0.56,0.24,1.141,0.44,1.74,0.6c0.6,0.16,1.22,0.28,1.86,0.36l0.659,0.24V344.407z M313.051,326.527h12.66l0.36,2.58h-13.2
		L313.051,326.527z"/>
</g>
<g>
	<path fill="#E7AC35" d="M291.477,344.407h-12.78v-1.56l1.62-0.301c0.439-0.12,0.859-0.26,1.26-0.42
		c0.399-0.159,0.78-0.319,1.141-0.479l-5.94-15.181l-4.62-12l-10.739,27.181c0.359,0.16,0.739,0.33,1.14,0.51
		c0.399,0.18,0.8,0.311,1.2,0.39l1.439,0.301v1.56h-10.38v-1.56l0.9-0.301c0.6-0.12,1.17-0.279,1.71-0.479s1.089-0.399,1.649-0.601
		l14.04-33.899c0.08-0.24,0.181-0.35,0.301-0.33c0.119,0.021,0.219,0.13,0.3,0.33l13.62,33.899c0.56,0.28,1.14,0.511,1.739,0.69
		c0.601,0.18,1.2,0.351,1.801,0.51l0.6,0.181V344.407z M265.917,326.527h12v2.16h-12.24L265.917,326.527z"/>
</g>
<g>
	<path fill="#E7AC35" d="M244.255,344.407h-12.601v-1.2l1.381-0.18c0.439-0.159,0.879-0.31,1.319-0.45
		c0.44-0.14,0.819-0.31,1.141-0.51l-6.061-15.601l-4.859-12.659l-11.341,28.319c0.36,0.12,0.75,0.28,1.17,0.48
		c0.421,0.2,0.85,0.34,1.29,0.42l1.44,0.18v1.2h-9.84v-1.2l0.899-0.24c0.601-0.119,1.171-0.27,1.71-0.449
		c0.54-0.181,1.07-0.35,1.591-0.511l14.279-34.439c0.08-0.24,0.181-0.35,0.301-0.33c0.119,0.021,0.219,0.13,0.3,0.33l13.859,34.38
		c0.48,0.32,1.021,0.55,1.62,0.69c0.601,0.141,1.18,0.29,1.74,0.449l0.66,0.12V344.407z M218.275,326.827h12.301v1.561h-12.48
		L218.275,326.827z"/>
</g>
<g>
	<path fill="#E7AC35" d="M197.275,344.407h-12.301v-0.66l1.02-0.3c0.439-0.08,0.9-0.21,1.381-0.39c0.48-0.181,0.92-0.35,1.32-0.511
		l-6.361-16.08l-5.16-13.319l-11.939,29.399c0.359,0.161,0.76,0.341,1.201,0.54c0.439,0.201,0.898,0.321,1.379,0.36l1.32,0.24v0.72
		h-9.119v-0.72l0.84-0.181c0.639-0.119,1.219-0.27,1.738-0.449c0.52-0.181,1.061-0.35,1.621-0.511l14.459-34.979
		c0.08-0.24,0.182-0.35,0.301-0.33c0.119,0.021,0.219,0.13,0.301,0.33l14.039,35.04c0.561,0.16,1.109,0.32,1.65,0.479
		c0.539,0.16,1.09,0.28,1.65,0.36l0.66,0.3V344.407z M170.874,327.127h12.6v0.9h-12.779L170.874,327.127z"/>
</g>
<g>
	<path fill="#E7AC35" d="M150.234,297.407h-12.301v-0.3l0.781-0.12c0.559-0.12,1.08-0.279,1.559-0.48
		c0.48-0.199,0.92-0.399,1.32-0.6l-6.539-16.44l-5.4-13.979l-12.6,30.479c0.32,0.28,0.719,0.491,1.199,0.631
		c0.48,0.141,1,0.29,1.561,0.449l1.199,0.061v0.3h-8.459v-0.3l0.779-0.181c0.6-0.039,1.189-0.149,1.77-0.329
		c0.58-0.181,1.09-0.37,1.531-0.57l14.76-35.46c0.08-0.24,0.18-0.35,0.301-0.33c0.119,0.021,0.219,0.13,0.299,0.33l14.34,35.52
		c0.439,0.16,0.92,0.321,1.439,0.48c0.52,0.16,1.121,0.3,1.801,0.42l0.66,0.12V297.407z M123.294,280.427h12.9v0.301h-13.021
		L123.294,280.427z"/>
</g>
<g>
	<path fill="#E7AC35" d="M434.312,297.406h-12.78v-3.06l0.96-0.24c0.52-0.04,1.04-0.14,1.561-0.3c0.52-0.16,1.02-0.301,1.5-0.42
		l-4.68-12.48l-5.7-15.42l-10.98,27.9c0.399,0.16,0.819,0.3,1.26,0.42c0.44,0.119,0.92,0.239,1.44,0.359l1.5,0.061v3.18h-12.54
		v-3.18l1.14-0.061c0.561-0.039,1.16-0.14,1.801-0.3c0.639-0.159,1.159-0.339,1.56-0.54l13.26-31.92c0.68,0,1.33,0,1.95,0
		s1.29,0,2.01,0l12.24,31.86c0.48,0.12,1.029,0.261,1.65,0.42c0.619,0.16,1.229,0.3,1.83,0.42l1.02,0.12V297.406z M407.252,279.526
		h13.859l1.141,3.36h-15.12L407.252,279.526z"/>
</g>
<g>
	<path fill="#E7AC35" d="M386.611,297.406h-12.779v-2.58l1.26-0.24c0.52-0.12,1.02-0.26,1.5-0.42c0.479-0.159,0.92-0.3,1.319-0.42
		l-5.1-13.32l-5.34-14.279l-10.92,27.6c0.399,0.201,0.81,0.37,1.229,0.51c0.42,0.141,0.89,0.251,1.41,0.33l1.38,0.181v2.64h-11.76
		v-2.64l1.08-0.181c0.56-0.079,1.14-0.199,1.74-0.359c0.6-0.16,1.119-0.34,1.56-0.54l13.561-32.521
		c0.519-0.079,0.999-0.12,1.439-0.12c0.439,0,0.9,0.041,1.38,0.12l12.721,32.46c0.439,0.201,0.969,0.381,1.59,0.54
		c0.619,0.16,1.27,0.3,1.95,0.42l0.779,0.181V297.406z M360.091,279.526h13.26l0.78,3H359.91L360.091,279.526z"/>
</g>
<g>
	<path fill="#E7AC35" d="M339.121,297.406h-12.78v-2.1l1.44-0.301c0.479-0.079,0.939-0.189,1.38-0.33
		c0.439-0.14,0.859-0.309,1.26-0.51l-5.58-14.22l-4.979-13.14l-10.86,27.42c0.399,0.16,0.8,0.31,1.2,0.449
		c0.399,0.141,0.819,0.291,1.26,0.45l1.5,0.12v2.16h-11.16v-2.16l1.021-0.18c0.639-0.08,1.249-0.21,1.83-0.391
		c0.579-0.18,1.069-0.369,1.47-0.569l13.859-33.24c0.28-0.159,0.55-0.24,0.811-0.24c0.26,0,0.57,0.081,0.93,0.24l13.2,33.18
		c0.48,0.24,1.01,0.461,1.59,0.66c0.579,0.201,1.21,0.36,1.891,0.48l0.72,0.12V297.406z M313.021,279.526h12.66l0.36,2.58h-13.2
		L313.021,279.526z"/>
</g>
<g>
	<path fill="#E7AC35" d="M291.536,297.406h-12.84v-1.56l1.681-0.301c0.439-0.12,0.859-0.26,1.26-0.42
		c0.399-0.159,0.78-0.319,1.14-0.479l-6-15.181l-4.62-12l-10.8,27.181c0.36,0.2,0.74,0.381,1.14,0.54
		c0.399,0.16,0.82,0.3,1.261,0.42l1.439,0.18v1.62h-10.439v-1.62l0.96-0.24c0.6-0.079,1.189-0.219,1.77-0.42
		c0.58-0.199,1.09-0.42,1.53-0.66l14.1-33.899c0.08-0.24,0.181-0.35,0.301-0.33c0.119,0.021,0.219,0.13,0.3,0.33l13.68,33.899
		c0.48,0.24,1.021,0.471,1.62,0.69c0.6,0.221,1.239,0.41,1.92,0.57l0.6,0.12V297.406z M265.917,279.526h12v2.16h-12.24
		L265.917,279.526z"/>
</g>
<g>
	<path fill="#E7AC35" d="M244.315,297.406h-12.72v-1.14l1.38-0.24c0.56-0.159,1.05-0.319,1.47-0.48
		c0.421-0.159,0.79-0.339,1.11-0.54l-6.12-15.54l-4.859-12.659l-11.4,28.26c0.36,0.24,0.76,0.43,1.2,0.57
		c0.439,0.141,0.899,0.29,1.38,0.449l1.38,0.12v1.2h-9.84v-1.2l0.84-0.18c0.64-0.12,1.239-0.271,1.8-0.45
		c0.56-0.18,1.08-0.39,1.561-0.63l14.279-34.38c0.08-0.24,0.181-0.35,0.301-0.33c0.119,0.021,0.219,0.13,0.3,0.33l13.859,34.32
		c0.44,0.28,0.97,0.53,1.591,0.75c0.619,0.22,1.269,0.37,1.949,0.449l0.54,0.181V297.406z M218.275,279.826h12.301v1.561h-12.48
		L218.275,279.826z"/>
</g>
<g>
	<path fill="#E7AC35" d="M197.394,297.406h-12.48v-0.66l1.021-0.24c0.518-0.079,1.01-0.219,1.469-0.42
		c0.459-0.199,0.891-0.399,1.291-0.6l-6.361-16.021l-5.16-13.319l-11.939,29.34c0.359,0.24,0.76,0.45,1.201,0.63
		c0.439,0.18,0.898,0.33,1.379,0.45l1.381,0.06v0.78h-9.24v-0.78l0.9-0.18c0.6,0,1.189-0.109,1.77-0.33
		c0.578-0.22,1.109-0.43,1.59-0.63l14.459-34.92c0.08-0.24,0.182-0.35,0.301-0.33c0.119,0.021,0.219,0.13,0.301,0.33l14.039,34.979
		c0.48,0.201,1,0.4,1.561,0.601c0.559,0.2,1.199,0.359,1.92,0.479l0.6,0.12V297.406z M170.874,280.126h12.6v0.9h-12.779
		L170.874,280.126z"/>
</g>
<g>
	<path fill="#E7AC35" d="M150.173,250.408h-12.359v-0.3l0.779-0.181c0.68,0,1.27-0.119,1.771-0.359c0.498-0.24,0.889-0.54,1.17-0.9
		l-6.48-16.2l-5.4-13.979l-12.539,30.24c0.238,0.4,0.6,0.689,1.08,0.87c0.479,0.18,1.039,0.31,1.68,0.39l1.139,0.12v0.3h-8.459v-0.3
		l0.779-0.12c0.641-0.08,1.25-0.2,1.83-0.36c0.58-0.159,1.109-0.439,1.59-0.84l14.641-35.22c0.08-0.24,0.18-0.35,0.301-0.33
		c0.119,0.021,0.219,0.13,0.299,0.33l14.221,35.28c0.52,0.32,1.039,0.58,1.559,0.779c0.52,0.201,1.141,0.321,1.861,0.36l0.539,0.12
		V250.408z M123.294,233.428h12.9v0.301h-13.021L123.294,233.428z"/>
</g>
<g>
	<path fill="#E7AC35" d="M434.193,250.408h-12.66v-3.18l0.899-0.061c0.601-0.039,1.149-0.159,1.65-0.359
		c0.5-0.2,0.93-0.42,1.29-0.66l-4.56-12.24l-5.7-15.42l-10.86,27.66c0.279,0.32,0.63,0.55,1.05,0.689
		c0.42,0.141,0.909,0.251,1.471,0.33l1.5,0.061v3.18h-12.421v-3.18l1.2-0.12c0.52-0.04,1.1-0.14,1.74-0.3
		c0.64-0.16,1.18-0.36,1.62-0.601l13.26-31.8c0.64,0,1.26,0,1.86,0c0.6,0,1.26,0,1.979,0l12.12,31.74c0.52,0.24,1.09,0.44,1.71,0.6
		c0.62,0.16,1.23,0.261,1.83,0.3l1.021,0.061V250.408z M407.193,232.528h13.859l1.141,3.42h-15.12L407.193,232.528z"/>
</g>
<g>
	<path fill="#E7AC35" d="M386.581,250.408h-12.72v-2.7l1.2-0.12c0.6-0.039,1.13-0.159,1.59-0.359c0.459-0.2,0.83-0.42,1.11-0.66
		l-4.98-13.141l-5.34-14.279l-10.8,27.42c0.279,0.28,0.619,0.5,1.02,0.66c0.399,0.16,0.88,0.28,1.44,0.359l1.439,0.181v2.64h-11.7
		v-2.64l1.08-0.24c0.601-0.039,1.18-0.14,1.74-0.3c0.56-0.16,1.08-0.399,1.561-0.721l13.56-32.34c0.48-0.079,0.939-0.12,1.38-0.12
		c0.439,0,0.9,0.041,1.38,0.12l12.601,32.28c0.479,0.36,1.029,0.62,1.649,0.78s1.27,0.261,1.95,0.3l0.84,0.12V250.408z
		 M360.062,232.528h13.26l0.78,3h-14.221L360.062,232.528z"/>
</g>
<g>
	<path fill="#E7AC35" d="M339.061,250.408h-12.72v-2.22l1.44-0.12c0.56-0.08,1.05-0.21,1.47-0.391c0.42-0.18,0.789-0.39,1.11-0.63
		l-5.521-14.1l-4.979-13.14l-10.801,27.3c0.32,0.24,0.67,0.44,1.051,0.6c0.379,0.16,0.829,0.3,1.35,0.42l1.44,0.12v2.16h-11.04
		v-2.16l1.02-0.18c0.56-0.12,1.14-0.25,1.74-0.391c0.6-0.14,1.119-0.369,1.56-0.689l13.8-33.12c0.32-0.159,0.601-0.24,0.841-0.24
		c0.239,0,0.54,0.081,0.899,0.24l13.141,33.06c0.519,0.321,1.059,0.591,1.619,0.811c0.561,0.221,1.18,0.351,1.86,0.39l0.72,0.061
		V250.408z M313.021,232.528h12.66l0.36,2.64h-13.2L313.021,232.528z"/>
</g>
<g>
	<path fill="#E7AC35" d="M291.477,250.408h-12.78v-1.68l1.681-0.181c0.519-0.039,0.969-0.159,1.35-0.359
		c0.38-0.2,0.71-0.42,0.99-0.66l-5.94-15.061l-4.62-12l-10.739,27.061c0.279,0.28,0.609,0.501,0.989,0.66
		c0.38,0.16,0.83,0.3,1.351,0.42l1.439,0.18v1.62h-10.38v-1.62l0.9-0.24c0.6-0.079,1.189-0.21,1.77-0.39s1.11-0.45,1.59-0.81
		l14.04-33.78c0.08-0.24,0.181-0.35,0.301-0.33c0.119,0.021,0.219,0.13,0.3,0.33l13.62,33.78c0.519,0.359,1.069,0.65,1.649,0.869
		c0.58,0.221,1.21,0.371,1.891,0.45l0.6,0.061V250.408z M265.917,232.528h12v2.16h-12.24L265.917,232.528z"/>
</g>
<g>
	<path fill="#E7AC35" d="M244.315,250.408h-12.66v-1.26l1.32-0.181c0.601,0,1.119-0.109,1.561-0.329
		c0.439-0.22,0.739-0.47,0.899-0.75l-6-15.421l-4.859-12.659l-11.28,28.14c0.24,0.28,0.57,0.501,0.99,0.66
		c0.42,0.16,0.909,0.3,1.47,0.42l1.38,0.18v1.2h-9.78v-1.2l0.78-0.24c0.68-0.039,1.29-0.159,1.83-0.359s1.069-0.439,1.59-0.72
		l14.22-34.32c0.08-0.24,0.181-0.35,0.301-0.33c0.119,0.021,0.219,0.13,0.3,0.33l13.8,34.26c0.479,0.4,1.02,0.7,1.62,0.9
		c0.6,0.2,1.239,0.32,1.92,0.359l0.6,0.061V250.408z M218.275,232.828h12.301v1.561h-12.48L218.275,232.828z"/>
</g>
<g>
	<path fill="#E7AC35" d="M197.333,250.408h-12.539v-0.72l1.141-0.181c0.559-0.039,1.068-0.18,1.529-0.42
		c0.459-0.239,0.85-0.499,1.17-0.779l-6.301-15.841l-5.16-13.319l-11.879,29.16c0.279,0.32,0.629,0.59,1.049,0.81
		c0.422,0.221,0.932,0.37,1.531,0.45l1.32,0.12v0.72h-9.24v-0.72l0.84-0.181c0.639-0.079,1.26-0.199,1.859-0.359
		c0.6-0.159,1.141-0.46,1.621-0.9l14.398-34.68c0.08-0.24,0.182-0.35,0.301-0.33c0.119,0.021,0.219,0.13,0.301,0.33l13.979,34.74
		c0.52,0.359,1.061,0.65,1.621,0.869c0.559,0.221,1.18,0.352,1.859,0.391l0.6,0.12V250.408z M170.874,233.128h12.6v0.9h-12.779
		L170.874,233.128z"/>
</g>
<g>
	<path fill="#E7AC35" d="M150.234,203.408h-12.42v-0.3l0.721-0.061c0.719-0.039,1.328-0.189,1.83-0.449
		c0.498-0.26,0.828-0.59,0.988-0.99l-6.299-16.141l-5.4-13.979l-12.359,30.18c0.119,0.36,0.408,0.681,0.869,0.96
		c0.459,0.28,1.029,0.4,1.711,0.36l1.139,0.12v0.3h-8.459v-0.3l0.6-0.061c0.76-0.039,1.439-0.159,2.041-0.359
		c0.6-0.2,1.139-0.52,1.619-0.96l14.58-35.16c0.08-0.24,0.18-0.35,0.301-0.33c0.119,0.021,0.219,0.13,0.299,0.33l14.16,35.22
		c0.48,0.4,1.01,0.69,1.59,0.87s1.23,0.291,1.951,0.33l0.539,0.12V203.408z M123.294,186.428h12.9v0.301h-13.021L123.294,186.428z"
		/>
</g>
<g>
	<path fill="#E7AC35" d="M434.133,203.408h-12.601v-3.18l0.96-0.061c0.601-0.039,1.149-0.149,1.65-0.33
		c0.5-0.18,0.85-0.409,1.05-0.689l-4.439-12.24l-5.7-15.42l-10.74,27.66c0.199,0.2,0.51,0.41,0.93,0.63s0.87,0.311,1.351,0.27
		l1.56,0.181v3.18h-12.24v-3.18l1.021-0.12c0.68,0,1.32-0.09,1.92-0.271c0.6-0.18,1.14-0.429,1.62-0.75l13.14-31.68
		c0.64,0,1.27,0,1.891,0c0.619,0,1.269,0,1.949,0l12,31.62c0.52,0.36,1.09,0.6,1.71,0.72s1.27,0.18,1.95,0.18l1.021,0.181V203.408z
		 M407.133,185.528h13.859l1.141,3.36h-15.12L407.133,185.528z"/>
</g>
<g>
	<path fill="#E7AC35" d="M386.462,203.408h-12.54v-2.7l1.14-0.12c0.601-0.039,1.119-0.149,1.561-0.33
		c0.439-0.18,0.8-0.409,1.08-0.689l-4.98-13.141l-5.34-14.279l-10.8,27.42c0.239,0.24,0.549,0.46,0.93,0.66
		c0.38,0.2,0.83,0.32,1.35,0.359l1.561,0.12v2.7h-11.641v-2.7l1.021-0.06c0.68-0.08,1.31-0.21,1.89-0.391
		c0.58-0.18,1.13-0.429,1.65-0.75l13.38-32.34c0.48-0.079,0.93-0.12,1.35-0.12c0.421,0,0.89,0.041,1.41,0.12l12.601,32.28
		c0.479,0.36,1.02,0.63,1.62,0.81c0.6,0.181,1.22,0.271,1.859,0.271l0.9,0.12V203.408z M360.002,185.528h13.26l0.78,2.939h-14.221
		L360.002,185.528z"/>
</g>
<g>
	<path fill="#E7AC35" d="M339.031,203.408h-12.72v-2.22l1.5-0.061c0.56-0.079,1.05-0.199,1.47-0.359s0.729-0.42,0.931-0.78
		l-5.4-14.04l-4.979-13.14l-10.681,27.239c0.2,0.201,0.489,0.42,0.87,0.66c0.38,0.24,0.83,0.341,1.351,0.3l1.5,0.181v2.22h-10.98
		v-2.22l0.84-0.12c0.72-0.039,1.359-0.159,1.92-0.36c0.56-0.199,1.08-0.459,1.561-0.78l13.8-33.06c0.24-0.159,0.5-0.24,0.78-0.24
		c0.279,0,0.579,0.081,0.899,0.24l13.021,33c0.52,0.44,1.069,0.74,1.649,0.9s1.21,0.261,1.891,0.3l0.779,0.12V203.408z
		 M312.991,185.528h12.66l0.36,2.64h-13.2L312.991,185.528z"/>
</g>
<g>
	<path fill="#E7AC35" d="M291.417,203.408h-12.66v-1.68l1.68-0.12c0.52-0.08,0.97-0.21,1.35-0.391c0.38-0.18,0.67-0.409,0.87-0.689
		l-5.88-15.061l-4.62-12l-10.68,27.061c0.199,0.24,0.489,0.471,0.87,0.689c0.38,0.221,0.81,0.33,1.29,0.33l1.5,0.181v1.68h-10.26
		v-1.68l0.72-0.12c0.72-0.08,1.359-0.22,1.92-0.42c0.56-0.2,1.1-0.48,1.62-0.84l13.979-33.78c0.08-0.24,0.181-0.35,0.301-0.33
		c0.119,0.021,0.219,0.13,0.3,0.33l13.56,33.78c0.52,0.399,1.07,0.7,1.65,0.899c0.579,0.201,1.209,0.32,1.89,0.36l0.601,0.12
		V203.408z M265.917,185.528h12v2.16h-12.24L265.917,185.528z"/>
</g>
<g>
	<path fill="#E7AC35" d="M244.255,203.408h-12.601v-1.2l1.381-0.18c0.56-0.039,1.069-0.17,1.529-0.39s0.729-0.47,0.811-0.75
		l-5.94-15.421l-4.859-12.659l-11.221,28.14c0.159,0.2,0.44,0.431,0.84,0.69s0.88,0.37,1.44,0.329l1.44,0.24v1.2h-9.721v-1.2
		l0.601-0.18c0.84-0.039,1.529-0.159,2.069-0.36c0.54-0.199,1.051-0.479,1.53-0.84l14.22-34.26c0.08-0.24,0.181-0.35,0.301-0.33
		c0.119,0.021,0.219,0.13,0.3,0.33l13.8,34.2c0.439,0.479,0.96,0.8,1.56,0.96c0.601,0.16,1.24,0.28,1.92,0.359l0.601,0.12V203.408z
		 M218.275,185.828h12.301v1.561h-12.48L218.275,185.828z"/>
</g>
<g>
	<path fill="#E7AC35" d="M197.333,203.408h-12.479v-0.72l1.02-0.061c0.6-0.12,1.129-0.289,1.59-0.51
		c0.459-0.22,0.811-0.51,1.051-0.87l-6.182-15.78l-5.16-13.319l-11.76,29.1c0.16,0.28,0.451,0.561,0.871,0.84
		c0.42,0.28,0.93,0.441,1.529,0.48l1.32,0.06v0.78h-9.061v-0.78h0.6c0.721-0.12,1.371-0.279,1.951-0.479
		c0.578-0.2,1.148-0.5,1.709-0.9l14.34-34.68c0.08-0.24,0.182-0.35,0.301-0.33c0.119,0.021,0.219,0.13,0.301,0.33l13.92,34.74
		c0.52,0.359,1.068,0.65,1.648,0.869c0.58,0.221,1.23,0.33,1.951,0.33l0.539,0.181V203.408z M170.874,186.128h12.6v0.9h-12.779
		L170.874,186.128z"/>
</g>
<g>
	<path fill="#E7AC35" d="M150.353,156.408h-12.6v-0.301l0.721-0.061c0.799,0,1.459-0.148,1.98-0.449
		c0.52-0.301,0.818-0.709,0.898-1.23l-6.299-15.9l-5.4-13.979l-12.359,29.939c0.039,0.48,0.299,0.869,0.779,1.17
		s1.08,0.449,1.801,0.449l1.139,0.061v0.301h-8.459v-0.301l0.48-0.061c0.84,0,1.568-0.129,2.189-0.389
		c0.619-0.26,1.17-0.609,1.65-1.051l14.52-35.039c0.08-0.24,0.18-0.35,0.301-0.33c0.119,0.02,0.219,0.129,0.299,0.33l14.1,35.1
		c0.48,0.439,1.021,0.779,1.621,1.02s1.32,0.381,2.16,0.42h0.479V156.408z M123.294,139.428h12.9v0.301h-13.021L123.294,139.428z"/>
</g>
<g>
	<path fill="#E7AC35" d="M434.162,156.408h-12.721v-3.24h1.021c0.68-0.079,1.249-0.219,1.71-0.42c0.459-0.199,0.81-0.439,1.05-0.72
		l-4.56-12.12l-5.7-15.42l-10.86,27.54c0.2,0.28,0.489,0.54,0.87,0.78c0.38,0.239,0.87,0.34,1.47,0.3l1.5,0.06v3.24h-12.24v-3.24
		h1.141c0.72-0.079,1.399-0.21,2.04-0.39c0.64-0.18,1.14-0.45,1.5-0.811l13.2-31.56c0.68,0,1.31,0,1.89,0c0.579,0,1.209,0,1.89,0
		l12.12,31.5c0.439,0.32,0.96,0.57,1.561,0.75c0.6,0.18,1.26,0.311,1.979,0.39h1.141V156.408z M407.042,138.528h13.859l1.141,3.36
		h-15.12L407.042,138.528z"/>
</g>
<g>
	<path fill="#E7AC35" d="M386.612,156.408h-12.78v-2.76h1.261c0.68-0.04,1.229-0.159,1.649-0.36c0.42-0.199,0.729-0.479,0.931-0.84
		l-4.98-13.021l-5.34-14.279l-10.8,27.3c0.159,0.36,0.42,0.65,0.779,0.87c0.36,0.22,0.86,0.311,1.5,0.27l1.561,0.061v2.76h-11.7
		v-2.76l1.08-0.061c0.72,0,1.38-0.109,1.979-0.33c0.601-0.219,1.101-0.489,1.5-0.81l13.5-32.28c0.44-0.079,0.88-0.12,1.32-0.12
		c0.439,0,0.9,0.041,1.38,0.12l12.601,32.221c0.399,0.359,0.909,0.63,1.529,0.81s1.29,0.311,2.011,0.39h1.02V156.408z
		 M359.972,138.528h13.26l0.78,3h-14.221L359.972,138.528z"/>
</g>
<g>
	<path fill="#E7AC35" d="M339.001,156.408h-12.659v-2.28l1.5-0.06c0.639-0.039,1.159-0.15,1.56-0.33c0.399-0.18,0.68-0.43,0.84-0.75
		l-5.46-14.04l-4.979-13.14l-10.74,27.239c0.159,0.24,0.42,0.471,0.78,0.69c0.359,0.221,0.819,0.33,1.38,0.33l1.56,0.06v2.28
		h-10.979v-2.28l0.84-0.06c0.759-0.039,1.439-0.15,2.04-0.33c0.6-0.18,1.08-0.47,1.439-0.87l13.8-33
		c0.32-0.159,0.609-0.24,0.87-0.24c0.26,0,0.55,0.081,0.87,0.24l13.08,32.94c0.439,0.4,0.95,0.7,1.53,0.899
		c0.579,0.201,1.25,0.341,2.01,0.42h0.72V156.408z M312.961,138.528h12.66l0.36,2.58h-13.2L312.961,138.528z"/>
</g>
<g>
	<path fill="#E7AC35" d="M291.477,156.408h-12.72v-1.74l1.739-0.06c0.601-0.04,1.08-0.159,1.44-0.36
		c0.36-0.199,0.62-0.459,0.78-0.78l-5.94-15l-4.62-12l-10.739,27c0.159,0.321,0.42,0.591,0.779,0.811
		c0.36,0.22,0.819,0.33,1.38,0.33l1.561,0.06v1.74h-10.32v-1.74l0.72-0.06c0.76-0.04,1.44-0.17,2.04-0.391
		c0.601-0.219,1.1-0.529,1.5-0.93l14.04-33.72c0.08-0.24,0.181-0.35,0.301-0.33c0.119,0.021,0.219,0.13,0.3,0.33l13.62,33.72
		c0.439,0.4,0.949,0.711,1.529,0.93c0.58,0.221,1.25,0.371,2.011,0.45h0.6V156.408z M265.917,138.528h12v2.16h-12.24
		L265.917,138.528z"/>
</g>
<g>
	<path fill="#E7AC35" d="M244.315,156.408h-12.66v-1.32h1.32c0.76-0.039,1.34-0.169,1.74-0.39c0.399-0.22,0.64-0.55,0.72-0.99
		l-6-15.24l-4.859-12.659l-11.28,27.96c0.12,0.4,0.38,0.72,0.78,0.96c0.399,0.239,0.899,0.359,1.5,0.359h1.5v1.32h-9.78v-1.32h0.66
		c0.8-0.039,1.5-0.18,2.1-0.42s1.1-0.54,1.5-0.899l14.22-34.2c0.08-0.24,0.181-0.35,0.301-0.33c0.119,0.021,0.219,0.13,0.3,0.33
		l13.8,34.14c0.399,0.44,0.9,0.771,1.5,0.99c0.6,0.221,1.32,0.351,2.16,0.39h0.479V156.408z M218.275,138.828h12.301v1.561h-12.48
		L218.275,138.828z"/>
</g>
<g>
	<path fill="#E7AC35" d="M197.394,156.408h-12.6v-0.72l1.08-0.12c0.68,0,1.26-0.15,1.74-0.45c0.479-0.3,0.799-0.63,0.959-0.99
		l-6.24-15.66l-5.16-13.319l-11.818,28.979c0.119,0.36,0.379,0.7,0.779,1.021c0.398,0.32,0.959,0.46,1.68,0.42l1.32,0.12v0.72h-9.18
		v-0.72l0.539-0.12c0.881,0,1.631-0.12,2.25-0.36c0.621-0.24,1.131-0.6,1.531-1.08l14.398-34.56c0.08-0.24,0.182-0.35,0.301-0.33
		c0.119,0.021,0.219,0.13,0.301,0.33l13.979,34.62c0.441,0.44,0.961,0.771,1.561,0.989c0.6,0.221,1.299,0.391,2.1,0.511h0.48
		V156.408z M170.874,139.128h12.6v0.9h-12.779L170.874,139.128z"/>
</g>
<g>
	<path fill="#E7AC35" d="M386.491,109.407h-12.66v-2.82h1.26c0.68,0,1.23-0.109,1.65-0.33c0.42-0.219,0.689-0.51,0.81-0.869
		l-4.92-12.961l-5.34-14.279l-10.74,27.24c0.08,0.359,0.3,0.65,0.66,0.869c0.36,0.221,0.859,0.33,1.5,0.33h1.56v2.82h-11.58v-2.82
		h1.08c0.721,0,1.381-0.099,1.98-0.3c0.6-0.199,1.119-0.52,1.56-0.96l13.38-32.16c0.48-0.079,0.931-0.12,1.351-0.12
		s0.87,0.041,1.35,0.12l12.54,32.101c0.399,0.44,0.909,0.76,1.53,0.96c0.62,0.2,1.29,0.3,2.01,0.3h1.021V109.407z M359.911,91.527
		h13.26l0.78,2.939h-14.221L359.911,91.527z"/>
</g>
<g>
	<path fill="#E7AC35" d="M338.971,109.407h-12.659v-2.34h1.56c0.64,0,1.16-0.1,1.56-0.3s0.64-0.5,0.721-0.9l-5.4-13.92l-4.979-13.14
		l-10.681,27.119c0.08,0.321,0.3,0.591,0.66,0.811c0.36,0.221,0.84,0.33,1.44,0.33h1.56v2.34h-10.92v-2.34h0.84
		c0.76,0,1.44-0.1,2.04-0.3c0.601-0.2,1.1-0.52,1.5-0.96l13.74-32.94c0.279-0.159,0.549-0.24,0.81-0.24c0.26,0,0.55,0.081,0.87,0.24
		l13.021,32.88c0.439,0.48,0.949,0.82,1.529,1.021s1.25,0.3,2.011,0.3h0.779V109.407z M312.931,91.527h12.66l0.36,2.58h-13.2
		L312.931,91.527z"/>
</g>
<g>
	<path fill="#E7AC35" d="M291.417,109.407h-12.66v-1.8h1.8c0.6,0,1.08-0.11,1.439-0.33c0.36-0.22,0.58-0.51,0.66-0.87l-5.88-14.94
		l-4.62-12l-10.68,26.94c0.08,0.36,0.3,0.65,0.66,0.87c0.359,0.22,0.84,0.33,1.439,0.33h1.561v1.8h-10.26v-1.8h0.659
		c0.76,0,1.44-0.11,2.04-0.33c0.601-0.22,1.12-0.57,1.561-1.05l13.979-33.66c0.08-0.24,0.181-0.35,0.301-0.33
		c0.119,0.021,0.219,0.13,0.3,0.33l13.56,33.66c0.439,0.479,0.95,0.83,1.53,1.05c0.579,0.22,1.25,0.33,2.01,0.33h0.601V109.407z
		 M265.917,91.527h12v2.16h-12.24L265.917,91.527z"/>
</g>
<g>
	<path fill="#E7AC35" d="M244.255,109.407h-12.66v-1.32h1.44c0.72,0,1.29-0.129,1.71-0.39c0.42-0.26,0.63-0.609,0.63-1.05
		l-5.94-15.181l-4.859-12.659l-11.221,27.899c0.04,0.4,0.26,0.73,0.66,0.99c0.399,0.261,0.939,0.39,1.62,0.39h1.44v1.32h-9.721
		v-1.32h0.54c0.84,0,1.561-0.12,2.16-0.359c0.6-0.24,1.119-0.601,1.561-1.08l14.159-34.08c0.08-0.24,0.181-0.35,0.301-0.33
		c0.119,0.021,0.219,0.13,0.3,0.33l13.74,34.02c0.398,0.561,0.909,0.951,1.529,1.17c0.62,0.221,1.33,0.33,2.13,0.33h0.48V109.407z
		 M218.275,91.827h12.301v1.561h-12.48L218.275,91.827z"/>
</g>
<g>
	<path fill="#E7AC35" d="M197.394,109.407h-12.66v-0.78h1.08c0.76,0,1.369-0.159,1.83-0.479c0.459-0.32,0.73-0.721,0.811-1.2
		l-6.121-15.48l-5.16-13.319l-11.699,28.8c0,0.479,0.211,0.88,0.631,1.2s1.01,0.479,1.77,0.479h1.26v0.78h-9.119v-0.78h0.479
		c0.84,0,1.58-0.129,2.221-0.39c0.639-0.26,1.199-0.67,1.68-1.23l14.279-34.439c0.08-0.24,0.182-0.35,0.301-0.33
		c0.119,0.021,0.219,0.13,0.301,0.33l13.859,34.5c0.48,0.521,1.029,0.91,1.65,1.17c0.619,0.261,1.35,0.39,2.189,0.39h0.42V109.407z
		 M170.874,92.127h12.6v0.9h-12.779L170.874,92.127z"/>
</g>
<g>
	<path fill="#231815" d="M117.802,430.259l-0.352,1.569l-2.66-0.042l-1.779,8.25h-2.045l1.807-8.25l-2.9,0.042l0.338-1.569H117.802z
		"/>
	<path fill="#231815" d="M120.445,431.968c-0.111,0.49-0.365,1.499-0.463,1.835h0.029c0.531-0.799,1.344-1.148,2.059-1.148
		c1.582,0,2.381,0.952,2.381,2.297c0,0.435-0.07,0.925-0.211,1.583l-0.756,3.502h-1.82l0.756-3.516
		c0.141-0.658,0.211-1.037,0.211-1.373c0-0.645-0.352-1.064-1.051-1.064c-0.756,0-1.262,0.448-1.625,1.12
		c-0.252,0.463-0.463,1.149-0.688,2.241l-0.545,2.592H116.9l2.242-10.59h1.85L120.445,431.968z"/>
	<path fill="#231815" d="M128.859,432.822l-1.541,7.214h-1.85l1.527-7.214H128.859z M129.489,429.656l-0.393,1.779h-1.877
		l0.406-1.779H129.489z"/>
	<path fill="#231815" d="M135.146,434.503c-0.393-0.21-0.812-0.336-1.316-0.336c-1.443,0-2.326,1.247-2.326,2.802
		c0,0.98,0.547,1.723,1.779,1.723c0.463,0,0.953-0.098,1.316-0.28l-0.209,1.443c-0.49,0.182-0.994,0.252-1.584,0.252
		c-2.059,0-3.248-1.317-3.248-3.026c0-2.493,1.807-4.328,4.342-4.328c0.631,0,1.232,0.112,1.709,0.309L135.146,434.503z"/>
	<path fill="#231815" d="M137.314,440.036h-1.836l2.242-10.59h1.834l-1.344,6.149h0.027c0.127-0.154,0.645-0.7,2.732-2.773h2.424
		l-3.531,3.193l2.256,4.021h-2.143c-1.373-2.689-1.738-3.502-1.877-3.838h-0.029L137.314,440.036z"/>
	<path fill="#231815" d="M146.148,433.942c0.561-0.896,1.402-1.288,2.199-1.288c1.584,0,2.383,0.952,2.383,2.297
		c0,0.435-0.07,0.925-0.211,1.583l-0.756,3.502h-1.822l0.758-3.516c0.139-0.658,0.209-1.037,0.209-1.373
		c0-0.645-0.35-1.064-1.051-1.064c-0.756,0-1.26,0.448-1.625,1.12c-0.252,0.463-0.461,1.149-0.686,2.241l-0.547,2.592h-1.82
		l1.191-5.673c0.098-0.477,0.195-1.009,0.266-1.541h1.68c-0.027,0.322-0.125,0.784-0.195,1.12H146.148z"/>
	<path fill="#231815" d="M153.749,436.954c-0.014,0.112-0.014,0.183-0.014,0.225c0,1.036,0.672,1.625,1.906,1.625
		c0.756,0,1.498-0.141,2.268-0.547l-0.252,1.513c-0.672,0.309-1.555,0.435-2.297,0.435c-2.27,0-3.432-1.219-3.432-2.997
		c0-2.452,1.527-4.553,4.133-4.553c1.807,0,2.814,0.925,2.814,2.703c0,0.477-0.055,0.995-0.182,1.597H153.749z M157.196,435.693
		c0.014-0.098,0.027-0.237,0.027-0.378c0-0.91-0.463-1.358-1.303-1.358c-0.953,0-1.709,0.63-1.988,1.736H157.196z"/>
	<path fill="#231815" d="M164.937,434.461c-0.545-0.308-1.119-0.448-1.666-0.448c-0.742,0-1.148,0.252-1.148,0.715
		c0,0.392,0.195,0.588,1.021,1.106c0.842,0.532,1.416,1.051,1.416,2.017c0,1.598-1.246,2.354-2.998,2.354
		c-0.896,0-1.779-0.182-2.465-0.49l0.434-1.484c0.617,0.35,1.4,0.56,2.045,0.56c0.742,0,1.107-0.266,1.107-0.771
		c0-0.321-0.168-0.63-1.01-1.148c-1.148-0.714-1.471-1.232-1.471-2.017c0-1.387,1.232-2.199,3.041-2.199
		c0.699,0,1.457,0.14,2.086,0.406L164.937,434.461z"/>
	<path fill="#231815" d="M171.097,434.461c-0.545-0.308-1.119-0.448-1.666-0.448c-0.742,0-1.148,0.252-1.148,0.715
		c0,0.392,0.195,0.588,1.021,1.106c0.842,0.532,1.416,1.051,1.416,2.017c0,1.598-1.246,2.354-2.998,2.354
		c-0.896,0-1.779-0.182-2.465-0.49l0.434-1.484c0.617,0.35,1.4,0.56,2.045,0.56c0.742,0,1.107-0.266,1.107-0.771
		c0-0.321-0.168-0.63-1.01-1.148c-1.148-0.714-1.471-1.232-1.471-2.017c0-1.387,1.232-2.199,3.041-2.199
		c0.699,0,1.457,0.14,2.086,0.406L171.097,434.461z"/>
</g>
<g>
	<path fill="#231815" d="M70.759,384.39c-0.351,0.672-0.561,1.471-0.561,2.157c0,0.924,0.435,1.681,1.232,1.681
		c0.519,0,0.854-0.336,1.429-1.415c0.673-1.246,1.345-2.031,2.802-2.031c1.905,0,3.18,1.429,3.18,3.755
		c0,0.994-0.154,1.975-0.546,3.081l-1.625-0.504c0.406-0.812,0.645-1.695,0.645-2.396c0-1.064-0.435-1.905-1.499-1.905
		c-0.673,0-1.022,0.351-1.569,1.387c-0.771,1.443-1.414,1.976-2.577,1.976c-1.765,0-2.941-1.429-2.941-3.643
		c0-0.91,0.182-1.988,0.462-2.633L70.759,384.39z"/>
	<path fill="#231815" d="M69.933,381.578l-0.673-1.934l2.199,0.463v-1.723l1.345,0.279v1.724l3.166,0.658
		c0.28,0.056,0.49,0.084,0.616,0.084c0.434,0,0.7-0.225,0.7-0.826c0-0.238-0.042-0.505-0.126-0.771l1.471,0.294
		c0.112,0.393,0.14,0.757,0.14,1.051c0,1.358-0.7,2.087-1.904,2.087c-0.406,0-0.869-0.084-1.401-0.196l-2.661-0.588v1.358
		l-1.345-0.28V381.9L69.933,381.578z"/>
	<path fill="#231815" d="M71.459,375.222c0.364,0.056,0.841,0.14,1.331,0.252v-0.028c-0.938-0.603-1.499-1.345-1.499-2.283
		c0-0.266,0.028-0.462,0.07-0.63l1.765,0.42c-0.084,0.224-0.112,0.406-0.112,0.672c0,1.275,0.952,1.962,2.577,2.298l3.082,0.63v1.85
		l-4.944-1.022c-1.022-0.211-1.695-0.337-2.27-0.421V375.222z"/>
	<path fill="#231815" d="M77.525,368.276c0.994,0.603,1.288,1.429,1.288,2.34c0,1.33-0.798,2.311-2.101,2.311
		c-2.157,0-2.563-2.381-2.563-4.132c0-0.196,0.014-0.631,0.028-0.91c-0.211-0.042-0.351-0.042-0.477-0.042
		c-0.7,0-1.064,0.546-1.064,1.513c0,0.63,0.14,1.456,0.49,2.199l-1.485-0.196c-0.224-0.715-0.35-1.555-0.35-2.256
		c0-1.849,0.742-2.969,2.27-2.969c0.812,0,2.997,0.532,3.852,0.658c0.336,0.056,0.854,0.126,1.261,0.126v1.471
		c-0.406-0.014-0.757-0.07-1.148-0.141V368.276z M75.312,368.669c0,1.793,0.56,2.423,1.316,2.423c0.574,0,0.882-0.434,0.882-0.952
		c0-1.121-0.994-1.919-2.171-2.087C75.312,368.291,75.312,368.486,75.312,368.669z"/>
	<path fill="#231815" d="M68.293,361.235l1.779,0.393v1.877l-1.779-0.406V361.235z M71.459,361.865l7.214,1.541v1.85l-7.214-1.527
		V361.865z"/>
	<path fill="#231815" d="M79.709,361.237c0.379-0.798,0.575-1.652,0.575-2.339c0-1.471-0.757-2.283-2.858-2.662v0.028
		c0.701,0.448,1.191,1.106,1.191,2.171c0,1.724-1.205,2.647-2.886,2.647c-2.563,0-4.44-1.61-4.44-3.712
		c0-1.008,0.392-1.681,1.232-2.073v-0.027l-1.064-0.21v-1.779l6.794,1.429c2.339,0.49,3.529,1.793,3.529,4.244
		c0,0.868-0.195,1.849-0.546,2.773L79.709,361.237z M75.535,359.206c1.009,0,1.695-0.42,1.695-1.358
		c0-1.274-1.443-2.129-2.858-2.129c-1.022,0-1.708,0.504-1.708,1.358C72.664,358.212,73.994,359.206,75.535,359.206z"/>
	<path fill="#231815" d="M70.605,349.266c0.49,0.111,1.499,0.364,1.835,0.462v-0.028c-0.799-0.532-1.148-1.345-1.148-2.059
		c0-1.583,0.952-2.382,2.297-2.382c0.435,0,0.925,0.07,1.583,0.21l3.502,0.757v1.821l-3.516-0.757
		c-0.658-0.14-1.037-0.21-1.373-0.21c-0.645,0-1.064,0.351-1.064,1.051c0,0.756,0.448,1.261,1.12,1.625
		c0.463,0.252,1.149,0.462,2.241,0.687l2.592,0.546v1.821l-10.59-2.241v-1.85L70.605,349.266z"/>
	<path fill="#231815" d="M69.933,341.972l-0.673-1.933l2.199,0.462v-1.723l1.345,0.279v1.724l3.166,0.658
		c0.28,0.056,0.49,0.084,0.616,0.084c0.434,0,0.7-0.225,0.7-0.826c0-0.238-0.042-0.505-0.126-0.771l1.471,0.294
		c0.112,0.393,0.14,0.757,0.14,1.051c0,1.358-0.7,2.087-1.904,2.087c-0.406,0-0.869-0.084-1.401-0.196l-2.661-0.588v1.358
		l-1.345-0.28v-1.358L69.933,341.972z"/>
	<path fill="#231815" d="M75.591,336.68c0.112,0.014,0.183,0.014,0.225,0.014c1.036,0,1.625-0.672,1.625-1.905
		c0-0.756-0.141-1.498-0.547-2.269l1.513,0.252c0.309,0.672,0.435,1.555,0.435,2.297c0,2.27-1.219,3.432-2.997,3.432
		c-2.452,0-4.553-1.526-4.553-4.132c0-1.807,0.925-2.815,2.703-2.815c0.477,0,0.995,0.056,1.597,0.182V336.68z M74.33,333.233
		c-0.098-0.014-0.237-0.028-0.378-0.028c-0.91,0-1.358,0.463-1.358,1.303c0,0.953,0.63,1.709,1.736,1.989V333.233z"/>
	<path fill="#231815" d="M71.459,327.775c0.364,0.056,0.841,0.14,1.331,0.252v-0.028c-0.938-0.603-1.499-1.345-1.499-2.283
		c0-0.266,0.028-0.462,0.07-0.63l1.765,0.42c-0.084,0.224-0.112,0.406-0.112,0.672c0,1.275,0.952,1.962,2.577,2.298l3.082,0.63v1.85
		l-4.944-1.022c-1.022-0.211-1.695-0.337-2.27-0.421V327.775z"/>
</g>
<g>
	<path fill="#231815" d="M132.664,413.621c0,5.304-1.943,8.473-5.424,8.473c-3.505,0-5.448-3.192-5.448-8.617
		c0-5.568,1.896-8.616,5.616-8.616C130.817,404.86,132.664,408.076,132.664,413.621z M123.04,413.453
		c0,5.064,1.487,7.608,4.152,7.608c2.664,0,4.248-2.593,4.248-7.561c0-5.017-1.561-7.585-4.248-7.585
		C124.552,405.916,123.04,408.484,123.04,413.453z"/>
</g>
<g>
	<path fill="#231815" d="M103.62,383.174c0,5.305-1.943,8.473-5.424,8.473c-3.505,0-5.448-3.191-5.448-8.617
		c0-5.568,1.896-8.615,5.616-8.615C101.773,374.414,103.62,377.629,103.62,383.174z M93.996,383.006
		c0,5.064,1.487,7.609,4.152,7.609c2.664,0,4.248-2.594,4.248-7.561c0-5.018-1.561-7.586-4.248-7.586
		C95.508,375.469,93.996,378.037,93.996,383.006z"/>
</g>
<g>
	<path fill="#231815" d="M58.478,109.407h-1.152V98.366c0-1.392,0.048-3.672,0.096-4.513h-0.048
		c-0.576,0.553-1.536,1.368-2.112,1.824l-1.056,0.864l-0.624-0.768l3.864-3.121h1.032V109.407z"/>
	<path fill="#231815" d="M76.261,101.175c0,5.304-1.943,8.473-5.424,8.473c-3.505,0-5.448-3.192-5.448-8.617
		c0-5.568,1.896-8.616,5.616-8.616C74.413,92.414,76.261,95.63,76.261,101.175z M66.637,101.007c0,5.064,1.487,7.608,4.152,7.608
		c2.664,0,4.248-2.593,4.248-7.561c0-5.017-1.561-7.585-4.248-7.585C68.149,93.47,66.637,96.038,66.637,101.007z"/>
	<path fill="#231815" d="M89.941,101.175c0,5.304-1.943,8.473-5.424,8.473c-3.505,0-5.448-3.192-5.448-8.617
		c0-5.568,1.896-8.616,5.616-8.616C88.093,92.414,89.941,95.63,89.941,101.175z M80.317,101.007c0,5.064,1.487,7.608,4.152,7.608
		c2.664,0,4.248-2.593,4.248-7.561c0-5.017-1.561-7.585-4.248-7.585C81.828,93.47,80.317,96.038,80.317,101.007z"/>
	<path fill="#231815" d="M103.62,101.175c0,5.304-1.943,8.473-5.424,8.473c-3.505,0-5.448-3.192-5.448-8.617
		c0-5.568,1.896-8.616,5.616-8.616C101.773,92.414,103.62,95.63,103.62,101.175z M93.996,101.007c0,5.064,1.487,7.608,4.152,7.608
		c2.664,0,4.248-2.593,4.248-7.561c0-5.017-1.561-7.585-4.248-7.585C95.508,93.47,93.996,96.038,93.996,101.007z"/>
</g>
<g>
	<path fill="#231815" d="M388.353,421.854H387.2v-11.041c0-1.392,0.048-3.672,0.096-4.513h-0.048
		c-0.576,0.553-1.536,1.368-2.112,1.824l-1.056,0.864l-0.624-0.768l3.864-3.121h1.032V421.854z"/>
	<path fill="#231815" d="M406.136,413.621c0,5.304-1.943,8.473-5.424,8.473c-3.505,0-5.448-3.192-5.448-8.617
		c0-5.568,1.896-8.616,5.616-8.616C404.288,404.86,406.136,408.076,406.136,413.621z M396.512,413.453
		c0,5.064,1.487,7.608,4.152,7.608c2.664,0,4.248-2.593,4.248-7.561c0-5.017-1.561-7.585-4.248-7.585
		C398.024,405.916,396.512,408.484,396.512,413.453z"/>
	<path fill="#231815" d="M419.816,413.621c0,5.304-1.943,8.473-5.424,8.473c-3.505,0-5.448-3.192-5.448-8.617
		c0-5.568,1.896-8.616,5.616-8.616C417.968,404.86,419.816,408.076,419.816,413.621z M410.192,413.453
		c0,5.064,1.487,7.608,4.152,7.608c2.664,0,4.248-2.593,4.248-7.561c0-5.017-1.561-7.585-4.248-7.585
		C411.703,405.916,410.192,408.484,410.192,413.453z"/>
	<path fill="#231815" d="M433.495,413.621c0,5.304-1.943,8.473-5.424,8.473c-3.505,0-5.448-3.192-5.448-8.617
		c0-5.568,1.896-8.616,5.616-8.616C431.648,404.86,433.495,408.076,433.495,413.621z M423.871,413.453
		c0,5.064,1.487,7.608,4.152,7.608c2.664,0,4.248-2.593,4.248-7.561c0-5.017-1.561-7.585-4.248-7.585
		C425.383,405.916,423.871,408.484,423.871,413.453z"/>
</g>
</svg>
