<?xml version="1.0" encoding="utf-8"?>
<!-- Generator: Adobe Illustrator 21.1.0, SVG Export Plug-In . SVG Version: 6.00 Build 0)  -->
<svg version="1.1" id="レイヤー_1" xmlns="http://www.w3.org/2000/svg" xmlns:xlink="http://www.w3.org/1999/xlink" x="0px"
	 y="0px" viewBox="0 0 141.732 141.732" enable-background="new 0 0 141.732 141.732" xml:space="preserve">
<g>
	<path fill="#9FA0A0" d="M69.87,70.826L42.386,21.244c8.763-4.857,17.465-7.108,27.484-7.108V70.826z"/>
	<path fill="#727171" d="M69.87,70.826L15.955,53.308c4.644-14.293,13.287-24.778,26.431-32.064L69.87,70.826z"/>
	<path fill="#595757" d="M69.87,70.826l30.875,47.544c-26.258,17.052-61.367,9.589-78.419-16.669
		c-9.549-14.704-11.789-31.719-6.371-48.393L69.87,70.826z"/>
	<path fill="#3E3A39" d="M69.87,70.826v-56.69c31.309,0,56.69,25.381,56.69,56.69c0,20.038-9.009,36.631-25.814,47.544L69.87,70.826
		z"/>
</g>
<g>
	<path fill="#FFFFFF" d="M94.985,70.317h0.949v1.059h-0.949v1.43h-1.329v-1.43h-3.229v-1.119l2.858-4.428h1.699V70.317z
		 M93.686,69.138c0-0.59,0.01-1.499,0.04-2.278h-0.021c-0.26,0.51-0.75,1.339-0.989,1.719l-1.079,1.739h2.049V69.138z"/>
	<path fill="#FFFFFF" d="M100.305,72.806h-1.419v-3.648c0-0.589,0.02-1.539,0.04-1.908h-0.021c-0.16,0.159-0.489,0.439-0.85,0.729
		l-0.359,0.29l-0.689-0.939l2.028-1.5h1.27V72.806z"/>
</g>
<g>
	<path fill="#FFFFFF" d="M93.136,57.328c0.05-0.029,0.07-0.024,0.104,0.005c0.08,0.065,0.221,0.206,0.311,0.326
		c0.035,0.045,0.021,0.06-0.024,0.095l-0.115,0.075c0.29,0,0.4-0.01,0.425-0.01c0.051,0,0.056,0.005,0.056,0.05v0.335
		c0,0.051-0.005,0.056-0.056,0.056c-0.029,0-0.195-0.011-0.67-0.011h-0.491c0.04,0.341,0.105,0.661,0.211,0.946
		c0.1-0.15,0.175-0.3,0.24-0.44c0.029-0.08,0.069-0.195,0.095-0.311c0.15,0.045,0.29,0.101,0.405,0.155
		c0.04,0.021,0.061,0.05,0.061,0.07c0,0.03-0.021,0.05-0.046,0.075c-0.029,0.029-0.05,0.06-0.1,0.15
		c-0.12,0.25-0.261,0.505-0.44,0.745c0.135,0.205,0.28,0.315,0.37,0.315c0.125,0,0.176-0.141,0.235-0.48
		c0.075,0.07,0.175,0.13,0.25,0.165c0.096,0.045,0.131,0.065,0.131,0.115c0,0.025-0.011,0.06-0.025,0.11
		c-0.125,0.42-0.29,0.605-0.575,0.605c-0.24,0-0.491-0.17-0.706-0.461c-0.115,0.115-0.24,0.23-0.381,0.331
		c-0.06,0.04-0.095,0.064-0.12,0.064c-0.029,0-0.055-0.03-0.109-0.095c-0.061-0.065-0.105-0.11-0.165-0.16
		c-0.006,0.025-0.021,0.025-0.056,0.025s-0.13-0.011-0.425-0.011h-0.471c-0.296,0-0.391,0.011-0.426,0.011
		c-0.05,0-0.055-0.006-0.055-0.056c0-0.035,0.01-0.11,0.01-0.32v-0.33c0-0.21-0.01-0.285-0.01-0.32c0-0.05,0.005-0.056,0.055-0.056
		c0.035,0,0.13,0.011,0.426,0.011h0.471c0.295,0,0.39-0.011,0.425-0.011c0.05,0,0.056,0.006,0.056,0.056
		c0,0.03-0.011,0.11-0.011,0.32v0.33c0,0.15,0.005,0.23,0.005,0.275c0.216-0.13,0.396-0.28,0.551-0.445
		c-0.185-0.386-0.29-0.891-0.355-1.382h-1.781v0.336c0,0.275-0.035,0.75-0.09,1.006c-0.07,0.315-0.16,0.586-0.336,0.876
		c-0.04,0.069-0.06,0.1-0.09,0.1c-0.021,0-0.05-0.024-0.105-0.075c-0.109-0.1-0.22-0.17-0.32-0.215
		c0.2-0.275,0.296-0.495,0.36-0.796c0.065-0.275,0.096-0.601,0.096-1.065c0-0.351-0.011-0.516-0.011-0.546
		c0-0.045,0.006-0.05,0.061-0.05c0.03,0,0.195,0.01,0.676,0.01h1.496c-0.02-0.181-0.03-0.365-0.06-0.511
		c0.175,0.005,0.36,0.021,0.505,0.035c0.051,0.005,0.075,0.025,0.075,0.055c0,0.035-0.015,0.065-0.024,0.091
		c-0.016,0.055-0.011,0.154-0.006,0.33h0.48c-0.074-0.096-0.175-0.205-0.229-0.261c-0.021-0.015-0.025-0.029-0.025-0.045
		c0-0.015,0.01-0.035,0.04-0.05L93.136,57.328z M89.587,61.538c-0.06-0.035-0.06-0.056-0.03-0.096
		c0.206-0.23,0.391-0.54,0.506-0.836c0.021-0.055,0.03-0.055,0.101-0.024l0.295,0.13c0.065,0.03,0.07,0.04,0.055,0.09
		c-0.13,0.33-0.3,0.626-0.51,0.901c-0.03,0.04-0.046,0.04-0.101,0.01L89.587,61.538z M91.57,58.484c0.3,0,0.42-0.01,0.45-0.01
		c0.045,0,0.05,0.005,0.05,0.06v0.291c0,0.05-0.005,0.055-0.05,0.055c-0.03,0-0.15-0.01-0.45-0.01h-0.511
		c-0.295,0-0.415,0.01-0.445,0.01c-0.05,0-0.056-0.005-0.056-0.055v-0.291c0-0.055,0.006-0.06,0.056-0.06
		c0.03,0,0.15,0.01,0.445,0.01H91.57z M91.214,61.147c0,0.1,0.02,0.165,0.08,0.2c0.08,0.04,0.295,0.045,0.505,0.045
		c0.366,0,0.506,0.005,0.611-0.056c0.085-0.045,0.125-0.189,0.13-0.43c0.1,0.064,0.215,0.109,0.36,0.15
		c0.13,0.039,0.13,0.039,0.115,0.175c-0.04,0.275-0.136,0.41-0.275,0.49c-0.186,0.101-0.461,0.12-0.981,0.12
		c-0.44,0-0.721-0.025-0.865-0.1c-0.115-0.065-0.186-0.171-0.186-0.436v-0.44c0-0.141,0-0.235-0.024-0.381
		c0.165,0,0.35,0.011,0.495,0.03c0.06,0.01,0.09,0.025,0.09,0.045c0,0.03-0.005,0.045-0.024,0.085
		c-0.021,0.045-0.03,0.096-0.03,0.181V61.147z M91.584,59.45h-0.596v0.365h0.596V59.45z M91.74,60.307
		c0.05-0.035,0.065-0.035,0.105-0.005c0.189,0.154,0.32,0.3,0.47,0.495c0.03,0.035,0.035,0.045-0.015,0.08l-0.261,0.2
		c-0.029,0.025-0.05,0.035-0.064,0.035c-0.016,0-0.025-0.01-0.04-0.035c-0.13-0.195-0.275-0.36-0.436-0.521
		c-0.04-0.04-0.04-0.045,0.02-0.09L91.74,60.307z M93.287,60.507c0.029-0.016,0.045-0.025,0.06-0.025s0.025,0.01,0.045,0.03
		c0.235,0.255,0.426,0.525,0.591,0.836c0.025,0.05,0.025,0.06-0.04,0.1l-0.311,0.19c-0.064,0.04-0.08,0.045-0.1-0.005
		c-0.141-0.33-0.306-0.605-0.536-0.866c-0.04-0.04-0.035-0.055,0.025-0.09L93.287,60.507z"/>
	<path fill="#FFFFFF" d="M95.589,57.659c0.085,0.02,0.12,0.045,0.12,0.095c0,0.055-0.03,0.115-0.05,0.165
		c-0.025,0.07-0.046,0.226-0.07,0.61c-0.056,0.871-0.075,1.332-0.075,1.922c0,0.541,0.06,0.636,0.46,0.636
		c0.446,0,1.142-0.27,1.752-0.921c0.021,0.19,0.065,0.355,0.115,0.476c0.025,0.055,0.04,0.09,0.04,0.12
		c0,0.045-0.02,0.085-0.1,0.155c-0.541,0.495-1.247,0.751-1.897,0.751c-0.641,0-0.94-0.256-0.94-1.021
		c0-0.841,0.045-1.562,0.069-2.162c0.011-0.295,0.025-0.615-0.05-0.916C95.194,57.594,95.434,57.619,95.589,57.659z M97.106,57.989
		c0.024-0.021,0.045-0.016,0.075,0.01c0.154,0.12,0.335,0.32,0.475,0.535c0.021,0.03,0.021,0.056-0.015,0.08l-0.21,0.155
		c-0.035,0.025-0.061,0.021-0.085-0.015c-0.15-0.23-0.311-0.42-0.506-0.58L97.106,57.989z M97.551,57.664
		c0.03-0.021,0.045-0.016,0.075,0.01c0.185,0.14,0.365,0.341,0.476,0.516c0.02,0.03,0.024,0.06-0.016,0.09l-0.2,0.155
		c-0.04,0.03-0.064,0.015-0.085-0.015c-0.135-0.216-0.295-0.405-0.5-0.576L97.551,57.664z"/>
	<path fill="#FFFFFF" d="M101.145,58.22c0.055-0.016,0.075,0.01,0.08,0.05c0.015,0.11,0.03,0.255,0.035,0.36
		c0.005,0.064-0.01,0.08-0.075,0.095c-0.311,0.085-0.565,0.141-0.871,0.19c-0.34,1.111-0.596,1.877-0.916,2.708
		c-0.024,0.069-0.055,0.064-0.109,0.05c-0.051-0.021-0.296-0.125-0.4-0.186c-0.04-0.024-0.056-0.064-0.04-0.1
		c0.38-0.876,0.62-1.537,0.865-2.373c-0.29,0.03-0.641,0.056-0.876,0.056c-0.075,0-0.095-0.015-0.104-0.08
		c-0.021-0.105-0.045-0.275-0.07-0.456c0.105,0.016,0.165,0.016,0.37,0.016c0.25,0,0.521-0.016,0.811-0.05
		c0.051-0.2,0.091-0.421,0.126-0.626c0.02-0.15,0.029-0.301,0.029-0.461c0.266,0.041,0.471,0.075,0.631,0.141
		c0.04,0.015,0.055,0.05,0.055,0.08c0,0.02,0,0.045-0.024,0.08c-0.04,0.07-0.08,0.12-0.105,0.2c-0.05,0.181-0.085,0.351-0.12,0.476
		C100.629,58.354,100.9,58.289,101.145,58.22z M100.95,60.611c0.05,0,0.07,0.021,0.075,0.07c0.04,0.365,0.285,0.471,0.766,0.471
		c0.28,0,0.641-0.045,0.841-0.07c0.04-0.005,0.055,0.005,0.061,0.045c0.02,0.13,0.04,0.301,0.04,0.436
		c0.005,0.061,0,0.075-0.08,0.08c-0.171,0.025-0.496,0.056-0.681,0.056c-0.656,0-0.996-0.091-1.222-0.326
		c-0.16-0.16-0.215-0.395-0.226-0.686C100.679,60.646,100.884,60.611,100.95,60.611z M100.895,59.285c0-0.069,0.015-0.085,0.09-0.1
		c0.315-0.065,0.686-0.115,0.976-0.115c0.195,0,0.411,0.02,0.586,0.05c0.07,0.01,0.085,0.016,0.085,0.075
		c0.01,0.125,0.01,0.266,0.005,0.4c0,0.085-0.024,0.105-0.095,0.09c-0.176-0.035-0.405-0.06-0.621-0.06
		c-0.3,0-0.681,0.05-1.006,0.115C100.905,59.565,100.895,59.386,100.895,59.285z"/>
</g>
<g>
	<path fill="#FFFFFF" d="M47.182,103.585v-1.039c0.109,0.01,0.229,0.02,0.339,0.02c1.18,0,1.85-0.31,1.85-0.999
		c0-0.62-0.54-0.96-1.34-0.96c-0.56,0-1.119,0.12-1.608,0.35l-0.09-1.099c0.579-0.221,1.279-0.3,1.898-0.3
		c1.569,0,2.519,0.68,2.519,1.818c0,0.93-0.659,1.489-1.659,1.619v0.03c1.05,0.109,1.749,0.76,1.749,1.709
		c0,1.26-1.189,2.039-2.878,2.039c-0.609,0-1.22-0.07-1.829-0.26l0.07-1.17c0.609,0.24,1.149,0.36,1.688,0.36
		c0.88,0,1.529-0.32,1.529-1.069c0-0.75-0.689-1.06-1.889-1.06C47.452,103.575,47.301,103.575,47.182,103.585z"/>
	<path fill="#FFFFFF" d="M52.422,105.414c0.43,0.2,0.89,0.31,1.369,0.31c1.279,0,1.898-0.89,1.929-2.349h-0.02
		c-0.36,0.52-0.99,0.779-1.619,0.779c-1.27,0-2.119-0.829-2.119-2.158c0-1.39,0.939-2.438,2.538-2.438
		c1.709,0,2.569,1.179,2.569,3.357c0,2.479-1.16,3.858-3.198,3.858c-0.59,0-1.16-0.09-1.579-0.25L52.422,105.414z M55.61,101.916
		c0-0.77-0.459-1.379-1.119-1.379c-0.76,0-1.14,0.64-1.14,1.358c0,0.75,0.4,1.25,1.13,1.25
		C55.14,103.145,55.61,102.626,55.61,101.916z"/>
</g>
<g>
	<path fill="#FFFFFF" d="M43.84,56.94h-1.42v-3.648c0-0.589,0.021-1.539,0.04-1.908h-0.02c-0.16,0.159-0.49,0.439-0.85,0.729
		l-0.36,0.29l-0.689-0.939l2.029-1.5h1.27V56.94z"/>
	<path fill="#FFFFFF" d="M46.352,50.254c0.56-0.26,1.309-0.409,2.078-0.409c1.29,0,2.389,0.649,2.389,2.019
		c0,0.88-0.409,1.669-1.698,2.878c-0.59,0.55-1.02,0.87-1.39,1.12v0.02c0.63-0.02,1.449-0.03,2.069-0.03h1.169v1.09h-4.758v-1.159
		c2.239-1.819,3.139-2.769,3.139-3.769c0-0.759-0.55-1.069-1.249-1.069c-0.51,0-1.05,0.15-1.609,0.47L46.352,50.254z"/>
</g>
<g>
	<path fill="#FFFFFF" d="M62.403,35.18c0,1.279-1.14,2.02-2.648,2.02c-1.539,0-2.599-0.72-2.599-1.939
		c0-0.839,0.489-1.419,1.529-1.829c-1.02-0.399-1.359-0.899-1.359-1.648c0-1.1,0.999-1.799,2.469-1.799
		c1.389,0,2.389,0.629,2.389,1.709c0,0.749-0.4,1.249-1.31,1.669C61.962,33.761,62.403,34.291,62.403,35.18z M58.565,35.17
		c0,0.649,0.499,1.04,1.209,1.04c0.689,0,1.239-0.391,1.239-1.02c0-0.63-0.439-0.989-1.359-1.279
		C58.934,34.171,58.565,34.57,58.565,35.17z M60.813,31.851c0-0.609-0.439-0.909-1.059-0.909c-0.6,0-1.1,0.32-1.1,0.869
		c0,0.601,0.479,0.91,1.229,1.17C60.513,32.712,60.813,32.342,60.813,31.851z"/>
</g>
<g>
	<path fill="#FFFFFF" d="M42.201,79.488c0.051-0.029,0.07-0.024,0.105,0.005c0.08,0.065,0.22,0.206,0.311,0.326
		c0.035,0.045,0.02,0.06-0.025,0.095l-0.115,0.075c0.29,0,0.4-0.01,0.426-0.01c0.05,0,0.055,0.005,0.055,0.05v0.335
		c0,0.051-0.005,0.056-0.055,0.056c-0.03,0-0.195-0.011-0.671-0.011h-0.49c0.04,0.341,0.104,0.661,0.21,0.946
		c0.101-0.15,0.175-0.3,0.24-0.44c0.03-0.08,0.07-0.195,0.095-0.311c0.15,0.045,0.291,0.101,0.406,0.155
		c0.04,0.021,0.06,0.05,0.06,0.07c0,0.03-0.02,0.05-0.045,0.075c-0.03,0.029-0.05,0.06-0.101,0.15c-0.12,0.25-0.26,0.505-0.44,0.745
		c0.136,0.205,0.28,0.315,0.371,0.315c0.125,0,0.175-0.141,0.235-0.48c0.074,0.07,0.175,0.13,0.25,0.165
		c0.095,0.045,0.13,0.065,0.13,0.115c0,0.025-0.01,0.06-0.025,0.11c-0.125,0.42-0.29,0.605-0.575,0.605
		c-0.24,0-0.49-0.17-0.706-0.461c-0.114,0.115-0.24,0.23-0.38,0.331c-0.061,0.04-0.095,0.064-0.12,0.064
		c-0.03,0-0.055-0.03-0.11-0.095c-0.06-0.065-0.104-0.11-0.165-0.16c-0.005,0.025-0.02,0.025-0.055,0.025s-0.131-0.011-0.426-0.011
		h-0.471c-0.295,0-0.39,0.011-0.425,0.011c-0.051,0-0.056-0.006-0.056-0.056c0-0.035,0.011-0.11,0.011-0.32v-0.33
		c0-0.21-0.011-0.285-0.011-0.32c0-0.05,0.005-0.056,0.056-0.056c0.035,0,0.13,0.011,0.425,0.011h0.471
		c0.295,0,0.391-0.011,0.426-0.011c0.05,0,0.055,0.006,0.055,0.056c0,0.03-0.01,0.11-0.01,0.32v0.33c0,0.15,0.005,0.23,0.005,0.275
		c0.215-0.13,0.396-0.28,0.551-0.445c-0.186-0.386-0.291-0.891-0.355-1.382h-1.782v0.336c0,0.275-0.035,0.75-0.09,1.006
		c-0.07,0.315-0.16,0.586-0.335,0.876c-0.04,0.069-0.061,0.1-0.091,0.1c-0.02,0-0.05-0.024-0.104-0.075
		c-0.11-0.1-0.221-0.17-0.32-0.215c0.2-0.275,0.295-0.495,0.36-0.796c0.064-0.275,0.095-0.601,0.095-1.065
		c0-0.351-0.01-0.516-0.01-0.546c0-0.045,0.005-0.05,0.06-0.05c0.03,0,0.195,0.01,0.676,0.01h1.497
		c-0.021-0.181-0.03-0.365-0.061-0.511c0.176,0.005,0.36,0.021,0.506,0.035c0.05,0.005,0.075,0.025,0.075,0.055
		c0,0.035-0.016,0.065-0.025,0.091c-0.015,0.055-0.01,0.154-0.005,0.33h0.48c-0.075-0.096-0.175-0.205-0.23-0.261
		c-0.02-0.015-0.024-0.029-0.024-0.045c0-0.015,0.01-0.035,0.04-0.05L42.201,79.488z M38.653,83.698
		c-0.061-0.035-0.061-0.056-0.03-0.096c0.205-0.23,0.391-0.54,0.506-0.836c0.02-0.055,0.029-0.055,0.1-0.024l0.295,0.13
		c0.065,0.03,0.07,0.04,0.056,0.09c-0.13,0.33-0.301,0.626-0.511,0.901c-0.03,0.04-0.045,0.04-0.1,0.01L38.653,83.698z
		 M40.634,80.644c0.301,0,0.421-0.01,0.45-0.01c0.046,0,0.051,0.005,0.051,0.06v0.291c0,0.05-0.005,0.055-0.051,0.055
		c-0.029,0-0.149-0.01-0.45-0.01h-0.511c-0.295,0-0.415,0.01-0.445,0.01c-0.05,0-0.055-0.005-0.055-0.055v-0.291
		c0-0.055,0.005-0.06,0.055-0.06c0.03,0,0.15,0.01,0.445,0.01H40.634z M40.279,83.308c0,0.1,0.021,0.165,0.08,0.2
		c0.08,0.04,0.296,0.045,0.506,0.045c0.365,0,0.506,0.005,0.61-0.056c0.085-0.045,0.125-0.189,0.13-0.43
		c0.101,0.064,0.216,0.109,0.36,0.15c0.131,0.039,0.131,0.039,0.115,0.175c-0.04,0.275-0.135,0.41-0.275,0.49
		c-0.185,0.101-0.46,0.12-0.98,0.12c-0.44,0-0.721-0.025-0.866-0.1c-0.115-0.065-0.185-0.171-0.185-0.436v-0.44
		c0-0.141,0-0.235-0.025-0.381c0.165,0,0.351,0.011,0.495,0.03c0.061,0.01,0.091,0.025,0.091,0.045c0,0.03-0.005,0.045-0.025,0.085
		c-0.02,0.045-0.03,0.096-0.03,0.181V83.308z M40.65,81.61h-0.596v0.365h0.596V81.61z M40.804,82.467
		c0.051-0.035,0.065-0.035,0.105-0.005c0.19,0.154,0.32,0.3,0.471,0.495c0.03,0.035,0.035,0.045-0.016,0.08l-0.26,0.2
		c-0.03,0.025-0.05,0.035-0.065,0.035c-0.015,0-0.024-0.01-0.04-0.035c-0.13-0.195-0.275-0.36-0.436-0.521
		c-0.04-0.04-0.04-0.045,0.021-0.09L40.804,82.467z M42.351,82.667c0.03-0.016,0.045-0.025,0.061-0.025
		c0.015,0,0.024,0.01,0.045,0.03c0.235,0.255,0.425,0.525,0.59,0.836c0.025,0.05,0.025,0.06-0.04,0.1l-0.31,0.19
		c-0.065,0.04-0.08,0.045-0.101-0.005c-0.14-0.33-0.305-0.605-0.535-0.866c-0.04-0.04-0.035-0.055,0.024-0.09L42.351,82.667z"/>
	<path fill="#FFFFFF" d="M44.654,79.819c0.085,0.02,0.12,0.045,0.12,0.095c0,0.055-0.029,0.115-0.05,0.165
		c-0.025,0.07-0.045,0.226-0.07,0.61c-0.055,0.871-0.075,1.332-0.075,1.922c0,0.541,0.061,0.636,0.461,0.636
		c0.445,0,1.141-0.27,1.752-0.921c0.02,0.19,0.064,0.355,0.115,0.476c0.024,0.055,0.04,0.09,0.04,0.12
		c0,0.045-0.021,0.085-0.101,0.155c-0.54,0.495-1.246,0.751-1.896,0.751c-0.641,0-0.941-0.256-0.941-1.021
		c0-0.841,0.045-1.562,0.07-2.162c0.01-0.295,0.025-0.615-0.05-0.916C44.258,79.754,44.499,79.779,44.654,79.819z M46.17,80.149
		c0.025-0.021,0.045-0.016,0.075,0.01c0.155,0.12,0.335,0.32,0.476,0.535c0.02,0.03,0.02,0.056-0.015,0.08l-0.211,0.155
		c-0.035,0.025-0.06,0.021-0.085-0.015c-0.15-0.23-0.311-0.42-0.505-0.58L46.17,80.149z M46.616,79.824
		c0.03-0.021,0.045-0.016,0.075,0.01c0.186,0.14,0.365,0.341,0.476,0.516c0.021,0.03,0.025,0.06-0.015,0.09l-0.2,0.155
		c-0.04,0.03-0.065,0.015-0.085-0.015c-0.136-0.216-0.296-0.405-0.501-0.576L46.616,79.824z"/>
	<path fill="#FFFFFF" d="M49.24,81.581c0.28-0.16,0.515-0.226,0.795-0.226c0.731,0,1.241,0.48,1.241,1.201
		c0,0.836-0.675,1.371-1.746,1.371c-0.631,0-1.011-0.271-1.011-0.735c0-0.336,0.314-0.61,0.705-0.61c0.471,0,0.816,0.25,0.941,0.73
		c0.35-0.16,0.51-0.381,0.51-0.761c0-0.455-0.32-0.756-0.785-0.756c-0.416,0-0.876,0.186-1.281,0.53
		c-0.146,0.13-0.285,0.275-0.436,0.426c-0.035,0.035-0.061,0.055-0.085,0.055c-0.021,0-0.045-0.015-0.075-0.045
		c-0.105-0.09-0.215-0.22-0.295-0.325c-0.03-0.04-0.016-0.075,0.024-0.115c0.391-0.315,0.736-0.636,1.187-1.105
		c0.311-0.32,0.545-0.571,0.775-0.856c-0.3,0.056-0.655,0.125-0.966,0.19c-0.065,0.015-0.13,0.03-0.21,0.06
		c-0.025,0.011-0.075,0.025-0.101,0.025c-0.05,0-0.085-0.025-0.109-0.085c-0.061-0.115-0.105-0.256-0.176-0.541
		c0.15,0.021,0.315,0.021,0.466,0.011c0.305-0.03,0.745-0.096,1.136-0.171c0.125-0.024,0.226-0.05,0.275-0.074
		c0.025-0.016,0.07-0.041,0.095-0.041c0.051,0,0.08,0.016,0.115,0.041c0.15,0.114,0.251,0.215,0.336,0.32
		c0.04,0.045,0.055,0.08,0.055,0.119c0,0.051-0.03,0.096-0.085,0.121c-0.085,0.039-0.125,0.074-0.221,0.16
		c-0.365,0.354-0.7,0.705-1.081,1.07L49.24,81.581z M49.245,83.007c-0.146,0-0.24,0.085-0.24,0.19c0,0.155,0.135,0.261,0.436,0.261
		c0.09,0,0.154-0.006,0.229-0.021C49.605,83.162,49.455,83.007,49.245,83.007z"/>
	<path fill="#FFFFFF" d="M53.309,82.782c0,0.46,0.2,0.641,0.666,0.641c0.585,0,0.91-0.226,0.91-0.676c0-0.28-0.069-0.511-0.45-0.911
		c0.2,0.025,0.311,0,0.511-0.03c0.035-0.01,0.075-0.005,0.105,0.021c0.274,0.26,0.425,0.601,0.425,0.94
		c0,0.711-0.58,1.172-1.441,1.172c-0.886,0-1.261-0.4-1.261-1.132c0-0.104,0.015-0.245,0.035-0.47
		c-0.301-0.046-0.501-0.091-0.681-0.15c-0.035-0.01-0.051-0.035-0.056-0.096c-0.015-0.154-0.02-0.31-0.01-0.465
		c0.3,0.109,0.525,0.165,0.811,0.195c0.025-0.186,0.065-0.511,0.085-0.716c-0.35-0.045-0.53-0.075-0.721-0.141
		c-0.06-0.015-0.08-0.04-0.08-0.085c-0.005-0.12-0.015-0.285-0.015-0.465c0.34,0.109,0.58,0.154,0.906,0.189
		c0.04-0.29,0.055-0.425,0.064-0.575c0.01-0.141,0.01-0.285-0.005-0.421c0.23,0.03,0.49,0.096,0.601,0.141
		c0.07,0.025,0.11,0.07,0.11,0.115c0,0.035-0.016,0.064-0.04,0.095c-0.035,0.035-0.061,0.101-0.09,0.216
		c-0.025,0.114-0.056,0.285-0.08,0.47c0.2,0.016,0.405,0,0.615-0.03c0.035,0,0.05,0.025,0.05,0.061
		c0.005,0.12,0.005,0.26-0.01,0.375c0,0.056-0.021,0.07-0.08,0.075c-0.221,0.025-0.445,0.03-0.666,0.025
		c-0.029,0.175-0.08,0.516-0.109,0.716c0.265,0.005,0.47,0,0.71-0.016c0.065-0.01,0.08,0.011,0.08,0.056
		c0,0.09-0.01,0.271-0.024,0.375c-0.005,0.061-0.021,0.08-0.07,0.08c-0.25,0.021-0.511,0.021-0.766,0.015
		C53.314,82.571,53.309,82.691,53.309,82.782z"/>
	<path fill="#FFFFFF" d="M58.655,80.609c-0.115,0.852-0.325,1.632-0.625,2.157c-0.216,0.376-0.476,0.576-0.852,0.576
		c-0.44,0-0.886-0.471-0.886-1.287c0-0.48,0.205-0.94,0.565-1.301c0.421-0.42,0.951-0.641,1.627-0.641
		c1.201,0,1.907,0.74,1.907,1.736c0,0.932-0.525,1.517-1.542,1.822c-0.104,0.03-0.15,0.01-0.215-0.09
		c-0.056-0.086-0.16-0.2-0.351-0.315c0.846-0.2,1.512-0.551,1.512-1.497c0-0.596-0.45-1.161-1.121-1.161H58.655z M57.218,81.095
		c-0.24,0.271-0.39,0.606-0.39,0.927c0,0.46,0.185,0.716,0.34,0.716c0.13,0,0.24-0.065,0.376-0.306
		c0.22-0.405,0.445-1.126,0.53-1.792C57.724,80.71,57.444,80.85,57.218,81.095z"/>
	<path fill="#FFFFFF" d="M62.565,79.768c0.06,0.016,0.09,0.04,0.09,0.08c0,0.07-0.035,0.141-0.035,0.211
		c0,0.1,0.015,0.22,0.025,0.335c0.045,0.351,0.095,0.601,0.16,0.86c0.25-0.135,0.43-0.229,0.71-0.38
		c0.146-0.085,0.266-0.17,0.346-0.271c0.16,0.165,0.29,0.341,0.365,0.471c0.021,0.03,0.035,0.07,0.035,0.105
		c0,0.05-0.03,0.09-0.1,0.1c-0.15,0.025-0.32,0.085-0.48,0.15c-0.431,0.175-0.831,0.36-1.177,0.586
		c-0.436,0.285-0.591,0.52-0.591,0.755c0,0.296,0.221,0.421,0.796,0.421c0.631,0,1.142-0.045,1.526-0.115
		c0.056-0.01,0.08,0,0.091,0.061c0.024,0.135,0.04,0.314,0.05,0.465c0.005,0.055-0.03,0.08-0.09,0.085
		c-0.456,0.061-0.856,0.075-1.492,0.075c-0.945,0-1.446-0.311-1.446-0.961c0-0.556,0.365-0.921,0.951-1.291
		c-0.12-0.386-0.21-0.836-0.26-1.222c-0.035-0.265-0.07-0.44-0.131-0.58C62.149,79.709,62.379,79.724,62.565,79.768z"/>
	<path fill="#FFFFFF" d="M39.026,85.488c0.05-0.029,0.07-0.024,0.104,0.005c0.08,0.065,0.221,0.206,0.311,0.326
		c0.035,0.045,0.021,0.06-0.024,0.095l-0.115,0.075c0.29,0,0.4-0.01,0.425-0.01c0.051,0,0.056,0.005,0.056,0.05v0.335
		c0,0.051-0.005,0.056-0.056,0.056c-0.029,0-0.195-0.011-0.67-0.011h-0.491c0.04,0.341,0.105,0.661,0.211,0.946
		c0.1-0.15,0.175-0.3,0.24-0.44c0.029-0.08,0.069-0.195,0.095-0.311c0.15,0.045,0.29,0.101,0.405,0.155
		c0.04,0.021,0.061,0.05,0.061,0.07c0,0.03-0.021,0.05-0.046,0.075c-0.029,0.029-0.05,0.06-0.1,0.15
		c-0.12,0.25-0.261,0.505-0.44,0.745c0.135,0.205,0.28,0.315,0.37,0.315c0.125,0,0.176-0.141,0.235-0.48
		c0.075,0.07,0.175,0.13,0.25,0.165c0.096,0.045,0.131,0.065,0.131,0.115c0,0.025-0.011,0.06-0.025,0.11
		c-0.125,0.42-0.29,0.605-0.575,0.605c-0.24,0-0.491-0.17-0.706-0.461c-0.115,0.115-0.24,0.23-0.381,0.331
		c-0.06,0.04-0.095,0.064-0.12,0.064c-0.029,0-0.055-0.03-0.109-0.095c-0.061-0.065-0.105-0.11-0.165-0.16
		c-0.006,0.025-0.021,0.025-0.056,0.025s-0.13-0.011-0.425-0.011h-0.471c-0.296,0-0.391,0.011-0.426,0.011
		c-0.05,0-0.055-0.006-0.055-0.056c0-0.035,0.01-0.11,0.01-0.32v-0.33c0-0.21-0.01-0.285-0.01-0.32c0-0.05,0.005-0.056,0.055-0.056
		c0.035,0,0.13,0.011,0.426,0.011h0.471c0.295,0,0.39-0.011,0.425-0.011c0.05,0,0.056,0.006,0.056,0.056
		c0,0.03-0.011,0.11-0.011,0.32v0.33c0,0.15,0.005,0.23,0.005,0.275c0.216-0.13,0.396-0.28,0.551-0.445
		c-0.185-0.386-0.29-0.891-0.355-1.382h-1.781v0.336c0,0.275-0.035,0.75-0.09,1.006c-0.07,0.315-0.16,0.586-0.336,0.876
		c-0.04,0.069-0.06,0.1-0.09,0.1c-0.021,0-0.05-0.024-0.105-0.075c-0.109-0.1-0.22-0.17-0.32-0.215
		c0.2-0.275,0.296-0.495,0.36-0.796c0.065-0.275,0.096-0.601,0.096-1.065c0-0.351-0.011-0.516-0.011-0.546
		c0-0.045,0.006-0.05,0.061-0.05c0.03,0,0.195,0.01,0.676,0.01h1.496c-0.02-0.181-0.03-0.365-0.06-0.511
		c0.175,0.005,0.36,0.021,0.505,0.035c0.051,0.005,0.075,0.025,0.075,0.055c0,0.035-0.015,0.065-0.024,0.091
		c-0.016,0.055-0.011,0.154-0.006,0.33h0.48c-0.074-0.096-0.175-0.205-0.229-0.261c-0.021-0.015-0.025-0.029-0.025-0.045
		c0-0.015,0.01-0.035,0.04-0.05L39.026,85.488z M35.477,89.698c-0.06-0.035-0.06-0.056-0.03-0.096
		c0.206-0.23,0.391-0.54,0.506-0.836c0.021-0.055,0.03-0.055,0.101-0.024l0.295,0.13c0.065,0.03,0.07,0.04,0.055,0.09
		c-0.13,0.33-0.3,0.626-0.51,0.901c-0.03,0.04-0.046,0.04-0.101,0.01L35.477,89.698z M37.459,86.644c0.3,0,0.42-0.01,0.45-0.01
		c0.045,0,0.05,0.005,0.05,0.06v0.291c0,0.05-0.005,0.055-0.05,0.055c-0.03,0-0.15-0.01-0.45-0.01h-0.511
		c-0.295,0-0.415,0.01-0.445,0.01c-0.05,0-0.056-0.005-0.056-0.055v-0.291c0-0.055,0.006-0.06,0.056-0.06
		c0.03,0,0.15,0.01,0.445,0.01H37.459z M37.104,89.308c0,0.1,0.02,0.165,0.08,0.2c0.08,0.04,0.295,0.045,0.505,0.045
		c0.366,0,0.506,0.005,0.611-0.056c0.085-0.045,0.125-0.189,0.13-0.43c0.1,0.064,0.215,0.109,0.36,0.15
		c0.13,0.039,0.13,0.039,0.115,0.175c-0.04,0.275-0.136,0.41-0.275,0.49c-0.186,0.101-0.461,0.12-0.981,0.12
		c-0.44,0-0.721-0.025-0.865-0.1c-0.115-0.065-0.186-0.171-0.186-0.436v-0.44c0-0.141,0-0.235-0.024-0.381
		c0.165,0,0.35,0.011,0.495,0.03c0.06,0.01,0.09,0.025,0.09,0.045c0,0.03-0.005,0.045-0.024,0.085
		c-0.021,0.045-0.03,0.096-0.03,0.181V89.308z M37.474,87.61h-0.596v0.365h0.596V87.61z M37.629,88.467
		c0.05-0.035,0.065-0.035,0.105-0.005c0.189,0.154,0.32,0.3,0.47,0.495c0.03,0.035,0.035,0.045-0.015,0.08l-0.261,0.2
		c-0.029,0.025-0.05,0.035-0.064,0.035c-0.016,0-0.025-0.01-0.04-0.035c-0.13-0.195-0.275-0.36-0.436-0.521
		c-0.04-0.04-0.04-0.045,0.02-0.09L37.629,88.467z M39.176,88.667c0.029-0.016,0.045-0.025,0.06-0.025s0.025,0.01,0.045,0.03
		c0.235,0.255,0.426,0.525,0.591,0.836c0.025,0.05,0.025,0.06-0.04,0.1l-0.311,0.19c-0.064,0.04-0.08,0.045-0.1-0.005
		c-0.141-0.33-0.306-0.605-0.536-0.866c-0.04-0.04-0.035-0.055,0.025-0.09L39.176,88.667z"/>
	<path fill="#FFFFFF" d="M41.479,85.819c0.085,0.02,0.12,0.045,0.12,0.095c0,0.055-0.03,0.115-0.05,0.165
		c-0.025,0.07-0.046,0.226-0.07,0.61c-0.056,0.871-0.075,1.332-0.075,1.922c0,0.541,0.06,0.636,0.46,0.636
		c0.446,0,1.142-0.27,1.752-0.921c0.021,0.19,0.065,0.355,0.115,0.476c0.025,0.055,0.04,0.09,0.04,0.12
		c0,0.045-0.02,0.085-0.1,0.155c-0.541,0.495-1.247,0.751-1.897,0.751c-0.641,0-0.94-0.256-0.94-1.021
		c0-0.841,0.045-1.562,0.069-2.162c0.011-0.295,0.025-0.615-0.05-0.916C41.084,85.754,41.324,85.779,41.479,85.819z M42.996,86.149
		c0.024-0.021,0.045-0.016,0.075,0.01c0.154,0.12,0.335,0.32,0.475,0.535c0.021,0.03,0.021,0.056-0.015,0.08l-0.21,0.155
		c-0.035,0.025-0.061,0.021-0.085-0.015c-0.15-0.23-0.311-0.42-0.506-0.58L42.996,86.149z M43.441,85.824
		c0.03-0.021,0.045-0.016,0.075,0.01c0.185,0.14,0.365,0.341,0.476,0.516c0.02,0.03,0.024,0.06-0.016,0.09l-0.2,0.155
		c-0.04,0.03-0.064,0.015-0.085-0.015c-0.135-0.216-0.295-0.405-0.5-0.576L43.441,85.824z"/>
	<path fill="#FFFFFF" d="M46.764,86.359c0.046-0.015,0.065-0.015,0.075,0.04c0.025,0.125,0.04,0.275,0.045,0.405
		c0,0.045-0.02,0.056-0.06,0.061c-0.271,0.055-0.516,0.09-0.826,0.135c-0.32,0.846-0.615,1.536-0.976,2.147
		c-0.021,0.035-0.035,0.05-0.055,0.05c-0.016,0-0.035-0.01-0.061-0.025c-0.115-0.069-0.26-0.175-0.346-0.255
		c-0.024-0.02-0.034-0.035-0.034-0.055c0-0.016,0.005-0.035,0.024-0.061c0.376-0.62,0.641-1.146,0.866-1.746
		c-0.19,0.01-0.346,0.01-0.501,0.01c-0.109,0-0.149,0-0.275-0.005c-0.05,0-0.06-0.016-0.069-0.08
		c-0.025-0.096-0.04-0.261-0.051-0.426c0.206,0.015,0.32,0.021,0.466,0.021c0.195,0,0.346-0.006,0.575-0.025
		c0.061-0.21,0.096-0.381,0.131-0.561c0.029-0.176,0.029-0.25,0.029-0.405c0.216,0.03,0.431,0.06,0.586,0.104
		c0.05,0.011,0.08,0.04,0.08,0.075c0,0.04-0.015,0.065-0.045,0.096c-0.03,0.04-0.05,0.085-0.08,0.185
		c-0.035,0.12-0.075,0.275-0.12,0.426C46.339,86.449,46.57,86.404,46.764,86.359z M46.905,87.701
		c-0.005-0.136-0.01-0.216-0.04-0.355c0.245,0.024,0.375,0.045,0.546,0.095c0.045,0.01,0.069,0.035,0.069,0.08
		c0,0.01-0.01,0.045-0.029,0.105c-0.021,0.06-0.025,0.12-0.021,0.205c0,0.295,0.015,0.511,0.055,0.851
		c0.36,0.146,0.606,0.255,0.901,0.466c0.05,0.035,0.055,0.055,0.03,0.104c-0.075,0.155-0.146,0.28-0.23,0.405
		c-0.015,0.025-0.03,0.035-0.045,0.035c-0.016,0-0.03-0.01-0.05-0.029c-0.221-0.19-0.406-0.301-0.611-0.421
		c0,0.501-0.36,0.73-0.931,0.73c-0.551,0-0.921-0.28-0.921-0.71c0-0.436,0.36-0.731,0.926-0.731c0.096,0,0.235,0.005,0.396,0.03
		C46.919,88.241,46.91,87.936,46.905,87.701z M46.549,88.962c-0.25,0-0.445,0.101-0.445,0.29c0,0.16,0.14,0.24,0.426,0.24
		c0.27,0,0.435-0.145,0.435-0.354c0-0.046,0-0.07-0.005-0.101C46.839,88.997,46.705,88.962,46.549,88.962z M47.48,86.555
		c0.03-0.05,0.056-0.055,0.105-0.035c0.295,0.08,0.69,0.28,0.98,0.471c0.03,0.02,0.046,0.035,0.046,0.055
		c0,0.016-0.006,0.035-0.021,0.061c-0.05,0.11-0.14,0.265-0.21,0.37c-0.016,0.025-0.03,0.035-0.045,0.035
		c-0.016,0-0.025-0.005-0.045-0.021c-0.296-0.2-0.656-0.42-1.036-0.545C47.34,86.795,47.416,86.644,47.48,86.555z"/>
	<path fill="#FFFFFF" d="M50.058,86.364c0.045,0.021,0.08,0.056,0.08,0.09c0,0.03-0.016,0.08-0.04,0.141
		c-0.021,0.061-0.045,0.275-0.045,0.49c0,0.32,0.01,0.681,0.09,1.142c0.07,0.396,0.2,0.735,0.41,0.735
		c0.16,0,0.285-0.175,0.48-0.695c0.11,0.175,0.221,0.29,0.32,0.385c0.061,0.056,0.061,0.115,0.035,0.186
		c-0.19,0.511-0.5,0.781-0.851,0.781c-0.391,0-0.801-0.461-0.937-1.307c-0.08-0.476-0.12-0.996-0.12-1.457
		c0-0.274-0.01-0.425-0.06-0.655C49.663,86.229,49.908,86.289,50.058,86.364z M52.38,86.68c0.02-0.01,0.04-0.02,0.055-0.02
		c0.021,0,0.035,0.01,0.056,0.029c0.455,0.396,0.855,1.087,0.98,1.712c0.015,0.065-0.015,0.085-0.055,0.11
		c-0.131,0.085-0.256,0.155-0.391,0.2c-0.061,0.02-0.095,0.005-0.105-0.055c-0.17-0.716-0.425-1.236-0.936-1.747
		C52.175,86.79,52.3,86.72,52.38,86.68z"/>
	<path fill="#FFFFFF" d="M55.44,88.782c0,0.46,0.2,0.641,0.665,0.641c0.586,0,0.911-0.226,0.911-0.676c0-0.28-0.07-0.511-0.45-0.911
		c0.2,0.025,0.31,0,0.51-0.03c0.035-0.01,0.075-0.005,0.105,0.021c0.275,0.26,0.426,0.601,0.426,0.94
		c0,0.711-0.581,1.172-1.441,1.172c-0.886,0-1.262-0.4-1.262-1.132c0-0.104,0.016-0.245,0.035-0.47c-0.3-0.046-0.5-0.091-0.681-0.15
		c-0.035-0.01-0.05-0.035-0.055-0.096c-0.016-0.154-0.021-0.31-0.011-0.465c0.301,0.109,0.526,0.165,0.812,0.195
		c0.024-0.186,0.064-0.511,0.085-0.716c-0.351-0.045-0.53-0.075-0.721-0.141c-0.061-0.015-0.08-0.04-0.08-0.085
		c-0.005-0.12-0.016-0.285-0.016-0.465c0.341,0.109,0.581,0.154,0.906,0.189c0.04-0.29,0.055-0.425,0.065-0.575
		c0.01-0.141,0.01-0.285-0.005-0.421c0.229,0.03,0.49,0.096,0.601,0.141c0.069,0.025,0.109,0.07,0.109,0.115
		c0,0.035-0.015,0.064-0.04,0.095c-0.035,0.035-0.06,0.101-0.09,0.216c-0.025,0.114-0.055,0.285-0.08,0.47
		c0.2,0.016,0.405,0,0.615-0.03c0.035,0,0.051,0.025,0.051,0.061c0.005,0.12,0.005,0.26-0.011,0.375c0,0.056-0.02,0.07-0.08,0.075
		c-0.22,0.025-0.445,0.03-0.665,0.025c-0.03,0.175-0.08,0.516-0.11,0.716c0.266,0.005,0.471,0,0.711-0.016
		c0.064-0.01,0.08,0.011,0.08,0.056c0,0.09-0.01,0.271-0.025,0.375c-0.005,0.061-0.02,0.08-0.07,0.08
		c-0.25,0.021-0.51,0.021-0.766,0.015C55.445,88.571,55.44,88.691,55.44,88.782z"/>
	<path fill="#FFFFFF" d="M60.785,86.609c-0.115,0.852-0.325,1.632-0.625,2.157c-0.216,0.376-0.476,0.576-0.852,0.576
		c-0.44,0-0.886-0.471-0.886-1.287c0-0.48,0.205-0.94,0.565-1.301c0.421-0.42,0.951-0.641,1.627-0.641
		c1.201,0,1.907,0.74,1.907,1.736c0,0.932-0.525,1.517-1.542,1.822c-0.104,0.03-0.15,0.01-0.215-0.09
		c-0.056-0.086-0.16-0.2-0.351-0.315c0.846-0.2,1.512-0.551,1.512-1.497c0-0.596-0.45-1.161-1.121-1.161H60.785z M59.348,87.095
		c-0.24,0.271-0.39,0.606-0.39,0.927c0,0.46,0.185,0.716,0.34,0.716c0.13,0,0.24-0.065,0.376-0.306
		c0.22-0.405,0.445-1.126,0.53-1.792C59.854,86.71,59.574,86.85,59.348,87.095z"/>
	<path fill="#FFFFFF" d="M64.659,86.249c0.025-0.149,0.05-0.345,0.05-0.555c0.261,0.055,0.4,0.09,0.601,0.165
		c0.051,0.015,0.08,0.055,0.08,0.1c0,0.025-0.01,0.05-0.034,0.075c-0.051,0.065-0.075,0.12-0.101,0.19
		c-0.065,0.205-0.115,0.39-0.18,0.601c0.135-0.016,0.285-0.021,0.4-0.021c0.465,0,0.715,0.325,0.715,0.966
		c0,0.541-0.1,1.207-0.27,1.566c-0.146,0.32-0.386,0.471-0.676,0.471c-0.24,0-0.41-0.024-0.521-0.075
		c-0.061-0.024-0.09-0.064-0.09-0.14c-0.016-0.16-0.025-0.301-0.096-0.466c0.226,0.105,0.421,0.13,0.576,0.13
		c0.165,0,0.24-0.06,0.32-0.265c0.104-0.28,0.194-0.756,0.194-1.246c0-0.351-0.064-0.461-0.285-0.461
		c-0.12,0-0.275,0.016-0.42,0.035c-0.33,0.961-0.616,1.651-1.006,2.353c-0.03,0.064-0.07,0.075-0.131,0.045
		c-0.09-0.045-0.285-0.165-0.345-0.221c-0.025-0.024-0.04-0.045-0.04-0.074c0-0.016,0.005-0.035,0.02-0.056
		c0.4-0.695,0.661-1.226,0.916-1.962c-0.195,0.03-0.355,0.061-0.49,0.085c-0.13,0.025-0.21,0.056-0.275,0.08
		c-0.07,0.025-0.13,0.016-0.16-0.064c-0.045-0.115-0.1-0.296-0.155-0.516c0.221,0,0.44-0.015,0.661-0.035
		c0.21-0.021,0.396-0.045,0.59-0.075C64.588,86.595,64.624,86.42,64.659,86.249z M66.641,86.585c0.035-0.021,0.06-0.01,0.095,0.024
		c0.341,0.32,0.646,0.736,0.831,1.217c0.02,0.045,0.015,0.069-0.021,0.1c-0.085,0.08-0.275,0.2-0.375,0.251
		c-0.05,0.024-0.101,0.02-0.115-0.041c-0.2-0.525-0.46-0.955-0.82-1.296C66.361,86.755,66.505,86.655,66.641,86.585z M66.776,85.884
		c0.025-0.02,0.045-0.015,0.075,0.01c0.155,0.121,0.335,0.32,0.476,0.536c0.02,0.03,0.02,0.055-0.016,0.08l-0.21,0.155
		c-0.035,0.024-0.06,0.02-0.085-0.016c-0.15-0.229-0.311-0.42-0.506-0.58L66.776,85.884z M67.221,85.559
		c0.03-0.02,0.045-0.015,0.075,0.01c0.186,0.141,0.365,0.341,0.476,0.516c0.02,0.03,0.025,0.061-0.015,0.091l-0.2,0.154
		c-0.04,0.03-0.065,0.016-0.086-0.015c-0.135-0.215-0.295-0.405-0.5-0.575L67.221,85.559z"/>
	<path fill="#FFFFFF" d="M47.004,91.724c0.061,0.021,0.09,0.051,0.09,0.09c0,0.035-0.005,0.056-0.024,0.08
		c-0.045,0.056-0.061,0.126-0.07,0.181c-0.015,0.09-0.025,0.165-0.04,0.25c0.461-0.045,0.815-0.1,1.302-0.21
		c0.06-0.015,0.074,0.005,0.085,0.05c0.024,0.105,0.05,0.23,0.05,0.341c0,0.064-0.05,0.09-0.105,0.1
		c-0.66,0.136-0.966,0.17-1.421,0.211c-0.021,0.21-0.03,0.33-0.035,0.505c0.195-0.065,0.521-0.104,0.766-0.11
		c0.03-0.08,0.08-0.225,0.085-0.365c0.181,0.056,0.376,0.136,0.445,0.186c0.061,0.04,0.091,0.08,0.091,0.11
		c0,0.02-0.011,0.04-0.03,0.06c-0.025,0.025-0.04,0.055-0.065,0.101c0.646,0.17,1.026,0.595,1.026,1.221
		c0,0.726-0.596,1.196-1.392,1.411c-0.11,0.03-0.165,0.016-0.22-0.095c-0.035-0.07-0.136-0.175-0.296-0.311
		c0.36-0.075,0.746-0.235,0.931-0.365c0.24-0.175,0.4-0.391,0.4-0.751c0-0.4-0.285-0.641-0.62-0.726
		c-0.29,0.551-0.586,0.946-0.946,1.312c0.025,0.09,0.056,0.146,0.091,0.226c0.029,0.064,0.01,0.09-0.04,0.125
		c-0.115,0.085-0.23,0.145-0.301,0.175c-0.05,0.025-0.07,0.025-0.1-0.025c-0.035-0.06-0.061-0.119-0.086-0.194
		c-0.354,0.245-0.615,0.36-0.87,0.36c-0.341,0-0.556-0.23-0.556-0.621c0-0.641,0.556-1.251,1.171-1.557
		c0.005-0.215,0.015-0.436,0.025-0.625c-0.296,0.01-0.431,0.005-0.516,0.005c-0.146,0-0.226,0-0.285-0.011
		c-0.056-0.005-0.085-0.029-0.091-0.114c-0.015-0.11-0.015-0.24-0.024-0.381c0.32,0.035,0.596,0.025,0.971,0.021
		c0.021-0.181,0.04-0.406,0.04-0.546c0-0.075-0.005-0.146-0.02-0.226C46.709,91.643,46.879,91.679,47.004,91.724z M45.673,94.936
		c0,0.121,0.075,0.19,0.165,0.19c0.141,0,0.325-0.09,0.581-0.29c-0.051-0.301-0.091-0.57-0.101-0.861
		C45.933,94.251,45.673,94.611,45.673,94.936z M47.45,93.636c-0.18,0.005-0.41,0.04-0.641,0.115c0.005,0.26,0.021,0.495,0.061,0.751
		C47.075,94.267,47.31,93.916,47.45,93.636z"/>
	<path fill="#FFFFFF" d="M50.549,93.536c0.615-0.206,1.101-0.306,1.461-0.306c0.681,0,1.142,0.445,1.142,1.071
		c0,0.51-0.24,0.865-0.716,1.121c-0.261,0.145-0.611,0.285-1.036,0.33c-0.09,0.015-0.13-0.005-0.165-0.07
		c-0.056-0.1-0.146-0.21-0.306-0.33c0.586-0.09,0.861-0.176,1.206-0.346c0.285-0.15,0.45-0.385,0.45-0.745
		c0-0.355-0.22-0.551-0.62-0.551c-0.346,0-0.871,0.17-1.416,0.391c-0.126,0.055-0.226,0.114-0.28,0.155
		c-0.04,0.034-0.07,0.05-0.101,0.05c-0.045,0-0.08-0.03-0.13-0.091c-0.115-0.145-0.19-0.32-0.271-0.485
		C50.018,93.69,50.263,93.626,50.549,93.536z"/>
	<path fill="#FFFFFF" d="M56.41,92.38c0.056-0.016,0.075,0.01,0.08,0.05c0.016,0.11,0.03,0.255,0.035,0.36
		c0.005,0.064-0.01,0.08-0.075,0.095c-0.31,0.085-0.565,0.141-0.87,0.19c-0.341,1.111-0.596,1.877-0.916,2.708
		c-0.025,0.069-0.056,0.064-0.11,0.05c-0.05-0.021-0.295-0.125-0.4-0.186c-0.04-0.024-0.055-0.064-0.04-0.1
		c0.381-0.876,0.621-1.537,0.866-2.373c-0.291,0.03-0.641,0.056-0.876,0.056c-0.075,0-0.096-0.015-0.105-0.08
		c-0.02-0.105-0.045-0.275-0.07-0.456c0.105,0.016,0.166,0.016,0.371,0.016c0.25,0,0.521-0.016,0.811-0.05
		c0.05-0.2,0.09-0.421,0.125-0.626c0.021-0.15,0.03-0.301,0.03-0.461c0.265,0.041,0.471,0.075,0.631,0.141
		c0.04,0.015,0.055,0.05,0.055,0.08c0,0.02,0,0.045-0.025,0.08c-0.04,0.07-0.08,0.12-0.104,0.2c-0.051,0.181-0.085,0.351-0.12,0.476
		C55.895,92.515,56.165,92.449,56.41,92.38z M56.215,94.771c0.05,0,0.069,0.021,0.074,0.07c0.04,0.365,0.286,0.471,0.767,0.471
		c0.28,0,0.641-0.045,0.841-0.07c0.04-0.005,0.055,0.005,0.06,0.045c0.021,0.13,0.04,0.301,0.04,0.436
		c0.005,0.061,0,0.075-0.08,0.08c-0.17,0.025-0.495,0.056-0.681,0.056c-0.655,0-0.996-0.091-1.221-0.326
		c-0.16-0.16-0.216-0.395-0.226-0.686C55.945,94.807,56.15,94.771,56.215,94.771z M56.16,93.445c0-0.069,0.016-0.085,0.09-0.1
		c0.315-0.065,0.687-0.115,0.977-0.115c0.195,0,0.41,0.02,0.585,0.05c0.07,0.01,0.086,0.016,0.086,0.075
		c0.01,0.125,0.01,0.266,0.005,0.4c0,0.085-0.025,0.105-0.096,0.09c-0.175-0.035-0.405-0.06-0.62-0.06
		c-0.301,0-0.681,0.05-1.006,0.115C56.169,93.726,56.16,93.546,56.16,93.445z"/>
</g>
<g>
	<path fill="#FFFFFF" d="M26.561,41.96c0.05-0.029,0.07-0.024,0.104,0.005c0.08,0.065,0.221,0.206,0.311,0.326
		c0.035,0.045,0.021,0.06-0.024,0.095l-0.115,0.075c0.29,0,0.4-0.01,0.425-0.01c0.051,0,0.056,0.005,0.056,0.05v0.335
		c0,0.051-0.005,0.056-0.056,0.056c-0.029,0-0.195-0.011-0.67-0.011H26.1c0.04,0.341,0.105,0.661,0.211,0.946
		c0.1-0.15,0.175-0.3,0.24-0.44c0.029-0.08,0.069-0.195,0.095-0.311c0.15,0.045,0.29,0.101,0.405,0.155
		c0.04,0.021,0.061,0.05,0.061,0.07c0,0.03-0.021,0.05-0.046,0.075c-0.029,0.029-0.05,0.06-0.1,0.15
		c-0.12,0.25-0.261,0.505-0.44,0.745c0.135,0.205,0.28,0.315,0.37,0.315c0.125,0,0.176-0.141,0.235-0.48
		c0.075,0.07,0.175,0.13,0.25,0.165c0.096,0.045,0.131,0.065,0.131,0.115c0,0.025-0.011,0.06-0.025,0.11
		c-0.125,0.42-0.29,0.605-0.575,0.605c-0.24,0-0.491-0.17-0.706-0.461c-0.115,0.115-0.24,0.23-0.381,0.331
		c-0.06,0.04-0.095,0.064-0.12,0.064c-0.029,0-0.055-0.03-0.109-0.095c-0.061-0.065-0.105-0.11-0.165-0.16
		c-0.006,0.025-0.021,0.025-0.056,0.025s-0.13-0.011-0.425-0.011h-0.471c-0.296,0-0.391,0.011-0.426,0.011
		c-0.05,0-0.055-0.006-0.055-0.056c0-0.035,0.01-0.11,0.01-0.32v-0.33c0-0.21-0.01-0.285-0.01-0.32c0-0.05,0.005-0.056,0.055-0.056
		c0.035,0,0.13,0.011,0.426,0.011h0.471c0.295,0,0.39-0.011,0.425-0.011c0.05,0,0.056,0.006,0.056,0.056
		c0,0.03-0.011,0.11-0.011,0.32v0.33c0,0.15,0.005,0.23,0.005,0.275c0.216-0.13,0.396-0.28,0.551-0.445
		c-0.185-0.386-0.29-0.891-0.355-1.382h-1.781v0.336c0,0.275-0.035,0.75-0.09,1.006c-0.07,0.315-0.16,0.586-0.336,0.876
		c-0.04,0.069-0.06,0.1-0.09,0.1c-0.021,0-0.05-0.024-0.105-0.075c-0.109-0.1-0.22-0.17-0.32-0.215
		c0.2-0.275,0.296-0.495,0.36-0.796c0.065-0.275,0.096-0.601,0.096-1.065c0-0.351-0.011-0.516-0.011-0.546
		c0-0.045,0.006-0.05,0.061-0.05c0.03,0,0.195,0.01,0.676,0.01h1.496c-0.02-0.181-0.03-0.365-0.06-0.511
		c0.175,0.005,0.36,0.021,0.505,0.035c0.051,0.005,0.075,0.025,0.075,0.055c0,0.035-0.015,0.065-0.024,0.091
		c-0.016,0.055-0.011,0.154-0.006,0.33h0.48c-0.074-0.096-0.175-0.205-0.229-0.261c-0.021-0.015-0.025-0.029-0.025-0.045
		c0-0.015,0.01-0.035,0.04-0.05L26.561,41.96z M23.012,46.17c-0.06-0.035-0.06-0.056-0.03-0.096c0.206-0.23,0.391-0.54,0.506-0.836
		c0.021-0.055,0.03-0.055,0.101-0.024l0.295,0.13c0.065,0.03,0.07,0.04,0.055,0.09c-0.13,0.33-0.3,0.626-0.51,0.901
		c-0.03,0.04-0.046,0.04-0.101,0.01L23.012,46.17z M24.995,43.116c0.3,0,0.42-0.01,0.45-0.01c0.045,0,0.05,0.005,0.05,0.06v0.291
		c0,0.05-0.005,0.055-0.05,0.055c-0.03,0-0.15-0.01-0.45-0.01h-0.511c-0.295,0-0.415,0.01-0.445,0.01
		c-0.05,0-0.056-0.005-0.056-0.055v-0.291c0-0.055,0.006-0.06,0.056-0.06c0.03,0,0.15,0.01,0.445,0.01H24.995z M24.639,45.779
		c0,0.1,0.02,0.165,0.08,0.2c0.08,0.04,0.295,0.045,0.505,0.045c0.366,0,0.506,0.005,0.611-0.056c0.085-0.045,0.125-0.189,0.13-0.43
		c0.1,0.064,0.215,0.109,0.36,0.15c0.13,0.039,0.13,0.039,0.115,0.175c-0.04,0.275-0.136,0.41-0.275,0.49
		c-0.186,0.101-0.461,0.12-0.981,0.12c-0.44,0-0.721-0.025-0.865-0.1c-0.115-0.065-0.186-0.171-0.186-0.436v-0.44
		c0-0.141,0-0.235-0.024-0.381c0.165,0,0.35,0.011,0.495,0.03c0.06,0.01,0.09,0.025,0.09,0.045c0,0.03-0.005,0.045-0.024,0.085
		c-0.021,0.045-0.03,0.096-0.03,0.181V45.779z M25.009,44.082h-0.596v0.365h0.596V44.082z M25.165,44.938
		c0.05-0.035,0.065-0.035,0.105-0.005c0.189,0.154,0.32,0.3,0.47,0.495c0.03,0.035,0.035,0.045-0.015,0.08l-0.261,0.2
		c-0.029,0.025-0.05,0.035-0.064,0.035c-0.016,0-0.025-0.01-0.04-0.035c-0.13-0.195-0.275-0.36-0.436-0.521
		c-0.04-0.04-0.04-0.045,0.02-0.09L25.165,44.938z M26.711,45.139c0.029-0.016,0.045-0.025,0.06-0.025s0.025,0.01,0.045,0.03
		c0.235,0.255,0.426,0.525,0.591,0.836c0.025,0.05,0.025,0.06-0.04,0.1l-0.311,0.19c-0.064,0.04-0.08,0.045-0.1-0.005
		c-0.141-0.33-0.306-0.605-0.536-0.866c-0.04-0.04-0.035-0.055,0.025-0.09L26.711,45.139z"/>
	<path fill="#FFFFFF" d="M29.014,42.291c0.085,0.02,0.12,0.045,0.12,0.095c0,0.055-0.03,0.115-0.05,0.165
		c-0.025,0.07-0.046,0.226-0.07,0.61c-0.056,0.871-0.075,1.332-0.075,1.922c0,0.541,0.06,0.636,0.46,0.636
		c0.446,0,1.142-0.27,1.752-0.921c0.021,0.19,0.065,0.355,0.115,0.476c0.025,0.055,0.04,0.09,0.04,0.12
		c0,0.045-0.02,0.085-0.1,0.155c-0.541,0.495-1.247,0.751-1.897,0.751c-0.641,0-0.94-0.256-0.94-1.021
		c0-0.841,0.045-1.562,0.069-2.162c0.011-0.295,0.025-0.615-0.05-0.916C28.619,42.226,28.859,42.251,29.014,42.291z M30.531,42.621
		c0.024-0.021,0.045-0.016,0.075,0.01c0.154,0.12,0.335,0.32,0.475,0.535c0.021,0.03,0.021,0.056-0.015,0.08l-0.21,0.155
		c-0.035,0.025-0.061,0.021-0.085-0.015c-0.15-0.23-0.311-0.42-0.506-0.58L30.531,42.621z M30.976,42.296
		c0.03-0.021,0.045-0.016,0.075,0.01c0.185,0.14,0.365,0.341,0.476,0.516c0.02,0.03,0.024,0.06-0.016,0.09l-0.2,0.155
		c-0.04,0.03-0.064,0.015-0.085-0.015c-0.135-0.216-0.295-0.405-0.5-0.576L30.976,42.296z"/>
	<path fill="#FFFFFF" d="M34.299,42.831c0.046-0.015,0.065-0.015,0.075,0.04c0.025,0.125,0.04,0.275,0.045,0.405
		c0,0.045-0.02,0.056-0.06,0.061c-0.271,0.055-0.516,0.09-0.826,0.135c-0.32,0.846-0.615,1.536-0.976,2.147
		c-0.021,0.035-0.035,0.05-0.055,0.05c-0.016,0-0.035-0.01-0.061-0.025c-0.115-0.069-0.26-0.175-0.346-0.255
		c-0.024-0.02-0.034-0.035-0.034-0.055c0-0.016,0.005-0.035,0.024-0.061c0.376-0.62,0.641-1.146,0.866-1.746
		c-0.19,0.01-0.346,0.01-0.501,0.01c-0.109,0-0.149,0-0.275-0.005c-0.05,0-0.06-0.016-0.069-0.08
		c-0.025-0.096-0.04-0.261-0.051-0.426c0.206,0.015,0.32,0.021,0.466,0.021c0.195,0,0.346-0.006,0.575-0.025
		c0.061-0.21,0.096-0.381,0.131-0.561c0.029-0.176,0.029-0.25,0.029-0.405c0.216,0.03,0.431,0.06,0.586,0.104
		c0.05,0.011,0.08,0.04,0.08,0.075c0,0.04-0.015,0.065-0.045,0.096c-0.03,0.04-0.05,0.085-0.08,0.185
		c-0.035,0.12-0.075,0.275-0.12,0.426C33.875,42.921,34.105,42.876,34.299,42.831z M34.44,44.173
		c-0.005-0.136-0.01-0.216-0.04-0.355c0.245,0.024,0.375,0.045,0.546,0.095c0.045,0.01,0.069,0.035,0.069,0.08
		c0,0.01-0.01,0.045-0.029,0.105c-0.021,0.06-0.025,0.12-0.021,0.205c0,0.295,0.015,0.511,0.055,0.851
		c0.36,0.146,0.606,0.255,0.901,0.466c0.05,0.035,0.055,0.055,0.03,0.104c-0.075,0.155-0.146,0.28-0.23,0.405
		c-0.015,0.025-0.03,0.035-0.045,0.035c-0.016,0-0.03-0.01-0.05-0.029c-0.221-0.19-0.406-0.301-0.611-0.421
		c0,0.501-0.36,0.73-0.931,0.73c-0.551,0-0.921-0.28-0.921-0.71c0-0.436,0.36-0.731,0.926-0.731c0.096,0,0.235,0.005,0.396,0.03
		C34.455,44.713,34.445,44.408,34.44,44.173z M34.084,45.434c-0.25,0-0.445,0.101-0.445,0.29c0,0.16,0.14,0.24,0.426,0.24
		c0.27,0,0.435-0.145,0.435-0.354c0-0.046,0-0.07-0.005-0.101C34.375,45.469,34.24,45.434,34.084,45.434z M35.015,43.026
		c0.03-0.05,0.056-0.055,0.105-0.035c0.295,0.08,0.69,0.28,0.98,0.471c0.03,0.02,0.046,0.035,0.046,0.055
		c0,0.016-0.006,0.035-0.021,0.061c-0.05,0.11-0.14,0.265-0.21,0.37c-0.016,0.025-0.03,0.035-0.045,0.035
		c-0.016,0-0.025-0.005-0.045-0.021c-0.296-0.2-0.656-0.42-1.036-0.545C34.876,43.267,34.951,43.116,35.015,43.026z"/>
	<path fill="#FFFFFF" d="M38.139,42.721c0.024-0.149,0.05-0.345,0.05-0.555c0.261,0.055,0.4,0.09,0.601,0.165
		c0.05,0.015,0.08,0.055,0.08,0.1c0,0.025-0.01,0.05-0.035,0.075c-0.05,0.065-0.075,0.12-0.1,0.19
		c-0.065,0.205-0.115,0.39-0.181,0.601c0.136-0.016,0.285-0.021,0.391-0.021c0.471,0,0.726,0.32,0.726,0.926
		c0,0.591-0.1,1.247-0.271,1.606c-0.145,0.32-0.385,0.471-0.676,0.471c-0.24,0-0.385-0.02-0.495-0.055
		c-0.06-0.021-0.09-0.065-0.09-0.141c-0.016-0.16-0.025-0.3-0.096-0.465c0.226,0.085,0.396,0.109,0.551,0.109
		c0.165,0,0.24-0.06,0.32-0.265c0.105-0.28,0.195-0.756,0.195-1.241c0-0.355-0.065-0.466-0.285-0.466
		c-0.12,0-0.275,0.016-0.421,0.035c-0.33,0.961-0.615,1.651-1.006,2.353c-0.029,0.064-0.069,0.075-0.13,0.045
		c-0.09-0.045-0.285-0.165-0.346-0.221c-0.024-0.024-0.04-0.045-0.04-0.074c0-0.016,0.006-0.035,0.021-0.056
		c0.4-0.695,0.66-1.226,0.916-1.962c-0.195,0.03-0.355,0.061-0.49,0.085c-0.131,0.025-0.211,0.056-0.275,0.08
		c-0.07,0.025-0.131,0.016-0.16-0.064c-0.045-0.115-0.101-0.296-0.155-0.516c0.22,0,0.44-0.015,0.66-0.035
		c0.211-0.021,0.396-0.045,0.591-0.075C38.069,43.066,38.104,42.892,38.139,42.721z M40.176,43.057
		c0.035-0.021,0.06-0.01,0.095,0.024c0.341,0.32,0.646,0.736,0.831,1.217c0.02,0.045,0.015,0.069-0.021,0.1
		c-0.085,0.08-0.275,0.2-0.375,0.251c-0.05,0.024-0.101,0.02-0.115-0.041c-0.2-0.525-0.46-0.955-0.82-1.296
		C39.896,43.226,40.041,43.127,40.176,43.057z"/>
	<path fill="#FFFFFF" d="M42.359,44.008c0.615-0.206,1.101-0.306,1.461-0.306c0.681,0,1.142,0.445,1.142,1.071
		c0,0.51-0.24,0.865-0.716,1.121c-0.261,0.145-0.611,0.285-1.036,0.33c-0.09,0.015-0.13-0.005-0.165-0.07
		c-0.056-0.1-0.146-0.21-0.306-0.33c0.586-0.09,0.861-0.176,1.206-0.346c0.285-0.15,0.45-0.385,0.45-0.745
		c0-0.355-0.22-0.551-0.62-0.551c-0.346,0-0.871,0.17-1.416,0.391c-0.126,0.055-0.226,0.114-0.28,0.155
		c-0.04,0.034-0.07,0.05-0.101,0.05c-0.045,0-0.08-0.03-0.13-0.091c-0.115-0.145-0.19-0.32-0.271-0.485
		C41.828,44.162,42.073,44.098,42.359,44.008z"/>
	<path fill="#FFFFFF" d="M48.219,42.851c0.056-0.016,0.075,0.01,0.08,0.05c0.016,0.11,0.03,0.255,0.035,0.36
		c0.005,0.064-0.01,0.08-0.075,0.095c-0.31,0.085-0.565,0.141-0.87,0.19c-0.341,1.111-0.596,1.877-0.916,2.708
		c-0.025,0.069-0.056,0.064-0.11,0.05c-0.05-0.021-0.295-0.125-0.4-0.186c-0.04-0.024-0.055-0.064-0.04-0.1
		c0.381-0.876,0.621-1.537,0.866-2.373c-0.291,0.03-0.641,0.056-0.876,0.056c-0.075,0-0.096-0.015-0.105-0.08
		c-0.02-0.105-0.045-0.275-0.07-0.456c0.105,0.016,0.166,0.016,0.371,0.016c0.25,0,0.521-0.016,0.811-0.05
		c0.05-0.2,0.09-0.421,0.125-0.626c0.021-0.15,0.03-0.301,0.03-0.461c0.265,0.041,0.471,0.075,0.631,0.141
		c0.04,0.015,0.055,0.05,0.055,0.08c0,0.02,0,0.045-0.025,0.08c-0.04,0.07-0.08,0.12-0.104,0.2c-0.051,0.181-0.085,0.351-0.12,0.476
		C47.705,42.986,47.974,42.921,48.219,42.851z M48.025,45.243c0.05,0,0.069,0.021,0.074,0.07c0.04,0.365,0.286,0.471,0.767,0.471
		c0.28,0,0.641-0.045,0.841-0.07c0.04-0.005,0.055,0.005,0.06,0.045c0.021,0.13,0.04,0.301,0.04,0.436
		c0.005,0.061,0,0.075-0.08,0.08c-0.17,0.025-0.495,0.056-0.681,0.056c-0.655,0-0.996-0.091-1.221-0.326
		c-0.16-0.16-0.216-0.395-0.226-0.686C47.754,45.278,47.959,45.243,48.025,45.243z M47.969,43.917c0-0.069,0.016-0.085,0.09-0.1
		c0.315-0.065,0.687-0.115,0.977-0.115c0.195,0,0.41,0.02,0.585,0.05c0.07,0.01,0.086,0.016,0.086,0.075
		c0.01,0.125,0.01,0.266,0.005,0.4c0,0.085-0.025,0.105-0.096,0.09c-0.175-0.035-0.405-0.06-0.62-0.06
		c-0.301,0-0.681,0.05-1.006,0.115C47.979,44.197,47.969,44.018,47.969,43.917z"/>
</g>
<g>
	<path fill="#FFFFFF" d="M47.504,24.503c0.45-0.371,0.91-0.586,1.436-0.586c0.756,0,1.247,0.516,1.247,1.271
		c0,0.771-0.471,1.301-1.332,1.611c-0.029,0.016-0.06,0.021-0.085,0.021c-0.05,0-0.095-0.025-0.13-0.07
		c-0.105-0.125-0.221-0.226-0.396-0.33c0.485-0.131,0.741-0.271,1.006-0.496c0.23-0.205,0.341-0.455,0.341-0.756
		c0-0.47-0.266-0.775-0.746-0.775c-0.46,0-0.851,0.22-1.341,0.641c0.005,0.641,0.02,1.246,0.029,1.922c0,0.04-0.024,0.06-0.064,0.06
		c-0.056,0.006-0.28,0.021-0.445,0.021c-0.046,0-0.061-0.021-0.056-0.07c0.005-0.511,0.016-1.036,0.025-1.546
		c-0.24,0.36-0.49,0.726-0.676,0.99c-0.025,0.03-0.045,0.051-0.07,0.051c-0.015,0-0.035-0.011-0.055-0.03
		c-0.115-0.101-0.21-0.195-0.306-0.301c-0.02-0.015-0.03-0.034-0.03-0.055s0.011-0.04,0.03-0.06c0.44-0.536,0.726-0.892,1.102-1.407
		c0-0.125,0-0.26,0.005-0.354c-0.146,0.045-0.381,0.114-0.57,0.185c-0.086,0.035-0.136,0.085-0.166,0.085
		c-0.034,0-0.069-0.029-0.1-0.09c-0.061-0.115-0.135-0.271-0.2-0.44c0.12-0.01,0.195-0.021,0.34-0.05
		c0.131-0.03,0.326-0.075,0.711-0.181c0.01-0.215,0.01-0.436,0.01-0.65c0-0.125-0.01-0.271-0.05-0.436
		c0.29,0.03,0.456,0.05,0.581,0.085c0.104,0.03,0.125,0.085,0.09,0.176c-0.025,0.06-0.04,0.135-0.05,0.215
		c-0.005,0.12-0.016,0.235-0.025,0.45c0.015-0.005,0.025-0.01,0.04-0.015c0.01-0.005,0.025-0.01,0.035-0.01
		c0.035,0,0.09,0.05,0.135,0.115c0.061,0.08,0.08,0.119,0.08,0.154s-0.01,0.056-0.085,0.141c-0.07,0.09-0.145,0.186-0.265,0.36
		V24.503z"/>
	<path fill="#FFFFFF" d="M52.324,23.326c0.025-0.149,0.051-0.345,0.051-0.556c0.26,0.056,0.4,0.091,0.601,0.166
		c0.05,0.015,0.08,0.055,0.08,0.1c0,0.025-0.011,0.05-0.035,0.075c-0.051,0.065-0.075,0.12-0.101,0.19
		c-0.064,0.205-0.115,0.391-0.18,0.601c0.135-0.016,0.285-0.021,0.39-0.021c0.471,0,0.727,0.32,0.727,0.926
		c0,0.591-0.101,1.246-0.271,1.607c-0.146,0.32-0.386,0.47-0.676,0.47c-0.24,0-0.386-0.02-0.495-0.055
		c-0.061-0.021-0.091-0.065-0.091-0.141c-0.015-0.16-0.024-0.3-0.095-0.465c0.226,0.085,0.396,0.11,0.551,0.11
		c0.165,0,0.24-0.061,0.32-0.266c0.104-0.28,0.195-0.756,0.195-1.241c0-0.355-0.065-0.466-0.286-0.466
		c-0.12,0-0.274,0.016-0.42,0.035c-0.33,0.961-0.615,1.651-1.006,2.353c-0.03,0.065-0.07,0.075-0.13,0.045
		c-0.091-0.045-0.286-0.165-0.346-0.22c-0.025-0.025-0.04-0.046-0.04-0.075c0-0.016,0.005-0.035,0.02-0.056
		c0.4-0.695,0.661-1.226,0.916-1.962c-0.195,0.03-0.355,0.061-0.49,0.085c-0.13,0.025-0.21,0.056-0.275,0.08
		c-0.07,0.025-0.13,0.016-0.16-0.064c-0.045-0.115-0.1-0.296-0.155-0.516c0.221,0,0.44-0.016,0.661-0.035
		c0.21-0.02,0.396-0.045,0.591-0.075C52.254,23.672,52.289,23.497,52.324,23.326z M54.361,23.662
		c0.035-0.021,0.061-0.011,0.096,0.024c0.34,0.32,0.646,0.736,0.83,1.217c0.021,0.045,0.016,0.07-0.02,0.1
		c-0.085,0.08-0.275,0.2-0.376,0.25c-0.05,0.025-0.1,0.021-0.114-0.039c-0.2-0.526-0.461-0.956-0.821-1.297
		C54.081,23.832,54.226,23.731,54.361,23.662z"/>
	<path fill="#FFFFFF" d="M56.724,23.947c0.055,0.024,0.08,0.055,0.08,0.095c0,0.025-0.011,0.051-0.025,0.075
		c-0.045,0.08-0.08,0.17-0.101,0.266c-0.05,0.255-0.1,0.625-0.12,0.911c0.461-0.466,1.062-0.791,1.672-0.791
		c0.73,0,1.166,0.425,1.166,1.07c0,0.546-0.325,0.906-0.756,1.121c-0.335,0.171-0.851,0.291-1.281,0.346
		c-0.109,0.016-0.154,0.01-0.2-0.064c-0.095-0.171-0.185-0.306-0.34-0.426c0.561-0.035,1.041-0.13,1.376-0.28
		c0.405-0.175,0.591-0.436,0.591-0.756c0-0.271-0.17-0.516-0.601-0.516c-0.44,0-0.971,0.285-1.441,0.761
		c-0.09,0.09-0.155,0.176-0.215,0.275c-0.03,0.05-0.051,0.05-0.115,0.035c-0.115-0.04-0.235-0.085-0.341-0.135
		c-0.05-0.021-0.069-0.03-0.069-0.101c0.029-0.581,0.095-1.171,0.154-1.616c0.021-0.15,0.046-0.28,0.046-0.451
		C56.398,23.822,56.609,23.882,56.724,23.947z M56.849,22.681c0.024-0.024,0.055-0.04,0.095-0.024
		c0.37,0.145,0.681,0.335,0.981,0.595c0.024,0.021,0.034,0.035,0.034,0.056c0,0.015-0.01,0.035-0.024,0.06
		c-0.065,0.105-0.17,0.251-0.256,0.351c-0.02,0.025-0.04,0.04-0.055,0.04c-0.02,0-0.035-0.01-0.06-0.035
		c-0.28-0.245-0.616-0.476-1.012-0.65C56.673,22.892,56.769,22.761,56.849,22.681z"/>
	<path fill="#FFFFFF" d="M62.344,23.436c0.046-0.015,0.065-0.015,0.075,0.04c0.025,0.125,0.04,0.275,0.045,0.405
		c0,0.045-0.02,0.056-0.06,0.061c-0.271,0.055-0.516,0.09-0.826,0.135c-0.32,0.846-0.615,1.537-0.976,2.147
		c-0.021,0.035-0.035,0.05-0.055,0.05c-0.016,0-0.035-0.01-0.061-0.025c-0.115-0.069-0.26-0.175-0.346-0.255
		c-0.024-0.021-0.034-0.035-0.034-0.055c0-0.016,0.005-0.035,0.024-0.061c0.376-0.62,0.641-1.146,0.866-1.747
		c-0.19,0.011-0.346,0.011-0.501,0.011c-0.109,0-0.149,0-0.275-0.005c-0.05,0-0.06-0.016-0.069-0.08
		c-0.025-0.096-0.04-0.261-0.051-0.426c0.206,0.015,0.32,0.02,0.466,0.02c0.195,0,0.346-0.005,0.575-0.024
		c0.061-0.21,0.096-0.381,0.131-0.561c0.029-0.175,0.029-0.25,0.029-0.405c0.216,0.029,0.431,0.06,0.586,0.104
		c0.05,0.011,0.08,0.04,0.08,0.075c0,0.04-0.015,0.065-0.045,0.096c-0.03,0.04-0.05,0.085-0.08,0.185
		c-0.035,0.12-0.075,0.275-0.12,0.426C61.919,23.526,62.15,23.481,62.344,23.436z M62.485,24.778
		c-0.005-0.136-0.01-0.216-0.04-0.355c0.245,0.024,0.375,0.045,0.546,0.095c0.045,0.01,0.069,0.035,0.069,0.08
		c0,0.01-0.01,0.045-0.029,0.105c-0.021,0.06-0.025,0.12-0.021,0.205c0,0.295,0.015,0.511,0.055,0.851
		c0.36,0.146,0.606,0.256,0.901,0.466c0.05,0.035,0.055,0.055,0.03,0.104c-0.075,0.155-0.146,0.28-0.23,0.406
		c-0.015,0.024-0.03,0.034-0.045,0.034c-0.016,0-0.03-0.01-0.05-0.029c-0.221-0.19-0.406-0.301-0.611-0.421
		c0,0.501-0.36,0.73-0.931,0.73c-0.551,0-0.921-0.28-0.921-0.71c0-0.436,0.36-0.731,0.926-0.731c0.096,0,0.235,0.006,0.396,0.03
		C62.5,25.318,62.49,25.013,62.485,24.778z M62.129,26.039c-0.25,0-0.445,0.101-0.445,0.29c0,0.16,0.14,0.24,0.426,0.24
		c0.27,0,0.435-0.145,0.435-0.355c0-0.045,0-0.069-0.005-0.1C62.419,26.074,62.285,26.039,62.129,26.039z M63.06,23.632
		c0.03-0.05,0.056-0.055,0.105-0.035c0.295,0.08,0.69,0.28,0.98,0.471c0.03,0.02,0.046,0.035,0.046,0.055
		c0,0.016-0.006,0.035-0.021,0.061c-0.05,0.109-0.14,0.265-0.21,0.37c-0.016,0.025-0.03,0.035-0.045,0.035
		c-0.016,0-0.025-0.005-0.045-0.021c-0.296-0.2-0.656-0.42-1.036-0.545C62.92,23.872,62.996,23.722,63.06,23.632z"/>
	<path fill="#FFFFFF" d="M65.638,23.441c0.045,0.021,0.08,0.056,0.08,0.091c0,0.029-0.016,0.08-0.04,0.14
		c-0.021,0.06-0.045,0.275-0.045,0.49c0,0.32,0.01,0.681,0.09,1.142c0.07,0.396,0.2,0.735,0.41,0.735c0.16,0,0.285-0.175,0.48-0.695
		c0.11,0.175,0.221,0.29,0.32,0.385c0.061,0.056,0.061,0.115,0.035,0.186c-0.19,0.511-0.5,0.78-0.851,0.78
		c-0.391,0-0.801-0.46-0.937-1.306c-0.08-0.476-0.12-0.996-0.12-1.456c0-0.275-0.01-0.426-0.06-0.656
		C65.243,23.307,65.488,23.366,65.638,23.441z M67.96,23.757c0.02-0.01,0.04-0.02,0.055-0.02c0.021,0,0.035,0.01,0.056,0.029
		c0.455,0.396,0.855,1.086,0.98,1.712c0.015,0.065-0.015,0.085-0.055,0.11c-0.131,0.085-0.256,0.155-0.391,0.2
		c-0.061,0.02-0.095,0.005-0.105-0.056c-0.17-0.715-0.425-1.235-0.936-1.746C67.755,23.867,67.88,23.797,67.96,23.757z"/>
</g>
</svg>
