<?xml version="1.0" encoding="utf-8"?>
<!-- Generator: Adobe Illustrator 21.1.0, SVG Export Plug-In . SVG Version: 6.00 Build 0)  -->
<svg version="1.1" id="レイヤー_1" xmlns="http://www.w3.org/2000/svg" xmlns:xlink="http://www.w3.org/1999/xlink" x="0px"
	 y="0px" viewBox="0 0 141.732 141.732" enable-background="new 0 0 141.732 141.732" xml:space="preserve">
<g>
	<path fill="#EFEFEF" d="M70.919,70.826L49.686,18.274c6.966-2.814,13.72-4.127,21.232-4.127V70.826z"/>
	<path fill="#C9CACA" d="M70.919,70.826L29.466,32.171c5.978-6.41,12.094-10.614,20.22-13.897L70.919,70.826z"/>
	<path fill="#9FA0A0" d="M70.919,70.826l-54.748,14.67c-5.185-19.351-0.368-38.673,13.295-53.325L70.919,70.826z"/>
	<path fill="#727171" d="M70.919,70.826l-6.907,56.257c-23.613-2.899-41.683-18.607-47.84-41.587L70.919,70.826z"/>
	<path fill="#595757" d="M70.919,70.826l51.369,23.954c-10.583,22.696-33.42,35.355-58.276,32.303L70.919,70.826z"/>
	<path fill="#3E3A39" d="M70.919,70.826V14.147c31.303,0,56.679,25.376,56.679,56.679c0,8.765-1.606,16.01-5.31,23.954
		L70.919,70.826z"/>
</g>
<g>
	<path fill="#FFFFFF" d="M90.763,57.692v-1.039c0.11,0.01,0.229,0.02,0.34,0.02c1.18,0,1.849-0.31,1.849-0.999
		c0-0.62-0.539-0.96-1.339-0.96c-0.56,0-1.119,0.12-1.609,0.35l-0.09-1.099c0.58-0.221,1.279-0.3,1.899-0.3
		c1.568,0,2.519,0.68,2.519,1.818c0,0.93-0.66,1.489-1.659,1.619v0.03c1.049,0.109,1.749,0.76,1.749,1.709
		c0,1.26-1.189,2.039-2.879,2.039c-0.609,0-1.219-0.07-1.829-0.26l0.07-1.17c0.609,0.24,1.149,0.36,1.689,0.36
		c0.879,0,1.529-0.32,1.529-1.069c0-0.75-0.69-1.06-1.89-1.06C91.033,57.683,90.883,57.683,90.763,57.692z"/>
	<path fill="#FFFFFF" d="M95.814,54.074c0.56-0.26,1.309-0.409,2.078-0.409c1.29,0,2.389,0.649,2.389,2.019
		c0,0.88-0.409,1.669-1.698,2.878c-0.59,0.55-1.02,0.87-1.39,1.12v0.02c0.63-0.02,1.449-0.03,2.069-0.03h1.169v1.09h-4.758v-1.159
		c2.239-1.819,3.139-2.769,3.139-3.769c0-0.759-0.55-1.069-1.249-1.069c-0.51,0-1.05,0.15-1.609,0.47L95.814,54.074z"/>
</g>
<g>
	<path fill="#FFFFFF" d="M88.052,47.711c0,1.116-0.676,1.821-1.717,1.821c-1.031,0-1.696-0.695-1.696-1.801
		c0-1.156,0.641-1.812,1.736-1.812C87.402,45.919,88.052,46.604,88.052,47.711z M85.394,47.731c0,0.76,0.381,1.256,0.961,1.256
		c0.556,0,0.946-0.511,0.946-1.262c0-0.78-0.38-1.261-0.966-1.261C85.775,46.465,85.394,46.965,85.394,47.731z"/>
	<path fill="#FFFFFF" d="M88.689,45.688h0.671v3.784h-0.671V45.688z"/>
	<path fill="#FFFFFF" d="M92.531,48.702c0,0.27,0.005,0.556,0.025,0.771h-0.61c-0.011-0.12-0.016-0.28-0.016-0.45h-0.01
		c-0.186,0.33-0.46,0.51-0.86,0.51c-0.691,0-1.116-0.53-1.116-1.346c0-0.796,0.445-1.352,1.121-1.352
		c0.385,0,0.65,0.181,0.811,0.461h0.01c-0.01-0.195-0.015-0.466-0.015-0.716v-0.892h0.66V48.702z M90.634,48.186
		c0,0.48,0.235,0.831,0.61,0.831c0.386,0,0.636-0.355,0.636-0.826c0-0.485-0.25-0.841-0.641-0.841
		C90.87,47.351,90.634,47.706,90.634,48.186z"/>
	<path fill="#FFFFFF" d="M96.446,46.615c-0.275-0.11-0.495-0.15-0.711-0.15c-0.37,0-0.605,0.155-0.605,0.396
		c0,0.215,0.115,0.35,0.631,0.535c0.65,0.23,0.926,0.53,0.926,1.046c0,0.671-0.511,1.091-1.316,1.091
		c-0.335,0-0.636-0.05-0.926-0.149l0.065-0.616c0.3,0.146,0.575,0.2,0.82,0.2c0.37,0,0.636-0.155,0.636-0.435
		c0-0.266-0.146-0.406-0.676-0.602c-0.62-0.225-0.886-0.505-0.886-1c0-0.621,0.506-1.012,1.251-1.012
		c0.311,0,0.57,0.035,0.846,0.125L96.446,46.615z"/>
	<path fill="#FFFFFF" d="M96.943,47.391v-0.495h0.506v-0.541l0.631-0.215v0.756h0.615v0.495H98.08v1.006
		c0,0.391,0.075,0.565,0.4,0.565c0.08,0,0.17-0.015,0.245-0.04l0.015,0.516c-0.125,0.045-0.29,0.065-0.46,0.065
		c-0.591,0-0.841-0.291-0.841-0.971v-1.142H96.943z"/>
	<path fill="#FFFFFF" d="M99.623,46.895l0.4,1.246c0.07,0.215,0.16,0.525,0.235,0.791h0.011c0.069-0.266,0.16-0.571,0.234-0.791
		l0.4-1.246h0.676l-1.016,2.758c-0.2,0.53-0.48,0.931-1.056,0.931c-0.166,0-0.355-0.03-0.48-0.07l0.05-0.501
		c0.11,0.035,0.215,0.051,0.33,0.051c0.221,0,0.381-0.125,0.485-0.48l-1.001-2.688H99.623z"/>
	<path fill="#FFFFFF" d="M102.018,45.688h0.671v3.784h-0.671V45.688z"/>
	<path fill="#FFFFFF" d="M103.954,48.372c0.01,0.395,0.33,0.65,0.796,0.65c0.285,0,0.535-0.075,0.751-0.211l0.01,0.551
		c-0.22,0.105-0.516,0.17-0.841,0.17c-0.846,0-1.401-0.495-1.401-1.361c0-0.775,0.516-1.336,1.291-1.336
		c0.746,0,1.132,0.445,1.132,1.377c0,0.039-0.006,0.125-0.011,0.16H103.954z M105.075,47.911c0-0.42-0.21-0.601-0.54-0.601
		c-0.296,0-0.556,0.2-0.591,0.601H105.075z"/>
</g>
<g>
	<path fill="#FFFFFF" d="M81.596,103.557c0.56-0.26,1.309-0.409,2.078-0.409c1.29,0,2.389,0.649,2.389,2.019
		c0,0.88-0.409,1.669-1.698,2.878c-0.59,0.55-1.02,0.87-1.39,1.12v0.02c0.63-0.02,1.449-0.03,2.069-0.03h1.169v1.09h-4.758v-1.159
		c2.239-1.819,3.139-2.769,3.139-3.769c0-0.759-0.55-1.069-1.249-1.069c-0.51,0-1.05,0.15-1.609,0.47L81.596,103.557z"/>
	<path fill="#FFFFFF" d="M92.403,106.735c0,2.259-0.739,3.628-2.538,3.628s-2.568-1.35-2.568-3.548c0-2.489,0.829-3.668,2.618-3.668
		C91.564,103.147,92.403,104.347,92.403,106.735z M88.706,106.695c0,1.759,0.409,2.639,1.159,2.639c0.729,0,1.14-0.88,1.14-2.569
		c0-1.729-0.41-2.588-1.149-2.588C89.115,104.177,88.706,105.026,88.706,106.695z"/>
</g>
<g>
	<path fill="#FFFFFF" d="M79.592,95.462c1.182,0,2.062,0.471,2.062,1.762c0,1.221-0.906,1.731-2.062,1.731h-0.956v-3.493H79.592z
		 M79.342,98.42h0.185c0.776,0,1.396-0.306,1.396-1.201c0-0.941-0.62-1.206-1.396-1.206h-0.185V98.42z"/>
	<path fill="#FFFFFF" d="M82.276,95.887v-0.641h0.671v0.641H82.276z M82.276,96.378h0.671v2.577h-0.671V96.378z"/>
	<path fill="#FFFFFF" d="M86.119,98.185c0,0.27,0.005,0.556,0.024,0.771h-0.61c-0.01-0.12-0.015-0.28-0.015-0.45h-0.01
		c-0.186,0.33-0.461,0.51-0.861,0.51c-0.69,0-1.116-0.53-1.116-1.346c0-0.796,0.445-1.352,1.121-1.352
		c0.386,0,0.65,0.181,0.811,0.461h0.011c-0.011-0.195-0.016-0.466-0.016-0.716v-0.892h0.661V98.185z M84.221,97.669
		c0,0.48,0.235,0.831,0.611,0.831c0.385,0,0.636-0.355,0.636-0.826c0-0.485-0.251-0.841-0.641-0.841
		C84.457,96.833,84.221,97.188,84.221,97.669z"/>
	<path fill="#FFFFFF" d="M89.399,97.674c0,0.806-0.551,1.341-1.356,1.341c-0.801,0-1.356-0.545-1.356-1.346
		c0-0.831,0.551-1.352,1.376-1.352C88.848,96.317,89.399,96.852,89.399,97.674z M87.402,97.674c0,0.506,0.25,0.831,0.636,0.831
		c0.4,0,0.655-0.325,0.655-0.856c0-0.53-0.245-0.835-0.65-0.835C87.642,96.813,87.402,97.123,87.402,97.674z"/>
	<path fill="#FFFFFF" d="M90.597,96.808c0.19-0.31,0.485-0.49,0.855-0.49c0.686,0,0.926,0.445,0.926,1.137v1.501h-0.66v-1.241
		c0-0.495-0.025-0.861-0.466-0.861c-0.22,0-0.42,0.136-0.525,0.336c-0.075,0.145-0.11,0.346-0.11,0.601v1.166h-0.66v-1.776
		c0-0.251-0.005-0.525-0.025-0.801h0.636c0.01,0.109,0.021,0.295,0.021,0.43H90.597z"/>
	<path fill="#FFFFFF" d="M93.607,97.854c0.01,0.395,0.33,0.65,0.796,0.65c0.285,0,0.535-0.075,0.75-0.211l0.011,0.551
		c-0.221,0.105-0.516,0.17-0.841,0.17c-0.847,0-1.401-0.495-1.401-1.361c0-0.775,0.515-1.336,1.291-1.336
		c0.745,0,1.131,0.445,1.131,1.377c0,0.039-0.005,0.125-0.01,0.16H93.607z M94.728,97.393c0-0.42-0.211-0.601-0.541-0.601
		c-0.295,0-0.556,0.2-0.591,0.601H94.728z"/>
</g>
<g>
	<path fill="#FFFFFF" d="M45.476,104.599h-1.42v-3.648c0-0.589,0.021-1.539,0.04-1.908h-0.02c-0.16,0.159-0.49,0.439-0.85,0.729
		l-0.36,0.29l-0.689-0.939l2.029-1.5h1.27V104.599z"/>
	<path fill="#FFFFFF" d="M48.177,103.359c0.43,0.2,0.89,0.31,1.369,0.31c1.279,0,1.899-0.89,1.929-2.349h-0.02
		c-0.359,0.52-0.989,0.779-1.619,0.779c-1.27,0-2.119-0.829-2.119-2.158c0-1.39,0.939-2.438,2.539-2.438
		c1.709,0,2.568,1.179,2.568,3.357c0,2.479-1.159,3.858-3.198,3.858c-0.59,0-1.159-0.09-1.579-0.25L48.177,103.359z M51.366,99.861
		c0-0.77-0.46-1.379-1.119-1.379c-0.76,0-1.14,0.64-1.14,1.358c0,0.75,0.399,1.25,1.129,1.25
		C50.896,101.091,51.366,100.571,51.366,99.861z"/>
</g>
<g>
	<path fill="#FFFFFF" d="M37.97,93.229c-0.22,0.075-0.516,0.115-0.815,0.115c-1.126,0-1.896-0.661-1.896-1.782
		c0-1.086,0.795-1.781,1.852-1.781c0.3,0,0.556,0.025,0.846,0.125l-0.05,0.605c-0.251-0.115-0.471-0.16-0.741-0.16
		c-0.695,0-1.156,0.421-1.156,1.191c0,0.775,0.511,1.216,1.166,1.216c0.256,0,0.496-0.03,0.771-0.135L37.97,93.229z"/>
	<path fill="#FFFFFF" d="M38.502,89.525h0.671v3.784h-0.671V89.525z"/>
	<path fill="#FFFFFF" d="M40.002,90.872c0.261-0.135,0.621-0.2,0.926-0.2c0.801,0,1.116,0.41,1.116,1.051
		c0,0.195-0.01,0.571-0.01,0.766c0,0.306,0.021,0.651,0.035,0.821h-0.586c-0.005-0.04-0.01-0.13-0.01-0.205
		c0-0.061,0.005-0.146,0.01-0.226h-0.01c-0.175,0.291-0.455,0.48-0.886,0.48c-0.501,0-0.861-0.3-0.861-0.801
		c0-0.54,0.476-0.841,1.327-0.841c0.104,0,0.245,0.005,0.365,0.016c0-0.396-0.186-0.571-0.605-0.571
		c-0.271,0-0.561,0.096-0.786,0.23L40.002,90.872z M41.208,92.113c-0.53,0-0.82,0.11-0.82,0.41c0,0.226,0.146,0.351,0.4,0.351
		c0.351,0,0.641-0.22,0.641-0.751C41.334,92.113,41.284,92.113,41.208,92.113z"/>
	<path fill="#FFFFFF" d="M43.333,91.223c0.135-0.341,0.375-0.551,0.74-0.551c0.08,0,0.15,0.005,0.221,0.03l-0.015,0.575
		c-0.075-0.024-0.146-0.035-0.23-0.035c-0.45,0-0.671,0.346-0.671,1.017v1.051h-0.681v-1.812c0-0.271-0.005-0.551-0.025-0.766h0.631
		c0.01,0.115,0.021,0.35,0.021,0.49H43.333z"/>
	<path fill="#FFFFFF" d="M45.133,92.209c0.01,0.395,0.33,0.65,0.796,0.65c0.285,0,0.535-0.075,0.751-0.211l0.01,0.551
		c-0.22,0.105-0.516,0.17-0.841,0.17c-0.846,0-1.401-0.495-1.401-1.361c0-0.775,0.516-1.336,1.291-1.336
		c0.746,0,1.132,0.445,1.132,1.377c0,0.039-0.006,0.125-0.011,0.16H45.133z M46.254,91.748c0-0.42-0.21-0.601-0.54-0.601
		c-0.296,0-0.556,0.2-0.591,0.601H46.254z"/>
	<path fill="#FFFFFF" d="M48.069,91.162c0.19-0.31,0.485-0.49,0.855-0.49c0.686,0,0.926,0.445,0.926,1.137v1.501h-0.66v-1.241
		c0-0.495-0.025-0.861-0.466-0.861c-0.22,0-0.42,0.136-0.525,0.336c-0.075,0.145-0.11,0.346-0.11,0.601v1.166h-0.66v-1.776
		c0-0.251-0.005-0.525-0.025-0.801h0.636c0.01,0.109,0.021,0.295,0.021,0.43H48.069z"/>
	<path fill="#FFFFFF" d="M52.985,92.539c0,0.27,0.005,0.556,0.025,0.771H52.4c-0.011-0.12-0.016-0.28-0.016-0.45h-0.01
		c-0.186,0.33-0.46,0.51-0.86,0.51c-0.691,0-1.116-0.53-1.116-1.346c0-0.796,0.445-1.352,1.121-1.352
		c0.385,0,0.65,0.181,0.811,0.461h0.01c-0.01-0.195-0.015-0.466-0.015-0.716v-0.892h0.66V92.539z M51.088,92.023
		c0,0.48,0.235,0.831,0.61,0.831c0.386,0,0.636-0.355,0.636-0.826c0-0.485-0.25-0.841-0.641-0.841
		C51.324,91.187,51.088,91.543,51.088,92.023z"/>
	<path fill="#FFFFFF" d="M56.265,92.028c0,0.806-0.55,1.341-1.356,1.341c-0.801,0-1.355-0.545-1.355-1.346
		c0-0.831,0.55-1.352,1.376-1.352C55.715,90.672,56.265,91.207,56.265,92.028z M54.268,92.028c0,0.506,0.251,0.831,0.636,0.831
		c0.4,0,0.656-0.325,0.656-0.856c0-0.53-0.245-0.835-0.651-0.835C54.508,91.168,54.268,91.477,54.268,92.028z"/>
	<path fill="#FFFFFF" d="M57.463,91.162c0.19-0.31,0.485-0.49,0.856-0.49c0.686,0,0.926,0.445,0.926,1.137v1.501h-0.661v-1.241
		c0-0.495-0.024-0.861-0.465-0.861c-0.221,0-0.421,0.136-0.525,0.336c-0.075,0.145-0.11,0.346-0.11,0.601v1.166h-0.661v-1.776
		c0-0.251-0.005-0.525-0.024-0.801h0.636c0.01,0.109,0.02,0.295,0.02,0.43H57.463z"/>
</g>
<g>
	<path d="M32.303,69.523h-1.419v-3.648c0-0.589,0.02-1.539,0.04-1.908h-0.021c-0.16,0.159-0.489,0.439-0.85,0.729l-0.359,0.29
		l-0.689-0.939l2.028-1.5h1.27V69.523z"/>
	<path d="M39.113,63.747c-0.42-0.181-0.85-0.271-1.289-0.271c-1.17,0-1.869,0.84-1.899,2.299h0.021c0.35-0.47,0.979-0.76,1.619-0.76
		c1.329,0,2.158,0.89,2.158,2.219c0,1.39-0.969,2.409-2.559,2.409c-1.709,0-2.588-1.189-2.588-3.368
		c0-2.469,1.199-3.848,3.178-3.848c0.53,0,1.079,0.069,1.499,0.22L39.113,63.747z M36.035,67.284c0,0.78,0.5,1.38,1.179,1.38
		c0.76,0,1.149-0.609,1.149-1.329c0-0.75-0.3-1.319-1.089-1.319C36.644,66.016,36.035,66.585,36.035,67.284z"/>
</g>
<g>
	<path d="M28.745,55.377c-0.274-0.11-0.495-0.15-0.71-0.15c-0.371,0-0.605,0.155-0.605,0.396c0,0.215,0.114,0.35,0.63,0.535
		c0.651,0.23,0.926,0.53,0.926,1.046c0,0.671-0.51,1.091-1.315,1.091c-0.336,0-0.636-0.05-0.927-0.149l0.065-0.616
		c0.301,0.146,0.575,0.2,0.821,0.2c0.37,0,0.635-0.155,0.635-0.435c0-0.266-0.145-0.406-0.675-0.602
		c-0.621-0.225-0.887-0.505-0.887-1c0-0.621,0.506-1.012,1.252-1.012c0.31,0,0.57,0.035,0.846,0.125L28.745,55.377z"/>
	<path d="M30.063,58.234l-0.801-2.577h0.716l0.381,1.396c0.04,0.16,0.115,0.49,0.145,0.66h0.011c0.029-0.17,0.115-0.516,0.155-0.655
		l0.37-1.401h0.825l0.4,1.396c0.046,0.16,0.12,0.49,0.15,0.66h0.01c0.03-0.17,0.105-0.506,0.146-0.655l0.375-1.401h0.666
		l-0.796,2.577h-0.825l-0.406-1.477c-0.045-0.165-0.1-0.445-0.13-0.615h-0.01c-0.035,0.17-0.101,0.45-0.146,0.615l-0.405,1.477
		H30.063z"/>
	<path d="M34.063,55.166v-0.641h0.671v0.641H34.063z M34.063,55.657h0.671v2.577h-0.671V55.657z"/>
	<path d="M36.979,55.001c-0.08-0.035-0.16-0.055-0.255-0.055c-0.25,0-0.336,0.14-0.336,0.521v0.19h0.591v0.495h-0.591v2.082h-0.67
		v-2.082h-0.506v-0.495h0.506v-0.181c0-0.711,0.275-1.046,0.931-1.046c0.135,0,0.28,0.02,0.386,0.05L36.979,55.001z"/>
	<path d="M37.127,56.152v-0.495h0.506v-0.541l0.63-0.215v0.756h0.616v0.495h-0.616v1.006c0,0.391,0.075,0.565,0.4,0.565
		c0.08,0,0.171-0.015,0.245-0.04l0.016,0.516c-0.125,0.045-0.29,0.065-0.461,0.065c-0.59,0-0.841-0.291-0.841-0.971v-1.142H37.127z"
		/>
	<path d="M39.808,55.657l0.4,1.246c0.07,0.215,0.16,0.525,0.235,0.791h0.01c0.07-0.266,0.16-0.571,0.235-0.791l0.4-1.246h0.676
		l-1.017,2.758c-0.2,0.53-0.48,0.931-1.056,0.931c-0.165,0-0.355-0.03-0.48-0.07l0.05-0.501c0.11,0.035,0.216,0.051,0.331,0.051
		c0.22,0,0.38-0.125,0.485-0.48l-1.001-2.688H39.808z"/>
</g>
<g>
	<path d="M51.892,38.313l-2.548,5.827h-1.55l2.669-5.867h-3.389v-1.109h4.817V38.313z"/>
</g>
<g>
	<path d="M41.133,31.129c-0.275-0.11-0.495-0.15-0.711-0.15c-0.37,0-0.605,0.155-0.605,0.396c0,0.215,0.115,0.35,0.631,0.535
		c0.65,0.23,0.926,0.53,0.926,1.046c0,0.671-0.511,1.091-1.316,1.091c-0.335,0-0.636-0.05-0.926-0.149l0.065-0.616
		c0.3,0.146,0.575,0.2,0.82,0.2c0.37,0,0.636-0.155,0.636-0.435c0-0.266-0.146-0.406-0.676-0.602c-0.62-0.225-0.886-0.505-0.886-1
		c0-0.621,0.506-1.012,1.251-1.012c0.311,0,0.57,0.035,0.846,0.125L41.133,31.129z"/>
	<path d="M41.966,30.202h0.671v3.784h-0.671V30.202z"/>
	<path d="M43.466,31.549c0.26-0.135,0.62-0.2,0.926-0.2c0.801,0,1.116,0.41,1.116,1.051c0,0.195-0.01,0.571-0.01,0.766
		c0,0.306,0.02,0.651,0.034,0.821h-0.585c-0.005-0.04-0.01-0.13-0.01-0.205c0-0.061,0.005-0.146,0.01-0.226h-0.01
		c-0.176,0.291-0.456,0.48-0.887,0.48c-0.5,0-0.86-0.3-0.86-0.801c0-0.54,0.476-0.841,1.326-0.841c0.105,0,0.245,0.005,0.365,0.016
		c0-0.396-0.185-0.571-0.605-0.571c-0.271,0-0.561,0.096-0.786,0.23L43.466,31.549z M44.672,32.79c-0.53,0-0.821,0.11-0.821,0.41
		c0,0.226,0.146,0.351,0.4,0.351c0.351,0,0.641-0.22,0.641-0.751C44.797,32.79,44.748,32.79,44.672,32.79z"/>
	<path d="M46.796,33.571c0,0.145-0.01,0.314-0.02,0.415h-0.621c0.021-0.215,0.025-0.501,0.025-0.771v-3.014h0.661v0.892
		c0,0.25-0.006,0.521-0.016,0.716h0.01c0.195-0.296,0.486-0.461,0.866-0.461c0.661,0,1.071,0.551,1.071,1.326
		c0,0.801-0.426,1.371-1.121,1.371c-0.391,0-0.676-0.18-0.846-0.475H46.796z M46.847,32.7c0,0.476,0.25,0.826,0.636,0.826
		c0.385,0,0.61-0.346,0.61-0.831c0-0.491-0.21-0.826-0.605-0.826C47.102,31.869,46.847,32.225,46.847,32.7z"/>
</g>
<g>
	<path d="M65.442,28.921c-0.42-0.181-0.85-0.271-1.289-0.271c-1.17,0-1.869,0.84-1.899,2.299h0.021c0.35-0.47,0.979-0.76,1.619-0.76
		c1.329,0,2.158,0.89,2.158,2.219c0,1.39-0.969,2.409-2.559,2.409c-1.709,0-2.588-1.189-2.588-3.368
		c0-2.469,1.199-3.848,3.178-3.848c0.53,0,1.079,0.069,1.499,0.22L65.442,28.921z M62.364,32.458c0,0.78,0.499,1.38,1.179,1.38
		c0.76,0,1.149-0.609,1.149-1.329c0-0.75-0.3-1.319-1.089-1.319C62.973,31.189,62.364,31.759,62.364,32.458z"/>
</g>
<g>
	<path d="M55.121,20.788c-0.035-0.16-0.105-0.466-0.13-0.656H54.98c-0.024,0.19-0.08,0.49-0.115,0.656l-0.521,2.337h-0.891
		l-0.966-3.493h0.756l0.506,2.092c0.024,0.115,0.135,0.621,0.165,0.855h0.01c0.035-0.234,0.135-0.74,0.16-0.855l0.455-2.092h0.937
		l0.48,2.092c0.029,0.12,0.125,0.626,0.16,0.855h0.01c0.035-0.229,0.135-0.726,0.165-0.855l0.501-2.092h0.7l-0.936,3.493h-0.886
		L55.121,20.788z"/>
	<path d="M58.338,22.024c0.011,0.395,0.331,0.65,0.796,0.65c0.285,0,0.536-0.075,0.751-0.211l0.01,0.551
		c-0.22,0.105-0.516,0.17-0.841,0.17c-0.846,0-1.401-0.495-1.401-1.361c0-0.775,0.516-1.336,1.291-1.336
		c0.746,0,1.132,0.445,1.132,1.377c0,0.039-0.005,0.125-0.011,0.16H58.338z M59.459,21.563c0-0.42-0.21-0.601-0.54-0.601
		c-0.296,0-0.556,0.2-0.591,0.601H59.459z"/>
	<path d="M63.055,22.354c0,0.27,0.006,0.556,0.025,0.771h-0.61c-0.01-0.12-0.016-0.28-0.016-0.45h-0.01
		c-0.185,0.33-0.46,0.51-0.86,0.51c-0.691,0-1.116-0.53-1.116-1.346c0-0.796,0.445-1.352,1.121-1.352
		c0.385,0,0.65,0.181,0.811,0.461h0.01c-0.01-0.195-0.015-0.466-0.015-0.716v-0.892h0.66V22.354z M61.159,21.839
		c0,0.48,0.235,0.831,0.61,0.831c0.386,0,0.636-0.355,0.636-0.826c0-0.485-0.25-0.841-0.641-0.841
		C61.394,21.003,61.159,21.358,61.159,21.839z"/>
	<path d="M66.215,20.548v2.377c0,0.771-0.415,1.312-1.355,1.312c-0.351,0-0.691-0.045-1.026-0.171l0.05-0.57
		c0.32,0.17,0.631,0.24,0.921,0.24c0.45,0,0.761-0.255,0.761-0.811c0-0.085,0-0.175,0.01-0.266h-0.01
		c-0.155,0.261-0.42,0.466-0.825,0.466c-0.671,0-1.111-0.516-1.111-1.276c0-0.801,0.445-1.361,1.151-1.361
		c0.4,0,0.66,0.195,0.815,0.471h0.01c-0.01-0.16-0.01-0.28-0.01-0.41H66.215z M64.319,21.813c0,0.461,0.23,0.786,0.601,0.786
		c0.381,0,0.636-0.341,0.636-0.791c0-0.455-0.255-0.806-0.641-0.806C64.559,21.003,64.319,21.353,64.319,21.813z"/>
	<path d="M67.458,22.024c0.011,0.395,0.331,0.65,0.796,0.65c0.285,0,0.536-0.075,0.751-0.211l0.01,0.551
		c-0.22,0.105-0.516,0.17-0.841,0.17c-0.846,0-1.401-0.495-1.401-1.361c0-0.775,0.516-1.336,1.291-1.336
		c0.746,0,1.132,0.445,1.132,1.377c0,0.039-0.005,0.125-0.011,0.16H67.458z M68.58,21.563c0-0.42-0.21-0.601-0.54-0.601
		c-0.296,0-0.556,0.2-0.591,0.601H68.58z"/>
</g>
</svg>
