<?xml version="1.0" encoding="utf-8"?>
<!-- Generator: Adobe Illustrator 21.1.0, SVG Export Plug-In . SVG Version: 6.00 Build 0)  -->
<svg version="1.1" id="レイヤー_1" xmlns="http://www.w3.org/2000/svg" xmlns:xlink="http://www.w3.org/1999/xlink" x="0px"
	 y="0px" viewBox="0 0 141.732 141.732" enable-background="new 0 0 141.732 141.732" xml:space="preserve">
<g>
	<path fill="#EFEFEF" d="M70.913,70.826l-3.955-56.553c1.249-0.087,2.702-0.138,3.955-0.138V70.826z"/>
	<path fill="#C9CACA" d="M70.913,70.826L43.428,21.243c7.667-4.25,14.784-6.358,23.53-6.97L70.913,70.826z"/>
	<path fill="#9FA0A0" d="M70.913,70.826L15.906,57.111c3.939-15.797,13.283-27.975,27.523-35.868L70.913,70.826z"/>
	<path fill="#727171" d="M70.913,70.826l-40.78,39.381c-13.92-14.414-19.075-33.653-14.227-53.096L70.913,70.826z"/>
	<path fill="#595757" d="M70.913,70.826l45.864,33.322c-18.403,25.33-53.856,30.945-79.186,12.542
		c-3.04-2.208-4.848-3.78-7.458-6.483L70.913,70.826z"/>
	<path fill="#3E3A39" d="M70.913,70.826V14.135c31.31,0,56.691,25.381,56.691,56.691c0,12.524-3.466,23.19-10.827,33.322
		L70.913,70.826z"/>
</g>
<g>
	<path fill="#FFFFFF" d="M92.174,60.624v-1.039c0.11,0.01,0.23,0.02,0.34,0.02c1.18,0,1.85-0.31,1.85-0.999
		c0-0.62-0.54-0.96-1.34-0.96c-0.56,0-1.119,0.12-1.609,0.35l-0.09-1.099c0.58-0.221,1.279-0.3,1.899-0.3
		c1.569,0,2.519,0.68,2.519,1.818c0,0.93-0.66,1.489-1.659,1.619v0.03c1.05,0.109,1.749,0.76,1.749,1.709
		c0,1.26-1.189,2.039-2.879,2.039c-0.609,0-1.219-0.07-1.828-0.26l0.07-1.17c0.609,0.24,1.148,0.36,1.688,0.36
		c0.88,0,1.529-0.32,1.529-1.069c0-0.75-0.69-1.06-1.89-1.06C92.443,60.614,92.294,60.614,92.174,60.624z"/>
	<path fill="#FFFFFF" d="M101.622,57.766h-2.919l-0.039,1.529c0.289-0.061,0.479-0.07,0.77-0.07c1.449,0,2.438,0.83,2.438,2.169
		c0,1.489-1.13,2.419-2.898,2.419c-0.52,0-1.06-0.061-1.609-0.21l0.021-1.18c0.489,0.21,0.969,0.31,1.479,0.31
		c0.96,0,1.609-0.43,1.609-1.249c0-0.85-0.609-1.259-1.669-1.259c-0.45,0-0.909,0.08-1.369,0.229l0.05-3.738h4.138V57.766z"/>
</g>
<g>
	<path fill="#FFFFFF" d="M90.773,50.066c-0.035-0.16-0.105-0.466-0.13-0.656h-0.011c-0.024,0.19-0.08,0.49-0.115,0.656l-0.521,2.337
		h-0.891L88.14,48.91h0.756l0.506,2.092c0.024,0.115,0.135,0.621,0.165,0.855h0.01c0.035-0.234,0.135-0.74,0.16-0.855l0.455-2.092
		h0.937l0.48,2.092c0.029,0.12,0.125,0.626,0.16,0.855h0.01c0.035-0.229,0.135-0.726,0.165-0.855l0.501-2.092h0.7l-0.936,3.493
		h-0.886L90.773,50.066z"/>
	<path fill="#FFFFFF" d="M93.99,51.303c0.011,0.395,0.331,0.65,0.796,0.65c0.285,0,0.536-0.075,0.751-0.211l0.01,0.551
		c-0.22,0.105-0.516,0.17-0.841,0.17c-0.846,0-1.401-0.495-1.401-1.361c0-0.775,0.516-1.336,1.291-1.336
		c0.746,0,1.132,0.445,1.132,1.377c0,0.039-0.005,0.125-0.011,0.16H93.99z M95.111,50.842c0-0.42-0.21-0.601-0.54-0.601
		c-0.296,0-0.556,0.2-0.591,0.601H95.111z"/>
	<path fill="#FFFFFF" d="M98.707,51.633c0,0.27,0.006,0.556,0.025,0.771h-0.61c-0.01-0.12-0.016-0.28-0.016-0.45h-0.01
		c-0.185,0.33-0.46,0.51-0.86,0.51c-0.691,0-1.116-0.53-1.116-1.346c0-0.796,0.445-1.352,1.121-1.352
		c0.385,0,0.65,0.181,0.811,0.461h0.01c-0.01-0.195-0.015-0.466-0.015-0.716v-0.892h0.66V51.633z M96.811,51.117
		c0,0.48,0.235,0.831,0.61,0.831c0.386,0,0.636-0.355,0.636-0.826c0-0.485-0.25-0.841-0.641-0.841
		C97.046,50.281,96.811,50.637,96.811,51.117z"/>
	<path fill="#FFFFFF" d="M101.867,49.826v2.377c0,0.771-0.415,1.312-1.355,1.312c-0.351,0-0.691-0.045-1.026-0.171l0.05-0.57
		c0.32,0.17,0.631,0.24,0.921,0.24c0.45,0,0.761-0.255,0.761-0.811c0-0.085,0-0.175,0.01-0.266h-0.01
		c-0.155,0.261-0.42,0.466-0.825,0.466c-0.671,0-1.111-0.516-1.111-1.276c0-0.801,0.445-1.361,1.151-1.361
		c0.4,0,0.66,0.195,0.815,0.471h0.01c-0.01-0.16-0.01-0.28-0.01-0.41H101.867z M99.971,51.092c0,0.461,0.23,0.786,0.601,0.786
		c0.381,0,0.636-0.341,0.636-0.791c0-0.455-0.255-0.806-0.641-0.806C100.211,50.281,99.971,50.632,99.971,51.092z"/>
	<path fill="#FFFFFF" d="M103.11,51.303c0.011,0.395,0.331,0.65,0.796,0.65c0.285,0,0.536-0.075,0.751-0.211l0.01,0.551
		c-0.22,0.105-0.516,0.17-0.841,0.17c-0.846,0-1.401-0.495-1.401-1.361c0-0.775,0.516-1.336,1.291-1.336
		c0.746,0,1.132,0.445,1.132,1.377c0,0.039-0.005,0.125-0.011,0.16H103.11z M104.232,50.842c0-0.42-0.21-0.601-0.54-0.601
		c-0.296,0-0.556,0.2-0.591,0.601H104.232z"/>
</g>
<g>
	<path fill="#FFFFFF" d="M67.05,103.105c0.56-0.26,1.31-0.409,2.079-0.409c1.289,0,2.389,0.649,2.389,2.019
		c0,0.88-0.41,1.669-1.699,2.878c-0.59,0.55-1.02,0.87-1.389,1.12v0.02c0.629-0.02,1.449-0.03,2.068-0.03h1.169v1.09H66.91v-1.159
		c2.238-1.819,3.139-2.769,3.139-3.769c0-0.759-0.55-1.069-1.25-1.069c-0.51,0-1.049,0.15-1.609,0.47L67.05,103.105z"/>
	<path fill="#FFFFFF" d="M77.938,107.893c0,1.279-1.14,2.02-2.648,2.02c-1.539,0-2.599-0.72-2.599-1.939
		c0-0.839,0.489-1.419,1.529-1.829c-1.02-0.399-1.359-0.899-1.359-1.648c0-1.1,0.999-1.799,2.469-1.799
		c1.389,0,2.389,0.629,2.389,1.709c0,0.749-0.4,1.249-1.31,1.669C77.497,106.474,77.938,107.004,77.938,107.893z M74.1,107.883
		c0,0.649,0.499,1.04,1.209,1.04c0.689,0,1.239-0.391,1.239-1.02c0-0.63-0.439-0.989-1.359-1.279
		C74.469,106.884,74.1,107.283,74.1,107.883z M76.348,104.564c0-0.609-0.439-0.909-1.059-0.909c-0.6,0-1.1,0.32-1.1,0.869
		c0,0.601,0.479,0.91,1.229,1.17C76.048,105.425,76.348,105.055,76.348,104.564z"/>
</g>
<g>
	<path fill="#FFFFFF" d="M65.047,95.011c1.181,0,2.062,0.471,2.062,1.762c0,1.221-0.905,1.731-2.062,1.731h-0.956v-3.493H65.047z
		 M64.796,97.969h0.186c0.775,0,1.396-0.306,1.396-1.201c0-0.941-0.621-1.206-1.396-1.206h-0.186V97.969z"/>
	<path fill="#FFFFFF" d="M67.731,95.435v-0.641h0.671v0.641H67.731z M67.731,95.927h0.671v2.577h-0.671V95.927z"/>
	<path fill="#FFFFFF" d="M71.572,97.733c0,0.27,0.006,0.556,0.025,0.771h-0.61c-0.01-0.12-0.016-0.28-0.016-0.45h-0.01
		c-0.185,0.33-0.46,0.51-0.86,0.51c-0.691,0-1.116-0.53-1.116-1.346c0-0.796,0.445-1.352,1.121-1.352
		c0.385,0,0.65,0.181,0.811,0.461h0.01c-0.01-0.195-0.015-0.466-0.015-0.716V94.72h0.66V97.733z M69.676,97.218
		c0,0.48,0.235,0.831,0.61,0.831c0.386,0,0.636-0.355,0.636-0.826c0-0.485-0.25-0.841-0.641-0.841
		C69.911,96.382,69.676,96.737,69.676,97.218z"/>
	<path fill="#FFFFFF" d="M74.853,97.223c0,0.806-0.55,1.341-1.355,1.341c-0.801,0-1.356-0.545-1.356-1.346
		c0-0.831,0.55-1.352,1.376-1.352C74.303,95.866,74.853,96.401,74.853,97.223z M72.857,97.223c0,0.506,0.25,0.831,0.635,0.831
		c0.4,0,0.656-0.325,0.656-0.856c0-0.53-0.245-0.835-0.65-0.835C73.097,96.362,72.857,96.672,72.857,97.223z"/>
	<path fill="#FFFFFF" d="M76.051,96.356c0.19-0.31,0.486-0.49,0.856-0.49c0.686,0,0.926,0.445,0.926,1.137v1.501h-0.661v-1.241
		c0-0.495-0.024-0.861-0.465-0.861c-0.221,0-0.421,0.136-0.525,0.336c-0.075,0.145-0.11,0.346-0.11,0.601v1.166H75.41v-1.776
		c0-0.251-0.005-0.525-0.024-0.801h0.636c0.01,0.109,0.02,0.295,0.02,0.43H76.051z"/>
	<path fill="#FFFFFF" d="M79.061,97.403c0.011,0.395,0.331,0.65,0.796,0.65c0.285,0,0.536-0.075,0.751-0.211l0.01,0.551
		c-0.22,0.105-0.516,0.17-0.841,0.17c-0.846,0-1.401-0.495-1.401-1.361c0-0.775,0.516-1.336,1.291-1.336
		c0.746,0,1.132,0.445,1.132,1.377c0,0.039-0.005,0.125-0.011,0.16H79.061z M80.182,96.942c0-0.42-0.21-0.601-0.54-0.601
		c-0.296,0-0.556,0.2-0.591,0.601H80.182z"/>
</g>
<g>
	<path fill="#FFFFFF" d="M32.298,88.41h-1.419v-3.648c0-0.589,0.02-1.539,0.039-1.908h-0.02c-0.16,0.159-0.49,0.439-0.85,0.729
		l-0.359,0.29L29,82.934l2.028-1.5h1.27V88.41z"/>
	<path fill="#FFFFFF" d="M39.108,82.634c-0.42-0.181-0.85-0.271-1.289-0.271c-1.17,0-1.869,0.84-1.899,2.299h0.021
		c0.35-0.47,0.979-0.76,1.619-0.76c1.328,0,2.158,0.89,2.158,2.219c0,1.39-0.969,2.409-2.559,2.409
		c-1.709,0-2.588-1.189-2.588-3.368c0-2.469,1.199-3.848,3.178-3.848c0.529,0,1.079,0.069,1.499,0.22L39.108,82.634z M36.029,86.171
		c0,0.78,0.5,1.38,1.179,1.38c0.76,0,1.149-0.609,1.149-1.329c0-0.75-0.3-1.319-1.09-1.319
		C36.639,84.902,36.029,85.472,36.029,86.171z"/>
</g>
<g>
	<path fill="#FFFFFF" d="M28.739,74.265c-0.275-0.11-0.495-0.15-0.711-0.15c-0.37,0-0.605,0.155-0.605,0.396
		c0,0.215,0.115,0.35,0.631,0.535c0.65,0.23,0.926,0.53,0.926,1.046c0,0.671-0.511,1.091-1.316,1.091
		c-0.335,0-0.636-0.05-0.926-0.149l0.065-0.616c0.3,0.146,0.575,0.2,0.82,0.2c0.37,0,0.636-0.155,0.636-0.435
		c0-0.266-0.146-0.406-0.676-0.602c-0.62-0.225-0.886-0.505-0.886-1c0-0.621,0.506-1.012,1.251-1.012
		c0.311,0,0.571,0.035,0.846,0.125L28.739,74.265z"/>
	<path fill="#FFFFFF" d="M30.058,77.122l-0.801-2.577h0.716l0.38,1.396c0.04,0.16,0.115,0.49,0.146,0.66h0.01
		c0.03-0.17,0.115-0.516,0.155-0.655l0.37-1.401h0.826l0.4,1.396c0.045,0.16,0.12,0.49,0.15,0.66h0.01
		c0.03-0.17,0.105-0.506,0.146-0.655l0.375-1.401h0.666l-0.796,2.577h-0.826l-0.405-1.477c-0.045-0.165-0.1-0.445-0.13-0.615h-0.01
		c-0.035,0.17-0.101,0.45-0.146,0.615l-0.405,1.477H30.058z"/>
	<path fill="#FFFFFF" d="M34.057,74.054v-0.641h0.671v0.641H34.057z M34.057,74.545h0.671v2.577h-0.671V74.545z"/>
	<path fill="#FFFFFF" d="M36.974,73.889c-0.08-0.035-0.16-0.055-0.256-0.055c-0.25,0-0.335,0.14-0.335,0.521v0.19h0.591v0.495
		h-0.591v2.082h-0.671V75.04h-0.505v-0.495h0.505v-0.181c0-0.711,0.275-1.046,0.932-1.046c0.135,0,0.28,0.02,0.385,0.05
		L36.974,73.889z"/>
	<path fill="#FFFFFF" d="M37.122,75.04v-0.495h0.505v-0.541l0.631-0.215v0.756h0.615v0.495h-0.615v1.006
		c0,0.391,0.075,0.565,0.4,0.565c0.08,0,0.17-0.015,0.245-0.04l0.015,0.516c-0.125,0.045-0.29,0.065-0.46,0.065
		c-0.591,0-0.841-0.291-0.841-0.971V75.04H37.122z"/>
	<path fill="#FFFFFF" d="M39.803,74.545l0.4,1.246c0.069,0.215,0.16,0.525,0.234,0.791h0.011c0.069-0.266,0.16-0.571,0.235-0.791
		l0.4-1.246h0.675l-1.016,2.758c-0.2,0.53-0.48,0.931-1.056,0.931c-0.165,0-0.355-0.03-0.48-0.07l0.05-0.501
		c0.11,0.035,0.215,0.051,0.33,0.051c0.221,0,0.381-0.125,0.485-0.48l-1.001-2.688H39.803z"/>
</g>
<g>
	<path d="M37.988,53.768h-1.42V50.12c0-0.589,0.021-1.539,0.04-1.908h-0.02c-0.16,0.159-0.49,0.439-0.85,0.729l-0.36,0.29
		l-0.689-0.939l2.029-1.5h1.27V53.768z"/>
	<path d="M41.409,50.7v-1.039c0.11,0.01,0.229,0.02,0.34,0.02c1.18,0,1.849-0.31,1.849-0.999c0-0.62-0.539-0.96-1.339-0.96
		c-0.56,0-1.119,0.12-1.609,0.35l-0.09-1.099c0.58-0.221,1.279-0.3,1.899-0.3c1.568,0,2.519,0.68,2.519,1.818
		c0,0.93-0.66,1.489-1.659,1.619v0.03c1.049,0.109,1.749,0.76,1.749,1.709c0,1.26-1.189,2.039-2.879,2.039
		c-0.609,0-1.219-0.07-1.829-0.26l0.07-1.17c0.609,0.24,1.149,0.36,1.689,0.36c0.879,0,1.529-0.32,1.529-1.069
		c0-0.75-0.69-1.06-1.89-1.06C41.679,50.69,41.529,50.69,41.409,50.7z"/>
</g>
<g>
	<path d="M37.047,39.623c-0.275-0.11-0.495-0.15-0.711-0.15c-0.37,0-0.605,0.155-0.605,0.396c0,0.215,0.115,0.35,0.631,0.535
		c0.65,0.23,0.926,0.53,0.926,1.046c0,0.671-0.511,1.091-1.316,1.091c-0.335,0-0.636-0.05-0.926-0.149l0.065-0.616
		c0.3,0.146,0.575,0.2,0.82,0.2c0.37,0,0.636-0.155,0.636-0.435c0-0.266-0.146-0.406-0.676-0.602c-0.62-0.225-0.886-0.505-0.886-1
		c0-0.621,0.506-1.012,1.251-1.012c0.311,0,0.57,0.035,0.846,0.125L37.047,39.623z"/>
	<path d="M37.88,38.696h0.671v3.784H37.88V38.696z"/>
	<path d="M39.38,40.043c0.26-0.135,0.62-0.2,0.926-0.2c0.801,0,1.116,0.41,1.116,1.051c0,0.195-0.01,0.571-0.01,0.766
		c0,0.306,0.02,0.651,0.034,0.821h-0.585c-0.005-0.04-0.01-0.13-0.01-0.205c0-0.061,0.005-0.146,0.01-0.226h-0.01
		c-0.176,0.291-0.456,0.48-0.887,0.48c-0.5,0-0.86-0.3-0.86-0.801c0-0.54,0.476-0.841,1.326-0.841c0.105,0,0.245,0.005,0.365,0.016
		c0-0.396-0.185-0.571-0.605-0.571c-0.271,0-0.561,0.096-0.786,0.23L39.38,40.043z M40.586,41.284c-0.53,0-0.821,0.11-0.821,0.41
		c0,0.226,0.146,0.351,0.4,0.351c0.351,0,0.641-0.22,0.641-0.751C40.711,41.284,40.661,41.284,40.586,41.284z"/>
	<path d="M42.71,42.065c0,0.145-0.01,0.314-0.02,0.415h-0.621c0.021-0.215,0.025-0.501,0.025-0.771v-3.014h0.661v0.892
		c0,0.25-0.006,0.521-0.016,0.716h0.01c0.195-0.296,0.486-0.461,0.866-0.461c0.661,0,1.071,0.551,1.071,1.326
		c0,0.801-0.426,1.371-1.121,1.371c-0.391,0-0.676-0.18-0.846-0.475H42.71z M42.761,41.194c0,0.476,0.25,0.826,0.636,0.826
		c0.385,0,0.61-0.346,0.61-0.831c0-0.491-0.21-0.826-0.605-0.826C43.016,40.363,42.761,40.719,42.761,41.194z"/>
</g>
<g>
	<path d="M61.505,30.401l-2.548,5.827h-1.55l2.669-5.867h-3.389v-1.109h4.817V30.401z"/>
</g>
<g>
	<path d="M46.388,26.786c-0.221,0.075-0.516,0.115-0.815,0.115c-1.127,0-1.897-0.661-1.897-1.782c0-1.086,0.796-1.781,1.852-1.781
		c0.301,0,0.556,0.025,0.847,0.125l-0.051,0.605c-0.25-0.115-0.47-0.16-0.74-0.16c-0.696,0-1.156,0.421-1.156,1.191
		c0,0.775,0.511,1.216,1.166,1.216c0.255,0,0.495-0.03,0.771-0.135L46.388,26.786z"/>
	<path d="M46.92,23.082h0.671v3.784H46.92V23.082z"/>
	<path d="M48.42,24.429c0.26-0.135,0.62-0.2,0.926-0.2c0.801,0,1.116,0.41,1.116,1.051c0,0.195-0.01,0.571-0.01,0.766
		c0,0.306,0.02,0.651,0.035,0.821h-0.586c-0.005-0.04-0.01-0.13-0.01-0.205c0-0.061,0.005-0.146,0.01-0.226h-0.01
		c-0.176,0.291-0.456,0.48-0.886,0.48c-0.501,0-0.861-0.3-0.861-0.801c0-0.54,0.476-0.841,1.326-0.841
		c0.105,0,0.245,0.005,0.365,0.016c0-0.396-0.185-0.571-0.605-0.571c-0.271,0-0.561,0.096-0.785,0.23L48.42,24.429z M49.626,25.67
		c-0.53,0-0.82,0.11-0.82,0.41c0,0.226,0.145,0.351,0.4,0.351c0.35,0,0.641-0.22,0.641-0.751
		C49.751,25.67,49.701,25.67,49.626,25.67z"/>
	<path d="M51.751,24.779c0.135-0.341,0.375-0.551,0.74-0.551c0.08,0,0.15,0.005,0.221,0.03l-0.016,0.575
		c-0.075-0.024-0.145-0.035-0.23-0.035c-0.45,0-0.67,0.346-0.67,1.017v1.051h-0.681v-1.812c0-0.271-0.005-0.551-0.025-0.766h0.631
		c0.01,0.115,0.02,0.35,0.02,0.49H51.751z"/>
	<path d="M53.551,25.766c0.01,0.395,0.33,0.65,0.796,0.65c0.285,0,0.535-0.075,0.75-0.211l0.011,0.551
		c-0.221,0.105-0.516,0.17-0.841,0.17c-0.846,0-1.401-0.495-1.401-1.361c0-0.775,0.516-1.336,1.291-1.336
		c0.746,0,1.131,0.445,1.131,1.377c0,0.039-0.005,0.125-0.01,0.16H53.551z M54.672,25.305c0-0.42-0.21-0.601-0.541-0.601
		c-0.295,0-0.556,0.2-0.59,0.601H54.672z"/>
	<path d="M56.485,24.719c0.19-0.31,0.486-0.49,0.856-0.49c0.686,0,0.926,0.445,0.926,1.137v1.501h-0.661v-1.241
		c0-0.495-0.024-0.861-0.465-0.861c-0.221,0-0.421,0.136-0.525,0.336c-0.075,0.145-0.11,0.346-0.11,0.601v1.166h-0.661V25.09
		c0-0.251-0.005-0.525-0.024-0.801h0.636c0.01,0.109,0.02,0.295,0.02,0.43H56.485z"/>
	<path d="M61.402,26.096c0,0.27,0.005,0.556,0.025,0.771h-0.611c-0.01-0.12-0.015-0.28-0.015-0.45h-0.01
		c-0.186,0.33-0.461,0.51-0.861,0.51c-0.69,0-1.116-0.53-1.116-1.346c0-0.796,0.445-1.352,1.121-1.352
		c0.386,0,0.651,0.181,0.812,0.461h0.01c-0.01-0.195-0.016-0.466-0.016-0.716v-0.892h0.661V26.096z M59.506,25.58
		c0,0.48,0.234,0.831,0.61,0.831c0.385,0,0.636-0.355,0.636-0.826c0-0.485-0.251-0.841-0.641-0.841
		C59.74,24.744,59.506,25.1,59.506,25.58z"/>
	<path d="M64.683,25.585c0,0.806-0.551,1.341-1.356,1.341c-0.801,0-1.356-0.545-1.356-1.346c0-0.831,0.551-1.352,1.377-1.352
		C64.132,24.228,64.683,24.764,64.683,25.585z M62.686,25.585c0,0.506,0.25,0.831,0.636,0.831c0.4,0,0.655-0.325,0.655-0.856
		c0-0.53-0.245-0.835-0.65-0.835C62.926,24.725,62.686,25.034,62.686,25.585z"/>
	<path d="M65.881,24.719c0.19-0.31,0.485-0.49,0.855-0.49c0.686,0,0.926,0.445,0.926,1.137v1.501h-0.66v-1.241
		c0-0.495-0.025-0.861-0.466-0.861c-0.22,0-0.42,0.136-0.525,0.336c-0.075,0.145-0.11,0.346-0.11,0.601v1.166h-0.66V25.09
		c0-0.251-0.005-0.525-0.025-0.801h0.636c0.01,0.109,0.021,0.295,0.021,0.43H65.881z"/>
</g>
<g>
	<path d="M56.872,10.424h-1.42V6.775c0-0.589,0.021-1.539,0.04-1.908h-0.02c-0.16,0.159-0.49,0.439-0.85,0.729l-0.36,0.29
		l-0.689-0.939l2.029-1.5h1.27V10.424z"/>
</g>
<g>
	<path d="M63.063,7.205c0,1.116-0.675,1.821-1.716,1.821c-1.031,0-1.697-0.695-1.697-1.801c0-1.156,0.641-1.812,1.737-1.812
		C62.412,5.413,63.063,6.099,63.063,7.205z M60.405,7.226c0,0.76,0.381,1.256,0.961,1.256c0.556,0,0.946-0.511,0.946-1.262
		c0-0.78-0.381-1.261-0.966-1.261C60.786,5.959,60.405,6.459,60.405,7.226z"/>
	<path d="M63.699,5.183h0.671v3.784h-0.671V5.183z"/>
	<path d="M67.542,8.196c0,0.27,0.005,0.556,0.025,0.771h-0.611c-0.01-0.12-0.015-0.28-0.015-0.45h-0.01
		c-0.186,0.33-0.461,0.51-0.861,0.51c-0.69,0-1.116-0.53-1.116-1.346c0-0.796,0.445-1.352,1.121-1.352
		c0.386,0,0.651,0.181,0.812,0.461h0.01c-0.01-0.195-0.016-0.466-0.016-0.716V5.183h0.661V8.196z M65.646,7.681
		c0,0.48,0.234,0.831,0.61,0.831c0.385,0,0.636-0.355,0.636-0.826c0-0.485-0.251-0.841-0.641-0.841
		C65.88,6.845,65.646,7.2,65.646,7.681z"/>
	<path d="M71.457,6.109c-0.275-0.11-0.496-0.15-0.711-0.15c-0.37,0-0.605,0.155-0.605,0.396c0,0.215,0.115,0.35,0.63,0.535
		c0.651,0.23,0.927,0.53,0.927,1.046c0,0.671-0.511,1.091-1.316,1.091c-0.336,0-0.636-0.05-0.926-0.149l0.064-0.616
		c0.301,0.146,0.576,0.2,0.821,0.2c0.37,0,0.636-0.155,0.636-0.435c0-0.266-0.146-0.406-0.676-0.602
		c-0.621-0.225-0.886-0.505-0.886-1c0-0.621,0.505-1.012,1.251-1.012c0.311,0,0.57,0.035,0.846,0.125L71.457,6.109z"/>
	<path d="M71.954,6.885V6.39h0.506V5.849l0.63-0.215V6.39h0.616v0.495H73.09v1.006c0,0.391,0.075,0.565,0.4,0.565
		c0.08,0,0.171-0.015,0.246-0.04l0.015,0.516c-0.125,0.045-0.29,0.065-0.461,0.065c-0.59,0-0.841-0.291-0.841-0.971V6.885H71.954z"
		/>
	<path d="M74.635,6.39l0.4,1.246c0.07,0.215,0.16,0.525,0.235,0.791h0.01c0.07-0.266,0.16-0.571,0.235-0.791l0.4-1.246h0.676
		l-1.016,2.758c-0.2,0.53-0.48,0.931-1.057,0.931c-0.165,0-0.355-0.03-0.48-0.07l0.05-0.501c0.11,0.035,0.216,0.051,0.331,0.051
		c0.22,0,0.38-0.125,0.485-0.48L73.904,6.39H74.635z"/>
	<path d="M77.029,5.183H77.7v3.784h-0.671V5.183z"/>
	<path d="M78.965,7.866c0.01,0.395,0.33,0.65,0.796,0.65c0.285,0,0.535-0.075,0.75-0.211l0.011,0.551
		c-0.221,0.105-0.516,0.17-0.841,0.17c-0.846,0-1.401-0.495-1.401-1.361c0-0.775,0.516-1.336,1.291-1.336
		c0.746,0,1.131,0.445,1.131,1.377c0,0.039-0.005,0.125-0.01,0.16H78.965z M80.086,7.405c0-0.42-0.21-0.601-0.541-0.601
		c-0.295,0-0.556,0.2-0.59,0.601H80.086z"/>
</g>
<line fill="none" stroke="#000000" stroke-linecap="round" stroke-linejoin="round" stroke-miterlimit="10" x1="68.815" y1="11.368" x2="69.056" y2="16.902"/>
</svg>
