<?xml version="1.0" encoding="utf-8"?>
<!-- Generator: Adobe Illustrator 21.1.0, SVG Export Plug-In . SVG Version: 6.00 Build 0)  -->
<svg version="1.1" id="レイヤー_1" xmlns="http://www.w3.org/2000/svg" xmlns:xlink="http://www.w3.org/1999/xlink" x="0px"
	 y="0px" viewBox="0 0 311.811 283.465" enable-background="new 0 0 311.811 283.465" xml:space="preserve">
<g>
	
		<line fill="none" stroke="#DCDDDD" stroke-width="0.75" stroke-miterlimit="10" x1="242.895" y1="76.592" x2="67.166" y2="76.592"/>
	
		<line fill="none" stroke="#DCDDDD" stroke-width="0.75" stroke-miterlimit="10" x1="242.895" y1="110.905" x2="67.166" y2="110.905"/>
	
		<line fill="none" stroke="#DCDDDD" stroke-width="0.75" stroke-miterlimit="10" x1="242.895" y1="145.217" x2="67.166" y2="145.217"/>
	
		<line fill="none" stroke="#DCDDDD" stroke-width="0.75" stroke-miterlimit="10" x1="242.895" y1="179.53" x2="67.166" y2="179.53"/>
	
		<line fill="none" stroke="#DCDDDD" stroke-width="0.75" stroke-miterlimit="10" x1="242.895" y1="213.842" x2="67.166" y2="213.842"/>
</g>
<line fill="none" stroke="#000000" stroke-miterlimit="10" x1="242.895" y1="48.523" x2="242.895" y2="241.911"/>
<line fill="none" stroke="#DCDDDD" stroke-width="0.75" stroke-miterlimit="10" x1="198.963" y1="48.523" x2="198.963" y2="241.911"/>
<line fill="none" stroke="#DCDDDD" stroke-width="0.75" stroke-miterlimit="10" x1="155.03" y1="48.523" x2="155.03" y2="241.911"/>
<line fill="none" stroke="#DCDDDD" stroke-width="0.75" stroke-miterlimit="10" x1="111.098" y1="48.523" x2="111.098" y2="241.911"/>
<line fill="none" stroke="#000000" stroke-miterlimit="10" x1="67.166" y1="48.523" x2="67.166" y2="241.911"/>
<polyline fill="none" stroke="#000000" stroke-linecap="round" stroke-miterlimit="10" points="149.759,213.842 135.261,179.53 
	118.567,145.217 108.462,110.905 153.273,76.592 "/>
<g>
	<g id="_x5F_added_x5F_direction_x5F_anchor_x5F__10_">
		<path d="M148.676,216.342c-0.78,0-1.417-0.638-1.417-1.417v-2.165c0-0.78,0.638-1.417,1.417-1.417h2.165
			c0.78,0,1.417,0.638,1.417,1.417v2.165c0,0.78-0.638,1.417-1.417,1.417H148.676z"/>
	</g>
	<g id="_x5F_added_x5F_direction_x5F_anchor_x5F__11_">
		<path d="M134.178,182.03c-0.78,0-1.417-0.638-1.417-1.417v-2.165c0-0.78,0.638-1.417,1.417-1.417h2.165
			c0.78,0,1.417,0.638,1.417,1.417v2.165c0,0.78-0.638,1.417-1.417,1.417H134.178z"/>
	</g>
	<g id="_x5F_added_x5F_direction_x5F_anchor_x5F__12_">
		<path d="M117.484,147.717c-0.78,0-1.417-0.638-1.417-1.417v-2.165c0-0.78,0.638-1.417,1.417-1.417h2.165
			c0.78,0,1.417,0.638,1.417,1.417v2.165c0,0.78-0.638,1.417-1.417,1.417H117.484z"/>
	</g>
	<g id="_x5F_added_x5F_direction_x5F_anchor_x5F__13_">
		<path d="M107.379,113.405c-0.78,0-1.417-0.638-1.417-1.417v-2.165c0-0.78,0.638-1.417,1.417-1.417h2.165
			c0.78,0,1.417,0.638,1.417,1.417v2.165c0,0.78-0.638,1.417-1.417,1.417H107.379z"/>
	</g>
	<g id="_x5F_added_x5F_direction_x5F_anchor_x5F__14_">
		<path d="M152.191,79.092c-0.78,0-1.417-0.638-1.417-1.417V75.51c0-0.78,0.638-1.417,1.417-1.417h2.165
			c0.78,0,1.417,0.638,1.417,1.417v2.165c0,0.78-0.638,1.417-1.417,1.417H152.191z"/>
	</g>
</g>
<g>
	<path d="M145.043,31.272c-0.99-0.396-1.783-0.54-2.558-0.54c-1.332,0-2.178,0.559-2.178,1.423c0,0.773,0.414,1.26,2.269,1.926
		c2.341,0.829,3.331,1.909,3.331,3.764c0,2.412-1.837,3.925-4.735,3.925c-1.207,0-2.287-0.18-3.331-0.54l0.233-2.215
		c1.081,0.522,2.071,0.721,2.953,0.721c1.332,0,2.287-0.559,2.287-1.566c0-0.954-0.522-1.459-2.431-2.161
		c-2.233-0.81-3.188-1.818-3.188-3.601c0-2.232,1.818-3.638,4.501-3.638c1.117,0,2.053,0.126,3.043,0.45L145.043,31.272z"/>
	<path d="M148.046,27.941h2.413v13.612h-2.413V27.941z"/>
	<path d="M153.446,32.785c0.937-0.486,2.232-0.721,3.331-0.721c2.881,0,4.016,1.477,4.016,3.781c0,0.702-0.036,2.053-0.036,2.755
		c0,1.099,0.072,2.341,0.126,2.953h-2.106c-0.019-0.145-0.036-0.468-0.036-0.738c0-0.216,0.018-0.522,0.036-0.811h-0.036
		c-0.631,1.045-1.639,1.729-3.188,1.729c-1.8,0-3.097-1.08-3.097-2.881c0-1.944,1.711-3.024,4.771-3.024
		c0.378,0,0.882,0.018,1.314,0.054c0-1.422-0.666-2.053-2.179-2.053c-0.973,0-2.017,0.343-2.827,0.828L153.446,32.785z
		 M157.786,37.249c-1.909,0-2.953,0.396-2.953,1.477c0,0.811,0.522,1.261,1.44,1.261c1.26,0,2.305-0.792,2.305-2.701
		C158.236,37.249,158.056,37.249,157.786,37.249z"/>
	<path d="M165.434,40.059c0,0.521-0.036,1.134-0.071,1.494h-2.233c0.072-0.774,0.091-1.801,0.091-2.772v-10.84h2.376v3.205
		c0,0.9-0.018,1.873-0.054,2.575h0.036c0.702-1.062,1.746-1.657,3.115-1.657c2.376,0,3.853,1.981,3.853,4.771
		c0,2.881-1.53,4.934-4.033,4.934c-1.404,0-2.431-0.647-3.043-1.71H165.434z M165.615,36.926c0,1.71,0.9,2.971,2.286,2.971
		c1.387,0,2.197-1.242,2.197-2.989c0-1.765-0.757-2.971-2.179-2.971C166.533,33.937,165.615,35.215,165.615,36.926z"/>
</g>
<g>
	<path d="M24.168,72.574c0-0.294-0.015-0.588-0.07-0.966c0.42,0.014,0.826,0.042,1.19,0.084c0.126,0.014,0.196,0.056,0.196,0.14
		s-0.056,0.14-0.084,0.21s-0.056,0.224-0.056,0.518v0.112c0.826,0,1.093-0.028,1.177-0.028c0.14,0,0.153,0.014,0.153,0.154v0.812
		c0,0.14-0.014,0.154-0.153,0.154c-0.084,0-0.309-0.014-0.995-0.028c0.406,0.406,0.799,0.701,1.345,1.022
		c-0.154,0.14-0.336,0.364-0.448,0.561c-0.098,0.182-0.154,0.252-0.238,0.252c-0.069,0-0.14-0.056-0.266-0.182
		c-0.252-0.252-0.448-0.504-0.631-0.798c0.015,1.359,0.07,2.213,0.07,2.396c0,0.154-0.014,0.168-0.154,0.168h-0.91
		c-0.141,0-0.154-0.014-0.154-0.168c0-0.182,0.057-0.98,0.07-2.171c-0.309,0.588-0.7,1.135-1.163,1.611
		c-0.14,0.14-0.224,0.21-0.294,0.21c-0.084,0-0.14-0.098-0.238-0.266c-0.154-0.308-0.336-0.56-0.476-0.7
		c-0.042,1.051-0.141,1.905-0.267,2.689c-0.196,1.191-0.561,2.269-1.12,3.376c-0.099,0.182-0.141,0.266-0.211,0.266
		c-0.056,0-0.14-0.084-0.266-0.238c-0.267-0.308-0.616-0.658-0.868-0.798c0.56-0.882,0.91-1.947,1.092-3.138
		c0.183-1.079,0.253-2.549,0.253-4.623c0-1.989-0.028-2.886-0.028-2.97c0-0.154,0.014-0.168,0.168-0.168
		c0.084,0,0.546,0.028,1.877,0.028h7.438c1.316,0,1.778-0.028,1.862-0.028c0.126,0,0.141,0.014,0.141,0.168v0.995
		c0,0.14-0.015,0.154-0.141,0.154c-0.084,0-0.56-0.028-1.877-0.028h-7.998v1.863c0,0.91-0.014,1.695-0.056,2.395
		c0.784-0.504,1.414-1.121,1.919-1.877h-0.099c-0.896,0-1.162,0.028-1.246,0.028c-0.154,0-0.168-0.014-0.168-0.154v-0.812
		c0-0.14,0.014-0.154,0.168-0.154c0.084,0,0.35,0.028,1.246,0.028h0.309V72.574z M23.691,81.847c-1.316,0-1.779,0.028-1.863,0.028
		c-0.14,0-0.153-0.014-0.153-0.154v-0.98c0-0.14,0.014-0.154,0.153-0.154c0.07,0,0.477,0.028,1.514,0.028v-1.443
		c0-0.462-0.015-0.924-0.085-1.289c0.519,0.014,0.854,0.042,1.359,0.098c0.14,0.014,0.224,0.084,0.224,0.154
		c0,0.098-0.042,0.168-0.084,0.266c-0.069,0.168-0.084,0.392-0.084,0.756v1.457h1.555v-2.381c0-0.519-0.027-0.924-0.111-1.331
		c0.532,0.014,0.938,0.042,1.414,0.098c0.141,0.014,0.225,0.084,0.225,0.154c0,0.112-0.042,0.196-0.07,0.28
		c-0.056,0.14-0.098,0.364-0.098,0.742h1.652c1.148,0,1.457-0.014,1.541-0.014c0.141,0,0.154,0,0.154,0.14v0.925
		c0,0.14-0.014,0.154-0.154,0.154c-0.084,0-0.393-0.028-1.541-0.028h-1.652v1.261h2.395c1.373,0,1.85-0.028,1.934-0.028
		c0.14,0,0.154,0.014,0.154,0.154v0.98c0,0.14-0.015,0.154-0.154,0.154c-0.084,0-0.561-0.028-1.934-0.028H23.691z M28.566,72.56
		c0-0.252-0.015-0.56-0.07-0.938c0.448,0,0.826,0.028,1.219,0.07c0.126,0.014,0.168,0.056,0.168,0.14s-0.042,0.126-0.07,0.21
		c-0.027,0.084-0.056,0.196-0.056,0.504v0.126h0.477c0.994,0,1.303-0.028,1.4-0.028c0.14,0,0.154,0.014,0.154,0.154v0.812
		c0,0.14-0.015,0.154-0.154,0.154c-0.098,0-0.406-0.028-1.4-0.028h-0.28c0.7,0.854,1.457,1.457,2.409,1.975
		c-0.196,0.224-0.378,0.504-0.532,0.827c-0.07,0.168-0.126,0.238-0.196,0.238s-0.168-0.056-0.322-0.182
		c-0.687-0.574-1.219-1.232-1.625-1.961c0.028,1.331,0.084,2.171,0.084,2.354c0,0.154-0.014,0.168-0.168,0.168h-0.896
		c-0.14,0-0.154-0.014-0.154-0.168c0-0.182,0.042-0.98,0.07-2.228c-0.336,0.645-0.798,1.219-1.288,1.695
		c-0.154,0.14-0.238,0.224-0.309,0.224s-0.14-0.098-0.252-0.28c-0.168-0.266-0.336-0.448-0.532-0.616
		c0.91-0.617,1.484-1.233,2.031-2.045c-0.701,0.014-0.953,0.028-1.023,0.028c-0.14,0-0.153-0.014-0.153-0.154v-0.812
		c0-0.14,0.014-0.154,0.153-0.154c0.085,0,0.379,0.028,1.317,0.028V72.56z"/>
	<path d="M40.633,76.552c-0.042,0.504-0.098,0.98-0.195,1.359c-0.141,0.518-0.322,0.995-0.589,1.429
		c1.569,0.785,3.656,1.177,6.514,1.289c-0.196,0.294-0.378,0.715-0.519,1.107c-0.098,0.308-0.126,0.406-0.294,0.406
		c-0.07,0-0.098,0-0.28-0.014c-2.731-0.224-4.79-0.742-6.373-1.625c-0.883,0.771-2.172,1.373-4.076,1.751
		c-0.141,0.028-0.267,0.042-0.322,0.042c-0.141,0-0.168-0.07-0.28-0.35c-0.168-0.378-0.364-0.687-0.603-0.98
		c1.863-0.21,3.18-0.658,4.062-1.317c-0.687-0.588-1.274-1.289-1.751-2.115c-0.07-0.14-0.042-0.168,0.126-0.266l0.826-0.448
		c0.154-0.084,0.183-0.084,0.252,0.042c0.406,0.672,0.911,1.247,1.499,1.723c0.168-0.294,0.294-0.603,0.378-0.953
		c0.07-0.294,0.127-0.672,0.154-1.079h-2.269c-1.373,0-1.85,0.028-1.934,0.028c-0.14,0-0.154-0.014-0.154-0.168
		c0-0.084,0.028-0.448,0.028-1.261v-1.989c0-0.812-0.028-1.177-0.028-1.261c0-0.14,0.015-0.154,0.154-0.154
		c0.084,0,0.561,0.028,1.934,0.028h2.353v-0.35c0-0.672-0.027-1.219-0.126-1.849c0.547,0.014,0.98,0.056,1.485,0.098
		c0.195,0.028,0.28,0.084,0.28,0.196c0,0.112-0.043,0.196-0.099,0.322c-0.07,0.154-0.098,0.393-0.098,0.967v0.616h2.395
		c1.359,0,1.836-0.028,1.92-0.028c0.14,0,0.153,0.014,0.153,0.154c0,0.084-0.027,0.448-0.027,1.261v1.989
		c0,0.812,0.027,1.176,0.027,1.261c0,0.154-0.014,0.168-0.153,0.168c-0.084,0-0.561-0.028-1.92-0.028H40.633z M39.232,75.249
		c0.014-0.714,0.014-1.471,0.014-2.157h-2.928v2.157H39.232z M43.644,73.093h-2.955c0,0.714,0.014,1.457,0,2.157h2.955V73.093z"/>
	<path d="M51.313,71.748c0.994,0,1.316-0.028,1.415-0.028c0.14,0,0.153,0.014,0.153,0.154c0,0.07-0.027,0.56-0.027,1.933
		c0.91-1.079,1.442-2.199,1.793-3.166c0.111-0.364,0.21-0.756,0.266-1.19c0.532,0.098,1.135,0.238,1.387,0.336
		c0.183,0.056,0.294,0.126,0.294,0.224c0,0.112-0.014,0.154-0.14,0.28c-0.112,0.098-0.238,0.322-0.378,0.714
		c-0.099,0.266-0.21,0.519-0.322,0.771h2.619c1.009,0,1.331-0.028,1.415-0.028c0.14,0,0.168,0.028,0.168,0.168
		c-0.028,0.392-0.028,0.771-0.028,1.163c-0.014,3.222-0.111,5.253-0.406,7.102c-0.224,1.429-0.798,2.102-2.115,2.129
		c-0.308,0-0.7,0.014-1.064-0.014c-0.406-0.028-0.406-0.028-0.504-0.476c-0.099-0.378-0.252-0.798-0.406-1.079
		c0.756,0.112,1.232,0.154,1.793,0.14c0.504,0,0.742-0.462,0.883-1.205c0.266-1.513,0.35-3.684,0.35-6.598h-3.334
		c-0.336,0.588-0.729,1.177-1.19,1.751c-0.14,0.168-0.224,0.252-0.294,0.252s-0.141-0.084-0.294-0.252
		c-0.154-0.154-0.322-0.308-0.49-0.435v2.9c0,3.264,0.027,3.88,0.027,3.964c0,0.14-0.014,0.154-0.153,0.154h-1.079
		c-0.14,0-0.154-0.014-0.154-0.154v-0.672h-2.003v1.065c0,0.154-0.014,0.168-0.168,0.168H48.26c-0.141,0-0.154-0.014-0.154-0.168
		c0-0.084,0.028-0.743,0.028-4.146v-2.423c0-2.437-0.028-3.109-0.028-3.208c0-0.14,0.014-0.154,0.154-0.154
		c0.084,0,0.378,0.028,1.19,0.028c0.168-0.491,0.336-1.023,0.435-1.471c0.056-0.266,0.084-0.476,0.112-0.798
		c0.504,0.056,1.022,0.14,1.442,0.224c0.126,0.028,0.196,0.098,0.196,0.182c0,0.098-0.028,0.14-0.126,0.224
		c-0.084,0.07-0.154,0.196-0.196,0.308c-0.154,0.42-0.309,0.896-0.477,1.331H51.313z M49.492,72.995v2.479h2.003v-2.479H49.492z
		 M51.495,79.326v-2.591h-2.003v2.591H51.495z M55.138,74.941c0.069-0.042,0.111-0.07,0.153-0.07c0.028,0,0.057,0.028,0.112,0.084
		c0.687,0.742,1.275,1.709,1.724,2.591c0.069,0.14,0.056,0.182-0.112,0.294l-0.869,0.602c-0.069,0.056-0.111,0.084-0.14,0.084
		c-0.042,0-0.07-0.042-0.098-0.126c-0.463-1.022-0.995-1.905-1.64-2.704c-0.084-0.112-0.069-0.14,0.099-0.252L55.138,74.941z"/>
	<path d="M10.768,108.26c0.069-0.098,0.14-0.168,0.266-0.14c1.051,0.35,1.891,0.798,2.689,1.373c0.098,0.07,0.154,0.126,0.154,0.21
		c0,0.042-0.028,0.098-0.057,0.154c-0.153,0.378-0.392,0.742-0.616,1.064c-0.069,0.084-0.126,0.14-0.182,0.14
		c-0.057,0-0.099-0.028-0.168-0.084c-0.896-0.658-1.808-1.121-2.83-1.527C10.376,108.891,10.6,108.485,10.768,108.26z
		 M13.037,113.457c1.331-0.701,2.479-1.359,3.838-2.423c1.121-0.854,2.62-2.199,4.034-3.908c0.084,0.616,0.196,0.966,0.406,1.569
		c0.042,0.098,0.07,0.182,0.07,0.266c0,0.112-0.042,0.21-0.154,0.322c-1.303,1.4-2.185,2.171-3.558,3.236
		c-1.219,0.925-2.521,1.723-4.188,2.634c-0.336,0.182-0.672,0.336-0.812,0.476c-0.084,0.084-0.154,0.112-0.224,0.112
		c-0.099,0-0.196-0.056-0.28-0.168c-0.294-0.294-0.673-0.841-1.037-1.429C11.721,114.032,12.211,113.877,13.037,113.457z
		 M12.463,105.039c0.099-0.168,0.183-0.196,0.351-0.112c0.896,0.364,1.862,0.882,2.633,1.555c0.084,0.056,0.112,0.126,0.112,0.182
		s-0.014,0.112-0.056,0.182c-0.196,0.35-0.477,0.798-0.715,1.051c-0.042,0.07-0.098,0.084-0.14,0.084
		c-0.07,0-0.141-0.042-0.21-0.098c-0.729-0.603-1.821-1.317-2.718-1.723C11.959,105.795,12.225,105.403,12.463,105.039z"/>
	<path d="M24.139,105.725c0.056-0.07,0.126-0.112,0.196-0.112c0.056,0,0.111,0.028,0.182,0.07c0.715,0.378,1.877,1.232,2.676,1.989
		c0.084,0.084,0.126,0.14,0.126,0.196s-0.028,0.112-0.084,0.182c-0.21,0.28-0.673,0.84-0.868,1.051
		c-0.07,0.07-0.112,0.112-0.169,0.112c-0.056,0-0.111-0.042-0.182-0.112c-0.841-0.869-1.849-1.667-2.857-2.283
		C23.466,106.439,23.872,106.005,24.139,105.725z M25.357,113.107c1.709-0.882,2.619-1.471,4.034-2.605
		c1.709-1.387,2.647-2.283,3.838-3.81c0.084,0.7,0.21,1.176,0.393,1.639c0.042,0.098,0.069,0.182,0.069,0.266
		c0,0.126-0.069,0.238-0.224,0.42c-0.742,0.868-1.947,1.989-3.222,2.969c-1.163,0.911-2.34,1.696-4.23,2.746
		c-0.631,0.379-0.812,0.519-0.938,0.645c-0.084,0.084-0.168,0.141-0.252,0.141c-0.07,0-0.154-0.057-0.238-0.154
		c-0.351-0.393-0.784-0.967-1.121-1.555C24.181,113.612,24.615,113.486,25.357,113.107z"/>
	<path d="M38.28,107.574c-0.911,0-1.709,0.042-2.312,0.07c-0.183,0.014-0.238-0.084-0.267-0.28c-0.042-0.28-0.098-1.008-0.126-1.415
		c0.631,0.07,1.373,0.098,2.689,0.098h5.001c0.42,0,0.574-0.028,0.771-0.14c0.084-0.056,0.168-0.084,0.238-0.084
		c0.084,0,0.168,0.028,0.238,0.098c0.364,0.294,0.714,0.63,0.952,0.966c0.07,0.098,0.112,0.182,0.112,0.28
		c0,0.084-0.042,0.168-0.141,0.266c-0.126,0.126-0.196,0.266-0.322,0.546c-0.686,1.653-1.54,3.194-2.717,4.552
		c-1.205,1.373-2.563,2.536-3.979,3.334c-0.126,0.084-0.252,0.126-0.378,0.126c-0.112,0-0.238-0.042-0.351-0.154
		c-0.322-0.308-0.784-0.56-1.303-0.77c2.045-1.037,3.292-2.004,4.581-3.502c1.092-1.247,1.807-2.438,2.367-3.992H38.28z
		 M47.959,104.885c0,0.84-0.672,1.499-1.513,1.499s-1.513-0.658-1.513-1.499c0-0.869,0.672-1.499,1.513-1.499
		S47.959,104.044,47.959,104.885z M45.62,104.885c0,0.476,0.35,0.826,0.826,0.826s0.826-0.35,0.826-0.826
		c0-0.477-0.35-0.827-0.826-0.827S45.62,104.408,45.62,104.885z"/>
	<path d="M52,106.664c0.238,0.07,0.267,0.238,0.183,0.434c-0.154,0.309-0.168,0.617-0.168,0.953
		c-0.028,1.751-0.294,3.082-0.757,4.118c-0.364,0.854-0.98,1.766-1.989,2.634c-0.14,0.112-0.252,0.182-0.364,0.182
		c-0.084,0-0.168-0.042-0.266-0.111c-0.351-0.238-0.687-0.406-1.19-0.589c1.092-0.826,1.835-1.681,2.325-2.788
		c0.392-0.952,0.574-1.723,0.588-3.964c0-0.532-0.028-0.756-0.14-1.177C51.019,106.454,51.664,106.552,52,106.664z M55.11,112.589
		c0.687-0.364,1.33-0.798,1.989-1.303c0.84-0.645,1.666-1.387,2.451-2.381c0.056,0.49,0.195,0.953,0.434,1.415
		c0.042,0.098,0.084,0.168,0.084,0.238c0,0.098-0.056,0.196-0.21,0.35c-0.7,0.715-1.345,1.289-2.073,1.835
		c-0.729,0.561-1.513,1.107-2.493,1.682c-0.252,0.168-0.28,0.196-0.406,0.294c-0.084,0.07-0.182,0.112-0.28,0.112
		c-0.084,0-0.182-0.042-0.294-0.112c-0.308-0.21-0.63-0.574-0.841-0.854c-0.084-0.126-0.126-0.21-0.126-0.294
		c0-0.07,0.015-0.126,0.057-0.21c0.098-0.183,0.084-0.351,0.084-1.065v-4.384c0-1.218,0-1.793-0.141-2.437
		c0.561,0.07,1.331,0.168,1.751,0.294c0.183,0.042,0.253,0.126,0.253,0.238c0,0.084-0.042,0.21-0.112,0.35
		c-0.126,0.266-0.126,0.546-0.126,1.555V112.589z"/>
	<path d="M31.521,150.363c-0.111,0.237-0.153,0.336-0.252,0.336c-0.07,0-0.154-0.057-0.322-0.168
		c-2.675-1.724-4.3-4.118-4.944-6.696c-0.742,2.956-2.508,5.253-5.071,6.71c-0.153,0.084-0.252,0.141-0.321,0.141
		c-0.099,0-0.154-0.099-0.28-0.337c-0.238-0.392-0.519-0.687-0.812-0.938c3.684-1.709,5.477-5.211,5.448-9.133
		c-0.014-0.616-0.027-1.204-0.098-1.821c0.546,0.028,1.219,0.099,1.723,0.169c0.183,0.027,0.267,0.111,0.267,0.224
		c0,0.154-0.07,0.238-0.141,0.351c-0.084,0.14-0.111,0.476-0.111,0.924c-0.015,0.168-0.015,0.337-0.015,0.505
		c0.603,4.104,2.367,6.821,5.716,8.643C31.984,149.578,31.718,149.956,31.521,150.363z"/>
	<path d="M35.675,149.676c-1.247,0-1.682,0.027-1.766,0.027c-0.14,0-0.153-0.014-0.153-0.153v-1.177
		c0-0.141,0.014-0.154,0.153-0.154c0.084,0,0.519,0.028,1.766,0.028h3.375v-7.256h-2.465c-1.358,0-1.807,0.027-1.891,0.027
		c-0.141,0-0.154-0.014-0.154-0.153v-1.177c0-0.141,0.014-0.154,0.154-0.154c0.084,0,0.532,0.028,1.891,0.028h6.724
		c1.345,0,1.793-0.028,1.877-0.028c0.14,0,0.154,0.014,0.154,0.154v1.177c0,0.14-0.015,0.153-0.154,0.153
		c-0.084,0-0.532-0.027-1.877-0.027h-2.676v7.256h3.572c1.247,0,1.681-0.028,1.765-0.028c0.141,0,0.154,0.014,0.154,0.154v1.177
		c0,0.14-0.014,0.153-0.154,0.153c-0.084,0-0.518-0.027-1.765-0.027H35.675z"/>
	<path d="M51.313,140.375c0.994,0,1.316-0.028,1.415-0.028c0.14,0,0.153,0.014,0.153,0.154c0,0.069-0.027,0.56-0.027,1.933
		c0.91-1.078,1.442-2.199,1.793-3.166c0.111-0.364,0.21-0.756,0.266-1.19c0.532,0.099,1.135,0.238,1.387,0.336
		c0.183,0.057,0.294,0.126,0.294,0.225c0,0.112-0.014,0.154-0.14,0.28c-0.112,0.098-0.238,0.322-0.378,0.714
		c-0.099,0.267-0.21,0.519-0.322,0.771h2.619c1.009,0,1.331-0.027,1.415-0.027c0.14,0,0.168,0.027,0.168,0.168
		c-0.028,0.392-0.028,0.771-0.028,1.162c-0.014,3.222-0.111,5.253-0.406,7.102c-0.224,1.43-0.798,2.102-2.115,2.13
		c-0.308,0-0.7,0.014-1.064-0.015c-0.406-0.027-0.406-0.027-0.504-0.476c-0.099-0.379-0.252-0.799-0.406-1.079
		c0.756,0.112,1.232,0.154,1.793,0.141c0.504,0,0.742-0.463,0.883-1.205c0.266-1.513,0.35-3.684,0.35-6.598h-3.334
		c-0.336,0.589-0.729,1.177-1.19,1.751c-0.14,0.168-0.224,0.252-0.294,0.252s-0.141-0.084-0.294-0.252
		c-0.154-0.154-0.322-0.308-0.49-0.435v2.9c0,3.264,0.027,3.88,0.027,3.964c0,0.14-0.014,0.154-0.153,0.154h-1.079
		c-0.14,0-0.154-0.015-0.154-0.154v-0.673h-2.003v1.065c0,0.153-0.014,0.168-0.168,0.168H48.26c-0.141,0-0.154-0.015-0.154-0.168
		c0-0.085,0.028-0.743,0.028-4.146v-2.424c0-2.437-0.028-3.109-0.028-3.207c0-0.141,0.014-0.154,0.154-0.154
		c0.084,0,0.378,0.028,1.19,0.028c0.168-0.491,0.336-1.023,0.435-1.472c0.056-0.266,0.084-0.476,0.112-0.798
		c0.504,0.056,1.022,0.14,1.442,0.224c0.126,0.028,0.196,0.099,0.196,0.183c0,0.098-0.028,0.14-0.126,0.224
		c-0.084,0.07-0.154,0.196-0.196,0.309c-0.154,0.42-0.309,0.896-0.477,1.331H51.313z M49.492,141.622v2.479h2.003v-2.479H49.492z
		 M51.495,147.953v-2.591h-2.003v2.591H51.495z M55.138,143.569c0.069-0.042,0.111-0.07,0.153-0.07c0.028,0,0.057,0.028,0.112,0.084
		c0.687,0.742,1.275,1.709,1.724,2.592c0.069,0.14,0.056,0.182-0.112,0.294l-0.869,0.603c-0.069,0.056-0.111,0.084-0.14,0.084
		c-0.042,0-0.07-0.042-0.098-0.126c-0.463-1.022-0.995-1.905-1.64-2.704c-0.084-0.111-0.069-0.14,0.099-0.252L55.138,143.569z"/>
	<path d="M34.162,176.327c0.126-0.154,0.168-0.168,0.294-0.098c0.63,0.364,1.33,0.854,1.961,1.429
		c0.056,0.056,0.084,0.098,0.084,0.14c0,0.028-0.028,0.084-0.07,0.154l-0.63,0.826c-0.112,0.154-0.154,0.183-0.267,0.07
		c-0.561-0.588-1.204-1.093-1.947-1.541c-0.069-0.042-0.098-0.084-0.098-0.111c0-0.042,0.028-0.07,0.07-0.127L34.162,176.327z
		 M34.273,183.205c0.393-0.771,0.938-1.961,1.401-3.277c0.182,0.21,0.462,0.49,0.756,0.728c0.21,0.183,0.294,0.253,0.294,0.364
		c0,0.084-0.027,0.183-0.084,0.337c-0.378,1.008-0.882,2.143-1.345,3.054c-0.111,0.224-0.182,0.406-0.21,0.546
		c-0.027,0.112-0.084,0.182-0.196,0.182c-0.069,0-0.14-0.027-0.252-0.098c-0.308-0.196-0.687-0.448-1.064-0.784
		C33.853,183.905,34.021,183.653,34.273,183.205z M34.708,172.755c0.126-0.141,0.168-0.127,0.294-0.07
		c0.7,0.435,1.345,0.938,1.934,1.499c0.056,0.056,0.084,0.084,0.084,0.111c0,0.042-0.028,0.084-0.084,0.169l-0.617,0.84
		c-0.126,0.154-0.153,0.168-0.266,0.07c-0.589-0.631-1.303-1.232-1.961-1.625c-0.126-0.084-0.126-0.098,0-0.252L34.708,172.755z
		 M38.98,179.38c-1.387,0-1.863,0.028-1.947,0.028c-0.14,0-0.154-0.014-0.154-0.154v-1.093c0-0.14,0.015-0.154,0.154-0.154
		c0.084,0,0.561,0.028,1.947,0.028h1.723v-1.765h-1.961c-0.183,0.35-0.393,0.714-0.616,1.036c-0.126,0.196-0.183,0.28-0.252,0.28
		c-0.07,0-0.154-0.07-0.309-0.21c-0.252-0.21-0.561-0.393-0.868-0.504c0.742-0.953,1.261-1.919,1.568-2.914
		c0.112-0.364,0.168-0.616,0.196-0.967c0.462,0.099,0.868,0.225,1.232,0.364c0.141,0.057,0.238,0.099,0.238,0.196
		c0,0.084-0.056,0.154-0.126,0.238c-0.07,0.098-0.154,0.28-0.252,0.588c-0.057,0.183-0.141,0.379-0.21,0.575h1.358v-0.393
		c0-0.967,0-1.387-0.098-2.045c0.532,0.014,1.022,0.042,1.484,0.098c0.141,0.014,0.238,0.07,0.238,0.154
		c0,0.112-0.056,0.196-0.098,0.294c-0.07,0.183-0.085,0.477-0.085,1.471v0.421h1.457c1.289,0,1.737-0.028,1.821-0.028
		c0.14,0,0.154,0.014,0.154,0.154v1.05c0,0.154-0.015,0.169-0.154,0.169c-0.084,0-0.532-0.028-1.821-0.028h-1.457v1.765h1.989
		c1.373,0,1.85-0.028,1.934-0.028c0.126,0,0.14,0.015,0.14,0.154v1.093c0,0.141-0.014,0.154-0.14,0.154
		c-0.084,0-0.561-0.028-1.934-0.028h-0.868v3.712c0,0.309,0.042,0.463,0.168,0.519c0.154,0.07,0.351,0.084,0.645,0.084
		c0.35,0,0.49-0.056,0.645-0.182c0.196-0.154,0.224-0.519,0.252-1.695c0.238,0.154,0.603,0.28,0.98,0.378
		c0.351,0.099,0.364,0.099,0.336,0.463c-0.084,1.288-0.224,1.793-0.63,2.059c-0.393,0.267-0.953,0.336-1.751,0.336
		c-0.841,0-1.373-0.056-1.681-0.279c-0.238-0.183-0.364-0.406-0.364-1.065v-4.328h-1.149c-0.195,2.899-1.064,4.44-3.306,5.715
		c-0.154,0.084-0.252,0.127-0.336,0.127c-0.098,0-0.168-0.07-0.309-0.267c-0.237-0.336-0.504-0.603-0.77-0.757
		c2.353-1.05,3.18-2.437,3.291-4.818H38.98z"/>
	<path d="M55.683,185.278c-0.154,0-0.168-0.014-0.168-0.154c0-0.182,0.084-1.835,0.112-3.418c-0.7,1.148-1.667,2.129-2.731,2.886
		c-0.154,0.112-0.252,0.168-0.322,0.168c-0.084,0-0.141-0.084-0.267-0.294c-0.182-0.309-0.42-0.532-0.63-0.729
		c1.4-0.756,2.465-1.681,3.264-2.857h-0.07c-1.219,0-1.639,0.028-1.736,0.028c-0.141,0-0.154-0.015-0.154-0.154
		c0-0.084,0.027-0.462,0.027-1.289v-2.073c0-0.84-0.027-1.204-0.027-1.303c0-0.14,0.014-0.153,0.154-0.153
		c0.098,0,0.518,0.027,1.736,0.027h0.715v-0.924h-0.953c-1.33,0-1.765,0.027-1.849,0.027c-0.14,0-0.154-0.014-0.154-0.168v-0.126
		l-0.07,0.042c-0.14,0.099-0.224,0.225-0.434,0.547c-0.729,1.162-1.471,2.227-2.129,3.095c0.476-0.014,0.966-0.042,1.471-0.084
		c-0.112-0.308-0.225-0.602-0.351-0.882c-0.056-0.126-0.028-0.168,0.14-0.238l0.631-0.267c0.154-0.069,0.168-0.056,0.224,0.084
		c0.406,0.812,0.659,1.667,0.883,2.536c0.028,0.14,0,0.195-0.168,0.252l-0.687,0.252c-0.196,0.07-0.224,0.07-0.252-0.098
		l-0.126-0.574l-0.812,0.069v3.838c0,1.289,0.028,1.766,0.028,1.835c0,0.141-0.015,0.154-0.154,0.154h-1.064
		c-0.141,0-0.154-0.014-0.154-0.154c0-0.084,0.028-0.546,0.028-1.835v-3.726l-1.051,0.084c-0.238,0.014-0.42,0.056-0.532,0.112
		c-0.084,0.042-0.126,0.056-0.21,0.056c-0.099,0-0.141-0.084-0.169-0.224c-0.069-0.364-0.126-0.743-0.168-1.191
		c0.393,0.028,0.687,0.057,1.051,0.043c0.267-0.337,0.519-0.687,0.757-1.037c-0.532-0.729-1.163-1.429-1.821-2.073
		c-0.056-0.056-0.07-0.098-0.07-0.126c0-0.056,0.042-0.098,0.099-0.182l0.518-0.687c0.112-0.141,0.154-0.154,0.253-0.042
		c0.111,0.126,0.237,0.238,0.35,0.35c0.294-0.476,0.603-1.036,0.841-1.568c0.126-0.28,0.182-0.462,0.252-0.742
		c0.406,0.153,0.812,0.336,1.163,0.504c0.14,0.07,0.182,0.14,0.182,0.225c0,0.084-0.056,0.14-0.126,0.182
		c-0.112,0.07-0.168,0.154-0.267,0.336c-0.42,0.742-0.756,1.317-1.219,1.976c0.196,0.238,0.406,0.462,0.603,0.714
		c0.322-0.518,0.631-1.036,0.925-1.568c0.154-0.294,0.294-0.603,0.406-0.925c0.378,0.154,0.854,0.378,1.232,0.616v-0.504
		c0-0.141,0.015-0.154,0.154-0.154c0.084,0,0.519,0.028,1.849,0.028h0.953c-0.015-0.589-0.042-0.925-0.112-1.401
		c0.49,0.015,0.925,0.042,1.387,0.112c0.126,0.014,0.224,0.084,0.224,0.154c0,0.098-0.056,0.196-0.098,0.28
		c-0.056,0.126-0.084,0.308-0.084,0.854h1.442c1.331,0,1.779-0.028,1.85-0.028c0.14,0,0.154,0.014,0.154,0.154v0.952
		c0,0.154-0.015,0.168-0.154,0.168c-0.07,0-0.519-0.027-1.85-0.027h-1.442v0.924h0.799c1.232,0,1.667-0.027,1.765-0.027
		c0.14,0,0.154,0.014,0.154,0.153c0,0.084-0.028,0.463-0.028,1.303v2.073c0,0.827,0.028,1.205,0.028,1.289
		c0,0.14-0.015,0.154-0.154,0.154c-0.098,0-0.532-0.028-1.765-0.028H57.49c0.771,1.064,1.793,1.849,3.11,2.592
		c-0.294,0.279-0.477,0.574-0.616,0.91c-0.099,0.21-0.141,0.308-0.225,0.308c-0.07,0-0.154-0.056-0.294-0.168
		c-1.121-0.854-1.961-1.736-2.619-2.885c0.027,1.597,0.111,3.306,0.111,3.487c0,0.141-0.014,0.154-0.153,0.154H55.683z
		 M48.008,181.314c0.027-0.309,0.042-0.561,0.027-0.896c0.421,0.069,0.771,0.14,1.079,0.224c0.168,0.042,0.238,0.112,0.238,0.168
		c0,0.084-0.015,0.126-0.07,0.21c-0.042,0.07-0.084,0.28-0.112,0.519c-0.084,0.784-0.224,1.723-0.462,2.521
		c-0.07,0.224-0.098,0.336-0.183,0.336c-0.069,0-0.168-0.069-0.321-0.168c-0.183-0.112-0.589-0.308-0.771-0.364
		C47.741,183.121,47.937,182.266,48.008,181.314z M52.056,180.319c0.168-0.056,0.183-0.042,0.238,0.099
		c0.196,0.518,0.406,1.303,0.546,1.975c0.028,0.141,0.028,0.183-0.168,0.252l-0.687,0.225c-0.195,0.069-0.21,0.056-0.237-0.099
		c-0.127-0.84-0.309-1.555-0.477-2.045c-0.042-0.14-0.028-0.154,0.14-0.21L52.056,180.319z M55.6,177.952v-0.952h-1.358v0.952H55.6z
		 M55.6,179.857v-0.967h-1.358v0.967H55.6z M56.889,176.999v0.952h1.456v-0.952H56.889z M58.345,178.89h-1.456v0.967h1.456V178.89z"
		/>
	<path d="M22.5,216.888c-0.141,0-0.154,0-0.154-0.141c0-0.098,0.028-0.672,0.028-3.796v-2.228c0-2.213-0.028-2.829-0.028-2.913
		c0-0.141,0.014-0.154,0.154-0.154c0.098,0,0.42,0.028,1.414,0.028h1.625c0.995,0,1.317-0.028,1.415-0.028
		c0.14,0,0.154,0.014,0.154,0.154c0,0.084-0.028,0.672-0.028,2.507v2.409c0,2.97,0.028,3.53,0.028,3.614
		c0,0.141-0.015,0.154-0.154,0.154h-1.051c-0.154,0-0.168-0.014-0.168-0.154v-0.687h-1.989v1.093c0,0.141-0.014,0.141-0.168,0.141
		H22.5z M23.746,208.946v2.045h1.989v-2.045H23.746z M25.735,214.38v-2.129h-1.989v2.129H25.735z M33.846,215.977
		c0,0.658,0.028,1.373,0.028,1.934c0,0.546-0.099,0.882-0.406,1.148c-0.322,0.28-0.883,0.364-1.877,0.364
		c-0.435,0-0.435,0-0.532-0.435c-0.084-0.378-0.225-0.771-0.393-1.051c0.477,0.042,0.938,0.057,1.205,0.057
		c0.434,0,0.546-0.126,0.546-0.49v-2.689h-2.871c-0.351,2.199-1.135,3.39-2.494,4.496c-0.168,0.14-0.252,0.21-0.336,0.21
		c-0.07,0-0.154-0.084-0.308-0.252c-0.267-0.28-0.519-0.504-0.854-0.7c2.129-1.541,2.787-2.773,2.787-7.48v-1.723
		c0-1.232-0.028-1.863-0.028-1.961c0-0.141,0.015-0.154,0.168-0.154c0.084,0,0.448,0.028,1.569,0.028h2.087
		c1.106,0,1.485-0.028,1.569-0.028c0.153,0,0.168,0.014,0.168,0.154c0,0.084-0.028,0.729-0.028,1.961V215.977z M32.417,213.526
		v-1.835h-2.634c-0.014,0.673-0.042,1.289-0.084,1.835H32.417z M29.783,208.595v1.807h2.634v-1.807H29.783z"/>
	<path d="M40.254,212.616c0.785-0.448,1.443-0.631,2.228-0.631c2.045,0,3.474,1.345,3.474,3.362c0,2.339-1.891,3.838-4.889,3.838
		c-1.765,0-2.829-0.757-2.829-2.06c0-0.938,0.882-1.709,1.975-1.709c1.317,0,2.283,0.701,2.634,2.046
		c0.98-0.448,1.429-1.064,1.429-2.13c0-1.274-0.896-2.115-2.199-2.115c-1.163,0-2.451,0.519-3.586,1.485
		c-0.406,0.364-0.799,0.771-1.219,1.19c-0.098,0.099-0.168,0.154-0.238,0.154c-0.056,0-0.126-0.042-0.21-0.126
		c-0.294-0.252-0.603-0.616-0.826-0.911c-0.084-0.111-0.042-0.21,0.07-0.321c1.092-0.883,2.059-1.779,3.319-3.096
		c0.868-0.896,1.526-1.598,2.171-2.396c-0.84,0.154-1.835,0.35-2.703,0.532c-0.183,0.042-0.364,0.084-0.588,0.168
		c-0.07,0.028-0.211,0.07-0.28,0.07c-0.141,0-0.238-0.07-0.309-0.238c-0.168-0.322-0.294-0.715-0.49-1.513
		c0.42,0.056,0.883,0.056,1.303,0.027c0.854-0.084,2.087-0.266,3.18-0.476c0.351-0.07,0.631-0.141,0.771-0.21
		c0.07-0.042,0.196-0.112,0.266-0.112c0.141,0,0.225,0.042,0.322,0.112c0.421,0.322,0.701,0.602,0.938,0.896
		c0.112,0.126,0.154,0.224,0.154,0.336c0,0.14-0.084,0.266-0.238,0.336c-0.237,0.112-0.35,0.21-0.616,0.448
		c-1.022,0.995-1.961,1.976-3.025,2.998L40.254,212.616z M40.268,216.608c-0.406,0-0.673,0.238-0.673,0.532
		c0,0.434,0.378,0.729,1.219,0.729c0.252,0,0.435-0.015,0.645-0.057C41.276,217.041,40.856,216.608,40.268,216.608z"/>
	<path d="M50.417,209.211c0.126,0.057,0.225,0.154,0.225,0.252c0,0.084-0.042,0.225-0.112,0.393
		c-0.056,0.168-0.126,0.771-0.126,1.373c0,0.896,0.027,1.904,0.252,3.193c0.196,1.106,0.561,2.06,1.148,2.06
		c0.448,0,0.799-0.49,1.345-1.947c0.309,0.49,0.616,0.812,0.896,1.078c0.168,0.154,0.168,0.322,0.099,0.519
		c-0.532,1.429-1.401,2.186-2.382,2.186c-1.093,0-2.241-1.289-2.619-3.656c-0.225-1.331-0.336-2.788-0.336-4.076
		c0-0.771-0.028-1.19-0.169-1.835C49.31,208.833,49.997,209.001,50.417,209.211z M56.917,210.094
		c0.056-0.028,0.111-0.057,0.153-0.057c0.057,0,0.099,0.028,0.154,0.085c1.274,1.106,2.396,3.039,2.746,4.79
		c0.042,0.183-0.042,0.238-0.154,0.309c-0.364,0.237-0.715,0.434-1.093,0.56c-0.168,0.057-0.267,0.015-0.294-0.153
		c-0.477-2.004-1.19-3.46-2.62-4.889C56.343,210.402,56.692,210.206,56.917,210.094z"/>
</g>
<g>
	<path d="M260.387,79.928c0,0.462,0.014,0.574,0.127,0.687c0.111,0.126,0.447,0.196,1.008,0.196c0.672,0,0.98-0.112,1.177-0.308
		c0.224-0.238,0.337-0.729,0.351-1.905c0.238,0.182,0.63,0.322,1.022,0.42c0.351,0.084,0.351,0.084,0.336,0.435
		c-0.056,1.148-0.294,1.723-0.687,2.115c-0.393,0.406-0.924,0.603-2.311,0.603c-1.289,0-1.877-0.154-2.158-0.42
		c-0.224-0.21-0.336-0.518-0.336-1.358v-3.852h-1.695c-0.041,1.499-0.363,2.577-0.994,3.516c-0.588,0.925-1.582,1.639-2.998,2.186
		c-0.153,0.056-0.252,0.098-0.321,0.098c-0.112,0-0.169-0.098-0.294-0.336c-0.211-0.35-0.463-0.645-0.742-0.911
		c1.596-0.406,2.465-0.966,3.066-1.765c0.463-0.63,0.785-1.471,0.812-2.787h-1.793c-1.26,0-1.68,0.028-1.765,0.028
		c-0.153,0-0.168-0.014-0.168-0.154V75.32c0-0.126,0.015-0.14,0.168-0.14c0.085,0,0.505,0.028,1.765,0.028h3.446v-2.003h-2.675
		c-0.295,0.448-0.617,0.869-0.995,1.289c-0.14,0.154-0.224,0.238-0.294,0.238s-0.154-0.084-0.309-0.238
		c-0.238-0.224-0.518-0.448-0.826-0.602c0.994-0.938,1.639-1.961,2.059-2.942c0.197-0.406,0.281-0.728,0.337-1.106
		c0.504,0.112,0.938,0.266,1.303,0.406c0.126,0.056,0.224,0.126,0.224,0.21s-0.042,0.14-0.126,0.21
		c-0.098,0.084-0.168,0.21-0.252,0.406c-0.126,0.28-0.238,0.56-0.364,0.812h1.919v-0.77c0-0.785-0.014-1.135-0.099-1.555
		c0.533,0.028,1.01,0.056,1.5,0.112c0.125,0.014,0.224,0.07,0.224,0.154c0,0.098-0.042,0.168-0.084,0.28
		c-0.07,0.126-0.084,0.378-0.084,0.925v0.854h2.213c1.358,0,1.835-0.028,1.919-0.028c0.141,0,0.154,0.014,0.154,0.168v1.051
		c0,0.14-0.014,0.154-0.154,0.154c-0.084,0-0.561-0.028-1.919-0.028h-2.213v2.003h3.628c1.246,0,1.681-0.028,1.765-0.028
		c0.14,0,0.14,0.014,0.14,0.14v1.093c0,0.14,0,0.154-0.14,0.154c-0.084,0-0.519-0.028-1.765-0.028h-2.102V79.928z"/>
	<path d="M269.106,79.242c0.294,0.588,0.588,0.938,1.163,1.177c0.49,0.196,1.372,0.266,2.591,0.266c1.807,0,4.021-0.098,6.022-0.294
		c-0.195,0.294-0.321,0.658-0.377,1.05c-0.07,0.448-0.07,0.448-0.52,0.477c-1.778,0.098-3.445,0.126-4.902,0.126
		c-1.442,0-2.605-0.112-3.277-0.392c-0.645-0.266-1.022-0.659-1.373-1.247c-0.434,0.42-0.924,0.841-1.442,1.233
		c-0.14,0.112-0.224,0.196-0.28,0.28c-0.07,0.098-0.126,0.126-0.21,0.126c-0.056,0-0.14-0.056-0.196-0.168
		c-0.196-0.364-0.379-0.812-0.574-1.317c0.364-0.168,0.561-0.266,0.84-0.434c0.393-0.252,0.827-0.588,1.178-0.896v-3.11h-0.701
		c-0.756,0-0.952,0.028-1.022,0.028c-0.153,0-0.168-0.014-0.168-0.168v-1.064c0-0.14,0.015-0.154,0.168-0.154
		c0.07,0,0.267,0.028,1.022,0.028h0.883c0.742,0,0.967-0.028,1.051-0.028c0.14,0,0.154,0.014,0.154,0.154
		c0,0.084-0.028,0.476-0.028,1.331V79.242z M267.047,69.969c0.07-0.056,0.112-0.084,0.168-0.084c0.028,0,0.07,0.028,0.127,0.07
		c0.658,0.602,1.288,1.26,1.82,2.059c0.084,0.126,0.084,0.14-0.07,0.28l-0.784,0.672c-0.069,0.07-0.126,0.098-0.168,0.098
		s-0.069-0.028-0.112-0.098c-0.546-0.868-1.135-1.569-1.779-2.157c-0.111-0.112-0.098-0.126,0.057-0.252L267.047,69.969z
		 M269.975,74.521c-0.141,0.168-0.21,0.252-0.28,0.252c-0.084,0-0.153-0.098-0.294-0.28c-0.196-0.266-0.379-0.434-0.603-0.588
		c1.079-1.106,1.835-2.213,2.354-3.459c0.153-0.393,0.238-0.617,0.294-0.925c0.42,0.07,0.91,0.182,1.289,0.308
		c0.14,0.042,0.21,0.098,0.21,0.182c0,0.098-0.056,0.154-0.14,0.224c-0.127,0.098-0.168,0.21-0.281,0.435l-0.49,0.854h1.892
		c0.252-0.448,0.421-0.785,0.574-1.205c0.084-0.252,0.126-0.448,0.183-0.728c0.518,0.084,0.967,0.182,1.344,0.294
		c0.113,0.042,0.197,0.098,0.197,0.182s-0.057,0.14-0.141,0.21c-0.098,0.084-0.21,0.182-0.295,0.378
		c-0.139,0.336-0.279,0.588-0.434,0.869h0.925c1.218,0,1.624-0.028,1.708-0.028c0.154,0,0.169,0.014,0.169,0.168v0.883
		c0,0.14-0.015,0.154-0.169,0.154c-0.084,0-0.49-0.028-1.708-0.028h-1.19v1.148h0.615c1.219,0,1.625-0.028,1.709-0.028
		c0.141,0,0.154,0.014,0.154,0.168v0.869c0,0.14-0.014,0.154-0.154,0.154c-0.084,0-0.49-0.028-1.709-0.028h-0.615v1.177h0.615
		c1.219,0,1.625-0.028,1.709-0.028c0.141,0,0.154,0.014,0.154,0.168v0.854c0,0.14-0.014,0.154-0.154,0.154
		c-0.084,0-0.49-0.028-1.709-0.028h-0.615v1.232h1.135c1.33,0,1.778-0.028,1.862-0.028c0.14,0,0.154,0.014,0.154,0.168v0.896
		c0,0.154-0.015,0.168-0.154,0.168c-0.084,0-0.532-0.028-1.862-0.028h-3.811c-1.345,0-1.821,0.028-1.905,0.028
		c-0.14,0-0.153-0.014-0.153-0.168c0-0.084,0.027-0.658,0.027-1.849v-3.67L269.975,74.521z M273.77,73.821v-1.148h-2.073v1.148
		H273.77z M273.77,76.132v-1.177h-2.073v1.177H273.77z M273.77,78.485v-1.232h-2.073v1.232H273.77z"/>
	<path d="M283.568,71.748c0.994,0,1.316-0.028,1.415-0.028c0.14,0,0.153,0.014,0.153,0.154c0,0.07-0.027,0.56-0.027,1.933
		c0.91-1.079,1.443-2.199,1.793-3.166c0.111-0.364,0.21-0.756,0.266-1.19c0.533,0.098,1.135,0.238,1.387,0.336
		c0.183,0.056,0.295,0.126,0.295,0.224c0,0.112-0.014,0.154-0.141,0.28c-0.111,0.098-0.238,0.322-0.378,0.714
		c-0.099,0.266-0.21,0.519-0.322,0.771h2.62c1.008,0,1.33-0.028,1.414-0.028c0.141,0,0.168,0.028,0.168,0.168
		c-0.027,0.392-0.027,0.771-0.027,1.163c-0.015,3.222-0.112,5.253-0.406,7.102c-0.225,1.429-0.799,2.102-2.115,2.129
		c-0.309,0-0.701,0.014-1.064-0.014c-0.406-0.028-0.406-0.028-0.505-0.476c-0.099-0.378-0.252-0.798-0.406-1.079
		c0.757,0.112,1.233,0.154,1.793,0.14c0.505,0,0.743-0.462,0.883-1.205c0.267-1.513,0.351-3.684,0.351-6.598h-3.334
		c-0.336,0.588-0.729,1.177-1.191,1.751c-0.14,0.168-0.224,0.252-0.294,0.252c-0.069,0-0.14-0.084-0.294-0.252
		c-0.154-0.154-0.322-0.308-0.49-0.435v2.9c0,3.264,0.027,3.88,0.027,3.964c0,0.14-0.014,0.154-0.153,0.154h-1.079
		c-0.14,0-0.154-0.014-0.154-0.154v-0.672h-2.002v1.065c0,0.154-0.015,0.168-0.168,0.168h-1.065c-0.14,0-0.153-0.014-0.153-0.168
		c0-0.084,0.027-0.743,0.027-4.146v-2.423c0-2.437-0.027-3.109-0.027-3.208c0-0.14,0.014-0.154,0.153-0.154
		c0.084,0,0.378,0.028,1.19,0.028c0.168-0.491,0.336-1.023,0.435-1.471c0.056-0.266,0.084-0.476,0.112-0.798
		c0.504,0.056,1.022,0.14,1.442,0.224c0.126,0.028,0.196,0.098,0.196,0.182c0,0.098-0.027,0.14-0.126,0.224
		c-0.084,0.07-0.154,0.196-0.196,0.308c-0.154,0.42-0.309,0.896-0.477,1.331H283.568z M281.748,72.995v2.479h2.002v-2.479H281.748z
		 M283.75,79.326v-2.591h-2.002v2.591H283.75z M287.392,74.941c0.07-0.042,0.111-0.07,0.154-0.07c0.027,0,0.056,0.028,0.111,0.084
		c0.688,0.742,1.275,1.709,1.724,2.591c0.069,0.14,0.056,0.182-0.112,0.294l-0.869,0.602c-0.069,0.056-0.111,0.084-0.14,0.084
		c-0.042,0-0.069-0.042-0.098-0.126c-0.462-1.022-0.995-1.905-1.64-2.704c-0.084-0.112-0.069-0.14,0.099-0.252L287.392,74.941z"/>
	<path d="M253.397,111.44c-0.309,0.35-0.63,0.7-0.967,1.022c-0.099,0.098-0.183,0.154-0.252,0.154c-0.099,0-0.168-0.084-0.21-0.266
		c-0.112-0.392-0.267-0.756-0.435-0.98c1.317-1.008,2.367-2.437,3.054-4.09h-1.177c-0.938,0-1.232,0.028-1.316,0.028
		c-0.14,0-0.14-0.014-0.14-0.154v-1.037c0-0.14,0-0.154,0.14-0.154c0.084,0,0.378,0.028,1.316,0.028v-0.504
		c0-0.56,0-1.121-0.084-1.653c0.505,0.014,0.952,0.042,1.415,0.098c0.14,0.014,0.225,0.07,0.225,0.154
		c0,0.112-0.043,0.196-0.085,0.294c-0.084,0.168-0.084,0.462-0.084,1.093v0.518h0.378c0.127,0,0.197-0.028,0.238-0.056
		c0.043-0.028,0.098-0.056,0.168-0.056c0.112,0,0.183,0.056,0.463,0.336c0.21,0.224,0.336,0.434,0.336,0.532
		c0,0.084-0.057,0.14-0.141,0.21c-0.111,0.084-0.168,0.238-0.293,0.532c-0.309,0.672-0.673,1.358-1.121,2.045
		c0.154,0.21,0.309,0.406,0.477,0.588c0.224-0.28,0.392-0.546,0.531-0.812c0.084-0.154,0.169-0.322,0.238-0.532
		c0.281,0.168,0.603,0.364,0.841,0.546c0.084,0.056,0.126,0.098,0.126,0.168s-0.042,0.084-0.111,0.126
		c-0.113,0.056-0.168,0.126-0.267,0.266c-0.183,0.266-0.392,0.561-0.673,0.896c0.225,0.182,0.49,0.378,0.785,0.574
		c-0.154,0.112-0.393,0.435-0.561,0.743c-0.084,0.14-0.126,0.21-0.196,0.21c-0.069,0-0.14-0.07-0.28-0.21
		c-0.35-0.364-0.672-0.729-0.952-1.093v3.88c0,1.051,0.028,1.555,0.028,1.625c0,0.14-0.015,0.154-0.154,0.154h-1.135
		c-0.141,0-0.154-0.015-0.154-0.154c0-0.084,0.028-0.574,0.028-1.625V111.44z M262.292,111.818c0.168,0,0.267-0.028,0.322-0.056
		c0.042-0.014,0.099-0.042,0.168-0.042c0.099,0,0.21,0.056,0.49,0.364c0.267,0.252,0.364,0.406,0.364,0.504
		c0,0.126-0.07,0.182-0.195,0.252c-0.113,0.056-0.211,0.14-0.421,0.393c-0.421,0.49-0.882,0.924-1.387,1.316
		c0.896,0.322,1.961,0.519,3.208,0.63c-0.183,0.225-0.336,0.547-0.435,0.883c-0.126,0.435-0.126,0.435-0.561,0.393
		c-1.372-0.211-2.535-0.561-3.53-1.093c-1.064,0.546-2.311,0.924-3.823,1.177c-0.421,0.069-0.421,0.069-0.603-0.337
		c-0.112-0.252-0.252-0.49-0.477-0.742c1.569-0.21,2.746-0.49,3.713-0.882c-0.406-0.322-0.771-0.673-1.107-1.079
		c-0.434,0.351-0.896,0.658-1.358,0.896c-0.168,0.084-0.267,0.14-0.337,0.14c-0.098,0-0.153-0.098-0.279-0.321
		c-0.141-0.253-0.351-0.505-0.519-0.645c0.995-0.435,1.919-1.079,2.605-1.808c0.183-0.196,0.336-0.392,0.462-0.616
		c-0.616,0.014-0.883,0.028-0.952,0.028c-0.14,0-0.14-0.014-0.14-0.154c0-0.098,0.014-0.392,0.014-1.177v-2.003
		c-0.154,0.182-0.238,0.266-0.336,0.266c-0.084,0-0.168-0.056-0.322-0.196c-0.238-0.21-0.533-0.378-0.799-0.49
		c0.742-0.756,1.331-1.779,1.667-2.647c0.126-0.35,0.224-0.686,0.252-1.022c0.505,0.056,0.967,0.168,1.274,0.224
		c0.141,0.042,0.238,0.07,0.238,0.168c0.014,0.07-0.014,0.14-0.111,0.238c-0.07,0.084-0.168,0.266-0.309,0.645h3.586
		c1.219,0,1.639-0.028,1.723-0.028c0.127,0,0.141,0.014,0.141,0.168v0.924c0,0.14-0.014,0.154-0.141,0.154
		c-0.084,0-0.504-0.028-1.723-0.028h-4.118c-0.112,0.224-0.238,0.448-0.364,0.672h3.6c1.219,0,1.625-0.028,1.723-0.028
		c0.141,0,0.154,0.014,0.154,0.168c0,0.084-0.027,0.406-0.027,1.163v1.653c0,0.785,0.027,1.093,0.027,1.177
		c0,0.14-0.014,0.154-0.154,0.154c-0.098,0-0.504-0.028-1.723-0.028h-2.354c0.141,0.042,0.267,0.098,0.421,0.14
		c0.084,0.028,0.126,0.07,0.126,0.14c0,0.084-0.057,0.126-0.141,0.182c-0.069,0.042-0.125,0.098-0.195,0.21H262.292z
		 M258.889,108.582h3.334v-0.672h-3.334V108.582z M262.223,109.493h-3.334v0.645h3.334V109.493z M259.043,112.841
		c0.363,0.435,0.812,0.798,1.316,1.107c0.477-0.322,0.91-0.672,1.33-1.107H259.043z"/>
	<path d="M269.904,112.028c0.49,0.645,1.148,1.219,1.976,1.738c-0.183,0.195-0.378,0.49-0.546,0.84
		c-0.057,0.126-0.127,0.196-0.211,0.196s-0.182-0.07-0.322-0.224c-0.406-0.435-0.896-0.995-1.26-1.598
		c0.027,1.653,0.069,3.152,0.069,3.502c0,0.154-0.014,0.168-0.153,0.168h-1.051c-0.141,0-0.154-0.014-0.154-0.168
		c0-0.336,0.027-1.694,0.056-3.264c-0.42,0.784-0.966,1.485-1.597,2.129c-0.141,0.141-0.225,0.211-0.294,0.211
		c-0.07,0-0.112-0.07-0.183-0.211c-0.195-0.392-0.393-0.658-0.616-0.868c0.925-0.616,1.681-1.429,2.298-2.452h-0.238
		c-1.121,0-1.514,0.028-1.598,0.028c-0.14,0-0.154-0.014-0.154-0.154v-0.98c0-0.126,0.015-0.14,0.154-0.14
		c0.084,0,0.477,0.028,1.598,0.028h0.616c0-0.672-0.028-1.037-0.084-1.541c0.504,0.014,0.868,0.042,1.274,0.112l0.112,0.028
		c-0.085-0.154-0.126-0.392-0.126-0.743l0.014-2.059l-0.784,0.014c-0.21,1.513-0.715,2.493-1.808,3.432
		c-0.168,0.14-0.252,0.21-0.336,0.21s-0.14-0.098-0.266-0.266c-0.183-0.266-0.406-0.477-0.673-0.645
		c1.135-0.7,1.64-1.429,1.849-2.704c-0.924,0.014-1.344,0.042-1.471,0.042c-0.125,0-0.14-0.014-0.14-0.168v-0.953
		c0-0.154,0.015-0.168,0.14-0.168c0.141,0,0.589,0.028,1.569,0.028c0.015-0.168,0.015-0.336,0.015-0.519
		c0-0.364,0-0.729-0.057-1.121c0.462,0.028,0.854,0.056,1.219,0.112c0.154,0.014,0.238,0.07,0.238,0.154
		c0,0.098-0.028,0.182-0.07,0.266c-0.07,0.098-0.084,0.28-0.098,0.714c0,0.126-0.015,0.252-0.015,0.364h0.224
		c1.121-0.014,1.485-0.042,1.556-0.042c0.126,0,0.14,0,0.14,0.154c-0.014,0.35-0.027,0.826-0.027,1.219l-0.015,1.457
		c0,0.196-0.014,0.28,0.015,0.35c0.027,0.056,0.084,0.084,0.195,0.084c0.084,0,0.141-0.014,0.196-0.084
		c0.056-0.07,0.085-0.434,0.085-1.19c0.153,0.126,0.308,0.224,0.434,0.308c0.729-0.98,1.177-2.143,1.443-3.068
		c0.055-0.196,0.125-0.518,0.168-0.826c0.476,0.084,0.924,0.182,1.219,0.266c0.153,0.042,0.252,0.126,0.252,0.224
		c0,0.07-0.043,0.14-0.127,0.21c-0.111,0.098-0.154,0.252-0.266,0.532c-0.126,0.364-0.295,0.756-0.477,1.177h1.359
		c0.195-0.448,0.35-0.869,0.477-1.303c0.084-0.28,0.153-0.602,0.195-0.911c0.463,0.084,0.938,0.196,1.246,0.294
		c0.141,0.042,0.238,0.098,0.238,0.196c0,0.098-0.041,0.154-0.14,0.252c-0.084,0.084-0.153,0.168-0.28,0.532
		c-0.111,0.266-0.252,0.588-0.42,0.938h0.448c1.009,0,1.331-0.028,1.415-0.028c0.14,0,0.154,0.014,0.154,0.154v0.995
		c0,0.14-0.015,0.154-0.154,0.154c-0.084,0-0.406-0.028-1.415-0.028h-0.532v1.499c1.092,0,1.498-0.028,1.582-0.028
		c0.154,0,0.169,0.014,0.169,0.168v0.952c0,0.14-0.015,0.154-0.169,0.154c-0.084,0-0.49-0.028-1.582-0.028v1.555
		c1.092,0,1.498-0.028,1.582-0.028c0.154,0,0.169,0.014,0.169,0.154v0.953c0,0.154-0.015,0.168-0.169,0.168
		c-0.084,0-0.49-0.027-1.582-0.027v1.736h0.182c1.359,0,1.836-0.027,1.92-0.027c0.14,0,0.153,0.014,0.153,0.153v0.98
		c0,0.154-0.014,0.169-0.153,0.169c-0.084,0-0.561-0.028-1.92-0.028h-2.913v0.616c0,0.14-0.015,0.154-0.169,0.154h-1.036
		c-0.14,0-0.153-0.015-0.153-0.154c0-0.07,0.027-0.462,0.027-1.667v-6.317l-0.084-0.098l-0.182-0.168
		c-0.028,0.673-0.168,1.093-0.393,1.261c-0.196,0.168-0.406,0.266-0.953,0.266c-0.504,0-0.728-0.028-1.008-0.238
		c-0.014,0.098-0.057,0.182-0.084,0.238c-0.057,0.154-0.07,0.336-0.07,1.023h0.364c1.12,0,1.499-0.028,1.569-0.028
		c0.154,0,0.168,0.014,0.168,0.14v0.98c0,0.14-0.014,0.154-0.168,0.154c-0.07,0-0.449-0.028-1.569-0.028H269.904z M275.129,108.919
		v-1.499h-1.456v1.499H275.129z M275.129,111.692v-1.555h-1.456v1.555H275.129z M275.129,114.648v-1.736h-1.456v1.736H275.129z"/>
	<path d="M253.58,150.867c-0.141,0-0.154-0.014-0.154-0.154c0-0.084,0.027-0.826,0.027-4.566v-2.591
		c0-2.605-0.027-3.376-0.027-3.475c0-0.14,0.014-0.153,0.154-0.153c0.098,0,0.588,0.027,1.947,0.027h0.91
		c0.224-0.448,0.35-0.812,0.518-1.316c0.07-0.183,0.112-0.393,0.154-0.658c0.477,0.042,1.093,0.14,1.499,0.21
		c0.126,0.028,0.196,0.112,0.196,0.182c0,0.084-0.057,0.141-0.112,0.196c-0.099,0.112-0.168,0.21-0.21,0.336
		c-0.141,0.337-0.266,0.631-0.49,1.051h2.731c1.358,0,1.849-0.027,1.946-0.027c0.141,0,0.154,0.014,0.154,0.153
		c0,0.084-0.027,0.869-0.027,3.096v2.956c0,3.74,0.027,4.482,0.027,4.553c0,0.14-0.014,0.153-0.154,0.153h-1.246
		c-0.141,0-0.154-0.014-0.154-0.153v-0.631h-6.317v0.658c0,0.141-0.014,0.154-0.153,0.154H253.58z M254.952,142.827h6.317v-1.527
		h-6.317V142.827z M261.269,145.711v-1.568h-6.317v1.568H261.269z M261.269,148.709v-1.681h-6.317v1.681H261.269z"/>
	<path d="M275.326,142.462c0.602,1.61,1.695,2.731,3.123,3.487c-0.238,0.309-0.434,0.631-0.602,1.022
		c-0.098,0.225-0.154,0.322-0.238,0.322s-0.168-0.056-0.322-0.168c-1.316-0.924-2.27-2.213-2.746-3.558
		c-0.518,1.583-1.484,2.731-2.814,3.558c-0.154,0.099-0.238,0.141-0.309,0.141c-0.084,0-0.141-0.084-0.28-0.267
		c-0.252-0.336-0.49-0.561-0.784-0.742c1.695-0.896,2.689-2.073,3.138-3.796h-0.253c-1.232,0-1.639,0.027-1.723,0.027
		c-0.799,1.877-2.101,3.572-4.385,4.819c-0.168,0.084-0.266,0.126-0.35,0.126c-0.098,0-0.154-0.084-0.294-0.309
		c-0.196-0.308-0.421-0.546-0.7-0.742c0.938-0.378,1.75-0.896,2.438-1.513c-0.322-0.378-0.688-0.7-1.064-0.98
		c-0.127-0.084-0.127-0.099,0.014-0.238l0.546-0.546c0.126-0.127,0.154-0.112,0.28-0.028c0.379,0.238,0.785,0.603,1.078,0.91
		c0.183-0.21,0.351-0.448,0.505-0.687c-0.337-0.364-0.7-0.658-1.036-0.882c-0.113-0.07-0.113-0.099,0-0.238l0.518-0.603
		c0.112-0.126,0.141-0.126,0.266-0.056c0.281,0.182,0.561,0.378,0.883,0.658c0.183-0.42,0.351-0.854,0.477-1.316h-1.779
		c-0.504,0.882-1.12,1.666-1.904,2.353c-0.154,0.141-0.252,0.225-0.351,0.225c-0.084,0-0.168-0.084-0.294-0.267
		c-0.196-0.28-0.406-0.49-0.645-0.658c1.19-0.883,2.073-2.017,2.647-3.53c0.14-0.321,0.21-0.63,0.252-0.91
		c0.435,0.07,0.827,0.154,1.219,0.267c0.154,0.042,0.21,0.098,0.21,0.182s-0.027,0.112-0.098,0.196
		c-0.084,0.084-0.154,0.21-0.252,0.462l-0.196,0.477h1.484c0.099,0,0.196,0,0.253-0.028c0.069-0.027,0.125-0.056,0.195-0.056
		c0.098,0,0.182,0.042,0.463,0.308c0.308,0.28,0.406,0.406,0.406,0.519c0,0.099-0.028,0.141-0.099,0.225
		c-0.069,0.098-0.14,0.322-0.21,0.532h1.709c0.027-0.309,0.042-0.631,0.057-0.967c0-0.841,0-1.345-0.07-1.933
		c0.504,0,0.882,0.014,1.387,0.069c0.14,0.028,0.224,0.099,0.224,0.154c0,0.084-0.014,0.141-0.084,0.252
		c-0.056,0.099-0.084,0.406-0.084,1.345c0,0.364-0.028,0.729-0.056,1.079h1.12c1.233,0,1.653-0.028,1.737-0.028
		c0.14,0,0.154,0.014,0.154,0.154v1.064c0,0.126-0.015,0.14-0.154,0.14c-0.084,0-0.504-0.027-1.737-0.027H275.326z M266.039,150.18
		c-0.182-0.14-0.182-0.168-0.084-0.266c0.715-0.673,1.289-1.485,1.681-2.34c0.056-0.14,0.07-0.154,0.28-0.056l0.771,0.378
		c0.153,0.07,0.168,0.112,0.112,0.252c-0.449,1.051-0.98,1.919-1.639,2.647c-0.057,0.057-0.084,0.084-0.127,0.084
		c-0.041,0-0.084-0.027-0.168-0.084L266.039,150.18z M270.886,147.743c0.183-0.014,0.21-0.014,0.252,0.141
		c0.196,0.798,0.28,1.709,0.351,2.633c0,0.141-0.043,0.196-0.225,0.211l-0.994,0.056c-0.211,0.014-0.238,0-0.238-0.141
		c0-0.896-0.07-1.82-0.225-2.646c-0.027-0.141,0.014-0.169,0.196-0.183L270.886,147.743z M273.575,147.659
		c0.183-0.042,0.21-0.027,0.267,0.099c0.336,0.771,0.602,1.723,0.783,2.549c0.043,0.154,0.015,0.196-0.168,0.238l-1.008,0.225
		c-0.211,0.056-0.225,0.042-0.252-0.112c-0.141-0.896-0.336-1.808-0.617-2.592c-0.056-0.126-0.041-0.168,0.154-0.21L273.575,147.659
		z M276.223,147.365c0.154-0.07,0.195-0.07,0.279,0.028c0.631,0.742,1.248,1.639,1.709,2.535c0.07,0.14,0.057,0.168-0.111,0.266
		l-0.883,0.547c-0.182,0.098-0.225,0.084-0.279-0.042c-0.436-0.967-0.995-1.863-1.598-2.703c-0.084-0.112-0.084-0.154,0.098-0.238
		L276.223,147.365z M276.418,138.68c0.141-0.07,0.183-0.084,0.267,0.028c0.337,0.392,0.714,0.896,1.051,1.429
		c0.069,0.126,0.069,0.168-0.084,0.266l-0.687,0.421c-0.084,0.056-0.126,0.084-0.154,0.084c-0.042,0-0.07-0.042-0.111-0.127
		c-0.295-0.56-0.658-1.078-1.009-1.498c-0.099-0.126-0.099-0.168,0.069-0.252L276.418,138.68z"/>
	<path d="M283.429,140.375c0.995,0,1.317-0.028,1.415-0.028c0.14,0,0.154,0.014,0.154,0.154c0,0.069-0.028,0.56-0.028,1.933
		c0.91-1.078,1.442-2.199,1.793-3.166c0.112-0.364,0.21-0.756,0.267-1.19c0.531,0.099,1.135,0.238,1.387,0.336
		c0.182,0.057,0.293,0.126,0.293,0.225c0,0.112-0.014,0.154-0.14,0.28c-0.112,0.098-0.237,0.322-0.378,0.714
		c-0.098,0.267-0.21,0.519-0.322,0.771h2.619c1.009,0,1.331-0.027,1.415-0.027c0.14,0,0.168,0.027,0.168,0.168
		c-0.028,0.392-0.028,0.771-0.028,1.162c-0.014,3.222-0.111,5.253-0.406,7.102c-0.224,1.43-0.798,2.102-2.115,2.13
		c-0.308,0-0.699,0.014-1.064-0.015c-0.406-0.027-0.406-0.027-0.504-0.476c-0.098-0.379-0.252-0.799-0.406-1.079
		c0.756,0.112,1.232,0.154,1.793,0.141c0.504,0,0.742-0.463,0.883-1.205c0.266-1.513,0.35-3.684,0.35-6.598h-3.334
		c-0.336,0.589-0.729,1.177-1.189,1.751c-0.141,0.168-0.225,0.252-0.295,0.252s-0.141-0.084-0.294-0.252
		c-0.154-0.154-0.322-0.308-0.49-0.435v2.9c0,3.264,0.028,3.88,0.028,3.964c0,0.14-0.015,0.154-0.154,0.154h-1.078
		c-0.141,0-0.154-0.015-0.154-0.154v-0.673h-2.004v1.065c0,0.153-0.014,0.168-0.168,0.168h-1.064c-0.141,0-0.154-0.015-0.154-0.168
		c0-0.085,0.028-0.743,0.028-4.146v-2.424c0-2.437-0.028-3.109-0.028-3.207c0-0.141,0.014-0.154,0.154-0.154
		c0.084,0,0.379,0.028,1.191,0.028c0.168-0.491,0.336-1.023,0.434-1.472c0.057-0.266,0.084-0.476,0.112-0.798
		c0.504,0.056,1.022,0.14,1.442,0.224c0.127,0.028,0.196,0.099,0.196,0.183c0,0.098-0.028,0.14-0.126,0.224
		c-0.084,0.07-0.154,0.196-0.196,0.309c-0.153,0.42-0.308,0.896-0.476,1.331H283.429z M281.607,141.622v2.479h2.004v-2.479H281.607z
		 M283.611,147.953v-2.591h-2.004v2.591H283.611z M287.253,143.569c0.069-0.042,0.112-0.07,0.153-0.07
		c0.029,0,0.057,0.028,0.113,0.084c0.686,0.742,1.274,1.709,1.723,2.592c0.07,0.14,0.056,0.182-0.112,0.294l-0.868,0.603
		c-0.07,0.056-0.112,0.084-0.141,0.084c-0.042,0-0.07-0.042-0.098-0.126c-0.463-1.022-0.994-1.905-1.639-2.704
		c-0.084-0.111-0.07-0.14,0.098-0.252L287.253,143.569z"/>
	<path d="M254.336,181.608c0.056-0.49,0.07-0.757,0.042-1.135c0.476,0.042,0.938,0.098,1.387,0.182
		c0.153,0.028,0.28,0.07,0.28,0.183c0,0.098-0.057,0.168-0.112,0.266c-0.069,0.112-0.099,0.253-0.154,0.701
		c-0.224,1.639-1.12,2.815-2.591,3.361c-0.168,0.057-0.252,0.099-0.336,0.099c-0.099,0-0.154-0.085-0.309-0.322
		c-0.225-0.351-0.448-0.631-0.715-0.869C253.313,183.737,254.182,182.84,254.336,181.608z M255.358,173.568
		c0-0.406-0.015-0.729-0.084-1.065c0.476,0.015,0.995,0.042,1.4,0.084c0.112,0.015,0.196,0.07,0.196,0.141
		c0,0.084-0.027,0.126-0.084,0.21s-0.07,0.28-0.07,0.631h2.787c-0.014-0.393-0.027-0.729-0.084-1.065
		c0.477,0.015,1.01,0.057,1.401,0.099c0.126,0.014,0.196,0.056,0.196,0.14c0,0.07-0.014,0.126-0.07,0.21s-0.084,0.267-0.084,0.617
		h1.373c1.414,0,1.933-0.028,2.017-0.028c0.14,0,0.14,0.014,0.14,0.154v0.952c0,0.14,0,0.154-0.14,0.154
		c-0.084,0-0.603-0.028-2.017-0.028h-1.373c0,0.477,0.027,0.687,0.027,0.757c0,0.153-0.014,0.168-0.168,0.168h-1.092
		c-0.141,0-0.154-0.015-0.154-0.168c0-0.07,0.014-0.309,0.027-0.841h-2.787c0,0.532,0.028,0.771,0.028,0.841
		c0,0.14-0.015,0.153-0.154,0.153h-1.106c-0.141,0-0.154-0.014-0.154-0.153c0-0.07,0.014-0.28,0.028-0.757h-1.288
		c-1.373,0-1.85,0.028-1.934,0.028c-0.141,0-0.154-0.015-0.154-0.154v-0.952c0-0.141,0.014-0.154,0.154-0.154
		c0.084,0,0.561,0.028,1.934,0.028H255.358z M255.512,178.302c0,0.308,0.099,0.448,0.322,0.49c0.238,0.042,0.701,0.084,2.648,0.084
		c1.694,0,2.983-0.028,4.314-0.112c0.182-0.014,0.238,0.014,0.252,0.252l0.027,0.7c0.014,0.295,0,0.309-0.21,0.322
		c-1.274,0.07-2.451,0.099-4.454,0.099c-2.535,0-3.222-0.057-3.727-0.238c-0.392-0.154-0.615-0.393-0.615-1.19v-1.205
		c-1.178,0-1.598,0.028-1.682,0.028c-0.154,0-0.168-0.015-0.168-0.154v-0.952c0-0.141,0.014-0.154,0.168-0.154
		c0.084,0,0.519,0.028,1.807,0.028h3.25v-0.085c0-0.405,0-0.616-0.084-0.994c0.547,0,0.854,0.028,1.316,0.07
		c0.141,0.014,0.211,0.07,0.211,0.154s-0.043,0.153-0.07,0.224c-0.042,0.112-0.057,0.225-0.057,0.561v0.07h3.404
		c1.289,0,1.736-0.028,1.82-0.028c0.141,0,0.154,0.014,0.154,0.154v0.952c0,0.14-0.014,0.154-0.154,0.154
		c-0.084,0-0.531-0.028-1.82-0.028h-6.654V178.302z M257.291,182.041c0-0.672-0.014-1.022-0.084-1.414
		c0.519,0.014,0.939,0.042,1.443,0.098c0.126,0.015,0.21,0.07,0.21,0.154c0,0.112-0.042,0.182-0.084,0.294
		c-0.042,0.126-0.07,0.322-0.07,0.841v1.246c0,0.967,0.028,1.345,0.028,1.429c0,0.141-0.014,0.154-0.168,0.154h-1.135
		c-0.154,0-0.168-0.014-0.168-0.154c0-0.098,0.027-0.462,0.027-1.429V182.041z M261.703,183.344c0,0.253,0.015,0.337,0.099,0.393
		c0.07,0.042,0.28,0.07,0.546,0.07c0.322,0,0.603-0.028,0.688-0.183c0.111-0.168,0.125-0.49,0.125-1.33
		c0.295,0.153,0.617,0.266,0.939,0.336c0.363,0.084,0.363,0.098,0.35,0.462c-0.057,0.953-0.182,1.331-0.49,1.625
		c-0.266,0.267-0.658,0.378-1.709,0.378c-0.729,0-1.205-0.014-1.555-0.21c-0.238-0.126-0.393-0.392-0.393-0.994v-1.821
		c0-0.616-0.027-1.022-0.084-1.526c0.504,0.014,0.994,0.042,1.43,0.098c0.139,0.014,0.209,0.084,0.209,0.154
		c0,0.098-0.041,0.168-0.084,0.238c-0.056,0.126-0.07,0.238-0.07,0.771V183.344z"/>
	<path d="M268.504,174.898c0.127,0.057,0.225,0.154,0.225,0.252c0,0.084-0.042,0.225-0.112,0.393
		c-0.056,0.168-0.126,0.771-0.126,1.373c0,0.896,0.027,1.904,0.252,3.193c0.196,1.106,0.561,2.06,1.148,2.06
		c0.449,0,0.799-0.49,1.346-1.947c0.308,0.49,0.615,0.812,0.896,1.078c0.168,0.154,0.168,0.322,0.098,0.519
		c-0.532,1.429-1.4,2.186-2.381,2.186c-1.094,0-2.242-1.289-2.62-3.656c-0.224-1.331-0.336-2.788-0.336-4.076
		c0-0.771-0.028-1.19-0.169-1.835C267.397,174.52,268.084,174.688,268.504,174.898z M275.004,175.781
		c0.056-0.028,0.111-0.057,0.154-0.057c0.056,0,0.098,0.028,0.154,0.085c1.273,1.106,2.395,3.039,2.745,4.79
		c0.042,0.183-0.042,0.238-0.154,0.309c-0.364,0.237-0.714,0.434-1.093,0.56c-0.168,0.057-0.266,0.015-0.294-0.153
		c-0.476-2.004-1.19-3.46-2.62-4.889C274.43,176.088,274.779,175.893,275.004,175.781z"/>
	<path d="M256.255,213.455c0,3.572,0.028,4.287,0.028,4.371c0,0.14-0.014,0.153-0.154,0.153h-1.009c-0.126,0-0.14-0.014-0.14-0.153
		v-0.603h-1.331v1.093c0,0.14-0.015,0.153-0.154,0.153h-1.009c-0.14,0-0.154-0.014-0.154-0.153c0-0.099,0.029-0.841,0.029-4.623
		v-2.619c0-2.619-0.029-3.39-0.029-3.488c0-0.14,0.015-0.153,0.154-0.153c0.099,0,0.365,0.027,1.219,0.027h1.205
		c0.854,0,1.121-0.027,1.219-0.027c0.141,0,0.154,0.014,0.154,0.153c0,0.084-0.028,0.812-0.028,2.998V213.455z M253.649,208.735
		v2.886h1.331v-2.886H253.649z M254.98,215.95v-3.082h-1.331v3.082H254.98z M258.664,212.742c-1.345,0-1.807,0.027-1.891,0.027
		c-0.141,0-0.154-0.014-0.154-0.168v-0.98c0-0.14,0.014-0.153,0.154-0.153c0.084,0,0.546,0.027,1.891,0.027h2.578
		c0.168-0.462,0.308-0.952,0.377-1.204c0.057-0.211,0.099-0.435,0.127-0.729c0.447,0.069,0.91,0.154,1.274,0.238
		c0.154,0.042,0.21,0.069,0.21,0.153c0,0.099-0.042,0.141-0.111,0.211c-0.07,0.069-0.141,0.21-0.197,0.363
		c-0.111,0.295-0.224,0.575-0.392,0.967h0.084c1.331,0,1.793-0.027,1.877-0.027c0.154,0,0.168,0.014,0.168,0.153v0.98
		c0,0.154-0.014,0.168-0.168,0.168c-0.084,0-0.546-0.027-1.877-0.027H258.664z M258.93,209.436c-1.273,0-1.723,0.027-1.82,0.027
		c-0.141,0-0.154-0.014-0.154-0.168v-0.966c0-0.127,0.014-0.141,0.154-0.141c0.098,0,0.547,0.028,1.82,0.028h0.812v-0.252
		c0-0.519-0.027-0.883-0.098-1.219c0.532,0.014,0.98,0.042,1.471,0.084c0.141,0.014,0.225,0.069,0.225,0.14
		c0,0.099-0.043,0.168-0.084,0.267c-0.043,0.098-0.07,0.308-0.07,0.742v0.238h1.135c1.274,0,1.723-0.028,1.807-0.028
		c0.154,0,0.168,0.014,0.168,0.141v0.966c0,0.154-0.014,0.168-0.168,0.168c-0.084,0-0.532-0.027-1.807-0.027H258.93z
		 M257.642,219.563c-0.14,0-0.154-0.014-0.154-0.154c0-0.084,0.028-0.476,0.028-2.591v-1.331c0-1.303-0.028-1.694-0.028-1.793
		c0-0.14,0.015-0.154,0.154-0.154c0.084,0,0.476,0.028,1.653,0.028h2.438c1.162,0,1.568-0.028,1.639-0.028
		c0.154,0,0.168,0.015,0.168,0.154c0,0.084-0.028,0.49-0.028,1.583v1.513c0,2.115,0.028,2.508,0.028,2.592
		c0,0.126-0.014,0.14-0.168,0.14h-1.023c-0.154,0-0.168-0.014-0.168-0.14v-0.477h-3.348v0.504c0,0.141-0.014,0.154-0.154,0.154
		H257.642z M258.93,209.576c0.154-0.042,0.197-0.014,0.267,0.112c0.196,0.378,0.378,0.84,0.477,1.219
		c0.042,0.14,0.028,0.154-0.154,0.196l-0.841,0.237c-0.168,0.042-0.21,0.015-0.252-0.153c-0.098-0.393-0.252-0.827-0.434-1.177
		c-0.084-0.154-0.043-0.183,0.14-0.225L258.93,209.576z M258.832,215.655h3.348v-0.98h-3.348V215.655z M262.18,217.798v-1.079
		h-3.348v1.079H262.18z"/>
	<path d="M268.504,209.211c0.127,0.057,0.225,0.154,0.225,0.252c0,0.084-0.042,0.225-0.112,0.393
		c-0.056,0.168-0.126,0.771-0.126,1.373c0,0.896,0.027,1.904,0.252,3.193c0.196,1.106,0.561,2.06,1.148,2.06
		c0.449,0,0.799-0.49,1.346-1.947c0.308,0.49,0.615,0.812,0.896,1.078c0.168,0.154,0.168,0.322,0.098,0.519
		c-0.532,1.429-1.4,2.186-2.381,2.186c-1.094,0-2.242-1.289-2.62-3.656c-0.224-1.331-0.336-2.788-0.336-4.076
		c0-0.771-0.028-1.19-0.169-1.835C267.397,208.833,268.084,209.001,268.504,209.211z M275.004,210.094
		c0.056-0.028,0.111-0.057,0.154-0.057c0.056,0,0.098,0.028,0.154,0.085c1.273,1.106,2.395,3.039,2.745,4.79
		c0.042,0.183-0.042,0.238-0.154,0.309c-0.364,0.237-0.714,0.434-1.093,0.56c-0.168,0.057-0.266,0.015-0.294-0.153
		c-0.476-2.004-1.19-3.46-2.62-4.889C274.43,210.402,274.779,210.206,275.004,210.094z"/>
</g>
</svg>
