<?xml version="1.0" encoding="utf-8"?>
<!-- Generator: Adobe Illustrator 21.1.0, SVG Export Plug-In . SVG Version: 6.00 Build 0)  -->
<svg version="1.1" id="レイヤー_1" xmlns="http://www.w3.org/2000/svg" xmlns:xlink="http://www.w3.org/1999/xlink" x="0px"
	 y="0px" viewBox="0 0 311.811 283.465" enable-background="new 0 0 311.811 283.465" xml:space="preserve">
<g>
	
		<line fill="none" stroke="#DCDDDD" stroke-width="0.75" stroke-miterlimit="10" x1="243.921" y1="76.592" x2="68.191" y2="76.592"/>
	
		<line fill="none" stroke="#DCDDDD" stroke-width="0.75" stroke-miterlimit="10" x1="243.921" y1="110.905" x2="68.191" y2="110.905"/>
	
		<line fill="none" stroke="#DCDDDD" stroke-width="0.75" stroke-miterlimit="10" x1="243.921" y1="145.217" x2="68.191" y2="145.217"/>
	
		<line fill="none" stroke="#DCDDDD" stroke-width="0.75" stroke-miterlimit="10" x1="243.921" y1="179.53" x2="68.191" y2="179.53"/>
	
		<line fill="none" stroke="#DCDDDD" stroke-width="0.75" stroke-miterlimit="10" x1="243.921" y1="213.842" x2="68.191" y2="213.842"/>
</g>
<line fill="none" stroke="#000000" stroke-miterlimit="10" x1="243.921" y1="48.523" x2="243.921" y2="241.911"/>
<line fill="none" stroke="#DCDDDD" stroke-width="0.75" stroke-miterlimit="10" x1="199.989" y1="48.523" x2="199.989" y2="241.911"/>
<line fill="none" stroke="#DCDDDD" stroke-width="0.75" stroke-miterlimit="10" x1="156.056" y1="48.523" x2="156.056" y2="241.911"/>
<line fill="none" stroke="#DCDDDD" stroke-width="0.75" stroke-miterlimit="10" x1="112.124" y1="48.523" x2="112.124" y2="241.911"/>
<line fill="none" stroke="#000000" stroke-miterlimit="10" x1="68.191" y1="48.523" x2="68.191" y2="241.911"/>
<polyline fill="none" stroke="#000000" stroke-linecap="round" stroke-miterlimit="10" points="147.27,213.842 128.379,179.53 
	129.257,145.217 116.517,110.905 153.42,76.592 "/>
<g>
	<g id="_x5F_added_x5F_direction_x5F_anchor_x5F__25_">
		<path d="M146.187,216.342c-0.78,0-1.417-0.638-1.417-1.417v-2.165c0-0.78,0.638-1.417,1.417-1.417h2.165
			c0.78,0,1.417,0.638,1.417,1.417v2.165c0,0.78-0.638,1.417-1.417,1.417H146.187z"/>
	</g>
	<g id="_x5F_added_x5F_direction_x5F_anchor_x5F__26_">
		<path d="M127.296,182.03c-0.78,0-1.417-0.638-1.417-1.417v-2.165c0-0.78,0.638-1.417,1.417-1.417h2.165
			c0.78,0,1.417,0.638,1.417,1.417v2.165c0,0.78-0.638,1.417-1.417,1.417H127.296z"/>
	</g>
	<g id="_x5F_added_x5F_direction_x5F_anchor_x5F__27_">
		<path d="M128.175,147.717c-0.78,0-1.417-0.638-1.417-1.417v-2.165c0-0.78,0.638-1.417,1.417-1.417h2.165
			c0.78,0,1.417,0.638,1.417,1.417v2.165c0,0.78-0.638,1.417-1.417,1.417H128.175z"/>
	</g>
	<g id="_x5F_added_x5F_direction_x5F_anchor_x5F__28_">
		<path d="M115.434,113.405c-0.78,0-1.417-0.638-1.417-1.417v-2.165c0-0.78,0.638-1.417,1.417-1.417h2.165
			c0.78,0,1.417,0.638,1.417,1.417v2.165c0,0.78-0.638,1.417-1.417,1.417H115.434z"/>
	</g>
	<g id="_x5F_added_x5F_direction_x5F_anchor_x5F__29_">
		<path d="M152.338,79.092c-0.78,0-1.417-0.638-1.417-1.417V75.51c0-0.78,0.638-1.417,1.417-1.417h2.165
			c0.78,0,1.417,0.638,1.417,1.417v2.165c0,0.78-0.638,1.417-1.417,1.417H152.338z"/>
	</g>
</g>
<g>
	<path d="M122.435,41.265c-0.792,0.271-1.854,0.414-2.935,0.414c-4.052,0-6.824-2.377-6.824-6.41c0-3.907,2.862-6.409,6.662-6.409
		c1.08,0,1.999,0.09,3.043,0.449l-0.181,2.179c-0.9-0.414-1.691-0.576-2.664-0.576c-2.503,0-4.16,1.513-4.16,4.286
		c0,2.79,1.838,4.375,4.195,4.375c0.919,0,1.783-0.108,2.773-0.486L122.435,41.265z"/>
	<path d="M124.358,27.941h2.413v13.612h-2.413V27.941z"/>
	<path d="M129.759,32.784c0.937-0.486,2.232-0.721,3.331-0.721c2.881,0,4.016,1.477,4.016,3.781c0,0.702-0.037,2.053-0.037,2.755
		c0,1.099,0.072,2.341,0.127,2.953h-2.107c-0.018-0.145-0.035-0.468-0.035-0.738c0-0.216,0.018-0.522,0.035-0.811h-0.035
		c-0.631,1.045-1.639,1.729-3.188,1.729c-1.801,0-3.097-1.08-3.097-2.881c0-1.944,1.71-3.024,4.771-3.024
		c0.378,0,0.882,0.018,1.314,0.054c0-1.422-0.667-2.053-2.179-2.053c-0.973,0-2.017,0.343-2.827,0.828L129.759,32.784z
		 M134.098,37.249c-1.908,0-2.953,0.396-2.953,1.477c0,0.811,0.523,1.261,1.441,1.261c1.26,0,2.305-0.792,2.305-2.701
		C134.549,37.249,134.368,37.249,134.098,37.249z"/>
	<path d="M141.747,34.045c0.486-1.225,1.351-1.981,2.665-1.981c0.288,0,0.54,0.019,0.792,0.108l-0.054,2.07
		c-0.271-0.09-0.522-0.126-0.828-0.126c-1.621,0-2.413,1.243-2.413,3.655v3.781h-2.448v-6.518c0-0.973-0.019-1.98-0.09-2.755h2.268
		c0.037,0.414,0.072,1.26,0.072,1.765H141.747z"/>
	<path d="M148.226,37.592c0.037,1.422,1.189,2.341,2.863,2.341c1.026,0,1.927-0.271,2.701-0.757l0.035,1.98
		c-0.791,0.379-1.854,0.612-3.024,0.612c-3.043,0-5.042-1.782-5.042-4.897c0-2.791,1.855-4.808,4.646-4.808
		c2.682,0,4.068,1.603,4.068,4.952c0,0.144-0.018,0.45-0.035,0.576H148.226z M152.26,35.936c0-1.513-0.756-2.161-1.944-2.161
		c-1.062,0-1.999,0.72-2.124,2.161H152.26z"/>
	<path d="M158.793,33.828c0.684-1.116,1.746-1.765,3.079-1.765c2.466,0,3.331,1.603,3.331,4.088v5.401h-2.377v-4.465
		c0-1.783-0.09-3.098-1.675-3.098c-0.792,0-1.513,0.486-1.89,1.207c-0.271,0.521-0.396,1.242-0.396,2.16v4.195h-2.377v-6.392
		c0-0.9-0.018-1.891-0.09-2.881h2.287c0.035,0.396,0.071,1.062,0.071,1.548H158.793z"/>
	<path d="M176.488,38.78c0,0.972,0.019,1.998,0.091,2.772h-2.196c-0.037-0.432-0.055-1.008-0.055-1.62h-0.035
		c-0.667,1.188-1.657,1.836-3.098,1.836c-2.484,0-4.016-1.908-4.016-4.843c0-2.863,1.604-4.862,4.033-4.862
		c1.387,0,2.342,0.648,2.918,1.657h0.035c-0.035-0.702-0.054-1.675-0.054-2.575v-3.205h2.376V38.78z M169.665,36.926
		c0,1.729,0.847,2.988,2.196,2.988c1.387,0,2.287-1.278,2.287-2.971c0-1.746-0.9-3.025-2.305-3.025
		C170.512,33.918,169.665,35.197,169.665,36.926z"/>
	<path d="M188.297,36.944c0,2.898-1.98,4.825-4.879,4.825c-2.881,0-4.88-1.962-4.88-4.843c0-2.989,1.98-4.862,4.952-4.862
		C186.316,32.064,188.297,33.99,188.297,36.944z M181.113,36.944c0,1.818,0.9,2.989,2.286,2.989c1.44,0,2.358-1.171,2.358-3.079
		c0-1.909-0.882-3.007-2.34-3.007C181.976,33.847,181.113,34.963,181.113,36.944z"/>
	<path d="M192.615,33.828c0.684-1.116,1.746-1.765,3.079-1.765c2.466,0,3.331,1.603,3.331,4.088v5.401h-2.377v-4.465
		c0-1.783-0.09-3.098-1.675-3.098c-0.792,0-1.513,0.486-1.89,1.207c-0.271,0.521-0.396,1.242-0.396,2.16v4.195h-2.377v-6.392
		c0-0.9-0.018-1.891-0.09-2.881h2.287c0.035,0.396,0.071,1.062,0.071,1.548H192.615z"/>
</g>
<g>
	<path d="M24.017,73.251c0-0.294-0.015-0.588-0.069-0.966c0.42,0.014,0.826,0.042,1.189,0.084c0.127,0.014,0.197,0.056,0.197,0.14
		s-0.057,0.14-0.084,0.21c-0.029,0.07-0.057,0.224-0.057,0.518v0.112c0.826,0,1.093-0.028,1.177-0.028
		c0.14,0,0.153,0.014,0.153,0.154v0.812c0,0.14-0.014,0.154-0.153,0.154c-0.084,0-0.309-0.014-0.995-0.028
		c0.406,0.406,0.799,0.701,1.346,1.022c-0.154,0.14-0.337,0.364-0.449,0.561c-0.098,0.182-0.154,0.252-0.238,0.252
		c-0.069,0-0.14-0.056-0.266-0.182c-0.252-0.252-0.448-0.504-0.631-0.798c0.015,1.359,0.07,2.213,0.07,2.396
		c0,0.154-0.014,0.168-0.154,0.168h-0.91c-0.141,0-0.154-0.014-0.154-0.168c0-0.182,0.057-0.98,0.07-2.171
		c-0.309,0.588-0.7,1.135-1.162,1.611c-0.141,0.14-0.225,0.21-0.295,0.21c-0.084,0-0.14-0.098-0.238-0.266
		c-0.154-0.308-0.336-0.56-0.476-0.7c-0.042,1.051-0.14,1.905-0.267,2.689c-0.195,1.191-0.561,2.269-1.12,3.376
		c-0.099,0.182-0.14,0.266-0.21,0.266c-0.057,0-0.141-0.084-0.267-0.238c-0.267-0.308-0.616-0.658-0.868-0.798
		c0.561-0.882,0.91-1.947,1.092-3.138c0.183-1.079,0.253-2.549,0.253-4.623c0-1.989-0.028-2.886-0.028-2.97
		c0-0.154,0.014-0.168,0.168-0.168c0.084,0,0.547,0.028,1.877,0.028h7.438c1.316,0,1.778-0.028,1.862-0.028
		c0.127,0,0.141,0.014,0.141,0.168v0.995c0,0.14-0.014,0.154-0.141,0.154c-0.084,0-0.56-0.028-1.877-0.028h-7.998v1.863
		c0,0.91-0.014,1.695-0.056,2.395c0.784-0.504,1.415-1.121,1.919-1.877h-0.098c-0.896,0-1.163,0.028-1.247,0.028
		c-0.154,0-0.168-0.014-0.168-0.154v-0.812c0-0.14,0.014-0.154,0.168-0.154c0.084,0,0.351,0.028,1.247,0.028h0.308V73.251z
		 M23.541,82.524c-1.317,0-1.779,0.028-1.863,0.028c-0.141,0-0.154-0.014-0.154-0.154v-0.98c0-0.14,0.014-0.154,0.154-0.154
		c0.07,0,0.477,0.028,1.513,0.028v-1.443c0-0.462-0.015-0.924-0.085-1.289c0.52,0.014,0.855,0.042,1.359,0.098
		c0.141,0.014,0.225,0.084,0.225,0.154c0,0.098-0.043,0.168-0.084,0.266c-0.07,0.168-0.084,0.392-0.084,0.756v1.457h1.555V78.91
		c0-0.519-0.028-0.924-0.112-1.331c0.532,0.014,0.938,0.042,1.415,0.098c0.14,0.014,0.224,0.084,0.224,0.154
		c0,0.112-0.042,0.196-0.069,0.28c-0.057,0.14-0.099,0.364-0.099,0.742h1.653c1.148,0,1.456-0.014,1.541-0.014
		c0.14,0,0.153,0,0.153,0.14v0.925c0,0.14-0.014,0.154-0.153,0.154c-0.085,0-0.393-0.028-1.541-0.028h-1.653v1.261h2.396
		c1.373,0,1.849-0.028,1.933-0.028c0.14,0,0.154,0.014,0.154,0.154v0.98c0,0.14-0.015,0.154-0.154,0.154
		c-0.084,0-0.56-0.028-1.933-0.028H23.541z M28.415,73.237c0-0.252-0.015-0.56-0.069-0.938c0.447,0,0.826,0.028,1.218,0.07
		c0.126,0.014,0.169,0.056,0.169,0.14s-0.043,0.126-0.07,0.21c-0.028,0.084-0.057,0.196-0.057,0.504v0.126h0.477
		c0.994,0,1.303-0.028,1.4-0.028c0.141,0,0.154,0.014,0.154,0.154v0.812c0,0.14-0.014,0.154-0.154,0.154
		c-0.098,0-0.406-0.028-1.4-0.028h-0.28c0.7,0.854,1.457,1.457,2.409,1.975c-0.195,0.224-0.378,0.504-0.532,0.827
		c-0.069,0.168-0.126,0.238-0.196,0.238s-0.168-0.056-0.322-0.182c-0.686-0.574-1.219-1.232-1.625-1.961
		c0.028,1.331,0.084,2.171,0.084,2.354c0,0.154-0.014,0.168-0.168,0.168h-0.896c-0.14,0-0.154-0.014-0.154-0.168
		c0-0.182,0.043-0.98,0.07-2.228c-0.336,0.645-0.798,1.219-1.288,1.695c-0.154,0.14-0.238,0.224-0.309,0.224
		c-0.069,0-0.14-0.098-0.252-0.28c-0.168-0.266-0.336-0.448-0.532-0.616c0.91-0.617,1.484-1.233,2.031-2.045
		c-0.701,0.014-0.953,0.028-1.023,0.028c-0.14,0-0.153-0.014-0.153-0.154v-0.812c0-0.14,0.014-0.154,0.153-0.154
		c0.085,0,0.379,0.028,1.317,0.028V73.237z"/>
	<path d="M40.482,77.229c-0.043,0.504-0.099,0.98-0.196,1.359c-0.14,0.518-0.322,0.995-0.589,1.429
		c1.569,0.785,3.656,1.177,6.514,1.289c-0.195,0.294-0.378,0.715-0.518,1.107c-0.099,0.308-0.127,0.406-0.295,0.406
		c-0.07,0-0.098,0-0.279-0.014c-2.732-0.224-4.791-0.742-6.374-1.625c-0.882,0.771-2.171,1.373-4.076,1.751
		c-0.14,0.028-0.267,0.042-0.322,0.042c-0.14,0-0.168-0.07-0.28-0.35c-0.168-0.378-0.364-0.687-0.602-0.98
		c1.862-0.21,3.18-0.658,4.062-1.317c-0.687-0.588-1.274-1.289-1.751-2.115c-0.07-0.14-0.042-0.168,0.126-0.266l0.827-0.448
		c0.153-0.084,0.182-0.084,0.252,0.042c0.406,0.672,0.91,1.247,1.498,1.723c0.168-0.294,0.295-0.603,0.379-0.953
		c0.07-0.294,0.126-0.672,0.154-1.079h-2.27c-1.373,0-1.85,0.028-1.934,0.028c-0.14,0-0.154-0.014-0.154-0.168
		c0-0.084,0.028-0.448,0.028-1.261v-1.989c0-0.812-0.028-1.177-0.028-1.261c0-0.14,0.015-0.154,0.154-0.154
		c0.084,0,0.561,0.028,1.934,0.028h2.354v-0.35c0-0.672-0.028-1.219-0.127-1.849c0.547,0.014,0.98,0.056,1.485,0.098
		c0.196,0.028,0.28,0.084,0.28,0.196c0,0.112-0.043,0.196-0.098,0.322c-0.07,0.154-0.099,0.393-0.099,0.967v0.616h2.396
		c1.358,0,1.835-0.028,1.919-0.028c0.14,0,0.153,0.014,0.153,0.154c0,0.084-0.027,0.448-0.027,1.261v1.989
		c0,0.812,0.027,1.176,0.027,1.261c0,0.154-0.014,0.168-0.153,0.168c-0.084,0-0.561-0.028-1.919-0.028H40.482z M39.081,75.926
		c0.015-0.714,0.015-1.471,0.015-2.157h-2.928v2.157H39.081z M43.494,73.769h-2.956c0,0.714,0.015,1.457,0,2.157h2.956V73.769z"/>
	<path d="M51.162,72.425c0.994,0,1.316-0.028,1.415-0.028c0.14,0,0.153,0.014,0.153,0.154c0,0.07-0.027,0.56-0.027,1.933
		c0.91-1.079,1.443-2.199,1.793-3.166c0.111-0.364,0.21-0.756,0.266-1.19c0.533,0.098,1.135,0.238,1.387,0.336
		c0.183,0.056,0.295,0.126,0.295,0.224c0,0.112-0.014,0.154-0.141,0.28c-0.111,0.098-0.238,0.322-0.378,0.714
		c-0.099,0.266-0.21,0.519-0.322,0.771h2.62c1.008,0,1.33-0.028,1.414-0.028c0.141,0,0.168,0.028,0.168,0.168
		c-0.027,0.392-0.027,0.771-0.027,1.163c-0.015,3.222-0.112,5.253-0.406,7.102c-0.225,1.429-0.799,2.102-2.115,2.129
		c-0.309,0-0.701,0.014-1.064-0.014c-0.406-0.028-0.406-0.028-0.505-0.476c-0.099-0.378-0.252-0.798-0.406-1.079
		c0.757,0.112,1.233,0.154,1.793,0.14c0.505,0,0.743-0.462,0.883-1.205c0.267-1.513,0.351-3.684,0.351-6.598h-3.334
		c-0.336,0.588-0.729,1.177-1.191,1.751c-0.14,0.168-0.224,0.252-0.294,0.252c-0.069,0-0.14-0.084-0.294-0.252
		c-0.154-0.154-0.322-0.308-0.49-0.435v2.9c0,3.264,0.027,3.88,0.027,3.964c0,0.14-0.014,0.154-0.153,0.154h-1.079
		c-0.14,0-0.154-0.014-0.154-0.154v-0.672h-2.002v1.065c0,0.154-0.015,0.168-0.168,0.168h-1.065c-0.14,0-0.153-0.014-0.153-0.168
		c0-0.084,0.027-0.743,0.027-4.146v-2.423c0-2.437-0.027-3.109-0.027-3.208c0-0.14,0.014-0.154,0.153-0.154
		c0.084,0,0.378,0.028,1.19,0.028c0.168-0.491,0.336-1.023,0.435-1.471c0.056-0.266,0.084-0.476,0.112-0.798
		c0.504,0.056,1.022,0.14,1.442,0.224c0.126,0.028,0.196,0.098,0.196,0.182c0,0.098-0.027,0.14-0.126,0.224
		c-0.084,0.07-0.154,0.196-0.196,0.308c-0.154,0.42-0.309,0.896-0.477,1.331H51.162z M49.342,73.671v2.479h2.002v-2.479H49.342z
		 M51.344,80.002v-2.591h-2.002v2.591H51.344z M54.986,75.618c0.07-0.042,0.111-0.07,0.154-0.07c0.027,0,0.056,0.028,0.111,0.084
		c0.688,0.742,1.275,1.709,1.724,2.591c0.069,0.14,0.056,0.182-0.112,0.294l-0.869,0.602c-0.069,0.056-0.111,0.084-0.14,0.084
		c-0.042,0-0.069-0.042-0.098-0.126c-0.462-1.022-0.995-1.905-1.64-2.704c-0.084-0.112-0.069-0.14,0.099-0.252L54.986,75.618z"/>
	<path d="M10.617,108.937c0.07-0.098,0.14-0.168,0.266-0.14c1.051,0.35,1.891,0.798,2.689,1.373c0.098,0.07,0.154,0.126,0.154,0.21
		c0,0.042-0.027,0.098-0.057,0.154c-0.153,0.378-0.392,0.742-0.615,1.064c-0.07,0.084-0.127,0.14-0.183,0.14
		s-0.099-0.028-0.168-0.084c-0.896-0.658-1.808-1.121-2.829-1.527C10.225,109.567,10.449,109.161,10.617,108.937z M12.887,114.134
		c1.33-0.701,2.479-1.359,3.838-2.423c1.12-0.854,2.619-2.199,4.033-3.908c0.084,0.616,0.197,0.966,0.406,1.569
		c0.043,0.098,0.07,0.182,0.07,0.266c0,0.112-0.041,0.21-0.154,0.322c-1.303,1.4-2.185,2.171-3.558,3.236
		c-1.218,0.924-2.521,1.723-4.188,2.633c-0.336,0.182-0.672,0.336-0.812,0.476c-0.084,0.084-0.154,0.112-0.224,0.112
		c-0.099,0-0.196-0.056-0.28-0.168c-0.294-0.294-0.672-0.84-1.037-1.429C11.569,114.708,12.059,114.554,12.887,114.134z
		 M12.312,105.715c0.098-0.168,0.182-0.196,0.35-0.112c0.896,0.364,1.863,0.882,2.633,1.555c0.084,0.056,0.113,0.126,0.113,0.182
		s-0.015,0.112-0.057,0.182c-0.196,0.35-0.477,0.798-0.715,1.051c-0.041,0.07-0.098,0.084-0.14,0.084c-0.07,0-0.14-0.042-0.21-0.098
		c-0.729-0.603-1.821-1.317-2.718-1.723C11.808,106.472,12.074,106.079,12.312,105.715z"/>
	<path d="M23.987,106.402c0.056-0.07,0.126-0.112,0.196-0.112c0.057,0,0.111,0.028,0.182,0.07c0.715,0.378,1.877,1.232,2.676,1.989
		c0.084,0.084,0.126,0.14,0.126,0.196s-0.028,0.112-0.084,0.182c-0.21,0.28-0.673,0.84-0.868,1.051
		c-0.07,0.07-0.112,0.112-0.168,0.112c-0.057,0-0.112-0.042-0.183-0.112c-0.841-0.869-1.849-1.667-2.857-2.283
		C23.314,107.116,23.721,106.682,23.987,106.402z M25.206,113.783c1.709-0.882,2.62-1.471,4.034-2.605
		c1.709-1.387,2.647-2.283,3.838-3.81c0.084,0.7,0.211,1.176,0.393,1.639c0.042,0.098,0.07,0.182,0.07,0.266
		c0,0.126-0.07,0.238-0.225,0.42c-0.742,0.868-1.947,1.989-3.222,2.969c-1.163,0.911-2.339,1.695-4.23,2.746
		c-0.63,0.378-0.812,0.519-0.938,0.645c-0.084,0.084-0.168,0.14-0.252,0.14c-0.07,0-0.154-0.056-0.238-0.154
		c-0.35-0.392-0.784-0.966-1.121-1.555C24.029,114.288,24.464,114.162,25.206,113.783z"/>
	<path d="M38.129,108.251c-0.91,0-1.709,0.042-2.312,0.07c-0.183,0.014-0.237-0.084-0.267-0.28c-0.041-0.28-0.098-1.008-0.125-1.415
		c0.63,0.07,1.372,0.098,2.689,0.098h5c0.42,0,0.574-0.028,0.771-0.14c0.084-0.056,0.168-0.084,0.238-0.084
		c0.084,0,0.168,0.028,0.238,0.098c0.364,0.294,0.714,0.63,0.952,0.966c0.07,0.098,0.112,0.182,0.112,0.28
		c0,0.084-0.042,0.168-0.14,0.266c-0.127,0.126-0.197,0.266-0.322,0.546c-0.687,1.653-1.541,3.194-2.718,4.552
		c-1.204,1.373-2.563,2.536-3.978,3.334c-0.127,0.084-0.253,0.126-0.379,0.126c-0.112,0-0.238-0.042-0.35-0.154
		c-0.322-0.308-0.785-0.56-1.303-0.77c2.045-1.037,3.291-2.003,4.58-3.502c1.092-1.247,1.807-2.438,2.367-3.992H38.129z
		 M47.808,105.561c0,0.84-0.673,1.499-1.514,1.499c-0.84,0-1.513-0.658-1.513-1.499c0-0.869,0.673-1.499,1.513-1.499
		C47.136,104.062,47.808,104.721,47.808,105.561z M45.469,105.561c0,0.476,0.35,0.826,0.826,0.826s0.826-0.35,0.826-0.826
		c0-0.477-0.35-0.827-0.826-0.827S45.469,105.085,45.469,105.561z"/>
	<path d="M51.85,107.34c0.238,0.07,0.266,0.238,0.182,0.434c-0.154,0.309-0.168,0.617-0.168,0.953
		c-0.027,1.751-0.294,3.082-0.756,4.118c-0.365,0.854-0.98,1.765-1.99,2.634c-0.14,0.112-0.252,0.182-0.363,0.182
		c-0.084,0-0.168-0.042-0.267-0.112c-0.351-0.238-0.687-0.406-1.19-0.588c1.092-0.826,1.835-1.681,2.325-2.788
		c0.392-0.952,0.574-1.723,0.589-3.964c0-0.532-0.029-0.756-0.141-1.177C50.869,107.13,51.514,107.228,51.85,107.34z
		 M54.959,113.265c0.687-0.364,1.33-0.798,1.989-1.303c0.841-0.645,1.667-1.387,2.451-2.381c0.056,0.49,0.196,0.953,0.435,1.415
		c0.041,0.098,0.084,0.168,0.084,0.238c0,0.098-0.057,0.196-0.211,0.35c-0.699,0.715-1.344,1.289-2.072,1.835
		c-0.729,0.561-1.514,1.107-2.494,1.681c-0.252,0.168-0.279,0.196-0.406,0.294c-0.084,0.07-0.182,0.112-0.279,0.112
		c-0.084,0-0.183-0.042-0.295-0.112c-0.308-0.21-0.63-0.574-0.84-0.854c-0.084-0.126-0.127-0.21-0.127-0.294
		c0-0.07,0.015-0.126,0.057-0.21c0.098-0.182,0.084-0.35,0.084-1.065v-4.384c0-1.218,0-1.793-0.141-2.437
		c0.561,0.07,1.332,0.168,1.752,0.294c0.182,0.042,0.252,0.126,0.252,0.238c0,0.084-0.042,0.21-0.112,0.35
		c-0.126,0.266-0.126,0.546-0.126,1.555V113.265z"/>
	<path d="M31.371,151.039c-0.112,0.238-0.154,0.336-0.252,0.336c-0.07,0-0.154-0.056-0.322-0.168
		c-2.676-1.723-4.301-4.118-4.945-6.696c-0.742,2.956-2.508,5.253-5.07,6.71c-0.154,0.084-0.252,0.14-0.322,0.14
		c-0.098,0-0.154-0.098-0.28-0.336c-0.238-0.392-0.519-0.687-0.812-0.938c3.685-1.709,5.478-5.211,5.448-9.133
		c-0.014-0.616-0.027-1.205-0.098-1.821c0.547,0.028,1.219,0.098,1.723,0.168c0.183,0.028,0.267,0.112,0.267,0.224
		c0,0.154-0.069,0.238-0.14,0.35c-0.084,0.14-0.112,0.476-0.112,0.924c-0.015,0.168-0.015,0.336-0.015,0.504
		c0.604,4.104,2.367,6.822,5.716,8.643C31.833,150.254,31.566,150.633,31.371,151.039z"/>
	<path d="M35.523,150.352c-1.246,0-1.682,0.028-1.766,0.028c-0.14,0-0.153-0.014-0.153-0.154v-1.177c0-0.14,0.014-0.154,0.153-0.154
		c0.084,0,0.52,0.028,1.766,0.028h3.375v-7.256h-2.465c-1.358,0-1.807,0.028-1.891,0.028c-0.141,0-0.154-0.014-0.154-0.154v-1.177
		c0-0.14,0.014-0.154,0.154-0.154c0.084,0,0.532,0.028,1.891,0.028h6.724c1.345,0,1.793-0.028,1.878-0.028
		c0.139,0,0.153,0.014,0.153,0.154v1.177c0,0.14-0.015,0.154-0.153,0.154c-0.085,0-0.533-0.028-1.878-0.028h-2.675v7.256h3.571
		c1.247,0,1.681-0.028,1.765-0.028c0.141,0,0.154,0.014,0.154,0.154v1.177c0,0.14-0.014,0.154-0.154,0.154
		c-0.084,0-0.518-0.028-1.765-0.028H35.523z"/>
	<path d="M51.162,141.051c0.994,0,1.316-0.028,1.415-0.028c0.14,0,0.153,0.014,0.153,0.154c0,0.07-0.027,0.56-0.027,1.933
		c0.91-1.079,1.443-2.199,1.793-3.166c0.111-0.364,0.21-0.756,0.266-1.19c0.533,0.098,1.135,0.238,1.387,0.336
		c0.183,0.056,0.295,0.126,0.295,0.224c0,0.112-0.014,0.154-0.141,0.28c-0.111,0.098-0.238,0.322-0.378,0.714
		c-0.099,0.266-0.21,0.519-0.322,0.771h2.62c1.008,0,1.33-0.028,1.414-0.028c0.141,0,0.168,0.028,0.168,0.168
		c-0.027,0.392-0.027,0.771-0.027,1.163c-0.015,3.222-0.112,5.253-0.406,7.102c-0.225,1.429-0.799,2.102-2.115,2.129
		c-0.309,0-0.701,0.014-1.064-0.014c-0.406-0.028-0.406-0.028-0.505-0.476c-0.099-0.378-0.252-0.798-0.406-1.079
		c0.757,0.112,1.233,0.154,1.793,0.14c0.505,0,0.743-0.462,0.883-1.205c0.267-1.513,0.351-3.684,0.351-6.598h-3.334
		c-0.336,0.588-0.729,1.177-1.191,1.751c-0.14,0.168-0.224,0.252-0.294,0.252c-0.069,0-0.14-0.084-0.294-0.252
		c-0.154-0.154-0.322-0.308-0.49-0.435v2.9c0,3.264,0.027,3.88,0.027,3.964c0,0.14-0.014,0.154-0.153,0.154h-1.079
		c-0.14,0-0.154-0.014-0.154-0.154v-0.672h-2.002v1.065c0,0.154-0.015,0.168-0.168,0.168h-1.065c-0.14,0-0.153-0.014-0.153-0.168
		c0-0.084,0.027-0.743,0.027-4.146v-2.423c0-2.437-0.027-3.109-0.027-3.208c0-0.14,0.014-0.154,0.153-0.154
		c0.084,0,0.378,0.028,1.19,0.028c0.168-0.491,0.336-1.023,0.435-1.471c0.056-0.266,0.084-0.476,0.112-0.798
		c0.504,0.056,1.022,0.14,1.442,0.224c0.126,0.028,0.196,0.098,0.196,0.182c0,0.098-0.027,0.14-0.126,0.224
		c-0.084,0.07-0.154,0.196-0.196,0.308c-0.154,0.42-0.309,0.896-0.477,1.331H51.162z M49.342,142.298v2.479h2.002v-2.479H49.342z
		 M51.344,148.629v-2.591h-2.002v2.591H51.344z M54.986,144.245c0.07-0.042,0.111-0.07,0.154-0.07c0.027,0,0.056,0.028,0.111,0.084
		c0.688,0.742,1.275,1.709,1.724,2.591c0.069,0.14,0.056,0.182-0.112,0.294l-0.869,0.602c-0.069,0.056-0.111,0.084-0.14,0.084
		c-0.042,0-0.069-0.042-0.098-0.126c-0.462-1.022-0.995-1.905-1.64-2.704c-0.084-0.112-0.069-0.14,0.099-0.252L54.986,144.245z"/>
	<path d="M34.011,177.003c0.126-0.154,0.168-0.168,0.294-0.098c0.631,0.364,1.33,0.854,1.961,1.429
		c0.057,0.056,0.084,0.098,0.084,0.14c0,0.028-0.027,0.084-0.07,0.154l-0.63,0.826c-0.112,0.154-0.154,0.182-0.267,0.07
		c-0.561-0.588-1.204-1.093-1.947-1.541c-0.069-0.042-0.098-0.084-0.098-0.112c0-0.042,0.028-0.07,0.07-0.126L34.011,177.003z
		 M34.123,183.881c0.392-0.771,0.938-1.961,1.4-3.278c0.182,0.21,0.462,0.49,0.756,0.728c0.211,0.182,0.295,0.252,0.295,0.364
		c0,0.084-0.028,0.182-0.084,0.336c-0.379,1.008-0.883,2.143-1.346,3.054c-0.111,0.224-0.182,0.406-0.209,0.546
		c-0.028,0.112-0.084,0.182-0.197,0.182c-0.069,0-0.14-0.028-0.252-0.098c-0.308-0.196-0.686-0.448-1.064-0.785
		C33.702,184.581,33.871,184.329,34.123,183.881z M34.557,173.431c0.126-0.14,0.168-0.126,0.295-0.07
		c0.699,0.435,1.344,0.938,1.933,1.499c0.056,0.056,0.084,0.084,0.084,0.112c0,0.042-0.028,0.084-0.084,0.168l-0.616,0.84
		c-0.127,0.154-0.154,0.168-0.267,0.07c-0.589-0.63-1.303-1.232-1.961-1.625c-0.126-0.084-0.126-0.098,0-0.252L34.557,173.431z
		 M38.829,180.057c-1.387,0-1.862,0.028-1.947,0.028c-0.14,0-0.153-0.014-0.153-0.154v-1.093c0-0.14,0.014-0.154,0.153-0.154
		c0.085,0,0.561,0.028,1.947,0.028h1.724v-1.765h-1.962c-0.183,0.35-0.392,0.714-0.616,1.037c-0.126,0.196-0.182,0.28-0.252,0.28
		s-0.154-0.07-0.309-0.21c-0.252-0.21-0.561-0.393-0.868-0.504c0.742-0.953,1.261-1.919,1.569-2.914
		c0.111-0.364,0.168-0.616,0.195-0.967c0.463,0.098,0.869,0.224,1.232,0.364c0.141,0.056,0.238,0.098,0.238,0.196
		c0,0.084-0.056,0.154-0.125,0.238c-0.07,0.098-0.154,0.28-0.253,0.588c-0.056,0.182-0.14,0.378-0.21,0.575h1.359v-0.393
		c0-0.966,0-1.387-0.099-2.045c0.532,0.014,1.022,0.042,1.485,0.098c0.14,0.014,0.237,0.07,0.237,0.154
		c0,0.112-0.056,0.196-0.098,0.294c-0.07,0.182-0.085,0.476-0.085,1.471v0.42h1.457c1.289,0,1.737-0.028,1.821-0.028
		c0.14,0,0.154,0.014,0.154,0.154v1.05c0,0.154-0.015,0.168-0.154,0.168c-0.084,0-0.532-0.028-1.821-0.028h-1.457v1.765h1.99
		c1.372,0,1.849-0.028,1.933-0.028c0.126,0,0.14,0.014,0.14,0.154v1.093c0,0.14-0.014,0.154-0.14,0.154
		c-0.084,0-0.561-0.028-1.933-0.028h-0.869v3.712c0,0.308,0.042,0.462,0.168,0.519c0.154,0.07,0.351,0.084,0.645,0.084
		c0.35,0,0.49-0.056,0.645-0.182c0.196-0.154,0.225-0.519,0.252-1.695c0.238,0.154,0.603,0.28,0.98,0.378
		c0.351,0.098,0.364,0.098,0.336,0.462c-0.084,1.289-0.224,1.793-0.63,2.059c-0.392,0.266-0.952,0.336-1.751,0.336
		c-0.84,0-1.373-0.056-1.681-0.28c-0.238-0.182-0.364-0.406-0.364-1.065v-4.328h-1.148c-0.196,2.899-1.064,4.44-3.307,5.715
		c-0.154,0.084-0.252,0.126-0.336,0.126c-0.098,0-0.168-0.07-0.309-0.266c-0.237-0.336-0.504-0.603-0.77-0.757
		c2.354-1.05,3.18-2.437,3.291-4.818H38.829z"/>
	<path d="M55.533,185.954c-0.154,0-0.169-0.014-0.169-0.154c0-0.182,0.085-1.835,0.112-3.418c-0.7,1.148-1.667,2.129-2.731,2.886
		c-0.154,0.112-0.252,0.168-0.322,0.168c-0.084,0-0.14-0.084-0.267-0.294c-0.182-0.308-0.42-0.532-0.63-0.728
		c1.401-0.756,2.466-1.681,3.264-2.858h-0.069c-1.219,0-1.64,0.028-1.737,0.028c-0.14,0-0.154-0.014-0.154-0.154
		c0-0.084,0.028-0.462,0.028-1.289v-2.073c0-0.84-0.028-1.205-0.028-1.303c0-0.14,0.015-0.154,0.154-0.154
		c0.098,0,0.519,0.028,1.737,0.028h0.714v-0.924h-0.952c-1.331,0-1.766,0.028-1.85,0.028c-0.14,0-0.154-0.014-0.154-0.168v-0.126
		l-0.07,0.042c-0.14,0.098-0.224,0.224-0.434,0.546c-0.729,1.163-1.471,2.227-2.129,3.095c0.477-0.014,0.967-0.042,1.471-0.084
		c-0.112-0.308-0.225-0.602-0.35-0.882c-0.057-0.126-0.029-0.168,0.139-0.238l0.631-0.266c0.154-0.07,0.168-0.056,0.225,0.084
		c0.406,0.812,0.658,1.667,0.883,2.536c0.027,0.14,0,0.196-0.169,0.252l-0.687,0.252c-0.195,0.07-0.224,0.07-0.252-0.098
		l-0.126-0.574l-0.812,0.07v3.838c0,1.289,0.028,1.765,0.028,1.835c0,0.14-0.014,0.154-0.154,0.154h-1.064
		c-0.141,0-0.154-0.014-0.154-0.154c0-0.084,0.028-0.546,0.028-1.835v-3.726l-1.051,0.084c-0.238,0.014-0.42,0.056-0.532,0.112
		c-0.084,0.042-0.126,0.056-0.21,0.056c-0.099,0-0.14-0.084-0.169-0.224c-0.069-0.364-0.125-0.743-0.168-1.191
		c0.393,0.028,0.688,0.056,1.051,0.042c0.267-0.336,0.519-0.687,0.757-1.037c-0.532-0.729-1.163-1.429-1.821-2.073
		c-0.056-0.056-0.07-0.098-0.07-0.126c0-0.056,0.043-0.098,0.099-0.182l0.519-0.687c0.111-0.14,0.154-0.154,0.252-0.042
		c0.111,0.126,0.238,0.238,0.35,0.35c0.295-0.476,0.603-1.037,0.841-1.569c0.126-0.28,0.183-0.462,0.252-0.742
		c0.406,0.154,0.812,0.336,1.163,0.504c0.14,0.07,0.182,0.14,0.182,0.224c0,0.084-0.056,0.14-0.126,0.182
		c-0.112,0.07-0.168,0.154-0.267,0.336c-0.42,0.742-0.756,1.317-1.219,1.975c0.197,0.238,0.406,0.462,0.604,0.714
		c0.322-0.518,0.63-1.037,0.924-1.569c0.154-0.294,0.295-0.603,0.406-0.924c0.379,0.154,0.854,0.378,1.232,0.616v-0.504
		c0-0.14,0.015-0.154,0.154-0.154c0.084,0,0.519,0.028,1.85,0.028h0.952c-0.015-0.588-0.042-0.924-0.112-1.401
		c0.49,0.014,0.925,0.042,1.387,0.112c0.127,0.014,0.225,0.084,0.225,0.154c0,0.098-0.057,0.196-0.098,0.28
		c-0.057,0.126-0.085,0.308-0.085,0.854h1.442c1.332,0,1.779-0.028,1.85-0.028c0.141,0,0.154,0.014,0.154,0.154v0.953
		c0,0.154-0.014,0.168-0.154,0.168c-0.07,0-0.518-0.028-1.85-0.028h-1.442v0.924h0.799c1.232,0,1.667-0.028,1.765-0.028
		c0.141,0,0.154,0.014,0.154,0.154c0,0.084-0.028,0.462-0.028,1.303v2.073c0,0.827,0.028,1.205,0.028,1.289
		c0,0.14-0.014,0.154-0.154,0.154c-0.098,0-0.532-0.028-1.765-0.028h-0.21c0.77,1.065,1.793,1.849,3.109,2.592
		c-0.294,0.28-0.477,0.574-0.616,0.91c-0.099,0.21-0.14,0.308-0.224,0.308c-0.07,0-0.154-0.056-0.295-0.168
		c-1.121-0.854-1.961-1.737-2.619-2.885c0.027,1.597,0.111,3.306,0.111,3.488c0,0.14-0.014,0.154-0.153,0.154H55.533z
		 M47.856,181.99c0.028-0.308,0.042-0.561,0.028-0.896c0.42,0.07,0.77,0.14,1.078,0.224c0.168,0.042,0.238,0.112,0.238,0.168
		c0,0.084-0.014,0.126-0.07,0.21c-0.042,0.07-0.084,0.28-0.111,0.519c-0.084,0.784-0.225,1.723-0.463,2.521
		c-0.07,0.224-0.098,0.336-0.182,0.336c-0.07,0-0.168-0.07-0.322-0.168c-0.182-0.112-0.588-0.308-0.771-0.364
		C47.59,183.797,47.786,182.943,47.856,181.99z M51.904,180.995c0.168-0.056,0.183-0.042,0.238,0.098
		c0.196,0.518,0.406,1.303,0.547,1.975c0.027,0.14,0.027,0.182-0.168,0.252l-0.688,0.224c-0.195,0.07-0.209,0.056-0.237-0.098
		c-0.126-0.84-0.309-1.555-0.477-2.045c-0.042-0.14-0.028-0.154,0.14-0.21L51.904,180.995z M55.449,178.628v-0.953H54.09v0.953
		H55.449z M55.449,180.533v-0.966H54.09v0.966H55.449z M56.737,177.675v0.953h1.456v-0.953H56.737z M58.193,179.567h-1.456v0.966
		h1.456V179.567z"/>
	<path d="M22.349,217.564c-0.14,0-0.154,0-0.154-0.14c0-0.098,0.028-0.672,0.028-3.796v-2.227c0-2.213-0.028-2.83-0.028-2.914
		c0-0.14,0.015-0.154,0.154-0.154c0.099,0,0.42,0.028,1.415,0.028h1.625c0.994,0,1.316-0.028,1.414-0.028
		c0.141,0,0.154,0.014,0.154,0.154c0,0.084-0.027,0.672-0.027,2.507v2.409c0,2.97,0.027,3.53,0.027,3.614
		c0,0.14-0.014,0.154-0.154,0.154h-1.051c-0.154,0-0.168-0.014-0.168-0.154v-0.687h-1.988v1.093c0,0.14-0.015,0.14-0.168,0.14
		H22.349z M23.596,209.622v2.045h1.988v-2.045H23.596z M25.584,215.057v-2.129h-1.988v2.129H25.584z M33.695,216.654
		c0,0.658,0.027,1.373,0.027,1.933c0,0.546-0.098,0.882-0.406,1.148c-0.322,0.28-0.883,0.364-1.877,0.364
		c-0.434,0-0.434,0-0.532-0.434c-0.084-0.378-0.224-0.771-0.392-1.051c0.476,0.042,0.938,0.056,1.204,0.056
		c0.435,0,0.546-0.126,0.546-0.49v-2.689h-2.871c-0.351,2.199-1.135,3.39-2.494,4.497c-0.168,0.14-0.252,0.21-0.336,0.21
		c-0.07,0-0.154-0.084-0.308-0.252c-0.267-0.28-0.519-0.504-0.854-0.701c2.129-1.541,2.787-2.773,2.787-7.48v-1.723
		c0-1.232-0.027-1.863-0.027-1.961c0-0.14,0.014-0.154,0.168-0.154c0.084,0,0.447,0.028,1.568,0.028h2.088
		c1.105,0,1.484-0.028,1.568-0.028c0.154,0,0.168,0.014,0.168,0.154c0,0.084-0.027,0.729-0.027,1.961V216.654z M32.266,214.202
		v-1.835h-2.633c-0.014,0.672-0.043,1.289-0.084,1.835H32.266z M29.633,209.272v1.807h2.633v-1.807H29.633z"/>
	<path d="M40.103,213.292c0.784-0.448,1.442-0.63,2.227-0.63c2.045,0,3.475,1.345,3.475,3.362c0,2.339-1.892,3.838-4.889,3.838
		c-1.766,0-2.83-0.756-2.83-2.059c0-0.938,0.883-1.709,1.975-1.709c1.317,0,2.283,0.701,2.634,2.045
		c0.98-0.448,1.429-1.064,1.429-2.129c0-1.274-0.896-2.115-2.199-2.115c-1.162,0-2.451,0.519-3.586,1.485
		c-0.406,0.364-0.799,0.771-1.219,1.191c-0.098,0.098-0.168,0.154-0.238,0.154c-0.056,0-0.125-0.042-0.209-0.126
		c-0.295-0.252-0.604-0.616-0.827-0.911c-0.084-0.112-0.042-0.21,0.07-0.322c1.093-0.883,2.06-1.779,3.319-3.096
		c0.869-0.896,1.527-1.597,2.172-2.396c-0.841,0.154-1.836,0.35-2.704,0.532c-0.183,0.042-0.364,0.084-0.588,0.168
		c-0.07,0.028-0.21,0.07-0.28,0.07c-0.141,0-0.238-0.07-0.309-0.238c-0.168-0.322-0.294-0.714-0.49-1.513
		c0.42,0.056,0.883,0.056,1.303,0.028c0.854-0.084,2.088-0.266,3.18-0.476c0.351-0.07,0.631-0.14,0.771-0.21
		c0.07-0.042,0.196-0.112,0.267-0.112c0.14,0,0.224,0.042,0.322,0.112c0.42,0.322,0.7,0.602,0.938,0.896
		c0.113,0.126,0.154,0.224,0.154,0.336c0,0.14-0.084,0.266-0.238,0.336c-0.237,0.112-0.35,0.21-0.615,0.448
		c-1.023,0.995-1.961,1.975-3.026,2.998L40.103,213.292z M40.117,217.284c-0.406,0-0.672,0.238-0.672,0.532
		c0,0.434,0.377,0.729,1.219,0.729c0.252,0,0.434-0.014,0.644-0.056C41.125,217.718,40.705,217.284,40.117,217.284z"/>
	<path d="M50.266,209.888c0.127,0.056,0.225,0.154,0.225,0.252c0,0.084-0.042,0.224-0.112,0.393
		c-0.056,0.168-0.126,0.77-0.126,1.373c0,0.896,0.027,1.905,0.252,3.194c0.196,1.106,0.561,2.059,1.148,2.059
		c0.449,0,0.799-0.49,1.346-1.947c0.308,0.49,0.615,0.812,0.896,1.079c0.168,0.154,0.168,0.322,0.098,0.519
		c-0.532,1.429-1.4,2.185-2.381,2.185c-1.094,0-2.242-1.289-2.62-3.656c-0.224-1.331-0.336-2.788-0.336-4.076
		c0-0.771-0.028-1.19-0.169-1.835C49.159,209.509,49.846,209.678,50.266,209.888z M56.766,210.77
		c0.056-0.028,0.111-0.056,0.154-0.056c0.056,0,0.098,0.028,0.154,0.084c1.273,1.106,2.395,3.04,2.745,4.791
		c0.042,0.182-0.042,0.238-0.154,0.308c-0.364,0.238-0.714,0.434-1.093,0.56c-0.168,0.056-0.266,0.014-0.294-0.154
		c-0.476-2.003-1.19-3.46-2.62-4.889C56.191,211.078,56.541,210.883,56.766,210.77z"/>
</g>
<g>
	<path d="M260.236,80.605c0,0.462,0.014,0.574,0.126,0.687c0.111,0.126,0.448,0.196,1.008,0.196c0.673,0,0.98-0.112,1.177-0.308
		c0.225-0.238,0.337-0.729,0.351-1.905c0.238,0.182,0.63,0.322,1.022,0.42c0.351,0.084,0.351,0.084,0.336,0.435
		c-0.056,1.148-0.294,1.723-0.687,2.115c-0.392,0.406-0.924,0.603-2.311,0.603c-1.289,0-1.877-0.154-2.157-0.42
		c-0.225-0.21-0.337-0.518-0.337-1.358v-3.852h-1.694c-0.042,1.499-0.364,2.577-0.995,3.516c-0.588,0.925-1.582,1.639-2.997,2.186
		c-0.154,0.056-0.252,0.098-0.322,0.098c-0.112,0-0.168-0.098-0.294-0.336c-0.21-0.35-0.463-0.645-0.742-0.911
		c1.597-0.406,2.465-0.966,3.067-1.765c0.462-0.63,0.784-1.471,0.812-2.787h-1.793c-1.261,0-1.681,0.028-1.766,0.028
		c-0.153,0-0.168-0.014-0.168-0.154v-1.093c0-0.126,0.015-0.14,0.168-0.14c0.085,0,0.505,0.028,1.766,0.028h3.445v-2.003h-2.675
		c-0.295,0.448-0.616,0.869-0.995,1.289c-0.14,0.154-0.224,0.238-0.294,0.238s-0.154-0.084-0.308-0.238
		c-0.238-0.224-0.519-0.448-0.827-0.602c0.995-0.938,1.639-1.961,2.06-2.942c0.196-0.406,0.28-0.728,0.336-1.106
		c0.504,0.112,0.938,0.266,1.303,0.406c0.126,0.056,0.224,0.126,0.224,0.21s-0.042,0.14-0.126,0.21
		c-0.098,0.084-0.168,0.21-0.252,0.406c-0.126,0.28-0.238,0.56-0.364,0.812h1.919v-0.77c0-0.785-0.014-1.135-0.098-1.555
		c0.532,0.028,1.009,0.056,1.499,0.112c0.126,0.014,0.224,0.07,0.224,0.154c0,0.098-0.042,0.168-0.084,0.28
		c-0.07,0.126-0.084,0.378-0.084,0.925v0.854h2.213c1.359,0,1.835-0.028,1.92-0.028c0.14,0,0.153,0.014,0.153,0.168v1.051
		c0,0.14-0.014,0.154-0.153,0.154c-0.085,0-0.561-0.028-1.92-0.028h-2.213v2.003h3.628c1.247,0,1.681-0.028,1.765-0.028
		c0.141,0,0.141,0.014,0.141,0.14v1.093c0,0.14,0,0.154-0.141,0.154c-0.084,0-0.518-0.028-1.765-0.028h-2.101V80.605z"/>
	<path d="M268.955,79.918c0.294,0.588,0.588,0.938,1.163,1.177c0.49,0.196,1.372,0.266,2.591,0.266c1.807,0,4.021-0.098,6.023-0.294
		c-0.196,0.294-0.322,0.658-0.378,1.05c-0.07,0.448-0.07,0.448-0.519,0.477c-1.779,0.098-3.446,0.126-4.902,0.126
		c-1.443,0-2.605-0.112-3.278-0.392c-0.645-0.266-1.022-0.659-1.373-1.247c-0.434,0.42-0.924,0.841-1.442,1.233
		c-0.14,0.112-0.224,0.196-0.28,0.28c-0.07,0.098-0.126,0.126-0.21,0.126c-0.056,0-0.14-0.056-0.196-0.168
		c-0.196-0.364-0.378-0.812-0.574-1.317c0.364-0.168,0.561-0.266,0.841-0.434c0.392-0.252,0.826-0.588,1.177-0.896v-3.11h-0.701
		c-0.756,0-0.952,0.028-1.022,0.028c-0.153,0-0.168-0.014-0.168-0.168V75.59c0-0.14,0.015-0.154,0.168-0.154
		c0.07,0,0.267,0.028,1.022,0.028h0.883c0.742,0,0.967-0.028,1.051-0.028c0.14,0,0.154,0.014,0.154,0.154
		c0,0.084-0.028,0.476-0.028,1.331V79.918z M266.895,70.645c0.07-0.056,0.112-0.084,0.169-0.084c0.027,0,0.069,0.028,0.126,0.07
		c0.658,0.602,1.288,1.26,1.82,2.059c0.084,0.126,0.084,0.14-0.069,0.28l-0.785,0.672c-0.069,0.07-0.126,0.098-0.168,0.098
		s-0.069-0.028-0.111-0.098c-0.547-0.868-1.135-1.569-1.779-2.157c-0.112-0.112-0.099-0.126,0.056-0.252L266.895,70.645z
		 M269.823,75.198c-0.14,0.168-0.21,0.252-0.28,0.252c-0.084,0-0.153-0.098-0.294-0.28c-0.196-0.266-0.378-0.434-0.603-0.588
		c1.079-1.106,1.835-2.213,2.354-3.459c0.154-0.393,0.238-0.617,0.294-0.925c0.421,0.07,0.911,0.182,1.289,0.308
		c0.14,0.042,0.21,0.098,0.21,0.182c0,0.098-0.056,0.154-0.14,0.224c-0.126,0.098-0.168,0.21-0.28,0.435l-0.49,0.854h1.891
		c0.252-0.448,0.421-0.785,0.574-1.205c0.084-0.252,0.126-0.448,0.183-0.728c0.519,0.084,0.967,0.182,1.345,0.294
		c0.112,0.042,0.196,0.098,0.196,0.182s-0.057,0.14-0.141,0.21c-0.098,0.084-0.21,0.182-0.294,0.378
		c-0.14,0.336-0.28,0.588-0.435,0.869h0.925c1.219,0,1.625-0.028,1.709-0.028c0.154,0,0.168,0.014,0.168,0.168v0.883
		c0,0.14-0.014,0.154-0.168,0.154c-0.084,0-0.49-0.028-1.709-0.028h-1.19v1.148h0.616c1.219,0,1.625-0.028,1.709-0.028
		c0.14,0,0.154,0.014,0.154,0.168v0.869c0,0.14-0.015,0.154-0.154,0.154c-0.084,0-0.49-0.028-1.709-0.028h-0.616v1.177h0.616
		c1.219,0,1.625-0.028,1.709-0.028c0.14,0,0.154,0.014,0.154,0.168v0.854c0,0.14-0.015,0.154-0.154,0.154
		c-0.084,0-0.49-0.028-1.709-0.028h-0.616v1.232h1.135c1.33,0,1.778-0.028,1.862-0.028c0.141,0,0.154,0.014,0.154,0.168v0.896
		c0,0.154-0.014,0.168-0.154,0.168c-0.084,0-0.532-0.028-1.862-0.028h-3.811c-1.345,0-1.821,0.028-1.905,0.028
		c-0.14,0-0.153-0.014-0.153-0.168c0-0.084,0.027-0.658,0.027-1.849v-3.67L269.823,75.198z M273.619,74.497v-1.148h-2.072v1.148
		H273.619z M273.619,76.809v-1.177h-2.072v1.177H273.619z M273.619,79.162v-1.232h-2.072v1.232H273.619z"/>
	<path d="M283.417,72.425c0.995,0,1.317-0.028,1.415-0.028c0.14,0,0.154,0.014,0.154,0.154c0,0.07-0.028,0.56-0.028,1.933
		c0.91-1.079,1.443-2.199,1.793-3.166c0.112-0.364,0.21-0.756,0.267-1.19c0.532,0.098,1.135,0.238,1.387,0.336
		c0.182,0.056,0.294,0.126,0.294,0.224c0,0.112-0.014,0.154-0.141,0.28c-0.111,0.098-0.237,0.322-0.378,0.714
		c-0.098,0.266-0.21,0.519-0.322,0.771h2.62c1.008,0,1.33-0.028,1.414-0.028c0.141,0,0.168,0.028,0.168,0.168
		c-0.027,0.392-0.027,0.771-0.027,1.163c-0.015,3.222-0.112,5.253-0.406,7.102c-0.225,1.429-0.799,2.102-2.115,2.129
		c-0.309,0-0.7,0.014-1.064-0.014c-0.406-0.028-0.406-0.028-0.505-0.476c-0.098-0.378-0.252-0.798-0.406-1.079
		c0.757,0.112,1.233,0.154,1.793,0.14c0.505,0,0.743-0.462,0.883-1.205c0.267-1.513,0.351-3.684,0.351-6.598h-3.334
		c-0.336,0.588-0.729,1.177-1.19,1.751c-0.141,0.168-0.225,0.252-0.295,0.252c-0.069,0-0.14-0.084-0.294-0.252
		c-0.154-0.154-0.322-0.308-0.49-0.435v2.9c0,3.264,0.028,3.88,0.028,3.964c0,0.14-0.015,0.154-0.154,0.154h-1.078
		c-0.141,0-0.154-0.014-0.154-0.154v-0.672h-2.003v1.065c0,0.154-0.015,0.168-0.168,0.168h-1.065c-0.14,0-0.153-0.014-0.153-0.168
		c0-0.084,0.027-0.743,0.027-4.146v-2.423c0-2.437-0.027-3.109-0.027-3.208c0-0.14,0.014-0.154,0.153-0.154
		c0.084,0,0.379,0.028,1.191,0.028c0.168-0.491,0.336-1.023,0.434-1.471c0.057-0.266,0.084-0.476,0.112-0.798
		c0.504,0.056,1.022,0.14,1.442,0.224c0.127,0.028,0.196,0.098,0.196,0.182c0,0.098-0.027,0.14-0.126,0.224
		c-0.084,0.07-0.154,0.196-0.196,0.308c-0.153,0.42-0.308,0.896-0.476,1.331H283.417z M281.597,73.671v2.479h2.003v-2.479H281.597z
		 M283.6,80.002v-2.591h-2.003v2.591H283.6z M287.241,75.618c0.07-0.042,0.112-0.07,0.154-0.07c0.028,0,0.056,0.028,0.112,0.084
		c0.687,0.742,1.274,1.709,1.723,2.591c0.07,0.14,0.056,0.182-0.112,0.294l-0.868,0.602c-0.07,0.056-0.112,0.084-0.141,0.084
		c-0.042,0-0.069-0.042-0.098-0.126c-0.462-1.022-0.994-1.905-1.639-2.704c-0.084-0.112-0.07-0.14,0.098-0.252L287.241,75.618z"/>
	<path d="M253.246,112.117c-0.309,0.35-0.63,0.7-0.967,1.022c-0.098,0.098-0.182,0.154-0.252,0.154c-0.098,0-0.168-0.084-0.21-0.266
		c-0.112-0.392-0.267-0.756-0.435-0.98c1.317-1.008,2.367-2.437,3.054-4.09h-1.177c-0.938,0-1.232,0.028-1.316,0.028
		c-0.14,0-0.14-0.014-0.14-0.154v-1.037c0-0.14,0-0.154,0.14-0.154c0.084,0,0.378,0.028,1.316,0.028v-0.504
		c0-0.56,0-1.121-0.084-1.653c0.505,0.014,0.953,0.042,1.415,0.098c0.14,0.014,0.225,0.07,0.225,0.154
		c0,0.112-0.042,0.196-0.085,0.294c-0.084,0.168-0.084,0.462-0.084,1.093v0.518h0.379c0.126,0,0.196-0.028,0.238-0.056
		c0.042-0.028,0.098-0.056,0.168-0.056c0.111,0,0.182,0.056,0.462,0.336c0.21,0.224,0.336,0.434,0.336,0.532
		c0,0.084-0.056,0.14-0.14,0.21c-0.112,0.084-0.168,0.238-0.294,0.532c-0.309,0.672-0.673,1.358-1.121,2.045
		c0.154,0.21,0.309,0.406,0.477,0.588c0.224-0.28,0.392-0.546,0.532-0.812c0.084-0.154,0.168-0.322,0.238-0.532
		c0.28,0.168,0.602,0.364,0.84,0.546c0.084,0.056,0.126,0.098,0.126,0.168s-0.042,0.084-0.111,0.126
		c-0.112,0.056-0.168,0.126-0.267,0.266c-0.182,0.266-0.392,0.561-0.672,0.896c0.224,0.182,0.49,0.378,0.784,0.574
		c-0.154,0.112-0.393,0.435-0.561,0.743c-0.084,0.14-0.126,0.21-0.196,0.21c-0.069,0-0.14-0.07-0.28-0.21
		c-0.35-0.364-0.672-0.729-0.952-1.093v3.88c0,1.05,0.028,1.555,0.028,1.625c0,0.14-0.015,0.154-0.154,0.154h-1.135
		c-0.14,0-0.154-0.014-0.154-0.154c0-0.084,0.028-0.574,0.028-1.625V112.117z M262.141,112.495c0.168,0,0.267-0.028,0.322-0.056
		c0.042-0.014,0.099-0.042,0.168-0.042c0.099,0,0.211,0.056,0.49,0.364c0.267,0.252,0.364,0.406,0.364,0.504
		c0,0.126-0.069,0.182-0.195,0.252c-0.112,0.056-0.211,0.14-0.421,0.393c-0.42,0.49-0.882,0.924-1.387,1.316
		c0.896,0.322,1.961,0.519,3.208,0.63c-0.183,0.224-0.336,0.546-0.435,0.882c-0.126,0.435-0.126,0.435-0.561,0.393
		c-1.372-0.21-2.535-0.561-3.529-1.093c-1.064,0.546-2.312,0.924-3.824,1.177c-0.42,0.07-0.42,0.07-0.603-0.336
		c-0.112-0.252-0.252-0.49-0.476-0.742c1.568-0.21,2.745-0.49,3.712-0.882c-0.406-0.322-0.771-0.672-1.107-1.079
		c-0.434,0.35-0.896,0.658-1.358,0.896c-0.168,0.084-0.266,0.14-0.336,0.14c-0.099,0-0.154-0.098-0.28-0.322
		c-0.14-0.252-0.351-0.504-0.519-0.645c0.995-0.434,1.919-1.079,2.605-1.807c0.183-0.196,0.336-0.392,0.463-0.616
		c-0.617,0.014-0.883,0.028-0.953,0.028c-0.14,0-0.14-0.014-0.14-0.154c0-0.098,0.014-0.392,0.014-1.177v-2.003
		c-0.154,0.182-0.238,0.266-0.336,0.266c-0.084,0-0.168-0.056-0.322-0.196c-0.238-0.21-0.532-0.378-0.799-0.49
		c0.743-0.756,1.331-1.779,1.667-2.647c0.126-0.35,0.225-0.686,0.252-1.022c0.505,0.056,0.967,0.168,1.275,0.224
		c0.14,0.042,0.238,0.07,0.238,0.168c0.014,0.07-0.015,0.14-0.112,0.238c-0.07,0.084-0.168,0.266-0.309,0.645h3.586
		c1.219,0,1.639-0.028,1.724-0.028c0.126,0,0.14,0.014,0.14,0.168v0.924c0,0.14-0.014,0.154-0.14,0.154
		c-0.085,0-0.505-0.028-1.724-0.028h-4.118c-0.112,0.224-0.238,0.448-0.364,0.672h3.601c1.219,0,1.624-0.028,1.723-0.028
		c0.14,0,0.154,0.014,0.154,0.168c0,0.084-0.028,0.406-0.028,1.163v1.653c0,0.785,0.028,1.093,0.028,1.177
		c0,0.14-0.015,0.154-0.154,0.154c-0.099,0-0.504-0.028-1.723-0.028h-2.354c0.14,0.042,0.266,0.098,0.42,0.14
		c0.084,0.028,0.126,0.07,0.126,0.14c0,0.084-0.056,0.126-0.14,0.182c-0.07,0.042-0.126,0.098-0.196,0.21H262.141z M258.737,109.259
		h3.334v-0.672h-3.334V109.259z M262.071,110.17h-3.334v0.645h3.334V110.17z M258.892,113.517c0.364,0.435,0.812,0.798,1.316,1.107
		c0.477-0.322,0.91-0.672,1.331-1.107H258.892z"/>
	<path d="M269.754,112.705c0.49,0.645,1.148,1.219,1.975,1.737c-0.182,0.196-0.378,0.49-0.546,0.84
		c-0.057,0.126-0.126,0.196-0.211,0.196c-0.084,0-0.182-0.07-0.321-0.224c-0.406-0.435-0.896-0.995-1.261-1.597
		c0.027,1.653,0.069,3.152,0.069,3.502c0,0.154-0.014,0.168-0.153,0.168h-1.051c-0.141,0-0.154-0.014-0.154-0.168
		c0-0.336,0.028-1.695,0.056-3.264c-0.42,0.784-0.966,1.485-1.597,2.129c-0.14,0.14-0.224,0.21-0.294,0.21s-0.112-0.07-0.182-0.21
		c-0.196-0.392-0.393-0.658-0.617-0.868c0.925-0.616,1.682-1.429,2.298-2.452h-0.238c-1.121,0-1.513,0.028-1.597,0.028
		c-0.141,0-0.154-0.014-0.154-0.154v-0.98c0-0.126,0.014-0.14,0.154-0.14c0.084,0,0.476,0.028,1.597,0.028h0.616
		c0-0.672-0.028-1.037-0.084-1.541c0.504,0.014,0.868,0.042,1.274,0.112l0.112,0.028c-0.084-0.154-0.126-0.392-0.126-0.743
		l0.014-2.059l-0.784,0.014c-0.21,1.513-0.715,2.493-1.807,3.432c-0.168,0.14-0.253,0.21-0.337,0.21s-0.14-0.098-0.266-0.266
		c-0.183-0.266-0.406-0.477-0.673-0.645c1.135-0.7,1.64-1.429,1.85-2.704c-0.925,0.014-1.345,0.042-1.471,0.042
		s-0.141-0.014-0.141-0.168v-0.953c0-0.154,0.015-0.168,0.141-0.168c0.14,0,0.588,0.028,1.568,0.028
		c0.015-0.168,0.015-0.336,0.015-0.519c0-0.364,0-0.729-0.057-1.121c0.462,0.028,0.854,0.056,1.219,0.112
		c0.154,0.014,0.238,0.07,0.238,0.154c0,0.098-0.028,0.182-0.07,0.266c-0.07,0.098-0.084,0.28-0.098,0.714
		c0,0.126-0.015,0.252-0.015,0.364h0.225c1.12-0.014,1.484-0.042,1.555-0.042c0.126,0,0.141,0,0.141,0.154
		c-0.015,0.35-0.028,0.826-0.028,1.219l-0.015,1.457c0,0.196-0.014,0.28,0.015,0.35c0.028,0.056,0.084,0.084,0.196,0.084
		c0.084,0,0.14-0.014,0.195-0.084c0.057-0.07,0.085-0.434,0.085-1.19c0.153,0.126,0.308,0.224,0.434,0.308
		c0.729-0.98,1.177-2.143,1.443-3.068c0.056-0.196,0.126-0.518,0.168-0.826c0.476,0.084,0.924,0.182,1.219,0.266
		c0.153,0.042,0.252,0.126,0.252,0.224c0,0.07-0.042,0.14-0.126,0.21c-0.112,0.098-0.154,0.252-0.267,0.532
		c-0.126,0.364-0.294,0.756-0.477,1.177h1.359c0.196-0.448,0.35-0.869,0.477-1.303c0.084-0.28,0.153-0.602,0.195-0.911
		c0.463,0.084,0.938,0.196,1.247,0.294c0.14,0.042,0.238,0.098,0.238,0.196c0,0.098-0.042,0.154-0.141,0.252
		c-0.084,0.084-0.153,0.168-0.28,0.532c-0.111,0.266-0.252,0.588-0.42,0.938h0.448c1.009,0,1.331-0.028,1.415-0.028
		c0.14,0,0.154,0.014,0.154,0.154v0.995c0,0.14-0.015,0.154-0.154,0.154c-0.084,0-0.406-0.028-1.415-0.028h-0.532v1.499
		c1.093,0,1.499-0.028,1.583-0.028c0.154,0,0.168,0.014,0.168,0.168v0.952c0,0.14-0.014,0.154-0.168,0.154
		c-0.084,0-0.49-0.028-1.583-0.028v1.555c1.093,0,1.499-0.028,1.583-0.028c0.154,0,0.168,0.014,0.168,0.154v0.953
		c0,0.154-0.014,0.168-0.168,0.168c-0.084,0-0.49-0.028-1.583-0.028v1.737h0.183c1.358,0,1.835-0.028,1.919-0.028
		c0.14,0,0.153,0.014,0.153,0.154v0.98c0,0.154-0.014,0.168-0.153,0.168c-0.084,0-0.561-0.028-1.919-0.028h-2.914v0.616
		c0,0.14-0.014,0.154-0.168,0.154h-1.037c-0.14,0-0.153-0.014-0.153-0.154c0-0.07,0.027-0.462,0.027-1.667v-6.317l-0.084-0.098
		l-0.182-0.168c-0.028,0.673-0.168,1.093-0.393,1.261c-0.196,0.168-0.406,0.266-0.952,0.266c-0.505,0-0.729-0.028-1.009-0.238
		c-0.014,0.098-0.056,0.182-0.084,0.238c-0.056,0.154-0.07,0.336-0.07,1.023h0.364c1.121,0,1.499-0.028,1.569-0.028
		c0.154,0,0.168,0.014,0.168,0.14v0.98c0,0.14-0.014,0.154-0.168,0.154c-0.07,0-0.448-0.028-1.569-0.028H269.754z M274.978,109.595
		v-1.499h-1.457v1.499H274.978z M274.978,112.369v-1.555h-1.457v1.555H274.978z M274.978,115.324v-1.737h-1.457v1.737H274.978z"/>
	<path d="M253.429,151.543c-0.141,0-0.154-0.014-0.154-0.154c0-0.084,0.028-0.827,0.028-4.566v-2.591
		c0-2.605-0.028-3.376-0.028-3.474c0-0.14,0.014-0.154,0.154-0.154c0.098,0,0.588,0.028,1.947,0.028h0.91
		c0.224-0.448,0.35-0.812,0.519-1.317c0.069-0.182,0.111-0.392,0.153-0.658c0.477,0.042,1.093,0.14,1.499,0.21
		c0.126,0.028,0.196,0.112,0.196,0.182c0,0.084-0.056,0.14-0.112,0.196c-0.098,0.112-0.168,0.21-0.21,0.336
		c-0.14,0.336-0.266,0.63-0.49,1.051h2.731c1.358,0,1.849-0.028,1.947-0.028c0.14,0,0.154,0.014,0.154,0.154
		c0,0.084-0.028,0.869-0.028,3.096v2.956c0,3.74,0.028,4.482,0.028,4.553c0,0.14-0.015,0.154-0.154,0.154h-1.247
		c-0.14,0-0.154-0.014-0.154-0.154v-0.63h-6.317v0.658c0,0.14-0.014,0.154-0.153,0.154H253.429z M254.801,143.503h6.317v-1.527
		h-6.317V143.503z M261.118,146.388v-1.568h-6.317v1.568H261.118z M261.118,149.386v-1.681h-6.317v1.681H261.118z"/>
	<path d="M275.175,143.138c0.603,1.611,1.695,2.731,3.124,3.488c-0.238,0.308-0.435,0.63-0.603,1.022
		c-0.098,0.224-0.154,0.322-0.238,0.322s-0.168-0.056-0.322-0.168c-1.316-0.924-2.27-2.213-2.745-3.558
		c-0.519,1.583-1.485,2.731-2.815,3.558c-0.154,0.098-0.238,0.14-0.309,0.14c-0.084,0-0.14-0.084-0.28-0.266
		c-0.252-0.336-0.49-0.561-0.784-0.743c1.695-0.896,2.689-2.073,3.138-3.796h-0.252c-1.232,0-1.639,0.028-1.723,0.028
		c-0.799,1.877-2.102,3.572-4.385,4.819c-0.168,0.084-0.267,0.126-0.351,0.126c-0.098,0-0.153-0.084-0.294-0.308
		c-0.196-0.308-0.42-0.546-0.7-0.742c0.938-0.378,1.751-0.896,2.438-1.513c-0.322-0.378-0.687-0.7-1.064-0.98
		c-0.126-0.084-0.126-0.098,0.014-0.238l0.546-0.546c0.126-0.126,0.154-0.112,0.28-0.028c0.379,0.238,0.785,0.603,1.079,0.911
		c0.182-0.21,0.35-0.448,0.504-0.687c-0.336-0.364-0.7-0.658-1.036-0.882c-0.112-0.07-0.112-0.098,0-0.238l0.518-0.602
		c0.112-0.126,0.141-0.126,0.267-0.056c0.28,0.182,0.561,0.378,0.883,0.658c0.182-0.42,0.35-0.854,0.476-1.316h-1.778
		c-0.505,0.882-1.121,1.667-1.905,2.353c-0.154,0.14-0.252,0.224-0.351,0.224c-0.084,0-0.168-0.084-0.294-0.266
		c-0.196-0.28-0.406-0.49-0.645-0.658c1.19-0.883,2.073-2.017,2.647-3.53c0.141-0.322,0.21-0.63,0.252-0.91
		c0.435,0.07,0.827,0.154,1.219,0.266c0.154,0.042,0.21,0.098,0.21,0.182s-0.027,0.112-0.098,0.196
		c-0.084,0.084-0.154,0.21-0.252,0.462l-0.196,0.477h1.484c0.099,0,0.196,0,0.253-0.028c0.069-0.028,0.126-0.056,0.195-0.056
		c0.099,0,0.183,0.042,0.463,0.308c0.308,0.28,0.406,0.406,0.406,0.519c0,0.098-0.028,0.14-0.099,0.224
		c-0.069,0.098-0.14,0.322-0.21,0.532h1.709c0.028-0.308,0.042-0.63,0.057-0.966c0-0.841,0-1.345-0.07-1.933
		c0.504,0,0.882,0.014,1.387,0.07c0.14,0.028,0.224,0.098,0.224,0.154c0,0.084-0.014,0.14-0.084,0.252
		c-0.056,0.098-0.084,0.406-0.084,1.345c0,0.364-0.027,0.729-0.056,1.079h1.12c1.233,0,1.653-0.028,1.737-0.028
		c0.14,0,0.154,0.014,0.154,0.154v1.065c0,0.126-0.015,0.14-0.154,0.14c-0.084,0-0.504-0.028-1.737-0.028H275.175z M265.888,150.857
		c-0.182-0.14-0.182-0.168-0.084-0.266c0.715-0.672,1.289-1.485,1.681-2.339c0.057-0.14,0.07-0.154,0.28-0.056l0.771,0.378
		c0.154,0.07,0.168,0.112,0.112,0.252c-0.448,1.051-0.98,1.919-1.639,2.647c-0.057,0.056-0.084,0.084-0.126,0.084
		s-0.085-0.028-0.169-0.084L265.888,150.857z M270.734,148.419c0.183-0.014,0.21-0.014,0.252,0.14
		c0.196,0.798,0.28,1.709,0.351,2.633c0,0.14-0.042,0.196-0.225,0.21l-0.994,0.056c-0.21,0.014-0.238,0-0.238-0.14
		c0-0.896-0.07-1.821-0.224-2.647c-0.028-0.14,0.014-0.168,0.195-0.182L270.734,148.419z M273.424,148.335
		c0.183-0.042,0.21-0.028,0.267,0.098c0.336,0.771,0.602,1.723,0.784,2.549c0.042,0.154,0.014,0.196-0.168,0.238l-1.009,0.224
		c-0.21,0.056-0.225,0.042-0.252-0.112c-0.141-0.896-0.336-1.807-0.616-2.591c-0.057-0.126-0.042-0.168,0.153-0.21L273.424,148.335z
		 M276.071,148.041c0.154-0.07,0.196-0.07,0.28,0.028c0.63,0.742,1.247,1.639,1.709,2.535c0.07,0.14,0.056,0.168-0.112,0.266
		l-0.883,0.546c-0.182,0.098-0.224,0.084-0.279-0.042c-0.435-0.966-0.995-1.863-1.598-2.703c-0.084-0.112-0.084-0.154,0.099-0.238
		L276.071,148.041z M276.267,139.356c0.14-0.07,0.182-0.084,0.266,0.028c0.337,0.392,0.715,0.896,1.051,1.429
		c0.07,0.126,0.07,0.168-0.084,0.266l-0.687,0.42c-0.084,0.056-0.126,0.084-0.154,0.084c-0.042,0-0.069-0.042-0.111-0.126
		c-0.294-0.56-0.658-1.078-1.009-1.499c-0.098-0.126-0.098-0.168,0.07-0.252L276.267,139.356z"/>
	<path d="M283.277,141.051c0.995,0,1.317-0.028,1.415-0.028c0.14,0,0.154,0.014,0.154,0.154c0,0.07-0.028,0.56-0.028,1.933
		c0.91-1.079,1.443-2.199,1.793-3.166c0.112-0.364,0.21-0.756,0.267-1.19c0.532,0.098,1.135,0.238,1.387,0.336
		c0.182,0.056,0.294,0.126,0.294,0.224c0,0.112-0.014,0.154-0.141,0.28c-0.111,0.098-0.237,0.322-0.378,0.714
		c-0.098,0.266-0.21,0.519-0.322,0.771h2.62c1.008,0,1.33-0.028,1.414-0.028c0.141,0,0.168,0.028,0.168,0.168
		c-0.027,0.392-0.027,0.771-0.027,1.163c-0.015,3.222-0.112,5.253-0.406,7.102c-0.225,1.429-0.799,2.102-2.115,2.129
		c-0.309,0-0.7,0.014-1.064-0.014c-0.406-0.028-0.406-0.028-0.505-0.476c-0.098-0.378-0.252-0.798-0.406-1.079
		c0.757,0.112,1.233,0.154,1.793,0.14c0.505,0,0.743-0.462,0.883-1.205c0.267-1.513,0.351-3.684,0.351-6.598h-3.334
		c-0.336,0.588-0.729,1.177-1.19,1.751c-0.141,0.168-0.225,0.252-0.295,0.252c-0.069,0-0.14-0.084-0.294-0.252
		c-0.154-0.154-0.322-0.308-0.49-0.435v2.9c0,3.264,0.028,3.88,0.028,3.964c0,0.14-0.015,0.154-0.154,0.154h-1.078
		c-0.141,0-0.154-0.014-0.154-0.154v-0.672h-2.003v1.065c0,0.154-0.015,0.168-0.168,0.168h-1.065c-0.14,0-0.153-0.014-0.153-0.168
		c0-0.084,0.027-0.743,0.027-4.146v-2.423c0-2.437-0.027-3.109-0.027-3.208c0-0.14,0.014-0.154,0.153-0.154
		c0.084,0,0.379,0.028,1.191,0.028c0.168-0.491,0.336-1.023,0.434-1.471c0.057-0.266,0.084-0.476,0.112-0.798
		c0.504,0.056,1.022,0.14,1.442,0.224c0.127,0.028,0.196,0.098,0.196,0.182c0,0.098-0.027,0.14-0.126,0.224
		c-0.084,0.07-0.154,0.196-0.196,0.308c-0.153,0.42-0.308,0.896-0.476,1.331H283.277z M281.457,142.298v2.479h2.003v-2.479H281.457z
		 M283.46,148.629v-2.591h-2.003v2.591H283.46z M287.101,144.245c0.07-0.042,0.112-0.07,0.154-0.07c0.028,0,0.056,0.028,0.112,0.084
		c0.687,0.742,1.274,1.709,1.723,2.591c0.07,0.14,0.056,0.182-0.112,0.294l-0.868,0.602c-0.07,0.056-0.112,0.084-0.141,0.084
		c-0.042,0-0.069-0.042-0.098-0.126c-0.462-1.022-0.994-1.905-1.639-2.704c-0.084-0.112-0.07-0.14,0.098-0.252L287.101,144.245z"/>
	<path d="M254.184,182.284c0.056-0.49,0.07-0.756,0.042-1.134c0.477,0.042,0.938,0.098,1.387,0.182
		c0.154,0.028,0.28,0.07,0.28,0.182c0,0.098-0.056,0.168-0.112,0.266c-0.069,0.112-0.098,0.252-0.154,0.701
		c-0.224,1.639-1.12,2.815-2.591,3.362c-0.168,0.056-0.252,0.098-0.336,0.098c-0.099,0-0.154-0.084-0.309-0.322
		c-0.224-0.35-0.448-0.63-0.714-0.869C253.162,184.413,254.03,183.517,254.184,182.284z M255.207,174.244
		c0-0.406-0.014-0.729-0.084-1.065c0.477,0.014,0.995,0.042,1.4,0.084c0.112,0.014,0.196,0.07,0.196,0.14
		c0,0.084-0.027,0.126-0.084,0.21c-0.056,0.084-0.069,0.28-0.069,0.63h2.787c-0.014-0.393-0.028-0.729-0.084-1.065
		c0.477,0.014,1.009,0.056,1.4,0.098c0.126,0.014,0.196,0.056,0.196,0.14c0,0.07-0.014,0.126-0.07,0.21
		c-0.056,0.084-0.084,0.266-0.084,0.617h1.373c1.415,0,1.933-0.028,2.017-0.028c0.141,0,0.141,0.014,0.141,0.154v0.953
		c0,0.14,0,0.154-0.141,0.154c-0.084,0-0.602-0.028-2.017-0.028h-1.373c0,0.476,0.028,0.686,0.028,0.756
		c0,0.154-0.014,0.168-0.168,0.168h-1.093c-0.14,0-0.154-0.014-0.154-0.168c0-0.07,0.015-0.308,0.028-0.84h-2.787
		c0,0.532,0.027,0.77,0.027,0.84c0,0.14-0.014,0.154-0.154,0.154h-1.106c-0.14,0-0.154-0.014-0.154-0.154
		c0-0.07,0.015-0.28,0.028-0.756h-1.288c-1.373,0-1.85,0.028-1.934,0.028c-0.14,0-0.154-0.014-0.154-0.154v-0.953
		c0-0.14,0.015-0.154,0.154-0.154c0.084,0,0.561,0.028,1.934,0.028H255.207z M255.361,178.978c0,0.308,0.098,0.448,0.322,0.49
		c0.238,0.042,0.7,0.084,2.647,0.084c1.694,0,2.983-0.028,4.314-0.112c0.182-0.014,0.238,0.014,0.252,0.252l0.028,0.7
		c0.014,0.294,0,0.309-0.211,0.322c-1.274,0.07-2.451,0.098-4.454,0.098c-2.535,0-3.222-0.056-3.726-0.238
		c-0.393-0.154-0.616-0.392-0.616-1.19v-1.205c-1.177,0-1.598,0.028-1.682,0.028c-0.153,0-0.168-0.014-0.168-0.154v-0.953
		c0-0.14,0.015-0.154,0.168-0.154c0.084,0,0.519,0.028,1.808,0.028h3.249v-0.084c0-0.406,0-0.616-0.084-0.994
		c0.547,0,0.854,0.028,1.317,0.07c0.14,0.014,0.21,0.07,0.21,0.154s-0.042,0.154-0.07,0.224c-0.042,0.112-0.056,0.224-0.056,0.56
		v0.07h3.403c1.289,0,1.737-0.028,1.821-0.028c0.14,0,0.154,0.014,0.154,0.154v0.953c0,0.14-0.015,0.154-0.154,0.154
		c-0.084,0-0.532-0.028-1.821-0.028h-6.653V178.978z M257.141,182.718c0-0.672-0.015-1.022-0.084-1.415
		c0.518,0.014,0.938,0.042,1.442,0.098c0.126,0.014,0.21,0.07,0.21,0.154c0,0.112-0.042,0.182-0.084,0.294
		c-0.042,0.126-0.07,0.322-0.07,0.84v1.247c0,0.967,0.028,1.345,0.028,1.429c0,0.14-0.014,0.154-0.168,0.154h-1.135
		c-0.154,0-0.168-0.014-0.168-0.154c0-0.098,0.028-0.462,0.028-1.429V182.718z M261.553,184.021c0,0.252,0.014,0.336,0.098,0.393
		c0.07,0.042,0.28,0.07,0.547,0.07c0.322,0,0.602-0.028,0.687-0.182c0.111-0.168,0.126-0.49,0.126-1.331
		c0.294,0.154,0.616,0.266,0.938,0.336c0.364,0.084,0.364,0.098,0.35,0.462c-0.056,0.953-0.182,1.331-0.49,1.625
		c-0.266,0.266-0.658,0.378-1.709,0.378c-0.729,0-1.204-0.014-1.555-0.21c-0.238-0.126-0.392-0.392-0.392-0.995v-1.821
		c0-0.616-0.028-1.022-0.085-1.527c0.505,0.014,0.995,0.042,1.43,0.098c0.14,0.014,0.21,0.084,0.21,0.154
		c0,0.098-0.042,0.168-0.084,0.238c-0.057,0.126-0.07,0.238-0.07,0.771V184.021z"/>
	<path d="M268.353,175.574c0.126,0.056,0.224,0.154,0.224,0.252c0,0.084-0.042,0.224-0.112,0.393
		c-0.056,0.168-0.126,0.77-0.126,1.373c0,0.896,0.028,1.905,0.252,3.194c0.196,1.106,0.561,2.059,1.149,2.059
		c0.448,0,0.798-0.49,1.345-1.947c0.308,0.49,0.616,0.812,0.896,1.079c0.168,0.154,0.168,0.322,0.098,0.519
		c-0.532,1.429-1.4,2.185-2.381,2.185c-1.093,0-2.241-1.289-2.62-3.656c-0.224-1.331-0.336-2.788-0.336-4.076
		c0-0.771-0.028-1.19-0.168-1.835C267.246,175.196,267.933,175.364,268.353,175.574z M274.852,176.457
		c0.056-0.028,0.112-0.056,0.154-0.056c0.056,0,0.098,0.028,0.154,0.084c1.274,1.106,2.395,3.04,2.745,4.791
		c0.042,0.182-0.042,0.238-0.154,0.308c-0.364,0.238-0.714,0.434-1.093,0.56c-0.168,0.056-0.266,0.014-0.294-0.154
		c-0.476-2.003-1.19-3.46-2.619-4.889C274.278,176.765,274.629,176.569,274.852,176.457z"/>
	<path d="M256.103,214.132c0,3.572,0.028,4.287,0.028,4.371c0,0.14-0.014,0.154-0.154,0.154h-1.009c-0.126,0-0.14-0.014-0.14-0.154
		V217.9h-1.331v1.093c0,0.14-0.014,0.154-0.154,0.154h-1.008c-0.141,0-0.154-0.014-0.154-0.154c0-0.098,0.028-0.84,0.028-4.623
		v-2.62c0-2.619-0.028-3.39-0.028-3.488c0-0.14,0.014-0.154,0.154-0.154c0.098,0,0.364,0.028,1.219,0.028h1.204
		c0.854,0,1.121-0.028,1.219-0.028c0.141,0,0.154,0.014,0.154,0.154c0,0.084-0.028,0.812-0.028,2.998V214.132z M253.498,209.411
		v2.886h1.331v-2.886H253.498z M254.829,216.626v-3.082h-1.331v3.082H254.829z M258.513,213.418c-1.345,0-1.807,0.028-1.891,0.028
		c-0.141,0-0.154-0.014-0.154-0.168v-0.98c0-0.14,0.014-0.154,0.154-0.154c0.084,0,0.546,0.028,1.891,0.028h2.578
		c0.168-0.462,0.308-0.953,0.378-1.205c0.056-0.21,0.098-0.434,0.126-0.729c0.448,0.07,0.91,0.154,1.274,0.238
		c0.154,0.042,0.21,0.07,0.21,0.154c0,0.098-0.042,0.14-0.111,0.21c-0.07,0.07-0.141,0.21-0.196,0.364
		c-0.112,0.294-0.225,0.575-0.393,0.967h0.084c1.331,0,1.793-0.028,1.877-0.028c0.154,0,0.168,0.014,0.168,0.154v0.98
		c0,0.154-0.014,0.168-0.168,0.168c-0.084,0-0.546-0.028-1.877-0.028H258.513z M258.779,210.112c-1.274,0-1.723,0.028-1.821,0.028
		c-0.14,0-0.154-0.014-0.154-0.168v-0.966c0-0.126,0.015-0.14,0.154-0.14c0.099,0,0.547,0.028,1.821,0.028h0.812v-0.252
		c0-0.519-0.028-0.883-0.099-1.219c0.532,0.014,0.98,0.042,1.471,0.084c0.141,0.014,0.225,0.07,0.225,0.14
		c0,0.098-0.042,0.168-0.084,0.266s-0.07,0.308-0.07,0.742v0.238h1.135c1.274,0,1.723-0.028,1.807-0.028
		c0.154,0,0.168,0.014,0.168,0.14v0.966c0,0.154-0.014,0.168-0.168,0.168c-0.084,0-0.532-0.028-1.807-0.028H258.779z
		 M257.49,220.239c-0.14,0-0.154-0.014-0.154-0.154c0-0.084,0.028-0.476,0.028-2.591v-1.331c0-1.303-0.028-1.695-0.028-1.793
		c0-0.14,0.015-0.154,0.154-0.154c0.084,0,0.477,0.028,1.653,0.028h2.438c1.162,0,1.568-0.028,1.639-0.028
		c0.154,0,0.168,0.014,0.168,0.154c0,0.084-0.028,0.49-0.028,1.583v1.513c0,2.115,0.028,2.507,0.028,2.591
		c0,0.126-0.014,0.14-0.168,0.14h-1.022c-0.154,0-0.168-0.014-0.168-0.14v-0.476h-3.349v0.504c0,0.14-0.014,0.154-0.153,0.154
		H257.49z M258.779,210.252c0.154-0.042,0.196-0.014,0.266,0.112c0.196,0.378,0.379,0.84,0.477,1.219
		c0.042,0.14,0.028,0.154-0.154,0.196l-0.84,0.238c-0.168,0.042-0.211,0.014-0.253-0.154c-0.098-0.392-0.252-0.827-0.434-1.177
		c-0.084-0.154-0.042-0.182,0.14-0.224L258.779,210.252z M258.681,216.331h3.349v-0.98h-3.349V216.331z M262.029,218.474v-1.079
		h-3.349v1.079H262.029z"/>
	<path d="M268.353,209.888c0.126,0.056,0.224,0.154,0.224,0.252c0,0.084-0.042,0.224-0.112,0.393
		c-0.056,0.168-0.126,0.77-0.126,1.373c0,0.896,0.028,1.905,0.252,3.194c0.196,1.106,0.561,2.059,1.149,2.059
		c0.448,0,0.798-0.49,1.345-1.947c0.308,0.49,0.616,0.812,0.896,1.079c0.168,0.154,0.168,0.322,0.098,0.519
		c-0.532,1.429-1.4,2.185-2.381,2.185c-1.093,0-2.241-1.289-2.62-3.656c-0.224-1.331-0.336-2.788-0.336-4.076
		c0-0.771-0.028-1.19-0.168-1.835C267.246,209.509,267.933,209.678,268.353,209.888z M274.852,210.77
		c0.056-0.028,0.112-0.056,0.154-0.056c0.056,0,0.098,0.028,0.154,0.084c1.274,1.106,2.395,3.04,2.745,4.791
		c0.042,0.182-0.042,0.238-0.154,0.308c-0.364,0.238-0.714,0.434-1.093,0.56c-0.168,0.056-0.266,0.014-0.294-0.154
		c-0.476-2.003-1.19-3.46-2.619-4.889C274.278,211.078,274.629,210.883,274.852,210.77z"/>
</g>
</svg>
