<?xml version="1.0" encoding="utf-8"?>
<!-- Generator: Adobe Illustrator 22.0.1, SVG Export Plug-In . SVG Version: 6.00 Build 0)  -->
<svg version="1.1" id="レイヤー_1" xmlns="http://www.w3.org/2000/svg" xmlns:xlink="http://www.w3.org/1999/xlink" x="0px"
	 y="0px" viewBox="0 0 935.433 496.063" enable-background="new 0 0 935.433 496.063" xml:space="preserve">
<g>
	<g>
		<path fill="#231815" d="M861.064,70.63h-15.166v-3.235l1.509-0.288c0.766-0.095,1.39-0.346,1.868-0.755
			c0.479-0.406,0.791-0.898,0.935-1.473l-5.174-14.016l-6.828-18.472l-12.722,32.487c0.144,0.574,0.455,1.054,0.935,1.438
			c0.478,0.384,1.101,0.647,1.868,0.79l1.725,0.288v3.235h-14.663v-3.235l1.941-0.359c0.718-0.096,1.412-0.323,2.083-0.683
			c0.671-0.359,1.246-0.826,1.726-1.401l15.525-37.446c0.766,0,1.497,0,2.192,0c0.694,0,1.448,0,2.264,0l14.231,37.302
			c0.528,0.576,1.125,1.055,1.797,1.438c0.671,0.384,1.413,0.624,2.229,0.719l1.726,0.287V70.63z M828.72,49.212h16.602l1.366,3.809
			h-18.112L828.72,49.212z"/>
	</g>
	<g>
		<path fill="#231815" d="M520.869,70.63h-15.166v-0.359l1.077-0.359c1.007-0.096,1.772-0.419,2.3-0.971
			c0.528-0.55,0.791-1.233,0.791-2.048l-7.044-17.753l-6.468-16.746l-14.304,34.5c0.047,0.862,0.359,1.558,0.935,2.085
			c0.574,0.528,1.389,0.862,2.444,1.006l1.006,0.288v0.359h-10.566v-0.359l0.935-0.359c1.006-0.144,1.904-0.432,2.695-0.863
			c0.791-0.43,1.473-1.053,2.048-1.868l16.89-40.681c0.096-0.288,0.216-0.419,0.36-0.395c0.143,0.025,0.262,0.156,0.359,0.395
			L515.55,67.18c0.576,0.815,1.233,1.449,1.977,1.904c0.742,0.456,1.64,0.755,2.695,0.898l0.647,0.288V70.63z M488.741,50.289
			h15.453v0.36h-15.597L488.741,50.289z"/>
	</g>
	<g>
		<path fill="#231815" d="M521.085,408.439h-14.446v-0.359h0.718c0.574,0,1.21,0,1.905,0c0.694,0,1.33,0,1.904,0l-8.337-21.132
			l-6.468-16.746l-15.669,37.878c0.526,0,1.053,0,1.58,0s1.054,0,1.582,0h1.868v0.359h-9.846v-0.359h0.791c0.624,0,1.233,0,1.833,0
			c0.598,0,1.21,0,1.832,0l18.113-43.772c0.096-0.288,0.216-0.419,0.36-0.395c0.143,0.025,0.262,0.156,0.359,0.395l17.609,43.772
			c0.621,0,1.221,0,1.797,0c0.574,0,1.173,0,1.797,0h0.718V408.439z M488.741,388.098h15.453v0.36h-15.597L488.741,388.098z"/>
	</g>
	<g>
		<path fill="#231815" d="M861.314,408.439h-15.166v-4.312h0.719c0.621,0,1.304,0,2.048,0c0.742,0,1.425,0,2.048,0l-5.75-15.453
			l-6.828-18.472l-13.297,33.925c0.528,0,1.054,0,1.582,0c0.526,0,1.053,0,1.582,0h1.868v4.312h-14.949v-4.312h0.79
			c0.671,0,1.403,0,2.192,0c0.791,0,1.521,0,2.192,0l16.1-38.813c0.862,0,1.665,0,2.408,0c0.743,0,1.545,0,2.407,0l14.807,38.669
			c0.718,0,1.473,0,2.264,0c0.791,0,1.545,0,2.265,0h0.718V408.439z M828.899,387.021h16.602l1.366,4.312h-18.113L828.899,387.021z"
			/>
	</g>
	<g>
		<path fill="#E7AC35" d="M804.173,408.439h-15.166v-3.665h1.15c0.622,0,1.269,0.012,1.941,0.035
			c0.67,0.025,1.294,0.013,1.869-0.035l-6.325-16.676l-6.397-17.105l-13.297,33.853c0.528-0.047,1.042-0.071,1.545-0.071
			c0.504,0,1.018,0,1.545,0h1.869v3.665H758.82v-3.665h0.79c0.671,0,1.366,0,2.085,0c0.719,0,1.413,0,2.085,0l16.46-39.747
			c0.622-0.095,1.21-0.144,1.761-0.144c0.55,0,1.137,0.049,1.761,0.144l15.453,39.675c0.718,0,1.438,0,2.156,0
			c0.718,0,1.413,0,2.085,0h0.718V408.439z M772.405,387.021h15.884l0.935,3.809h-17.035L772.405,387.021z"/>
	</g>
	<g>
		<path fill="#E7AC35" d="M747.248,408.439h-15.165v-2.875h1.653c0.622,0,1.221,0,1.797,0c0.574,0,1.15,0,1.724,0l-7.044-18.04
			l-5.965-15.74l-13.369,33.78c0.526,0,1.042,0,1.545,0c0.503,0,1.042,0,1.617,0h1.869v2.875h-13.225v-2.875h0.79
			c0.672,0,1.33,0,1.977,0s1.281,0,1.904,0l17.034-40.896c0.336-0.191,0.672-0.288,1.007-0.288c0.335,0,0.694,0.097,1.077,0.288
			l16.172,40.825c0.622,0,1.258,0.013,1.904,0.036c0.647,0.025,1.306,0.035,1.977,0.035h0.718V408.439z M716.055,387.021h15.166
			l0.432,3.162H715.84L716.055,387.021z"/>
	</g>
	<g>
		<path fill="#E7AC35" d="M690.14,408.439h-15.166v-2.156h2.156c0.526,0,1.042,0,1.545,0c0.503,0,1.018,0,1.545,0l-7.619-19.335
			l-5.534-14.375l-13.369,33.71c0.528,0,1.042,0,1.545,0c0.504,0,1.018,0,1.545,0h1.869v2.156h-12.29v-2.156h0.79
			c0.622,0,1.234,0,1.833,0c0.599,0,1.21,0,1.833,0l17.393-41.975c0.096-0.288,0.216-0.419,0.36-0.395
			c0.143,0.025,0.262,0.156,0.359,0.395l16.89,41.975c0.622,0,1.222,0,1.797,0c0.576,0,1.173,0,1.797,0h0.719V408.439z
			 M659.593,387.021h14.375v2.588h-14.663L659.593,387.021z"/>
	</g>
	<g>
		<path fill="#E7AC35" d="M633.644,408.439h-14.95v-1.582h1.725c0.526,0,1.079,0,1.653,0c0.576,0,1.125,0,1.653,0l-7.834-19.909
			l-5.821-15.165l-14.088,35.074c0.478,0,0.982,0,1.51,0c0.526,0,1.053,0,1.58,0h1.869v1.582H589.44v-1.582h0.791
			c0.622,0,1.222,0,1.797,0c0.576,0,1.197,0,1.869,0l17.608-42.549c0.096-0.288,0.216-0.419,0.36-0.395
			c0.143,0.025,0.262,0.156,0.359,0.395l17.105,42.549c0.622,0,1.222,0,1.797,0c0.576,0,1.174,0,1.797,0h0.719V408.439z
			 M602.521,387.38h14.735v1.869h-14.95L602.521,387.38z"/>
	</g>
	<g>
		<path fill="#E7AC35" d="M577.508,408.439h-14.735v-0.935h1.222c0.574,0,1.173,0,1.797,0c0.622,0,1.221,0,1.797,0l-8.122-20.556
			l-6.181-15.955l-14.878,36.44c0.576,0.048,1.115,0.071,1.618,0.071c0.503,0,0.993,0,1.473,0h1.941v0.935H532.73v-0.935h0.79
			c0.67,0,1.306-0.011,1.906-0.035c0.598-0.025,1.185-0.012,1.761,0.035l17.896-43.196c0.096-0.288,0.216-0.419,0.36-0.395
			c0.143,0.025,0.262,0.156,0.359,0.395l17.393,43.196c0.622,0,1.222,0,1.797,0c0.576,0,1.173,0,1.797,0h0.719V408.439z
			 M545.739,387.739h15.094v1.079h-15.31L545.739,387.739z"/>
	</g>
	<g>
		<path fill="#E7AC35" d="M521.013,352.138h-14.591v-0.359l0.791-0.144c0.67,0,1.33-0.047,1.977-0.144
			c0.647-0.096,1.21-0.191,1.688-0.288l-8.05-20.556l-6.468-16.746l-15.382,37.302c0.432,0.192,0.898,0.324,1.403,0.395
			c0.503,0.073,1.066,0.108,1.688,0.108l1.797,0.073v0.359h-9.99v-0.359l0.791-0.144c0.67,0,1.33-0.036,1.977-0.108
			c0.647-0.073,1.281-0.18,1.904-0.324l17.896-43.196c0.096-0.288,0.216-0.419,0.36-0.395c0.143,0.025,0.262,0.156,0.359,0.395
			l17.393,43.196c0.622,0.192,1.233,0.312,1.833,0.359c0.599,0.049,1.258,0.097,1.977,0.144l0.647,0.073V352.138z M488.741,331.797
			h15.453v0.36h-15.597L488.741,331.797z"/>
	</g>
	<g>
		<path fill="#E7AC35" d="M861.279,352.138h-15.237v-4.097l0.862-0.073c0.622,0,1.281-0.047,1.977-0.143
			c0.694-0.096,1.329-0.167,1.904-0.216l-5.606-15.237l-6.828-18.472l-13.154,33.709c0.432,0.097,0.898,0.18,1.401,0.251
			c0.503,0.073,1.066,0.133,1.689,0.18l1.869-0.073v4.169h-14.95v-4.169l0.935-0.071c0.622,0.048,1.341,0.025,2.156-0.071
			c0.814-0.096,1.557-0.167,2.229-0.216l15.955-38.596c0.814,0,1.593,0,2.336,0c0.743,0,1.545,0,2.407,0l14.663,38.452
			c0.67,0.097,1.413,0.18,2.229,0.251c0.814,0.073,1.556,0.109,2.227,0.109l0.935,0.071V352.138z M828.864,330.719h16.602
			l1.366,4.241H828.72L828.864,330.719z"/>
	</g>
	<g>
		<path fill="#E7AC35" d="M804.101,352.138h-15.166v-3.522l1.294-0.071c0.622-0.047,1.246-0.108,1.868-0.18
			c0.622-0.071,1.198-0.154,1.725-0.251l-6.181-16.316l-6.397-17.105l-13.154,33.493c0.478,0.048,0.946,0.12,1.401,0.215
			c0.455,0.097,0.994,0.144,1.618,0.144l1.868,0.071v3.522h-14.087v-3.522l0.935-0.143c0.622,0,1.304-0.036,2.048-0.109
			c0.742-0.071,1.425-0.154,2.048-0.251l16.387-39.387c0.622-0.095,1.198-0.144,1.726-0.144c0.526,0,1.101,0.049,1.724,0.144
			l15.31,39.316c0.67,0.192,1.377,0.299,2.12,0.323c0.743,0.026,1.449,0.061,2.121,0.109l0.791,0.071V352.138z M772.405,330.719
			h15.884l0.935,3.809h-17.035L772.405,330.719z"/>
	</g>
	<g>
		<path fill="#E7AC35" d="M747.212,352.138h-15.237v-2.803l1.726-0.144c0.574,0,1.137-0.036,1.689-0.108
			c0.55-0.073,1.089-0.132,1.617-0.18l-6.828-17.681l-5.965-15.74l-13.154,33.493c0.478,0.048,0.945,0.096,1.401,0.144
			c0.455,0.048,0.971,0.119,1.545,0.215h1.869v2.803h-13.225v-2.803l0.934-0.144c0.622,0,1.282-0.036,1.977-0.108
			c0.694-0.073,1.354-0.132,1.977-0.18l16.746-40.537c0.383-0.191,0.73-0.288,1.042-0.288c0.311,0,0.683,0.097,1.114,0.288
			l15.956,40.466c0.622,0.096,1.269,0.192,1.941,0.288c0.67,0.096,1.365,0.143,2.085,0.143l0.79,0.073V352.138z M716.019,330.719
			h15.166l0.432,3.162h-15.813L716.019,330.719z"/>
	</g>
	<g>
		<path fill="#E7AC35" d="M690.14,352.138h-15.238v-2.085l2.156-0.144c0.528,0,1.031-0.047,1.51-0.144
			c0.478-0.095,0.958-0.167,1.438-0.215l-7.404-18.903l-5.534-14.375l-13.152,33.278c0.478,0.097,0.945,0.18,1.401,0.252
			c0.455,0.073,0.97,0.132,1.545,0.18l1.868,0.071v2.085h-12.362v-2.085l0.862-0.144c0.622,0,1.258-0.047,1.904-0.144
			c0.647-0.095,1.281-0.191,1.904-0.287l17.178-41.472c0.096-0.288,0.216-0.419,0.36-0.395c0.143,0.025,0.262,0.156,0.359,0.395
			l16.675,41.472c0.622,0.144,1.245,0.252,1.868,0.323c0.622,0.073,1.269,0.132,1.941,0.18l0.719,0.071V352.138z M659.593,330.719
			h14.375v2.588h-14.663L659.593,330.719z"/>
	</g>
	<g>
		<path fill="#E7AC35" d="M633.644,352.138h-15.022v-1.582l1.724-0.071c0.528,0,1.067-0.047,1.618-0.144
			c0.55-0.096,1.042-0.191,1.473-0.288l-7.547-19.406l-5.821-15.165l-13.872,34.643c0.478,0.048,0.945,0.119,1.401,0.215
			c0.455,0.097,0.993,0.168,1.617,0.215h1.869v1.582H589.44v-1.582l0.863-0.071c0.621,0,1.245-0.06,1.868-0.18
			c0.622-0.118,1.269-0.179,1.941-0.179l17.393-42.119c0.096-0.288,0.216-0.419,0.36-0.395c0.143,0.025,0.262,0.156,0.359,0.395
			l16.89,42.046c0.622,0.144,1.246,0.252,1.869,0.324c0.621,0.071,1.268,0.132,1.94,0.179h0.719V352.138z M602.521,331.078h14.735
			v1.869h-14.95L602.521,331.078z"/>
	</g>
	<g>
		<path fill="#E7AC35" d="M577.436,352.138H562.63v-0.862l1.293-0.216c0.528,0.049,1.102,0.013,1.726-0.108
			c0.622-0.119,1.197-0.227,1.726-0.323l-7.907-19.982l-6.181-15.955l-14.59,35.937c0.478,0.096,0.958,0.204,1.438,0.323
			c0.478,0.121,1.006,0.18,1.582,0.18l1.868,0.071v0.935H532.73v-0.935l0.862-0.071c0.67,0,1.329-0.047,1.976-0.144
			c0.647-0.096,1.282-0.215,1.906-0.359l17.608-42.622c0.096-0.288,0.216-0.419,0.36-0.395c0.143,0.025,0.262,0.156,0.359,0.395
			l17.105,42.693c0.672,0.097,1.306,0.192,1.906,0.288c0.598,0.097,1.233,0.144,1.904,0.144l0.718,0.144V352.138z M545.739,331.438
			h15.094v1.079h-15.31L545.739,331.438z"/>
	</g>
	<g>
		<path fill="#E7AC35" d="M521.013,295.836h-14.735v-0.359l0.863-0.144c0.765-0.047,1.461-0.156,2.083-0.324
			c0.622-0.167,1.15-0.394,1.582-0.682l-7.978-19.982l-6.468-16.746l-15.31,36.728c0.432,0.384,0.922,0.635,1.473,0.755
			c0.551,0.12,1.162,0.228,1.833,0.323l1.582,0.073v0.359h-10.063v-0.359l0.862-0.144c0.719-0.047,1.413-0.144,2.085-0.288
			c0.67-0.144,1.269-0.335,1.797-0.574l17.825-42.766c0.096-0.288,0.216-0.419,0.36-0.395c0.143,0.025,0.262,0.156,0.359,0.395
			l17.322,42.766c0.574,0.24,1.16,0.431,1.761,0.574c0.599,0.144,1.306,0.264,2.121,0.359l0.647,0.073V295.836z M488.741,275.495
			h15.453v0.36h-15.597L488.741,275.495z"/>
	</g>
	<g>
		<path fill="#E7AC35" d="M861.243,295.836h-15.237v-3.953l1.006-0.144c0.622,0,1.269-0.06,1.941-0.18
			c0.67-0.118,1.269-0.298,1.797-0.538l-5.606-14.95l-6.828-18.472l-13.154,33.493c0.432,0.192,0.91,0.336,1.438,0.432
			c0.526,0.096,1.079,0.192,1.653,0.287h1.869v4.025h-14.951v-4.025l1.222-0.071c0.621,0,1.329-0.06,2.12-0.18
			c0.791-0.118,1.474-0.275,2.048-0.467l15.884-38.381c0.814,0,1.593,0,2.336,0c0.743,0,1.545,0,2.407,0l14.663,38.237
			c0.67,0.144,1.377,0.288,2.121,0.432c0.742,0.144,1.473,0.24,2.191,0.287l1.079,0.073V295.836z M828.828,274.418h16.602
			l1.366,4.168h-18.113L828.828,274.418z"/>
	</g>
	<g>
		<path fill="#E7AC35" d="M804.137,295.836H788.9v-3.306l1.365-0.144c0.67-0.096,1.306-0.215,1.904-0.359s1.115-0.288,1.545-0.432
			l-6.109-16.1l-6.397-17.105l-13.081,33.206c0.431,0.24,0.898,0.42,1.401,0.539c0.503,0.12,1.042,0.205,1.617,0.251l1.726,0.144
			v3.306h-14.016v-3.306l1.15-0.216c0.622-0.047,1.294-0.131,2.012-0.252c0.719-0.118,1.39-0.298,2.013-0.538l16.316-39.1
			c0.621-0.095,1.197-0.144,1.724-0.144c0.526,0,1.079,0.049,1.653,0.144l15.238,39.028c0.621,0.241,1.293,0.432,2.012,0.576
			c0.718,0.144,1.485,0.24,2.3,0.287l0.862,0.144V295.836z M772.369,274.418h15.884l0.935,3.665h-17.035L772.369,274.418z"/>
	</g>
	<g>
		<path fill="#E7AC35" d="M747.212,295.836h-15.237v-2.659l1.726-0.216c0.622-0.047,1.21-0.131,1.761-0.252
			c0.55-0.118,1.066-0.275,1.545-0.467l-6.828-17.322l-5.965-15.74l-13.154,33.133c0.478,0.193,0.958,0.336,1.438,0.432
			c0.478,0.097,1.006,0.215,1.582,0.359l1.797,0.073v2.659h-13.225v-2.659l1.006-0.144c0.718-0.096,1.438-0.204,2.156-0.324
			c0.718-0.118,1.341-0.298,1.868-0.538l16.675-40.107c0.336-0.191,0.659-0.288,0.971-0.288c0.311,0,0.683,0.097,1.114,0.288
			l15.884,40.034c0.671,0.192,1.33,0.395,1.977,0.611c0.647,0.216,1.354,0.349,2.121,0.395l0.79,0.073V295.836z M716.019,274.418
			h15.166l0.432,3.091h-15.813L716.019,274.418z"/>
	</g>
	<g>
		<path fill="#E7AC35" d="M690.211,295.836h-15.31v-2.012l2.085-0.216c0.576-0.047,1.102-0.144,1.582-0.287
			c0.478-0.144,0.934-0.311,1.365-0.503l-7.331-18.473l-5.534-14.375l-13.081,32.848c0.432,0.24,0.887,0.42,1.366,0.538
			c0.478,0.12,1.006,0.228,1.58,0.324l1.797,0.144v2.012h-12.434v-2.012l1.006-0.216c0.67-0.047,1.342-0.144,2.013-0.287
			c0.67-0.144,1.294-0.36,1.868-0.647l17.034-40.969c0.096-0.288,0.216-0.419,0.36-0.395c0.143,0.025,0.262,0.156,0.359,0.395
			l16.531,40.969c0.622,0.24,1.258,0.455,1.904,0.647c0.647,0.192,1.353,0.336,2.121,0.43l0.718,0.073V295.836z M659.593,274.418
			h14.375v2.588h-14.663L659.593,274.418z"/>
	</g>
	<g>
		<path fill="#E7AC35" d="M633.715,295.836h-15.166v-1.509l1.654-0.144c0.67-0.047,1.268-0.144,1.797-0.288
			c0.526-0.144,0.982-0.359,1.365-0.647l-7.475-18.903l-5.821-15.165l-13.728,34.14c0.383,0.287,0.826,0.48,1.329,0.574
			c0.503,0.097,1.089,0.215,1.761,0.359l1.654,0.073v1.509H589.44v-1.509l0.935-0.144c0.67-0.047,1.33-0.156,1.977-0.324
			c0.647-0.167,1.281-0.37,1.904-0.611l17.249-41.543c0.096-0.288,0.216-0.419,0.36-0.395c0.143,0.025,0.262,0.156,0.359,0.395
			l16.746,41.543c0.622,0.241,1.258,0.456,1.904,0.647c0.647,0.192,1.354,0.312,2.121,0.359l0.718,0.073V295.836z M602.521,274.777
			h14.735v1.869h-14.95L602.521,274.777z"/>
	</g>
	<g>
		<path fill="#E7AC35" d="M577.508,295.836h-14.95v-0.862l1.294-0.216c0.622,0,1.233-0.083,1.833-0.252
			c0.598-0.167,1.114-0.395,1.545-0.682l-7.763-19.479l-6.181-15.955l-14.446,35.434c0.432,0.287,0.91,0.515,1.438,0.682
			c0.526,0.168,1.077,0.277,1.653,0.324l1.724,0.071v0.935h-10.996v-0.935l1.006-0.144c0.719,0,1.413-0.083,2.085-0.252
			c0.67-0.167,1.294-0.395,1.868-0.682l17.466-42.119c0.096-0.288,0.216-0.419,0.36-0.395c0.143,0.025,0.262,0.156,0.359,0.395
			l16.963,42.19c0.621,0.241,1.258,0.456,1.904,0.647c0.647,0.192,1.354,0.312,2.12,0.359l0.719,0.073V295.836z M545.739,275.136
			h15.094v1.079h-15.31L545.739,275.136z"/>
	</g>
	<g>
		<path fill="#E7AC35" d="M520.941,239.535h-14.807v-0.359l0.935-0.216c0.814,0,1.521-0.143,2.121-0.43
			c0.598-0.288,1.066-0.647,1.401-1.079l-7.763-19.406l-6.468-16.746l-15.022,36.225c0.287,0.48,0.718,0.826,1.294,1.042
			c0.574,0.215,1.245,0.371,2.012,0.467l1.365,0.144v0.359h-10.134v-0.359l0.935-0.144c0.766-0.096,1.497-0.24,2.192-0.432
			c0.694-0.191,1.329-0.526,1.904-1.006l17.537-42.19c0.096-0.288,0.216-0.419,0.36-0.395c0.143,0.025,0.262,0.156,0.359,0.395
			l17.034,42.263c0.622,0.384,1.246,0.695,1.868,0.934c0.622,0.241,1.366,0.385,2.229,0.432l0.647,0.144V239.535z M488.741,219.194
			h15.453v0.36h-15.597L488.741,219.194z"/>
	</g>
	<g>
		<path fill="#E7AC35" d="M861.171,239.537h-15.166v-3.809l1.077-0.073c0.719-0.047,1.377-0.191,1.977-0.43
			c0.599-0.24,1.114-0.503,1.545-0.791l-5.462-14.663l-6.828-18.472l-13.01,33.134c0.335,0.384,0.755,0.659,1.258,0.826
			c0.503,0.168,1.089,0.301,1.762,0.395l1.797,0.073v3.809h-14.879v-3.809l1.438-0.144c0.622-0.048,1.317-0.167,2.085-0.359
			c0.766-0.192,1.413-0.432,1.941-0.719l15.884-38.093c0.766,0,1.509,0,2.229,0c0.718,0,1.509,0,2.371,0l14.519,38.022
			c0.622,0.288,1.306,0.528,2.048,0.718c0.743,0.192,1.474,0.312,2.192,0.359l1.222,0.073V239.537z M828.828,218.118h16.602
			l1.366,4.097h-18.113L828.828,218.118z"/>
	</g>
	<g>
		<path fill="#E7AC35" d="M804.137,239.537H788.9v-3.235l1.438-0.144c0.718-0.047,1.354-0.191,1.904-0.43
			c0.55-0.24,0.994-0.503,1.33-0.791l-5.966-15.741l-6.397-17.105l-12.937,32.847c0.335,0.336,0.742,0.599,1.221,0.791
			c0.478,0.192,1.054,0.336,1.725,0.43l1.724,0.216v3.162h-14.016v-3.162l1.294-0.288c0.719-0.047,1.413-0.167,2.085-0.359
			c0.67-0.192,1.294-0.478,1.869-0.863l16.243-38.74c0.576-0.095,1.125-0.144,1.653-0.144c0.526,0,1.079,0.049,1.653,0.144
			l15.094,38.669c0.574,0.432,1.233,0.743,1.976,0.935s1.521,0.312,2.336,0.359l1.006,0.144V239.537z M772.369,218.118h15.884
			l0.935,3.594h-17.035L772.369,218.118z"/>
	</g>
	<g>
		<path fill="#E7AC35" d="M747.212,239.537h-15.237v-2.659l1.726-0.144c0.67-0.096,1.258-0.252,1.761-0.468
			c0.503-0.215,0.945-0.467,1.33-0.755l-6.613-16.89l-5.965-15.74l-12.938,32.703c0.384,0.288,0.802,0.528,1.259,0.718
			c0.454,0.192,0.993,0.359,1.617,0.503l1.726,0.144v2.588h-13.225v-2.588l1.221-0.215c0.67-0.144,1.365-0.299,2.085-0.468
			c0.718-0.167,1.341-0.442,1.868-0.826l16.531-39.675c0.384-0.191,0.719-0.288,1.007-0.288c0.287,0,0.647,0.097,1.077,0.288
			l15.741,39.602c0.621,0.385,1.268,0.708,1.94,0.971c0.671,0.264,1.413,0.42,2.229,0.467l0.862,0.073V239.537z M716.019,218.118
			h15.166l0.432,3.162h-15.813L716.019,218.118z"/>
	</g>
	<g>
		<path fill="#E7AC35" d="M690.211,239.537h-15.31v-2.012l2.013-0.216c0.621-0.047,1.16-0.191,1.617-0.43
			c0.455-0.24,0.85-0.503,1.186-0.791l-7.116-18.041l-5.534-14.375l-12.865,32.416c0.335,0.336,0.73,0.6,1.185,0.791
			c0.455,0.192,0.994,0.359,1.618,0.503l1.724,0.215v1.941h-12.434v-1.941l1.079-0.288c0.718-0.095,1.425-0.252,2.12-0.467
			c0.695-0.215,1.33-0.539,1.904-0.97l16.819-40.466c0.096-0.288,0.216-0.419,0.36-0.395c0.143,0.025,0.262,0.156,0.359,0.395
			l16.316,40.466c0.621,0.43,1.281,0.779,1.976,1.041c0.695,0.264,1.449,0.445,2.265,0.539l0.718,0.073V239.537z M659.593,218.118
			h14.375v2.588h-14.663L659.593,218.118z"/>
	</g>
	<g>
		<path fill="#E7AC35" d="M633.715,239.537h-15.166v-1.509l1.582-0.216c0.719,0,1.341-0.131,1.869-0.394
			c0.526-0.263,0.886-0.563,1.077-0.898l-7.187-18.473l-5.821-15.165l-13.513,33.709c0.288,0.336,0.683,0.6,1.186,0.791
			c0.503,0.192,1.089,0.359,1.761,0.503l1.653,0.215v1.438H589.44v-1.438l0.935-0.288c0.814-0.047,1.545-0.191,2.192-0.43
			c0.647-0.24,1.281-0.526,1.904-0.862l17.034-41.113c0.096-0.288,0.216-0.419,0.36-0.395c0.143,0.025,0.262,0.156,0.359,0.395
			l16.531,41.04c0.574,0.48,1.221,0.839,1.941,1.079c0.718,0.24,1.485,0.384,2.3,0.43l0.718,0.073V239.537z M602.521,218.477h14.735
			v1.869h-14.95L602.521,218.477z"/>
	</g>
	<g>
		<path fill="#E7AC35" d="M577.436,239.537h-15.022v-0.862l1.366-0.216c0.67-0.047,1.281-0.215,1.832-0.503
			c0.551-0.287,1.018-0.598,1.401-0.934l-7.547-18.976l-6.181-15.955l-14.231,34.931c0.335,0.384,0.755,0.707,1.258,0.97
			c0.504,0.264,1.115,0.443,1.833,0.539l1.582,0.144v0.862h-11.069v-0.862l1.006-0.216c0.766-0.095,1.509-0.239,2.229-0.43
			c0.718-0.191,1.365-0.551,1.941-1.079l17.249-41.543c0.096-0.288,0.216-0.419,0.36-0.395c0.143,0.025,0.262,0.156,0.359,0.395
			l16.746,41.616c0.622,0.43,1.269,0.779,1.941,1.041c0.67,0.264,1.413,0.421,2.229,0.468l0.718,0.144V239.537z M545.739,218.836
			h15.094v1.079h-15.31L545.739,218.836z"/>
	</g>
	<g>
		<path fill="#E7AC35" d="M520.869,183.234h-14.878v-0.359l1.006-0.288c0.814-0.047,1.509-0.263,2.083-0.647
			c0.576-0.383,0.983-0.838,1.222-1.365l-7.475-18.832l-6.468-16.746l-14.735,35.649c0.192,0.528,0.563,0.971,1.115,1.33
			c0.55,0.359,1.281,0.587,2.192,0.682l1.294,0.216v0.359h-10.351v-0.359l0.935-0.288c0.814-0.096,1.592-0.275,2.336-0.539
			c0.742-0.262,1.425-0.707,2.048-1.329l17.249-41.616c0.096-0.288,0.216-0.419,0.36-0.395c0.143,0.025,0.262,0.156,0.359,0.395
			l16.746,41.687c0.622,0.576,1.269,1.006,1.941,1.294c0.67,0.288,1.461,0.48,2.372,0.574l0.647,0.216V183.234z M488.741,162.893
			h15.453v0.36h-15.597L488.741,162.893z"/>
	</g>
	<g>
		<path fill="#E7AC35" d="M861.135,183.235h-15.166v-3.594l1.221-0.215c0.719,0,1.366-0.156,1.941-0.468
			c0.576-0.311,1.006-0.657,1.294-1.042l-5.318-14.446l-6.828-18.472l-12.866,32.918c0.239,0.432,0.611,0.767,1.114,1.007
			s1.115,0.43,1.833,0.574l1.797,0.144v3.594H815.35v-3.594l1.582-0.288c0.622,0,1.294-0.131,2.012-0.395
			c0.719-0.262,1.366-0.586,1.941-0.97l15.741-37.878c0.765,0,1.496,0,2.192,0c0.694,0,1.473,0,2.335,0l14.375,37.805
			c0.576,0.385,1.233,0.708,1.977,0.971c0.742,0.263,1.497,0.395,2.264,0.395l1.366,0.215V183.235z M828.792,161.816h16.602
			l1.366,3.953h-18.112L828.792,161.816z"/>
	</g>
	<g>
		<path fill="#E7AC35" d="M804.03,183.235h-15.166v-3.091l1.509-0.288c0.67-0.047,1.282-0.215,1.833-0.503
			c0.55-0.288,0.945-0.622,1.186-1.006l-5.822-15.453l-6.397-17.105L768.38,178.42c0.287,0.336,0.657,0.635,1.114,0.898
			c0.455,0.263,1.018,0.467,1.689,0.611l1.724,0.288v3.018h-13.943v-3.018l1.365-0.36c0.766-0.095,1.497-0.275,2.192-0.538
			c0.694-0.263,1.33-0.612,1.904-1.042l15.957-38.454c0.576-0.095,1.114-0.144,1.617-0.144c0.504,0,1.066,0.049,1.689,0.144
			l14.878,38.381c0.67,0.528,1.366,0.923,2.085,1.186c0.719,0.264,1.485,0.42,2.3,0.467l1.079,0.216V183.235z M772.333,161.816
			h15.884l0.935,3.521h-17.035L772.333,161.816z"/>
	</g>
	<g>
		<path fill="#E7AC35" d="M747.285,183.235h-15.31v-2.515l1.726-0.288c0.67-0.047,1.245-0.215,1.724-0.503
			c0.478-0.288,0.887-0.647,1.222-1.079l-6.469-16.531l-5.965-15.74l-12.794,32.344c0.288,0.336,0.647,0.647,1.079,0.934
			c0.432,0.288,1.029,0.503,1.797,0.647l1.724,0.288v2.444h-13.368v-2.444l1.294-0.359c0.765-0.096,1.509-0.288,2.227-0.576
			c0.719-0.287,1.39-0.67,2.012-1.15l16.244-39.243c0.288-0.191,0.599-0.288,0.935-0.288c0.335,0,0.694,0.097,1.077,0.288
			l15.453,39.172c0.67,0.528,1.353,0.959,2.048,1.294c0.694,0.336,1.473,0.551,2.336,0.647l1.006,0.144V183.235z M716.019,161.816
			h15.166l0.432,3.091h-15.813L716.019,161.816z"/>
	</g>
	<g>
		<path fill="#E7AC35" d="M690.211,183.235h-15.31v-1.941l1.941-0.359c0.622-0.047,1.162-0.227,1.618-0.539
			c0.454-0.311,0.801-0.657,1.041-1.042l-6.9-17.609l-5.534-14.375l-12.649,31.984c0.239,0.385,0.574,0.719,1.006,1.006
			c0.432,0.288,0.981,0.503,1.653,0.647l1.726,0.36v1.868h-12.507v-1.868l1.15-0.432c0.766-0.096,1.509-0.298,2.229-0.611
			c0.718-0.311,1.389-0.73,2.012-1.259l16.531-39.961c0.096-0.288,0.216-0.419,0.36-0.395c0.143,0.025,0.262,0.156,0.359,0.395
			l16.028,39.961c0.67,0.576,1.377,1.032,2.12,1.366c0.743,0.336,1.545,0.574,2.409,0.718l0.718,0.144V183.235z M659.593,161.816
			h14.375v2.588h-14.663L659.593,161.816z"/>
	</g>
	<g>
		<path fill="#E7AC35" d="M633.644,183.235h-15.166v-1.438l1.653-0.359c0.622,0,1.198-0.18,1.726-0.539
			c0.526-0.359,0.886-0.73,1.077-1.114l-7.044-18.041l-5.821-15.165l-13.297,33.206c0.191,0.384,0.526,0.731,1.006,1.042
			c0.478,0.312,1.102,0.539,1.869,0.682l1.58,0.36v1.365H589.44v-1.365l1.006-0.432c0.814-0.047,1.57-0.227,2.265-0.539
			c0.694-0.311,1.377-0.73,2.048-1.258l16.746-40.537c0.096-0.288,0.216-0.419,0.36-0.395c0.143,0.025,0.262,0.156,0.359,0.395
			l16.243,40.537c0.622,0.576,1.317,1.019,2.085,1.33c0.766,0.312,1.557,0.538,2.371,0.682l0.719,0.144V183.235z M602.521,162.176
			h14.735v1.869h-14.95L602.521,162.176z"/>
	</g>
	<g>
		<path fill="#E7AC35" d="M577.436,183.235H562.27v-0.862l1.366-0.288c0.765-0.047,1.412-0.252,1.941-0.611
			c0.526-0.359,0.909-0.803,1.15-1.33l-7.26-18.4l-6.181-15.955l-13.943,34.356c0.239,0.528,0.611,0.959,1.114,1.294
			c0.503,0.336,1.162,0.576,1.977,0.718l1.438,0.216v0.862h-11.14v-0.862l1.006-0.288c0.814-0.096,1.592-0.298,2.335-0.611
			c0.743-0.311,1.426-0.755,2.05-1.33l16.961-41.04c0.096-0.288,0.216-0.419,0.36-0.395c0.143,0.025,0.262,0.156,0.359,0.395
			l16.46,41.113c0.67,0.574,1.365,1.031,2.083,1.365c0.719,0.336,1.51,0.528,2.372,0.574l0.718,0.216V183.235z M545.739,162.535
			h15.094v1.079h-15.31L545.739,162.535z"/>
	</g>
	<g>
		<path fill="#E7AC35" d="M520.941,126.932h-15.093v-0.359l1.006-0.359c1.006-0.048,1.784-0.299,2.336-0.756
			c0.55-0.454,0.849-1.041,0.898-1.761l-7.26-18.256l-6.468-16.746l-14.591,35.075c0.144,0.718,0.503,1.294,1.079,1.724
			c0.574,0.432,1.341,0.695,2.3,0.791l1.221,0.288v0.359h-10.493v-0.359l0.862-0.359c1.007-0.096,1.881-0.324,2.624-0.683
			c0.743-0.359,1.401-0.874,1.977-1.545l17.105-41.184c0.096-0.288,0.216-0.419,0.36-0.395c0.143,0.025,0.262,0.156,0.359,0.395
			l16.602,41.184c0.576,0.718,1.222,1.258,1.941,1.617c0.719,0.36,1.582,0.612,2.588,0.755l0.647,0.216V126.932z M488.741,106.591
			h15.453v0.36h-15.597L488.741,106.591z"/>
	</g>
	<g>
		<path fill="#E7AC35" d="M861.171,126.932h-15.237v-3.45l1.365-0.215c0.766-0.096,1.413-0.311,1.941-0.647
			c0.526-0.335,0.91-0.766,1.15-1.294l-5.318-14.16l-6.828-18.472l-12.866,32.703c0.239,0.48,0.599,0.888,1.079,1.222
			c0.478,0.336,1.101,0.551,1.868,0.647l1.726,0.215v3.45h-14.735v-3.45l1.725-0.288c0.718-0.095,1.425-0.288,2.12-0.574
			c0.695-0.288,1.306-0.695,1.833-1.222l15.597-37.59c0.814,0,1.569,0,2.264,0c0.694,0,1.448,0,2.264,0l14.375,37.519
			c0.576,0.48,1.198,0.875,1.869,1.185c0.67,0.312,1.412,0.516,2.227,0.612l1.582,0.215V126.932z M828.757,105.514h16.602
			l1.366,3.953h-18.112L828.757,105.514z"/>
	</g>
	<g>
		<path fill="#E7AC35" d="M804.174,126.932h-15.31v-2.947l1.582-0.288c0.765-0.095,1.389-0.311,1.868-0.647
			c0.478-0.335,0.838-0.791,1.079-1.365l-5.822-15.094l-6.397-17.105l-12.793,32.271c0.239,0.529,0.574,0.959,1.006,1.294
			c0.431,0.336,1.053,0.552,1.868,0.647l1.726,0.359v2.875h-14.088v-2.875l1.582-0.431c0.814-0.096,1.557-0.311,2.229-0.647
			c0.67-0.335,1.294-0.766,1.868-1.294l15.884-38.166c0.528-0.095,1.054-0.144,1.582-0.144c0.526,0,1.079,0.049,1.653,0.144
			l14.807,38.093c0.622,0.576,1.281,1.032,1.977,1.366c0.694,0.336,1.496,0.574,2.408,0.718l1.294,0.216V126.932z M772.333,105.514
			h15.884l0.935,3.521h-17.035L772.333,105.514z"/>
	</g>
	<g>
		<path fill="#E7AC35" d="M747.25,126.932h-15.31v-2.444l1.726-0.359c0.765-0.096,1.377-0.311,1.832-0.647
			c0.455-0.335,0.802-0.766,1.042-1.294l-6.397-16.172l-5.965-15.74l-12.722,31.983c0.239,0.48,0.563,0.888,0.97,1.222
			c0.407,0.336,0.994,0.574,1.761,0.718l1.726,0.359v2.372h-13.296v-2.372l1.365-0.43c0.814-0.144,1.592-0.384,2.336-0.719
			c0.742-0.335,1.377-0.79,1.904-1.365l16.099-38.884c0.384-0.191,0.73-0.288,1.042-0.288c0.311,0,0.659,0.097,1.042,0.288
			l15.381,38.813c0.622,0.574,1.294,1.067,2.013,1.473c0.718,0.408,1.532,0.708,2.444,0.898l1.006,0.144V126.932z M715.984,105.514
			h15.166l0.432,3.091h-15.813L715.984,105.514z"/>
	</g>
	<g>
		<path fill="#E7AC35" d="M690.282,126.932h-15.381v-1.868l1.869-0.432c0.718-0.096,1.294-0.324,1.724-0.683
			c0.432-0.359,0.743-0.801,0.935-1.329l-6.828-17.179l-5.534-14.375l-12.578,31.554c0.192,0.528,0.491,0.97,0.898,1.329
			s0.971,0.611,1.689,0.755l1.726,0.432v1.797h-12.578v-1.797l1.221-0.503c0.862-0.144,1.665-0.407,2.407-0.791
			c0.743-0.383,1.403-0.91,1.977-1.582l16.387-39.458c0.096-0.288,0.216-0.419,0.36-0.395c0.143,0.025,0.262,0.156,0.359,0.395
			l15.884,39.458c0.67,0.671,1.39,1.222,2.156,1.654c0.766,0.43,1.628,0.766,2.588,1.006l0.718,0.144V126.932z M659.593,105.514
			h14.375v2.588h-14.663L659.593,105.514z"/>
	</g>
	<g>
		<path fill="#E7AC35" d="M633.715,126.932h-15.237v-1.438l1.509-0.359c0.814-0.047,1.461-0.263,1.941-0.647
			c0.478-0.383,0.766-0.91,0.862-1.582l-6.9-17.466l-5.821-15.165l-13.225,32.703c0.191,0.624,0.503,1.114,0.934,1.473
			c0.432,0.36,1.079,0.612,1.941,0.755l1.582,0.36v1.365h-11.931v-1.365l1.077-0.432c0.91-0.096,1.726-0.347,2.444-0.755
			c0.719-0.407,1.39-0.898,2.013-1.474l16.602-40.105c0.096-0.288,0.216-0.419,0.36-0.395c0.143,0.025,0.262,0.156,0.359,0.395
			l16.099,40.034c0.622,0.671,1.317,1.211,2.085,1.617c0.766,0.408,1.653,0.708,2.659,0.898l0.647,0.144V126.932z M602.521,105.873
			h14.735v1.869h-14.95L602.521,105.873z"/>
	</g>
	<g>
		<path fill="#E7AC35" d="M577.436,126.932h-15.237v-0.791l1.438-0.431c0.765-0.048,1.412-0.299,1.941-0.756
			c0.526-0.454,0.886-0.97,1.077-1.545l-7.187-17.969l-6.181-15.955l-13.872,33.853c0.192,0.624,0.539,1.163,1.042,1.617
			c0.503,0.456,1.186,0.731,2.048,0.827l1.438,0.359v0.791h-11.284v-0.791l1.006-0.431c0.958-0.096,1.82-0.324,2.588-0.683
			c0.766-0.359,1.438-0.922,2.012-1.689l16.819-40.537c0.096-0.288,0.216-0.419,0.36-0.395c0.143,0.025,0.262,0.156,0.359,0.395
			l16.316,40.608c0.621,0.673,1.317,1.211,2.083,1.618c0.766,0.407,1.605,0.708,2.516,0.898l0.718,0.215V126.932z M545.739,106.232
			h15.094v1.079h-15.31L545.739,106.232z"/>
	</g>
	<g>
		<path fill="#E7AC35" d="M804.066,70.63h-15.237v-2.803l1.653-0.359c0.766-0.144,1.377-0.419,1.833-0.827
			c0.455-0.406,0.73-0.898,0.826-1.473l-5.606-14.879l-6.397-17.105L768.56,65.168c0.144,0.574,0.432,1.067,0.862,1.473
			c0.432,0.408,1.029,0.683,1.797,0.827l1.653,0.43v2.732h-13.943v-2.732l1.724-0.503c0.814-0.144,1.557-0.406,2.229-0.791
			c0.67-0.383,1.269-0.886,1.797-1.509l15.74-37.878c0.576-0.095,1.115-0.144,1.618-0.144c0.503,0,1.042,0.049,1.617,0.144
			l14.663,37.734c0.576,0.719,1.222,1.283,1.941,1.689c0.718,0.408,1.532,0.683,2.444,0.827l1.365,0.287V70.63z M772.298,49.212
			h15.884l0.935,3.45h-17.035L772.298,49.212z"/>
	</g>
	<g>
		<path fill="#E7AC35" d="M747.25,70.63h-15.31v-2.3l1.726-0.432c0.765-0.144,1.365-0.419,1.797-0.826
			c0.43-0.407,0.718-0.898,0.862-1.474l-6.181-15.884l-5.965-15.74l-12.507,31.624c0.144,0.576,0.419,1.067,0.827,1.474
			c0.406,0.407,0.993,0.708,1.761,0.898l1.653,0.43v2.229h-13.296v-2.229l1.509-0.503c0.862-0.191,1.665-0.49,2.407-0.898
			c0.743-0.406,1.377-0.945,1.905-1.617l15.956-38.525c0.335-0.191,0.657-0.288,0.97-0.288c0.311,0,0.659,0.097,1.042,0.288
			l15.166,38.381c0.622,0.718,1.305,1.33,2.048,1.833c0.743,0.503,1.592,0.85,2.551,1.042l1.079,0.215V70.63z M715.984,49.212
			h15.166l0.432,3.018h-15.813L715.984,49.212z"/>
	</g>
	<g>
		<path fill="#E7AC35" d="M690.282,70.63h-15.381v-1.797l1.797-0.503c0.719-0.144,1.294-0.432,1.726-0.862
			c0.43-0.432,0.694-0.935,0.791-1.51l-6.613-16.819l-5.534-14.375l-12.362,31.122c0.095,0.624,0.346,1.15,0.755,1.582
			c0.406,0.43,0.97,0.743,1.689,0.934l1.653,0.503v1.726h-12.578v-1.726l1.294-0.574c0.909-0.191,1.748-0.515,2.515-0.971
			c0.766-0.454,1.438-1.066,2.012-1.832L668.217,26.5c0.096-0.288,0.216-0.419,0.36-0.395c0.143,0.025,0.262,0.156,0.359,0.395
			l15.669,38.955c0.67,0.815,1.412,1.486,2.227,2.013c0.814,0.528,1.726,0.91,2.732,1.15l0.718,0.215V70.63z M659.593,49.212h14.375
			V51.8h-14.663L659.593,49.212z"/>
	</g>
	<g>
		<path fill="#E7AC35" d="M633.715,70.63h-15.308v-1.365l1.509-0.432c0.814-0.096,1.461-0.383,1.941-0.862
			c0.478-0.478,0.718-1.054,0.718-1.726l-6.684-17.106l-5.821-15.165l-12.938,32.271c0.048,0.671,0.299,1.234,0.755,1.689
			c0.455,0.456,1.115,0.779,1.977,0.97l1.438,0.432v1.294h-11.931v-1.294l1.15-0.503c0.958-0.144,1.807-0.455,2.551-0.935
			c0.743-0.478,1.425-1.077,2.048-1.797L611.506,26.5c0.096-0.288,0.216-0.419,0.36-0.395c0.143,0.025,0.262,0.156,0.359,0.395
			l15.884,39.531c0.622,0.815,1.341,1.473,2.156,1.976c0.814,0.504,1.726,0.852,2.732,1.042l0.718,0.216V70.63z M602.521,49.571
			h14.735v1.869h-14.95L602.521,49.571z"/>
	</g>
	<g>
		<path fill="#E7AC35" d="M577.436,70.63h-15.31V69.84l1.366-0.43c0.862-0.096,1.545-0.407,2.048-0.935
			c0.503-0.526,0.778-1.15,0.826-1.869l-6.9-17.466l-6.181-15.955l-13.584,33.35c0.096,0.767,0.395,1.414,0.898,1.941
			c0.503,0.528,1.21,0.862,2.121,1.006l1.294,0.359v0.791h-11.357V69.84l1.079-0.43c1.006-0.144,1.904-0.443,2.695-0.898
			c0.791-0.455,1.473-1.09,2.048-1.906L555.082,26.5c0.096-0.288,0.216-0.419,0.36-0.395c0.143,0.025,0.262,0.156,0.359,0.395
			l16.099,40.105c0.622,0.815,1.33,1.474,2.121,1.977c0.791,0.503,1.689,0.827,2.695,0.97l0.718,0.288V70.63z M545.739,49.93h15.094
			v1.079h-15.31L545.739,49.93z"/>
	</g>
	<g>
		<path fill="#231815" d="M404.713,431.058l-0.42,1.88l-3.188-0.05l-2.131,9.883h-2.45l2.164-9.883l-3.473,0.05l0.404-1.88H404.713z
			"/>
		<path fill="#231815" d="M407.878,433.106c-0.133,0.587-0.436,1.796-0.553,2.198h0.034c0.638-0.957,1.611-1.376,2.466-1.376
			c1.896,0,2.853,1.141,2.853,2.751c0,0.521-0.084,1.108-0.253,1.896l-0.905,4.195h-2.182l0.907-4.211
			c0.167-0.788,0.252-1.242,0.252-1.645c0-0.772-0.42-1.275-1.259-1.275c-0.905,0-1.51,0.537-1.947,1.342
			c-0.302,0.555-0.553,1.377-0.822,2.685l-0.654,3.105h-2.182l2.685-12.686h2.216L407.878,433.106z"/>
		<path fill="#231815" d="M417.959,434.129l-1.846,8.642h-2.216l1.83-8.642H417.959z M418.713,430.337l-0.47,2.131h-2.248
			l0.487-2.131H418.713z"/>
		<path fill="#231815" d="M425.49,436.142c-0.47-0.251-0.973-0.402-1.578-0.402c-1.728,0-2.785,1.494-2.785,3.356
			c0,1.175,0.655,2.064,2.131,2.064c0.553,0,1.141-0.117,1.577-0.336l-0.251,1.729c-0.587,0.218-1.191,0.302-1.896,0.302
			c-2.466,0-3.892-1.578-3.892-3.625c0-2.987,2.164-5.185,5.201-5.185c0.756,0,1.476,0.135,2.047,0.37L425.49,436.142z"/>
		<path fill="#231815" d="M428.086,442.771h-2.198l2.685-12.686h2.198l-1.611,7.366h0.034c0.151-0.185,0.772-0.839,3.272-3.322
			h2.904l-4.229,3.825l2.701,4.816h-2.567c-1.645-3.222-2.081-4.195-2.248-4.597h-0.034L428.086,442.771z"/>
		<path fill="#231815" d="M438.67,435.471c0.672-1.074,1.679-1.543,2.634-1.543c1.896,0,2.853,1.141,2.853,2.751
			c0,0.521-0.084,1.108-0.252,1.896l-0.907,4.195h-2.182l0.907-4.211c0.167-0.788,0.252-1.242,0.252-1.645
			c0-0.772-0.42-1.275-1.259-1.275c-0.905,0-1.51,0.537-1.947,1.342c-0.302,0.555-0.553,1.377-0.822,2.685l-0.654,3.105h-2.182
			l1.427-6.796c0.117-0.571,0.234-1.208,0.318-1.846h2.013c-0.033,0.386-0.151,0.939-0.234,1.342H438.67z"/>
		<path fill="#231815" d="M447.776,439.079c-0.016,0.135-0.016,0.219-0.016,0.269c0,1.241,0.805,1.947,2.282,1.947
			c0.905,0,1.795-0.168,2.718-0.655l-0.302,1.812c-0.805,0.37-1.862,0.521-2.751,0.521c-2.719,0-4.111-1.46-4.111-3.59
			c0-2.937,1.828-5.454,4.95-5.454c2.164,0,3.373,1.108,3.373,3.238c0,0.571-0.067,1.192-0.218,1.913H447.776z M451.904,437.569
			c0.016-0.117,0.034-0.284,0.034-0.453c0-1.09-0.555-1.627-1.561-1.627c-1.142,0-2.047,0.755-2.383,2.08H451.904z"/>
		<path fill="#231815" d="M461.177,436.092c-0.654-0.368-1.342-0.537-1.996-0.537c-0.89,0-1.377,0.302-1.377,0.856
			c0,0.469,0.235,0.704,1.225,1.325c1.007,0.638,1.695,1.259,1.695,2.416c0,1.914-1.493,2.819-3.59,2.819
			c-1.074,0-2.131-0.218-2.954-0.587l0.521-1.778c0.738,0.419,1.678,0.67,2.45,0.67c0.889,0,1.325-0.318,1.325-0.923
			c0-0.385-0.201-0.755-1.208-1.376c-1.376-0.855-1.762-1.476-1.762-2.416c0-1.661,1.476-2.634,3.642-2.634
			c0.839,0,1.745,0.167,2.5,0.487L461.177,436.092z"/>
		<path fill="#231815" d="M468.556,436.092c-0.654-0.368-1.342-0.537-1.996-0.537c-0.89,0-1.377,0.302-1.377,0.856
			c0,0.469,0.235,0.704,1.225,1.325c1.007,0.638,1.695,1.259,1.695,2.416c0,1.914-1.493,2.819-3.59,2.819
			c-1.074,0-2.131-0.218-2.954-0.587l0.521-1.778c0.738,0.419,1.678,0.67,2.45,0.67c0.889,0,1.325-0.318,1.325-0.923
			c0-0.385-0.201-0.755-1.208-1.376c-1.376-0.855-1.762-1.476-1.762-2.416c0-1.661,1.476-2.634,3.642-2.634
			c0.839,0,1.745,0.167,2.5,0.487L468.556,436.092z"/>
	</g>
	<g>
		<path fill="#231815" d="M423.579,403.371l4.648,0.99v-4.731l-4.648-1.007v-2.349l11.712,2.516v2.316l-5.134-1.074v4.732
			l5.134,1.09v2.333l-11.712-2.484V403.371z"/>
		<path fill="#231815" d="M431.599,393.712c0.135,0.016,0.219,0.016,0.269,0.016c1.241,0,1.947-0.805,1.947-2.282
			c0-0.905-0.168-1.795-0.655-2.718l1.812,0.302c0.37,0.805,0.521,1.862,0.521,2.751c0,2.719-1.46,4.111-3.59,4.111
			c-2.937,0-5.454-1.828-5.454-4.95c0-2.164,1.108-3.373,3.238-3.373c0.571,0,1.192,0.067,1.913,0.218V393.712z M430.089,389.584
			c-0.117-0.016-0.284-0.034-0.453-0.034c-1.09,0-1.627,0.555-1.627,1.561c0,1.142,0.755,2.047,2.08,2.383V389.584z"/>
		<path fill="#231815" d="M422.857,382.039l2.131,0.47v2.248l-2.131-0.487V382.039z M426.649,382.793l8.642,1.846v2.216l-8.642-1.83
			V382.793z"/>
		<path fill="#231815" d="M436.532,382.041c0.454-0.956,0.689-1.979,0.689-2.802c0-1.762-0.907-2.735-3.424-3.189v0.034
			c0.84,0.537,1.427,1.325,1.427,2.601c0,2.065-1.444,3.171-3.457,3.171c-3.071,0-5.319-1.929-5.319-4.447
			c0-1.208,0.469-2.013,1.476-2.484v-0.033l-1.275-0.252v-2.131l8.139,1.711c2.802,0.587,4.228,2.148,4.228,5.084
			c0,1.04-0.234,2.215-0.654,3.322L436.532,382.041z M431.532,379.608c1.208,0,2.031-0.503,2.031-1.627
			c0-1.527-1.729-2.55-3.424-2.55c-1.225,0-2.046,0.604-2.046,1.627C428.093,378.417,429.686,379.608,431.532,379.608z"/>
		<path fill="#231815" d="M425.626,367.7c0.587,0.133,1.796,0.436,2.198,0.553v-0.034c-0.957-0.638-1.376-1.611-1.376-2.466
			c0-1.896,1.141-2.853,2.751-2.853c0.521,0,1.108,0.084,1.896,0.253l4.195,0.905v2.182l-4.211-0.907
			c-0.788-0.167-1.242-0.252-1.645-0.252c-0.772,0-1.275,0.42-1.275,1.259c0,0.905,0.537,1.51,1.342,1.947
			c0.555,0.302,1.377,0.553,2.685,0.822l3.105,0.654v2.182l-12.686-2.685v-2.216L425.626,367.7z"/>
		<path fill="#231815" d="M424.821,358.962l-0.806-2.316l2.634,0.555v-2.064l1.611,0.335v2.065l3.793,0.788
			c0.336,0.067,0.587,0.101,0.738,0.101c0.519,0,0.839-0.269,0.839-0.99c0-0.285-0.05-0.605-0.151-0.923l1.762,0.352
			c0.135,0.47,0.167,0.907,0.167,1.259c0,1.627-0.839,2.5-2.281,2.5c-0.487,0-1.041-0.101-1.679-0.235l-3.188-0.704v1.627
			l-1.611-0.336v-1.627L424.821,358.962z"/>
	</g>
	<g>
		<path fill="#231815" d="M499.966,435.05c0,6.353-2.328,10.149-6.497,10.149c-4.199,0-6.526-3.824-6.526-10.323
			c0-6.67,2.271-10.321,6.728-10.321C497.753,424.555,499.966,428.407,499.966,435.05z M488.438,434.848
			c0,6.067,1.782,9.114,4.974,9.114c3.191,0,5.089-3.106,5.089-9.057c0-6.009-1.869-9.086-5.089-9.086
			C490.249,425.82,488.438,428.896,488.438,434.848z"/>
	</g>
	<g>
		<path fill="#231815" d="M465.174,398.578c0,6.353-2.328,10.149-6.497,10.149c-4.199,0-6.526-3.824-6.526-10.323
			c0-6.67,2.271-10.321,6.728-10.321C462.961,388.083,465.174,391.935,465.174,398.578z M453.646,398.376
			c0,6.067,1.782,9.114,4.974,9.114c3.191,0,5.089-3.106,5.089-9.057c0-6.009-1.869-9.086-5.089-9.086
			C455.457,389.348,453.646,392.424,453.646,398.376z"/>
	</g>
	<g>
		<path fill="#231815" d="M411.098,70.63h-1.38V57.404c0-1.667,0.057-4.399,0.115-5.406h-0.057c-0.69,0.662-1.84,1.639-2.53,2.185
			l-1.265,1.035l-0.748-0.919l4.629-3.739h1.237V70.63z"/>
		<path fill="#231815" d="M432.4,60.769c0,6.353-2.328,10.149-6.497,10.149c-4.199,0-6.527-3.824-6.527-10.323
			c0-6.67,2.271-10.321,6.728-10.321C430.187,50.274,432.4,54.126,432.4,60.769z M420.872,60.567c0,6.067,1.782,9.114,4.974,9.114
			c3.191,0,5.089-3.106,5.089-9.057c0-6.009-1.869-9.086-5.089-9.086C422.682,51.539,420.872,54.615,420.872,60.567z"/>
		<path fill="#231815" d="M448.787,60.769c0,6.353-2.328,10.149-6.497,10.149c-4.199,0-6.526-3.824-6.526-10.323
			c0-6.67,2.271-10.321,6.728-10.321C446.574,50.274,448.787,54.126,448.787,60.769z M437.259,60.567
			c0,6.067,1.782,9.114,4.974,9.114c3.191,0,5.089-3.106,5.089-9.057c0-6.009-1.869-9.086-5.089-9.086
			C439.069,51.539,437.259,54.615,437.259,60.567z"/>
		<path fill="#231815" d="M465.174,60.769c0,6.353-2.328,10.149-6.497,10.149c-4.199,0-6.526-3.824-6.526-10.323
			c0-6.67,2.271-10.321,6.728-10.321C462.961,50.274,465.174,54.126,465.174,60.769z M453.646,60.567
			c0,6.067,1.782,9.114,4.974,9.114c3.191,0,5.089-3.106,5.089-9.057c0-6.009-1.869-9.086-5.089-9.086
			C455.457,51.539,453.646,54.615,453.646,60.567z"/>
	</g>
	<g>
		<path fill="#231815" d="M806.258,444.912h-1.38v-13.226c0-1.667,0.057-4.399,0.115-5.406h-0.057
			c-0.69,0.662-1.84,1.639-2.53,2.185l-1.265,1.035l-0.748-0.919l4.629-3.739h1.237V444.912z"/>
		<path fill="#231815" d="M827.561,435.051c0,6.353-2.328,10.149-6.497,10.149c-4.199,0-6.526-3.824-6.526-10.323
			c0-6.67,2.271-10.321,6.728-10.321C825.348,424.556,827.561,428.408,827.561,435.051z M816.032,434.85
			c0,6.067,1.782,9.114,4.974,9.114c3.191,0,5.089-3.106,5.089-9.057c0-6.009-1.869-9.086-5.089-9.086
			C817.843,425.821,816.032,428.897,816.032,434.85z"/>
		<path fill="#231815" d="M843.948,435.051c0,6.353-2.328,10.149-6.497,10.149c-4.199,0-6.526-3.824-6.526-10.323
			c0-6.67,2.271-10.321,6.728-10.321C841.735,424.556,843.948,428.408,843.948,435.051z M832.419,434.85
			c0,6.067,1.782,9.114,4.974,9.114c3.191,0,5.089-3.106,5.089-9.057c0-6.009-1.869-9.086-5.089-9.086
			C834.23,425.821,832.419,428.897,832.419,434.85z"/>
		<path fill="#231815" d="M860.335,435.051c0,6.353-2.328,10.149-6.497,10.149c-4.199,0-6.526-3.824-6.526-10.323
			c0-6.67,2.271-10.321,6.728-10.321C858.122,424.556,860.335,428.408,860.335,435.051z M848.806,434.85
			c0,6.067,1.782,9.114,4.974,9.114c3.191,0,5.089-3.106,5.089-9.057c0-6.009-1.869-9.086-5.089-9.086
			C850.617,425.821,848.806,428.897,848.806,434.85z"/>
	</g>
</g>
<g>
	
		<line fill="none" stroke="#888888" stroke-width="0.78" stroke-miterlimit="10" x1="272.015" y1="327.24" x2="132.359" y2="246.61"/>
	<polygon fill="none" stroke="#C8C9CA" stroke-width="0.78" stroke-miterlimit="10" points="222.311,241.151 82.655,160.521 
		182.062,103.128 321.718,183.758 	"/>
	<polygon fill="none" stroke="#C8C9CA" stroke-width="0.78" stroke-miterlimit="10" points="321.719,298.543 222.311,355.937 
		222.311,241.151 321.719,183.757 	"/>
	
		<line fill="none" stroke="#888888" stroke-width="0.78" stroke-miterlimit="10" x1="272.015" y1="212.454" x2="272.015" y2="327.24"/>
	<polygon fill="none" stroke="#C8C9CA" stroke-width="0.78" stroke-miterlimit="10" points="182.064,217.913 82.655,275.307 
		82.655,160.521 182.064,103.127 	"/>
	
		<line fill="none" stroke="#888888" stroke-width="0.78" stroke-miterlimit="10" x1="132.359" y1="131.824" x2="132.359" y2="246.61"/>
	
		<line fill="none" stroke="#888888" stroke-width="0.78" stroke-miterlimit="10" x1="202.187" y1="172.139" x2="202.187" y2="286.925"/>
	<g>
		<g>
			<rect x="172.035" y="205.541" fill="#FAFAFA" width="20.236" height="19.057"/>
		</g>
		<g opacity="0.5">
			<path fill="#DFA839" d="M191.165,223.493h-5.924v-1.685h0.28c0.393,0,1.207,0,1.6,0l-2.246-6.036l-2.668-7.216l-5.194,13.252
				c0.393,0,0.842,0,1.236,0h0.73v1.685h-5.84v-1.685h0.309c0.477,0,1.236,0,1.712,0l6.29-15.161c0.73,0,1.151,0,1.881,0
				l5.784,15.106c0.478,0,1.292,0,1.769,0h0.28V223.493z M178.503,215.126h6.485l0.533,1.684h-7.075L178.503,215.126z"/>
		</g>
	</g>
	<g>
		<g>
			<rect x="242.938" y="244.629" fill="#FAFAFA" width="19.31" height="19.608"/>
		</g>
		<g opacity="0.5">
			<path fill="#DFA839" d="M261.143,263.132h-5.925v-0.842h0.842c0.393,0,0.814,0,1.207,0l-2.976-7.552l-2.162-5.615l-5.222,13.168
				c0.393,0,0.814,0,1.207,0h0.73v0.842h-4.801v-0.842h0.309c0.477,0,0.954,0,1.432,0l6.795-16.397c0.084-0.225,0.197-0.197,0.28,0
				l6.598,16.397c0.478,0,0.927,0,1.404,0h0.281V263.132z M249.211,254.766h5.615v1.011h-5.727L249.211,254.766z"/>
		</g>
	</g>
	<polyline fill="none" stroke="#C8C9CA" stroke-width="0.78" stroke-miterlimit="10" points="321.719,298.543 272.014,269.847 
		222.311,241.151 	"/>
	<g>
		<g>
			<rect x="193.235" y="273.105" fill="#FAFAFA" width="19.31" height="19.608"/>
		</g>
		<g>
			<path fill="#231815" d="M211.439,291.608h-5.925v-0.842h0.842c0.393,0,0.814,0,1.207,0l-2.976-7.552l-2.162-5.615l-5.222,13.168
				c0.393,0,0.814,0,1.207,0h0.73v0.842h-4.801v-0.842h0.309c0.477,0,0.954,0,1.432,0l6.795-16.397c0.084-0.225,0.197-0.197,0.28,0
				l6.598,16.397c0.478,0,0.927,0,1.404,0h0.281V291.608z M199.507,283.241h5.615v1.011h-5.727L199.507,283.241z"/>
		</g>
		<g>
			<path fill="#231815" d="M211.439,291.608h-5.925v-0.842h0.842c0.393,0,0.814,0,1.207,0l-2.976-7.552l-2.162-5.615l-5.222,13.168
				c0.393,0,0.814,0,1.207,0h0.73v0.842h-4.801v-0.842h0.309c0.477,0,0.954,0,1.432,0l6.795-16.397c0.084-0.225,0.197-0.197,0.28,0
				l6.598,16.397c0.478,0,0.927,0,1.404,0h0.281V291.608z M199.507,283.241h5.615v1.011h-5.727L199.507,283.241z"/>
		</g>
	</g>
	
		<line fill="none" stroke="#888888" stroke-width="0.78" stroke-miterlimit="10" x1="132.359" y1="131.824" x2="272.014" y2="212.454"/>
	<g>
		<g>
			<rect x="193.207" y="218.638" fill="#FAFAFA" width="19.366" height="19.608"/>
		</g>
		<g>
			<path fill="#231815" d="M211.467,237.141h-5.953v-0.786l0.759-0.085c0.477-0.056,0.87-0.225,1.095-0.477l-2.78-7.047
				l-2.162-5.615l-5.026,12.663c0.225,0.252,0.618,0.421,1.067,0.477l0.702,0.113v0.758h-4.857v-0.758l0.393-0.113
				c0.617-0.084,1.151-0.252,1.628-0.561l6.542-15.807c0.084-0.225,0.197-0.197,0.28,0l6.373,15.807
				c0.478,0.309,1.011,0.506,1.657,0.618l0.281,0.028V237.141z M199.507,228.774h5.615v1.011h-5.727L199.507,228.774z"/>
		</g>
		<g>
			<path fill="#E51373" d="M211.467,237.141h-5.953v-0.786l0.759-0.085c0.477-0.056,0.87-0.225,1.095-0.477l-2.78-7.047
				l-2.162-5.615l-5.026,12.663c0.225,0.252,0.618,0.421,1.067,0.477l0.702,0.113v0.758h-4.857v-0.758l0.393-0.113
				c0.617-0.084,1.151-0.252,1.628-0.561l6.542-15.807c0.084-0.225,0.197-0.197,0.28,0l6.373,15.807
				c0.478,0.309,1.011,0.506,1.657,0.618l0.281,0.028V237.141z M199.507,228.774h5.615v1.011h-5.727L199.507,228.774z"/>
		</g>
	</g>
	<g>
		<g>
			<rect x="122.479" y="177.447" fill="#FAFAFA" width="20.18" height="19.057"/>
		</g>
		<g>
			<path fill="#231815" d="M141.554,195.399h-5.924v-1.488l0.449-0.056c0.477-0.028,1.066-0.197,1.319-0.421l-2.134-5.756
				l-2.668-7.216l-5.082,12.971c0.253,0.225,0.674,0.365,1.152,0.421l0.702,0.056v1.488h-5.784v-1.488l0.533-0.056
				c0.562-0.056,1.18-0.168,1.629-0.421l6.177-14.881c0.702,0,1.095,0,1.797,0l5.672,14.825c0.449,0.253,1.123,0.393,1.685,0.421
				l0.477,0.056V195.399z M128.892,187.032h6.485l0.533,1.572h-7.075L128.892,187.032z"/>
		</g>
		<g>
			<path fill="#231815" d="M141.554,195.399h-5.924v-1.488l0.449-0.056c0.477-0.028,1.066-0.197,1.319-0.421l-2.134-5.756
				l-2.668-7.216l-5.082,12.971c0.253,0.225,0.674,0.365,1.152,0.421l0.702,0.056v1.488h-5.784v-1.488l0.533-0.056
				c0.562-0.056,1.18-0.168,1.629-0.421l6.177-14.881c0.702,0,1.095,0,1.797,0l5.672,14.825c0.449,0.253,1.123,0.393,1.685,0.421
				l0.477,0.056V195.399z M128.892,187.032h6.485l0.533,1.572h-7.075L128.892,187.032z"/>
		</g>
	</g>
	<g>
		<g>
			<rect x="122.564" y="120.206" fill="#FAFAFA" width="20.095" height="19.057"/>
		</g>
		<g>
			<path fill="#231815" d="M141.554,138.157h-5.924v-1.264l0.59-0.112c0.59-0.113,0.983-0.421,1.066-0.871l-2.021-5.474
				l-2.668-7.216l-4.969,12.69c0.112,0.421,0.477,0.758,1.095,0.842l0.646,0.14v1.264h-5.699v-1.264l0.758-0.14
				c0.618-0.085,1.123-0.365,1.488-0.842l6.065-14.6c0.674,0,1.067,0,1.741,0l5.56,14.544c0.393,0.477,0.926,0.758,1.572,0.87
				l0.702,0.113V138.157z M128.892,129.791h6.485l0.533,1.46h-7.075L128.892,129.791z"/>
		</g>
		<g>
			<path fill="#231815" d="M141.554,138.157h-5.924v-1.264l0.59-0.112c0.59-0.113,0.983-0.421,1.066-0.871l-2.021-5.474
				l-2.668-7.216l-4.969,12.69c0.112,0.421,0.477,0.758,1.095,0.842l0.646,0.14v1.264h-5.699v-1.264l0.758-0.14
				c0.618-0.085,1.123-0.365,1.488-0.842l6.065-14.6c0.674,0,1.067,0,1.741,0l5.56,14.544c0.393,0.477,0.926,0.758,1.572,0.87
				l0.702,0.113V138.157z M128.892,129.791h6.485l0.533,1.46h-7.075L128.892,129.791z"/>
		</g>
	</g>
	<g>
		<g>
			<rect x="122.865" y="234.3" fill="#FAFAFA" width="20.236" height="19.057"/>
		</g>
		<g>
			<path fill="#231815" d="M141.996,252.252h-5.924v-1.685h0.28c0.393,0,1.207,0,1.6,0l-2.246-6.036l-2.668-7.216l-5.194,13.252
				c0.393,0,0.842,0,1.236,0h0.73v1.685h-5.84v-1.685h0.309c0.477,0,1.236,0,1.712,0l6.29-15.161c0.73,0,1.151,0,1.881,0
				l5.784,15.106c0.478,0,1.292,0,1.769,0h0.28V252.252z M129.334,243.885h6.485l0.533,1.684h-7.075L129.334,243.885z"/>
		</g>
		<g>
			<path fill="#231815" d="M141.996,252.252h-5.924v-1.685h0.28c0.393,0,1.207,0,1.6,0l-2.246-6.036l-2.668-7.216l-5.194,13.252
				c0.393,0,0.842,0,1.236,0h0.73v1.685h-5.84v-1.685h0.309c0.477,0,1.236,0,1.712,0l6.29-15.161c0.73,0,1.151,0,1.881,0
				l5.784,15.106c0.478,0,1.292,0,1.769,0h0.28V252.252z M129.334,243.885h6.485l0.533,1.684h-7.075L129.334,243.885z"/>
		</g>
	</g>
	<polygon fill="none" stroke="#C8C9CA" stroke-width="0.78" stroke-miterlimit="10" points="222.311,355.937 82.655,275.307 
		82.655,160.521 222.311,241.151 	"/>
	<g>
		<g>
			<rect x="242.385" y="132.272" fill="#FAFAFA" width="19.534" height="19.608"/>
		</g>
		<g opacity="0.5">
			<path fill="#DFA839" d="M260.813,150.775h-6.064v-0.561l0.561-0.365c0.393-0.253,0.786-0.506,1.179-0.759l-2.639-6.71
				l-2.162-5.615l-4.886,12.298c0.366,0.28,0.759,0.533,1.124,0.814l0.533,0.365v0.533h-4.969v-0.533l0.674-0.393
				c0.533-0.309,1.066-0.618,1.6-0.927l6.373-15.386c0.084-0.225,0.197-0.197,0.28,0l6.177,15.358
				c0.646,0.393,1.292,0.759,1.938,1.152l0.28,0.168V150.775z M248.769,142.409h5.615v1.011h-5.727L248.769,142.409z"/>
		</g>
	</g>
	<g>
		<g>
			<rect x="312.044" y="172.588" fill="#FAFAFA" width="19.731" height="19.608"/>
		</g>
		<g opacity="0.5">
			<path fill="#DFA839" d="M330.669,191.09h-5.644v-0.14l0.421-0.225c0.393-0.197,0.758-0.421,1.151-0.618l-2.92-7.412l-2.527-6.542
				l-5.756,13.954c0.477,0.225,0.926,0.421,1.404,0.646l0.477,0.197v0.14h-4.127v-0.14l0.618-0.253
				c0.477-0.197,0.983-0.393,1.459-0.59l6.739-16.257c0.084-0.225,0.197-0.197,0.28,0l6.542,16.257
				c0.449,0.197,0.927,0.421,1.376,0.618l0.505,0.225V191.09z M318.175,183.145h6.036v0.14h-6.092L318.175,183.145z"/>
		</g>
	</g>
	<g>
		<g>
			<rect x="193.178" y="160.772" fill="#FAFAFA" width="19.421" height="19.608"/>
		</g>
		<g>
			<path fill="#231815" d="M211.494,179.275h-5.98v-0.702l0.702-0.197c0.561-0.112,0.898-0.477,0.954-0.926l-2.583-6.57
				l-2.162-5.615l-4.829,12.157c0.056,0.478,0.393,0.842,0.954,0.983l0.646,0.169v0.702h-4.913v-0.702l0.505-0.197
				c0.73-0.14,1.32-0.505,1.769-1.095l6.318-15.246c0.084-0.225,0.197-0.197,0.28,0l6.121,15.218
				c0.505,0.646,1.151,1.039,1.937,1.236l0.28,0.085V179.275z M199.506,170.908h5.615v1.011h-5.727L199.506,170.908z"/>
		</g>
		<g>
			<path fill="#231815" d="M211.494,179.275h-5.98v-0.702l0.702-0.197c0.561-0.112,0.898-0.477,0.954-0.926l-2.583-6.57
				l-2.162-5.615l-4.829,12.157c0.056,0.478,0.393,0.842,0.954,0.983l0.646,0.169v0.702h-4.913v-0.702l0.505-0.197
				c0.73-0.14,1.32-0.505,1.769-1.095l6.318-15.246c0.084-0.225,0.197-0.197,0.28,0l6.121,15.218
				c0.505,0.646,1.151,1.039,1.937,1.236l0.28,0.085V179.275z M199.506,170.908h5.615v1.011h-5.727L199.506,170.908z"/>
		</g>
	</g>
	<g>
		<g>
			<rect x="142.868" y="189.698" fill="#FAFAFA" width="19.31" height="19.608"/>
		</g>
		<g opacity="0.5">
			<path fill="#DFA839" d="M161.072,208.201h-5.925v-0.842h0.842c0.73,0,1.011-0.449,0.758-1.123l-2.527-6.43l-2.162-5.615
				l-4.773,12.017c-0.281,0.702,0.028,1.151,0.758,1.151h0.758v0.842h-4.829v-0.842h0.309c0.954,0,1.6-0.393,1.965-1.291
				l6.261-15.106c0.084-0.225,0.197-0.197,0.28,0l6.065,15.077c0.365,0.898,0.983,1.319,1.937,1.319h0.281V208.201z M149.14,199.834
				h5.615v1.011h-5.727L149.14,199.834z"/>
		</g>
	</g>
	<g>
		<g>
			<rect x="213.017" y="228.107" fill="#FAFAFA" width="19.871" height="19.608"/>
		</g>
		<g opacity="0.5">
			<path fill="#DFA839" d="M231.782,246.61h-6.205v-0.14h0.421c1.152,0,1.629-0.702,1.207-1.797l-2.555-6.458l-2.527-6.542
				l-5.391,12.999c-0.449,1.095,0.056,1.797,1.207,1.797h0.308v0.14h-4.127v-0.14h0.056c1.151,0,1.881-0.506,2.33-1.572l6.43-15.527
				c0.084-0.225,0.197-0.197,0.28,0l6.233,15.527c0.421,1.066,1.151,1.572,2.302,1.572h0.028V246.61z M219.148,238.664h6.036v0.14
				h-6.092L219.148,238.664z"/>
		</g>
	</g>
	<g>
		<g>
			<rect x="262.72" y="256.804" fill="#FAFAFA" width="19.843" height="19.608"/>
		</g>
		<g>
			<path fill="#231815" d="M281.458,275.306h-5.784v-0.14l0.338-0.056c0.59-0.056,1.15-0.281,1.347-0.618l-3.004-7.581l-2.526-6.542
				l-5.841,14.122c0.197,0.337,0.675,0.561,1.264,0.618l0.561,0.056v0.14h-3.987v-0.14l0.309-0.056
				c0.673-0.056,1.207-0.225,1.685-0.561l6.822-16.481c0.084-0.225,0.197-0.197,0.28,0l6.627,16.481
				c0.477,0.337,0.983,0.505,1.629,0.561l0.28,0.056V275.306z M268.852,267.361h6.036v0.14h-6.092L268.852,267.361z"/>
		</g>
		<g>
			<path fill="#231815" d="M281.458,275.306h-5.784v-0.14l0.338-0.056c0.59-0.056,1.15-0.281,1.347-0.618l-3.004-7.581l-2.526-6.542
				l-5.841,14.122c0.197,0.337,0.675,0.561,1.264,0.618l0.561,0.056v0.14h-3.987v-0.14l0.309-0.056
				c0.673-0.056,1.207-0.225,1.685-0.561l6.822-16.481c0.084-0.225,0.197-0.197,0.28,0l6.627,16.481
				c0.477,0.337,0.983,0.505,1.629,0.561l0.28,0.056V275.306z M268.852,267.361h6.036v0.14h-6.092L268.852,267.361z"/>
		</g>
	</g>
	<g>
		<g>
			<rect x="262.72" y="201.688" fill="#FAFAFA" width="19.816" height="19.608"/>
		</g>
		<g>
			<path fill="#231815" d="M281.431,220.191h-5.925v-0.14l0.42-0.113c0.759-0.112,1.179-0.561,1.179-1.207l-2.751-6.935
				l-2.526-6.542l-5.559,13.476c0,0.646,0.477,1.095,1.29,1.207l0.393,0.113v0.14h-4.127v-0.14l0.337-0.141
				c0.815-0.084,1.432-0.449,1.91-1.066l6.569-15.892c0.084-0.225,0.197-0.197,0.28,0l6.401,15.892
				c0.422,0.618,1.039,0.983,1.825,1.095l0.282,0.113V220.191z M268.852,212.246h6.036v0.14h-6.092L268.852,212.246z"/>
		</g>
		<g>
			<path fill="#231815" d="M281.431,220.191h-5.925v-0.14l0.42-0.113c0.759-0.112,1.179-0.561,1.179-1.207l-2.751-6.935
				l-2.526-6.542l-5.559,13.476c0,0.646,0.477,1.095,1.29,1.207l0.393,0.113v0.14h-4.127v-0.14l0.337-0.141
				c0.815-0.084,1.432-0.449,1.91-1.066l6.569-15.892c0.084-0.225,0.197-0.197,0.28,0l6.401,15.892
				c0.422,0.618,1.039,0.983,1.825,1.095l0.282,0.113V220.191z M268.852,212.246h6.036v0.14h-6.092L268.852,212.246z"/>
		</g>
	</g>
	<g>
		<g>
			<rect x="142.868" y="301.138" fill="#FAFAFA" width="19.31" height="19.608"/>
		</g>
		<g opacity="0.5">
			<path fill="#DFA839" d="M161.072,319.641h-5.925v-0.842h0.842c0.393,0,0.814,0,1.207,0l-2.976-7.552l-2.162-5.615l-5.222,13.168
				c0.393,0,0.814,0,1.207,0h0.73v0.842h-4.801v-0.842h0.309c0.477,0,0.954,0,1.432,0l6.795-16.397c0.084-0.225,0.197-0.197,0.28,0
				l6.598,16.397c0.478,0,0.927,0,1.404,0h0.281V319.641z M149.14,311.274h5.615v1.011h-5.727L149.14,311.274z"/>
		</g>
	</g>
	<g>
		<g>
			<rect x="262.78" y="311.836" fill="#FAFAFA" width="19.871" height="19.608"/>
		</g>
		<g>
			<path fill="#231815" d="M281.545,330.339h-5.643v-0.14h0.28c0.393,0,1.095,0,1.488,0l-3.257-8.255l-2.526-6.542l-6.121,14.796
				c0.393,0,0.842,0,1.236,0h0.73v0.14h-3.847v-0.14h0.309c0.477,0,0.954,0,1.432,0l7.075-17.099c0.084-0.225,0.197-0.197,0.28,0
				l6.88,17.099c0.477,0,0.926,0,1.403,0h0.28V330.339z M268.911,322.393h6.036v0.14h-6.092L268.911,322.393z"/>
		</g>
		<g>
			<path fill="#231815" d="M281.545,330.339h-5.643v-0.14h0.28c0.393,0,1.095,0,1.488,0l-3.257-8.255l-2.526-6.542l-6.121,14.796
				c0.393,0,0.842,0,1.236,0h0.73v0.14h-3.847v-0.14h0.309c0.477,0,0.954,0,1.432,0l7.075-17.099c0.084-0.225,0.197-0.197,0.28,0
				l6.88,17.099c0.477,0,0.926,0,1.403,0h0.28V330.339z M268.911,322.393h6.036v0.14h-6.092L268.911,322.393z"/>
		</g>
	</g>
	<g>
		<g>
			<rect x="312.485" y="283.581" fill="#FAFAFA" width="19.871" height="19.608"/>
		</g>
		<g opacity="0.5">
			<path fill="#DFA839" d="M331.25,302.084h-5.643v-0.14h0.28c0.393,0,1.095,0,1.488,0l-3.257-8.255l-2.527-6.542l-6.121,14.796
				c0.393,0,0.842,0,1.236,0h0.731v0.14h-3.847v-0.14h0.308c0.478,0,0.955,0,1.432,0l7.076-17.099c0.084-0.225,0.197-0.197,0.28,0
				l6.878,17.099c0.477,0,0.926,0,1.405,0h0.28V302.084z M318.616,294.139h6.036v0.14h-6.092L318.616,294.139z"/>
		</g>
	</g>
	<g>
		<g>
			<rect x="213.017" y="341.771" fill="#FAFAFA" width="19.871" height="19.608"/>
		</g>
		<g opacity="0.5">
			<path fill="#DFA839" d="M231.782,360.273h-5.643v-0.14h0.28c0.393,0,1.095,0,1.488,0l-3.257-8.255l-2.527-6.542l-6.121,14.796
				c0.393,0,0.842,0,1.236,0h0.73v0.14h-3.847v-0.14h0.308c0.478,0,0.954,0,1.432,0l7.076-17.099c0.084-0.225,0.197-0.197,0.28,0
				l6.879,17.099c0.477,0,0.926,0,1.404,0h0.28V360.273z M219.148,352.328h6.036v0.14h-6.092L219.148,352.328z"/>
		</g>
	</g>
	<g>
		<g>
			<rect x="72.772" y="262.738" fill="#FAFAFA" width="20.236" height="19.057"/>
		</g>
		<g opacity="0.5">
			<path fill="#DFA839" d="M91.903,280.69h-5.924v-1.685h0.28c0.393,0,1.207,0,1.6,0l-2.246-6.036l-2.668-7.216l-5.194,13.252
				c0.393,0,0.842,0,1.236,0h0.73v1.685h-5.84v-1.685h0.309c0.477,0,1.236,0,1.712,0l6.29-15.161c0.73,0,1.151,0,1.881,0
				l5.784,15.106c0.478,0,1.292,0,1.769,0h0.28V280.69z M79.241,272.323h6.485l0.533,1.684h-7.075L79.241,272.323z"/>
		</g>
	</g>
	<g>
		<g>
			<rect x="72.941" y="148.812" fill="#FAFAFA" width="20.152" height="19.057"/>
		</g>
		<g opacity="0.5">
			<path fill="#DFA839" d="M91.987,166.764h-5.925v-1.404h0.674c0.73,0,1.039-0.421,0.786-1.123l-1.909-5.194l-2.668-7.216
				l-4.857,12.41c-0.252,0.673,0.028,1.123,0.759,1.123h0.758v1.404h-5.559v-1.404h0.842c0.786,0,1.32-0.337,1.629-1.095
				l5.952-14.348c0.618,0,0.983,0,1.6,0l5.447,14.291c0.281,0.758,0.814,1.095,1.6,1.095h0.871V166.764z M79.241,158.397h6.485
				l0.533,1.404h-7.075L79.241,158.397z"/>
		</g>
	</g>
	<g>
		<g>
			<rect x="172.368" y="93.677" fill="#FAFAFA" width="20.012" height="19.057"/>
		</g>
		<g opacity="0.5">
			<path fill="#DFA839" d="M191.274,111.629h-5.925v-1.123l0.534-0.225c0.449-0.197,0.898-0.421,1.347-0.618l-2.134-5.756
				l-2.668-7.216l-5.082,12.971c0.478,0.197,0.927,0.393,1.404,0.59l0.562,0.253v1.123h-5.84v-1.123l0.646-0.253
				c0.449-0.197,0.926-0.393,1.376-0.59l6.177-14.881c0.73,0,1.151,0,1.881,0l5.672,14.825c0.505,0.197,1.039,0.421,1.544,0.618
				l0.506,0.225V111.629z M178.724,103.262h6.485l0.533,1.544h-7.075L178.724,103.262z"/>
		</g>
	</g>
	<polygon opacity="0.2" fill="#E7AC35" points="272.015,327.24 272.015,212.454 132.359,131.824 132.359,246.61 	"/>
</g>
</svg>
