<?xml version="1.0" encoding="utf-8"?>
<!-- Generator: Adobe Illustrator 21.1.0, SVG Export Plug-In . SVG Version: 6.00 Build 0)  -->
<svg version="1.1" id="レイヤー_1" xmlns="http://www.w3.org/2000/svg" xmlns:xlink="http://www.w3.org/1999/xlink" x="0px"
	 y="0px" viewBox="0 0 531.2 584" style="enable-background:new 0 0 531.2 584;" xml:space="preserve">
<style type="text/css">
	.st0{fill:#898989;}
	.st1{fill:#FBFBFB;}
	.st2{fill:#231815;}
	.st3{fill:#E61673;}
	.st4{fill:#E8AD36;}
	.st5{enable-background:new    ;}
</style>
<title>アートボード 1</title>
<path class="st0" d="M278.8,292.5l-0.3-0.2L40.2,154.7l170.3-98.3l0.3,0.2l238.4,137.6L278.8,292.5z M42.8,154.7l236,136.3
	l167.6-96.8l-236-136.3L42.8,154.7z"/>
<polygon class="st0" points="329.8,320.8 328.5,320.8 328.5,126.8 160.5,223.8 159.8,222.7 329.8,124.5 "/>
<polygon class="st0" points="159.5,419.5 159.5,223.2 160.8,223.2 160.8,417.2 328.8,320.2 329.5,321.3 "/>
<path class="st0" d="M278.2,488V291.4l0.3-0.2l170-98.1v196.6l-0.3,0.2L278.2,488z M279.5,292.1v193.6l167.6-96.8V195.3L279.5,292.1
	z"/>
<path class="st0" d="M364,439.2l-86.5-49.9l85.1-49.2v-98.3l86.5,49.9L364,340.9V439.2z M280.2,389.3l82.5,47.6v-95.3L280.2,389.3z
	 M364,244.1v95.2l82.5-47.6L364,244.1z"/>
<path class="st0" d="M40.8,351V154.3l0.3-0.2l170-98.1v196.6l-0.3,0.2L40.8,351z M42.1,155.1v193.5l167.6-96.8V58.3L42.1,155.1z"/>
<rect x="125.3" y="105.9" class="st0" width="1.3" height="195.1"/>
<rect x="28.4" y="202.8" transform="matrix(0.8661 -0.4998 0.4998 0.8661 -84.8394 90.1721)" class="st0" width="195.1" height="1.3"/>
<rect x="244" y="174.5" class="st0" width="1.3" height="195.1"/>
<rect x="193.4" y="231.2" class="st1" width="34.4" height="32.4"/>
<path class="st2" d="M225.9,261.7h-10.1v-2.9h3.2l-3.8-10.3l-4.5-12.3l-8.8,22.5h3.3v2.9h-9.9v-2.9h3.4l10.7-25.8h3.2l9.8,25.7h3.5
	L225.9,261.7z M204.4,247.5h11l0.9,2.9h-12L204.4,247.5z"/>
<rect x="313.9" y="297.7" class="st1" width="32.8" height="33.3"/>
<path class="st2" d="M344.9,329.1h-10.1v-1.4h3.5l-5.1-12.8l-3.7-9.5l-8.9,22.4h3.3v1.4h-8.2v-1.4h3l11.5-27.9
	c0.1-0.4,0.3-0.3,0.5,0l11.2,27.9h2.9L344.9,329.1z M324.6,314.9h9.5v1.7h-9.7L324.6,314.9z"/>
<rect x="362.7" y="243" transform="matrix(0.5 -0.866 0.866 0.5 -113.2427 484.9307)" class="st0" width="1.3" height="195.1"/>
<rect x="193.5" y="134.8" class="st1" width="34.2" height="32.4"/>
<path class="st2" d="M225.8,165.3h-10.1v-2.4l0.7-0.2c0.7-0.2,1.8-0.4,2.5-0.5l-3.7-10l-4.5-12.3l-8.7,22.3c0.8,0.1,1.5,0.3,2.2,0.5
	l1.1,0.2v2.4h-9.9v-2.4l0.8-0.2l2.6-0.5l10.6-25.5h3.2l9.7,25.4c0.9,0.1,2,0.3,2.8,0.5l0.7,0.2L225.8,165.3L225.8,165.3z
	 M204.4,151.1h11l0.9,2.7h-12L204.4,151.1z"/>
<path class="st2" d="M225.1,162.6c-0.8-0.2-2-0.4-2.8-0.5l-9.7-25.4h-3.2l-10.6,25.5l-2.6,0.5l-0.8,0.2v2.4h9.9v-2.4l-1.1-0.2
	c-0.7-0.1-1.5-0.3-2.2-0.5l3.3-8.4h10.6l3.1,8.4c-0.7,0.1-1.8,0.3-2.5,0.5l-0.7,0.2v2.4h10.1v-2.5L225.1,162.6z M210.7,139.9
	l4.1,11.2h-8.5L210.7,139.9z"/>
<rect x="229.4" y="346.1" class="st1" width="32.8" height="33.3"/>
<path class="st2" d="M260.4,377.5h-10.1v-1.4h3.5l-5.1-12.8l-3.7-9.6l-8.8,22.4h3.3v1.4h-8.2v-1.4h3l11.6-27.9
	c0.1-0.4,0.3-0.3,0.5,0l11.2,27.9h2.9L260.4,377.5z M240.1,363.3h9.5v1.7h-9.7L240.1,363.3z"/>
<path class="st2" d="M259.9,376.1h-2.4l-11.2-27.9c-0.1-0.3-0.3-0.4-0.5,0l-11.5,27.9h-3v1.4h8.2v-1.4h-3.3l4.4-11.1h8.9l4.4,11.1
	h-3.5v1.4h10.1v-1.4H259.9z M241.3,363.3l3.8-9.6l3.7,9.5l0,0L241.3,363.3z"/>
<rect x="147.1" y="271.3" transform="matrix(0.8659 -0.5003 0.5003 0.8659 -103.2466 158.872)" class="st0" width="195.1" height="1.3"/>
<rect x="313.8" y="205.6" class="st1" width="33" height="33.3"/>
<path class="st2" d="M344.9,237h-10.2v-1.2l1.2-0.3c0.7-0.2,1.3-0.4,2-0.6l-4.8-12.1l-3.7-9.5l-8.6,21.6l2,0.7l1,0.3v1.2h-8.3v-1.2
	l0.9-0.3c0.9-0.2,1.7-0.5,2.6-0.8l11.2-27c0.1-0.4,0.3-0.3,0.5,0l10.9,27l2.8,1l0.5,0.1V237z M324.6,222.8h9.5v1.7h-9.7L324.6,222.8
	z"/>
<path class="st2" d="M344.5,235.7l-2.8-1l-10.9-27c-0.1-0.3-0.3-0.4-0.5,0l-11.2,27c-0.9,0.2-1.7,0.5-2.6,0.8l-0.9,0.3v1.2h8.3v-1.2
	l-1-0.3l-2-0.7l4.1-10.3h8.9l4.1,10.4c-0.7,0.2-1.3,0.4-2,0.6l-1.2,0.3v1.2H345v-1.2L344.5,235.7z M325.7,222.8l3.8-9.6l3.7,9.5l0,0
	L325.7,222.8z"/>
<rect x="244" y="37.4" transform="matrix(0.5 -0.866 0.866 0.5 -28.7653 299.0934)" class="st0" width="1.3" height="274.1"/>
<rect x="229.4" y="253.5" class="st1" width="32.9" height="33.3"/>
<path class="st2" d="M260.4,284.9h-10.1v-1.3l1.3-0.1c0.7,0,1.4-0.3,1.9-0.8l-4.7-12l-3.8-9.6l-8.5,21.5c0.5,0.5,1.1,0.8,1.8,0.8
	l1.2,0.2v1.3h-8.2v-1.3l0.7-0.2c1-0.1,1.9-0.5,2.8-1l11.1-26.9c0.1-0.4,0.3-0.3,0.5,0l10.8,26.9c0.9,0.5,1.8,0.9,2.8,1h0.5
	L260.4,284.9z M240.1,270.7h9.5v1.7h-9.7L240.1,270.7z"/>
<path class="st3" d="M259.9,283.5c-1-0.1-2-0.5-2.8-1l-10.8-26.9c-0.1-0.3-0.3-0.4-0.5,0l-11.1,26.9c-0.8,0.5-1.8,0.9-2.8,1
	l-0.7,0.2v1.3h8.2v-1.3l-1.2-0.2c-0.7-0.1-1.3-0.3-1.8-0.8l4.1-10.2h8.9l4,10.2c-0.5,0.5-1.2,0.8-1.9,0.8l-1.3,0.1v1.3h10.1v-1.3
	L259.9,283.5z M241.2,270.7l3.8-9.6l3.7,9.5l0,0L241.2,270.7z"/>
<rect x="109.2" y="183.5" class="st1" width="34.3" height="32.4"/>
<path class="st2" d="M141.6,214h-10.1v-2.5l0.8-0.1c0.8,0,1.6-0.3,2.2-0.7l-3.6-9.8l-4.5-12.3l-8.6,22c0.6,0.4,1.3,0.7,2,0.7
	l1.2,0.1v2.5h-10v-2.5l0.9-0.1c1-0.1,1.9-0.3,2.8-0.7l10.5-25.3h3l9.6,25.2c0.9,0.4,1.9,0.7,2.9,0.7l0.8,0.1L141.6,214z
	 M120.1,199.8h11l0.9,2.7h-12L120.1,199.8z"/>
<path class="st2" d="M140.8,211.3c-1,0-2-0.3-2.9-0.7l-9.6-25.2h-3.1l-10.5,25.3c-0.9,0.4-1.8,0.7-2.8,0.7l-0.9,0.1v2.5h9.8v-2.5
	l-1.2-0.1c-0.7,0-1.4-0.3-2-0.7l3.2-8.2h10.5l3,8.2c-0.7,0.4-1.4,0.7-2.2,0.7l-0.8,0.1v2.5h10.1v-2.6L140.8,211.3z M126.4,188.6
	l4.1,11.2H122L126.4,188.6z"/>
<rect x="109.3" y="86.2" class="st1" width="34.2" height="32.4"/>
<path class="st2" d="M141.6,116.7h-10.1v-2.1l1-0.2c0.9-0.1,1.6-0.6,1.8-1.5l-3.4-9.3l-4.5-12.3l-8.4,21.6c0.2,0.8,1,1.4,1.9,1.4
	l1.1,0.2v2.2h-9.7v-2.1l1.3-0.2c1-0.1,1.9-0.6,2.5-1.4l10.2-24.9h3l9.4,24.7c0.7,0.8,1.6,1.3,2.7,1.5l1.2,0.2L141.6,116.7z
	 M120.1,102.5h11l0.9,2.5h-12L120.1,102.5z"/>
<path class="st2" d="M140.4,114.3c-1-0.1-2-0.7-2.7-1.5l-9.4-24.7h-3L115,112.9c-0.6,0.8-1.5,1.3-2.5,1.4l-1.3,0.2v2.2h9.7v-2.1
	l-1.1-0.2c-0.9,0-1.6-0.6-1.9-1.4l3.1-7.9h10.4l2.9,7.9c-0.2,0.8-1,1.4-1.8,1.5l-1,0.2v2.2h10.1v-2.2L140.4,114.3z M126.4,91.3
	l4.1,11.2H122L126.4,91.3z"/>
<rect x="109.8" y="280.1" class="st1" width="34.4" height="32.4"/>
<path class="st2" d="M142.3,310.6h-10.1v-2.9h3.2l-3.8-10.3l-4.5-12.3l-8.8,22.5h3.3v2.9h-9.9v-2.9h3.4l10.7-25.8h3.2l9.8,25.7h3.5
	L142.3,310.6z M120.8,296.4h11l0.9,2.9h-12L120.8,296.4z"/>
<path class="st2" d="M141.9,307.6h-3l-9.9-25.7h-3.2l-10.7,25.8h-3.4v2.9h9.9v-2.9h-3.3l3.3-8.5h10.7l3.2,8.5h-3.2v2.9h10.1v-3
	L141.9,307.6z M127.1,285.2l4.1,11.2h-8.5L127.1,285.2z"/>
<path class="st0" d="M279.5,488l-1-0.6L40.8,350.2V153.5l238.7,137.8V488z M42.1,349.4l236,136.3V292.1l-236-136.3L42.1,349.4z"/>
<rect x="159.5" y="183.7" transform="matrix(0.5 -0.866 0.866 0.5 -197.747 299.0641)" class="st0" width="1.3" height="274.1"/>
<rect x="313" y="106.7" class="st1" width="33.2" height="33.3"/>
<path class="st2" d="M344.3,138.1H334v-1l1-0.6l2-1.3l-4.5-11.4l-3.7-9.5l-8.3,20.9c0.6,0.5,1.3,0.9,1.9,1.4l0.9,0.6v1h-8.5v-0.9
	l1.1-0.7l2.7-1.6l10.8-26.2c0.1-0.4,0.3-0.3,0.5,0l10.5,26.1c1.1,0.7,2.2,1.3,3.3,2l0.5,0.3L344.3,138.1z M323.8,123.9h9.5v1.7h-9.7
	L323.8,123.9z"/>
<rect x="431.4" y="175.2" class="st1" width="33.5" height="33.3"/>
<path class="st2" d="M463,206.7h-9.6v-0.2l0.7-0.4c0.7-0.3,1.3-0.7,2-1l-5-12.6l-4.3-11.1l-9.8,23.7l2.4,1.1l0.8,0.3v0.2h-7v-0.2
	l1-0.4l2.5-1l11.5-27.6c0.1-0.4,0.3-0.3,0.5,0l11.1,27.6l2.3,1l0.9,0.4L463,206.7L463,206.7z M441.8,193.2H452v0.2h-10.3
	L441.8,193.2z"/>
<rect x="431.4" y="269.6" class="st1" width="33.7" height="33.3"/>
<path class="st2" d="M463.2,301h-9.6v-0.2l0.6-0.2c0.7-0.2,1.6-0.4,2.2-0.5l-5.2-13.3l-4.3-11.1l-10.1,24.4c0.7,0.2,1.5,0.3,2.2,0.5
	l1,0.2v0.2h-6.8v-0.2l0.8-0.2c0.9-0.1,1.7-0.3,2.5-0.5l11.7-28.4c0.1-0.4,0.3-0.3,0.5,0l11.4,28.4c0.8,0.1,1.6,0.3,2.4,0.5l0.7,0.2
	V301z M441.8,287.5H452v0.2h-10.3L441.8,287.5z"/>
<path class="st2" d="M462.5,300.6c-0.8-0.2-1.6-0.4-2.4-0.5l-11.4-28.4c-0.1-0.3-0.3-0.4-0.5,0l-11.7,28.4c-0.8,0.1-1.6,0.3-2.5,0.5
	l-0.8,0.2v0.2h6.8v-0.2l-1-0.2c-0.8-0.2-1.5-0.3-2.2-0.5l5.1-12.3h9.7l4.9,12.3c-0.7,0.1-1.6,0.3-2.2,0.5l-0.6,0.2v0.2h9.6v-0.2
	L462.5,300.6z M441.9,287.5l4.9-11.9l4.3,11.1l0.3,0.8H441.9z"/>
<rect x="229.3" y="155.1" class="st1" width="33" height="33.3"/>
<path class="st2" d="M260.5,186.6h-10.2v-1.2l1.2-0.3c0.8-0.1,1.5-0.7,1.6-1.6l-4.4-11.2l-3.7-9.5l-8.2,20.7
	c0.1,0.8,0.8,1.5,1.6,1.7l1.1,0.3v1.2h-8.4v-1.2l0.9-0.3c1.2-0.2,2.3-0.9,3-1.9l10.7-25.9c0.1-0.4,0.3-0.3,0.5,0l10.5,25.8
	c0.8,1.1,2,1.8,3.3,2.1l0.5,0.1V186.6z M240.1,172.4h9.5v1.7h-9.7L240.1,172.4z"/>
<path class="st2" d="M260,185.2c-1.3-0.3-2.5-1-3.3-2.1l-10.4-25.9c-0.1-0.3-0.3-0.4-0.5,0l-10.7,25.9c-0.7,1-1.8,1.6-3,1.9
	l-0.9,0.3v1.2h8.4v-1.2l-1.1-0.3c-0.8-0.2-1.5-0.8-1.6-1.7l3.7-9.4h8.9l3.7,9.4c-0.1,0.8-0.8,1.5-1.6,1.6l-1.2,0.3v1.2h10.2v-1.2
	H260z M241.2,172.4l3.8-9.6l3.7,9.5l0,0L241.2,172.4z"/>
<rect x="143.8" y="204.3" class="st1" width="32.8" height="33.3"/>
<path class="st2" d="M174.8,235.7h-10.1v-1.4h1.4c1.2,0,1.7-0.8,1.3-1.9l-4.3-10.9l-3.7-9.5l-8.1,20.4c-0.5,1.2,0,2,1.3,2h1.3v1.4
	h-8.2v-1.4h0.5c1.5,0.1,2.9-0.8,3.3-2.2l10.6-25.7c0.1-0.4,0.3-0.3,0.5,0l10.4,25.6c0.5,1.4,1.8,2.3,3.3,2.2h0.5V235.7z
	 M154.5,221.5h9.5v1.7h-9.7L154.5,221.5z"/>
<rect x="263" y="269.6" class="st1" width="33.8" height="33.3"/>
<path class="st2" d="M294.9,301h-10.5v-0.2h0.7c2,0,2.8-1.2,2-3l-4.3-11l-4.3-11.1l-9.2,22.1c-0.8,1.9,0.1,3,2,3h0.5v0.2h-7v-0.2
	h0.1c1.8,0.1,3.4-1,4-2.7l10.9-26.4c0.1-0.4,0.3-0.3,0.5,0l10.7,26.4c0.5,1.7,2.1,2.8,3.9,2.7l0,0V301z M273.5,287.5h10.3v0.2h-10.4
	L273.5,287.5z"/>
<rect x="263" y="367.1" class="st1" width="33.8" height="33.3"/>
<path class="st2" d="M294.9,398.6h-10.1v-0.2h0.6c1.3,0,2.3-0.6,2.3-1.5l-5-12.5l-4.3-11.1l-9.8,23.6c0,0.9,0.8,1.5,2.1,1.5h0.9v0.2
	h-6.8v-0.2h0.3c1.2,0.1,2.4-0.4,3.2-1.3l11.5-27.7c0.1-0.4,0.3-0.3,0.5,0l11.2,27.7c0.8,0.9,1.9,1.4,3.1,1.3h0.2L294.9,398.6z
	 M273.5,385.1h10.3v0.2h-10.4L273.5,385.1z"/>
<path class="st2" d="M294.7,398.3c-1.2,0.1-2.4-0.4-3.1-1.3l-11.2-27.7c-0.1-0.3-0.3-0.4-0.5,0L268.5,397c-0.8,0.9-2,1.4-3.2,1.3
	H265v0.2h6.8v-0.2h-0.9c-1.3,0-2.1-0.6-2.1-1.5l4.8-11.5h9.7l4.6,11.5c0,0.9-1,1.5-2.3,1.5H285v0.2h10.1v-0.2H294.7z M273.6,385.1
	l4.9-11.9l4.3,11.1l0.3,0.8H273.6z"/>
<rect x="347.5" y="318.3" class="st1" width="33.7" height="33.3"/>
<path class="st2" d="M379.4,349.8h-9.8v-0.2l0.6-0.1c0.9,0,1.7-0.4,2.3-1l-5.1-12.9l-4.3-11.2l-9.9,24c0.5,0.6,1.3,1,2.1,1l1,0.1
	v0.2h-6.8v-0.2l0.5-0.1c1-0.1,2-0.4,2.9-1l11.6-28c0.1-0.4,0.3-0.3,0.5,0l11.3,28c0.8,0.6,1.8,0.9,2.8,1l0.5,0.1L379.4,349.8z
	 M357.9,336.3h10.3v0.2h-10.4L357.9,336.3z"/>
<path class="st2" d="M378.9,349.5c-1-0.1-2-0.4-2.8-1l-11.3-28c-0.1-0.3-0.3-0.4-0.5,0l-11.6,28c-0.8,0.6-1.8,0.9-2.9,1l-0.5,0.1
	v0.2h6.8v-0.2l-1-0.1c-0.8,0-1.6-0.4-2.1-1l5-11.9h9.7l4.7,11.9c-0.6,0.6-1.4,1-2.3,1l-0.6,0.1v0.2h9.8v-0.2L378.9,349.5z
	 M358.1,336.3l4.9-11.9l4.3,11.1l0.3,0.8H358.1z"/>
<rect x="347.5" y="224.7" class="st1" width="33.7" height="33.3"/>
<path class="st2" d="M379.3,256.1h-10.1v-0.2l0.7-0.2c1.1,0,2-0.9,2-2c0,0,0,0,0-0.1l-4.7-11.8l-4.3-11.1l-9.5,22.9
	c0,1.1,0.8,1.9,2.2,2.1l0.7,0.2v0.2h-7v-0.2l0.6-0.2c1.3-0.1,2.5-0.8,3.2-1.8l11.2-27c0.1-0.4,0.3-0.3,0.5,0l10.9,27
	c0.7,1,1.8,1.7,3.1,1.9l0.5,0.2L379.3,256.1z M357.9,242.6h10.3v0.2h-10.4L357.9,242.6z"/>
<path class="st2" d="M378.9,255.7c-1.3-0.1-2.4-0.8-3.1-1.9l-10.9-27c-0.1-0.3-0.3-0.4-0.5,0l-11.2,27c-0.8,1-2,1.7-3.2,1.8
	l-0.6,0.2v0.2h7v-0.2l-0.7-0.2c-1.4-0.2-2.2-1-2.2-2.1l4.5-10.8h9.7l4.3,10.8c0,1.1-0.8,2-1.9,2c0,0,0,0-0.1,0l-0.7,0.2v0.2h10.1
	v-0.2H378.9z M358.1,242.6l4.9-11.9l4.3,11.1l0.3,0.8L358.1,242.6z"/>
<rect x="143.8" y="393.7" class="st1" width="32.8" height="33.3"/>
<path class="st2" d="M174.8,425.1h-10.1v-1.4h3.5l-5.1-12.8l-3.7-9.5l-8.9,22.4h3.3v1.4h-8.1v-1.4h3l11.6-27.9
	c0.1-0.4,0.3-0.3,0.5,0l11.2,27.9h2.9L174.8,425.1z M154.5,410.9h9.5v1.7h-9.7L154.5,410.9z"/>
<rect x="144.9" y="298" class="st1" width="32.8" height="33.3"/>
<path class="st2" d="M175.9,329.5h-10.1v-1.4h1.4c1,0,1.6-0.4,1.7-1l-4.7-11.9l-3.7-9.5l-8.5,21.4c0.1,0.6,0.7,1,1.7,1h1.2v1.4h-8.2
	v-1.4h0.5c1.1,0.1,2.1-0.3,2.9-1.1l11.1-26.8c0.1-0.4,0.3-0.3,0.5,0l10.8,26.7c0.7,0.8,1.8,1.2,2.8,1.1h0.5L175.9,329.5z
	 M155.6,315.3h9.5v1.7h-9.7L155.6,315.3z"/>
<path class="st2" d="M175.4,328.1c-1.1,0-2.1-0.4-2.8-1.1l-10.8-26.7c-0.1-0.3-0.3-0.4-0.5,0l-11.1,26.8c-0.8,0.8-1.8,1.2-2.9,1.1
	h-0.5v1.4h8.2v-1.4h-1.3c-1,0-1.6-0.4-1.7-1l4-10.1h8.9l4,10.1c-0.1,0.6-0.7,1-1.7,1h-1.4v1.4h10.1v-1.5H175.4z M156.8,315.3
	l3.8-9.6l3.7,9.5l0,0L156.8,315.3z"/>
<rect x="347.6" y="411.9" class="st1" width="33.8" height="33.3"/>
<path class="st2" d="M379.5,443.3h-9.6v-0.2h3l-5.5-14l-4.3-11.1l-10.4,25.1h3.3v0.2h-6.5v-0.2h3l12-29.1c0.1-0.4,0.3-0.3,0.5,0
	l11.7,29.1h2.9v0.2H379.5z M358,429.8h10.3v0.3H358V429.8z"/>
<path class="st2" d="M379,443.1h-2.4L365,414c-0.1-0.3-0.3-0.4-0.5,0l-12,29.1h-3v0.2h6.5v-0.2h-3.3l5.4-13h9.7l5.1,13h-3v0.2h9.6
	v-0.2H379z M358.1,429.8l4.9-11.9l4.3,11.1l0.3,0.8H358.1z"/>
<rect x="432.1" y="363.9" class="st1" width="33.8" height="33.3"/>
<path class="st2" d="M464,395.3h-9.6v-0.2h3l-5.5-14l-4.3-11.1l-10.4,25.1h3.3v0.2H434v-0.2h3l12-29.1c0.1-0.4,0.3-0.3,0.5,0
	l11.7,29.1h2.9v0.2H464z M442.5,381.8h10.3v0.2h-10.4L442.5,381.8z"/>
<rect x="263" y="462.8" class="st1" width="33.8" height="33.3"/>
<path class="st2" d="M294.9,494.2h-9.6V494h3l-5.5-14l-4.3-11.1L268.1,494h3.3v0.2h-6.5V494h3l12-29.1c0.1-0.4,0.3-0.3,0.5,0
	l11.7,29.1h2.9v0.2H294.9z M273.5,480.7h10.3v0.2h-10.4L273.5,480.7z"/>
<rect x="24.7" y="328.4" class="st1" width="34.4" height="32.4"/>
<path class="st2" d="M57.2,359H47.1v-2.9h3.2l-3.8-10.3L42,333.6l-8.9,22.5h3.3v2.9h-9.9v-2.9H30l10.7-25.8h3.2l9.8,25.7h3.5V359z
	 M35.7,344.7h11l0.9,2.9h-12L35.7,344.7z"/>
<rect x="25" y="134.8" class="st1" width="34.2" height="32.4"/>
<path class="st2" d="M57.3,165.3h-10v-2.4h1.2c1.2,0,1.8-0.7,1.3-1.9l-3.2-8.8L42,139.9L33.7,161c-0.4,1.1,0,1.9,1.3,1.9h1.3v2.4
	h-9.5v-2.4h1.4c1.2,0.1,2.3-0.7,2.7-1.8L41,136.7h2.7L53,161c0.4,1.2,1.5,2,2.7,1.9h1.5L57.3,165.3z M35.7,151.1h11l0.9,2.4h-12
	L35.7,151.1z"/>
<rect x="194" y="41.1" class="st1" width="34" height="32.4"/>
<path class="st2" d="M226.1,71.6H216v-1.9l0.9-0.4c0.8-0.3,1.5-0.7,2.3-1l-3.6-9.8L211,46.3l-8.6,22l2.4,1l1,0.4v1.9h-9.9v-1.9
	l1.1-0.4l2.3-1L209.8,43h3.2l9.6,25.2l2.6,1l0.9,0.4V71.6z M204.8,57.4h11l0.9,2.6h-12L204.8,57.4z"/>
<path class="st4" d="M222.4,258.8l-9.8-25.7h-3.2l-10.7,25.8h-3.4v2.9h9.9v-2.9h-3.3l3.3-8.5h10.7l3.2,8.5h-3.2v2.9H226v-3H222.4
	L222.4,258.8z M210.7,236.3l4.1,11.2h-8.5L210.7,236.3z"/>
<path class="st4" d="M342,327.7l-11.2-27.9c-0.1-0.3-0.3-0.4-0.5,0l-11.5,27.9h-3v1.4h8.2v-1.4h-3.3l4.4-11.1h8.9l4.4,11.1h-3.5v1.4
	H345v-1.4H342z M325.7,314.9l3.8-9.6l3.7,9.5l0,0L325.7,314.9z"/>
<path class="st4" d="M323.3,137.2l-0.9-0.6c-0.6-0.5-1.3-0.9-1.9-1.4l3.8-9.6h8.9l3.8,9.6l-2,1.3l-1,0.6v1h10.3v-1l-0.5-0.3
	c-1.1-0.7-2.2-1.3-3.3-2l-10.5-26c-0.1-0.3-0.3-0.4-0.5,0L318.7,135l-2.7,1.6l-1.1,0.7v0.9h8.5L323.3,137.2z M332.5,123.9
	L332.5,123.9H325l3.8-9.6L332.5,123.9z"/>
<path class="st4" d="M440.2,206.4l-0.8-0.3L437,205l4.8-11.6h9.7l4.6,11.6c-0.7,0.3-1.3,0.7-2,1l-0.7,0.4v0.2h9.6v-0.2l-0.9-0.4
	l-2.3-1l-11.1-27.6c-0.1-0.3-0.3-0.4-0.5,0L436.7,205l-2.5,1l-1,0.4v0.2h7L440.2,206.4z M451.1,192.4l0.3,0.8h-9.5l4.9-11.9
	L451.1,192.4z"/>
<path class="st4" d="M171,232.1l-10.3-25.6c-0.1-0.3-0.3-0.4-0.5,0l-10.6,25.6c-0.5,1.4-1.9,2.3-3.3,2.2h-0.5v1.4h8.2v-1.4h-1.3
	c-1.2,0-1.8-0.8-1.3-2l3.6-9.1h8.9l3.6,9.2c0.4,1.1,0,1.9-1.3,1.9h-1.4v1.4h10.1v-1.4h-0.5C172.8,234.3,171.5,233.5,171,232.1z
	 M155.6,221.5l3.8-9.6l3.7,9.5l0,0L155.6,221.5z"/>
<path class="st4" d="M271.9,300.8h-0.5c-2,0-2.8-1.2-2-3l4.1-10h9.7l4,10c0.7,1.9-0.1,3-2,3h-0.7v0.2H295v-0.2l0,0
	c-1.8,0.1-3.4-1-4-2.7l-10.6-26.4c-0.1-0.3-0.3-0.4-0.5,0L269,298.1c-0.6,1.7-2.2,2.8-4,2.7h-0.1v0.2h7V300.8z M282.8,286.8l0.3,0.8
	h-9.5l4.9-11.9L282.8,286.8z"/>
<path class="st4" d="M171.9,423.7l-11.2-27.9c-0.1-0.3-0.3-0.4-0.5,0l-11.6,27.9h-3v1.4h8.2v-1.4h-3.3l4.5-11h8.9l4.4,11.1h-3.5v1.4
	h10.1v-1.4L171.9,423.7L171.9,423.7z M155.6,410.9l3.8-9.6l3.7,9.5l0,0L155.6,410.9z"/>
<path class="st4" d="M463.5,395.1h-2.4L449.4,366c-0.1-0.3-0.3-0.4-0.5,0L437,395.1h-3v0.2h6.5v-0.2h-3.3l5.4-13h9.7l5.1,13h-3v0.2
	h9.6v-0.2H463.5z M442.7,381.8l4.9-11.9l4.3,11.1l0.3,0.8H442.7z"/>
<path class="st4" d="M292.1,494l-11.7-29.1c-0.1-0.3-0.3-0.4-0.5,0l-12,29.1h-3v0.2h6.5V494h-3.3l5.4-13h9.7l5.1,13h-3v0.2h9.6V494
	H292.1L292.1,494z M273.6,480.7l4.9-11.9l4.3,11.1l0.3,0.8H273.6z"/>
<path class="st4" d="M53.7,356l-9.8-25.7h-3.2L30,356.1h-3.4v2.9h9.9v-2.9h-3.3l3.3-8.5h10.7l3.2,8.5h-3.2v2.9h10.1v-3H53.7
	L53.7,356z M42,333.6l4.1,11.2h-8.5L42,333.6z"/>
<path class="st4" d="M53.1,161l-9.3-24.3h-2.7L31,161.1c-0.4,1.2-1.5,1.9-2.8,1.9h-1.4v2.4h9.4V163H35c-1.2,0-1.7-0.8-1.3-1.9l3-7.5
	H47l2.8,7.5c0.4,1.2-0.1,1.9-1.3,1.9h-1.2v2.4h10.1v-2.5h-1.5C54.6,163,53.5,162.2,53.1,161z M42,139.9l4.1,11.2h-8.5L42,139.9z"/>
<path class="st4" d="M222.6,68.2L213,43h-3.2l-10.5,25.3l-2.3,1l-1.1,0.4v1.9h9.9v-1.9l-1-0.4l-2.4-1l3.2-8.3h10.5l3.1,8.3
	c-0.8,0.3-1.5,0.7-2.3,1l-0.9,0.4v2h10.1v-2l-0.9-0.4L222.6,68.2z M211.1,46.2l4.1,11.2h-8.5L211.1,46.2z"/>
<rect x="24.8" y="231.2" class="st1" width="34.3" height="32.4"/>
<path class="st2" d="M57.3,261.7H47.2v-2.6H48c1,0,1.9-0.4,2-1l-3.5-9.5L42,236.3l-8.5,21.8c0.1,0.6,0.8,1,1.7,1h1.2v2.6h-9.7v-2.6
	h1c1,0,2-0.3,2.8-1l10.4-25h3l9.5,25c0.8,0.7,1.8,1,2.9,1h1L57.3,261.7z M35.7,247.5h11l0.9,2.6h-12L35.7,247.5z"/>
<path class="st2" d="M56.3,259c-1,0-2.1-0.3-2.9-1l-9.5-25h-3l-10.4,25.1c-0.8,0.7-1.8,1-2.8,1h-1v2.6h9.7v-2.6h-1.2
	c-1,0-1.6-0.4-1.7-1l3.1-8h10.5l3,8c-0.1,0.6-1,1-2,1h-0.8v2.6h10V259L56.3,259z M42,236.3l4.1,11.2h-8.5L42,236.3z"/>
<g class="st5">
	<path class="st2" d="M41.2,387.8l-2.4-1.4l4.5-2.6c0.8-0.4,2.1-1.2,2.6-1.4l0,0c-0.5,0-1.5-0.1-2.4-0.2l-0.9-0.1l0.3-1.5l5.3,0.7
		l2.2,1.3L41.2,387.8z"/>
	<path class="st2" d="M57,391.6c-3.2,1.8-6,2.1-8.8,0.5c-2.7-1.6-2.4-3.3,0.6-5c3.4-1.9,6.1-2.1,9-0.4
		C60.3,388.2,60.1,389.8,57,391.6z M51.4,388.4c-2.2,1.3-2.8,2.2-1.8,2.8c1,0.6,2.7,0.3,4.8-0.9c2.2-1.3,2.7-2.2,1.7-2.8
		C55.1,386.9,53.5,387.2,51.4,388.4z"/>
	<path class="st2" d="M66,396.9c-3.2,1.8-6,2.1-8.8,0.5c-2.7-1.6-2.4-3.3,0.6-5c3.4-1.9,6.1-2.1,9-0.4
		C69.4,393.4,69.1,395.1,66,396.9z M60.5,393.6c-2.2,1.3-2.8,2.2-1.8,2.9c1,0.6,2.7,0.3,4.8-0.9c2.2-1.3,2.7-2.2,1.7-2.8
		C64.2,392.1,62.6,392.4,60.5,393.6z"/>
	<path class="st2" d="M75.1,402.1c-3.2,1.8-6,2.1-8.8,0.5c-2.7-1.6-2.4-3.3,0.6-5c3.4-1.9,6.1-2.1,9-0.4
		C78.4,398.7,78.2,400.3,75.1,402.1z M69.6,398.9c-2.2,1.3-2.8,2.2-1.8,2.8c1,0.6,2.7,0.3,4.8-0.9c2.2-1.3,2.7-2.2,1.7-2.8
		C73.2,397.4,71.7,397.7,69.6,398.9z"/>
	<path class="st2" d="M109.7,419l-2.8-1.7l-7.5,4.3l-2.5-1.5l7.5-4.3l-2.8-1.6l1.7-1l8.1,4.7L109.7,419z"/>
	<path class="st2" d="M111.4,422.1c1.3-0.1,2.7,0.1,3.9,0.7c2,1.1,1.8,2.3,0,3.4l-4,2.3l-2.3-1.4l3.2-1.9c1.3-0.7,1.8-1.3,0.7-2
		c-1.4-0.8-2.8-0.4-4.1,0.3l-3,1.7l-2.3-1.4l9.9-5.7l2.3,1.3l-2.7,1.6C112.5,421.5,111.9,421.8,111.4,422.1L111.4,422.1z"/>
	<path class="st2" d="M115.6,431l-2.4-1.4l6.7-3.9l2.4,1.4L115.6,431z M123.5,426.4l-2.4-1.4l1.7-1l2.4,1.4L123.5,426.4z"/>
	<path class="st2" d="M128.1,432.3c-0.3-0.3-0.6-0.6-1.1-0.9c-1.3-0.8-2.9-0.8-4.1-0.1c-1.2,0.7-1.2,1.5,0.2,2.4
		c0.5,0.3,0.9,0.5,1.6,0.7l-1.5,0.9c-0.8-0.3-1.3-0.5-2-0.9c-2.6-1.5-2.9-3.2-0.8-4.5c2.1-1.2,5.3-0.9,7.7,0.5
		c0.7,0.4,1.2,0.8,1.6,1.2L128.1,432.3z"/>
	<path class="st2" d="M130,437.4c0.1-0.5,0.3-1.2,0.4-1.7l0,0l-3.3,1.9l-2.4-1.4l9.9-5.7l2.4,1.4l-5.9,3.4l0,0
		c0.7-0.1,1.9-0.1,2.7-0.1l2.6,0l2.7,1.6l-6,0l-0.4,4l-2.9-1.7L130,437.4z"/>
	<path class="st2" d="M141.4,439.5c1.4-0.1,2.9,0.1,4,0.8c2,1.1,1.8,2.3,0,3.4l-4,2.3l-2.3-1.4l3.2-1.9c1.3-0.7,1.9-1.3,0.7-1.9
		c-0.7-0.4-1.5-0.5-2.3-0.4c-0.6,0.1-1.2,0.4-1.8,0.7l-3,1.7l-2.3-1.4l4.6-2.6c0.6-0.4,1.3-0.8,2.1-1.3l2.2,1.3
		C142.2,439,141.7,439.3,141.4,439.5L141.4,439.5z"/>
	<path class="st2" d="M148,446.5c-0.8,0.5-0.6,1.4,0.8,2.2c0.8,0.5,1.8,0.8,2.8,1l-1.5,0.9c-0.9-0.2-2.1-0.7-3.1-1.3
		c-2.6-1.5-3.1-3.3-0.8-4.6c2.1-1.2,5.2-1.1,7.6,0.3c2.3,1.3,2.4,2.8,0,4.2c-0.1,0.1-0.4,0.2-0.5,0.3L148,446.5z M152.5,447.6
		c1-0.6,0.9-1.2-0.1-1.7c-0.9-0.5-2.1-0.6-3.1-0.1L152.5,447.6z"/>
	<path class="st2" d="M162.1,452.1c-0.4-0.6-0.9-1-1.6-1.4c-0.7-0.4-1.4-0.5-1.8-0.3c-0.4,0.2-0.3,0.4,0.6,1.3
		c1,0.9,1.6,1.8,0.3,2.5c-1.4,0.8-3.6,0.5-5.6-0.7c-0.8-0.5-1.6-1.1-2.2-1.7l1.7-0.8c0.5,0.7,1.2,1.3,1.9,1.7
		c0.6,0.4,1.4,0.6,1.8,0.3c0.4-0.2,0.3-0.5-0.6-1.4c-1.2-1.1-1.3-1.8-0.2-2.4c1.3-0.8,3.4-0.5,5.4,0.6c0.9,0.5,1.6,1,2,1.5
		L162.1,452.1z"/>
	<path class="st2" d="M169.2,456.2c-0.4-0.6-0.9-1-1.6-1.4c-0.7-0.4-1.4-0.5-1.8-0.3c-0.4,0.2-0.3,0.4,0.6,1.3
		c1,0.9,1.6,1.8,0.3,2.5c-1.4,0.8-3.6,0.5-5.6-0.7c-0.8-0.5-1.6-1.1-2.2-1.7l1.7-0.8c0.5,0.7,1.2,1.3,1.9,1.7
		c0.6,0.4,1.4,0.6,1.8,0.3c0.4-0.2,0.3-0.5-0.6-1.4c-1.2-1.1-1.3-1.8-0.2-2.4c1.3-0.8,3.4-0.5,5.4,0.6c0.9,0.5,1.6,1,2,1.5
		L169.2,456.2z"/>
	<path class="st2" d="M231.9,493.1c-3.2,1.8-6,2.1-8.8,0.5c-2.7-1.6-2.4-3.3,0.6-5c3.4-1.9,6.1-2.1,9-0.4
		C235.3,489.7,235,491.3,231.9,493.1z M226.4,489.8c-2.2,1.3-2.8,2.2-1.8,2.9c1,0.6,2.7,0.3,4.8-0.9c2.2-1.3,2.7-2.2,1.7-2.8
		C230.1,488.4,228.5,488.6,226.4,489.8z"/>
</g>
<g class="st5">
	<path class="st2" d="M328.7,494.2l-2.4,1.4l-4.5-2.6c-0.8-0.4-2-1.2-2.5-1.5l0,0c0,0.3-0.2,0.8-0.4,1.4l-0.2,0.5l-2.5-0.2l1.3-3
		l2.2-1.3L328.7,494.2z"/>
	<path class="st2" d="M335.2,485.1c3.2,1.8,3.6,3.5,0.9,5.1c-2.7,1.6-5.6,1.4-8.6-0.3c-3.4-1.9-3.6-3.5-0.8-5.2
		C329.3,483.2,332.1,483.3,335.2,485.1z M329.6,488.3c2.2,1.3,3.9,1.6,4.9,1c1-0.6,0.5-1.5-1.7-2.8c-2.2-1.3-3.8-1.6-4.8-1
		C327,486.2,327.5,487.1,329.6,488.3z"/>
	<path class="st2" d="M344.3,479.9c3.2,1.8,3.6,3.5,0.9,5.1s-5.6,1.4-8.6-0.3c-3.4-2-3.6-3.5-0.8-5.2
		C338.3,478,341.1,478.1,344.3,479.9z M338.7,483.1c2.2,1.3,3.9,1.6,4.9,1c1-0.6,0.5-1.5-1.7-2.8c-2.2-1.3-3.8-1.6-4.8-1
		C336.1,481,336.6,481.9,338.7,483.1z"/>
	<path class="st2" d="M353.3,474.6c3.2,1.8,3.6,3.5,0.9,5.1c-2.7,1.6-5.6,1.4-8.6-0.3c-3.4-2-3.6-3.5-0.8-5.2
		C347.4,472.7,350.2,472.8,353.3,474.6z M347.8,477.8c2.2,1.3,3.9,1.6,4.9,1c1-0.6,0.5-1.5-1.7-2.8c-2.2-1.3-3.8-1.6-4.8-1
		C345.2,475.7,345.7,476.6,347.8,477.8z"/>
</g>
<g class="st5">
	<path class="st2" d="M365,465c-1,0.3-1.8,0.6-2.4,0.9c-0.9,0.5-1.2,1.1-0.6,1.4c0.5,0.3,1.1,0.3,2.9-0.2c2.3-0.6,3.8-0.6,5.2,0.2
		c1.8,1,1.5,2.5-0.7,3.7c-0.9,0.5-1.9,0.9-3,1.3l-1.6-1.1c1.2-0.3,2.2-0.6,2.8-1c0.9-0.5,1.2-1.1,0.5-1.5c-0.6-0.3-1.3-0.3-3.1,0.2
		c-2.1,0.6-3.7,0.6-5-0.2c-1.7-1-1.3-2.4,0.8-3.6c0.9-0.5,1.7-0.9,2.6-1.2L365,465z"/>
</g>
<g class="st5">
	<path class="st2" d="M366.6,464.7l1.4-0.8l-1.5-0.8l1.3-1.5l2.1,1.2l1.6-0.9l1.4,0.8l-1.6,0.9l2.6,1.5c0.7,0.4,1.4,0.6,2.2,0.2
		c0.2-0.1,0.5-0.3,0.6-0.5l1.5,0.8c-0.3,0.3-0.7,0.6-1.2,0.8c-1.7,1-3.2,0.9-4.9-0.1l-2.9-1.7l-1.3,0.7L366.6,464.7z"/>
</g>
<g class="st5">
	<path class="st2" d="M375.8,461c-0.6-0.8-0.6-1.4,0.4-2c0.2-0.1,0.5-0.3,0.7-0.3l1.7,1c-0.3,0.1-0.5,0.2-0.8,0.3
		c-1.2,0.7-0.9,1.5,0.9,2.5l2.6,1.5l-2.1,1.2l-4.7-2.7c-0.7-0.4-1.5-0.8-2.1-1.1l1.9-1.1C374.6,460.4,375.4,460.8,375.8,461
		L375.8,461z"/>
</g>
<g class="st5">
	<path class="st2" d="M387.6,459.1c0.3,0.7,0,1.4-1.1,2c-1.3,0.8-3.2,0.9-4.4,0.1c-1.5-0.8-1-2,1.3-3.3c0.3-0.2,0.7-0.4,1-0.5
		c-0.9-0.5-1.9-0.5-2.8,0.1c-0.7,0.4-1.3,1-1.6,1.6l-1.6-0.8c0.4-0.6,1.2-1.3,2-1.7c2.2-1.3,4.1-1.2,5.9-0.2c0.4,0.2,1.1,0.7,1.7,1
		c1.2,0.7,2,1.1,2.5,1.3l-1.8,1c-0.1,0-0.4-0.2-0.6-0.3C388,459.3,387.8,459.2,387.6,459.1L387.6,459.1z M384.9,458.3
		c-1.3,0.7-1.7,1.3-1,1.7c0.6,0.3,1.2,0.3,1.9-0.1c0.9-0.5,0.9-1.2-0.3-1.9C385.3,458.1,385.1,458.2,384.9,458.3z"/>
	<path class="st2" d="M386.3,452.1l-2.1,1.2l-1.7-1l2.1-1.2L386.3,452.1z M394.1,456.6l-2.1,1.2l-6.7-3.9l2.1-1.2L394.1,456.6z"/>
	<path class="st2" d="M395.1,449.5c-0.4-0.2-0.7-0.4-1.1-0.6l1.9-1.1l6.1,3.5c2.3,1.3,2.1,2.8-0.3,4.2c-0.9,0.5-2,1-3.2,1.3l-1.5-1
		c1.3-0.2,2.3-0.6,3-1c1.2-0.7,1.5-1.5,0-2.3c-0.2-0.1-0.4-0.2-0.6-0.4l0,0c0.3,0.7,0,1.4-1,2c-1.8,1-4.3,0.9-6.4-0.2
		c-2.1-1.2-2.3-2.7-0.5-3.8C392.7,449.5,393.8,449.3,395.1,449.5L395.1,449.5z M394.1,452.6c1.1,0.6,2.5,0.7,3.4,0.2
		c0.9-0.5,0.7-1.4-0.3-2c-1.1-0.6-2.5-0.7-3.5-0.2C392.8,451.2,393,452,394.1,452.6z"/>
	<path class="st2" d="M400.8,446.3c-0.3-0.7-0.1-1.5,0.9-2c1.7-1,3.6-0.8,5.5,0.2l4,2.3l-2,1.2l-3.2-1.9c-1.3-0.7-2.2-1.1-3.2-0.5
		c-1.2,0.7-0.5,1.5,0.8,2.2l3,1.7l-2,1.2l-9.9-5.7l2-1.2l2.7,1.6C399.7,445.7,400.3,446.1,400.8,446.3L400.8,446.3z"/>
	<path class="st2" d="M405.3,442.4l1.4-0.8l-1.5-0.8l1.3-1.5l2.1,1.2l1.6-0.9l1.4,0.8l-1.6,0.9l2.6,1.5c0.7,0.4,1.4,0.6,2.2,0.2
		c0.2-0.1,0.5-0.3,0.6-0.5l1.5,0.8c-0.3,0.3-0.7,0.6-1.2,0.8c-1.7,1-3.2,0.9-4.9-0.1l-2.9-1.7l-1.3,0.7L405.3,442.4z"/>
	<path class="st2" d="M417.1,440.2c0.9,0.5,2.3,0.4,3.5-0.3c0.7-0.4,1.2-0.9,1.5-1.5l1.6,0.9c-0.3,0.5-0.9,1.1-1.8,1.6
		c-2.3,1.3-5.1,1.5-7.4,0.2c-2.1-1.2-2.1-2.8,0-4.1c2-1.1,4.3-1.1,6.7,0.3c0.1,0.1,0.4,0.2,0.5,0.3L417.1,440.2z M418.6,437.9
		c-1-0.6-2-0.5-2.8-0.1c-0.7,0.4-0.9,1.1,0,1.7L418.6,437.9z"/>
	<path class="st2" d="M422.3,434.2c-0.6-0.8-0.6-1.4,0.4-2c0.2-0.1,0.5-0.3,0.7-0.3l1.7,1c-0.3,0.1-0.5,0.2-0.8,0.3
		c-1.2,0.7-0.9,1.5,0.9,2.5l2.6,1.5l-2.1,1.2l-4.7-2.7c-0.7-0.4-1.5-0.8-2.1-1.1l1.9-1.1C421.2,433.6,421.9,434,422.3,434.2
		L422.3,434.2z"/>
</g>
<g class="st5">
	<path class="st2" d="M460,413.1c3.2,1.8,3.6,3.5,0.9,5.1c-2.7,1.6-5.6,1.4-8.6-0.3c-3.4-2-3.6-3.5-0.8-5.2
		C454,411.1,456.8,411.3,460,413.1z M454.4,416.3c2.2,1.3,3.9,1.6,4.9,1c1-0.6,0.5-1.5-1.7-2.8c-2.2-1.3-3.8-1.6-4.8-1
		C451.8,414.1,452.3,415.1,454.4,416.3z"/>
</g>
<polygon class="st2" points="174.1,467.2 170,469.6 77,415.9 77,415.9 74.9,414.7 79,412.3 66.3,410.4 69.7,417.7 73.8,415.4 
	166.8,469.1 166.8,469.1 168.9,470.2 164.8,472.6 177.5,474.6 "/>
<polygon class="st2" points="353.1,483.8 357.2,486.2 450.2,432.5 450.2,432.5 452.2,431.3 448.2,428.9 460.9,427 457.5,434.3 
	453.4,432 360.4,485.6 360.4,485.6 358.3,486.9 362.4,489.2 349.7,491.2 "/>
<polygon class="st2" points="491.7,354.1 495.8,356.5 495.8,249.1 495.8,249.1 495.8,246.7 491.7,244.3 496.4,237.7 501,249.7 
	496.9,247.3 496.9,354.7 496.9,354.7 496.9,357.1 501,359.5 496.4,366.1 "/>
<g class="st5">
	<path class="st2" d="M482.4,379.7c3.2,1.8,4.8,4,4.8,6.7c0,2.7-1.6,3.1-4.6,1.4c-3.4-1.9-4.9-4.1-4.9-6.9
		C477.7,378.3,479.3,377.9,482.4,379.7z M482.4,385.2c2.2,1.3,3.4,1.4,3.4,0.3c0-1-1.1-2.2-3.2-3.4c-2.2-1.3-3.3-1.3-3.3-0.3
		C479.2,382.9,480.3,384,482.4,385.2z"/>
	<path class="st2" d="M487,314.4v2.5l-3.9-2.2v3.9l3.9,2.2v2.5l-9.1-5.2v-2.5l3.5,2v-3.9l-3.5-2v-2.5L487,314.4z"/>
	<path class="st2" d="M484.2,308.9c0.9,0.4,1.5-0.1,1.5-1.5c0-0.8-0.2-1.7-0.5-2.6l1.5,0.8c0.3,0.8,0.5,1.9,0.5,2.9
		c0,2.6-1.3,3.7-3.6,2.4c-2.1-1.2-3.5-3.7-3.5-6.1c0-2.3,1.2-2.9,3.6-1.5c0.1,0.1,0.4,0.2,0.5,0.3V308.9z M482.9,304.9
		c-1-0.6-1.4-0.2-1.4,0.7c0,0.9,0.5,1.9,1.4,2.5V304.9z"/>
	<path class="st2" d="M479.1,296.7v2.4l-1.7-1v-2.4L479.1,296.7z M487,301.2v2.4l-6.7-3.9v-2.4L487,301.2z"/>
	<path class="st2" d="M481.3,290.3c-0.4-0.2-0.7-0.4-1-0.6v-2.2l6.1,3.5c2.3,1.3,3.5,3.6,3.5,6.4c0,1-0.1,2.1-0.4,2.9l-1.7-1.1
		c0.4-0.7,0.6-1.5,0.6-2.4c0-1.4-0.5-2.6-2-3.5c-0.2-0.1-0.4-0.2-0.7-0.4v0c0.7,0.9,1.2,2.1,1.2,3.2c0,2.1-1.4,2.6-3.4,1.5
		c-2.1-1.2-3.5-3.4-3.5-5.5C480.1,291,480.5,290.4,481.3,290.3L481.3,290.3L481.3,290.3z M483.6,295.3c1.1,0.6,1.9,0.4,1.9-0.6
		c0-1-0.8-2.2-1.9-2.9c-1.1-0.6-1.9-0.4-1.9,0.7C481.7,293.5,482.5,294.6,483.6,295.3z"/>
	<path class="st2" d="M481.4,283.9c-0.8-1-1.3-2.2-1.3-3.3c0-2,1.1-2.3,2.9-1.2l4,2.3v2.3l-3.2-1.9c-1.3-0.7-2-1-2,0.2
		c0,1.4,1,2.4,2.3,3.1l3,1.7v2.3l-9.9-5.7v-2.3l2.7,1.6C480.3,283.3,480.9,283.6,481.4,283.9L481.4,283.9L481.4,283.9z"/>
	<path class="st2" d="M480.3,276.7v-1.6l-1.5-0.8l-0.7-2.6l2.1,1.2v-1.9l1.4,0.8v1.9l2.6,1.5c0.7,0.4,1.3,0.6,1.3-0.4
		c0-0.3,0-0.6-0.1-0.8l1.4,0.8c0.1,0.5,0.2,1.1,0.2,1.6c0,1.9-0.8,2.3-2.5,1.3l-2.9-1.7v1.5L480.3,276.7z"/>
	<path class="st2" d="M487,237.5v2.4l-4.5-2.6c-0.8-0.4-2-1.2-2.5-1.5v0c0.2,0.4,0.6,1.2,1,1.9l0.4,0.7l-1.4,0.3l-2-4.4v-2.2
		L487,237.5z"/>
	<path class="st2" d="M482.4,223.7c3.2,1.8,4.8,4,4.8,6.7s-1.6,3.1-4.6,1.4c-3.4-1.9-4.9-4.1-4.9-6.9
		C477.7,222.3,479.3,221.9,482.4,223.7z M482.4,229.2c2.2,1.3,3.4,1.4,3.4,0.3c0-1-1.1-2.2-3.2-3.4c-2.2-1.3-3.3-1.3-3.3-0.3
		C479.2,226.9,480.3,228,482.4,229.2z"/>
	<path class="st2" d="M482.4,214.7c3.2,1.8,4.8,4,4.8,6.7c0,2.7-1.6,3.1-4.6,1.4c-3.4-1.9-4.9-4.1-4.9-6.9
		C477.7,213.3,479.3,212.9,482.4,214.7z M482.4,220.2c2.2,1.3,3.4,1.4,3.4,0.3c0-1-1.1-2.2-3.2-3.4c-2.2-1.3-3.3-1.3-3.3-0.3
		C479.2,217.8,480.3,219,482.4,220.2z"/>
	<path class="st2" d="M482.4,205.6c3.2,1.8,4.8,4,4.8,6.7s-1.6,3.1-4.6,1.4c-3.4-1.9-4.9-4.1-4.9-6.9
		C477.7,204.2,479.3,203.8,482.4,205.6z M482.4,211.1c2.2,1.3,3.4,1.4,3.4,0.3c0-1-1.1-2.2-3.2-3.4c-2.2-1.3-3.3-1.3-3.3-0.3
		C479.2,208.8,480.3,209.9,482.4,211.1z"/>
</g>
</svg>
