<?xml version="1.0" encoding="utf-8"?>
<!-- Generator: Adobe Illustrator 22.0.1, SVG Export Plug-In . SVG Version: 6.00 Build 0)  -->
<svg version="1.1" id="レイヤー_1" xmlns="http://www.w3.org/2000/svg" xmlns:xlink="http://www.w3.org/1999/xlink" x="0px"
	 y="0px" viewBox="0 0 531.2 500" enable-background="new 0 0 531.2 500" xml:space="preserve">
<g>
	<path fill="#231815" d="M433.636,109.524h-12.66v-1.8h1.8c0.76,0,1.29-0.22,1.59-0.66c0.3-0.439,0.31-1.021,0.03-1.74l-5.4-13.74
		l-4.62-12l-10.199,25.681c-0.281,0.76-0.281,1.36,0,1.8c0.279,0.44,0.819,0.66,1.619,0.66h1.62v1.8h-10.319v-1.8h0.659
		c1.04,0,1.899-0.22,2.58-0.66c0.68-0.439,1.22-1.14,1.62-2.1l13.38-32.28c0.08-0.24,0.181-0.35,0.301-0.33
		c0.119,0.021,0.219,0.13,0.3,0.33l12.96,32.22c0.399,0.96,0.939,1.671,1.62,2.13c0.68,0.461,1.52,0.69,2.52,0.69h0.601V109.524z
		 M408.136,91.645h12v2.16h-12.24L408.136,91.645z"/>
</g>
<g>
	<path fill="#231815" d="M150.188,109.524h-12.96v-1.2l1.2-0.78c0.439-0.279,0.87-0.549,1.29-0.81c0.42-0.26,0.83-0.529,1.23-0.81
		l-5.641-14.341l-4.62-12l-10.439,26.28c0.399,0.28,0.8,0.57,1.2,0.87c0.399,0.3,0.799,0.591,1.199,0.87l1.141,0.78v1.14h-10.62
		v-1.14l1.439-0.841c0.561-0.319,1.13-0.649,1.71-0.989s1.149-0.67,1.71-0.99l13.62-32.88c0.08-0.24,0.181-0.35,0.301-0.33
		c0.119,0.021,0.219,0.13,0.3,0.33l13.2,32.82c0.68,0.399,1.369,0.81,2.069,1.229c0.699,0.42,1.39,0.831,2.07,1.23l0.6,0.359
		V109.524z M124.448,91.645h12v2.16h-12.24L124.448,91.645z"/>
</g>
<g>
	<path fill="#231815" d="M149.948,391.523h-12.66v-1.8h1.8c0.439,0,0.87,0,1.29,0s0.85,0,1.29,0l-6.36-16.141l-4.62-12
		l-11.16,28.141c0.44,0,0.87,0,1.29,0c0.421,0,0.85,0,1.29,0h1.561v1.8h-10.26v-1.8h0.659c0.52,0,1.03,0,1.53,0s1.01,0,1.53,0
		l14.52-35.04c0.08-0.24,0.181-0.35,0.301-0.33c0.119,0.021,0.219,0.13,0.3,0.33l14.1,35.04c0.52,0,1.021,0,1.5,0
		c0.48,0,0.979,0,1.5,0h0.601V391.523z M124.448,373.644h12v2.16h-12.24L124.448,373.644z"/>
</g>
<g>
	<path fill="#231815" d="M433.636,391.523h-12.66v-1.8h1.8c0.439,0,0.87,0,1.29,0s0.85,0,1.29,0l-6.36-16.141l-4.62-12
		l-11.16,28.141c0.44,0,0.87,0,1.29,0c0.421,0,0.85,0,1.29,0h1.561v1.8h-10.26v-1.8h0.659c0.52,0,1.03,0,1.53,0s1.01,0,1.53,0
		l14.52-35.04c0.08-0.24,0.181-0.35,0.301-0.33c0.119,0.021,0.219,0.13,0.3,0.33l14.1,35.04c0.52,0,1.021,0,1.5,0
		c0.48,0,0.979,0,1.5,0h0.601V391.523z M408.136,373.644h12v2.16h-12.24L408.136,373.644z"/>
</g>
<g>
	<path fill="#E7AC35" d="M386.355,391.523h-12.66v-1.8h1.8c0.439,0,0.87,0,1.29,0s0.85,0,1.29,0l-6.36-16.141l-4.62-12
		l-11.16,28.141c0.44,0,0.87,0,1.29,0c0.421,0,0.85,0,1.29,0h1.561v1.8h-10.26v-1.8h0.659c0.52,0,1.03,0,1.53,0s1.01,0,1.53,0
		l14.52-35.04c0.08-0.24,0.181-0.35,0.301-0.33c0.119,0.021,0.219,0.13,0.3,0.33l14.1,35.04c0.52,0,1.021,0,1.5,0
		c0.48,0,0.979,0,1.5,0h0.601V391.523z M360.855,373.644h12v2.16h-12.24L360.855,373.644z"/>
</g>
<g>
	<path fill="#E7AC35" d="M339.073,391.523h-12.66v-1.8h1.8c0.439,0,0.87,0,1.29,0s0.85,0,1.29,0l-6.36-16.141l-4.62-12
		l-11.16,28.141c0.44,0,0.87,0,1.29,0c0.421,0,0.85,0,1.29,0h1.561v1.8h-10.26v-1.8h0.659c0.52,0,1.03,0,1.53,0s1.01,0,1.53,0
		l14.52-35.04c0.08-0.24,0.181-0.35,0.301-0.33c0.119,0.021,0.219,0.13,0.3,0.33l14.1,35.04c0.52,0,1.021,0,1.5,0
		c0.48,0,0.979,0,1.5,0h0.601V391.523z M313.573,373.644h12v2.16h-12.24L313.573,373.644z"/>
</g>
<g>
	<path fill="#E7AC35" d="M291.792,391.523h-12.66v-1.8h1.8c0.439,0,0.87,0,1.29,0s0.85,0,1.29,0l-6.36-16.141l-4.62-12
		l-11.16,28.141c0.44,0,0.87,0,1.29,0c0.421,0,0.85,0,1.29,0h1.561v1.8h-10.26v-1.8h0.659c0.52,0,1.03,0,1.53,0s1.01,0,1.53,0
		l14.52-35.04c0.08-0.24,0.181-0.35,0.301-0.33c0.119,0.021,0.219,0.13,0.3,0.33l14.1,35.04c0.52,0,1.021,0,1.5,0
		c0.48,0,0.979,0,1.5,0h0.601V391.523z M266.292,373.644h12v2.16h-12.24L266.292,373.644z"/>
</g>
<g>
	<path fill="#E7AC35" d="M244.511,391.523h-12.66v-1.8h1.8c0.439,0,0.87,0,1.29,0s0.85,0,1.29,0l-6.36-16.141l-4.62-12
		l-11.16,28.141c0.44,0,0.87,0,1.29,0c0.421,0,0.85,0,1.29,0h1.561v1.8h-10.26v-1.8h0.659c0.52,0,1.03,0,1.53,0s1.01,0,1.53,0
		l14.52-35.04c0.08-0.24,0.181-0.35,0.301-0.33c0.119,0.021,0.219,0.13,0.3,0.33l14.1,35.04c0.52,0,1.021,0,1.5,0
		c0.48,0,0.979,0,1.5,0h0.601V391.523z M219.011,373.644h12v2.16h-12.24L219.011,373.644z"/>
</g>
<g>
	<path fill="#E7AC35" d="M197.23,391.523h-12.66v-1.8h1.8c0.439,0,0.87,0,1.29,0s0.85,0,1.29,0l-6.36-16.141l-4.62-12l-11.16,28.141
		c0.44,0,0.87,0,1.29,0c0.421,0,0.85,0,1.29,0h1.561v1.8h-10.26v-1.8h0.659c0.52,0,1.03,0,1.53,0s1.01,0,1.53,0l14.52-35.04
		c0.08-0.24,0.181-0.35,0.301-0.33c0.119,0.021,0.219,0.13,0.3,0.33l14.1,35.04c0.52,0,1.021,0,1.5,0c0.48,0,0.979,0,1.5,0h0.601
		V391.523z M171.73,373.644h12v2.16h-12.24L171.73,373.644z"/>
</g>
<g>
	<path fill="#E7AC35" d="M150.008,344.523h-12.72v-1.68l1.68-0.181c0.439-0.039,0.87-0.079,1.29-0.12
		c0.42-0.039,0.85-0.079,1.29-0.119l-6.24-15.841l-4.62-12l-11.04,27.841c0.44,0.04,0.86,0.08,1.261,0.119
		c0.399,0.041,0.84,0.101,1.319,0.181l1.44,0.12v1.68h-10.32v-1.68l0.84-0.181c0.48-0.039,0.99-0.09,1.53-0.149
		c0.54-0.061,1.05-0.11,1.53-0.15l14.399-34.68c0.08-0.24,0.181-0.35,0.301-0.33c0.119,0.021,0.219,0.13,0.3,0.33l13.979,34.68
		c0.52,0.04,1.04,0.101,1.561,0.18c0.52,0.081,1.06,0.161,1.62,0.24l0.6,0.061V344.523z M124.448,326.644h12v2.16h-12.24
		L124.448,326.644z"/>
</g>
<g>
	<path fill="#E7AC35" d="M433.636,344.523h-12.66v-1.8h1.8c0.479,0,0.92-0.04,1.32-0.12c0.399-0.08,0.759-0.18,1.08-0.3
		l-6.181-15.721l-4.62-12l-10.979,27.721c0.319,0.12,0.669,0.22,1.05,0.3c0.38,0.08,0.83,0.12,1.35,0.12h1.561v1.8h-10.26v-1.8
		h0.659c0.601,0,1.171-0.04,1.71-0.12c0.54-0.08,1.051-0.2,1.53-0.36l14.34-34.56c0.08-0.24,0.181-0.35,0.301-0.33
		c0.119,0.021,0.219,0.13,0.3,0.33l13.92,34.56c0.479,0.16,0.979,0.28,1.5,0.36c0.52,0.08,1.08,0.12,1.68,0.12h0.601V344.523z
		 M408.136,326.644h12v2.16h-12.24L408.136,326.644z"/>
</g>
<g>
	<path fill="#E7AC35" d="M386.355,344.523h-12.66v-1.74l1.739-0.06c0.52-0.04,0.98-0.09,1.381-0.15
		c0.399-0.06,0.759-0.129,1.08-0.21l-6.181-15.78l-4.62-12l-10.979,27.78c0.319,0.081,0.669,0.16,1.05,0.24
		c0.38,0.08,0.83,0.12,1.35,0.12l1.561,0.06v1.74h-10.26v-1.74l0.659-0.06c0.601-0.04,1.171-0.09,1.71-0.15
		c0.54-0.06,1.051-0.149,1.53-0.27l14.34-34.62c0.08-0.24,0.181-0.35,0.301-0.33c0.119,0.021,0.219,0.13,0.3,0.33l13.92,34.62
		c0.52,0.12,1.029,0.22,1.53,0.3c0.499,0.08,1.05,0.12,1.649,0.12l0.601,0.06V344.523z M360.855,326.644h12v2.16h-12.24
		L360.855,326.644z"/>
</g>
<g>
	<path fill="#E7AC35" d="M339.073,344.523h-12.66v-1.8h1.739c0.48,0,0.931-0.04,1.351-0.12s0.789-0.18,1.11-0.3l-6.181-15.721
		l-4.62-12l-10.979,27.721c0.319,0.12,0.68,0.21,1.08,0.27c0.399,0.061,0.859,0.11,1.38,0.15l1.5,0.06v1.74h-10.26v-1.74l0.72-0.06
		c0.56-0.04,1.1-0.09,1.62-0.15c0.52-0.06,1.039-0.17,1.56-0.33l14.34-34.56c0.08-0.24,0.181-0.35,0.301-0.33
		c0.119,0.021,0.219,0.13,0.3,0.33l13.92,34.56c0.52,0.16,1.039,0.28,1.56,0.36c0.52,0.08,1.06,0.12,1.62,0.12h0.601V344.523z
		 M313.573,326.644h12v2.16h-12.24L313.573,326.644z"/>
</g>
<g>
	<path fill="#E7AC35" d="M291.792,344.523h-12.721v-1.74l1.8-0.12c0.44,0,0.86-0.039,1.261-0.12c0.399-0.079,0.8-0.14,1.2-0.18
		l-6.181-15.78l-4.62-12l-10.979,27.78c0.399,0.081,0.789,0.15,1.17,0.21c0.38,0.061,0.81,0.11,1.29,0.15l1.56,0.06v1.74h-10.319
		v-1.74l0.72-0.12c0.52,0,1.05-0.039,1.59-0.12c0.54-0.079,1.069-0.159,1.59-0.239l14.34-34.62c0.08-0.24,0.181-0.35,0.301-0.33
		c0.119,0.021,0.219,0.13,0.3,0.33l13.92,34.62c0.52,0.12,1.039,0.21,1.56,0.27c0.52,0.061,1.06,0.11,1.62,0.15l0.601,0.06V344.523z
		 M266.292,326.644h12v2.16h-12.24L266.292,326.644z"/>
</g>
<g>
	<path fill="#E7AC35" d="M244.57,344.523h-12.72v-1.68l1.739-0.12c0.399-0.08,0.811-0.14,1.23-0.181
		c0.42-0.039,0.85-0.079,1.29-0.119l-6.24-15.841l-4.62-12l-11.04,27.841c0.44,0.04,0.86,0.09,1.261,0.149
		c0.399,0.061,0.819,0.11,1.26,0.15l1.5,0.06v1.74h-10.32v-1.74l0.78-0.06c0.56-0.04,1.1-0.1,1.62-0.181
		c0.52-0.079,1.02-0.14,1.5-0.18l14.399-34.68c0.08-0.24,0.181-0.35,0.301-0.33c0.119,0.021,0.219,0.13,0.3,0.33l13.979,34.68
		c0.48,0.04,0.979,0.101,1.5,0.18c0.52,0.081,1.08,0.161,1.681,0.24l0.6,0.061V344.523z M219.011,326.644h12v2.16h-12.24
		L219.011,326.644z"/>
</g>
<g>
	<path fill="#E7AC35" d="M197.23,344.523h-12.66v-1.74l1.739-0.06c0.399-0.04,0.811-0.09,1.23-0.15c0.42-0.06,0.83-0.129,1.23-0.21
		l-6.181-15.78l-4.62-12l-10.979,27.78c0.399,0.04,0.8,0.101,1.2,0.18c0.399,0.081,0.819,0.12,1.26,0.12l1.5,0.12v1.74h-10.26v-1.74
		l0.72-0.06c0.56-0.04,1.1-0.1,1.62-0.181c0.52-0.079,1.039-0.159,1.56-0.239l14.34-34.62c0.08-0.24,0.181-0.35,0.301-0.33
		c0.119,0.021,0.219,0.13,0.3,0.33l13.92,34.62c0.52,0.12,1.05,0.21,1.59,0.27c0.54,0.061,1.069,0.11,1.59,0.15l0.601,0.06V344.523z
		 M171.73,326.644h12v2.16h-12.24L171.73,326.644z"/>
</g>
<g>
	<path fill="#E7AC35" d="M150.008,297.523h-12.72v-1.62l1.56-0.24c0.48-0.079,0.93-0.159,1.351-0.239
		c0.42-0.08,0.829-0.2,1.229-0.36l-6.12-15.48l-4.62-12l-10.92,27.48c0.399,0.12,0.811,0.23,1.23,0.33
		c0.42,0.101,0.85,0.19,1.29,0.27l1.38,0.301v1.56h-10.32v-1.56l0.9-0.301c0.52-0.12,1.039-0.229,1.56-0.33
		c0.52-0.099,1.06-0.229,1.62-0.39l14.22-34.26c0.08-0.24,0.181-0.35,0.301-0.33c0.119,0.021,0.219,0.13,0.3,0.33l13.8,34.26
		c0.6,0.16,1.17,0.311,1.71,0.45c0.54,0.141,1.09,0.27,1.65,0.39l0.6,0.12V297.523z M124.448,279.644h12v2.16h-12.24
		L124.448,279.644z"/>
</g>
<g>
	<path fill="#E7AC35" d="M433.636,297.523h-12.66v-1.8h1.8c0.56,0,1.029-0.069,1.41-0.21c0.38-0.14,0.669-0.35,0.87-0.63
		l-6.061-15.301l-4.62-12l-10.859,27.301c0.199,0.28,0.489,0.49,0.87,0.63c0.379,0.141,0.849,0.21,1.409,0.21h1.561v1.8h-10.26v-1.8
		h0.659c0.68,0,1.3-0.069,1.86-0.21c0.56-0.14,1.08-0.391,1.561-0.75l14.159-34.08c0.08-0.24,0.181-0.35,0.301-0.33
		c0.119,0.021,0.219,0.13,0.3,0.33l13.74,34.08c0.479,0.32,0.989,0.561,1.529,0.72c0.54,0.16,1.149,0.24,1.83,0.24h0.601V297.523z
		 M408.136,279.644h12v2.16h-12.24L408.136,279.644z"/>
</g>
<g>
	<path fill="#E7AC35" d="M386.414,297.523h-12.72v-1.74l1.739-0.06c0.561-0.04,1.03-0.12,1.41-0.24s0.71-0.3,0.99-0.54l-6.12-15.36
		l-4.62-12l-10.92,27.36c0.279,0.24,0.609,0.431,0.99,0.57c0.38,0.141,0.83,0.21,1.35,0.21l1.561,0.06v1.74h-10.32v-1.74l0.72-0.06
		c0.68-0.04,1.3-0.12,1.86-0.24c0.56-0.12,1.06-0.339,1.5-0.66l14.22-34.14c0.08-0.24,0.181-0.35,0.301-0.33
		c0.119,0.021,0.219,0.13,0.3,0.33l13.8,34.14c0.479,0.24,0.99,0.45,1.53,0.63c0.54,0.181,1.149,0.291,1.83,0.33h0.6V297.523z
		 M360.855,279.644h12v2.16h-12.24L360.855,279.644z"/>
</g>
<g>
	<path fill="#E7AC35" d="M339.073,297.523h-12.66v-1.74l1.68-0.06c0.56-0.04,1.04-0.12,1.44-0.24c0.399-0.12,0.72-0.3,0.96-0.54
		l-6.061-15.36l-4.62-12l-10.859,27.36c0.239,0.201,0.56,0.37,0.96,0.51c0.399,0.141,0.859,0.21,1.38,0.21l1.5,0.181v1.68h-10.26
		v-1.68l0.72-0.12c0.64-0.08,1.229-0.181,1.77-0.3c0.54-0.12,1.07-0.32,1.591-0.601l14.159-34.14c0.08-0.24,0.181-0.35,0.301-0.33
		c0.119,0.021,0.219,0.13,0.3,0.33l13.74,34.14c0.56,0.28,1.1,0.49,1.619,0.63c0.52,0.141,1.1,0.23,1.74,0.271l0.601,0.06V297.523z
		 M313.573,279.644h12v2.16h-12.24L313.573,279.644z"/>
</g>
<g>
	<path fill="#E7AC35" d="M291.852,297.523h-12.78v-1.68l1.74-0.181c0.48-0.039,0.92-0.12,1.32-0.239
		c0.399-0.12,0.779-0.26,1.14-0.42l-6.12-15.421l-4.62-12l-10.92,27.421c0.36,0.2,0.74,0.351,1.141,0.449
		c0.399,0.101,0.84,0.19,1.319,0.271l1.5,0.12v1.68h-10.38v-1.68l0.84-0.181c0.56-0.039,1.12-0.12,1.681-0.239
		c0.56-0.12,1.08-0.301,1.56-0.54l14.22-34.2c0.08-0.24,0.181-0.35,0.301-0.33c0.119,0.021,0.219,0.13,0.3,0.33l13.8,34.2
		c0.52,0.2,1.05,0.38,1.59,0.54s1.13,0.28,1.771,0.359l0.6,0.061V297.523z M266.292,279.644h12v2.16h-12.24L266.292,279.644z"/>
</g>
<g>
	<path fill="#E7AC35" d="M244.57,297.523h-12.78v-1.62l1.74-0.24c0.439-0.079,0.87-0.169,1.29-0.27c0.42-0.1,0.81-0.21,1.17-0.33
		l-6.12-15.48l-4.62-12l-10.92,27.48c0.36,0.16,0.75,0.291,1.17,0.39c0.42,0.101,0.85,0.19,1.29,0.271l1.5,0.12v1.68h-10.38v-1.68
		l0.84-0.181c0.56-0.039,1.11-0.12,1.65-0.239c0.54-0.12,1.069-0.279,1.59-0.48l14.22-34.26c0.08-0.24,0.181-0.35,0.301-0.33
		c0.119,0.021,0.219,0.13,0.3,0.33l13.8,34.26c0.52,0.16,1.06,0.32,1.62,0.48c0.56,0.16,1.14,0.28,1.74,0.359l0.6,0.12V297.523z
		 M219.011,279.644h12v2.16h-12.24L219.011,279.644z"/>
</g>
<g>
	<path fill="#E7AC35" d="M197.289,297.523h-12.72v-1.62l1.62-0.18c0.439-0.12,0.869-0.22,1.29-0.3c0.42-0.08,0.829-0.2,1.229-0.36
		l-6.12-15.48l-4.62-12l-10.92,27.48c0.399,0.12,0.811,0.24,1.23,0.36c0.42,0.119,0.829,0.2,1.229,0.239l1.44,0.24v1.62h-10.32
		v-1.62l0.84-0.18c0.601-0.12,1.149-0.24,1.65-0.36c0.5-0.12,1.029-0.26,1.59-0.42l14.22-34.26c0.08-0.24,0.181-0.35,0.301-0.33
		c0.119,0.021,0.219,0.13,0.3,0.33l13.8,34.26c0.56,0.16,1.11,0.311,1.65,0.45c0.54,0.141,1.109,0.27,1.71,0.39l0.6,0.12V297.523z
		 M171.73,279.644h12v2.16h-12.24L171.73,279.644z"/>
</g>
<g>
	<path fill="#E7AC35" d="M150.068,250.524h-12.779v-1.5l1.5-0.36c0.439-0.159,0.87-0.3,1.29-0.42s0.829-0.26,1.229-0.42l-6-15.24
		l-4.62-12l-10.8,27.24c0.399,0.12,0.811,0.261,1.23,0.42c0.42,0.16,0.829,0.3,1.229,0.42l1.32,0.36v1.5h-10.38v-1.5l1.02-0.36
		c0.56-0.159,1.11-0.33,1.65-0.51s1.069-0.35,1.59-0.51l14.1-33.96c0.08-0.24,0.181-0.35,0.301-0.33
		c0.119,0.021,0.219,0.13,0.3,0.33l13.68,33.96c0.56,0.2,1.14,0.4,1.74,0.6c0.6,0.201,1.2,0.4,1.8,0.601l0.6,0.18V250.524z
		 M124.448,232.645h12v2.16h-12.24L124.448,232.645z"/>
</g>
<g>
	<path fill="#E7AC35" d="M433.636,250.525h-12.66v-1.8h1.8c0.6,0,1.08-0.11,1.439-0.33c0.36-0.22,0.58-0.51,0.66-0.87l-5.88-14.94
		l-4.62-12l-10.68,26.94c0.08,0.36,0.3,0.65,0.66,0.87c0.359,0.22,0.84,0.33,1.439,0.33h1.561v1.8h-10.26v-1.8h0.659
		c0.76,0,1.44-0.11,2.04-0.33c0.601-0.22,1.12-0.57,1.561-1.05l13.979-33.66c0.08-0.24,0.181-0.35,0.301-0.33
		c0.119,0.021,0.219,0.13,0.3,0.33l13.56,33.66c0.439,0.479,0.95,0.83,1.53,1.05c0.579,0.22,1.25,0.33,2.01,0.33h0.601V250.525z
		 M408.136,232.645h12v2.16h-12.24L408.136,232.645z"/>
</g>
<g>
	<path fill="#E7AC35" d="M386.414,250.525h-12.72v-1.74l1.739-0.06c0.601-0.04,1.08-0.159,1.44-0.36
		c0.36-0.199,0.62-0.459,0.78-0.78l-5.94-15l-4.62-12l-10.739,27c0.159,0.321,0.42,0.591,0.779,0.811
		c0.36,0.22,0.819,0.33,1.38,0.33l1.561,0.06v1.74h-10.32v-1.74l0.72-0.06c0.76-0.04,1.44-0.17,2.04-0.391
		c0.601-0.219,1.1-0.529,1.5-0.93l14.04-33.72c0.08-0.24,0.181-0.35,0.301-0.33c0.119,0.021,0.219,0.13,0.3,0.33l13.62,33.72
		c0.439,0.4,0.949,0.711,1.529,0.93c0.58,0.221,1.25,0.371,2.011,0.45h0.6V250.525z M360.855,232.645h12v2.16h-12.24
		L360.855,232.645z"/>
</g>
<g>
	<path fill="#E7AC35" d="M339.073,250.525h-12.66v-1.74l1.68-0.12c0.56,0,1.029-0.099,1.41-0.3c0.38-0.199,0.649-0.459,0.81-0.78
		l-5.88-15l-4.62-12l-10.68,27c0.159,0.28,0.43,0.521,0.81,0.721s0.85,0.32,1.41,0.359l1.44,0.181v1.68h-10.26v-1.68l0.779-0.181
		c0.64-0.039,1.25-0.159,1.83-0.359s1.13-0.5,1.65-0.9l13.979-33.72c0.08-0.24,0.181-0.35,0.301-0.33
		c0.119,0.021,0.219,0.13,0.3,0.33l13.56,33.72c0.52,0.44,1.07,0.761,1.65,0.96c0.579,0.201,1.209,0.32,1.89,0.36l0.601,0.06
		V250.525z M313.573,232.645h12v2.16h-12.24L313.573,232.645z"/>
</g>
<g>
	<path fill="#E7AC35" d="M291.852,250.525h-12.78v-1.68l1.681-0.181c0.519-0.039,0.969-0.159,1.35-0.359
		c0.38-0.2,0.71-0.42,0.99-0.66l-5.94-15.061l-4.62-12l-10.739,27.061c0.279,0.28,0.609,0.501,0.989,0.66
		c0.38,0.16,0.83,0.3,1.351,0.42l1.439,0.18v1.62h-10.38v-1.62l0.9-0.24c0.6-0.079,1.189-0.21,1.77-0.39s1.11-0.45,1.59-0.81
		l14.04-33.78c0.08-0.24,0.181-0.35,0.301-0.33c0.119,0.021,0.219,0.13,0.3,0.33l13.62,33.78c0.519,0.359,1.069,0.65,1.649,0.869
		c0.58,0.221,1.21,0.371,1.891,0.45l0.6,0.061V250.525z M266.292,232.645h12v2.16h-12.24L266.292,232.645z"/>
</g>
<g>
	<path fill="#E7AC35" d="M244.63,250.525h-12.84v-1.56l1.681-0.301c0.439-0.12,0.859-0.26,1.26-0.42
		c0.399-0.159,0.78-0.319,1.14-0.479l-6-15.181l-4.62-12l-10.8,27.181c0.36,0.2,0.74,0.381,1.14,0.54
		c0.399,0.16,0.82,0.3,1.261,0.42l1.439,0.18v1.62h-10.439v-1.62l0.96-0.24c0.6-0.079,1.189-0.219,1.77-0.42
		c0.58-0.199,1.09-0.42,1.53-0.66l14.1-33.899c0.08-0.24,0.181-0.35,0.301-0.33c0.119,0.021,0.219,0.13,0.3,0.33l13.68,33.899
		c0.48,0.24,1.021,0.471,1.62,0.69c0.6,0.221,1.239,0.41,1.92,0.57l0.6,0.12V250.525z M219.011,232.645h12v2.16h-12.24
		L219.011,232.645z"/>
</g>
<g>
	<path fill="#E7AC35" d="M197.289,250.525h-12.78v-1.56l1.62-0.301c0.439-0.12,0.859-0.26,1.26-0.42
		c0.399-0.159,0.78-0.319,1.141-0.479l-5.94-15.181l-4.62-12l-10.739,27.181c0.359,0.16,0.739,0.33,1.14,0.51
		c0.399,0.18,0.8,0.311,1.2,0.39l1.439,0.301v1.56h-10.38v-1.56l0.9-0.301c0.6-0.12,1.17-0.279,1.71-0.479s1.089-0.399,1.649-0.601
		l14.04-33.899c0.08-0.24,0.181-0.35,0.301-0.33c0.119,0.021,0.219,0.13,0.3,0.33l13.62,33.899c0.56,0.28,1.14,0.511,1.739,0.69
		c0.601,0.18,1.2,0.351,1.801,0.51l0.6,0.181V250.525z M171.73,232.645h12v2.16h-12.24L171.73,232.645z"/>
</g>
<g>
	<path fill="#E7AC35" d="M150.128,203.524h-12.9v-1.38l1.44-0.54c0.399-0.2,0.81-0.39,1.229-0.57c0.42-0.18,0.85-0.35,1.29-0.51
		l-5.88-14.94l-4.62-12l-10.68,26.94c0.439,0.16,0.859,0.34,1.26,0.54c0.399,0.2,0.8,0.4,1.2,0.6l1.32,0.48v1.38h-10.561v-1.38
		l1.2-0.54c0.56-0.2,1.119-0.42,1.68-0.66s1.1-0.459,1.62-0.66l13.92-33.6c0.08-0.24,0.181-0.35,0.301-0.33
		c0.119,0.021,0.219,0.13,0.3,0.33l13.5,33.6c0.6,0.24,1.22,0.501,1.859,0.78c0.64,0.28,1.28,0.561,1.92,0.84l0.601,0.24V203.524z
		 M124.448,185.645h12v2.16h-12.24L124.448,185.645z"/>
</g>
<g>
	<path fill="#E7AC35" d="M433.636,203.525h-12.66v-1.8h1.8c0.64,0,1.13-0.15,1.47-0.45s0.489-0.69,0.45-1.17l-5.7-14.521l-4.62-12
		l-10.5,26.521c-0.04,0.479,0.1,0.87,0.42,1.17s0.819,0.45,1.5,0.45h1.62v1.8h-10.319v-1.8h0.659c0.88,0,1.63-0.15,2.25-0.45
		s1.149-0.77,1.591-1.41l13.739-33.18c0.08-0.24,0.181-0.35,0.301-0.33c0.119,0.021,0.219,0.13,0.3,0.33l13.319,33.18
		c0.44,0.641,0.97,1.11,1.591,1.41c0.619,0.3,1.35,0.45,2.189,0.45h0.601V203.525z M408.136,185.645h12v2.16h-12.24L408.136,185.645
		z"/>
</g>
<g>
	<path fill="#E7AC35" d="M386.414,203.525h-12.72v-1.74l1.739-0.06c0.601-0.04,1.08-0.2,1.44-0.48c0.36-0.279,0.56-0.639,0.6-1.08
		l-5.76-14.58l-4.62-12l-10.56,26.58c0.039,0.441,0.229,0.801,0.57,1.08c0.339,0.28,0.829,0.44,1.47,0.48l1.56,0.06v1.74h-10.38
		v-1.74l0.78-0.06c0.84-0.04,1.56-0.21,2.16-0.51c0.6-0.301,1.119-0.729,1.56-1.29l13.8-33.24c0.08-0.24,0.181-0.35,0.301-0.33
		c0.119,0.021,0.219,0.13,0.3,0.33l13.38,33.24c0.439,0.561,0.97,0.989,1.59,1.29c0.62,0.3,1.35,0.49,2.19,0.569h0.6V203.525z
		 M360.855,185.645h12v2.16h-12.24L360.855,185.645z"/>
</g>
<g>
	<path fill="#E7AC35" d="M339.133,203.525h-12.72v-1.68l1.62-0.181c0.6-0.039,1.08-0.189,1.439-0.449
		c0.36-0.26,0.601-0.59,0.72-0.99l-5.76-14.641l-4.62-12l-10.56,26.641c0.12,0.359,0.35,0.681,0.689,0.96
		c0.34,0.28,0.811,0.44,1.41,0.479l1.5,0.24v1.62h-10.38v-1.62l0.84-0.24c0.76-0.079,1.44-0.249,2.04-0.51
		c0.601-0.26,1.141-0.649,1.62-1.17l13.8-33.3c0.08-0.24,0.181-0.35,0.301-0.33c0.119,0.021,0.219,0.13,0.3,0.33l13.38,33.3
		c0.52,0.521,1.089,0.93,1.71,1.23c0.619,0.3,1.31,0.49,2.07,0.569l0.6,0.061V203.525z M313.573,185.645h12v2.16h-12.24
		L313.573,185.645z"/>
</g>
<g>
	<path fill="#E7AC35" d="M291.852,203.525h-12.78v-1.62l1.62-0.3c0.52-0.039,0.97-0.189,1.351-0.45
		c0.379-0.26,0.669-0.549,0.869-0.87l-5.76-14.7l-4.62-12l-10.56,26.7c0.199,0.321,0.479,0.601,0.84,0.84
		c0.36,0.24,0.819,0.42,1.38,0.54l1.44,0.301v1.56h-10.44v-1.56l0.96-0.36c0.64-0.08,1.26-0.249,1.86-0.51
		c0.6-0.26,1.159-0.609,1.68-1.051l13.8-33.359c0.08-0.24,0.181-0.35,0.301-0.33c0.119,0.021,0.219,0.13,0.3,0.33l13.38,33.359
		c0.56,0.48,1.149,0.861,1.77,1.141c0.62,0.28,1.29,0.479,2.011,0.6l0.6,0.12V203.525z M266.292,185.645h12v2.16h-12.24
		L266.292,185.645z"/>
</g>
<g>
	<path fill="#E7AC35" d="M244.63,203.525h-12.84v-1.5l1.561-0.36c0.479-0.159,0.919-0.35,1.319-0.569
		c0.399-0.22,0.74-0.45,1.021-0.69l-5.82-14.82l-4.62-12l-10.62,26.82c0.28,0.24,0.609,0.48,0.99,0.72
		c0.38,0.24,0.811,0.42,1.29,0.54l1.44,0.36v1.5h-10.5v-1.5l1.02-0.36c0.68-0.159,1.31-0.369,1.891-0.63
		c0.579-0.26,1.109-0.549,1.59-0.87l13.859-33.479c0.08-0.24,0.181-0.35,0.301-0.33c0.119,0.021,0.219,0.13,0.3,0.33l13.439,33.479
		c0.56,0.36,1.149,0.681,1.771,0.96c0.619,0.28,1.29,0.521,2.01,0.721l0.6,0.18V203.525z M219.011,185.645h12v2.16h-12.24
		L219.011,185.645z"/>
</g>
<g>
	<path fill="#E7AC35" d="M197.349,203.525h-12.84v-1.5l1.5-0.36c0.44-0.159,0.87-0.35,1.29-0.569s0.79-0.45,1.11-0.69l-5.82-14.82
		l-4.62-12l-10.62,26.82c0.32,0.24,0.68,0.471,1.08,0.69c0.399,0.22,0.819,0.41,1.261,0.569l1.38,0.42v1.44h-10.5v-1.44l1.08-0.42
		c0.639-0.199,1.229-0.42,1.77-0.659c0.54-0.24,1.09-0.52,1.65-0.841l13.859-33.479c0.08-0.24,0.181-0.35,0.301-0.33
		c0.119,0.021,0.219,0.13,0.3,0.33l13.439,33.479c0.601,0.36,1.22,0.681,1.86,0.96c0.64,0.28,1.279,0.521,1.92,0.721l0.6,0.18
		V203.525z M171.73,185.645h12v2.16h-12.24L171.73,185.645z"/>
</g>
<g>
	<path fill="#E7AC35" d="M150.128,156.524h-12.9v-1.32l1.32-0.66c0.439-0.199,0.87-0.409,1.29-0.63c0.42-0.219,0.83-0.47,1.229-0.75
		l-5.76-14.58l-4.62-12l-10.56,26.58c0.399,0.24,0.8,0.48,1.2,0.721c0.399,0.239,0.819,0.479,1.26,0.72l1.2,0.66v1.26h-10.561v-1.26
		l1.32-0.721c0.52-0.239,1.06-0.499,1.62-0.779c0.56-0.279,1.14-0.58,1.74-0.9l13.739-33.18c0.08-0.24,0.181-0.35,0.301-0.33
		c0.119,0.021,0.219,0.13,0.3,0.33l13.319,33.18c0.68,0.36,1.351,0.711,2.011,1.05c0.66,0.341,1.31,0.671,1.949,0.99l0.601,0.3
		V156.524z M124.448,138.645h12v2.16h-12.24L124.448,138.645z"/>
</g>
<g>
	<path fill="#E7AC35" d="M433.636,156.524h-12.66v-1.8h1.8c0.72,0,1.239-0.181,1.56-0.54c0.32-0.36,0.399-0.859,0.24-1.5
		l-5.58-14.101l-4.62-12l-10.38,26.101c-0.16,0.641-0.09,1.14,0.21,1.5c0.3,0.359,0.83,0.54,1.59,0.54h1.62v1.8h-10.319v-1.8h0.659
		c0.96,0,1.76-0.181,2.4-0.54c0.64-0.36,1.18-0.96,1.62-1.8l13.56-32.7c0.08-0.24,0.181-0.35,0.301-0.33
		c0.119,0.021,0.219,0.13,0.3,0.33l13.14,32.7c0.439,0.8,0.979,1.39,1.62,1.77c0.64,0.381,1.419,0.57,2.34,0.57h0.601V156.524z
		 M408.136,138.645h12v2.16h-12.24L408.136,138.645z"/>
</g>
<g>
	<path fill="#E7AC35" d="M386.414,156.524h-12.72v-1.68l1.68-0.12c0.68-0.08,1.189-0.279,1.53-0.601
		c0.339-0.319,0.489-0.759,0.45-1.319l-5.641-14.221l-4.62-12l-10.439,26.221c-0.041,0.561,0.1,1.011,0.42,1.35
		c0.319,0.341,0.819,0.53,1.5,0.57l1.56,0.12v1.68h-10.38v-1.68l0.78-0.12c0.92-0.08,1.689-0.29,2.31-0.63s1.149-0.87,1.59-1.59
		l13.62-32.82c0.08-0.24,0.181-0.35,0.301-0.33c0.119,0.021,0.219,0.13,0.3,0.33l13.2,32.82c0.479,0.68,1.039,1.21,1.68,1.59
		c0.64,0.38,1.399,0.61,2.28,0.689l0.6,0.061V156.524z M360.855,138.645h12v2.16h-12.24L360.855,138.645z"/>
</g>
<g>
	<path fill="#E7AC35" d="M339.133,156.524h-12.72v-1.68l1.62-0.181c0.639-0.039,1.14-0.219,1.5-0.54
		c0.359-0.319,0.54-0.759,0.54-1.319l-5.641-14.221l-4.62-12l-10.439,26.221c0,0.521,0.17,0.94,0.51,1.26
		c0.34,0.32,0.85,0.521,1.53,0.6l1.439,0.24v1.62h-10.38v-1.62l0.9-0.24c0.8-0.079,1.5-0.289,2.1-0.63
		c0.601-0.339,1.16-0.85,1.68-1.529l13.62-32.82c0.08-0.24,0.181-0.35,0.301-0.33c0.119,0.021,0.219,0.13,0.3,0.33l13.2,32.82
		c0.519,0.68,1.1,1.199,1.739,1.56s1.38,0.6,2.221,0.72l0.6,0.061V156.524z M313.573,138.645h12v2.16h-12.24L313.573,138.645z"/>
</g>
<g>
	<path fill="#E7AC35" d="M291.911,156.524h-12.84v-1.56l1.561-0.36c0.6-0.08,1.08-0.271,1.439-0.57c0.36-0.3,0.62-0.669,0.78-1.109
		l-5.7-14.341l-4.62-12l-10.5,26.341c0.16,0.44,0.41,0.81,0.75,1.109s0.811,0.51,1.41,0.63l1.44,0.36v1.5h-10.5v-1.5l1.02-0.42
		c0.72-0.12,1.39-0.34,2.01-0.66c0.62-0.319,1.171-0.76,1.65-1.32l13.68-32.939c0.08-0.24,0.181-0.35,0.301-0.33
		c0.119,0.021,0.219,0.13,0.3,0.33l13.26,32.939c0.56,0.561,1.16,1.021,1.8,1.381c0.64,0.359,1.359,0.64,2.16,0.84l0.6,0.12V156.524
		z M266.292,138.645h12v2.16h-12.24L266.292,138.645z"/>
</g>
<g>
	<path fill="#E7AC35" d="M244.691,156.524h-12.9v-1.44l1.5-0.479c0.52-0.159,0.97-0.369,1.351-0.63
		c0.379-0.26,0.709-0.57,0.989-0.931l-5.76-14.46l-4.62-12l-10.56,26.46c0.279,0.36,0.6,0.681,0.96,0.961s0.8,0.5,1.32,0.659
		l1.38,0.42v1.44H207.79v-1.44l1.141-0.479c0.68-0.159,1.319-0.39,1.92-0.69c0.6-0.3,1.14-0.689,1.62-1.17l13.739-33.06
		c0.08-0.24,0.181-0.35,0.301-0.33c0.119,0.021,0.219,0.13,0.3,0.33l13.319,33.06c0.561,0.44,1.171,0.851,1.83,1.23
		c0.66,0.381,1.37,0.689,2.13,0.93l0.601,0.18V156.524z M219.011,138.645h12v2.16h-12.24L219.011,138.645z"/>
</g>
<g>
	<path fill="#E7AC35" d="M197.349,156.524h-12.84v-1.38l1.38-0.54c0.52-0.2,0.98-0.42,1.381-0.66c0.398-0.24,0.739-0.52,1.02-0.84
		l-5.7-14.521l-4.62-12l-10.5,26.521c0.279,0.28,0.609,0.561,0.99,0.84c0.38,0.28,0.811,0.501,1.29,0.66l1.32,0.6v1.32h-10.5v-1.32
		l1.14-0.6c0.64-0.24,1.239-0.5,1.8-0.78c0.56-0.279,1.141-0.619,1.74-1.02l13.68-33.12c0.08-0.24,0.181-0.35,0.301-0.33
		c0.119,0.021,0.219,0.13,0.3,0.33l13.26,33.12c0.68,0.44,1.34,0.83,1.98,1.17c0.639,0.34,1.299,0.63,1.979,0.87l0.6,0.3V156.524z
		 M171.73,138.645h12v2.16h-12.24L171.73,138.645z"/>
</g>
<g>
	<path fill="#E7AC35" d="M386.414,109.524h-12.72v-1.68l1.68-0.12c0.72-0.08,1.239-0.32,1.56-0.72s0.399-0.92,0.24-1.561
		l-5.46-13.86l-4.62-12l-10.26,25.801c-0.16,0.681-0.09,1.229,0.21,1.649s0.811,0.65,1.53,0.69l1.56,0.12v1.68h-10.38v-1.68
		l0.78-0.12c0.999-0.08,1.83-0.33,2.49-0.75c0.659-0.42,1.189-1.05,1.59-1.891l13.439-32.399c0.08-0.24,0.181-0.35,0.301-0.33
		c0.119,0.021,0.219,0.13,0.3,0.33l13.02,32.34c0.439,0.84,1,1.49,1.681,1.95c0.68,0.46,1.5,0.73,2.46,0.81l0.6,0.061V109.524z
		 M360.855,91.645h12v2.16h-12.24L360.855,91.645z"/>
</g>
<g>
	<path fill="#E7AC35" d="M339.133,109.524h-12.72v-1.62l1.56-0.24c0.68-0.079,1.189-0.309,1.53-0.689
		c0.339-0.38,0.47-0.87,0.39-1.47l-5.46-13.921l-4.62-12l-10.26,25.86c-0.08,0.6,0.039,1.101,0.36,1.5
		c0.319,0.4,0.819,0.641,1.5,0.72l1.439,0.301v1.56h-10.38v-1.56l0.9-0.301c0.879-0.12,1.64-0.379,2.279-0.779
		c0.64-0.399,1.2-0.98,1.681-1.74l13.439-32.46c0.08-0.24,0.181-0.35,0.301-0.33c0.119,0.021,0.219,0.13,0.3,0.33l13.02,32.399
		c0.52,0.801,1.119,1.421,1.8,1.86c0.68,0.44,1.46,0.72,2.341,0.84l0.6,0.12V109.524z M313.573,91.645h12v2.16h-12.24
		L313.573,91.645z"/>
</g>
<g>
	<path fill="#E7AC35" d="M291.911,109.524h-12.84v-1.5l1.5-0.42c0.601-0.12,1.08-0.36,1.44-0.72c0.359-0.36,0.579-0.78,0.66-1.261
		l-5.521-14.04l-4.62-12l-10.319,25.98c0.079,0.521,0.289,0.96,0.63,1.32c0.339,0.359,0.81,0.62,1.41,0.779l1.38,0.42v1.44h-10.5
		v-1.44l1.08-0.479c0.759-0.159,1.459-0.43,2.1-0.811c0.64-0.379,1.2-0.89,1.68-1.529l13.5-32.58c0.08-0.24,0.181-0.35,0.301-0.33
		c0.119,0.021,0.219,0.13,0.3,0.33l13.08,32.52c0.56,0.681,1.179,1.24,1.859,1.681c0.68,0.44,1.44,0.76,2.28,0.96l0.6,0.18V109.524z
		 M266.292,91.645h12v2.16h-12.24L266.292,91.645z"/>
</g>
<g>
	<path fill="#E7AC35" d="M244.691,109.524h-12.9v-1.38l1.44-0.54c0.52-0.2,0.969-0.459,1.35-0.78c0.38-0.319,0.67-0.68,0.87-1.08
		l-5.58-14.16l-4.62-12l-10.38,26.101c0.2,0.44,0.48,0.83,0.84,1.17c0.36,0.34,0.8,0.61,1.32,0.81l1.32,0.48v1.38H207.79v-1.38
		l1.2-0.54c0.72-0.2,1.39-0.489,2.01-0.87c0.62-0.38,1.17-0.83,1.65-1.35l13.56-32.7c0.08-0.24,0.181-0.35,0.301-0.33
		c0.119,0.021,0.219,0.13,0.3,0.33l13.14,32.64c0.56,0.561,1.189,1.061,1.89,1.5c0.7,0.44,1.45,0.801,2.25,1.08l0.601,0.24V109.524z
		 M219.011,91.645h12v2.16h-12.24L219.011,91.645z"/>
</g>
<g>
	<path fill="#E7AC35" d="M197.409,109.524h-12.9v-1.32l1.32-0.6c0.479-0.24,0.92-0.51,1.32-0.811c0.399-0.3,0.739-0.63,1.02-0.989
		l-5.58-14.221l-4.62-12l-10.38,26.16c0.279,0.36,0.609,0.711,0.99,1.05c0.38,0.341,0.789,0.61,1.229,0.811l1.261,0.66v1.26h-10.561
		v-1.26l1.261-0.66c0.68-0.279,1.31-0.6,1.89-0.96c0.579-0.36,1.149-0.76,1.71-1.2l13.56-32.76c0.08-0.24,0.181-0.35,0.301-0.33
		c0.119,0.021,0.219,0.13,0.3,0.33l13.14,32.7c0.64,0.52,1.31,0.989,2.01,1.409c0.7,0.421,1.41,0.791,2.13,1.11l0.601,0.3V109.524z
		 M171.73,91.645h12v2.16h-12.24L171.73,91.645z"/>
</g>
<g>
	<path fill="#231815" d="M116.394,432.239c-0.672-0.351-1.471-0.561-2.156-0.561c-0.924,0-1.682,0.435-1.682,1.232
		c0,0.519,0.336,0.854,1.416,1.429c1.246,0.673,2.031,1.345,2.031,2.802c0,1.905-1.43,3.18-3.756,3.18
		c-0.994,0-1.975-0.154-3.08-0.546l0.504-1.625c0.812,0.406,1.695,0.645,2.395,0.645c1.064,0,1.906-0.435,1.906-1.499
		c0-0.673-0.352-1.022-1.387-1.569c-1.443-0.771-1.977-1.414-1.977-2.577c0-1.765,1.43-2.941,3.643-2.941
		c0.91,0,1.988,0.182,2.633,0.462L116.394,432.239z"/>
	<path fill="#231815" d="M119.206,431.413l1.934-0.673l-0.463,2.199h1.723l-0.279,1.345h-1.725l-0.658,3.166
		c-0.055,0.28-0.084,0.49-0.084,0.616c0,0.434,0.225,0.7,0.826,0.7c0.238,0,0.506-0.042,0.771-0.126l-0.295,1.471
		c-0.393,0.112-0.756,0.14-1.051,0.14c-1.357,0-2.086-0.7-2.086-1.904c0-0.406,0.084-0.869,0.195-1.401l0.588-2.661h-1.357
		l0.279-1.345h1.359L119.206,431.413z"/>
	<path fill="#231815" d="M125.562,432.939c-0.055,0.364-0.139,0.841-0.252,1.331h0.029c0.602-0.938,1.344-1.499,2.283-1.499
		c0.266,0,0.461,0.028,0.629,0.07l-0.42,1.765c-0.223-0.084-0.406-0.112-0.672-0.112c-1.275,0-1.961,0.952-2.297,2.577l-0.631,3.082
		h-1.85l1.023-4.944c0.211-1.022,0.336-1.695,0.42-2.27H125.562z"/>
	<path fill="#231815" d="M132.507,439.005c-0.602,0.994-1.428,1.288-2.34,1.288c-1.33,0-2.311-0.798-2.311-2.101
		c0-2.157,2.381-2.563,4.133-2.563c0.195,0,0.631,0.014,0.91,0.028c0.041-0.211,0.041-0.351,0.041-0.477
		c0-0.7-0.545-1.064-1.512-1.064c-0.631,0-1.457,0.14-2.199,0.49l0.195-1.485c0.715-0.224,1.555-0.35,2.256-0.35
		c1.85,0,2.969,0.742,2.969,2.27c0,0.812-0.531,2.997-0.658,3.852c-0.055,0.336-0.125,0.854-0.125,1.261h-1.471
		c0.014-0.406,0.07-0.757,0.141-1.148H132.507z M132.114,436.792c-1.793,0-2.422,0.56-2.422,1.316c0,0.574,0.434,0.882,0.951,0.882
		c1.121,0,1.92-0.994,2.088-2.171C132.493,436.792,132.298,436.792,132.114,436.792z"/>
	<path fill="#231815" d="M138.919,432.939l-1.541,7.214h-1.85l1.527-7.214H138.919z M139.548,429.773l-0.393,1.779h-1.877
		l0.406-1.779H139.548z"/>
	<path fill="#231815" d="M139.546,441.189c0.799,0.379,1.652,0.575,2.34,0.575c1.471,0,2.283-0.757,2.662-2.858h-0.029
		c-0.447,0.701-1.105,1.191-2.17,1.191c-1.725,0-2.648-1.205-2.648-2.886c0-2.563,1.611-4.44,3.713-4.44
		c1.008,0,1.68,0.392,2.072,1.232h0.027l0.211-1.064h1.779l-1.43,6.794c-0.49,2.339-1.793,3.529-4.244,3.529
		c-0.867,0-1.848-0.195-2.773-0.546L139.546,441.189z M141.577,437.016c0,1.009,0.42,1.695,1.359,1.695
		c1.273,0,2.129-1.443,2.129-2.858c0-1.022-0.504-1.708-1.359-1.708C142.571,434.145,141.577,435.475,141.577,437.016z"/>
	<path fill="#231815" d="M151.519,432.085c-0.111,0.49-0.365,1.499-0.463,1.835h0.029c0.531-0.799,1.344-1.148,2.059-1.148
		c1.582,0,2.381,0.952,2.381,2.297c0,0.435-0.07,0.925-0.209,1.583l-0.758,3.502h-1.82l0.756-3.516
		c0.141-0.658,0.211-1.037,0.211-1.373c0-0.645-0.352-1.064-1.051-1.064c-0.756,0-1.262,0.448-1.625,1.12
		c-0.252,0.463-0.463,1.149-0.688,2.241l-0.545,2.592h-1.822l2.242-10.59h1.85L151.519,432.085z"/>
	<path fill="#231815" d="M158.812,431.413l1.934-0.673l-0.463,2.199h1.723l-0.279,1.345h-1.723l-0.658,3.166
		c-0.057,0.28-0.084,0.49-0.084,0.616c0,0.434,0.225,0.7,0.826,0.7c0.238,0,0.504-0.042,0.77-0.126l-0.293,1.471
		c-0.393,0.112-0.758,0.14-1.051,0.14c-1.359,0-2.088-0.7-2.088-1.904c0-0.406,0.084-0.869,0.197-1.401l0.588-2.661h-1.359
		l0.281-1.345h1.357L158.812,431.413z"/>
	<path fill="#231815" d="M164.105,437.071c-0.014,0.112-0.014,0.183-0.014,0.225c0,1.036,0.672,1.625,1.904,1.625
		c0.756,0,1.498-0.141,2.27-0.547l-0.252,1.513c-0.672,0.309-1.555,0.435-2.297,0.435c-2.27,0-3.432-1.219-3.432-2.997
		c0-2.452,1.525-4.553,4.131-4.553c1.807,0,2.816,0.925,2.816,2.703c0,0.477-0.057,0.995-0.182,1.597H164.105z M167.55,435.811
		c0.014-0.098,0.029-0.237,0.029-0.378c0-0.91-0.463-1.358-1.303-1.358c-0.953,0-1.709,0.63-1.99,1.736H167.55z"/>
	<path fill="#231815" d="M173.009,432.939c-0.057,0.364-0.141,0.841-0.252,1.331h0.027c0.604-0.938,1.346-1.499,2.283-1.499
		c0.266,0,0.463,0.028,0.631,0.07l-0.42,1.765c-0.225-0.084-0.406-0.112-0.672-0.112c-1.275,0-1.963,0.952-2.299,2.577l-0.629,3.082
		h-1.85l1.021-4.944c0.211-1.022,0.338-1.695,0.422-2.27H173.009z"/>
</g>
<g>
	<path fill="#231815" d="M69.269,387.294l3.88,0.826v-3.949l-3.88-0.841v-1.961l9.777,2.101v1.934l-4.286-0.896v3.95l4.286,0.91
		v1.947l-9.777-2.073V387.294z"/>
	<path fill="#231815" d="M75.964,379.231c0.112,0.014,0.183,0.014,0.225,0.014c1.036,0,1.625-0.672,1.625-1.905
		c0-0.756-0.141-1.498-0.547-2.269l1.513,0.252c0.309,0.672,0.435,1.555,0.435,2.297c0,2.27-1.219,3.432-2.997,3.432
		c-2.452,0-4.553-1.526-4.553-4.132c0-1.807,0.925-2.815,2.703-2.815c0.477,0,0.995,0.056,1.597,0.182V379.231z M74.703,375.785
		c-0.098-0.014-0.237-0.028-0.378-0.028c-0.91,0-1.358,0.463-1.358,1.303c0,0.953,0.63,1.709,1.736,1.989V375.785z"/>
	<path fill="#231815" d="M68.666,369.486l1.779,0.393v1.877l-1.779-0.406V369.486z M71.832,370.116l7.214,1.541v1.85l-7.214-1.527
		V370.116z"/>
	<path fill="#231815" d="M80.082,369.488c0.379-0.798,0.575-1.652,0.575-2.339c0-1.471-0.757-2.283-2.858-2.662v0.028
		c0.701,0.448,1.191,1.106,1.191,2.171c0,1.724-1.205,2.647-2.886,2.647c-2.563,0-4.44-1.61-4.44-3.712
		c0-1.009,0.392-1.681,1.232-2.073v-0.027l-1.064-0.21v-1.779l6.794,1.429c2.339,0.49,3.529,1.793,3.529,4.244
		c0,0.868-0.195,1.849-0.546,2.773L80.082,369.488z M75.908,367.457c1.009,0,1.695-0.42,1.695-1.358
		c0-1.274-1.443-2.129-2.858-2.129c-1.022,0-1.708,0.504-1.708,1.358C73.037,366.463,74.367,367.457,75.908,367.457z"/>
	<path fill="#231815" d="M70.978,357.517c0.49,0.111,1.499,0.364,1.835,0.462v-0.028c-0.799-0.532-1.148-1.345-1.148-2.059
		c0-1.583,0.952-2.382,2.297-2.382c0.435,0,0.925,0.07,1.583,0.211l3.502,0.756v1.821l-3.516-0.757
		c-0.658-0.14-1.037-0.21-1.373-0.21c-0.645,0-1.064,0.351-1.064,1.051c0,0.756,0.448,1.261,1.12,1.625
		c0.463,0.252,1.149,0.462,2.241,0.687l2.592,0.546v1.821l-10.59-2.241v-1.85L70.978,357.517z"/>
	<path fill="#231815" d="M70.306,350.223l-0.673-1.934l2.199,0.463v-1.723l1.345,0.279v1.724l3.166,0.658
		c0.28,0.056,0.49,0.084,0.616,0.084c0.434,0,0.7-0.225,0.7-0.826c0-0.238-0.042-0.505-0.126-0.771l1.471,0.294
		c0.112,0.393,0.14,0.757,0.14,1.051c0,1.358-0.7,2.087-1.904,2.087c-0.406,0-0.869-0.084-1.401-0.196l-2.661-0.588v1.358
		l-1.345-0.28v-1.358L70.306,350.223z"/>
</g>
<g>
	<path fill="#231815" d="M133.036,413.737c0,5.304-1.943,8.473-5.424,8.473c-3.505,0-5.448-3.192-5.448-8.617
		c0-5.568,1.896-8.616,5.616-8.616C131.189,404.977,133.036,408.192,133.036,413.737z M123.412,413.569
		c0,5.064,1.487,7.608,4.152,7.608c2.664,0,4.248-2.593,4.248-7.561c0-5.017-1.561-7.585-4.248-7.585
		C124.924,406.032,123.412,408.601,123.412,413.569z"/>
</g>
<g>
	<path fill="#231815" d="M103.992,383.291c0,5.304-1.943,8.473-5.424,8.473c-3.505,0-5.448-3.192-5.448-8.617
		c0-5.568,1.896-8.616,5.616-8.616C102.145,374.53,103.992,377.746,103.992,383.291z M94.368,383.123
		c0,5.064,1.487,7.608,4.152,7.608c2.664,0,4.248-2.593,4.248-7.561c0-5.017-1.561-7.585-4.248-7.585
		C95.88,375.586,94.368,378.154,94.368,383.123z"/>
</g>
<g>
	<path fill="#231815" d="M58.85,109.524h-1.152V98.483c0-1.392,0.048-3.672,0.096-4.513h-0.048
		c-0.576,0.553-1.536,1.368-2.112,1.824l-1.056,0.864l-0.624-0.768l3.864-3.121h1.032V109.524z"/>
	<path fill="#231815" d="M76.633,101.292c0,5.304-1.943,8.473-5.424,8.473c-3.505,0-5.448-3.192-5.448-8.617
		c0-5.568,1.896-8.616,5.616-8.616C74.785,92.531,76.633,95.747,76.633,101.292z M67.009,101.124c0,5.064,1.487,7.608,4.152,7.608
		c2.664,0,4.248-2.593,4.248-7.561c0-5.017-1.561-7.585-4.248-7.585C68.521,93.587,67.009,96.155,67.009,101.124z"/>
	<path fill="#231815" d="M90.313,101.292c0,5.304-1.943,8.473-5.424,8.473c-3.505,0-5.448-3.192-5.448-8.617
		c0-5.568,1.896-8.616,5.616-8.616C88.465,92.531,90.313,95.747,90.313,101.292z M80.689,101.124c0,5.064,1.487,7.608,4.152,7.608
		c2.664,0,4.248-2.593,4.248-7.561c0-5.017-1.561-7.585-4.248-7.585C82.2,93.587,80.689,96.155,80.689,101.124z"/>
	<path fill="#231815" d="M103.992,101.292c0,5.304-1.943,8.473-5.424,8.473c-3.505,0-5.448-3.192-5.448-8.617
		c0-5.568,1.896-8.616,5.616-8.616C102.145,92.531,103.992,95.747,103.992,101.292z M94.368,101.124
		c0,5.064,1.487,7.608,4.152,7.608c2.664,0,4.248-2.593,4.248-7.561c0-5.017-1.561-7.585-4.248-7.585
		C95.88,93.587,94.368,96.155,94.368,101.124z"/>
</g>
<g>
	<path fill="#231815" d="M388.726,421.971h-1.152V410.93c0-1.392,0.048-3.672,0.096-4.513h-0.048
		c-0.576,0.553-1.536,1.368-2.112,1.824l-1.056,0.864l-0.624-0.768l3.864-3.121h1.032V421.971z"/>
	<path fill="#231815" d="M406.509,413.738c0,5.304-1.943,8.473-5.424,8.473c-3.505,0-5.448-3.192-5.448-8.617
		c0-5.568,1.896-8.616,5.616-8.616C404.661,404.978,406.509,408.193,406.509,413.738z M396.885,413.57
		c0,5.064,1.487,7.608,4.152,7.608c2.664,0,4.248-2.593,4.248-7.561c0-5.017-1.561-7.585-4.248-7.585
		C398.397,406.033,396.885,408.602,396.885,413.57z"/>
	<path fill="#231815" d="M420.189,413.738c0,5.304-1.943,8.473-5.424,8.473c-3.505,0-5.448-3.192-5.448-8.617
		c0-5.568,1.896-8.616,5.616-8.616C418.341,404.978,420.189,408.193,420.189,413.738z M410.565,413.57
		c0,5.064,1.487,7.608,4.152,7.608c2.664,0,4.248-2.593,4.248-7.561c0-5.017-1.561-7.585-4.248-7.585
		C412.076,406.033,410.565,408.602,410.565,413.57z"/>
	<path fill="#231815" d="M433.868,413.738c0,5.304-1.943,8.473-5.424,8.473c-3.505,0-5.448-3.192-5.448-8.617
		c0-5.568,1.896-8.616,5.616-8.616C432.021,404.978,433.868,408.193,433.868,413.738z M424.244,413.57
		c0,5.064,1.487,7.608,4.152,7.608c2.664,0,4.248-2.593,4.248-7.561c0-5.017-1.561-7.585-4.248-7.585
		C425.756,406.033,424.244,408.602,424.244,413.57z"/>
</g>
</svg>
