<?xml version="1.0" encoding="utf-8"?>
<!-- Generator: Adobe Illustrator 22.0.1, SVG Export Plug-In . SVG Version: 6.00 Build 0)  -->
<svg version="1.1" id="レイヤー_1" xmlns="http://www.w3.org/2000/svg" xmlns:xlink="http://www.w3.org/1999/xlink" x="0px"
	 y="0px" viewBox="0 0 940.233 500" enable-background="new 0 0 940.233 500" xml:space="preserve">
<g>
	<polygon opacity="0.6" fill="none" stroke="#C8C9CA" stroke-width="0.78" stroke-miterlimit="10" points="225.528,252.888 
		85.873,172.258 185.28,114.865 324.936,195.495 	"/>
	<polyline fill="none" stroke="#888888" stroke-width="0.78" stroke-miterlimit="10" points="155.7,212.573 255.108,155.18 
		255.108,269.966 	"/>
	<polyline fill="none" stroke="#888888" stroke-width="0.78" stroke-miterlimit="10" points="155.7,212.573 155.7,327.359 
		255.108,269.966 	"/>
	<polygon opacity="0.6" fill="none" stroke="#C8C9CA" stroke-width="0.78" stroke-miterlimit="10" points="324.937,310.28 
		225.528,367.674 225.528,252.888 324.937,195.494 	"/>
	<polygon opacity="0.6" fill="none" stroke="#C8C9CA" stroke-width="0.78" stroke-miterlimit="10" points="185.282,229.65 
		85.873,287.044 85.873,172.258 185.282,114.864 	"/>
	
		<line fill="none" stroke="#888888" stroke-width="0.78" stroke-miterlimit="10" x1="205.404" y1="183.877" x2="205.404" y2="298.663"/>
	<g>
		<g>
			<rect x="175.252" y="217.278" fill="#FAFAFA" width="20.236" height="19.057"/>
		</g>
		<g opacity="0.5">
			<path fill="#DFA839" d="M194.383,235.23h-5.924v-1.685h0.28c0.393,0,1.207,0,1.6,0l-2.246-6.036l-2.668-7.216l-5.194,13.252
				c0.393,0,0.842,0,1.236,0h0.73v1.685h-5.84v-1.685h0.309c0.477,0,1.236,0,1.712,0l6.29-15.161c0.73,0,1.151,0,1.881,0
				l5.784,15.106c0.478,0,1.292,0,1.769,0h0.28V235.23z M181.721,226.863h6.485l0.533,1.684h-7.075L181.721,226.863z"/>
		</g>
	</g>
	<g>
		<g>
			<rect x="246.156" y="256.367" fill="#FAFAFA" width="19.31" height="19.608"/>
		</g>
		<g>
			<path fill="#231815" d="M264.361,274.869h-5.925v-0.842h0.842c0.393,0,0.814,0,1.207,0l-2.976-7.552l-2.162-5.615l-5.222,13.168
				c0.393,0,0.814,0,1.207,0h0.73v0.842h-4.801v-0.842h0.309c0.477,0,0.954,0,1.432,0l6.795-16.397c0.084-0.225,0.197-0.197,0.28,0
				l6.598,16.397c0.478,0,0.927,0,1.404,0h0.281V274.869z M252.428,266.503h5.615v1.011h-5.727L252.428,266.503z"/>
		</g>
		<g>
			<path fill="#DFA839" d="M264.361,274.869h-5.925v-0.842h0.842c0.393,0,0.814,0,1.207,0l-2.976-7.552l-2.162-5.615l-5.222,13.168
				c0.393,0,0.814,0,1.207,0h0.73v0.842h-4.801v-0.842h0.309c0.477,0,0.954,0,1.432,0l6.795-16.397c0.084-0.225,0.197-0.197,0.28,0
				l6.598,16.397c0.478,0,0.927,0,1.404,0h0.281V274.869z M252.428,266.503h5.615v1.011h-5.727L252.428,266.503z"/>
		</g>
	</g>
	<polyline opacity="0.6" fill="none" stroke="#C8C9CA" stroke-width="0.78" stroke-miterlimit="10" points="324.937,310.28 
		275.232,281.585 225.528,252.888 	"/>
	<g>
		<g>
			<rect x="196.452" y="284.842" fill="#FAFAFA" width="19.31" height="19.608"/>
		</g>
		<g>
			<path fill="#231815" d="M214.657,303.345h-5.925v-0.842h0.842c0.393,0,0.814,0,1.207,0l-2.976-7.552l-2.162-5.615l-5.222,13.168
				c0.393,0,0.814,0,1.207,0h0.73v0.842h-4.801v-0.842h0.309c0.477,0,0.954,0,1.432,0l6.795-16.397c0.084-0.225,0.197-0.197,0.28,0
				l6.598,16.397c0.478,0,0.927,0,1.404,0h0.281V303.345z M202.725,294.978h5.615v1.011h-5.727L202.725,294.978z"/>
		</g>
		<g>
			<path fill="#231815" d="M214.657,303.345h-5.925v-0.842h0.842c0.393,0,0.814,0,1.207,0l-2.976-7.552l-2.162-5.615l-5.222,13.168
				c0.393,0,0.814,0,1.207,0h0.73v0.842h-4.801v-0.842h0.309c0.477,0,0.954,0,1.432,0l6.795-16.397c0.084-0.225,0.197-0.197,0.28,0
				l6.598,16.397c0.478,0,0.927,0,1.404,0h0.281V303.345z M202.725,294.978h5.615v1.011h-5.727L202.725,294.978z"/>
		</g>
	</g>
	
		<line fill="none" stroke="#888888" stroke-width="0.78" stroke-miterlimit="10" x1="155.7" y1="269.966" x2="255.108" y2="212.573"/>
	<g>
		<g>
			<rect x="246.1" y="202.203" fill="#FAFAFA" width="19.421" height="19.608"/>
		</g>
		<g>
			<path fill="#231815" d="M264.416,220.706h-5.98v-0.702l0.702-0.197c0.393-0.112,0.786-0.252,1.179-0.365l-2.808-7.131
				l-2.162-5.615l-5.054,12.718c0.393,0.141,0.786,0.281,1.179,0.421l0.618,0.169v0.702h-4.885v-0.702l0.505-0.197
				c0.506-0.14,1.011-0.308,1.517-0.449l6.57-15.892c0.084-0.225,0.197-0.197,0.28,0l6.401,15.864
				c0.561,0.197,1.095,0.393,1.657,0.59l0.28,0.085V220.706z M252.428,212.339h5.615v1.011h-5.727L252.428,212.339z"/>
		</g>
		<g>
			<path fill="#231815" d="M264.416,220.706h-5.98v-0.702l0.702-0.197c0.393-0.112,0.786-0.252,1.179-0.365l-2.808-7.131
				l-2.162-5.615l-5.054,12.718c0.393,0.141,0.786,0.281,1.179,0.421l0.618,0.169v0.702h-4.885v-0.702l0.505-0.197
				c0.506-0.14,1.011-0.308,1.517-0.449l6.57-15.892c0.084-0.225,0.197-0.197,0.28,0l6.401,15.864
				c0.561,0.197,1.095,0.393,1.657,0.59l0.28,0.085V220.706z M252.428,212.339h5.615v1.011h-5.727L252.428,212.339z"/>
		</g>
	</g>
	<g>
		<g>
			<rect x="196.425" y="230.375" fill="#FAFAFA" width="19.366" height="19.608"/>
		</g>
		<g>
			<path fill="#231815" d="M214.685,248.878h-5.953v-0.786l0.759-0.085c0.477-0.056,0.87-0.225,1.095-0.477l-2.78-7.047
				l-2.162-5.615l-5.026,12.663c0.225,0.252,0.618,0.421,1.067,0.477l0.702,0.113v0.758h-4.857v-0.758l0.393-0.113
				c0.617-0.084,1.151-0.252,1.628-0.561l6.542-15.807c0.084-0.225,0.197-0.197,0.28,0l6.373,15.807
				c0.478,0.309,1.011,0.506,1.657,0.618l0.281,0.028V248.878z M202.725,240.511h5.615v1.011h-5.727L202.725,240.511z"/>
		</g>
		<g>
			<path fill="#E51373" d="M214.685,248.878h-5.953v-0.786l0.759-0.085c0.477-0.056,0.87-0.225,1.095-0.477l-2.78-7.047
				l-2.162-5.615l-5.026,12.663c0.225,0.252,0.618,0.421,1.067,0.477l0.702,0.113v0.758h-4.857v-0.758l0.393-0.113
				c0.617-0.084,1.151-0.252,1.628-0.561l6.542-15.807c0.084-0.225,0.197-0.197,0.28,0l6.373,15.807
				c0.478,0.309,1.011,0.506,1.657,0.618l0.281,0.028V248.878z M202.725,240.511h5.615v1.011h-5.727L202.725,240.511z"/>
		</g>
	</g>
	<polygon opacity="0.6" fill="none" stroke="#C8C9CA" stroke-width="0.78" stroke-miterlimit="10" points="225.528,367.674 
		85.873,287.044 85.873,172.258 225.528,252.888 	"/>
	<g>
		<g>
			<rect x="245.602" y="144.01" fill="#FAFAFA" width="19.534" height="19.608"/>
		</g>
		<g>
			<path fill="#231815" d="M264.031,162.512h-6.064v-0.561l0.561-0.365c0.393-0.253,0.786-0.506,1.179-0.759l-2.639-6.71
				l-2.162-5.615L250.02,160.8c0.366,0.28,0.759,0.533,1.124,0.814l0.533,0.365v0.533h-4.969v-0.533l0.674-0.393
				c0.533-0.309,1.066-0.618,1.6-0.927l6.373-15.386c0.084-0.225,0.197-0.197,0.28,0l6.177,15.358
				c0.646,0.393,1.292,0.759,1.938,1.152l0.28,0.168V162.512z M251.986,154.146h5.615v1.011h-5.727L251.986,154.146z"/>
		</g>
		<g>
			<path fill="#DFA839" d="M264.031,162.512h-6.064v-0.561l0.561-0.365c0.393-0.253,0.786-0.506,1.179-0.759l-2.639-6.71
				l-2.162-5.615L250.02,160.8c0.366,0.28,0.759,0.533,1.124,0.814l0.533,0.365v0.533h-4.969v-0.533l0.674-0.393
				c0.533-0.309,1.066-0.618,1.6-0.927l6.373-15.386c0.084-0.225,0.197-0.197,0.28,0l6.177,15.358
				c0.646,0.393,1.292,0.759,1.938,1.152l0.28,0.168V162.512z M251.986,154.146h5.615v1.011h-5.727L251.986,154.146z"/>
		</g>
	</g>
	<g>
		<g>
			<rect x="315.261" y="184.325" fill="#FAFAFA" width="19.731" height="19.608"/>
		</g>
		<g opacity="0.5">
			<path fill="#DFA839" d="M333.886,202.828h-5.644v-0.14l0.421-0.225c0.393-0.197,0.758-0.421,1.151-0.618l-2.92-7.412
				l-2.527-6.542l-5.756,13.954c0.477,0.225,0.926,0.421,1.404,0.646l0.477,0.197v0.14h-4.127v-0.14l0.618-0.253
				c0.477-0.197,0.983-0.393,1.459-0.59l6.739-16.257c0.084-0.225,0.197-0.197,0.28,0l6.542,16.257
				c0.449,0.197,0.927,0.421,1.376,0.618l0.505,0.225V202.828z M321.393,194.882h6.036v0.14h-6.092L321.393,194.882z"/>
		</g>
	</g>
	<g>
		<g>
			<rect x="196.396" y="172.509" fill="#FAFAFA" width="19.421" height="19.608"/>
		</g>
		<g>
			<path fill="#231815" d="M214.712,191.012h-5.98v-0.702l0.702-0.197c0.561-0.112,0.898-0.477,0.954-0.926l-2.583-6.57
				l-2.162-5.615l-4.829,12.157c0.056,0.478,0.393,0.842,0.954,0.983l0.646,0.169v0.702h-4.913v-0.702l0.505-0.197
				c0.73-0.14,1.32-0.505,1.769-1.095l6.318-15.246c0.084-0.225,0.197-0.197,0.28,0l6.121,15.218
				c0.505,0.646,1.151,1.039,1.937,1.236l0.28,0.085V191.012z M202.724,182.645h5.615v1.011h-5.727L202.724,182.645z"/>
		</g>
		<g>
			<path fill="#231815" d="M214.712,191.012h-5.98v-0.702l0.702-0.197c0.561-0.112,0.898-0.477,0.954-0.926l-2.583-6.57
				l-2.162-5.615l-4.829,12.157c0.056,0.478,0.393,0.842,0.954,0.983l0.646,0.169v0.702h-4.913v-0.702l0.505-0.197
				c0.73-0.14,1.32-0.505,1.769-1.095l6.318-15.246c0.084-0.225,0.197-0.197,0.28,0l6.121,15.218
				c0.505,0.646,1.151,1.039,1.937,1.236l0.28,0.085V191.012z M202.724,182.645h5.615v1.011h-5.727L202.724,182.645z"/>
		</g>
	</g>
	<g>
		<g>
			<rect x="146.086" y="201.435" fill="#FAFAFA" width="19.31" height="19.608"/>
		</g>
		<g>
			<path fill="#231815" d="M164.29,219.938h-5.925v-0.842h0.842c0.73,0,1.011-0.449,0.758-1.123l-2.527-6.43l-2.162-5.615
				l-4.773,12.017c-0.281,0.702,0.028,1.151,0.758,1.151h0.758v0.842h-4.829v-0.842h0.309c0.954,0,1.6-0.393,1.965-1.291
				l6.261-15.106c0.084-0.225,0.197-0.197,0.28,0l6.065,15.077c0.365,0.898,0.983,1.319,1.937,1.319h0.281V219.938z
				 M152.358,211.571h5.615v1.011h-5.727L152.358,211.571z"/>
		</g>
		<g>
			<path fill="#DFA839" d="M164.29,219.938h-5.925v-0.842h0.842c0.73,0,1.011-0.449,0.758-1.123l-2.527-6.43l-2.162-5.615
				l-4.773,12.017c-0.281,0.702,0.028,1.151,0.758,1.151h0.758v0.842h-4.829v-0.842h0.309c0.954,0,1.6-0.393,1.965-1.291
				l6.261-15.106c0.084-0.225,0.197-0.197,0.28,0l6.065,15.077c0.365,0.898,0.983,1.319,1.937,1.319h0.281V219.938z
				 M152.358,211.571h5.615v1.011h-5.727L152.358,211.571z"/>
		</g>
	</g>
	<g>
		<g>
			<rect x="216.234" y="239.844" fill="#FAFAFA" width="19.871" height="19.608"/>
		</g>
		<g opacity="0.3">
			<path fill="#DFA839" d="M234.999,258.347h-6.205v-0.14h0.421c1.152,0,1.629-0.702,1.207-1.797l-2.555-6.458l-2.527-6.542
				l-5.391,12.999c-0.449,1.095,0.056,1.797,1.207,1.797h0.309v0.14h-4.127v-0.14h0.056c1.151,0,1.881-0.506,2.33-1.572l6.43-15.527
				c0.084-0.225,0.197-0.197,0.28,0l6.233,15.527c0.421,1.066,1.151,1.572,2.302,1.572h0.028V258.347z M222.365,250.401h6.036v0.14
				h-6.092L222.365,250.401z"/>
		</g>
	</g>
	<g>
		<g>
			<rect x="146.085" y="312.875" fill="#FAFAFA" width="19.31" height="19.608"/>
		</g>
		<g>
			<path fill="#231815" d="M164.29,331.378h-5.925v-0.842h0.842c0.393,0,0.814,0,1.207,0l-2.976-7.552l-2.162-5.615l-5.222,13.168
				c0.393,0,0.814,0,1.207,0h0.73v0.842h-4.801v-0.842h0.309c0.477,0,0.954,0,1.432,0l6.795-16.397c0.084-0.225,0.197-0.197,0.28,0
				l6.598,16.397c0.478,0,0.927,0,1.404,0h0.281V331.378z M152.357,323.011h5.615v1.011h-5.727L152.357,323.011z"/>
		</g>
		<g>
			<path fill="#DFA839" d="M164.29,331.378h-5.925v-0.842h0.842c0.393,0,0.814,0,1.207,0l-2.976-7.552l-2.162-5.615l-5.222,13.168
				c0.393,0,0.814,0,1.207,0h0.73v0.842h-4.801v-0.842h0.309c0.477,0,0.954,0,1.432,0l6.795-16.397c0.084-0.225,0.197-0.197,0.28,0
				l6.598,16.397c0.478,0,0.927,0,1.404,0h0.281V331.378z M152.357,323.011h5.615v1.011h-5.727L152.357,323.011z"/>
		</g>
	</g>
	<g>
		<g>
			<rect x="146.749" y="256.588" fill="#FAFAFA" width="19.31" height="19.608"/>
		</g>
		<g>
			<path fill="#231815" d="M164.954,275.091h-5.925v-0.842h0.842c0.561,0,0.927-0.225,0.983-0.561l-2.751-6.991l-2.162-5.615
				l-4.998,12.578c0.056,0.365,0.421,0.59,0.983,0.59h0.758v0.842h-4.829v-0.842h0.309c0.73,0,1.291-0.197,1.712-0.646l6.514-15.751
				c0.084-0.225,0.197-0.197,0.28,0l6.345,15.723c0.421,0.449,0.955,0.673,1.657,0.673h0.281V275.091z M153.021,266.724h5.615v1.011
				h-5.727L153.021,266.724z"/>
		</g>
		<g>
			<path fill="#231815" d="M164.954,275.091h-5.925v-0.842h0.842c0.561,0,0.927-0.225,0.983-0.561l-2.751-6.991l-2.162-5.615
				l-4.998,12.578c0.056,0.365,0.421,0.59,0.983,0.59h0.758v0.842h-4.829v-0.842h0.309c0.73,0,1.291-0.197,1.712-0.646l6.514-15.751
				c0.084-0.225,0.197-0.197,0.28,0l6.345,15.723c0.421,0.449,0.955,0.673,1.657,0.673h0.281V275.091z M153.021,266.724h5.615v1.011
				h-5.727L153.021,266.724z"/>
		</g>
	</g>
	<g>
		<g>
			<rect x="315.702" y="295.319" fill="#FAFAFA" width="19.871" height="19.608"/>
		</g>
		<g opacity="0.5">
			<path fill="#DFA839" d="M334.468,313.821h-5.643v-0.14h0.28c0.393,0,1.095,0,1.488,0l-3.257-8.255l-2.527-6.542l-6.121,14.796
				c0.393,0,0.842,0,1.236,0h0.73v0.14h-3.847v-0.14h0.309c0.478,0,0.954,0,1.432,0l7.076-17.099c0.084-0.225,0.197-0.197,0.28,0
				l6.879,17.099c0.477,0,0.926,0,1.404,0h0.28V313.821z M321.834,305.876h6.036v0.14h-6.092L321.834,305.876z"/>
		</g>
	</g>
	<g>
		<g>
			<rect x="216.234" y="353.508" fill="#FAFAFA" width="19.871" height="19.608"/>
		</g>
		<g opacity="0.5">
			<path fill="#DFA839" d="M234.999,372.011h-5.643v-0.14h0.28c0.393,0,1.095,0,1.488,0l-3.257-8.255l-2.527-6.542l-6.121,14.796
				c0.393,0,0.842,0,1.236,0h0.73v0.14h-3.847v-0.14h0.308c0.478,0,0.954,0,1.432,0l7.076-17.099c0.084-0.225,0.197-0.197,0.28,0
				l6.879,17.099c0.477,0,0.926,0,1.404,0h0.28V372.011z M222.365,364.065h6.036v0.14h-6.092L222.365,364.065z"/>
		</g>
	</g>
	<g>
		<g>
			<rect x="75.99" y="274.476" fill="#FAFAFA" width="20.236" height="19.057"/>
		</g>
		<g opacity="0.5">
			<path fill="#DFA839" d="M95.121,292.427h-5.924v-1.685h0.28c0.393,0,1.207,0,1.6,0l-2.246-6.036l-2.668-7.216l-5.194,13.252
				c0.393,0,0.842,0,1.236,0h0.73v1.685h-5.84v-1.685h0.309c0.477,0,1.236,0,1.712,0l6.29-15.161c0.73,0,1.151,0,1.881,0
				l5.784,15.106c0.478,0,1.292,0,1.769,0h0.28V292.427z M82.459,284.061h6.485l0.533,1.684h-7.075L82.459,284.061z"/>
		</g>
	</g>
	<g>
		<g>
			<rect x="76.159" y="160.55" fill="#FAFAFA" width="20.152" height="19.057"/>
		</g>
		<g opacity="0.5">
			<path fill="#DFA839" d="M95.205,178.501h-5.925v-1.404h0.674c0.73,0,1.039-0.421,0.786-1.123l-1.909-5.194l-2.668-7.216
				l-4.857,12.41c-0.252,0.673,0.028,1.123,0.759,1.123h0.758v1.404h-5.559v-1.404h0.842c0.786,0,1.32-0.337,1.629-1.095
				l5.952-14.348c0.618,0,0.983,0,1.6,0l5.447,14.291c0.281,0.758,0.814,1.095,1.6,1.095h0.871V178.501z M82.459,170.135h6.485
				l0.533,1.404h-7.075L82.459,170.135z"/>
		</g>
	</g>
	<g>
		<g>
			<rect x="175.586" y="105.415" fill="#FAFAFA" width="20.012" height="19.057"/>
		</g>
		<g opacity="0.5">
			<path fill="#DFA839" d="M194.492,123.366h-5.925v-1.123l0.534-0.225c0.449-0.197,0.898-0.421,1.347-0.618l-2.134-5.756
				l-2.668-7.216l-5.082,12.971c0.478,0.197,0.927,0.393,1.404,0.59l0.562,0.253v1.123h-5.84v-1.123l0.646-0.253
				c0.449-0.197,0.926-0.393,1.376-0.59l6.177-14.881c0.73,0,1.151,0,1.881,0l5.672,14.825c0.505,0.197,1.039,0.421,1.544,0.618
				l0.506,0.225V123.366z M181.942,115h6.485l0.533,1.544h-7.075L181.942,115z"/>
		</g>
	</g>
	<polygon opacity="0.2" fill="#E7AC35" points="255.108,269.966 155.7,327.359 155.7,212.573 255.108,155.18 	"/>
</g>
<g>
	<g>
		<path fill="#231815" d="M863.989,80.718h-15.192v-2.16h2.16c0.912,0,1.548-0.264,1.908-0.792c0.36-0.527,0.372-1.225,0.036-2.088
			l-6.48-16.488l-5.544-14.4l-12.239,30.817c-0.338,0.912-0.338,1.632,0,2.16c0.335,0.529,0.983,0.792,1.943,0.792h1.944v2.16
			h-12.383v-2.16h0.791c1.248,0,2.279-0.264,3.096-0.792c0.816-0.527,1.464-1.368,1.944-2.52l16.056-38.736
			c0.096-0.288,0.217-0.42,0.361-0.396c0.143,0.025,0.262,0.156,0.36,0.396L858.3,75.174c0.479,1.152,1.127,2.005,1.944,2.556
			c0.816,0.553,1.823,0.829,3.023,0.829h0.721V80.718z M833.389,59.262h14.4v2.592H833.1L833.389,59.262z"/>
	</g>
	<g>
		<path fill="#231815" d="M523.851,80.718h-15.552v-1.44l1.44-0.936c0.527-0.335,1.044-0.659,1.548-0.971
			c0.504-0.312,0.996-0.635,1.477-0.971l-6.769-17.209l-5.544-14.4l-12.527,31.536c0.479,0.336,0.96,0.684,1.44,1.044
			c0.479,0.36,0.959,0.709,1.439,1.044l1.369,0.936v1.368h-12.744v-1.368l1.727-1.009c0.673-0.383,1.356-0.779,2.052-1.187
			c0.696-0.408,1.379-0.804,2.052-1.188l16.344-39.456c0.096-0.288,0.217-0.42,0.361-0.396c0.143,0.025,0.262,0.156,0.36,0.396
			l15.84,39.384c0.816,0.479,1.643,0.971,2.483,1.475c0.839,0.504,1.668,0.997,2.484,1.477l0.72,0.431V80.718z M492.964,59.262h14.4
			v2.592h-14.688L492.964,59.262z"/>
	</g>
	<g>
		<path fill="#231815" d="M523.564,419.117h-15.192v-2.16h2.16c0.527,0,1.044,0,1.548,0s1.02,0,1.548,0l-7.632-19.369l-5.544-14.4
			l-13.392,33.769c0.529,0,1.044,0,1.548,0c0.505,0,1.02,0,1.548,0h1.873v2.16h-12.312v-2.16h0.791c0.623,0,1.236,0,1.836,0
			c0.6,0,1.212,0,1.836,0l17.423-42.048c0.096-0.288,0.217-0.42,0.361-0.396c0.143,0.025,0.262,0.156,0.36,0.396l16.919,42.048
			c0.623,0,1.225,0,1.8,0c0.577,0,1.175,0,1.8,0h0.721V419.117z M492.964,397.661h14.4v2.592h-14.688L492.964,397.661z"/>
	</g>
	<g>
		<path fill="#231815" d="M863.989,419.117h-15.192v-2.16h2.16c0.527,0,1.044,0,1.548,0s1.02,0,1.548,0l-7.632-19.369l-5.544-14.4
			l-13.392,33.769c0.529,0,1.044,0,1.548,0c0.505,0,1.02,0,1.548,0h1.873v2.16h-12.312v-2.16h0.791c0.623,0,1.236,0,1.836,0
			s1.212,0,1.836,0l17.423-42.048c0.096-0.288,0.217-0.42,0.361-0.396c0.143,0.025,0.262,0.156,0.36,0.396l16.92,42.048
			c0.623,0,1.225,0,1.8,0c0.577,0,1.175,0,1.8,0h0.721V419.117z M833.389,397.661h14.4v2.592H833.1L833.389,397.661z"/>
	</g>
	<g>
		<path fill="#E7AC35" d="M807.251,419.117h-15.192v-2.16h2.16c0.527,0,1.044,0,1.548,0s1.02,0,1.548,0l-7.632-19.369l-5.544-14.4
			l-13.392,33.769c0.529,0,1.044,0,1.548,0c0.505,0,1.02,0,1.548,0h1.873v2.16h-12.312v-2.16h0.791c0.623,0,1.236,0,1.836,0
			c0.6,0,1.212,0,1.836,0l17.423-42.048c0.096-0.288,0.217-0.42,0.361-0.396c0.143,0.025,0.263,0.156,0.36,0.396l16.919,42.048
			c0.623,0,1.225,0,1.8,0c0.577,0,1.175,0,1.8,0h0.721V419.117z M776.651,397.661h14.4v2.592h-14.688L776.651,397.661z"/>
	</g>
	<g>
		<path fill="#E7AC35" d="M750.514,419.117h-15.192v-2.16h2.16c0.527,0,1.044,0,1.548,0s1.02,0,1.548,0l-7.632-19.369l-5.544-14.4
			l-13.392,33.769c0.529,0,1.044,0,1.548,0c0.505,0,1.02,0,1.548,0h1.873v2.16h-12.312v-2.16h0.791c0.623,0,1.236,0,1.836,0
			c0.6,0,1.212,0,1.836,0l17.423-42.048c0.096-0.288,0.217-0.42,0.361-0.396c0.143,0.025,0.263,0.156,0.36,0.396l16.919,42.048
			c0.623,0,1.225,0,1.8,0c0.577,0,1.175,0,1.8,0h0.721V419.117z M719.914,397.661h14.4v2.592h-14.688L719.914,397.661z"/>
	</g>
	<g>
		<path fill="#E7AC35" d="M693.776,419.117h-15.192v-2.16h2.16c0.527,0,1.044,0,1.548,0s1.02,0,1.548,0l-7.632-19.369l-5.544-14.4
			l-13.392,33.769c0.529,0,1.044,0,1.548,0c0.505,0,1.02,0,1.548,0h1.873v2.16h-12.312v-2.16h0.791c0.623,0,1.236,0,1.836,0
			c0.6,0,1.212,0,1.836,0l17.423-42.048c0.096-0.288,0.217-0.42,0.361-0.396c0.143,0.025,0.263,0.156,0.36,0.396l16.92,42.048
			c0.623,0,1.225,0,1.8,0c0.577,0,1.175,0,1.8,0h0.721V419.117z M663.176,397.661h14.4v2.592h-14.688L663.176,397.661z"/>
	</g>
	<g>
		<path fill="#E7AC35" d="M637.039,419.117h-15.192v-2.16h2.16c0.527,0,1.044,0,1.548,0s1.02,0,1.548,0l-7.632-19.369l-5.544-14.4
			l-13.392,33.769c0.529,0,1.044,0,1.548,0c0.505,0,1.02,0,1.548,0h1.873v2.16h-12.312v-2.16h0.791c0.623,0,1.236,0,1.836,0
			c0.6,0,1.212,0,1.836,0l17.423-42.048c0.096-0.288,0.217-0.42,0.361-0.396c0.143,0.025,0.263,0.156,0.36,0.396l16.92,42.048
			c0.623,0,1.225,0,1.8,0c0.577,0,1.175,0,1.8,0h0.721V419.117z M606.439,397.661h14.4v2.592H606.15L606.439,397.661z"/>
	</g>
	<g>
		<path fill="#E7AC35" d="M580.301,419.117h-15.192v-2.16h2.16c0.527,0,1.044,0,1.548,0s1.02,0,1.548,0l-7.632-19.369l-5.544-14.4
			l-13.392,33.769c0.529,0,1.044,0,1.548,0c0.505,0,1.02,0,1.548,0h1.873v2.16h-12.312v-2.16h0.791c0.623,0,1.236,0,1.836,0
			s1.212,0,1.836,0l17.423-42.048c0.096-0.288,0.217-0.42,0.361-0.396c0.143,0.025,0.262,0.156,0.36,0.396l16.92,42.048
			c0.623,0,1.225,0,1.8,0c0.577,0,1.175,0,1.8,0h0.721V419.117z M549.701,397.661h14.4v2.592h-14.688L549.701,397.661z"/>
	</g>
	<g>
		<path fill="#E7AC35" d="M523.635,362.717h-15.264v-2.016l2.016-0.217c0.527-0.047,1.044-0.095,1.548-0.144
			c0.504-0.047,1.02-0.095,1.548-0.143l-7.488-19.009l-5.544-14.4l-13.248,33.409c0.529,0.048,1.032,0.096,1.513,0.143
			c0.479,0.049,1.008,0.121,1.583,0.217l1.729,0.144v2.016h-12.384v-2.016l1.008-0.217c0.577-0.047,1.188-0.108,1.836-0.179
			c0.648-0.073,1.26-0.132,1.836-0.18l17.279-41.616c0.096-0.288,0.217-0.42,0.361-0.396c0.143,0.025,0.262,0.156,0.36,0.396
			l16.775,41.616c0.623,0.048,1.248,0.121,1.873,0.216c0.623,0.097,1.271,0.193,1.944,0.288l0.72,0.073V362.717z M492.964,341.261
			h14.4v2.592h-14.688L492.964,341.261z"/>
	</g>
	<g>
		<path fill="#E7AC35" d="M863.989,362.717h-15.192v-2.16h2.16c0.575,0,1.104-0.048,1.584-0.144c0.479-0.096,0.911-0.216,1.296-0.36
			l-7.417-18.865l-5.544-14.4L827.7,360.053c0.383,0.144,0.803,0.264,1.26,0.36c0.456,0.096,0.996,0.144,1.62,0.144h1.873v2.16
			h-12.312v-2.16h0.791c0.721,0,1.405-0.048,2.052-0.144c0.648-0.096,1.261-0.24,1.836-0.432l17.208-41.471
			c0.096-0.288,0.217-0.42,0.361-0.396c0.143,0.025,0.262,0.156,0.36,0.396l16.704,41.471c0.575,0.192,1.175,0.336,1.8,0.432
			c0.623,0.096,1.296,0.144,2.016,0.144h0.721V362.717z M833.389,341.261h14.4v2.592H833.1L833.389,341.261z"/>
	</g>
	<g>
		<path fill="#E7AC35" d="M807.251,362.717h-15.192v-2.088l2.087-0.072c0.623-0.048,1.177-0.108,1.657-0.18
			c0.479-0.072,0.911-0.155,1.296-0.252l-7.417-18.936l-5.544-14.4l-13.175,33.336c0.383,0.097,0.803,0.192,1.26,0.288
			c0.456,0.096,0.996,0.144,1.62,0.144l1.873,0.072v2.088h-12.312v-2.088l0.791-0.072c0.721-0.048,1.405-0.108,2.052-0.18
			c0.648-0.072,1.261-0.179,1.836-0.323l17.208-41.544c0.096-0.288,0.217-0.42,0.361-0.396c0.143,0.025,0.263,0.156,0.36,0.396
			l16.704,41.544c0.623,0.144,1.235,0.264,1.836,0.36c0.599,0.096,1.26,0.144,1.979,0.144l0.721,0.072V362.717z M776.651,341.261
			h14.4v2.592h-14.688L776.651,341.261z"/>
	</g>
	<g>
		<path fill="#E7AC35" d="M750.514,362.717h-15.192v-2.16h2.087c0.577,0,1.117-0.048,1.621-0.144s0.947-0.216,1.332-0.36
			l-7.417-18.865l-5.544-14.4l-13.175,33.265c0.383,0.144,0.816,0.252,1.296,0.323c0.479,0.073,1.031,0.132,1.656,0.18l1.8,0.072
			v2.088h-12.312v-2.088l0.864-0.072c0.671-0.048,1.32-0.108,1.944-0.18c0.623-0.072,1.247-0.204,1.872-0.396l17.208-41.471
			c0.096-0.288,0.217-0.42,0.361-0.396c0.143,0.025,0.263,0.156,0.36,0.396l16.704,41.471c0.623,0.192,1.247,0.336,1.872,0.432
			c0.623,0.096,1.271,0.144,1.944,0.144h0.721V362.717z M719.914,341.261h14.4v2.592h-14.688L719.914,341.261z"/>
	</g>
	<g>
		<path fill="#E7AC35" d="M693.776,362.717h-15.265v-2.088l2.16-0.144c0.529,0,1.032-0.047,1.513-0.144
			c0.479-0.095,0.96-0.168,1.44-0.216l-7.417-18.936l-5.544-14.4l-13.175,33.336c0.479,0.097,0.947,0.18,1.404,0.252
			c0.456,0.073,0.971,0.132,1.548,0.18l1.871,0.072v2.088h-12.383v-2.088l0.864-0.144c0.623,0,1.26-0.047,1.908-0.144
			c0.648-0.095,1.283-0.191,1.908-0.287l17.208-41.544c0.096-0.288,0.217-0.42,0.361-0.396c0.143,0.025,0.263,0.156,0.36,0.396
			l16.704,41.544c0.623,0.144,1.247,0.252,1.872,0.323c0.623,0.073,1.271,0.132,1.944,0.18l0.721,0.072V362.717z M663.176,341.261
			h14.4v2.592h-14.688L663.176,341.261z"/>
	</g>
	<g>
		<path fill="#E7AC35" d="M637.11,362.717h-15.264v-2.016l2.087-0.144c0.479-0.096,0.973-0.168,1.477-0.217
			c0.504-0.047,1.02-0.095,1.548-0.143l-7.488-19.009l-5.544-14.4l-13.248,33.409c0.529,0.048,1.032,0.108,1.513,0.179
			c0.479,0.073,0.983,0.132,1.512,0.18l1.8,0.072v2.088h-12.384v-2.088l0.936-0.072c0.672-0.048,1.32-0.12,1.944-0.217
			c0.623-0.095,1.223-0.168,1.8-0.216l17.279-41.616c0.096-0.288,0.217-0.42,0.361-0.396c0.143,0.025,0.263,0.156,0.36,0.396
			l16.775,41.616c0.577,0.048,1.175,0.121,1.8,0.216c0.623,0.097,1.296,0.193,2.017,0.288l0.719,0.073V362.717z M606.439,341.261
			h14.4v2.592H606.15L606.439,341.261z"/>
	</g>
	<g>
		<path fill="#E7AC35" d="M580.301,362.717h-15.192v-2.088l2.087-0.072c0.479-0.048,0.973-0.108,1.477-0.18
			c0.504-0.072,0.996-0.155,1.477-0.252l-7.417-18.936l-5.544-14.4l-13.175,33.336c0.479,0.048,0.96,0.121,1.44,0.216
			c0.479,0.097,0.983,0.144,1.512,0.144l1.8,0.144v2.088h-12.312v-2.088l0.864-0.072c0.672-0.048,1.32-0.12,1.944-0.217
			c0.623-0.095,1.247-0.191,1.871-0.287l17.208-41.544c0.096-0.288,0.217-0.42,0.361-0.396c0.143,0.025,0.262,0.156,0.36,0.396
			l16.704,41.544c0.623,0.144,1.26,0.252,1.908,0.323c0.648,0.073,1.283,0.132,1.908,0.18l0.721,0.072V362.717z M549.701,341.261
			h14.4v2.592h-14.688L549.701,341.261z"/>
	</g>
	<g>
		<path fill="#E7AC35" d="M523.635,306.317h-15.264v-1.944l1.871-0.288c0.577-0.095,1.116-0.191,1.621-0.287
			c0.504-0.096,0.995-0.24,1.475-0.432l-7.344-18.577l-5.544-14.4l-13.104,32.977c0.479,0.144,0.973,0.277,1.477,0.396
			c0.504,0.121,1.02,0.229,1.548,0.323l1.656,0.361v1.871h-12.384v-1.871l1.08-0.361c0.623-0.144,1.247-0.275,1.871-0.396
			c0.623-0.118,1.271-0.275,1.944-0.468l17.064-41.112c0.096-0.288,0.217-0.42,0.361-0.396c0.143,0.025,0.262,0.156,0.36,0.396
			l16.56,41.112c0.72,0.192,1.404,0.373,2.052,0.54c0.648,0.169,1.308,0.323,1.98,0.468l0.72,0.144V306.317z M492.964,284.861h14.4
			v2.592h-14.688L492.964,284.861z"/>
	</g>
	<g>
		<path fill="#E7AC35" d="M863.989,306.317h-15.192v-2.16h2.16c0.671,0,1.235-0.083,1.692-0.252c0.456-0.168,0.803-0.42,1.044-0.756
			l-7.273-18.361l-5.544-14.4l-13.031,32.761c0.239,0.336,0.587,0.588,1.044,0.756c0.455,0.169,1.018,0.252,1.691,0.252h1.873v2.16
			h-12.312v-2.16h0.791c0.816,0,1.56-0.083,2.232-0.252c0.671-0.168,1.296-0.469,1.873-0.9l16.991-40.896
			c0.096-0.288,0.217-0.42,0.361-0.396c0.143,0.025,0.262,0.156,0.36,0.396l16.488,40.896c0.575,0.384,1.187,0.673,1.835,0.864
			c0.648,0.192,1.379,0.288,2.196,0.288h0.721V306.317z M833.389,284.861h14.4v2.592H833.1L833.389,284.861z"/>
	</g>
	<g>
		<path fill="#E7AC35" d="M807.323,306.317h-15.264v-2.088l2.087-0.071c0.673-0.048,1.236-0.144,1.692-0.288
			c0.456-0.144,0.852-0.36,1.188-0.648l-7.344-18.432l-5.544-14.4l-13.104,32.832c0.335,0.288,0.731,0.517,1.188,0.684
			c0.456,0.169,0.996,0.252,1.62,0.252l1.873,0.071v2.088h-12.384v-2.088l0.864-0.071c0.816-0.048,1.56-0.144,2.232-0.288
			c0.672-0.144,1.271-0.407,1.8-0.792l17.064-40.968c0.096-0.288,0.217-0.42,0.361-0.396c0.143,0.025,0.263,0.156,0.36,0.396
			l16.56,40.968c0.575,0.288,1.188,0.54,1.836,0.756c0.648,0.217,1.379,0.349,2.196,0.396h0.72V306.317z M776.651,284.861h14.4
			v2.592h-14.688L776.651,284.861z"/>
	</g>
	<g>
		<path fill="#E7AC35" d="M750.514,306.317h-15.192v-2.088l2.016-0.071c0.671-0.048,1.248-0.144,1.729-0.288
			c0.479-0.144,0.864-0.36,1.152-0.648l-7.273-18.432l-5.544-14.4l-13.031,32.832c0.287,0.241,0.672,0.444,1.152,0.612
			c0.479,0.169,1.031,0.252,1.656,0.252l1.8,0.217v2.016h-12.312v-2.016l0.864-0.144c0.768-0.096,1.475-0.217,2.123-0.36
			c0.648-0.144,1.284-0.384,1.909-0.721l16.991-40.968c0.096-0.288,0.217-0.42,0.361-0.396c0.143,0.025,0.263,0.156,0.36,0.396
			l16.488,40.968c0.671,0.336,1.32,0.588,1.943,0.756c0.623,0.169,1.32,0.277,2.088,0.325l0.721,0.071V306.317z M719.914,284.861
			h14.4v2.592h-14.688L719.914,284.861z"/>
	</g>
	<g>
		<path fill="#E7AC35" d="M693.848,306.317h-15.336v-2.016l2.088-0.217c0.577-0.047,1.104-0.144,1.584-0.287
			c0.479-0.144,0.935-0.312,1.368-0.504l-7.344-18.505l-5.544-14.4l-13.104,32.905c0.432,0.24,0.888,0.421,1.369,0.539
			c0.479,0.121,1.008,0.229,1.583,0.325l1.8,0.144v2.016h-12.456v-2.016l1.008-0.217c0.671-0.047,1.344-0.144,2.017-0.287
			c0.671-0.144,1.296-0.361,1.871-0.648l17.064-41.04c0.096-0.288,0.217-0.42,0.361-0.396c0.143,0.025,0.263,0.156,0.36,0.396
			l16.56,41.04c0.623,0.24,1.26,0.456,1.908,0.648c0.648,0.192,1.356,0.336,2.125,0.431l0.72,0.073V306.317z M663.176,284.861h14.4
			v2.592h-14.688L663.176,284.861z"/>
	</g>
	<g>
		<path fill="#E7AC35" d="M637.11,306.317h-15.336v-1.944l2.088-0.288c0.527-0.095,1.044-0.203,1.548-0.323
			c0.504-0.12,0.971-0.252,1.404-0.396l-7.344-18.577l-5.544-14.4l-13.104,32.977c0.432,0.192,0.9,0.349,1.404,0.468
			c0.504,0.121,1.02,0.229,1.548,0.325l1.8,0.144v2.016h-12.456v-2.016l1.008-0.217c0.672-0.047,1.332-0.144,1.98-0.287
			c0.648-0.144,1.283-0.335,1.908-0.577l17.064-41.112c0.096-0.288,0.217-0.42,0.361-0.396c0.143,0.025,0.263,0.156,0.36,0.396
			l16.56,41.112c0.623,0.192,1.271,0.384,1.944,0.577c0.672,0.192,1.368,0.336,2.088,0.431l0.719,0.144V306.317z M606.439,284.861
			h14.4v2.592H606.15L606.439,284.861z"/>
	</g>
	<g>
		<path fill="#E7AC35" d="M580.373,306.317h-15.264v-1.944l1.944-0.216c0.527-0.144,1.043-0.264,1.548-0.36
			c0.504-0.096,0.995-0.24,1.475-0.432l-7.344-18.577l-5.544-14.4l-13.104,32.977c0.479,0.144,0.973,0.288,1.477,0.432
			c0.504,0.143,0.995,0.24,1.475,0.287l1.729,0.288v1.944H536.38v-1.944l1.008-0.216c0.721-0.144,1.379-0.288,1.98-0.432
			c0.6-0.144,1.235-0.312,1.908-0.504l17.064-41.112c0.096-0.288,0.217-0.42,0.361-0.396c0.143,0.025,0.262,0.156,0.36,0.396
			l16.56,41.112c0.672,0.192,1.332,0.373,1.98,0.54c0.648,0.169,1.331,0.323,2.052,0.468l0.72,0.144V306.317z M549.701,284.861h14.4
			v2.592h-14.688L549.701,284.861z"/>
	</g>
	<g>
		<path fill="#E7AC35" d="M523.707,249.918h-15.335v-1.8l1.8-0.432c0.527-0.191,1.044-0.36,1.548-0.504
			c0.504-0.144,0.995-0.312,1.475-0.504l-7.2-18.288l-5.544-14.4l-12.96,32.688c0.479,0.144,0.973,0.313,1.477,0.504
			c0.504,0.192,0.995,0.36,1.475,0.504l1.584,0.432v1.8h-12.456v-1.8l1.223-0.432c0.671-0.191,1.332-0.396,1.98-0.612
			s1.283-0.42,1.908-0.612l16.92-40.752c0.096-0.288,0.217-0.42,0.361-0.396c0.143,0.025,0.262,0.156,0.36,0.396l16.416,40.752
			c0.672,0.24,1.368,0.48,2.088,0.72c0.72,0.241,1.44,0.48,2.16,0.721l0.72,0.216V249.918z M492.964,228.462h14.4v2.592h-14.688
			L492.964,228.462z"/>
	</g>
	<g>
		<path fill="#E7AC35" d="M863.989,249.919h-15.192v-2.16h2.16c0.72,0,1.296-0.132,1.727-0.396c0.432-0.264,0.696-0.612,0.792-1.044
			l-7.056-17.929l-5.544-14.4l-12.816,32.329c0.096,0.432,0.36,0.78,0.792,1.044c0.431,0.264,1.008,0.396,1.727,0.396h1.873v2.16
			h-12.312v-2.16h0.791c0.912,0,1.729-0.132,2.448-0.396c0.721-0.264,1.344-0.684,1.873-1.26l16.775-40.392
			c0.096-0.288,0.217-0.42,0.361-0.396c0.143,0.025,0.262,0.156,0.36,0.396l16.271,40.392c0.527,0.575,1.14,0.996,1.836,1.26
			c0.695,0.264,1.5,0.396,2.412,0.396h0.721V249.919z M833.389,228.463h14.4v2.592H833.1L833.389,228.463z"/>
	</g>
	<g>
		<path fill="#E7AC35" d="M807.323,249.919h-15.264v-2.088l2.087-0.071c0.721-0.048,1.296-0.191,1.729-0.432
			c0.432-0.239,0.744-0.551,0.936-0.936l-7.129-18l-5.544-14.4l-12.887,32.4c0.191,0.386,0.504,0.709,0.935,0.973
			c0.432,0.264,0.983,0.396,1.656,0.396l1.873,0.071v2.088h-12.384v-2.088l0.864-0.071c0.912-0.048,1.729-0.204,2.448-0.469
			c0.721-0.262,1.32-0.635,1.8-1.116l16.848-40.464c0.096-0.288,0.217-0.42,0.361-0.396c0.143,0.025,0.263,0.156,0.36,0.396
			l16.344,40.464c0.527,0.48,1.139,0.853,1.835,1.116c0.696,0.265,1.5,0.445,2.413,0.54h0.72V249.919z M776.651,228.463h14.4v2.592
			h-14.688L776.651,228.463z"/>
	</g>
	<g>
		<path fill="#E7AC35" d="M750.514,249.919h-15.192v-2.088l2.016-0.144c0.671,0,1.235-0.118,1.692-0.36
			c0.456-0.239,0.779-0.551,0.971-0.936l-7.056-18l-5.544-14.4l-12.816,32.4c0.191,0.336,0.516,0.625,0.971,0.865
			c0.456,0.24,1.02,0.384,1.692,0.431l1.729,0.217v2.016h-12.312v-2.016l0.935-0.217c0.768-0.047,1.5-0.191,2.196-0.431
			c0.696-0.24,1.356-0.6,1.98-1.08l16.775-40.464c0.096-0.288,0.217-0.42,0.361-0.396c0.143,0.025,0.263,0.156,0.36,0.396
			l16.271,40.464c0.623,0.529,1.284,0.913,1.98,1.152c0.695,0.241,1.451,0.384,2.268,0.432l0.721,0.071V249.919z M719.914,228.463
			h14.4v2.592h-14.688L719.914,228.463z"/>
	</g>
	<g>
		<path fill="#E7AC35" d="M693.848,249.919h-15.336v-2.016l2.017-0.217c0.622-0.047,1.163-0.191,1.62-0.431
			c0.456-0.24,0.852-0.504,1.188-0.792l-7.129-18.073l-5.544-14.4l-12.887,32.473c0.335,0.336,0.731,0.601,1.187,0.792
			c0.456,0.192,0.996,0.36,1.621,0.504l1.727,0.216v1.944h-12.456v-1.944l1.08-0.288c0.72-0.095,1.427-0.252,2.123-0.468
			c0.696-0.216,1.332-0.54,1.908-0.971l16.848-40.536c0.096-0.288,0.217-0.42,0.361-0.396c0.143,0.025,0.263,0.156,0.36,0.396
			l16.344,40.536c0.622,0.431,1.283,0.78,1.979,1.043c0.696,0.265,1.452,0.445,2.269,0.54l0.72,0.073V249.919z M663.176,228.463
			h14.4v2.592h-14.688L663.176,228.463z"/>
	</g>
	<g>
		<path fill="#E7AC35" d="M637.182,249.919h-15.408v-1.871l2.017-0.361c0.527-0.144,1.031-0.312,1.512-0.504
			c0.479-0.191,0.936-0.383,1.368-0.575l-7.2-18.217l-5.544-14.4l-12.96,32.617c0.432,0.24,0.888,0.457,1.368,0.648
			c0.479,0.192,0.984,0.36,1.513,0.504l1.727,0.216v1.944h-12.527v-1.944l1.152-0.288c0.72-0.095,1.427-0.262,2.123-0.504
			c0.696-0.239,1.308-0.504,1.836-0.792l16.919-40.679c0.096-0.288,0.217-0.42,0.361-0.396c0.143,0.025,0.263,0.156,0.36,0.396
			l16.416,40.679c0.577,0.288,1.225,0.565,1.944,0.829c0.719,0.265,1.487,0.492,2.304,0.684l0.72,0.144V249.919z M606.439,228.463
			h14.4v2.592H606.15L606.439,228.463z"/>
	</g>
	<g>
		<path fill="#E7AC35" d="M580.373,249.919h-15.336v-1.871l1.944-0.361c0.527-0.144,1.031-0.312,1.512-0.504
			c0.479-0.191,0.936-0.383,1.369-0.575l-7.128-18.217l-5.544-14.4l-12.887,32.617c0.431,0.192,0.887,0.396,1.368,0.612
			c0.479,0.216,0.96,0.373,1.44,0.468l1.727,0.361v1.871H536.38v-1.871l1.081-0.361c0.719-0.144,1.404-0.335,2.052-0.575
			c0.648-0.24,1.307-0.479,1.979-0.721l16.848-40.679c0.096-0.288,0.217-0.42,0.361-0.396c0.143,0.025,0.262,0.156,0.36,0.396
			l16.344,40.679c0.672,0.336,1.368,0.613,2.087,0.829c0.721,0.216,1.44,0.421,2.161,0.612l0.72,0.217V249.919z M549.701,228.463
			h14.4v2.592h-14.688L549.701,228.463z"/>
	</g>
	<g>
		<path fill="#E7AC35" d="M523.779,193.518h-15.48v-1.656l1.729-0.648c0.479-0.24,0.971-0.468,1.475-0.684
			c0.504-0.216,1.02-0.42,1.548-0.612l-7.056-17.929l-5.544-14.4l-12.816,32.329c0.527,0.192,1.031,0.408,1.512,0.648
			c0.479,0.24,0.96,0.48,1.44,0.72l1.584,0.577v1.656h-12.673v-1.656l1.44-0.648c0.672-0.24,1.343-0.504,2.016-0.792
			c0.673-0.288,1.32-0.551,1.944-0.792l16.704-40.32c0.096-0.288,0.217-0.42,0.361-0.396c0.143,0.025,0.262,0.156,0.36,0.396
			l16.2,40.32c0.719,0.288,1.464,0.601,2.231,0.936c0.768,0.336,1.536,0.673,2.304,1.008l0.721,0.288V193.518z M492.964,172.062
			h14.4v2.592h-14.688L492.964,172.062z"/>
	</g>
	<g>
		<path fill="#E7AC35" d="M863.989,193.519h-15.192v-2.16h2.16c0.768,0,1.356-0.18,1.764-0.54c0.408-0.36,0.587-0.829,0.54-1.404
			l-6.84-17.425l-5.544-14.4l-12.6,31.825c-0.048,0.575,0.12,1.044,0.504,1.404c0.384,0.36,0.983,0.54,1.8,0.54h1.944v2.16h-12.383
			v-2.16h0.791c1.056,0,1.956-0.18,2.7-0.54c0.744-0.36,1.379-0.923,1.909-1.692l16.487-39.816c0.096-0.288,0.217-0.42,0.361-0.396
			c0.143,0.025,0.262,0.156,0.36,0.396l15.983,39.816c0.529,0.769,1.164,1.332,1.909,1.692c0.743,0.36,1.62,0.54,2.627,0.54h0.721
			V193.519z M833.389,172.063h14.4v2.592H833.1L833.389,172.063z"/>
	</g>
	<g>
		<path fill="#E7AC35" d="M807.323,193.519h-15.264v-2.088l2.087-0.071c0.721-0.048,1.296-0.24,1.729-0.577
			c0.432-0.335,0.672-0.766,0.72-1.296l-6.912-17.496l-5.544-14.4l-12.671,31.896c0.047,0.53,0.275,0.961,0.684,1.296
			c0.407,0.336,0.995,0.529,1.764,0.577l1.872,0.071v2.088h-12.456v-2.088l0.936-0.071c1.008-0.048,1.871-0.252,2.592-0.612
			c0.72-0.361,1.343-0.875,1.872-1.548l16.56-39.888c0.096-0.288,0.217-0.42,0.361-0.396c0.143,0.025,0.263,0.156,0.36,0.396
			l16.056,39.888c0.527,0.673,1.164,1.187,1.908,1.548c0.744,0.36,1.62,0.588,2.628,0.683h0.72V193.519z M776.651,172.063h14.4
			v2.592h-14.688L776.651,172.063z"/>
	</g>
	<g>
		<path fill="#E7AC35" d="M750.585,193.519h-15.264v-2.016l1.944-0.217c0.719-0.047,1.296-0.227,1.727-0.539
			c0.432-0.312,0.721-0.708,0.864-1.188l-6.912-17.569l-5.544-14.4l-12.672,31.969c0.144,0.431,0.42,0.817,0.827,1.152
			c0.408,0.336,0.973,0.529,1.692,0.575l1.8,0.288v1.944h-12.456v-1.944l1.008-0.288c0.912-0.095,1.729-0.299,2.448-0.612
			c0.721-0.312,1.369-0.779,1.944-1.404l16.56-39.96c0.096-0.288,0.217-0.42,0.361-0.396c0.143,0.025,0.263,0.156,0.36,0.396
			l16.056,39.96c0.623,0.625,1.307,1.116,2.052,1.477c0.743,0.36,1.571,0.588,2.484,0.683l0.72,0.073V193.519z M719.914,172.063
			h14.4v2.592h-14.688L719.914,172.063z"/>
	</g>
	<g>
		<path fill="#E7AC35" d="M693.848,193.519h-15.336v-1.944l1.944-0.36c0.623-0.047,1.164-0.227,1.621-0.54
			c0.455-0.312,0.803-0.659,1.043-1.044l-6.912-17.64l-5.544-14.4l-12.672,32.04c0.239,0.386,0.575,0.721,1.008,1.008
			c0.432,0.288,0.983,0.504,1.656,0.648l1.729,0.361v1.871h-12.529v-1.871l1.152-0.432c0.768-0.096,1.512-0.299,2.232-0.612
			c0.72-0.312,1.391-0.731,2.016-1.261l16.56-40.031c0.096-0.288,0.217-0.42,0.361-0.396c0.143,0.025,0.263,0.156,0.36,0.396
			l16.056,40.031c0.671,0.577,1.379,1.034,2.123,1.369c0.744,0.336,1.548,0.575,2.413,0.72l0.72,0.144V193.519z M663.176,172.063
			h14.4v2.592h-14.688L663.176,172.063z"/>
	</g>
	<g>
		<path fill="#E7AC35" d="M637.182,193.519h-15.408v-1.8l1.873-0.432c0.575-0.191,1.103-0.42,1.583-0.683
			c0.479-0.264,0.888-0.54,1.225-0.829l-6.984-17.784l-5.544-14.4l-12.744,32.184c0.336,0.288,0.731,0.577,1.188,0.864
			c0.456,0.288,0.973,0.504,1.548,0.648l1.729,0.432v1.8h-12.6v-1.8l1.223-0.432c0.816-0.191,1.571-0.443,2.269-0.756
			c0.695-0.312,1.331-0.659,1.908-1.044l16.631-40.175c0.096-0.288,0.217-0.42,0.361-0.396c0.143,0.025,0.263,0.156,0.36,0.396
			l16.127,40.175c0.671,0.432,1.379,0.817,2.125,1.152c0.743,0.336,1.548,0.625,2.412,0.865l0.72,0.216V193.519z M606.439,172.063
			h14.4v2.592H606.15L606.439,172.063z"/>
	</g>
	<g>
		<path fill="#E7AC35" d="M580.444,193.519h-15.408v-1.8l1.8-0.432c0.529-0.191,1.044-0.42,1.548-0.683s0.948-0.54,1.332-0.829
			l-6.984-17.784l-5.544-14.4l-12.744,32.184c0.384,0.288,0.816,0.565,1.296,0.829c0.479,0.264,0.983,0.492,1.513,0.683l1.656,0.504
			v1.729h-12.6v-1.729l1.296-0.504c0.766-0.239,1.475-0.504,2.123-0.791c0.648-0.288,1.308-0.623,1.98-1.009l16.631-40.175
			c0.096-0.288,0.217-0.42,0.361-0.396c0.143,0.025,0.262,0.156,0.36,0.396l16.127,40.175c0.721,0.432,1.464,0.817,2.232,1.152
			c0.768,0.336,1.535,0.625,2.304,0.865l0.719,0.216V193.519z M549.701,172.063h14.4v2.592h-14.688L549.701,172.063z"/>
	</g>
	<g>
		<path fill="#E7AC35" d="M523.779,137.118h-15.48v-1.584l1.584-0.792c0.527-0.239,1.044-0.491,1.548-0.756
			c0.504-0.263,0.996-0.564,1.475-0.9l-6.912-17.496l-5.544-14.4l-12.671,31.896c0.479,0.288,0.96,0.577,1.44,0.865
			c0.479,0.287,0.983,0.575,1.512,0.864l1.44,0.792v1.512h-12.673v-1.512l1.584-0.865c0.623-0.287,1.271-0.599,1.944-0.935
			c0.671-0.335,1.368-0.696,2.088-1.08l16.487-39.816c0.096-0.288,0.217-0.42,0.361-0.396c0.143,0.025,0.262,0.156,0.36,0.396
			l15.983,39.816c0.816,0.432,1.621,0.853,2.413,1.26c0.792,0.409,1.572,0.805,2.339,1.188l0.721,0.36V137.118z M492.964,115.662
			h14.4v2.592h-14.688L492.964,115.662z"/>
	</g>
	<g>
		<path fill="#E7AC35" d="M863.989,137.118h-15.192v-2.16h2.16c0.864,0,1.487-0.217,1.871-0.648c0.384-0.432,0.479-1.031,0.288-1.8
			l-6.696-16.921l-5.544-14.4L828.42,132.51c-0.192,0.769-0.108,1.368,0.252,1.8c0.36,0.431,0.996,0.648,1.908,0.648h1.944v2.16
			h-12.383v-2.16h0.791c1.152,0,2.112-0.217,2.88-0.648c0.768-0.432,1.416-1.152,1.944-2.16l16.271-39.24
			c0.096-0.288,0.217-0.42,0.361-0.396c0.143,0.025,0.262,0.156,0.36,0.396l15.768,39.24c0.527,0.96,1.175,1.668,1.944,2.123
			c0.768,0.457,1.703,0.684,2.808,0.684h0.721V137.118z M833.389,115.662h14.4v2.592H833.1L833.389,115.662z"/>
	</g>
	<g>
		<path fill="#E7AC35" d="M807.323,137.118h-15.264v-2.016l2.016-0.144c0.816-0.096,1.427-0.335,1.836-0.721
			c0.407-0.383,0.587-0.911,0.54-1.583l-6.769-17.065l-5.544-14.4l-12.527,31.465c-0.049,0.673,0.12,1.213,0.504,1.62
			c0.383,0.409,0.983,0.636,1.8,0.684l1.872,0.144v2.016h-12.456v-2.016l0.936-0.144c1.104-0.096,2.027-0.348,2.771-0.756
			c0.744-0.408,1.379-1.044,1.908-1.908L785.29,92.91c0.096-0.288,0.217-0.42,0.361-0.396c0.143,0.025,0.263,0.156,0.36,0.396
			l15.84,39.384c0.575,0.816,1.247,1.452,2.016,1.908c0.768,0.456,1.679,0.732,2.736,0.827l0.72,0.073V137.118z M776.651,115.662
			h14.4v2.592h-14.688L776.651,115.662z"/>
	</g>
	<g>
		<path fill="#E7AC35" d="M750.585,137.118h-15.264v-2.016l1.944-0.217c0.766-0.047,1.368-0.262,1.8-0.648
			c0.431-0.383,0.648-0.911,0.648-1.583l-6.769-17.065l-5.544-14.4l-12.527,31.465c0,0.625,0.204,1.129,0.612,1.512
			c0.408,0.384,1.02,0.625,1.836,0.72l1.727,0.288v1.944h-12.456v-1.944l1.08-0.288c0.96-0.095,1.8-0.347,2.52-0.756
			c0.721-0.407,1.392-1.02,2.016-1.835l16.344-39.384c0.096-0.288,0.217-0.42,0.361-0.396c0.143,0.025,0.263,0.156,0.36,0.396
			l15.84,39.384c0.622,0.816,1.32,1.439,2.087,1.871s1.656,0.72,2.665,0.864l0.72,0.073V137.118z M719.914,115.662h14.4v2.592
			h-14.688L719.914,115.662z"/>
	</g>
	<g>
		<path fill="#E7AC35" d="M693.919,137.118h-15.408v-1.871l1.873-0.432c0.72-0.096,1.296-0.325,1.727-0.684
			c0.432-0.36,0.744-0.803,0.936-1.331l-6.84-17.209l-5.544-14.4l-12.6,31.609c0.192,0.529,0.492,0.971,0.9,1.331
			s0.973,0.612,1.692,0.756l1.729,0.432v1.8h-12.6v-1.8l1.223-0.504c0.864-0.144,1.668-0.408,2.412-0.792
			c0.744-0.383,1.405-0.912,1.98-1.584l16.416-39.527c0.096-0.288,0.217-0.42,0.361-0.396c0.143,0.025,0.263,0.156,0.36,0.396
			l15.912,39.527c0.672,0.673,1.392,1.225,2.16,1.657c0.768,0.431,1.631,0.768,2.592,1.008l0.72,0.144V137.118z M663.176,115.662
			h14.4v2.592h-14.688L663.176,115.662z"/>
	</g>
	<g>
		<path fill="#E7AC35" d="M637.254,137.118h-15.48v-1.729l1.8-0.575c0.623-0.191,1.164-0.443,1.621-0.756
			c0.455-0.312,0.851-0.684,1.187-1.117l-6.912-17.352l-5.544-14.4l-12.672,31.752c0.335,0.432,0.72,0.817,1.152,1.153
			c0.432,0.336,0.96,0.6,1.584,0.791l1.656,0.504v1.729h-12.673v-1.729l1.369-0.575c0.816-0.191,1.583-0.468,2.304-0.829
			c0.719-0.36,1.368-0.827,1.944-1.404l16.487-39.671c0.096-0.288,0.217-0.42,0.361-0.396c0.143,0.025,0.263,0.156,0.36,0.396
			l15.983,39.671c0.673,0.529,1.405,1.021,2.196,1.477c0.792,0.457,1.644,0.827,2.556,1.116l0.721,0.216V137.118z M606.439,115.662
			h14.4v2.592H606.15L606.439,115.662z"/>
	</g>
	<g>
		<path fill="#E7AC35" d="M580.444,137.118h-15.408v-1.656l1.656-0.648c0.623-0.24,1.177-0.504,1.657-0.792
			c0.478-0.288,0.887-0.623,1.223-1.008l-6.84-17.425l-5.544-14.4l-12.6,31.825c0.335,0.336,0.731,0.673,1.188,1.008
			c0.456,0.336,0.973,0.601,1.548,0.792l1.584,0.72v1.584h-12.6v-1.584l1.368-0.72c0.768-0.288,1.487-0.6,2.16-0.936
			c0.672-0.335,1.369-0.743,2.088-1.223L558.34,92.91c0.096-0.288,0.217-0.42,0.361-0.396c0.143,0.025,0.262,0.156,0.36,0.396
			l15.912,39.744c0.816,0.529,1.608,0.996,2.377,1.404c0.766,0.408,1.559,0.756,2.375,1.044l0.719,0.36V137.118z M549.701,115.662
			h14.4v2.592h-14.688L549.701,115.662z"/>
	</g>
	<g>
		<path fill="#E7AC35" d="M807.323,80.718h-15.264v-2.016l2.016-0.144c0.864-0.096,1.487-0.384,1.871-0.864
			c0.384-0.479,0.479-1.104,0.288-1.873l-6.552-16.632l-5.544-14.4l-12.312,30.961c-0.192,0.817-0.108,1.475,0.252,1.979
			s0.973,0.78,1.836,0.829l1.872,0.144v2.016h-12.456v-2.016l0.936-0.144c1.199-0.096,2.196-0.396,2.988-0.9
			c0.791-0.504,1.427-1.26,1.908-2.269L785.29,36.51c0.096-0.288,0.217-0.42,0.361-0.396c0.143,0.025,0.263,0.156,0.36,0.396
			l15.623,38.808c0.527,1.008,1.2,1.788,2.017,2.34c0.816,0.552,1.8,0.877,2.952,0.971l0.72,0.073V80.718z M776.651,59.262h14.4
			v2.592h-14.688L776.651,59.262z"/>
	</g>
	<g>
		<path fill="#E7AC35" d="M750.585,80.718h-15.264v-1.944l1.871-0.288c0.816-0.095,1.427-0.37,1.836-0.827
			c0.407-0.456,0.564-1.044,0.468-1.764l-6.552-16.705l-5.544-14.4l-12.312,31.032c-0.096,0.72,0.047,1.321,0.432,1.8
			c0.383,0.48,0.983,0.769,1.8,0.864l1.727,0.361v1.871h-12.456v-1.871l1.08-0.361c1.055-0.144,1.968-0.455,2.735-0.935
			c0.768-0.479,1.44-1.177,2.017-2.088l16.127-38.952c0.096-0.288,0.217-0.42,0.361-0.396c0.143,0.025,0.263,0.156,0.36,0.396
			l15.623,38.879c0.623,0.961,1.343,1.705,2.16,2.232c0.816,0.529,1.752,0.864,2.809,1.008l0.72,0.144V80.718z M719.914,59.262h14.4
			v2.592h-14.688L719.914,59.262z"/>
	</g>
	<g>
		<path fill="#E7AC35" d="M693.919,80.718h-15.408v-1.8l1.8-0.504c0.721-0.144,1.296-0.432,1.729-0.864
			c0.431-0.432,0.695-0.936,0.792-1.513l-6.625-16.848l-5.544-14.4L658.28,75.966c0.095,0.625,0.347,1.152,0.756,1.584
			c0.407,0.431,0.971,0.744,1.692,0.935l1.656,0.504v1.729h-12.6V78.99l1.296-0.575c0.911-0.191,1.751-0.516,2.52-0.973
			c0.768-0.455,1.44-1.068,2.016-1.835l16.2-39.096c0.096-0.288,0.217-0.42,0.361-0.396c0.143,0.025,0.263,0.156,0.36,0.396
			l15.696,39.023c0.672,0.817,1.414,1.488,2.231,2.017c0.816,0.529,1.729,0.912,2.736,1.152l0.72,0.216V80.718z M663.176,59.262
			h14.4v2.592h-14.688L663.176,59.262z"/>
	</g>
	<g>
		<path fill="#E7AC35" d="M637.254,80.718h-15.48v-1.656l1.729-0.648c0.623-0.24,1.162-0.551,1.62-0.936
			c0.456-0.383,0.804-0.816,1.044-1.296L619.47,59.19l-5.544-14.4L601.47,76.11c0.24,0.529,0.577,0.996,1.008,1.404
			c0.432,0.408,0.96,0.732,1.584,0.971l1.584,0.577v1.656h-12.673v-1.656l1.44-0.648c0.864-0.24,1.668-0.587,2.412-1.044
			c0.744-0.456,1.404-0.996,1.98-1.62l16.271-39.24c0.096-0.288,0.217-0.42,0.361-0.396c0.143,0.025,0.263,0.156,0.36,0.396
			l15.768,39.168c0.672,0.673,1.427,1.273,2.268,1.8c0.84,0.529,1.74,0.961,2.7,1.296l0.721,0.288V80.718z M606.439,59.262h14.4
			v2.592H606.15L606.439,59.262z"/>
	</g>
	<g>
		<path fill="#E7AC35" d="M580.517,80.718h-15.48v-1.584l1.584-0.72c0.575-0.288,1.104-0.612,1.584-0.973
			c0.479-0.36,0.887-0.756,1.223-1.187l-6.696-17.065l-5.544-14.4l-12.456,31.392c0.335,0.432,0.731,0.853,1.188,1.26
			c0.456,0.409,0.947,0.732,1.475,0.973l1.513,0.792v1.512h-12.673v-1.512l1.513-0.792c0.816-0.335,1.571-0.72,2.268-1.152
			c0.695-0.432,1.379-0.912,2.052-1.44L558.34,36.51c0.096-0.288,0.217-0.42,0.361-0.396c0.143,0.025,0.262,0.156,0.36,0.396
			l15.768,39.24c0.768,0.623,1.571,1.187,2.412,1.691c0.84,0.505,1.692,0.949,2.556,1.332l0.721,0.36V80.718z M549.701,59.262h14.4
			v2.592h-14.688L549.701,59.262z"/>
	</g>
	<g>
		<path fill="#231815" d="M483.298,467.976c-0.806-0.421-1.765-0.673-2.588-0.673c-1.109,0-2.018,0.521-2.018,1.479
			c0,0.622,0.403,1.025,1.699,1.714c1.495,0.807,2.438,1.614,2.438,3.362c0,2.286-1.716,3.816-4.507,3.816
			c-1.193,0-2.37-0.185-3.696-0.655l0.605-1.95c0.975,0.487,2.034,0.773,2.873,0.773c1.277,0,2.288-0.521,2.288-1.799
			c0-0.807-0.422-1.227-1.664-1.883c-1.732-0.925-2.372-1.697-2.372-3.093c0-2.118,1.716-3.53,4.371-3.53
			c1.092,0,2.386,0.218,3.159,0.554L483.298,467.976z"/>
		<path fill="#231815" d="M486.673,466.985l2.32-0.807l-0.555,2.639h2.067l-0.335,1.614h-2.07l-0.79,3.799
			c-0.066,0.336-0.101,0.588-0.101,0.739c0,0.52,0.27,0.84,0.991,0.84c0.286,0,0.607-0.05,0.926-0.151l-0.354,1.765
			c-0.471,0.135-0.907,0.168-1.261,0.168c-1.629,0-2.503-0.84-2.503-2.285c0-0.487,0.101-1.043,0.234-1.682l0.705-3.193h-1.629
			l0.335-1.614h1.631L486.673,466.985z"/>
		<path fill="#231815" d="M494.3,468.816c-0.066,0.437-0.166,1.009-0.302,1.597h0.035c0.722-1.126,1.612-1.799,2.74-1.799
			c0.319,0,0.553,0.034,0.755,0.084l-0.504,2.118c-0.267-0.101-0.487-0.135-0.806-0.135c-1.53,0-2.353,1.143-2.756,3.093
			l-0.757,3.698h-2.22l1.228-5.933c0.253-1.227,0.403-2.034,0.504-2.723H494.3z"/>
		<path fill="#231815" d="M502.634,476.095c-0.722,1.193-1.713,1.546-2.808,1.546c-1.596,0-2.773-0.957-2.773-2.521
			c0-2.589,2.857-3.076,4.959-3.076c0.234,0,0.757,0.016,1.092,0.034c0.049-0.253,0.049-0.421,0.049-0.572
			c0-0.84-0.654-1.277-1.814-1.277c-0.757,0-1.748,0.168-2.639,0.588l0.234-1.782c0.858-0.268,1.866-0.42,2.707-0.42
			c2.22,0,3.562,0.891,3.562,2.723c0,0.974-0.637,3.596-0.79,4.622c-0.066,0.403-0.15,1.025-0.15,1.513H502.5
			c0.016-0.487,0.084-0.908,0.169-1.378H502.634z M502.163,473.439c-2.152,0-2.906,0.671-2.906,1.58c0,0.689,0.52,1.058,1.141,1.058
			c1.345,0,2.304-1.193,2.505-2.605C502.618,473.439,502.383,473.439,502.163,473.439z"/>
		<path fill="#231815" d="M510.329,468.816l-1.849,8.657h-2.22l1.833-8.657H510.329z M511.083,465.017l-0.471,2.135h-2.252
			l0.487-2.135H511.083z"/>
		<path fill="#231815" d="M511.081,478.716c0.959,0.455,1.983,0.69,2.808,0.69c1.765,0,2.74-0.908,3.195-3.43h-0.035
			c-0.537,0.841-1.327,1.43-2.604,1.43c-2.07,0-3.178-1.446-3.178-3.463c0-3.076,1.934-5.329,4.455-5.329
			c1.209,0,2.016,0.47,2.487,1.479h0.033l0.253-1.277h2.135l-1.716,8.153c-0.588,2.807-2.152,4.235-5.093,4.235
			c-1.041,0-2.217-0.234-3.328-0.655L511.081,478.716z M513.518,473.708c0,1.211,0.504,2.034,1.631,2.034
			c1.528,0,2.555-1.732,2.555-3.43c0-1.227-0.605-2.05-1.631-2.05C514.711,470.262,513.518,471.858,513.518,473.708z"/>
		<path fill="#231815" d="M525.448,467.791c-0.134,0.588-0.438,1.799-0.555,2.202h0.035c0.637-0.959,1.612-1.378,2.47-1.378
			c1.898,0,2.857,1.143,2.857,2.756c0,0.521-0.084,1.11-0.251,1.9l-0.909,4.202h-2.184l0.907-4.219
			c0.169-0.79,0.253-1.245,0.253-1.648c0-0.773-0.422-1.277-1.261-1.277c-0.907,0-1.514,0.538-1.95,1.344
			c-0.302,0.555-0.555,1.379-0.825,2.689l-0.654,3.11h-2.187l2.691-12.708h2.219L525.448,467.791z"/>
		<path fill="#231815" d="M534.2,466.985l2.32-0.807l-0.555,2.639h2.067l-0.335,1.614h-2.067l-0.79,3.799
			c-0.068,0.336-0.101,0.588-0.101,0.739c0,0.52,0.27,0.84,0.991,0.84c0.286,0,0.605-0.05,0.923-0.151l-0.352,1.765
			c-0.471,0.135-0.909,0.168-1.261,0.168c-1.631,0-2.505-0.84-2.505-2.285c0-0.487,0.101-1.043,0.237-1.682l0.706-3.193h-1.631
			l0.338-1.614h1.629L534.2,466.985z"/>
		<path fill="#231815" d="M540.551,473.774c-0.016,0.135-0.016,0.219-0.016,0.27c0,1.243,0.806,1.95,2.285,1.95
			c0.907,0,1.798-0.169,2.723-0.656l-0.302,1.815c-0.806,0.37-1.866,0.521-2.756,0.521c-2.723,0-4.118-1.462-4.118-3.596
			c0-2.943,1.831-5.463,4.957-5.463c2.168,0,3.38,1.11,3.38,3.244c0,0.572-0.068,1.194-0.218,1.916H540.551z M544.686,472.262
			c0.016-0.117,0.035-0.285,0.035-0.454c0-1.092-0.555-1.63-1.563-1.63c-1.144,0-2.051,0.756-2.388,2.084H544.686z"/>
		<path fill="#231815" d="M551.236,468.816c-0.068,0.437-0.169,1.009-0.302,1.597h0.033c0.724-1.126,1.615-1.799,2.74-1.799
			c0.319,0,0.555,0.034,0.757,0.084l-0.504,2.118c-0.27-0.101-0.487-0.135-0.806-0.135c-1.53,0-2.355,1.143-2.759,3.093
			l-0.755,3.698h-2.22l1.226-5.933c0.253-1.227,0.405-2.034,0.506-2.723H551.236z"/>
	</g>
	<g>
		<path fill="#231815" d="M426.748,414.042l4.656,0.991v-4.739l-4.656-1.009v-2.353l11.733,2.521v2.32l-5.143-1.076v4.74
			l5.143,1.092v2.337l-11.733-2.488V414.042z"/>
		<path fill="#231815" d="M434.782,404.367c0.135,0.016,0.219,0.016,0.27,0.016c1.243,0,1.95-0.806,1.95-2.286
			c0-0.907-0.169-1.798-0.656-2.722l1.815,0.302c0.37,0.806,0.521,1.866,0.521,2.756c0,2.723-1.462,4.118-3.596,4.118
			c-2.943,0-5.463-1.832-5.463-4.958c0-2.168,1.11-3.379,3.244-3.379c0.572,0,1.194,0.067,1.916,0.218V404.367z M433.27,400.231
			c-0.117-0.016-0.285-0.034-0.454-0.034c-1.092,0-1.63,0.555-1.63,1.563c0,1.144,0.756,2.051,2.084,2.387V400.231z"/>
		<path fill="#231815" d="M426.025,392.672l2.135,0.471v2.252l-2.135-0.488V392.672z M429.824,393.428l8.657,1.849v2.22
			l-8.657-1.833V393.428z"/>
		<path fill="#231815" d="M439.724,392.675c0.455-0.957,0.69-1.983,0.69-2.807c0-1.765-0.908-2.74-3.43-3.195v0.034
			c0.841,0.538,1.43,1.328,1.43,2.605c0,2.068-1.446,3.177-3.463,3.177c-3.076,0-5.329-1.932-5.329-4.454
			c0-1.211,0.47-2.017,1.479-2.488v-0.033l-1.277-0.252v-2.135l8.153,1.714c2.807,0.588,4.235,2.152,4.235,5.093
			c0,1.042-0.234,2.218-0.655,3.328L439.724,392.675z M434.716,390.237c1.211,0,2.034-0.504,2.034-1.63
			c0-1.529-1.732-2.555-3.43-2.555c-1.227,0-2.05,0.605-2.05,1.63C431.27,389.044,432.866,390.237,434.716,390.237z"/>
		<path fill="#231815" d="M428.799,378.309c0.588,0.134,1.799,0.437,2.202,0.554v-0.034c-0.959-0.639-1.378-1.614-1.378-2.47
			c0-1.9,1.143-2.858,2.756-2.858c0.521,0,1.11,0.084,1.9,0.253l4.202,0.907v2.186l-4.219-0.908
			c-0.79-0.168-1.245-0.252-1.648-0.252c-0.773,0-1.277,0.421-1.277,1.261c0,0.907,0.538,1.513,1.344,1.95
			c0.555,0.302,1.379,0.554,2.689,0.824l3.11,0.655v2.186l-12.708-2.689v-2.22L428.799,378.309z"/>
		<path fill="#231815" d="M427.993,369.556l-0.807-2.32l2.639,0.555v-2.067l1.614,0.335v2.068l3.799,0.79
			c0.336,0.067,0.588,0.101,0.739,0.101c0.52,0,0.84-0.27,0.84-0.991c0-0.286-0.05-0.606-0.151-0.925l1.765,0.353
			c0.135,0.471,0.168,0.908,0.168,1.261c0,1.63-0.84,2.504-2.285,2.504c-0.487,0-1.043-0.101-1.682-0.236l-3.193-0.705v1.63
			l-1.614-0.336v-1.63L427.993,369.556z"/>
	</g>
	<g>
		<path fill="#231815" d="M503.269,445.774c0,6.364-2.332,10.167-6.509,10.167c-4.206,0-6.538-3.831-6.538-10.341
			c0-6.682,2.275-10.339,6.739-10.339C501.052,435.261,503.269,439.12,503.269,445.774z M491.72,445.572
			c0,6.077,1.785,9.13,4.983,9.13c3.197,0,5.098-3.111,5.098-9.073c0-6.02-1.873-9.102-5.098-9.102
			C493.534,436.528,491.72,439.61,491.72,445.572z"/>
	</g>
	<g>
		<path fill="#231815" d="M468.416,409.238c0,6.364-2.332,10.167-6.509,10.167c-4.206,0-6.538-3.831-6.538-10.341
			c0-6.682,2.275-10.339,6.739-10.339C466.199,398.725,468.416,402.584,468.416,409.238z M456.868,409.037
			c0,6.077,1.785,9.13,4.983,9.13c3.197,0,5.098-3.111,5.098-9.073c0-6.02-1.873-9.102-5.098-9.102
			C458.682,399.992,456.868,403.074,456.868,409.037z"/>
	</g>
	<g>
		<path fill="#231815" d="M414.245,80.718h-1.383V67.469c0-1.67,0.057-4.406,0.115-5.415h-0.057
			c-0.691,0.663-1.843,1.642-2.535,2.189l-1.267,1.037l-0.749-0.921l4.637-3.745h1.239V80.718z"/>
		<path fill="#231815" d="M435.585,70.839c0,6.364-2.332,10.167-6.509,10.167c-4.206,0-6.538-3.831-6.538-10.341
			c0-6.682,2.275-10.339,6.739-10.339C433.368,60.326,435.585,64.185,435.585,70.839z M424.036,70.638
			c0,6.077,1.785,9.13,4.983,9.13c3.197,0,5.098-3.111,5.098-9.073c0-6.02-1.873-9.102-5.098-9.102
			C425.85,61.593,424.036,64.675,424.036,70.638z"/>
		<path fill="#231815" d="M452.001,70.839c0,6.364-2.332,10.167-6.509,10.167c-4.206,0-6.538-3.831-6.538-10.341
			c0-6.682,2.275-10.339,6.739-10.339C449.784,60.326,452.001,64.185,452.001,70.839z M440.452,70.638
			c0,6.077,1.785,9.13,4.983,9.13c3.197,0,5.098-3.111,5.098-9.073c0-6.02-1.873-9.102-5.098-9.102
			C442.266,61.593,440.452,64.675,440.452,70.638z"/>
		<path fill="#231815" d="M468.416,70.839c0,6.364-2.332,10.167-6.509,10.167c-4.206,0-6.538-3.831-6.538-10.341
			c0-6.682,2.275-10.339,6.739-10.339C466.199,60.326,468.416,64.185,468.416,70.839z M456.868,70.638
			c0,6.077,1.785,9.13,4.983,9.13c3.197,0,5.098-3.111,5.098-9.073c0-6.02-1.873-9.102-5.098-9.102
			C458.682,61.593,456.868,64.675,456.868,70.638z"/>
	</g>
	<g>
		<path fill="#231815" d="M810.096,455.654h-1.383v-13.249c0-1.67,0.057-4.406,0.115-5.415h-0.057
			c-0.691,0.663-1.843,1.642-2.535,2.189l-1.267,1.037l-0.749-0.921l4.637-3.745h1.239V455.654z"/>
		<path fill="#231815" d="M831.436,445.775c0,6.364-2.332,10.167-6.509,10.167c-4.206,0-6.538-3.831-6.538-10.341
			c0-6.682,2.275-10.339,6.739-10.339C829.219,435.262,831.436,439.121,831.436,445.775z M819.888,445.573
			c0,6.077,1.785,9.13,4.983,9.13c3.197,0,5.098-3.111,5.098-9.073c0-6.02-1.873-9.102-5.098-9.102
			C821.702,436.529,819.888,439.611,819.888,445.573z"/>
		<path fill="#231815" d="M847.852,445.775c0,6.364-2.332,10.167-6.509,10.167c-4.206,0-6.538-3.831-6.538-10.341
			c0-6.682,2.275-10.339,6.74-10.339C845.635,435.262,847.852,439.121,847.852,445.775z M836.303,445.573
			c0,6.077,1.785,9.13,4.983,9.13c3.197,0,5.098-3.111,5.098-9.073c0-6.02-1.873-9.102-5.098-9.102
			C838.117,436.529,836.303,439.611,836.303,445.573z"/>
		<path fill="#231815" d="M864.268,445.775c0,6.364-2.332,10.167-6.509,10.167c-4.206,0-6.538-3.831-6.538-10.341
			c0-6.682,2.275-10.339,6.739-10.339C862.05,435.262,864.268,439.121,864.268,445.775z M852.719,445.573
			c0,6.077,1.785,9.13,4.983,9.13c3.197,0,5.098-3.111,5.098-9.073c0-6.02-1.873-9.102-5.098-9.102
			C854.533,436.529,852.719,439.611,852.719,445.573z"/>
	</g>
</g>
</svg>
