<svg xmlns="http://www.w3.org/2000/svg" xmlns:xlink="http://www.w3.org/1999/xlink" viewBox="0 0 531.22 500"><defs><style>.cls-1,.cls-15,.cls-16,.cls-5,.cls-6,.cls-7{fill:none;}.cls-2{isolation:isolate;}.cls-3{clip-path:url(#clip-path);}.cls-15,.cls-16,.cls-4{mix-blend-mode:multiply;}.cls-5{stroke:#231815;stroke-width:0.79px;}.cls-15,.cls-6,.cls-8{stroke:#00a0e9;}.cls-12,.cls-16,.cls-7{stroke:#e4007f;}.cls-10,.cls-12,.cls-8{fill:#fff;}.cls-11,.cls-9{fill:#231815;}.cls-11{font-size:24px;font-family:FrutigerNeueLTCYR-Bold, Frutiger Neue LT CYR;font-weight:700;}.cls-13{letter-spacing:-0.02em;}.cls-14{clip-path:url(#clip-path-2);}.cls-15,.cls-16{opacity:0.5;}</style><clipPath id="clip-path"><rect class="cls-1" y="168.95" width="531.22" height="186.34"/></clipPath><clipPath id="clip-path-2"><rect class="cls-1" y="346.75" width="531.22" height="153.25"/></clipPath></defs><title>アートボード 1 のコピー</title><g class="cls-2"><g id="レイヤー_1" data-name="レイヤー 1"><g class="cls-3"><g class="cls-4"><path class="cls-5" d="M98.48-872.69h-121v-10.08H360.64v10.08h-121V317.09h121v10.08H-22.51V317.09h121V-872.69Z"/><path class="cls-6" d="M98.48-872.69h-121v-10.08H360.64v10.08h-121V317.09h121v10.08H-22.51V317.09h121V-872.69Z"/></g><g class="cls-4"><path class="cls-5" d="M108.57-761.77h-121v-121H360.64v121h-121v968h121v121H-12.43v-121h121v-968Z"/><path class="cls-7" d="M108.57-761.77h-121v-121H360.64v121h-121v968h121v121H-12.43v-121h121v-968Z"/></g><rect class="cls-8" x="236.2" y="313.65" width="6.88" height="6.88" transform="translate(-77.45 556.74) rotate(-90)"/><rect class="cls-8" x="357.2" y="313.65" width="6.88" height="6.88" transform="translate(43.55 677.73) rotate(-90)"/><polygon class="cls-9" points="331.1 264.51 331.1 307.98 326.47 307.98 331.73 317.09 336.99 307.98 332.36 307.98 332.36 264.51 331.1 264.51"/><line class="cls-10" x1="331.73" y1="269.65" x2="331.73" y2="206.18"/><polygon class="cls-9" points="332.43 269.65 332.43 216.19 337.51 216.19 331.73 206.18 325.95 216.19 331.03 216.19 331.03 269.65 332.43 269.65"/><text class="cls-11" transform="translate(387.91 278.92)">Thickness</text><rect class="cls-12" x="357.2" y="202.74" width="6.88" height="6.88" transform="translate(154.46 566.82) rotate(-90)"/><rect class="cls-12" x="236.2" y="202.74" width="6.88" height="6.88" transform="translate(33.46 445.82) rotate(-90)"/></g><g class="cls-4"><path class="cls-7" d="M98.72-965c0-58.48-32.27-90.75-90.75-90.75H-22.27v-10.08H360.88v10.08H330.63c-58.48,0-90.75,32.27-90.75,90.75V43.27c0,58.48,32.27,90.75,90.75,90.75h30.25V144.1H-22.27V134H8c58.48,0,90.75-32.27,90.75-90.75V-965Z"/></g><g class="cls-4"><path class="cls-6" d="M98.72-1055.76h-121v-10.08H360.88v10.08h-121V134h121V144.1H-22.27V134h121V-1055.76Z"/></g><rect class="cls-8" x="236.44" y="130.58" width="6.88" height="6.88" transform="translate(105.87 373.9) rotate(-90)"/><rect class="cls-12" x="236.44" y="39.83" width="6.88" height="6.88" transform="translate(196.61 283.16) rotate(-90)"/><line class="cls-12" x1="239.88" y1="43.27" x2="335.99" y2="43.27"/><polygon class="cls-9" points="321.64 81.44 321.64 124.9 317.01 124.9 322.27 134.02 327.54 124.9 322.91 124.9 322.91 81.44 321.64 81.44"/><line class="cls-10" x1="322.27" y1="95.85" x2="322.27" y2="43.27"/><polygon class="cls-9" points="322.91 95.85 322.91 52.39 327.54 52.39 322.27 43.27 317.01 52.39 321.64 52.39 321.64 95.85 322.91 95.85"/><text class="cls-11" transform="translate(387.91 95.85)">Height</text><text class="cls-11" transform="translate(387.91 423.38)">St<tspan class="cls-13" x="22.46" y="0">r</tspan><tspan x="31.49" y="0">aighter</tspan></text><g class="cls-14"><g class="cls-4"><path class="cls-5" d="M98.72-601.21c0-44.36-26.22-70.58-70.58-70.58H-22.27v-60.5H360.88v60.5H310.46c-44.36,0-70.58,26.22-70.58,70.58V346.58c0,44.36,26.22,70.58,70.58,70.58h50.42v60.5H-22.27v-60.5H28.14c44.36,0,70.58-26.22,70.58-70.58V-601.21Z"/><path class="cls-6" d="M98.72-601.21c0-44.36-26.22-70.58-70.58-70.58H-22.27v-60.5H360.88v60.5H310.46c-44.36,0-70.58,26.22-70.58,70.58V346.58c0,44.36,26.22,70.58,70.58,70.58h50.42v60.5H-22.27v-60.5H28.14c44.36,0,70.58-26.22,70.58-70.58V-601.21Z"/></g><g class="cls-4"><path class="cls-5" d="M98.72-621.37c-24.2-14.12-46.38-26.22-70.58-40.33L-22.27-692v-40.33H360.88V-692L310.46-661.7c-24.2,14.12-46.38,26.22-70.58,40.33V366.75c24.2,14.12,46.38,26.22,70.58,40.33l50.42,30.25v40.33H-22.27V437.33l50.42-30.25c24.2-14.12,46.38-26.22,70.58-40.33V-621.37Z"/><path class="cls-7" d="M98.72-621.37c-24.2-14.12-46.38-26.22-70.58-40.33L-22.27-692v-40.33H360.88V-692L310.46-661.7c-24.2,14.12-46.38,26.22-70.58,40.33V366.75c24.2,14.12,46.38,26.22,70.58,40.33l50.42,30.25v40.33H-22.27V437.33l50.42-30.25c24.2-14.12,46.38-26.22,70.58-40.33V-621.37Z"/></g><path class="cls-15" d="M304.81,417.06a64.93,64.93,0,1,0-64.93-64.93"/></g><line class="cls-16" x1="360.88" y1="437.33" x2="443.87" y2="485.74"/></g></g></svg>