<?xml version="1.0" encoding="utf-8"?>
<!-- Generator: Adobe Illustrator 21.1.0, SVG Export Plug-In . SVG Version: 6.00 Build 0)  -->
<svg version="1.1" id="レイヤー_1" xmlns="http://www.w3.org/2000/svg" xmlns:xlink="http://www.w3.org/1999/xlink" x="0px"
	 y="0px" viewBox="0 0 531.2 586.773" enable-background="new 0 0 531.2 586.773" xml:space="preserve">
<title>アートボード 1</title>
<path fill="#898989" d="M278.8,293.047l-0.3-0.2l-238.3-137.6l170.3-98.3l0.3,0.2l238.4,137.6L278.8,293.047z M42.8,155.247
	l236,136.3l167.6-96.8l-236-136.3L42.8,155.247z"/>
<polygon fill="#898989" points="329.8,321.347 328.5,321.347 328.5,127.347 160.5,224.347 159.8,223.247 329.8,125.047 "/>
<polygon fill="#898989" points="159.5,420.047 159.5,223.747 160.8,223.747 160.8,417.747 328.8,320.747 329.5,321.847 "/>
<path fill="#898989" d="M278.2,488.547v-196.6l0.3-0.2l170-98.1v196.6l-0.3,0.2L278.2,488.547z M279.5,292.647v193.6l167.6-96.8
	v-193.6L279.5,292.647z"/>
<path fill="#898989" d="M364,439.747l-86.5-49.9l85.1-49.2v-98.3l86.5,49.9l-85.1,49.2V439.747z M280.2,389.847l82.5,47.6v-95.3
	L280.2,389.847z M364,244.647v95.2l82.5-47.6L364,244.647z"/>
<path fill="#898989" d="M40.8,351.547v-196.7l0.3-0.2l170-98.1v196.6l-0.3,0.2L40.8,351.547z M42.1,155.647v193.5l167.6-96.8v-193.5
	L42.1,155.647z"/>
<rect x="125.3" y="106.447" fill="#898989" width="1.3" height="195.1"/>
<rect x="28.371" y="203.356" transform="matrix(0.8661 -0.4998 0.4998 0.8661 -85.1097 90.2445)" fill="#898989" width="195.086" height="1.3"/>
<rect x="244" y="175.047" fill="#898989" width="1.3" height="195.1"/>
<rect x="193.4" y="231.747" fill="#FBFBFB" width="34.4" height="32.4"/>
<path fill="#231815" d="M225.9,262.247h-10.1v-2.9h3.2l-3.8-10.3l-4.5-12.3l-8.8,22.5h3.3v2.9h-9.9v-2.9h3.4l10.7-25.8h3.2l9.8,25.7
	h3.5L225.9,262.247z M204.4,248.047h11l0.9,2.9h-12L204.4,248.047z"/>
<rect x="313.9" y="298.247" fill="#FBFBFB" width="32.8" height="33.3"/>
<path fill="#231815" d="M344.9,329.647h-10.1v-1.4h3.5l-5.1-12.8l-3.7-9.5l-8.9,22.4h3.3v1.4h-8.2v-1.4h3l11.5-27.9
	c0.1-0.4,0.3-0.3,0.5,0l11.2,27.9h2.9L344.9,329.647z M324.6,315.447h9.5v1.7h-9.7L324.6,315.447z"/>
<rect x="362.697" y="243.533" transform="matrix(0.5 -0.866 0.866 0.5 -113.711 485.2011)" fill="#898989" width="1.3" height="195.092"/>
<rect x="193.5" y="135.347" fill="#FBFBFB" width="34.2" height="32.4"/>
<path fill="#231815" d="M225.8,165.847h-10.1v-2.4l0.7-0.2c0.7-0.2,1.8-0.4,2.5-0.5l-3.7-10l-4.5-12.3l-8.7,22.3
	c0.8,0.1,1.5,0.3,2.2,0.5l1.1,0.2v2.4h-9.9v-2.4l0.8-0.2l2.6-0.5l10.6-25.5h3.2l9.7,25.4c0.9,0.1,2,0.3,2.8,0.5l0.7,0.2
	L225.8,165.847L225.8,165.847z M204.4,151.647h11l0.9,2.7h-12L204.4,151.647z"/>
<path fill="#231815" d="M225.1,163.147c-0.8-0.2-2-0.4-2.8-0.5l-9.7-25.4h-3.2l-10.6,25.5l-2.6,0.5l-0.8,0.2v2.4h9.9v-2.4l-1.1-0.2
	c-0.7-0.1-1.5-0.3-2.2-0.5l3.3-8.4h10.6l3.1,8.4c-0.7,0.1-1.8,0.3-2.5,0.5l-0.7,0.2v2.4h10.1v-2.5L225.1,163.147z M210.7,140.447
	l4.1,11.2h-8.5L210.7,140.447z"/>
<rect x="229.4" y="346.647" fill="#FBFBFB" width="32.8" height="33.3"/>
<path fill="#231815" d="M260.4,378.047h-10.1v-1.4h3.5l-5.1-12.8l-3.7-9.6l-8.8,22.4h3.3v1.4h-8.2v-1.4h3l11.6-27.9
	c0.1-0.4,0.3-0.3,0.5,0l11.2,27.9h2.9L260.4,378.047z M240.1,363.847h9.5v1.7h-9.7L240.1,363.847z"/>
<path fill="#231815" d="M259.9,376.647h-2.4l-11.2-27.9c-0.1-0.3-0.3-0.4-0.5,0l-11.5,27.9h-3v1.4h8.2v-1.4h-3.3l4.4-11.1h8.9
	l4.4,11.1h-3.5v1.4h10.1v-1.4H259.9z M241.3,363.847l3.8-9.6l3.7,9.5l0,0L241.3,363.847z"/>
<rect x="147.087" y="271.863" transform="matrix(0.8659 -0.5003 0.5003 0.8659 -103.5171 158.9446)" fill="#898989" width="195.116" height="1.3"/>
<rect x="313.8" y="206.147" fill="#FBFBFB" width="33" height="33.3"/>
<path fill="#231815" d="M344.9,237.547h-10.2v-1.2l1.2-0.3c0.7-0.2,1.3-0.4,2-0.6l-4.8-12.1l-3.7-9.5l-8.6,21.6l2,0.7l1,0.3v1.2
	h-8.3v-1.2l0.9-0.3c0.9-0.2,1.7-0.5,2.6-0.8l11.2-27c0.1-0.4,0.3-0.3,0.5,0l10.9,27l2.8,1l0.5,0.1V237.547z M324.6,223.347h9.5v1.7
	h-9.7L324.6,223.347z"/>
<path fill="#231815" d="M344.5,236.247l-2.8-1l-10.9-27c-0.1-0.3-0.3-0.4-0.5,0l-11.2,27c-0.9,0.2-1.7,0.5-2.6,0.8l-0.9,0.3v1.2h8.3
	v-1.2l-1-0.3l-2-0.7l4.1-10.3h8.9l4.1,10.4c-0.7,0.2-1.3,0.4-2,0.6l-1.2,0.3v1.2H345v-1.2L344.5,236.247z M325.7,223.347l3.8-9.6
	l3.7,9.5l0,0L325.7,223.347z"/>
<rect x="243.994" y="37.955" transform="matrix(0.5 -0.866 0.866 0.5 -29.2336 299.3638)" fill="#898989" width="1.3" height="274.088"/>
<rect x="229.4" y="254.047" fill="#FBFBFB" width="32.9" height="33.3"/>
<path fill="#231815" d="M260.4,285.447h-10.1v-1.3l1.3-0.1c0.7,0,1.4-0.3,1.9-0.8l-4.7-12l-3.8-9.6l-8.5,21.5
	c0.5,0.5,1.1,0.8,1.8,0.8l1.2,0.2v1.3h-8.2v-1.3l0.7-0.2c1-0.1,1.9-0.5,2.8-1l11.1-26.9c0.1-0.4,0.3-0.3,0.5,0l10.8,26.9
	c0.9,0.5,1.8,0.9,2.8,1h0.5L260.4,285.447z M240.1,271.247h9.5v1.7h-9.7L240.1,271.247z"/>
<path fill="#E61673" d="M259.9,284.047c-1-0.1-2-0.5-2.8-1l-10.8-26.9c-0.1-0.3-0.3-0.4-0.5,0l-11.1,26.9c-0.8,0.5-1.8,0.9-2.8,1
	l-0.7,0.2v1.3h8.2v-1.3l-1.2-0.2c-0.7-0.1-1.3-0.3-1.8-0.8l4.1-10.2h8.9l4,10.2c-0.5,0.5-1.2,0.8-1.9,0.8l-1.3,0.1v1.3h10.1v-1.3
	L259.9,284.047z M241.2,271.247l3.8-9.6l3.7,9.5l0,0L241.2,271.247z"/>
<rect x="109.2" y="184.047" fill="#FBFBFB" width="34.3" height="32.4"/>
<path fill="#231815" d="M141.6,214.547h-10.1v-2.5l0.8-0.1c0.8,0,1.6-0.3,2.2-0.7l-3.6-9.8l-4.5-12.3l-8.6,22c0.6,0.4,1.3,0.7,2,0.7
	l1.2,0.1v2.5h-10v-2.5l0.9-0.1c1-0.1,1.9-0.3,2.8-0.7l10.5-25.3h3l9.6,25.2c0.9,0.4,1.9,0.7,2.9,0.7l0.8,0.1L141.6,214.547z
	 M120.1,200.347h11l0.9,2.7h-12L120.1,200.347z"/>
<path fill="#231815" d="M140.8,211.847c-1,0-2-0.3-2.9-0.7l-9.6-25.2h-3.1l-10.5,25.3c-0.9,0.4-1.8,0.7-2.8,0.7l-0.9,0.1v2.5h9.8
	v-2.5l-1.2-0.1c-0.7,0-1.4-0.3-2-0.7l3.2-8.2h10.5l3,8.2c-0.7,0.4-1.4,0.7-2.2,0.7l-0.8,0.1v2.5h10.1v-2.6L140.8,211.847z
	 M126.4,189.147l4.1,11.2H122L126.4,189.147z"/>
<rect x="109.3" y="86.747" fill="#FBFBFB" width="34.2" height="32.4"/>
<path fill="#231815" d="M141.6,117.247h-10.1v-2.1l1-0.2c0.9-0.1,1.6-0.6,1.8-1.5l-3.4-9.3l-4.5-12.3l-8.4,21.6
	c0.2,0.8,1,1.4,1.9,1.4l1.1,0.2v2.2h-9.7v-2.1l1.3-0.2c1-0.1,1.9-0.6,2.5-1.4l10.2-24.9h3l9.4,24.7c0.7,0.8,1.6,1.3,2.7,1.5l1.2,0.2
	L141.6,117.247z M120.1,103.047h11l0.9,2.5h-12L120.1,103.047z"/>
<path fill="#231815" d="M140.4,114.847c-1-0.1-2-0.7-2.7-1.5l-9.4-24.7h-3l-10.3,24.8c-0.6,0.8-1.5,1.3-2.5,1.4l-1.3,0.2v2.2h9.7
	v-2.1l-1.1-0.2c-0.9,0-1.6-0.6-1.9-1.4l3.1-7.9h10.4l2.9,7.9c-0.2,0.8-1,1.4-1.8,1.5l-1,0.2v2.2h10.1v-2.2L140.4,114.847z
	 M126.4,91.847l4.1,11.2H122L126.4,91.847z"/>
<rect x="109.8" y="280.647" fill="#FBFBFB" width="34.4" height="32.4"/>
<path fill="#231815" d="M142.3,311.147h-10.1v-2.9h3.2l-3.8-10.3l-4.5-12.3l-8.8,22.5h3.3v2.9h-9.9v-2.9h3.4l10.7-25.8h3.2l9.8,25.7
	h3.5L142.3,311.147z M120.8,296.947h11l0.9,2.9h-12L120.8,296.947z"/>
<path fill="#231815" d="M141.9,308.147h-3l-9.9-25.7h-3.2l-10.7,25.8h-3.4v2.9h9.9v-2.9h-3.3l3.3-8.5h10.7l3.2,8.5h-3.2v2.9h10.1v-3
	L141.9,308.147z M127.1,285.747l4.1,11.2h-8.5L127.1,285.747z"/>
<path fill="#898989" d="M279.5,488.547l-1-0.6l-237.7-137.2v-196.7l238.7,137.8V488.547z M42.1,349.947l236,136.3v-193.6l-236-136.3
	L42.1,349.947z"/>
<rect x="159.477" y="184.285" transform="matrix(0.5 -0.866 0.866 0.5 -198.2153 299.3345)" fill="#898989" width="1.3" height="274.088"/>
<rect x="313" y="107.247" fill="#FBFBFB" width="33.2" height="33.3"/>
<path fill="#231815" d="M344.3,138.647H334v-1l1-0.6l2-1.3l-4.5-11.4l-3.7-9.5l-8.3,20.9c0.6,0.5,1.3,0.9,1.9,1.4l0.9,0.6v1h-8.5
	v-0.9l1.1-0.7l2.7-1.6l10.8-26.2c0.1-0.4,0.3-0.3,0.5,0l10.5,26.1c1.1,0.7,2.2,1.3,3.3,2l0.5,0.3L344.3,138.647z M323.8,124.447h9.5
	v1.7h-9.7L323.8,124.447z"/>
<rect x="431.4" y="175.747" fill="#FBFBFB" width="33.5" height="33.3"/>
<path fill="#231815" d="M463,207.247h-9.6v-0.2l0.7-0.4c0.7-0.3,1.3-0.7,2-1l-5-12.6l-4.3-11.1l-9.8,23.7l2.4,1.1l0.8,0.3v0.2h-7
	v-0.2l1-0.4l2.5-1l11.5-27.6c0.1-0.4,0.3-0.3,0.5,0l11.1,27.6l2.3,1l0.9,0.4L463,207.247L463,207.247z M441.8,193.747H452v0.2h-10.3
	L441.8,193.747z"/>
<rect x="431.4" y="270.147" fill="#FBFBFB" width="33.7" height="33.3"/>
<path fill="#231815" d="M463.2,301.547h-9.6v-0.2l0.6-0.2c0.7-0.2,1.6-0.4,2.2-0.5l-5.2-13.3l-4.3-11.1l-10.1,24.4
	c0.7,0.2,1.5,0.3,2.2,0.5l1,0.2v0.2h-6.8v-0.2l0.8-0.2c0.9-0.1,1.7-0.3,2.5-0.5l11.7-28.4c0.1-0.4,0.3-0.3,0.5,0l11.4,28.4
	c0.8,0.1,1.6,0.3,2.4,0.5l0.7,0.2V301.547z M441.8,288.047H452v0.2h-10.3L441.8,288.047z"/>
<path fill="#231815" d="M462.5,301.147c-0.8-0.2-1.6-0.4-2.4-0.5l-11.4-28.4c-0.1-0.3-0.3-0.4-0.5,0l-11.7,28.4
	c-0.8,0.1-1.6,0.3-2.5,0.5l-0.8,0.2v0.2h6.8v-0.2l-1-0.2c-0.8-0.2-1.5-0.3-2.2-0.5l5.1-12.3h9.7l4.9,12.3c-0.7,0.1-1.6,0.3-2.2,0.5
	l-0.6,0.2v0.2h9.6v-0.2L462.5,301.147z M441.9,288.047l4.9-11.9l4.3,11.1l0.3,0.8H441.9z"/>
<rect x="229.3" y="155.647" fill="#FBFBFB" width="33" height="33.3"/>
<path fill="#231815" d="M260.5,187.147h-10.2v-1.2l1.2-0.3c0.8-0.1,1.5-0.7,1.6-1.6l-4.4-11.2l-3.7-9.5l-8.2,20.7
	c0.1,0.8,0.8,1.5,1.6,1.7l1.1,0.3v1.2h-8.4v-1.2l0.9-0.3c1.2-0.2,2.3-0.9,3-1.9l10.7-25.9c0.1-0.4,0.3-0.3,0.5,0l10.5,25.8
	c0.8,1.1,2,1.8,3.3,2.1l0.5,0.1V187.147z M240.1,172.947h9.5v1.7h-9.7L240.1,172.947z"/>
<path fill="#231815" d="M260,185.747c-1.3-0.3-2.5-1-3.3-2.1l-10.4-25.9c-0.1-0.3-0.3-0.4-0.5,0l-10.7,25.9c-0.7,1-1.8,1.6-3,1.9
	l-0.9,0.3v1.2h8.4v-1.2l-1.1-0.3c-0.8-0.2-1.5-0.8-1.6-1.7l3.7-9.4h8.9l3.7,9.4c-0.1,0.8-0.8,1.5-1.6,1.6l-1.2,0.3v1.2h10.2v-1.2
	H260z M241.2,172.947l3.8-9.6l3.7,9.5l0,0L241.2,172.947z"/>
<rect x="143.8" y="204.847" fill="#FBFBFB" width="32.8" height="33.3"/>
<path fill="#231815" d="M174.8,236.247h-10.1v-1.4h1.4c1.2,0,1.7-0.8,1.3-1.9l-4.3-10.9l-3.7-9.5l-8.1,20.4c-0.5,1.2,0,2,1.3,2h1.3
	v1.4h-8.2v-1.4h0.5c1.5,0.1,2.9-0.8,3.3-2.2l10.6-25.7c0.1-0.4,0.3-0.3,0.5,0l10.4,25.6c0.5,1.4,1.8,2.3,3.3,2.2h0.5V236.247z
	 M154.5,222.047h9.5v1.7h-9.7L154.5,222.047z"/>
<rect x="263" y="270.147" fill="#FBFBFB" width="33.8" height="33.3"/>
<path fill="#231815" d="M294.9,301.547h-10.5v-0.2h0.7c2,0,2.8-1.2,2-3l-4.3-11l-4.3-11.1l-9.2,22.1c-0.8,1.9,0.1,3,2,3h0.5v0.2h-7
	v-0.2h0.1c1.8,0.1,3.4-1,4-2.7l10.9-26.4c0.1-0.4,0.3-0.3,0.5,0l10.7,26.4c0.5,1.7,2.1,2.8,3.9,2.7l0,0V301.547z M273.5,288.047
	h10.3v0.2h-10.4L273.5,288.047z"/>
<rect x="263" y="367.647" fill="#FBFBFB" width="33.8" height="33.3"/>
<path fill="#231815" d="M294.9,399.147h-10.1v-0.2h0.6c1.3,0,2.3-0.6,2.3-1.5l-5-12.5l-4.3-11.1l-9.8,23.6c0,0.9,0.8,1.5,2.1,1.5
	h0.9v0.2h-6.8v-0.2h0.3c1.2,0.1,2.4-0.4,3.2-1.3l11.5-27.7c0.1-0.4,0.3-0.3,0.5,0l11.2,27.7c0.8,0.9,1.9,1.4,3.1,1.3h0.2
	L294.9,399.147z M273.5,385.647h10.3v0.2h-10.4L273.5,385.647z"/>
<path fill="#231815" d="M294.7,398.847c-1.2,0.1-2.4-0.4-3.1-1.3l-11.2-27.7c-0.1-0.3-0.3-0.4-0.5,0l-11.4,27.7
	c-0.8,0.9-2,1.4-3.2,1.3H265v0.2h6.8v-0.2h-0.9c-1.3,0-2.1-0.6-2.1-1.5l4.8-11.5h9.7l4.6,11.5c0,0.9-1,1.5-2.3,1.5H285v0.2h10.1
	v-0.2H294.7z M273.6,385.647l4.9-11.9l4.3,11.1l0.3,0.8H273.6z"/>
<rect x="347.5" y="318.847" fill="#FBFBFB" width="33.7" height="33.3"/>
<path fill="#231815" d="M379.4,350.347h-9.8v-0.2l0.6-0.1c0.9,0,1.7-0.4,2.3-1l-5.1-12.9l-4.3-11.2l-9.9,24c0.5,0.6,1.3,1,2.1,1
	l1,0.1v0.2h-6.8v-0.2l0.5-0.1c1-0.1,2-0.4,2.9-1l11.6-28c0.1-0.4,0.3-0.3,0.5,0l11.3,28c0.8,0.6,1.8,0.9,2.8,1l0.5,0.1
	L379.4,350.347z M357.9,336.847h10.3v0.2h-10.4L357.9,336.847z"/>
<path fill="#231815" d="M378.9,350.047c-1-0.1-2-0.4-2.8-1l-11.3-28c-0.1-0.3-0.3-0.4-0.5,0l-11.6,28c-0.8,0.6-1.8,0.9-2.9,1
	l-0.5,0.1v0.2h6.8v-0.2l-1-0.1c-0.8,0-1.6-0.4-2.1-1l5-11.9h9.7l4.7,11.9c-0.6,0.6-1.4,1-2.3,1l-0.6,0.1v0.2h9.8v-0.2L378.9,350.047
	z M358.1,336.847l4.9-11.9l4.3,11.1l0.3,0.8H358.1z"/>
<rect x="347.5" y="225.247" fill="#FBFBFB" width="33.7" height="33.3"/>
<path fill="#231815" d="M379.3,256.647h-10.1v-0.2l0.7-0.2c1.1,0,2-0.9,2-2c0,0,0,0,0-0.1l-4.7-11.8l-4.3-11.1l-9.5,22.9
	c0,1.1,0.8,1.9,2.2,2.1l0.7,0.2v0.2h-7v-0.2l0.6-0.2c1.3-0.1,2.5-0.8,3.2-1.8l11.2-27c0.1-0.4,0.3-0.3,0.5,0l10.9,27
	c0.7,1,1.8,1.7,3.1,1.9l0.5,0.2L379.3,256.647z M357.9,243.147h10.3v0.2h-10.4L357.9,243.147z"/>
<path fill="#231815" d="M378.9,256.247c-1.3-0.1-2.4-0.8-3.1-1.9l-10.9-27c-0.1-0.3-0.3-0.4-0.5,0l-11.2,27c-0.8,1-2,1.7-3.2,1.8
	l-0.6,0.2v0.2h7v-0.2l-0.7-0.2c-1.4-0.2-2.2-1-2.2-2.1l4.5-10.8h9.7l4.3,10.8c0,1.1-0.8,2-1.9,2c0,0,0,0-0.1,0l-0.7,0.2v0.2h10.1
	v-0.2H378.9z M358.1,243.147l4.9-11.9l4.3,11.1l0.3,0.8L358.1,243.147z"/>
<rect x="143.8" y="394.247" fill="#FBFBFB" width="32.8" height="33.3"/>
<path fill="#231815" d="M174.8,425.647h-10.1v-1.4h3.5l-5.1-12.8l-3.7-9.5l-8.9,22.4h3.3v1.4h-8.1v-1.4h3l11.6-27.9
	c0.1-0.4,0.3-0.3,0.5,0l11.2,27.9h2.9L174.8,425.647z M154.5,411.447h9.5v1.7h-9.7L154.5,411.447z"/>
<rect x="144.9" y="298.547" fill="#FBFBFB" width="32.8" height="33.3"/>
<path fill="#231815" d="M175.9,330.047h-10.1v-1.4h1.4c1,0,1.6-0.4,1.7-1l-4.7-11.9l-3.7-9.5l-8.5,21.4c0.1,0.6,0.7,1,1.7,1h1.2v1.4
	h-8.2v-1.4h0.5c1.1,0.1,2.1-0.3,2.9-1.1l11.1-26.8c0.1-0.4,0.3-0.3,0.5,0l10.8,26.7c0.7,0.8,1.8,1.2,2.8,1.1h0.5L175.9,330.047z
	 M155.6,315.847h9.5v1.7h-9.7L155.6,315.847z"/>
<path fill="#231815" d="M175.4,328.647c-1.1,0-2.1-0.4-2.8-1.1l-10.8-26.7c-0.1-0.3-0.3-0.4-0.5,0l-11.1,26.8
	c-0.8,0.8-1.8,1.2-2.9,1.1h-0.5v1.4h8.2v-1.4h-1.3c-1,0-1.6-0.4-1.7-1l4-10.1h8.9l4,10.1c-0.1,0.6-0.7,1-1.7,1h-1.4v1.4h10.1v-1.5
	H175.4z M156.8,315.847l3.8-9.6l3.7,9.5l0,0L156.8,315.847z"/>
<rect x="347.6" y="412.447" fill="#FBFBFB" width="33.8" height="33.3"/>
<path fill="#231815" d="M379.5,443.847h-9.6v-0.2h3l-5.5-14l-4.3-11.1l-10.4,25.1h3.3v0.2h-6.5v-0.2h3l12-29.1
	c0.1-0.4,0.3-0.3,0.5,0l11.7,29.1h2.9v0.2H379.5z M358,430.347h10.3v0.3H358V430.347z"/>
<path fill="#231815" d="M379,443.647h-2.4l-11.6-29.1c-0.1-0.3-0.3-0.4-0.5,0l-12,29.1h-3v0.2h6.5v-0.2h-3.3l5.4-13h9.7l5.1,13h-3
	v0.2h9.6v-0.2H379z M358.1,430.347l4.9-11.9l4.3,11.1l0.3,0.8H358.1z"/>
<rect x="432.1" y="364.447" fill="#FBFBFB" width="33.8" height="33.3"/>
<path fill="#231815" d="M464,395.847h-9.6v-0.2h3l-5.5-14l-4.3-11.1l-10.4,25.1h3.3v0.2H434v-0.2h3l12-29.1c0.1-0.4,0.3-0.3,0.5,0
	l11.7,29.1h2.9v0.2H464z M442.5,382.347h10.3v0.2h-10.4L442.5,382.347z"/>
<rect x="263" y="463.347" fill="#FBFBFB" width="33.8" height="33.3"/>
<path fill="#231815" d="M294.9,494.747h-9.6v-0.2h3l-5.5-14l-4.3-11.1l-10.4,25.1h3.3v0.2h-6.5v-0.2h3l12-29.1
	c0.1-0.4,0.3-0.3,0.5,0l11.7,29.1h2.9v0.2H294.9z M273.5,481.247h10.3v0.2h-10.4L273.5,481.247z"/>
<rect x="24.7" y="328.947" fill="#FBFBFB" width="34.4" height="32.4"/>
<path fill="#231815" d="M57.2,359.547H47.1v-2.9h3.2l-3.8-10.3l-4.5-12.2l-8.9,22.5h3.3v2.9h-9.9v-2.9H30l10.7-25.8h3.2l9.8,25.7
	h3.5V359.547z M35.7,345.247h11l0.9,2.9h-12L35.7,345.247z"/>
<rect x="25" y="135.347" fill="#FBFBFB" width="34.2" height="32.4"/>
<path fill="#231815" d="M57.3,165.847h-10v-2.4h1.2c1.2,0,1.8-0.7,1.3-1.9l-3.2-8.8l-4.6-12.3l-8.3,21.1c-0.4,1.1,0,1.9,1.3,1.9h1.3
	v2.4h-9.5v-2.4h1.4c1.2,0.1,2.3-0.7,2.7-1.8l10.1-24.4h2.7l9.3,24.3c0.4,1.2,1.5,2,2.7,1.9h1.5L57.3,165.847z M35.7,151.647h11
	l0.9,2.4h-12L35.7,151.647z"/>
<rect x="194" y="41.647" fill="#FBFBFB" width="34" height="32.4"/>
<path fill="#231815" d="M226.1,72.147H216v-1.9l0.9-0.4c0.8-0.3,1.5-0.7,2.3-1l-3.6-9.8l-4.6-12.2l-8.6,22l2.4,1l1,0.4v1.9h-9.9
	v-1.9l1.1-0.4l2.3-1l10.5-25.3h3.2l9.6,25.2l2.6,1l0.9,0.4V72.147z M204.8,57.947h11l0.9,2.6h-12L204.8,57.947z"/>
<path fill="#E8AD36" d="M222.4,259.347l-9.8-25.7h-3.2l-10.7,25.8h-3.4v2.9h9.9v-2.9h-3.3l3.3-8.5h10.7l3.2,8.5h-3.2v2.9H226v-3
	H222.4L222.4,259.347z M210.7,236.847l4.1,11.2h-8.5L210.7,236.847z"/>
<path fill="#E8AD36" d="M342,328.247l-11.2-27.9c-0.1-0.3-0.3-0.4-0.5,0l-11.5,27.9h-3v1.4h8.2v-1.4h-3.3l4.4-11.1h8.9l4.4,11.1
	h-3.5v1.4H345v-1.4H342z M325.7,315.447l3.8-9.6l3.7,9.5l0,0L325.7,315.447z"/>
<path fill="#E8AD36" d="M323.3,137.747l-0.9-0.6c-0.6-0.5-1.3-0.9-1.9-1.4l3.8-9.6h8.9l3.8,9.6l-2,1.3l-1,0.6v1h10.3v-1l-0.5-0.3
	c-1.1-0.7-2.2-1.3-3.3-2l-10.5-26c-0.1-0.3-0.3-0.4-0.5,0l-10.8,26.2l-2.7,1.6l-1.1,0.7v0.9h8.5L323.3,137.747z M332.5,124.447
	L332.5,124.447H325l3.8-9.6L332.5,124.447z"/>
<path fill="#E8AD36" d="M440.2,206.947l-0.8-0.3l-2.4-1.1l4.8-11.6h9.7l4.6,11.6c-0.7,0.3-1.3,0.7-2,1l-0.7,0.4v0.2h9.6v-0.2
	l-0.9-0.4l-2.3-1l-11.1-27.6c-0.1-0.3-0.3-0.4-0.5,0l-11.5,27.6l-2.5,1l-1,0.4v0.2h7L440.2,206.947z M451.1,192.947l0.3,0.8h-9.5
	l4.9-11.9L451.1,192.947z"/>
<path fill="#E8AD36" d="M171,232.647l-10.3-25.6c-0.1-0.3-0.3-0.4-0.5,0l-10.6,25.6c-0.5,1.4-1.9,2.3-3.3,2.2h-0.5v1.4h8.2v-1.4
	h-1.3c-1.2,0-1.8-0.8-1.3-2l3.6-9.1h8.9l3.6,9.2c0.4,1.1,0,1.9-1.3,1.9h-1.4v1.4h10.1v-1.4h-0.5
	C172.8,234.847,171.5,234.047,171,232.647z M155.6,222.047l3.8-9.6l3.7,9.5l0,0L155.6,222.047z"/>
<path fill="#E8AD36" d="M271.9,301.347h-0.5c-2,0-2.8-1.2-2-3l4.1-10h9.7l4,10c0.7,1.9-0.1,3-2,3h-0.7v0.2H295v-0.2l0,0
	c-1.8,0.1-3.4-1-4-2.7l-10.6-26.4c-0.1-0.3-0.3-0.4-0.5,0l-10.9,26.4c-0.6,1.7-2.2,2.8-4,2.7h-0.1v0.2h7V301.347z M282.8,287.347
	l0.3,0.8h-9.5l4.9-11.9L282.8,287.347z"/>
<path fill="#E8AD36" d="M171.9,424.247l-11.2-27.9c-0.1-0.3-0.3-0.4-0.5,0l-11.6,27.9h-3v1.4h8.2v-1.4h-3.3l4.5-11h8.9l4.4,11.1
	h-3.5v1.4h10.1v-1.4L171.9,424.247L171.9,424.247z M155.6,411.447l3.8-9.6l3.7,9.5l0,0L155.6,411.447z"/>
<path fill="#E8AD36" d="M463.5,395.647h-2.4l-11.7-29.1c-0.1-0.3-0.3-0.4-0.5,0l-11.9,29.1h-3v0.2h6.5v-0.2h-3.3l5.4-13h9.7l5.1,13
	h-3v0.2h9.6v-0.2H463.5z M442.7,382.347l4.9-11.9l4.3,11.1l0.3,0.8H442.7z"/>
<path fill="#E8AD36" d="M292.1,494.547l-11.7-29.1c-0.1-0.3-0.3-0.4-0.5,0l-12,29.1h-3v0.2h6.5v-0.2h-3.3l5.4-13h9.7l5.1,13h-3v0.2
	h9.6v-0.2H292.1L292.1,494.547z M273.6,481.247l4.9-11.9l4.3,11.1l0.3,0.8H273.6z"/>
<path fill="#E8AD36" d="M53.7,356.547l-9.8-25.7h-3.2l-10.7,25.8h-3.4v2.9h9.9v-2.9h-3.3l3.3-8.5h10.7l3.2,8.5h-3.2v2.9h10.1v-3
	H53.7L53.7,356.547z M42,334.147l4.1,11.2h-8.5L42,334.147z"/>
<path fill="#E8AD36" d="M53.1,161.547l-9.3-24.3h-2.7l-10.1,24.4c-0.4,1.2-1.5,1.9-2.8,1.9h-1.4v2.4h9.4v-2.4H35
	c-1.2,0-1.7-0.8-1.3-1.9l3-7.5H47l2.8,7.5c0.4,1.2-0.1,1.9-1.3,1.9h-1.2v2.4h10.1v-2.5h-1.5C54.6,163.547,53.5,162.747,53.1,161.547
	z M42,140.447l4.1,11.2h-8.5L42,140.447z"/>
<path fill="#E8AD36" d="M222.6,68.747l-9.6-25.2h-3.2l-10.5,25.3l-2.3,1l-1.1,0.4v1.9h9.9v-1.9l-1-0.4l-2.4-1l3.2-8.3h10.5l3.1,8.3
	c-0.8,0.3-1.5,0.7-2.3,1l-0.9,0.4v2h10.1v-2l-0.9-0.4L222.6,68.747z M211.1,46.747l4.1,11.2h-8.5L211.1,46.747z"/>
<rect x="24.8" y="231.747" fill="#FBFBFB" width="34.3" height="32.4"/>
<path fill="#231815" d="M57.3,262.247H47.2v-2.6H48c1,0,1.9-0.4,2-1l-3.5-9.5l-4.5-12.3l-8.5,21.8c0.1,0.6,0.8,1,1.7,1h1.2v2.6h-9.7
	v-2.6h1c1,0,2-0.3,2.8-1l10.4-25h3l9.5,25c0.8,0.7,1.8,1,2.9,1h1L57.3,262.247z M35.7,248.047h11l0.9,2.6h-12L35.7,248.047z"/>
<path fill="#231815" d="M56.3,259.547c-1,0-2.1-0.3-2.9-1l-9.5-25h-3l-10.4,25.1c-0.8,0.7-1.8,1-2.8,1h-1v2.6h9.7v-2.6h-1.2
	c-1,0-1.6-0.4-1.7-1l3.1-8h10.5l3,8c-0.1,0.6-1,1-2,1h-0.8v2.6h10v-2.7L56.3,259.547z M42,236.847l4.1,11.2h-8.5L42,236.847z"/>
<g enable-background="new    ">
	<path fill="#231815" d="M41.224,388.376l-2.445-1.418l4.526-2.602c0.77-0.442,2.065-1.152,2.578-1.412l-0.03-0.018
		c-0.464-0.027-1.45-0.118-2.371-0.23l-0.892-0.11l0.284-1.462l5.265,0.749l2.189,1.27L41.224,388.376z"/>
	<path fill="#231815" d="M56.953,392.152c-3.157,1.813-6.014,2.07-8.757,0.479c-2.744-1.591-2.387-3.251,0.587-4.96
		c3.392-1.949,6.138-2.073,8.958-0.438C60.32,388.727,60.083,390.352,56.953,392.152z M51.431,388.919
		c-2.243,1.289-2.797,2.248-1.763,2.848c0.99,0.574,2.668,0.268,4.782-0.947c2.204-1.267,2.735-2.193,1.7-2.794
		C55.129,387.434,53.531,387.712,51.431,388.919z"/>
	<path fill="#231815" d="M66.014,397.406c-3.157,1.813-6.013,2.07-8.758,0.479c-2.743-1.591-2.386-3.251,0.588-4.96
		c3.392-1.949,6.138-2.074,8.957-0.439C69.38,393.982,69.144,395.607,66.014,397.406z M60.49,394.173
		c-2.243,1.29-2.796,2.249-1.762,2.85c0.989,0.573,2.668,0.267,4.782-0.948c2.204-1.267,2.734-2.194,1.7-2.794
		C64.19,392.689,62.591,392.966,60.49,394.173z"/>
	<path fill="#231815" d="M75.073,402.66c-3.157,1.813-6.014,2.071-8.757,0.479c-2.744-1.592-2.387-3.252,0.587-4.961
		c3.392-1.949,6.138-2.073,8.958-0.438C78.44,399.236,78.204,400.861,75.073,402.66z M69.551,399.428
		c-2.243,1.29-2.797,2.249-1.763,2.849c0.99,0.574,2.668,0.268,4.782-0.947c2.204-1.268,2.735-2.194,1.7-2.795
		C73.25,397.943,71.651,398.221,69.551,399.428z"/>
	<path fill="#231815" d="M109.709,419.526l-2.795-1.667l-7.461,4.289l-2.504-1.453l7.461-4.287l-2.813-1.587l1.683-0.967
		l8.112,4.705L109.709,419.526z"/>
	<path fill="#231815" d="M111.423,422.613c1.339-0.111,2.744,0.086,3.853,0.729c1.979,1.148,1.828,2.326-0.011,3.383l-3.979,2.287
		l-2.339-1.357l3.222-1.852c1.266-0.727,1.838-1.298,0.698-1.959c-1.351-0.783-2.798-0.418-4.051,0.302l-2.974,1.709l-2.339-1.356
		l9.861-5.668l2.324,1.349l-2.7,1.552c-0.47,0.27-1.084,0.605-1.597,0.865L111.423,422.613z"/>
	<path fill="#231815" d="M115.61,431.518l-2.37-1.374l6.744-3.876l2.37,1.374L115.61,431.518z M123.489,426.989l-2.37-1.374
		l1.708-0.981l2.37,1.373L123.489,426.989z"/>
	<path fill="#231815" d="M128.117,432.867c-0.276-0.326-0.618-0.614-1.099-0.893c-1.334-0.774-2.912-0.786-4.085-0.11
		c-1.187,0.682-1.181,1.544,0.243,2.37c0.465,0.27,0.937,0.482,1.599,0.656l-1.462,0.944c-0.784-0.259-1.345-0.509-2.02-0.9
		c-2.594-1.504-2.942-3.242-0.79-4.479c2.126-1.222,5.286-0.926,7.67,0.457c0.72,0.417,1.237,0.777,1.62,1.181L128.117,432.867z"/>
	<path fill="#231815" d="M130.031,437.969c0.107-0.495,0.298-1.228,0.438-1.688l-0.03-0.018l-3.339,1.918l-2.385-1.383l9.861-5.667
		l2.385,1.383l-5.909,3.396l0.03,0.018c0.691-0.051,1.914-0.095,2.749-0.107l2.562-0.035l2.685,1.557l-6.04-0.009l-0.434,4.041
		l-2.924-1.696L130.031,437.969z"/>
	<path fill="#231815" d="M141.41,440.02c1.353-0.119,2.862,0.14,3.972,0.782c1.979,1.148,1.799,2.309-0.027,3.357l-3.991,2.295
		l-2.34-1.357l3.222-1.852c1.278-0.734,1.868-1.281,0.729-1.942c-0.69-0.4-1.497-0.507-2.252-0.402
		c-0.616,0.095-1.241,0.35-1.828,0.688l-2.974,1.709l-2.34-1.356l4.604-2.646c0.613-0.353,1.315-0.773,2.065-1.273l2.219,1.287
		c-0.257,0.182-0.735,0.492-1.087,0.694L141.41,440.02z"/>
	<path fill="#231815" d="M147.98,447.053c-0.827,0.544-0.571,1.401,0.839,2.22c0.824,0.478,1.774,0.832,2.846,1.047l-1.494,0.911
		c-0.947-0.218-2.062-0.668-3.096-1.268c-2.639-1.53-3.104-3.307-0.848-4.604c2.074-1.192,5.157-1.077,7.601,0.341
		c2.294,1.33,2.409,2.753-0.043,4.162c-0.104,0.061-0.406,0.217-0.512,0.26L147.98,447.053z M152.452,448.171
		c1.004-0.578,0.862-1.172-0.067-1.711c-0.854-0.496-2.069-0.628-3.142-0.15L152.452,448.171z"/>
	<path fill="#231815" d="M162.138,452.598c-0.433-0.582-0.933-1.022-1.592-1.405c-0.676-0.391-1.36-0.518-1.765-0.285
		c-0.378,0.218-0.266,0.448,0.63,1.284c1.006,0.945,1.608,1.776,0.291,2.534c-1.422,0.816-3.554,0.484-5.594-0.699
		c-0.809-0.469-1.648-1.077-2.241-1.707l1.659-0.814c0.5,0.682,1.196,1.252,1.901,1.66c0.629,0.365,1.391,0.551,1.809,0.311
		c0.391-0.225,0.308-0.454-0.626-1.372c-1.182-1.138-1.319-1.804-0.223-2.435c1.317-0.757,3.397-0.514,5.406,0.65
		c0.915,0.531,1.575,1.035,1.985,1.543L162.138,452.598z"/>
	<path fill="#231815" d="M169.232,456.713c-0.433-0.582-0.932-1.022-1.592-1.405c-0.675-0.391-1.358-0.517-1.763-0.284
		c-0.378,0.218-0.268,0.447,0.628,1.283c1.006,0.945,1.608,1.776,0.291,2.534c-1.422,0.816-3.554,0.484-5.593-0.699
		c-0.81-0.469-1.65-1.078-2.243-1.707l1.659-0.815c0.501,0.683,1.197,1.251,1.902,1.661c0.63,0.364,1.391,0.551,1.809,0.311
		c0.391-0.225,0.309-0.454-0.625-1.372c-1.183-1.138-1.32-1.804-0.224-2.435c1.317-0.757,3.397-0.515,5.407,0.65
		c0.914,0.531,1.574,1.035,1.984,1.543L169.232,456.713z"/>
	<path fill="#231815" d="M231.899,493.615c-3.157,1.814-6.014,2.07-8.757,0.479c-2.744-1.592-2.387-3.252,0.587-4.961
		c3.392-1.949,6.138-2.073,8.958-0.438C235.267,490.191,235.03,491.816,231.899,493.615z M226.377,490.382
		c-2.243,1.29-2.797,2.249-1.763,2.85c0.99,0.574,2.668,0.267,4.782-0.948c2.204-1.267,2.735-2.194,1.7-2.794
		C230.076,488.898,228.478,489.175,226.377,490.382z"/>
</g>
<g enable-background="new    ">
	<path fill="#231815" d="M328.742,494.78l-2.443,1.418l-4.526-2.602c-0.771-0.442-2.006-1.188-2.458-1.481l-0.03,0.017
		c-0.047,0.268-0.198,0.839-0.388,1.37l-0.188,0.516l-2.532-0.157l1.272-3.044l2.188-1.27L328.742,494.78z"/>
	<path fill="#231815" d="M335.211,485.681c3.156,1.814,3.614,3.462,0.87,5.054c-2.744,1.591-5.622,1.392-8.596-0.317
		c-3.392-1.949-3.619-3.534-0.8-5.169C329.265,483.752,332.08,483.881,335.211,485.681z M329.637,488.884
		c2.244,1.289,3.907,1.604,4.942,1.004c0.989-0.574,0.45-1.541-1.663-2.756c-2.205-1.267-3.813-1.568-4.849-0.969
		C327.048,486.755,327.537,487.677,329.637,488.884z"/>
	<path fill="#231815" d="M344.271,480.426c3.156,1.814,3.614,3.462,0.87,5.054s-5.622,1.393-8.596-0.316
		c-3.392-1.95-3.619-3.535-0.8-5.17C338.324,478.497,341.141,478.626,344.271,480.426z M338.697,483.629
		c2.244,1.289,3.907,1.604,4.941,1.004c0.99-0.573,0.451-1.541-1.662-2.756c-2.205-1.267-3.814-1.568-4.849-0.969
		C336.108,481.5,336.598,482.422,338.697,483.629z"/>
	<path fill="#231815" d="M353.332,475.171c3.156,1.814,3.613,3.463,0.869,5.054c-2.744,1.592-5.621,1.393-8.595-0.316
		c-3.392-1.95-3.62-3.534-0.801-5.17C347.385,473.243,350.201,473.372,353.332,475.171z M347.758,478.374
		c2.244,1.29,3.906,1.604,4.941,1.005c0.99-0.574,0.451-1.542-1.662-2.757c-2.205-1.267-3.814-1.568-4.849-0.969
		C345.168,476.245,345.658,477.167,347.758,478.374z"/>
</g>
<g enable-background="new    ">
	<path fill="#231815" d="M364.956,465.552c-1.044,0.271-1.775,0.57-2.361,0.908c-0.9,0.517-1.188,1.057-0.601,1.394
		c0.509,0.292,1.083,0.277,2.856-0.188c2.257-0.606,3.836-0.63,5.219,0.165c1.799,1.034,1.512,2.459-0.705,3.733
		c-0.926,0.532-1.904,0.944-2.975,1.26l-1.617-1.14c1.2-0.255,2.178-0.637,2.818-1.005c0.912-0.524,1.187-1.087,0.521-1.47
		c-0.588-0.336-1.317-0.291-3.104,0.181c-2.087,0.555-3.665,0.606-4.997-0.157c-1.747-1.005-1.251-2.414,0.758-3.568
		c0.861-0.495,1.682-0.878,2.646-1.163L364.956,465.552z"/>
</g>
<g enable-background="new    ">
	<path fill="#231815" d="M366.568,465.226l1.356-0.78l-1.474-0.847l1.277-1.484l2.127,1.222l1.617-0.93l1.447,0.833l-1.617,0.93
		l2.635,1.514c0.705,0.405,1.396,0.638,2.23,0.158c0.234-0.135,0.457-0.293,0.6-0.451l1.488,0.796
		c-0.287,0.284-0.73,0.6-1.162,0.847c-1.669,0.96-3.156,0.944-4.891-0.053l-2.896-1.664l-1.291,0.742L366.568,465.226z"/>
</g>
<g enable-background="new    ">
	<path fill="#231815" d="M375.809,461.503c-0.637-0.756-0.6-1.438,0.418-2.023c0.236-0.135,0.496-0.255,0.744-0.322l1.684,1.027
		c-0.301,0.082-0.549,0.194-0.797,0.336c-1.188,0.683-0.861,1.471,0.912,2.49l2.57,1.477l-2.074,1.191l-4.734-2.721
		c-0.717-0.412-1.461-0.825-2.074-1.117l1.879-1.08c0.299,0.143,1.068,0.54,1.447,0.758L375.809,461.503z"/>
</g>
<g enable-background="new    ">
	<path fill="#231815" d="M387.564,459.62c0.314,0.69,0.039,1.417-1.057,2.047c-1.344,0.772-3.156,0.869-4.447,0.127
		c-1.475-0.847-0.953-2.016,1.291-3.306c0.273-0.157,0.652-0.36,1.004-0.532c-0.939-0.539-1.852-0.465-2.844,0.105
		c-0.717,0.412-1.291,1.012-1.564,1.559l-1.553-0.817c0.367-0.6,1.227-1.274,2.035-1.739c2.18-1.252,4.135-1.191,5.91-0.172
		c0.43,0.247,1.121,0.675,1.668,0.989c1.215,0.697,2.023,1.117,2.506,1.335l-1.787,1.027c-0.131-0.045-0.379-0.173-0.574-0.286
		c-0.145-0.082-0.34-0.21-0.561-0.352L387.564,459.62z M384.93,458.871c-1.291,0.742-1.721,1.319-1.004,1.731
		c0.574,0.33,1.238,0.262,1.852-0.09c0.887-0.51,0.939-1.229-0.285-1.934C385.32,458.661,385.125,458.759,384.93,458.871z"/>
	<path fill="#231815" d="M386.264,452.602l-2.061,1.185l-1.709-0.982l2.061-1.185L386.264,452.602z M394.143,457.129l-2.061,1.185
		l-6.744-3.876l2.061-1.185L394.143,457.129z"/>
	<path fill="#231815" d="M395.07,450.044c-0.443-0.225-0.73-0.39-1.07-0.585l1.904-1.095l6.145,3.531
		c2.27,1.305,2.139,2.789-0.314,4.199c-0.912,0.524-1.982,0.988-3.168,1.311l-1.527-1.041c1.266-0.232,2.27-0.585,3.027-1.02
		c1.174-0.675,1.486-1.455,0.025-2.295c-0.184-0.105-0.404-0.232-0.625-0.39l-0.027,0.015c0.275,0.683,0.027,1.38-0.99,1.965
		c-1.787,1.027-4.318,0.922-6.354-0.247c-2.074-1.192-2.27-2.729-0.469-3.764c1.057-0.607,2.164-0.75,3.416-0.57L395.07,450.044z
		 M394.131,453.163c1.082,0.622,2.479,0.734,3.365,0.225c0.9-0.518,0.744-1.357-0.326-1.973c-1.096-0.629-2.543-0.727-3.482-0.187
		C392.826,451.724,393.035,452.533,394.131,453.163z"/>
	<path fill="#231815" d="M400.773,446.87c-0.273-0.727-0.051-1.469,0.914-2.023c1.723-0.99,3.639-0.832,5.479,0.225l3.979,2.287
		l-2.035,1.169l-3.223-1.852c-1.266-0.728-2.23-1.072-3.221-0.503c-1.174,0.675-0.484,1.478,0.768,2.197l2.975,1.709l-2.035,1.17
		l-9.861-5.668l2.023-1.162l2.699,1.552c0.471,0.271,1.057,0.622,1.514,0.915L400.773,446.87z"/>
	<path fill="#231815" d="M405.344,442.941l1.355-0.78l-1.473-0.847l1.277-1.484l2.127,1.222l1.617-0.93l1.447,0.833l-1.617,0.93
		l2.635,1.514c0.705,0.404,1.396,0.637,2.23,0.157c0.234-0.135,0.457-0.292,0.6-0.45l1.488,0.795c-0.287,0.285-0.73,0.6-1.162,0.848
		c-1.67,0.959-3.156,0.944-4.891-0.053l-2.896-1.664l-1.291,0.742L405.344,442.941z"/>
	<path fill="#231815" d="M417.059,440.736c0.939,0.479,2.309,0.396,3.535-0.308c0.717-0.412,1.227-0.9,1.5-1.462l1.578,0.861
		c-0.287,0.495-0.939,1.065-1.84,1.582c-2.295,1.32-5.139,1.455-7.395,0.158c-2.074-1.192-2.1-2.842,0.025-4.063
		c1.996-1.147,4.291-1.117,6.744,0.293c0.104,0.06,0.379,0.231,0.457,0.292L417.059,440.736z M418.559,438.404
		c-1.004-0.577-1.957-0.539-2.766-0.074c-0.742,0.427-0.873,1.071-0.025,1.679L418.559,438.404z"/>
	<path fill="#231815" d="M422.332,434.766c-0.639-0.757-0.6-1.439,0.418-2.024c0.234-0.135,0.496-0.255,0.742-0.322l1.684,1.027
		c-0.301,0.082-0.549,0.194-0.797,0.337c-1.188,0.683-0.859,1.47,0.914,2.489l2.568,1.477l-2.072,1.192l-4.734-2.722
		c-0.719-0.412-1.463-0.824-2.076-1.117l1.879-1.079c0.301,0.142,1.07,0.539,1.447,0.757L422.332,434.766z"/>
</g>
<g enable-background="new    ">
	<path fill="#231815" d="M459.971,413.614c3.156,1.814,3.614,3.463,0.87,5.054c-2.744,1.592-5.622,1.393-8.595-0.316
		c-3.393-1.95-3.619-3.534-0.8-5.17C454.025,411.687,456.84,411.816,459.971,413.614z M454.396,416.818
		c2.244,1.289,3.907,1.604,4.942,1.004c0.989-0.573,0.451-1.541-1.662-2.756c-2.205-1.267-3.814-1.568-4.849-0.969
		C451.808,414.689,452.297,415.611,454.396,416.818z"/>
</g>
<polygon fill="#231815" points="174.1,467.747 170,470.147 77,416.447 77,416.447 74.9,415.247 79,412.847 66.3,410.947 
	69.7,418.247 73.8,415.947 166.8,469.647 166.8,469.647 168.9,470.747 164.8,473.147 177.5,475.147 "/>
<polygon fill="#231815" points="353.1,484.347 357.2,486.747 450.2,433.047 450.2,433.047 452.2,431.847 448.2,429.447 
	460.9,427.547 457.5,434.847 453.4,432.547 360.4,486.147 360.4,486.147 358.3,487.447 362.4,489.747 349.7,491.747 "/>
<polygon fill="#231815" points="491.7,354.647 495.8,357.047 495.8,249.647 495.8,249.647 495.8,247.247 491.7,244.847 
	496.4,238.247 501,250.247 496.9,247.847 496.9,355.247 496.9,355.247 496.9,357.647 501,360.047 496.4,366.647 "/>
<g enable-background="new    ">
	<path fill="#231815" d="M482.39,380.256c3.156,1.813,4.813,3.967,4.813,6.712c0,2.744-1.618,3.074-4.592,1.365
		c-3.392-1.949-4.879-4.063-4.879-6.884C477.732,378.87,479.259,378.456,482.39,380.256z M482.363,385.79
		c2.244,1.29,3.352,1.372,3.352,0.338c0-0.99-1.107-2.197-3.221-3.412c-2.205-1.268-3.274-1.342-3.274-0.307
		C479.22,383.429,480.264,384.584,482.363,385.79z"/>
	<path fill="#231815" d="M487.02,314.968v2.49l-3.86-2.219v3.944l3.86,2.22v2.489l-9.104-5.233v-2.49l3.548,2.04v-3.944l-3.548-2.04
		v-2.49L487.02,314.968z"/>
	<path fill="#231815" d="M484.216,309.396c0.887,0.449,1.499-0.068,1.499-1.479c0-0.824-0.169-1.702-0.521-2.624l1.539,0.84
		c0.287,0.825,0.457,1.866,0.457,2.901c0,2.641-1.304,3.66-3.561,2.363c-2.074-1.191-3.521-3.658-3.521-6.104
		c0-2.295,1.173-2.91,3.626-1.5c0.104,0.059,0.392,0.239,0.482,0.307V309.396z M482.938,305.466
		c-1.004-0.577-1.447-0.247-1.447,0.683c0,0.855,0.494,1.86,1.447,2.527V305.466z"/>
	<path fill="#231815" d="M479.142,297.224v2.37l-1.71-0.982v-2.37L479.142,297.224z M487.02,301.752v2.37l-6.743-3.876v-2.37
		L487.02,301.752z"/>
	<path fill="#231815" d="M481.319,290.856c-0.417-0.21-0.704-0.374-1.043-0.569v-2.189l6.144,3.53
		c2.27,1.305,3.496,3.569,3.496,6.39c0,1.05-0.131,2.055-0.443,2.88l-1.67-1.125c0.431-0.712,0.627-1.53,0.627-2.399
		c0-1.351-0.522-2.61-1.983-3.45c-0.183-0.104-0.404-0.232-0.652-0.405v0.03c0.731,0.945,1.214,2.063,1.214,3.233
		c0,2.055-1.357,2.624-3.393,1.455c-2.074-1.192-3.508-3.441-3.508-5.512c0-1.215,0.43-1.748,1.212-1.838v-0.031H481.319z
		 M483.562,295.805c1.084,0.622,1.879,0.39,1.879-0.63c0-1.035-0.809-2.25-1.879-2.865c-1.095-0.629-1.903-0.359-1.903,0.721
		C481.659,294.021,482.468,295.175,483.562,295.805z"/>
	<path fill="#231815" d="M481.41,284.458c-0.77-1.013-1.303-2.189-1.303-3.3c0-1.979,1.096-2.295,2.934-1.238l3.979,2.287v2.34
		l-3.221-1.852c-1.266-0.728-2.049-0.967-2.049,0.173c0,1.35,1.043,2.354,2.296,3.074l2.974,1.709v2.341l-9.861-5.668v-2.325
		l2.701,1.552c0.469,0.271,1.068,0.63,1.551,0.937L481.41,284.458L481.41,284.458z"/>
	<path fill="#231815" d="M480.276,277.251v-1.561l-1.474-0.847l-0.652-2.595l2.126,1.222v-1.86l1.448,0.832v1.86l2.635,1.515
		c0.704,0.404,1.252,0.555,1.252-0.405c0-0.271-0.026-0.57-0.092-0.848l1.436,0.765c0.104,0.51,0.156,1.109,0.156,1.605
		c0,1.92-0.757,2.324-2.492,1.327l-2.895-1.664v1.485L480.276,277.251z"/>
	<path fill="#231815" d="M487.02,238.017v2.445l-4.525-2.602c-0.77-0.442-2.035-1.199-2.518-1.507v0.03
		c0.209,0.375,0.626,1.184,0.992,1.95l0.351,0.742l-1.407,0.315l-1.997-4.417v-2.19L487.02,238.017z"/>
	<path fill="#231815" d="M482.39,224.256c3.156,1.814,4.813,3.966,4.813,6.711s-1.618,3.075-4.592,1.366
		c-3.392-1.949-4.879-4.063-4.879-6.883C477.732,222.869,479.259,222.456,482.39,224.256z M482.363,229.79
		c2.244,1.29,3.352,1.372,3.352,0.337c0-0.99-1.107-2.197-3.221-3.412c-2.205-1.267-3.274-1.342-3.274-0.307
		C479.22,227.429,480.264,228.584,482.363,229.79z"/>
	<path fill="#231815" d="M482.39,215.196c3.156,1.814,4.813,3.967,4.813,6.711c0,2.745-1.618,3.075-4.592,1.366
		c-3.392-1.949-4.879-4.063-4.879-6.884C477.732,213.809,479.259,213.396,482.39,215.196z M482.363,220.73
		c2.244,1.29,3.352,1.372,3.352,0.337c0-0.99-1.107-2.197-3.221-3.412c-2.205-1.267-3.274-1.342-3.274-0.307
		C479.22,218.368,480.264,219.524,482.363,220.73z"/>
	<path fill="#231815" d="M482.39,206.135c3.156,1.814,4.813,3.966,4.813,6.711s-1.618,3.075-4.592,1.366
		c-3.392-1.949-4.879-4.063-4.879-6.883C477.732,204.749,479.259,204.336,482.39,206.135z M482.363,211.67
		c2.244,1.29,3.352,1.372,3.352,0.337c0-0.99-1.107-2.197-3.221-3.412c-2.205-1.267-3.274-1.342-3.274-0.307
		C479.22,209.309,480.264,210.464,482.363,211.67z"/>
</g>
</svg>
