<?xml version="1.0" encoding="utf-8"?>
<!-- Generator: Adobe Illustrator 21.1.0, SVG Export Plug-In . SVG Version: 6.00 Build 0)  -->
<svg version="1.1" id="レイヤー_1" xmlns="http://www.w3.org/2000/svg" xmlns:xlink="http://www.w3.org/1999/xlink" x="0px"
	 y="0px" viewBox="0 0 141.732 141.732" enable-background="new 0 0 141.732 141.732" xml:space="preserve">
<g>
	<path fill="#9FA0A0" d="M70.865,70.826L56.192,16.065c4.839-1.297,9.664-1.932,14.673-1.932V70.826z"/>
	<path fill="#727171" d="M70.865,70.826L49.627,18.261c2.322-0.938,4.145-1.548,6.564-2.196L70.865,70.826z"/>
	<path fill="#595757" d="M70.865,70.826l-56.615-2.967c1.18-22.513,14.476-41.153,35.378-49.598L70.865,70.826z"/>
	<path fill="#3E3A39" d="M70.865,70.826V14.133c31.311,0,56.693,25.382,56.693,56.693s-25.382,56.693-56.693,56.693
		s-56.693-25.382-56.693-56.693c0-1.252,0.012-1.716,0.078-2.967L70.865,70.826z"/>
</g>
<line fill="none" stroke="#000000" stroke-linecap="round" stroke-linejoin="round" stroke-miterlimit="10" x1="62.771" y1="10.703" x2="63.012" y2="16.237"/>
<g>
	<path fill="#FFFFFF" d="M90.94,89.992l-2.549,5.827h-1.549l2.668-5.867h-3.388v-1.109h4.817V89.992z"/>
	<path fill="#FFFFFF" d="M96.579,90.043c-0.419-0.181-0.849-0.271-1.289-0.271c-1.169,0-1.869,0.84-1.898,2.299h0.02
		c0.35-0.47,0.979-0.76,1.619-0.76c1.329,0,2.159,0.89,2.159,2.219c0,1.39-0.97,2.409-2.559,2.409c-1.709,0-2.589-1.189-2.589-3.368
		c0-2.469,1.199-3.848,3.179-3.848c0.529,0,1.079,0.069,1.499,0.22L96.579,90.043z M93.501,93.58c0,0.78,0.5,1.38,1.18,1.38
		c0.76,0,1.149-0.609,1.149-1.329c0-0.75-0.3-1.319-1.09-1.319C94.111,92.311,93.501,92.881,93.501,93.58z"/>
</g>
<g>
	<path fill="#FFFFFF" d="M88.561,80.341c0.05-0.029,0.07-0.024,0.105,0.005c0.08,0.065,0.22,0.206,0.311,0.326
		c0.034,0.045,0.02,0.06-0.025,0.095l-0.115,0.075c0.29,0,0.4-0.01,0.426-0.01c0.05,0,0.055,0.005,0.055,0.05v0.335
		c0,0.051-0.005,0.056-0.055,0.056c-0.03,0-0.195-0.011-0.671-0.011h-0.49c0.04,0.341,0.104,0.661,0.21,0.946
		c0.1-0.15,0.175-0.3,0.24-0.44c0.03-0.08,0.07-0.195,0.095-0.311c0.15,0.045,0.291,0.101,0.405,0.155
		c0.04,0.021,0.061,0.05,0.061,0.07c0,0.03-0.021,0.05-0.045,0.075c-0.03,0.029-0.05,0.06-0.101,0.15
		c-0.12,0.25-0.26,0.505-0.44,0.745c0.136,0.205,0.28,0.315,0.371,0.315c0.125,0,0.175-0.141,0.234-0.48
		c0.075,0.07,0.176,0.13,0.251,0.165c0.095,0.045,0.13,0.065,0.13,0.115c0,0.025-0.01,0.06-0.025,0.11
		c-0.125,0.42-0.29,0.605-0.575,0.605c-0.24,0-0.49-0.17-0.706-0.461c-0.115,0.115-0.24,0.23-0.38,0.331
		c-0.061,0.04-0.096,0.064-0.12,0.064c-0.03,0-0.056-0.03-0.11-0.095c-0.06-0.065-0.105-0.11-0.165-0.16
		c-0.005,0.025-0.021,0.025-0.055,0.025c-0.035,0-0.131-0.011-0.426-0.011h-0.471c-0.295,0-0.391,0.011-0.425,0.011
		c-0.051,0-0.056-0.006-0.056-0.056c0-0.035,0.01-0.11,0.01-0.32v-0.33c0-0.21-0.01-0.285-0.01-0.32c0-0.05,0.005-0.056,0.056-0.056
		c0.034,0,0.13,0.011,0.425,0.011h0.471c0.295,0,0.391-0.011,0.426-0.011c0.05,0,0.055,0.006,0.055,0.056
		c0,0.03-0.01,0.11-0.01,0.32v0.33c0,0.15,0.005,0.23,0.005,0.275c0.215-0.13,0.396-0.28,0.551-0.445
		c-0.186-0.386-0.291-0.891-0.355-1.382h-1.782v0.336c0,0.275-0.035,0.75-0.09,1.006c-0.07,0.315-0.16,0.586-0.335,0.876
		c-0.04,0.069-0.061,0.1-0.091,0.1c-0.02,0-0.05-0.024-0.104-0.075c-0.11-0.1-0.221-0.17-0.32-0.215
		c0.2-0.275,0.295-0.495,0.36-0.796c0.064-0.275,0.095-0.601,0.095-1.065c0-0.351-0.01-0.516-0.01-0.546
		c0-0.045,0.005-0.05,0.06-0.05c0.03,0,0.195,0.01,0.676,0.01h1.497c-0.021-0.181-0.03-0.365-0.061-0.511
		c0.175,0.005,0.36,0.021,0.506,0.035c0.05,0.005,0.075,0.025,0.075,0.055c0,0.035-0.016,0.065-0.025,0.091
		c-0.015,0.055-0.01,0.154-0.005,0.33h0.48c-0.075-0.096-0.176-0.205-0.23-0.261c-0.02-0.015-0.025-0.029-0.025-0.045
		c0-0.015,0.011-0.035,0.04-0.05L88.561,80.341z M85.013,84.551c-0.061-0.035-0.061-0.056-0.03-0.096
		c0.205-0.23,0.391-0.54,0.505-0.836c0.021-0.055,0.03-0.055,0.101-0.024l0.295,0.13c0.065,0.03,0.07,0.04,0.056,0.09
		c-0.131,0.33-0.301,0.626-0.511,0.901c-0.03,0.04-0.045,0.04-0.101,0.01L85.013,84.551z M86.994,81.497
		c0.301,0,0.421-0.01,0.45-0.01c0.045,0,0.051,0.005,0.051,0.06v0.291c0,0.05-0.006,0.055-0.051,0.055
		c-0.029,0-0.149-0.01-0.45-0.01h-0.511c-0.295,0-0.415,0.01-0.445,0.01c-0.05,0-0.055-0.005-0.055-0.055v-0.291
		c0-0.055,0.005-0.06,0.055-0.06c0.03,0,0.15,0.01,0.445,0.01H86.994z M86.639,84.16c0,0.1,0.021,0.165,0.08,0.2
		c0.08,0.04,0.296,0.045,0.506,0.045c0.365,0,0.505,0.005,0.61-0.056c0.085-0.045,0.125-0.189,0.13-0.43
		c0.101,0.064,0.216,0.109,0.36,0.15c0.131,0.039,0.131,0.039,0.115,0.175c-0.04,0.275-0.135,0.41-0.275,0.49
		c-0.185,0.101-0.46,0.12-0.98,0.12c-0.44,0-0.721-0.025-0.866-0.1c-0.115-0.065-0.185-0.171-0.185-0.436v-0.44
		c0-0.141,0-0.235-0.025-0.381c0.165,0,0.351,0.011,0.495,0.03c0.061,0.01,0.091,0.025,0.091,0.045c0,0.03-0.006,0.045-0.025,0.085
		c-0.021,0.045-0.03,0.096-0.03,0.181V84.16z M87.009,82.463h-0.595v0.365h0.595V82.463z M87.164,83.319
		c0.051-0.035,0.065-0.035,0.105-0.005c0.19,0.154,0.32,0.3,0.471,0.495c0.029,0.035,0.035,0.045-0.016,0.08l-0.26,0.2
		c-0.03,0.025-0.05,0.035-0.065,0.035c-0.015,0-0.024-0.01-0.04-0.035c-0.13-0.195-0.275-0.36-0.436-0.521
		c-0.04-0.04-0.04-0.045,0.021-0.09L87.164,83.319z M88.711,83.519c0.03-0.016,0.045-0.025,0.06-0.025
		c0.016,0,0.025,0.01,0.046,0.03c0.234,0.255,0.425,0.525,0.59,0.836c0.025,0.05,0.025,0.06-0.04,0.1l-0.31,0.19
		c-0.065,0.04-0.08,0.045-0.101-0.005c-0.14-0.33-0.306-0.605-0.535-0.866c-0.04-0.04-0.035-0.055,0.024-0.09L88.711,83.519z"/>
	<path fill="#FFFFFF" d="M91.014,80.672c0.085,0.02,0.12,0.045,0.12,0.095c0,0.055-0.03,0.115-0.05,0.165
		c-0.025,0.07-0.045,0.226-0.07,0.61c-0.055,0.871-0.075,1.332-0.075,1.922c0,0.541,0.061,0.636,0.461,0.636
		c0.445,0,1.141-0.27,1.752-0.921c0.02,0.19,0.064,0.355,0.114,0.476c0.025,0.055,0.04,0.09,0.04,0.12c0,0.045-0.02,0.085-0.1,0.155
		c-0.541,0.495-1.246,0.751-1.896,0.751c-0.641,0-0.941-0.256-0.941-1.021c0-0.841,0.045-1.562,0.07-2.162
		c0.01-0.295,0.024-0.615-0.05-0.916C90.618,80.606,90.858,80.632,91.014,80.672z M92.53,81.002c0.025-0.021,0.045-0.016,0.075,0.01
		c0.155,0.12,0.335,0.32,0.476,0.535c0.02,0.03,0.02,0.056-0.016,0.08l-0.21,0.155c-0.035,0.025-0.06,0.021-0.085-0.015
		c-0.15-0.23-0.311-0.42-0.506-0.58L92.53,81.002z M92.976,80.677c0.03-0.021,0.045-0.016,0.075,0.01
		c0.186,0.14,0.365,0.341,0.476,0.516c0.02,0.03,0.025,0.06-0.015,0.09l-0.2,0.155c-0.04,0.03-0.065,0.015-0.086-0.015
		c-0.135-0.216-0.295-0.405-0.5-0.576L92.976,80.677z"/>
	<path fill="#FFFFFF" d="M96.569,81.232c0.056-0.016,0.075,0.01,0.08,0.05c0.016,0.11,0.03,0.255,0.035,0.36
		c0.005,0.064-0.01,0.08-0.075,0.095c-0.31,0.085-0.565,0.141-0.87,0.19c-0.341,1.111-0.596,1.877-0.916,2.708
		c-0.025,0.069-0.056,0.064-0.11,0.05c-0.05-0.021-0.295-0.125-0.4-0.186c-0.04-0.024-0.055-0.064-0.04-0.1
		c0.38-0.876,0.62-1.537,0.866-2.373c-0.291,0.03-0.641,0.056-0.876,0.056c-0.075,0-0.096-0.015-0.105-0.08
		c-0.02-0.105-0.045-0.275-0.07-0.456c0.105,0.016,0.165,0.016,0.371,0.016c0.25,0,0.521-0.016,0.811-0.05
		c0.05-0.2,0.09-0.421,0.125-0.626c0.02-0.15,0.03-0.301,0.03-0.461c0.265,0.041,0.47,0.075,0.63,0.141
		c0.04,0.015,0.056,0.05,0.056,0.08c0,0.02,0,0.045-0.025,0.08c-0.04,0.07-0.08,0.12-0.104,0.2c-0.051,0.181-0.086,0.351-0.12,0.476
		C96.054,81.367,96.324,81.302,96.569,81.232z M96.374,83.624c0.051,0,0.07,0.021,0.075,0.07c0.04,0.365,0.285,0.471,0.766,0.471
		c0.28,0,0.641-0.045,0.841-0.07c0.04-0.005,0.056,0.005,0.061,0.045c0.02,0.13,0.04,0.301,0.04,0.436
		c0.005,0.061,0,0.075-0.08,0.08c-0.17,0.025-0.495,0.056-0.681,0.056c-0.655,0-0.996-0.091-1.222-0.326
		c-0.16-0.16-0.215-0.395-0.225-0.686C96.105,83.659,96.31,83.624,96.374,83.624z M96.319,82.298c0-0.069,0.015-0.085,0.09-0.1
		c0.315-0.065,0.686-0.115,0.977-0.115c0.195,0,0.41,0.02,0.585,0.05c0.07,0.01,0.085,0.016,0.085,0.075
		c0.011,0.125,0.011,0.266,0.006,0.4c0,0.085-0.025,0.105-0.096,0.09c-0.175-0.035-0.405-0.06-0.62-0.06
		c-0.301,0-0.681,0.05-1.006,0.115C96.329,82.578,96.319,82.398,96.319,82.298z"/>
</g>
<g>
	<path fill="#FFFFFF" d="M38.758,66.418h-1.42v-3.648c0-0.589,0.021-1.539,0.04-1.908h-0.02c-0.16,0.159-0.49,0.439-0.85,0.729
		l-0.36,0.29l-0.689-0.939l2.029-1.5h1.27V66.418z"/>
	<path fill="#FFFFFF" d="M46.196,64.518c0,1.279-1.139,2.02-2.648,2.02c-1.539,0-2.599-0.72-2.599-1.939
		c0-0.839,0.49-1.419,1.529-1.829c-1.02-0.399-1.359-0.899-1.359-1.648c0-1.1,1-1.799,2.469-1.799c1.39,0,2.389,0.629,2.389,1.709
		c0,0.749-0.399,1.249-1.31,1.669C45.757,63.1,46.196,63.63,46.196,64.518z M42.358,64.509c0,0.649,0.5,1.04,1.21,1.04
		c0.689,0,1.239-0.391,1.239-1.02c0-0.63-0.44-0.989-1.359-1.279C42.729,63.51,42.358,63.909,42.358,64.509z M44.607,61.19
		c0-0.609-0.439-0.909-1.06-0.909c-0.6,0-1.1,0.32-1.1,0.869c0,0.601,0.48,0.91,1.229,1.17
		C44.308,62.051,44.607,61.681,44.607,61.19z"/>
</g>
<g>
	<path d="M6.133,11.723c0.56-0.26,1.309-0.409,2.078-0.409c1.29,0,2.389,0.649,2.389,2.019c0,0.88-0.409,1.669-1.698,2.878
		c-0.59,0.55-1.02,0.87-1.39,1.12v0.02c0.63-0.02,1.449-0.03,2.069-0.03h1.169v1.09H5.992V17.25
		c2.239-1.819,3.139-2.769,3.139-3.769c0-0.759-0.55-1.069-1.249-1.069c-0.51,0-1.05,0.15-1.609,0.47L6.133,11.723z"/>
</g>
<g>
	<path d="M48.71,6.953h0.949v1.059H48.71v1.43h-1.33v-1.43h-3.228V6.893l2.858-4.428h1.699V6.953z M47.41,5.773
		c0-0.59,0.01-1.499,0.04-2.278h-0.02c-0.261,0.51-0.75,1.339-0.99,1.719l-1.079,1.739h2.049V5.773z"/>
</g>
<g>
	<path fill="#FFFFFF" d="M31.238,39.253c0.05-0.029,0.069-0.024,0.104,0.005c0.08,0.065,0.221,0.206,0.311,0.326
		c0.035,0.045,0.021,0.06-0.025,0.095l-0.114,0.075c0.29,0,0.4-0.01,0.425-0.01c0.05,0,0.056,0.005,0.056,0.05v0.335
		c0,0.051-0.006,0.056-0.056,0.056c-0.03,0-0.195-0.011-0.671-0.011h-0.49c0.04,0.341,0.105,0.661,0.21,0.946
		c0.101-0.15,0.176-0.3,0.24-0.44c0.03-0.08,0.07-0.195,0.096-0.311c0.15,0.045,0.29,0.101,0.405,0.155
		c0.04,0.021,0.06,0.05,0.06,0.07c0,0.03-0.02,0.05-0.045,0.075c-0.029,0.029-0.05,0.06-0.1,0.15c-0.12,0.25-0.261,0.505-0.44,0.745
		c0.135,0.205,0.28,0.315,0.37,0.315c0.125,0,0.175-0.141,0.235-0.48c0.075,0.07,0.175,0.13,0.25,0.165
		c0.096,0.045,0.13,0.065,0.13,0.115c0,0.025-0.01,0.06-0.024,0.11c-0.125,0.42-0.29,0.605-0.576,0.605
		c-0.24,0-0.49-0.17-0.705-0.461c-0.115,0.115-0.24,0.23-0.381,0.331c-0.06,0.04-0.095,0.064-0.12,0.064
		c-0.029,0-0.055-0.03-0.109-0.095c-0.061-0.065-0.105-0.11-0.166-0.16c-0.005,0.025-0.02,0.025-0.055,0.025
		s-0.13-0.011-0.426-0.011h-0.47c-0.296,0-0.391,0.011-0.426,0.011c-0.05,0-0.055-0.006-0.055-0.056c0-0.035,0.01-0.11,0.01-0.32
		v-0.33c0-0.21-0.01-0.285-0.01-0.32c0-0.05,0.005-0.056,0.055-0.056c0.035,0,0.13,0.011,0.426,0.011h0.47
		c0.296,0,0.391-0.011,0.426-0.011c0.05,0,0.055,0.006,0.055,0.056c0,0.03-0.01,0.11-0.01,0.32v0.33c0,0.15,0.005,0.23,0.005,0.275
		c0.216-0.13,0.396-0.28,0.551-0.445c-0.186-0.386-0.29-0.891-0.355-1.382h-1.781v0.336c0,0.275-0.035,0.75-0.091,1.006
		c-0.069,0.315-0.16,0.586-0.335,0.876c-0.04,0.069-0.06,0.1-0.09,0.1c-0.021,0-0.05-0.024-0.105-0.075
		c-0.11-0.1-0.22-0.17-0.32-0.215c0.2-0.275,0.296-0.495,0.36-0.796C28,41.13,28.03,40.805,28.03,40.34
		c0-0.351-0.011-0.516-0.011-0.546c0-0.045,0.005-0.05,0.061-0.05c0.03,0,0.195,0.01,0.676,0.01h1.496
		c-0.02-0.181-0.03-0.365-0.06-0.511c0.175,0.005,0.36,0.021,0.505,0.035c0.05,0.005,0.075,0.025,0.075,0.055
		c0,0.035-0.015,0.065-0.025,0.091c-0.015,0.055-0.01,0.154-0.005,0.33h0.48c-0.075-0.096-0.175-0.205-0.229-0.261
		c-0.021-0.015-0.025-0.029-0.025-0.045c0-0.015,0.01-0.035,0.04-0.05L31.238,39.253z M27.69,43.463
		c-0.06-0.035-0.06-0.056-0.03-0.096c0.205-0.23,0.391-0.54,0.506-0.836c0.02-0.055,0.03-0.055,0.1-0.024l0.296,0.13
		c0.064,0.03,0.07,0.04,0.055,0.09c-0.13,0.33-0.3,0.626-0.511,0.901c-0.029,0.04-0.045,0.04-0.1,0.01L27.69,43.463z M29.672,40.409
		c0.3,0,0.42-0.01,0.45-0.01c0.045,0,0.05,0.005,0.05,0.06v0.291c0,0.05-0.005,0.055-0.05,0.055c-0.03,0-0.15-0.01-0.45-0.01h-0.511
		c-0.296,0-0.416,0.01-0.445,0.01c-0.051,0-0.056-0.005-0.056-0.055v-0.291c0-0.055,0.005-0.06,0.056-0.06
		c0.029,0,0.149,0.01,0.445,0.01H29.672z M29.316,43.072c0,0.1,0.02,0.165,0.08,0.2c0.08,0.04,0.295,0.045,0.505,0.045
		c0.365,0,0.506,0.005,0.611-0.056c0.085-0.045,0.125-0.189,0.13-0.43c0.1,0.064,0.215,0.109,0.36,0.15
		c0.13,0.039,0.13,0.039,0.115,0.175c-0.04,0.275-0.136,0.41-0.275,0.49c-0.186,0.101-0.461,0.12-0.981,0.12
		c-0.44,0-0.721-0.025-0.865-0.1c-0.115-0.065-0.186-0.171-0.186-0.436v-0.44c0-0.141,0-0.235-0.025-0.381
		c0.166,0,0.351,0.011,0.496,0.03c0.06,0.01,0.09,0.025,0.09,0.045c0,0.03-0.005,0.045-0.025,0.085
		c-0.02,0.045-0.029,0.096-0.029,0.181V43.072z M29.687,41.375h-0.596v0.365h0.596V41.375z M29.842,42.231
		c0.05-0.035,0.064-0.035,0.104-0.005c0.19,0.154,0.32,0.3,0.471,0.495c0.03,0.035,0.035,0.045-0.015,0.08l-0.261,0.2
		c-0.029,0.025-0.05,0.035-0.064,0.035c-0.016,0-0.025-0.01-0.04-0.035c-0.131-0.195-0.275-0.36-0.436-0.521
		c-0.04-0.04-0.04-0.045,0.02-0.09L29.842,42.231z M31.388,42.432c0.03-0.016,0.046-0.025,0.061-0.025s0.025,0.01,0.045,0.03
		c0.235,0.255,0.426,0.525,0.591,0.836c0.024,0.05,0.024,0.06-0.04,0.1l-0.311,0.19c-0.065,0.04-0.08,0.045-0.1-0.005
		c-0.141-0.33-0.306-0.605-0.536-0.866c-0.04-0.04-0.035-0.055,0.025-0.09L31.388,42.432z"/>
	<path fill="#FFFFFF" d="M33.691,39.584c0.085,0.02,0.12,0.045,0.12,0.095c0,0.055-0.03,0.115-0.051,0.165
		c-0.024,0.07-0.045,0.226-0.069,0.61c-0.056,0.871-0.075,1.332-0.075,1.922c0,0.541,0.06,0.636,0.46,0.636
		c0.445,0,1.142-0.27,1.752-0.921c0.021,0.19,0.065,0.355,0.115,0.476c0.025,0.055,0.04,0.09,0.04,0.12
		c0,0.045-0.021,0.085-0.101,0.155c-0.54,0.495-1.246,0.751-1.896,0.751c-0.641,0-0.94-0.256-0.94-1.021
		c0-0.841,0.045-1.562,0.069-2.162c0.011-0.295,0.025-0.615-0.05-0.916C33.296,39.518,33.536,39.544,33.691,39.584z M35.208,39.914
		c0.024-0.021,0.045-0.016,0.074,0.01c0.155,0.12,0.336,0.32,0.476,0.535c0.021,0.03,0.021,0.056-0.015,0.08l-0.21,0.155
		c-0.035,0.025-0.061,0.021-0.085-0.015c-0.15-0.23-0.311-0.42-0.506-0.58L35.208,39.914z M35.653,39.589
		c0.029-0.021,0.045-0.016,0.075,0.01c0.185,0.14,0.365,0.341,0.475,0.516c0.021,0.03,0.025,0.06-0.015,0.09l-0.2,0.155
		c-0.04,0.03-0.065,0.015-0.085-0.015c-0.135-0.216-0.295-0.405-0.501-0.576L35.653,39.589z"/>
	<path fill="#FFFFFF" d="M38.276,41.346c0.28-0.16,0.516-0.226,0.796-0.226c0.73,0,1.241,0.48,1.241,1.201
		c0,0.836-0.676,1.371-1.747,1.371c-0.631,0-1.011-0.271-1.011-0.735c0-0.336,0.315-0.61,0.706-0.61c0.47,0,0.815,0.25,0.94,0.73
		c0.351-0.16,0.511-0.381,0.511-0.761c0-0.455-0.32-0.756-0.786-0.756c-0.415,0-0.876,0.186-1.281,0.53
		c-0.145,0.13-0.285,0.275-0.436,0.426c-0.035,0.035-0.06,0.055-0.085,0.055c-0.02,0-0.045-0.015-0.075-0.045
		c-0.104-0.09-0.215-0.22-0.295-0.325c-0.03-0.04-0.015-0.075,0.025-0.115c0.39-0.315,0.735-0.636,1.186-1.105
		c0.311-0.32,0.546-0.571,0.776-0.856c-0.301,0.056-0.656,0.125-0.967,0.19c-0.064,0.015-0.13,0.03-0.21,0.06
		c-0.024,0.011-0.075,0.025-0.1,0.025c-0.051,0-0.085-0.025-0.11-0.085c-0.061-0.115-0.105-0.256-0.175-0.541
		c0.149,0.021,0.314,0.021,0.465,0.011c0.306-0.03,0.746-0.096,1.137-0.171c0.125-0.024,0.225-0.05,0.274-0.074
		c0.025-0.016,0.07-0.041,0.096-0.041c0.05,0,0.08,0.016,0.115,0.041c0.149,0.114,0.25,0.215,0.335,0.32
		c0.04,0.045,0.055,0.08,0.055,0.119c0,0.051-0.029,0.096-0.085,0.121c-0.085,0.039-0.125,0.074-0.22,0.16
		c-0.365,0.354-0.701,0.705-1.081,1.07L38.276,41.346z M38.281,42.771c-0.146,0-0.24,0.085-0.24,0.19
		c0,0.155,0.135,0.261,0.436,0.261c0.09,0,0.155-0.006,0.23-0.021C38.642,42.927,38.491,42.771,38.281,42.771z"/>
	<path fill="#FFFFFF" d="M42.346,42.547c0,0.46,0.2,0.641,0.666,0.641c0.586,0,0.911-0.226,0.911-0.676
		c0-0.28-0.07-0.511-0.45-0.911c0.2,0.025,0.31,0,0.51-0.03c0.035-0.01,0.075-0.005,0.105,0.021c0.275,0.26,0.426,0.601,0.426,0.94
		c0,0.711-0.581,1.172-1.441,1.172c-0.887,0-1.262-0.4-1.262-1.132c0-0.104,0.015-0.245,0.035-0.47
		c-0.301-0.046-0.501-0.091-0.681-0.15c-0.035-0.01-0.05-0.035-0.055-0.096c-0.016-0.154-0.021-0.31-0.011-0.465
		c0.301,0.109,0.525,0.165,0.812,0.195c0.024-0.186,0.064-0.511,0.085-0.716c-0.351-0.045-0.531-0.075-0.721-0.141
		c-0.061-0.015-0.08-0.04-0.08-0.085c-0.005-0.12-0.016-0.285-0.016-0.465c0.341,0.109,0.581,0.154,0.906,0.189
		c0.04-0.29,0.055-0.425,0.065-0.575c0.01-0.141,0.01-0.285-0.006-0.421c0.23,0.03,0.491,0.096,0.601,0.141
		c0.07,0.025,0.11,0.07,0.11,0.115c0,0.035-0.015,0.064-0.04,0.095c-0.035,0.035-0.06,0.101-0.09,0.216
		c-0.025,0.114-0.055,0.285-0.08,0.47c0.2,0.016,0.405,0,0.615-0.03c0.035,0,0.051,0.025,0.051,0.061
		c0.005,0.12,0.005,0.26-0.011,0.375c0,0.056-0.02,0.07-0.08,0.075c-0.22,0.025-0.445,0.03-0.665,0.025
		c-0.03,0.175-0.08,0.516-0.11,0.716c0.266,0.005,0.471,0,0.711-0.016c0.064-0.01,0.08,0.011,0.08,0.056
		c0,0.09-0.011,0.271-0.025,0.375c-0.005,0.061-0.02,0.08-0.07,0.08c-0.25,0.021-0.51,0.021-0.766,0.015
		C42.352,42.336,42.346,42.456,42.346,42.547z"/>
	<path fill="#FFFFFF" d="M47.692,40.374c-0.115,0.852-0.325,1.632-0.626,2.157c-0.215,0.376-0.476,0.576-0.851,0.576
		c-0.44,0-0.886-0.471-0.886-1.287c0-0.48,0.205-0.94,0.565-1.301c0.42-0.42,0.951-0.641,1.626-0.641
		c1.201,0,1.907,0.74,1.907,1.736c0,0.932-0.525,1.517-1.541,1.822c-0.105,0.03-0.15,0.01-0.216-0.09
		c-0.055-0.086-0.16-0.2-0.351-0.315c0.847-0.2,1.512-0.551,1.512-1.497c0-0.596-0.45-1.161-1.121-1.161H47.692z M46.256,40.859
		c-0.24,0.271-0.391,0.606-0.391,0.927c0,0.46,0.186,0.716,0.341,0.716c0.13,0,0.24-0.065,0.375-0.306
		c0.22-0.405,0.445-1.126,0.53-1.792C46.761,40.475,46.481,40.614,46.256,40.859z"/>
	<path fill="#FFFFFF" d="M51.602,39.533c0.061,0.016,0.09,0.04,0.09,0.08c0,0.07-0.035,0.141-0.035,0.211
		c0,0.1,0.016,0.22,0.025,0.335c0.045,0.351,0.095,0.601,0.16,0.86c0.25-0.135,0.431-0.229,0.711-0.38
		c0.145-0.085,0.265-0.17,0.345-0.271c0.16,0.165,0.291,0.341,0.366,0.471c0.02,0.03,0.034,0.07,0.034,0.105
		c0,0.05-0.029,0.09-0.1,0.1c-0.15,0.025-0.32,0.085-0.48,0.15c-0.431,0.175-0.831,0.36-1.176,0.586
		c-0.436,0.285-0.591,0.52-0.591,0.755c0,0.296,0.22,0.421,0.796,0.421c0.63,0,1.141-0.045,1.526-0.115
		c0.055-0.01,0.08,0,0.09,0.061c0.025,0.135,0.04,0.314,0.05,0.465c0.005,0.055-0.029,0.08-0.09,0.085
		c-0.455,0.061-0.855,0.075-1.491,0.075c-0.946,0-1.446-0.311-1.446-0.961c0-0.556,0.365-0.921,0.95-1.291
		c-0.12-0.386-0.21-0.836-0.26-1.222c-0.035-0.265-0.07-0.44-0.13-0.58C51.187,39.474,51.416,39.488,51.602,39.533z"/>
	<path fill="#FFFFFF" d="M28.063,45.253c0.05-0.029,0.07-0.024,0.105,0.005c0.08,0.065,0.22,0.206,0.311,0.326
		c0.034,0.045,0.02,0.06-0.025,0.095l-0.115,0.075c0.29,0,0.4-0.01,0.426-0.01c0.05,0,0.055,0.005,0.055,0.05v0.335
		c0,0.051-0.005,0.056-0.055,0.056c-0.03,0-0.195-0.011-0.671-0.011h-0.49c0.04,0.341,0.104,0.661,0.21,0.946
		c0.1-0.15,0.175-0.3,0.24-0.44c0.03-0.08,0.07-0.195,0.095-0.311c0.15,0.045,0.291,0.101,0.405,0.155
		c0.04,0.021,0.061,0.05,0.061,0.07c0,0.03-0.021,0.05-0.045,0.075c-0.03,0.029-0.05,0.06-0.101,0.15
		c-0.12,0.25-0.26,0.505-0.44,0.745c0.136,0.205,0.28,0.315,0.371,0.315c0.125,0,0.175-0.141,0.234-0.48
		c0.075,0.07,0.176,0.13,0.251,0.165c0.095,0.045,0.13,0.065,0.13,0.115c0,0.025-0.01,0.06-0.025,0.11
		c-0.125,0.42-0.29,0.605-0.575,0.605c-0.24,0-0.49-0.17-0.706-0.461c-0.115,0.115-0.24,0.23-0.38,0.331
		c-0.061,0.04-0.096,0.064-0.12,0.064c-0.03,0-0.056-0.03-0.11-0.095c-0.06-0.065-0.105-0.11-0.165-0.16
		c-0.005,0.025-0.021,0.025-0.055,0.025c-0.035,0-0.131-0.011-0.426-0.011h-0.471c-0.295,0-0.391,0.011-0.425,0.011
		c-0.051,0-0.056-0.006-0.056-0.056c0-0.035,0.01-0.11,0.01-0.32v-0.33c0-0.21-0.01-0.285-0.01-0.32c0-0.05,0.005-0.056,0.056-0.056
		c0.034,0,0.13,0.011,0.425,0.011h0.471c0.295,0,0.391-0.011,0.426-0.011c0.05,0,0.055,0.006,0.055,0.056
		c0,0.03-0.01,0.11-0.01,0.32v0.33c0,0.15,0.005,0.23,0.005,0.275c0.215-0.13,0.396-0.28,0.551-0.445
		c-0.186-0.386-0.291-0.891-0.355-1.382H25.34v0.336c0,0.275-0.035,0.75-0.09,1.006c-0.07,0.315-0.16,0.586-0.335,0.876
		c-0.04,0.069-0.061,0.1-0.091,0.1c-0.02,0-0.05-0.024-0.104-0.075c-0.11-0.1-0.221-0.17-0.32-0.215
		c0.2-0.275,0.295-0.495,0.36-0.796c0.064-0.275,0.095-0.601,0.095-1.065c0-0.351-0.01-0.516-0.01-0.546
		c0-0.045,0.005-0.05,0.06-0.05c0.03,0,0.195,0.01,0.676,0.01h1.497c-0.021-0.181-0.03-0.365-0.061-0.511
		c0.175,0.005,0.36,0.021,0.506,0.035c0.05,0.005,0.075,0.025,0.075,0.055c0,0.035-0.016,0.065-0.025,0.091
		c-0.015,0.055-0.01,0.154-0.005,0.33h0.48c-0.075-0.096-0.176-0.205-0.23-0.261c-0.02-0.015-0.025-0.029-0.025-0.045
		c0-0.015,0.011-0.035,0.04-0.05L28.063,45.253z M24.515,49.463c-0.061-0.035-0.061-0.056-0.03-0.096
		c0.205-0.23,0.391-0.54,0.505-0.836c0.021-0.055,0.03-0.055,0.101-0.024l0.295,0.13c0.065,0.03,0.07,0.04,0.056,0.09
		c-0.131,0.33-0.301,0.626-0.511,0.901c-0.03,0.04-0.045,0.04-0.101,0.01L24.515,49.463z M26.496,46.409
		c0.301,0,0.421-0.01,0.45-0.01c0.045,0,0.051,0.005,0.051,0.06v0.291c0,0.05-0.006,0.055-0.051,0.055
		c-0.029,0-0.149-0.01-0.45-0.01h-0.511c-0.295,0-0.415,0.01-0.445,0.01c-0.05,0-0.055-0.005-0.055-0.055v-0.291
		c0-0.055,0.005-0.06,0.055-0.06c0.03,0,0.15,0.01,0.445,0.01H26.496z M26.141,49.072c0,0.1,0.021,0.165,0.08,0.2
		c0.08,0.04,0.296,0.045,0.506,0.045c0.365,0,0.505,0.005,0.61-0.056c0.085-0.045,0.125-0.189,0.13-0.43
		c0.101,0.064,0.216,0.109,0.36,0.15c0.131,0.039,0.131,0.039,0.115,0.175c-0.04,0.275-0.135,0.41-0.275,0.49
		c-0.185,0.101-0.46,0.12-0.98,0.12c-0.44,0-0.721-0.025-0.866-0.1c-0.115-0.065-0.185-0.171-0.185-0.436v-0.44
		c0-0.141,0-0.235-0.025-0.381c0.165,0,0.351,0.011,0.495,0.03c0.061,0.01,0.091,0.025,0.091,0.045c0,0.03-0.006,0.045-0.025,0.085
		c-0.021,0.045-0.03,0.096-0.03,0.181V49.072z M26.511,47.375h-0.595v0.365h0.595V47.375z M26.666,48.231
		c0.051-0.035,0.065-0.035,0.105-0.005c0.19,0.154,0.32,0.3,0.471,0.495c0.029,0.035,0.035,0.045-0.016,0.08l-0.26,0.2
		c-0.03,0.025-0.05,0.035-0.065,0.035c-0.015,0-0.024-0.01-0.04-0.035c-0.13-0.195-0.275-0.36-0.436-0.521
		c-0.04-0.04-0.04-0.045,0.021-0.09L26.666,48.231z M28.213,48.432c0.03-0.016,0.045-0.025,0.06-0.025
		c0.016,0,0.025,0.01,0.046,0.03c0.234,0.255,0.425,0.525,0.59,0.836c0.025,0.05,0.025,0.06-0.04,0.1l-0.31,0.19
		c-0.065,0.04-0.08,0.045-0.101-0.005c-0.14-0.33-0.306-0.605-0.535-0.866c-0.04-0.04-0.035-0.055,0.024-0.09L28.213,48.432z"/>
	<path fill="#FFFFFF" d="M30.516,45.584c0.085,0.02,0.12,0.045,0.12,0.095c0,0.055-0.03,0.115-0.05,0.165
		c-0.025,0.07-0.045,0.226-0.07,0.61c-0.055,0.871-0.075,1.332-0.075,1.922c0,0.541,0.061,0.636,0.461,0.636
		c0.445,0,1.141-0.27,1.752-0.921c0.02,0.19,0.064,0.355,0.114,0.476c0.025,0.055,0.04,0.09,0.04,0.12c0,0.045-0.02,0.085-0.1,0.155
		c-0.541,0.495-1.246,0.751-1.896,0.751c-0.641,0-0.941-0.256-0.941-1.021c0-0.841,0.045-1.562,0.07-2.162
		c0.01-0.295,0.024-0.615-0.05-0.916C30.12,45.518,30.36,45.544,30.516,45.584z M32.032,45.914c0.025-0.021,0.045-0.016,0.075,0.01
		c0.155,0.12,0.335,0.32,0.476,0.535c0.02,0.03,0.02,0.056-0.016,0.08l-0.21,0.155c-0.035,0.025-0.06,0.021-0.085-0.015
		c-0.15-0.23-0.311-0.42-0.506-0.58L32.032,45.914z M32.478,45.589c0.03-0.021,0.045-0.016,0.075,0.01
		c0.186,0.14,0.365,0.341,0.476,0.516c0.02,0.03,0.025,0.06-0.015,0.09l-0.2,0.155c-0.04,0.03-0.065,0.015-0.086-0.015
		c-0.135-0.216-0.295-0.405-0.5-0.576L32.478,45.589z"/>
	<path fill="#FFFFFF" d="M35.802,46.124c0.045-0.015,0.064-0.015,0.075,0.04c0.024,0.125,0.04,0.275,0.045,0.405
		c0,0.045-0.021,0.056-0.061,0.061c-0.27,0.055-0.516,0.09-0.825,0.135c-0.32,0.846-0.616,1.536-0.977,2.147
		c-0.02,0.035-0.035,0.05-0.055,0.05c-0.015,0-0.035-0.01-0.061-0.025c-0.114-0.069-0.26-0.175-0.345-0.255
		c-0.025-0.02-0.035-0.035-0.035-0.055c0-0.016,0.005-0.035,0.025-0.061c0.375-0.62,0.641-1.146,0.865-1.746
		c-0.19,0.01-0.345,0.01-0.5,0.01c-0.11,0-0.15,0-0.275-0.005c-0.05,0-0.061-0.016-0.07-0.08c-0.025-0.096-0.04-0.261-0.05-0.426
		c0.205,0.015,0.32,0.021,0.465,0.021c0.195,0,0.346-0.006,0.576-0.025c0.06-0.21,0.095-0.381,0.13-0.561
		c0.03-0.176,0.03-0.25,0.03-0.405c0.215,0.03,0.431,0.06,0.585,0.104c0.051,0.011,0.08,0.04,0.08,0.075
		c0,0.04-0.015,0.065-0.045,0.096c-0.029,0.04-0.05,0.085-0.08,0.185c-0.035,0.12-0.075,0.275-0.12,0.426
		C35.376,46.214,35.607,46.169,35.802,46.124z M35.941,47.466c-0.005-0.136-0.01-0.216-0.04-0.355
		c0.245,0.024,0.376,0.045,0.546,0.095c0.045,0.01,0.07,0.035,0.07,0.08c0,0.01-0.011,0.045-0.03,0.105
		c-0.021,0.06-0.025,0.12-0.021,0.205c0,0.295,0.016,0.511,0.056,0.851c0.36,0.146,0.605,0.255,0.9,0.466
		c0.051,0.035,0.056,0.055,0.03,0.104c-0.075,0.155-0.146,0.28-0.23,0.405c-0.015,0.025-0.029,0.035-0.045,0.035
		c-0.015,0-0.03-0.01-0.05-0.029c-0.221-0.19-0.405-0.301-0.61-0.421c0,0.501-0.36,0.73-0.932,0.73c-0.55,0-0.921-0.28-0.921-0.71
		c0-0.436,0.36-0.731,0.927-0.731c0.095,0,0.234,0.005,0.395,0.03C35.957,48.006,35.946,47.701,35.941,47.466z M35.586,48.726
		c-0.25,0-0.445,0.101-0.445,0.29c0,0.16,0.141,0.24,0.426,0.24c0.271,0,0.436-0.145,0.436-0.354c0-0.046,0-0.07-0.005-0.101
		C35.877,48.762,35.741,48.726,35.586,48.726z M36.518,46.319c0.029-0.05,0.055-0.055,0.104-0.035
		c0.296,0.08,0.691,0.28,0.981,0.471c0.03,0.02,0.045,0.035,0.045,0.055c0,0.016-0.005,0.035-0.021,0.061
		c-0.05,0.11-0.14,0.265-0.21,0.37c-0.015,0.025-0.03,0.035-0.045,0.035s-0.025-0.005-0.045-0.021
		c-0.295-0.2-0.655-0.42-1.036-0.545C36.377,46.56,36.452,46.409,36.518,46.319z"/>
	<path fill="#FFFFFF" d="M39.095,46.129c0.045,0.021,0.08,0.056,0.08,0.09c0,0.03-0.015,0.08-0.04,0.141
		c-0.02,0.061-0.045,0.275-0.045,0.49c0,0.32,0.01,0.681,0.09,1.142c0.07,0.396,0.2,0.735,0.411,0.735
		c0.16,0,0.285-0.175,0.48-0.695c0.109,0.175,0.22,0.29,0.32,0.385c0.06,0.056,0.06,0.115,0.034,0.186
		c-0.189,0.511-0.5,0.781-0.851,0.781c-0.391,0-0.801-0.461-0.936-1.307c-0.08-0.476-0.12-0.996-0.12-1.457
		c0-0.274-0.01-0.425-0.061-0.655C38.699,45.994,38.944,46.054,39.095,46.129z M41.417,46.444c0.021-0.01,0.04-0.02,0.056-0.02
		c0.02,0,0.034,0.01,0.055,0.029c0.455,0.396,0.855,1.087,0.98,1.712c0.016,0.065-0.015,0.085-0.055,0.11
		c-0.13,0.085-0.255,0.155-0.391,0.2c-0.06,0.02-0.095,0.005-0.104-0.055c-0.171-0.716-0.426-1.236-0.937-1.747
		C41.212,46.555,41.337,46.484,41.417,46.444z"/>
	<path fill="#FFFFFF" d="M44.477,48.547c0,0.46,0.2,0.641,0.666,0.641c0.585,0,0.91-0.226,0.91-0.676c0-0.28-0.069-0.511-0.45-0.911
		c0.2,0.025,0.311,0,0.511-0.03c0.035-0.01,0.075-0.005,0.104,0.021c0.275,0.26,0.426,0.601,0.426,0.94
		c0,0.711-0.58,1.172-1.441,1.172c-0.886,0-1.261-0.4-1.261-1.132c0-0.104,0.015-0.245,0.034-0.47c-0.3-0.046-0.5-0.091-0.681-0.15
		c-0.034-0.01-0.05-0.035-0.055-0.096c-0.015-0.154-0.02-0.31-0.01-0.465c0.3,0.109,0.525,0.165,0.811,0.195
		c0.025-0.186,0.065-0.511,0.085-0.716c-0.351-0.045-0.53-0.075-0.721-0.141c-0.06-0.015-0.08-0.04-0.08-0.085
		c-0.005-0.12-0.015-0.285-0.015-0.465c0.34,0.109,0.58,0.154,0.905,0.189c0.04-0.29,0.056-0.425,0.065-0.575
		c0.01-0.141,0.01-0.285-0.005-0.421c0.23,0.03,0.49,0.096,0.601,0.141c0.07,0.025,0.11,0.07,0.11,0.115
		c0,0.035-0.016,0.064-0.04,0.095c-0.035,0.035-0.061,0.101-0.091,0.216c-0.024,0.114-0.055,0.285-0.08,0.47
		c0.2,0.016,0.406,0,0.616-0.03c0.035,0,0.05,0.025,0.05,0.061c0.005,0.12,0.005,0.26-0.01,0.375c0,0.056-0.021,0.07-0.08,0.075
		c-0.221,0.025-0.445,0.03-0.666,0.025c-0.03,0.175-0.08,0.516-0.11,0.716c0.266,0.005,0.471,0,0.711-0.016
		c0.065-0.01,0.08,0.011,0.08,0.056c0,0.09-0.01,0.271-0.024,0.375c-0.006,0.061-0.021,0.08-0.07,0.08
		c-0.25,0.021-0.511,0.021-0.766,0.015C44.482,48.336,44.477,48.456,44.477,48.547z"/>
	<path fill="#FFFFFF" d="M49.822,46.374c-0.115,0.852-0.325,1.632-0.626,2.157c-0.215,0.376-0.476,0.576-0.851,0.576
		c-0.44,0-0.886-0.471-0.886-1.287c0-0.48,0.205-0.94,0.565-1.301c0.42-0.42,0.951-0.641,1.626-0.641
		c1.201,0,1.907,0.74,1.907,1.736c0,0.932-0.525,1.517-1.541,1.822c-0.105,0.03-0.15,0.01-0.216-0.09
		c-0.055-0.086-0.16-0.2-0.351-0.315c0.847-0.2,1.512-0.551,1.512-1.497c0-0.596-0.45-1.161-1.121-1.161H49.822z M48.386,46.859
		c-0.24,0.271-0.391,0.606-0.391,0.927c0,0.46,0.186,0.716,0.341,0.716c0.13,0,0.24-0.065,0.375-0.306
		c0.22-0.405,0.445-1.126,0.53-1.792C48.891,46.475,48.61,46.614,48.386,46.859z"/>
	<path fill="#FFFFFF" d="M53.696,46.014c0.024-0.149,0.05-0.345,0.05-0.555c0.26,0.055,0.4,0.09,0.601,0.165
		c0.05,0.015,0.08,0.055,0.08,0.1c0,0.025-0.01,0.05-0.035,0.075c-0.05,0.065-0.075,0.12-0.101,0.19
		c-0.064,0.205-0.114,0.39-0.18,0.601c0.135-0.016,0.285-0.021,0.4-0.021c0.466,0,0.716,0.325,0.716,0.966
		c0,0.541-0.101,1.207-0.271,1.566c-0.146,0.32-0.386,0.471-0.676,0.471c-0.24,0-0.41-0.024-0.521-0.075
		c-0.06-0.024-0.09-0.064-0.09-0.14c-0.015-0.16-0.025-0.301-0.095-0.466c0.225,0.105,0.42,0.13,0.575,0.13
		c0.165,0,0.24-0.06,0.32-0.265c0.105-0.28,0.195-0.756,0.195-1.246c0-0.351-0.065-0.461-0.285-0.461
		c-0.12,0-0.275,0.016-0.421,0.035c-0.33,0.961-0.615,1.651-1.006,2.353c-0.03,0.064-0.07,0.075-0.13,0.045
		c-0.09-0.045-0.285-0.165-0.346-0.221c-0.024-0.024-0.04-0.045-0.04-0.074c0-0.016,0.005-0.035,0.021-0.056
		c0.4-0.695,0.66-1.226,0.916-1.962c-0.195,0.03-0.355,0.061-0.491,0.085c-0.13,0.025-0.21,0.056-0.275,0.08
		c-0.069,0.025-0.13,0.016-0.16-0.064c-0.045-0.115-0.1-0.296-0.154-0.516c0.22,0,0.44-0.015,0.66-0.035
		c0.21-0.021,0.396-0.045,0.591-0.075C53.626,46.359,53.661,46.185,53.696,46.014z M55.678,46.35
		c0.035-0.021,0.061-0.01,0.095,0.024c0.341,0.32,0.646,0.736,0.831,1.217c0.021,0.045,0.016,0.069-0.02,0.1
		c-0.085,0.08-0.275,0.2-0.376,0.251c-0.05,0.024-0.1,0.02-0.115-0.041c-0.2-0.525-0.46-0.955-0.82-1.296
		C55.398,46.519,55.543,46.42,55.678,46.35z M55.813,45.648c0.025-0.02,0.046-0.015,0.075,0.01c0.155,0.121,0.336,0.32,0.476,0.536
		c0.021,0.03,0.021,0.055-0.015,0.08l-0.21,0.155c-0.035,0.024-0.061,0.02-0.086-0.016c-0.149-0.229-0.31-0.42-0.505-0.58
		L55.813,45.648z M56.259,45.323c0.029-0.02,0.045-0.015,0.074,0.01c0.186,0.141,0.366,0.341,0.476,0.516
		c0.021,0.03,0.025,0.061-0.015,0.091l-0.2,0.154c-0.04,0.03-0.065,0.016-0.085-0.015c-0.136-0.215-0.296-0.405-0.501-0.575
		L56.259,45.323z"/>
	<path fill="#FFFFFF" d="M36.042,51.488c0.06,0.021,0.09,0.051,0.09,0.09c0,0.035-0.005,0.056-0.025,0.08
		c-0.045,0.056-0.06,0.126-0.07,0.181c-0.015,0.09-0.024,0.165-0.04,0.25c0.461-0.045,0.816-0.1,1.302-0.21
		c0.06-0.015,0.075,0.005,0.085,0.05c0.025,0.105,0.05,0.23,0.05,0.341c0,0.064-0.05,0.09-0.104,0.1
		c-0.661,0.136-0.966,0.17-1.422,0.211c-0.02,0.21-0.03,0.33-0.035,0.505c0.195-0.065,0.521-0.104,0.766-0.11
		c0.03-0.08,0.08-0.225,0.086-0.365c0.18,0.056,0.375,0.136,0.445,0.186c0.06,0.04,0.09,0.08,0.09,0.11c0,0.02-0.01,0.04-0.03,0.06
		c-0.024,0.025-0.04,0.055-0.064,0.101c0.646,0.17,1.025,0.595,1.025,1.221c0,0.726-0.596,1.196-1.392,1.411
		c-0.109,0.03-0.165,0.016-0.22-0.095c-0.035-0.07-0.135-0.175-0.295-0.311c0.36-0.075,0.745-0.235,0.931-0.365
		c0.24-0.175,0.4-0.391,0.4-0.751c0-0.4-0.285-0.641-0.621-0.726c-0.29,0.551-0.585,0.946-0.945,1.312
		c0.024,0.09,0.055,0.146,0.09,0.226c0.03,0.064,0.01,0.09-0.04,0.125c-0.115,0.085-0.23,0.145-0.301,0.175
		c-0.05,0.025-0.069,0.025-0.1-0.025c-0.035-0.06-0.061-0.119-0.085-0.194c-0.355,0.245-0.616,0.36-0.871,0.36
		c-0.34,0-0.556-0.23-0.556-0.621c0-0.641,0.556-1.251,1.171-1.557c0.006-0.215,0.016-0.436,0.025-0.625
		c-0.295,0.01-0.431,0.005-0.516,0.005c-0.145,0-0.225,0-0.285-0.011c-0.055-0.005-0.085-0.029-0.09-0.114
		c-0.016-0.11-0.016-0.24-0.025-0.381c0.32,0.035,0.596,0.025,0.971,0.021c0.021-0.181,0.04-0.406,0.04-0.546
		c0-0.075-0.005-0.146-0.02-0.226C35.746,51.408,35.916,51.443,36.042,51.488z M34.71,54.701c0,0.121,0.075,0.19,0.165,0.19
		c0.141,0,0.326-0.09,0.581-0.29c-0.05-0.301-0.09-0.57-0.101-0.861C34.971,54.016,34.71,54.376,34.71,54.701z M36.487,53.4
		c-0.181,0.005-0.411,0.04-0.641,0.115c0.005,0.26,0.02,0.495,0.06,0.751C36.111,54.031,36.347,53.681,36.487,53.4z"/>
	<path fill="#FFFFFF" d="M39.586,53.301c0.615-0.206,1.101-0.306,1.461-0.306c0.681,0,1.142,0.445,1.142,1.071
		c0,0.51-0.24,0.865-0.716,1.121c-0.26,0.145-0.61,0.285-1.036,0.33c-0.09,0.015-0.13-0.005-0.165-0.07
		c-0.055-0.1-0.146-0.21-0.306-0.33c0.586-0.09,0.861-0.176,1.207-0.346c0.285-0.15,0.45-0.385,0.45-0.745
		c0-0.355-0.221-0.551-0.621-0.551c-0.345,0-0.87,0.17-1.416,0.391c-0.125,0.055-0.226,0.114-0.28,0.155
		c-0.04,0.034-0.07,0.05-0.101,0.05c-0.045,0-0.08-0.03-0.13-0.091c-0.115-0.145-0.19-0.32-0.271-0.485
		C39.056,53.455,39.301,53.391,39.586,53.301z"/>
	<path fill="#FFFFFF" d="M45.447,52.144c0.055-0.016,0.075,0.01,0.08,0.05c0.015,0.11,0.03,0.255,0.035,0.36
		c0.005,0.064-0.011,0.08-0.075,0.095c-0.311,0.085-0.565,0.141-0.871,0.19c-0.34,1.111-0.596,1.877-0.916,2.708
		c-0.024,0.069-0.055,0.064-0.11,0.05c-0.05-0.021-0.295-0.125-0.4-0.186c-0.04-0.024-0.055-0.064-0.04-0.1
		c0.381-0.876,0.621-1.537,0.866-2.373c-0.29,0.03-0.641,0.056-0.876,0.056c-0.075,0-0.095-0.015-0.104-0.08
		c-0.021-0.105-0.046-0.275-0.07-0.456c0.104,0.016,0.165,0.016,0.37,0.016c0.25,0,0.521-0.016,0.811-0.05
		c0.051-0.2,0.091-0.421,0.125-0.626c0.021-0.15,0.03-0.301,0.03-0.461c0.266,0.041,0.471,0.075,0.631,0.141
		c0.04,0.015,0.055,0.05,0.055,0.08c0,0.02,0,0.045-0.024,0.08c-0.04,0.07-0.08,0.12-0.105,0.2c-0.05,0.181-0.085,0.351-0.12,0.476
		C44.932,52.279,45.202,52.214,45.447,52.144z M45.252,54.536c0.05,0,0.07,0.021,0.075,0.07c0.04,0.365,0.285,0.471,0.766,0.471
		c0.28,0,0.641-0.045,0.841-0.07c0.04-0.005,0.055,0.005,0.06,0.045c0.021,0.13,0.04,0.301,0.04,0.436
		c0.006,0.061,0,0.075-0.08,0.08c-0.17,0.025-0.495,0.056-0.681,0.056c-0.655,0-0.995-0.091-1.221-0.326
		c-0.16-0.16-0.215-0.395-0.226-0.686C44.982,54.571,45.187,54.536,45.252,54.536z M45.197,53.21c0-0.069,0.015-0.085,0.09-0.1
		c0.315-0.065,0.686-0.115,0.976-0.115c0.195,0,0.41,0.02,0.586,0.05c0.07,0.01,0.085,0.016,0.085,0.075
		c0.01,0.125,0.01,0.266,0.005,0.4c0,0.085-0.025,0.105-0.095,0.09c-0.176-0.035-0.405-0.06-0.621-0.06
		c-0.3,0-0.681,0.05-1.006,0.115C45.207,53.49,45.197,53.31,45.197,53.21z"/>
</g>
<g>
	<path d="M17.585,12.507c0.051-0.029,0.07-0.024,0.105,0.005c0.08,0.065,0.221,0.206,0.311,0.326c0.035,0.045,0.02,0.06-0.025,0.095
		l-0.115,0.075c0.291,0,0.4-0.01,0.426-0.01c0.051,0,0.055,0.005,0.055,0.05v0.335c0,0.051-0.004,0.056-0.055,0.056
		c-0.029,0-0.195-0.011-0.67-0.011h-0.491c0.04,0.341,0.104,0.661,0.21,0.946c0.1-0.15,0.176-0.3,0.24-0.44
		c0.03-0.08,0.07-0.195,0.096-0.311c0.15,0.045,0.29,0.101,0.404,0.155c0.041,0.021,0.061,0.05,0.061,0.07
		c0,0.03-0.02,0.05-0.045,0.075c-0.029,0.029-0.05,0.06-0.1,0.15c-0.121,0.25-0.261,0.505-0.441,0.745
		c0.136,0.205,0.281,0.315,0.371,0.315c0.125,0,0.176-0.141,0.234-0.48c0.076,0.07,0.176,0.13,0.251,0.165
		c0.095,0.045,0.13,0.065,0.13,0.115c0,0.025-0.01,0.06-0.025,0.11c-0.125,0.42-0.289,0.605-0.574,0.605
		c-0.24,0-0.491-0.17-0.707-0.461c-0.115,0.115-0.24,0.23-0.38,0.331c-0.06,0.04-0.095,0.064-0.12,0.064
		c-0.029,0-0.055-0.03-0.109-0.095c-0.061-0.065-0.105-0.11-0.166-0.16c-0.005,0.025-0.02,0.025-0.055,0.025
		s-0.131-0.011-0.426-0.011h-0.471c-0.295,0-0.391,0.011-0.425,0.011c-0.05,0-0.056-0.006-0.056-0.056c0-0.035,0.01-0.11,0.01-0.32
		v-0.33c0-0.21-0.01-0.285-0.01-0.32c0-0.05,0.006-0.056,0.056-0.056c0.034,0,0.13,0.011,0.425,0.011h0.471
		c0.295,0,0.391-0.011,0.426-0.011c0.05,0,0.055,0.006,0.055,0.056c0,0.03-0.01,0.11-0.01,0.32v0.33c0,0.15,0.005,0.23,0.005,0.275
		c0.216-0.13,0.396-0.28,0.551-0.445c-0.185-0.386-0.29-0.891-0.355-1.382h-1.782v0.336c0,0.275-0.035,0.75-0.09,1.006
		c-0.07,0.315-0.16,0.586-0.335,0.876c-0.04,0.069-0.06,0.1-0.091,0.1c-0.02,0-0.049-0.024-0.104-0.075
		c-0.11-0.1-0.22-0.17-0.32-0.215c0.2-0.275,0.296-0.495,0.36-0.796c0.064-0.275,0.096-0.601,0.096-1.065
		c0-0.351-0.011-0.516-0.011-0.546c0-0.045,0.005-0.05,0.06-0.05c0.031,0,0.195,0.01,0.676,0.01H16.6
		c-0.021-0.181-0.03-0.365-0.06-0.511c0.174,0.005,0.359,0.021,0.505,0.035c0.05,0.005,0.075,0.025,0.075,0.055
		c0,0.035-0.016,0.065-0.025,0.091c-0.015,0.055-0.01,0.154-0.005,0.33h0.48c-0.075-0.096-0.175-0.205-0.229-0.261
		c-0.021-0.015-0.025-0.029-0.025-0.045c0-0.015,0.01-0.035,0.039-0.05L17.585,12.507z M14.037,16.717
		c-0.06-0.035-0.06-0.056-0.03-0.096c0.205-0.23,0.391-0.54,0.506-0.836c0.02-0.055,0.029-0.055,0.1-0.024l0.295,0.13
		c0.066,0.03,0.07,0.04,0.056,0.09c-0.13,0.33-0.3,0.626-0.511,0.901c-0.029,0.04-0.045,0.04-0.1,0.01L14.037,16.717z
		 M16.019,13.663c0.301,0,0.421-0.01,0.451-0.01c0.045,0,0.05,0.005,0.05,0.06v0.291c0,0.05-0.005,0.055-0.05,0.055
		c-0.03,0-0.15-0.01-0.451-0.01h-0.51c-0.295,0-0.416,0.01-0.445,0.01c-0.051,0-0.056-0.005-0.056-0.055v-0.291
		c0-0.055,0.005-0.06,0.056-0.06c0.029,0,0.15,0.01,0.445,0.01H16.019z M15.663,16.326c0,0.1,0.021,0.165,0.08,0.2
		c0.08,0.04,0.296,0.045,0.506,0.045c0.365,0,0.506,0.005,0.611-0.056c0.084-0.045,0.125-0.189,0.129-0.43
		c0.101,0.064,0.216,0.109,0.361,0.15c0.13,0.039,0.13,0.039,0.115,0.175c-0.041,0.275-0.136,0.41-0.275,0.49
		c-0.186,0.101-0.461,0.12-0.981,0.12c-0.44,0-0.721-0.025-0.866-0.1c-0.115-0.065-0.185-0.171-0.185-0.436v-0.44
		c0-0.141,0-0.235-0.024-0.381c0.164,0,0.35,0.011,0.494,0.03c0.061,0.01,0.091,0.025,0.091,0.045c0,0.03-0.005,0.045-0.024,0.085
		c-0.021,0.045-0.031,0.096-0.031,0.181V16.326z M16.034,14.629h-0.596v0.365h0.596V14.629z M16.189,15.485
		c0.051-0.035,0.066-0.035,0.105-0.005c0.19,0.154,0.32,0.3,0.471,0.495c0.029,0.035,0.035,0.045-0.016,0.08l-0.26,0.2
		c-0.029,0.025-0.05,0.035-0.064,0.035c-0.016,0-0.025-0.01-0.041-0.035c-0.129-0.195-0.275-0.36-0.436-0.521
		c-0.039-0.04-0.039-0.045,0.021-0.09L16.189,15.485z M17.735,15.685c0.03-0.016,0.045-0.025,0.061-0.025
		c0.015,0,0.025,0.01,0.045,0.03c0.234,0.255,0.426,0.525,0.59,0.836c0.025,0.05,0.025,0.06-0.039,0.1l-0.311,0.19
		c-0.064,0.04-0.08,0.045-0.1-0.005c-0.141-0.33-0.307-0.605-0.536-0.866c-0.04-0.04-0.035-0.055,0.024-0.09L17.735,15.685z"/>
	<path d="M20.038,12.838c0.086,0.02,0.121,0.045,0.121,0.095c0,0.055-0.031,0.115-0.051,0.165c-0.025,0.07-0.045,0.226-0.07,0.61
		c-0.055,0.871-0.074,1.332-0.074,1.922c0,0.541,0.06,0.636,0.46,0.636c0.446,0,1.142-0.27,1.752-0.921
		c0.021,0.19,0.065,0.355,0.114,0.476c0.025,0.055,0.041,0.09,0.041,0.12c0,0.045-0.02,0.085-0.1,0.155
		c-0.541,0.495-1.247,0.751-1.897,0.751c-0.641,0-0.94-0.256-0.94-1.021c0-0.841,0.045-1.562,0.069-2.162
		c0.011-0.295,0.024-0.615-0.05-0.916C19.644,12.772,19.884,12.798,20.038,12.838z M21.556,13.168
		c0.024-0.021,0.045-0.016,0.074,0.01c0.155,0.12,0.336,0.32,0.476,0.535c0.021,0.03,0.021,0.056-0.015,0.08l-0.211,0.155
		c-0.035,0.025-0.06,0.021-0.084-0.015c-0.15-0.23-0.311-0.42-0.506-0.58L21.556,13.168z M22.001,12.843
		c0.029-0.021,0.045-0.016,0.074,0.01c0.186,0.14,0.365,0.341,0.477,0.516c0.02,0.03,0.024,0.06-0.016,0.09l-0.2,0.155
		c-0.04,0.03-0.065,0.015-0.085-0.015c-0.135-0.216-0.295-0.405-0.5-0.576L22.001,12.843z"/>
	<path d="M25.324,13.378c0.046-0.015,0.065-0.015,0.075,0.04c0.025,0.125,0.04,0.275,0.045,0.405c0,0.045-0.02,0.056-0.061,0.061
		c-0.27,0.055-0.516,0.09-0.825,0.135c-0.32,0.846-0.616,1.536-0.976,2.147c-0.021,0.035-0.035,0.05-0.055,0.05
		c-0.016,0-0.035-0.01-0.061-0.025c-0.115-0.069-0.26-0.175-0.346-0.255c-0.025-0.02-0.035-0.035-0.035-0.055
		c0-0.016,0.006-0.035,0.025-0.061c0.375-0.62,0.641-1.146,0.865-1.746c-0.189,0.01-0.345,0.01-0.5,0.01
		c-0.109,0-0.15,0-0.275-0.005c-0.05,0-0.061-0.016-0.07-0.08c-0.025-0.096-0.039-0.261-0.05-0.426
		c0.206,0.015,0.32,0.021,0.466,0.021c0.195,0,0.346-0.006,0.575-0.025c0.06-0.21,0.095-0.381,0.13-0.561
		c0.03-0.176,0.03-0.25,0.03-0.405c0.216,0.03,0.431,0.06,0.585,0.104c0.051,0.011,0.08,0.04,0.08,0.075
		c0,0.04-0.014,0.065-0.045,0.096c-0.029,0.04-0.049,0.085-0.08,0.185c-0.035,0.12-0.074,0.275-0.119,0.426
		C24.899,13.468,25.13,13.423,25.324,13.378z M25.464,14.72c-0.004-0.136-0.01-0.216-0.039-0.355
		c0.244,0.024,0.375,0.045,0.545,0.095c0.045,0.01,0.07,0.035,0.07,0.08c0,0.01-0.01,0.045-0.029,0.105
		c-0.021,0.06-0.025,0.12-0.021,0.205c0,0.295,0.016,0.511,0.056,0.851c0.36,0.146,0.606,0.255,0.901,0.466
		c0.05,0.035,0.055,0.055,0.029,0.104c-0.074,0.155-0.145,0.28-0.23,0.405c-0.014,0.025-0.029,0.035-0.045,0.035
		c-0.015,0-0.029-0.01-0.049-0.029c-0.221-0.19-0.406-0.301-0.611-0.421c0,0.501-0.36,0.73-0.932,0.73c-0.55,0-0.92-0.28-0.92-0.71
		c0-0.436,0.359-0.731,0.926-0.731c0.096,0,0.234,0.005,0.395,0.03C25.48,15.26,25.47,14.955,25.464,14.72z M25.108,15.98
		c-0.25,0-0.445,0.101-0.445,0.29c0,0.16,0.141,0.24,0.426,0.24c0.271,0,0.436-0.145,0.436-0.354c0-0.046,0-0.07-0.005-0.101
		C25.399,16.016,25.265,15.98,25.108,15.98z M26.04,13.573c0.029-0.05,0.055-0.055,0.105-0.035c0.295,0.08,0.69,0.28,0.98,0.471
		c0.03,0.02,0.045,0.035,0.045,0.055c0,0.016-0.005,0.035-0.02,0.061c-0.051,0.11-0.141,0.265-0.211,0.37
		c-0.015,0.025-0.029,0.035-0.045,0.035c-0.015,0-0.025-0.005-0.045-0.021c-0.295-0.2-0.655-0.42-1.035-0.545
		C25.899,13.813,25.976,13.663,26.04,13.573z"/>
	<path d="M29.163,13.268c0.025-0.149,0.051-0.345,0.051-0.555c0.26,0.055,0.4,0.09,0.6,0.165c0.051,0.015,0.08,0.055,0.08,0.1
		c0,0.025-0.01,0.05-0.034,0.075c-0.05,0.065-0.075,0.12-0.101,0.19c-0.064,0.205-0.115,0.39-0.18,0.601
		c0.135-0.016,0.285-0.021,0.391-0.021c0.471,0,0.725,0.32,0.725,0.926c0,0.591-0.1,1.247-0.27,1.606
		c-0.145,0.32-0.385,0.471-0.676,0.471c-0.24,0-0.385-0.02-0.496-0.055c-0.059-0.021-0.09-0.065-0.09-0.141
		c-0.015-0.16-0.024-0.3-0.095-0.465c0.226,0.085,0.396,0.109,0.551,0.109c0.165,0,0.24-0.06,0.32-0.265
		c0.104-0.28,0.194-0.756,0.194-1.241c0-0.355-0.064-0.466-0.285-0.466c-0.119,0-0.275,0.016-0.42,0.035
		c-0.33,0.961-0.615,1.651-1.006,2.353c-0.029,0.064-0.07,0.075-0.131,0.045c-0.09-0.045-0.285-0.165-0.345-0.221
		c-0.024-0.024-0.04-0.045-0.04-0.074c0-0.016,0.006-0.035,0.02-0.056c0.4-0.695,0.661-1.226,0.916-1.962
		c-0.195,0.03-0.355,0.061-0.49,0.085c-0.13,0.025-0.21,0.056-0.275,0.08c-0.07,0.025-0.13,0.016-0.16-0.064
		c-0.045-0.115-0.1-0.296-0.154-0.516c0.22,0,0.439-0.015,0.66-0.035c0.211-0.021,0.396-0.045,0.59-0.075
		C29.093,13.613,29.128,13.438,29.163,13.268z M31.2,13.603c0.035-0.021,0.061-0.01,0.096,0.024c0.34,0.32,0.646,0.736,0.83,1.217
		c0.021,0.045,0.016,0.069-0.02,0.1c-0.085,0.08-0.275,0.2-0.375,0.251c-0.051,0.024-0.101,0.02-0.115-0.041
		c-0.201-0.525-0.461-0.955-0.82-1.296C30.921,13.773,31.066,13.674,31.2,13.603z"/>
	<path d="M33.384,14.555c0.615-0.206,1.1-0.306,1.461-0.306c0.68,0,1.141,0.445,1.141,1.071c0,0.51-0.24,0.865-0.715,1.121
		c-0.261,0.145-0.611,0.285-1.037,0.33c-0.09,0.015-0.129-0.005-0.164-0.07c-0.056-0.1-0.146-0.21-0.307-0.33
		c0.586-0.09,0.861-0.176,1.207-0.346c0.285-0.15,0.45-0.385,0.45-0.745c0-0.355-0.22-0.551-0.62-0.551
		c-0.346,0-0.871,0.17-1.416,0.391c-0.126,0.055-0.227,0.114-0.281,0.155c-0.039,0.034-0.07,0.05-0.1,0.05
		c-0.045,0-0.08-0.03-0.131-0.091c-0.115-0.145-0.189-0.32-0.27-0.485C32.853,14.709,33.098,14.644,33.384,14.555z"/>
	<path d="M39.244,13.398c0.056-0.016,0.075,0.01,0.08,0.05c0.015,0.11,0.03,0.255,0.035,0.36c0.005,0.064-0.011,0.08-0.075,0.095
		c-0.311,0.085-0.565,0.141-0.871,0.19c-0.34,1.111-0.596,1.877-0.916,2.708c-0.024,0.069-0.055,0.064-0.109,0.05
		c-0.051-0.021-0.295-0.125-0.4-0.186c-0.041-0.024-0.055-0.064-0.041-0.1c0.381-0.876,0.621-1.537,0.867-2.373
		c-0.291,0.03-0.641,0.056-0.877,0.056c-0.074,0-0.095-0.015-0.104-0.08c-0.021-0.105-0.046-0.275-0.07-0.456
		c0.104,0.016,0.165,0.016,0.37,0.016c0.25,0,0.521-0.016,0.811-0.05c0.051-0.2,0.091-0.421,0.125-0.626
		c0.021-0.15,0.031-0.301,0.031-0.461c0.265,0.041,0.471,0.075,0.631,0.141c0.039,0.015,0.055,0.05,0.055,0.08
		c0,0.02,0,0.045-0.025,0.08c-0.04,0.07-0.08,0.12-0.105,0.2c-0.05,0.181-0.084,0.351-0.119,0.476
		C38.73,13.533,38.999,13.468,39.244,13.398z M39.05,15.79c0.049,0,0.069,0.021,0.074,0.07c0.04,0.365,0.285,0.471,0.766,0.471
		c0.281,0,0.641-0.045,0.842-0.07c0.039-0.005,0.055,0.005,0.059,0.045c0.021,0.13,0.041,0.301,0.041,0.436
		c0.005,0.061,0,0.075-0.08,0.08c-0.17,0.025-0.496,0.056-0.682,0.056c-0.654,0-0.995-0.091-1.221-0.326
		c-0.16-0.16-0.215-0.395-0.225-0.686C38.778,15.825,38.983,15.79,39.05,15.79z M38.994,14.464c0-0.069,0.015-0.085,0.09-0.1
		c0.315-0.065,0.687-0.115,0.976-0.115c0.195,0,0.41,0.02,0.586,0.05c0.07,0.01,0.086,0.016,0.086,0.075
		c0.01,0.125,0.01,0.266,0.004,0.4c0,0.085-0.025,0.105-0.095,0.09c-0.175-0.035-0.405-0.06-0.62-0.06
		c-0.301,0-0.682,0.05-1.006,0.115C39.004,14.744,38.994,14.564,38.994,14.464z"/>
</g>
<g>
	<path d="M53.207,5.555c0.45-0.371,0.911-0.586,1.437-0.586c0.756,0,1.246,0.516,1.246,1.271c0,0.771-0.471,1.301-1.331,1.611
		c-0.03,0.016-0.061,0.021-0.085,0.021c-0.051,0-0.096-0.025-0.131-0.07c-0.104-0.125-0.22-0.226-0.396-0.33
		c0.486-0.131,0.741-0.271,1.007-0.496c0.229-0.205,0.34-0.455,0.34-0.756c0-0.47-0.266-0.775-0.746-0.775
		c-0.46,0-0.851,0.22-1.341,0.641c0.005,0.641,0.02,1.246,0.03,1.922c0,0.04-0.025,0.06-0.065,0.06
		c-0.055,0.006-0.28,0.021-0.445,0.021c-0.045,0-0.061-0.021-0.055-0.07c0.005-0.511,0.015-1.036,0.024-1.546
		c-0.24,0.36-0.49,0.726-0.676,0.99c-0.024,0.03-0.045,0.051-0.069,0.051c-0.016,0-0.035-0.011-0.056-0.03
		c-0.115-0.101-0.21-0.195-0.305-0.301c-0.021-0.015-0.03-0.034-0.03-0.055s0.01-0.04,0.03-0.06c0.44-0.536,0.726-0.892,1.101-1.407
		c0-0.125,0-0.26,0.005-0.354c-0.145,0.045-0.38,0.114-0.57,0.185c-0.085,0.035-0.135,0.085-0.165,0.085
		c-0.035,0-0.07-0.029-0.101-0.09c-0.06-0.115-0.135-0.271-0.2-0.44c0.12-0.01,0.195-0.021,0.341-0.05
		c0.13-0.03,0.325-0.075,0.711-0.181c0.01-0.215,0.01-0.436,0.01-0.65c0-0.125-0.01-0.271-0.05-0.436
		c0.29,0.03,0.455,0.05,0.58,0.085c0.105,0.03,0.125,0.085,0.09,0.176c-0.024,0.06-0.04,0.135-0.05,0.215
		c-0.005,0.12-0.015,0.235-0.025,0.45c0.016-0.005,0.025-0.01,0.04-0.015c0.011-0.005,0.025-0.01,0.035-0.01
		c0.035,0,0.091,0.05,0.136,0.115c0.06,0.08,0.08,0.119,0.08,0.154s-0.011,0.056-0.085,0.141c-0.07,0.09-0.146,0.186-0.266,0.36
		V5.555z"/>
	<path d="M58.027,4.378c0.024-0.149,0.05-0.345,0.05-0.556c0.26,0.056,0.4,0.091,0.601,0.166c0.05,0.015,0.08,0.055,0.08,0.1
		c0,0.025-0.01,0.05-0.035,0.075c-0.05,0.065-0.075,0.12-0.1,0.19c-0.065,0.205-0.115,0.391-0.181,0.601
		c0.135-0.016,0.285-0.021,0.391-0.021c0.471,0,0.726,0.32,0.726,0.926c0,0.591-0.101,1.246-0.271,1.607
		c-0.145,0.32-0.385,0.47-0.676,0.47c-0.24,0-0.385-0.02-0.495-0.055c-0.061-0.021-0.09-0.065-0.09-0.141
		c-0.016-0.16-0.025-0.3-0.096-0.465c0.226,0.085,0.396,0.11,0.551,0.11c0.165,0,0.24-0.061,0.32-0.266
		c0.105-0.28,0.195-0.756,0.195-1.241c0-0.355-0.065-0.466-0.285-0.466c-0.12,0-0.275,0.016-0.421,0.035
		c-0.33,0.961-0.615,1.651-1.006,2.353c-0.03,0.065-0.07,0.075-0.13,0.045c-0.09-0.045-0.285-0.165-0.346-0.22
		c-0.024-0.025-0.04-0.046-0.04-0.075c0-0.016,0.005-0.035,0.021-0.056c0.4-0.695,0.66-1.226,0.916-1.962
		c-0.195,0.03-0.355,0.061-0.491,0.085c-0.13,0.025-0.21,0.056-0.274,0.08c-0.07,0.025-0.131,0.016-0.16-0.064
		c-0.046-0.115-0.101-0.296-0.155-0.516c0.22,0,0.44-0.016,0.66-0.035c0.21-0.02,0.396-0.045,0.591-0.075
		C57.957,4.724,57.992,4.549,58.027,4.378z M60.065,4.714c0.034-0.021,0.06-0.011,0.095,0.024c0.34,0.32,0.646,0.736,0.831,1.217
		c0.02,0.045,0.015,0.07-0.021,0.1c-0.085,0.08-0.275,0.2-0.375,0.25c-0.05,0.025-0.101,0.021-0.115-0.039
		c-0.2-0.526-0.461-0.956-0.821-1.297C59.784,4.884,59.929,4.783,60.065,4.714z"/>
	<path d="M62.427,4.999c0.055,0.024,0.08,0.055,0.08,0.095c0,0.025-0.01,0.051-0.025,0.075c-0.045,0.08-0.08,0.17-0.1,0.266
		c-0.05,0.255-0.101,0.625-0.12,0.911c0.46-0.466,1.061-0.791,1.672-0.791c0.73,0,1.166,0.425,1.166,1.07
		c0,0.546-0.325,0.906-0.756,1.121c-0.336,0.171-0.851,0.291-1.281,0.346c-0.11,0.016-0.155,0.01-0.2-0.064
		c-0.096-0.171-0.186-0.306-0.341-0.426c0.561-0.035,1.041-0.13,1.377-0.28c0.405-0.175,0.59-0.436,0.59-0.756
		c0-0.271-0.17-0.516-0.601-0.516c-0.44,0-0.971,0.285-1.441,0.761c-0.09,0.09-0.154,0.176-0.215,0.275
		c-0.03,0.05-0.05,0.05-0.115,0.035c-0.115-0.04-0.235-0.085-0.34-0.135c-0.051-0.021-0.07-0.03-0.07-0.101
		c0.03-0.581,0.095-1.171,0.155-1.616c0.02-0.15,0.045-0.28,0.045-0.451C62.102,4.874,62.312,4.934,62.427,4.999z M62.552,3.732
		c0.025-0.024,0.055-0.04,0.095-0.024c0.371,0.145,0.681,0.335,0.981,0.595c0.025,0.021,0.035,0.035,0.035,0.056
		c0,0.015-0.01,0.035-0.025,0.06c-0.064,0.105-0.17,0.251-0.255,0.351c-0.021,0.025-0.04,0.04-0.056,0.04
		c-0.02,0-0.034-0.01-0.06-0.035c-0.28-0.245-0.615-0.476-1.011-0.65C62.377,3.943,62.472,3.812,62.552,3.732z"/>
	<path d="M68.048,4.488c0.045-0.015,0.064-0.015,0.075,0.04c0.024,0.125,0.04,0.275,0.045,0.405c0,0.045-0.021,0.056-0.061,0.061
		c-0.27,0.055-0.516,0.09-0.825,0.135c-0.32,0.846-0.616,1.537-0.977,2.147c-0.02,0.035-0.035,0.05-0.055,0.05
		c-0.015,0-0.035-0.01-0.061-0.025c-0.114-0.069-0.26-0.175-0.345-0.255c-0.025-0.021-0.035-0.035-0.035-0.055
		c0-0.016,0.005-0.035,0.025-0.061c0.375-0.62,0.641-1.146,0.865-1.747c-0.19,0.011-0.345,0.011-0.5,0.011
		c-0.11,0-0.15,0-0.275-0.005c-0.05,0-0.061-0.016-0.07-0.08c-0.025-0.096-0.04-0.261-0.05-0.426c0.205,0.015,0.32,0.02,0.465,0.02
		c0.195,0,0.346-0.005,0.576-0.024c0.06-0.21,0.095-0.381,0.13-0.561c0.03-0.175,0.03-0.25,0.03-0.405
		c0.215,0.029,0.431,0.06,0.585,0.104c0.051,0.011,0.08,0.04,0.08,0.075c0,0.04-0.015,0.065-0.045,0.096
		c-0.029,0.04-0.05,0.085-0.08,0.185c-0.035,0.12-0.075,0.275-0.12,0.426C67.622,4.578,67.853,4.533,68.048,4.488z M68.188,5.83
		c-0.005-0.136-0.01-0.216-0.04-0.355c0.245,0.024,0.376,0.045,0.546,0.095c0.045,0.01,0.07,0.035,0.07,0.08
		c0,0.01-0.011,0.045-0.03,0.105c-0.021,0.06-0.025,0.12-0.021,0.205c0,0.295,0.016,0.511,0.056,0.851
		c0.36,0.146,0.605,0.256,0.9,0.466c0.051,0.035,0.056,0.055,0.03,0.104c-0.075,0.155-0.146,0.28-0.23,0.406
		c-0.015,0.024-0.029,0.034-0.045,0.034c-0.015,0-0.03-0.01-0.05-0.029c-0.221-0.19-0.405-0.301-0.61-0.421
		c0,0.501-0.36,0.73-0.932,0.73c-0.55,0-0.921-0.28-0.921-0.71c0-0.436,0.36-0.731,0.927-0.731c0.095,0,0.234,0.006,0.395,0.03
		C68.203,6.37,68.192,6.064,68.188,5.83z M67.832,7.091c-0.25,0-0.445,0.101-0.445,0.29c0,0.16,0.141,0.24,0.426,0.24
		c0.271,0,0.436-0.145,0.436-0.355c0-0.045,0-0.069-0.005-0.1C68.123,7.126,67.987,7.091,67.832,7.091z M68.764,4.684
		c0.029-0.05,0.055-0.055,0.104-0.035c0.296,0.08,0.691,0.28,0.981,0.471c0.03,0.02,0.045,0.035,0.045,0.055
		c0,0.016-0.005,0.035-0.021,0.061c-0.05,0.109-0.14,0.265-0.21,0.37c-0.015,0.025-0.03,0.035-0.045,0.035s-0.025-0.005-0.045-0.021
		c-0.295-0.2-0.655-0.42-1.036-0.545C68.623,4.924,68.698,4.773,68.764,4.684z"/>
	<path d="M71.341,4.493c0.045,0.021,0.08,0.056,0.08,0.091c0,0.029-0.015,0.08-0.04,0.14c-0.02,0.06-0.045,0.275-0.045,0.49
		c0,0.32,0.01,0.681,0.09,1.142c0.07,0.396,0.2,0.735,0.411,0.735c0.16,0,0.285-0.175,0.48-0.695c0.109,0.175,0.22,0.29,0.32,0.385
		c0.06,0.056,0.06,0.115,0.034,0.186c-0.189,0.511-0.5,0.78-0.851,0.78c-0.391,0-0.801-0.46-0.936-1.306
		c-0.08-0.476-0.12-0.996-0.12-1.456c0-0.275-0.01-0.426-0.061-0.656C70.945,4.358,71.19,4.418,71.341,4.493z M73.663,4.809
		c0.021-0.01,0.04-0.02,0.056-0.02c0.02,0,0.034,0.01,0.055,0.029c0.455,0.396,0.855,1.086,0.98,1.712
		c0.016,0.065-0.015,0.085-0.055,0.11c-0.13,0.085-0.255,0.155-0.391,0.2c-0.06,0.02-0.095,0.005-0.104-0.056
		c-0.171-0.715-0.426-1.235-0.937-1.746C73.458,4.919,73.583,4.849,73.663,4.809z"/>
</g>
<polyline fill="none" stroke="#000000" stroke-linecap="round" stroke-linejoin="round" stroke-miterlimit="10" points="
	44.881,15.062 49.274,15.062 52.117,17.905 "/>
</svg>
