<?xml version="1.0" encoding="utf-8"?>
<!-- Generator: Adobe Illustrator 21.1.0, SVG Export Plug-In . SVG Version: 6.00 Build 0)  -->
<svg version="1.1" id="レイヤー_1" xmlns="http://www.w3.org/2000/svg" xmlns:xlink="http://www.w3.org/1999/xlink" x="0px"
	 y="0px" viewBox="0 0 141.732 141.732" enable-background="new 0 0 141.732 141.732" xml:space="preserve">
<g>
	<path fill="#404040" d="M70.866,70.826l-7.89-56.141c2.48-0.349,5.385-0.552,7.89-0.552V70.826z"/>
	<path fill="#595757" d="M70.866,70.826l-38.664,41.463C9.303,90.935,8.05,55.061,29.404,32.161
		c9.396-10.076,19.93-15.559,33.572-17.477L70.866,70.826z"/>
	<path fill="#3E3A39" d="M70.866,70.826V14.133c31.311,0,56.693,25.382,56.693,56.693s-25.382,56.693-56.693,56.693
		c-15.029,0-27.673-4.981-38.664-15.23L70.866,70.826z"/>
</g>
<g>
	<path fill="#FFFFFF" d="M94.384,77.087c-0.419-0.181-0.849-0.271-1.289-0.271c-1.169,0-1.869,0.84-1.899,2.299h0.02
		c0.35-0.47,0.979-0.76,1.619-0.76c1.329,0,2.159,0.89,2.159,2.219c0,1.39-0.969,2.409-2.559,2.409
		c-1.709,0-2.588-1.189-2.588-3.368c0-2.469,1.199-3.848,3.178-3.848c0.53,0,1.079,0.069,1.499,0.22L94.384,77.087z M91.306,80.624
		c0,0.78,0.5,1.38,1.179,1.38c0.76,0,1.149-0.609,1.149-1.329c0-0.75-0.3-1.319-1.089-1.319
		C91.916,79.355,91.306,79.925,91.306,80.624z"/>
	<path fill="#FFFFFF" d="M96.047,76.177c0.56-0.26,1.309-0.409,2.079-0.409c1.29,0,2.389,0.649,2.389,2.019
		c0,0.88-0.41,1.669-1.699,2.878c-0.59,0.55-1.02,0.87-1.389,1.12v0.02c0.629-0.02,1.449-0.03,2.069-0.03h1.169v1.09h-4.757v-1.159
		c2.239-1.819,3.139-2.769,3.139-3.769c0-0.759-0.55-1.069-1.25-1.069c-0.51,0-1.049,0.15-1.609,0.47L96.047,76.177z"/>
</g>
<g>
	<path fill="#FFFFFF" d="M92.326,67.386c0.05-0.029,0.07-0.024,0.105,0.005c0.08,0.065,0.22,0.206,0.311,0.326
		c0.035,0.045,0.02,0.06-0.025,0.095l-0.115,0.075c0.29,0,0.4-0.01,0.425-0.01c0.05,0,0.055,0.005,0.055,0.05v0.335
		c0,0.051-0.005,0.056-0.055,0.056c-0.03,0-0.195-0.011-0.67-0.011h-0.491c0.04,0.341,0.105,0.661,0.21,0.946
		c0.1-0.15,0.175-0.3,0.24-0.44c0.03-0.08,0.07-0.195,0.095-0.311c0.15,0.045,0.291,0.101,0.405,0.155
		c0.04,0.021,0.061,0.05,0.061,0.07c0,0.03-0.021,0.05-0.045,0.075c-0.03,0.029-0.05,0.06-0.1,0.15
		c-0.12,0.25-0.26,0.505-0.44,0.745c0.135,0.205,0.28,0.315,0.371,0.315c0.125,0,0.175-0.141,0.235-0.48
		c0.075,0.07,0.175,0.13,0.25,0.165c0.095,0.045,0.13,0.065,0.13,0.115c0,0.025-0.01,0.06-0.025,0.11
		c-0.125,0.42-0.29,0.605-0.575,0.605c-0.24,0-0.491-0.17-0.706-0.461c-0.115,0.115-0.24,0.23-0.38,0.331
		c-0.06,0.04-0.095,0.064-0.12,0.064c-0.03,0-0.055-0.03-0.11-0.095c-0.06-0.065-0.105-0.11-0.165-0.16
		c-0.005,0.025-0.021,0.025-0.055,0.025c-0.035,0-0.13-0.011-0.425-0.011h-0.471c-0.295,0-0.391,0.011-0.425,0.011
		c-0.05,0-0.055-0.006-0.055-0.056c0-0.035,0.01-0.11,0.01-0.32v-0.33c0-0.21-0.01-0.285-0.01-0.32c0-0.05,0.005-0.056,0.055-0.056
		c0.035,0,0.13,0.011,0.425,0.011h0.471c0.295,0,0.39-0.011,0.425-0.011c0.05,0,0.055,0.006,0.055,0.056c0,0.03-0.01,0.11-0.01,0.32
		v0.33c0,0.15,0.005,0.23,0.005,0.275c0.215-0.13,0.396-0.28,0.551-0.445c-0.185-0.386-0.291-0.891-0.355-1.382h-1.782v0.336
		c0,0.275-0.035,0.75-0.09,1.006c-0.07,0.315-0.16,0.586-0.335,0.876c-0.04,0.069-0.06,0.1-0.09,0.1c-0.02,0-0.05-0.024-0.105-0.075
		c-0.11-0.1-0.22-0.17-0.32-0.215c0.2-0.275,0.295-0.495,0.36-0.796c0.065-0.275,0.095-0.601,0.095-1.065
		c0-0.351-0.01-0.516-0.01-0.546c0-0.045,0.005-0.05,0.06-0.05c0.03,0,0.195,0.01,0.676,0.01h1.497
		c-0.02-0.181-0.03-0.365-0.06-0.511c0.175,0.005,0.36,0.021,0.505,0.035c0.05,0.005,0.075,0.025,0.075,0.055
		c0,0.035-0.015,0.065-0.025,0.091c-0.015,0.055-0.01,0.154-0.005,0.33h0.48c-0.075-0.096-0.175-0.205-0.23-0.261
		c-0.02-0.015-0.025-0.029-0.025-0.045c0-0.015,0.01-0.035,0.04-0.05L92.326,67.386z M88.777,71.596
		c-0.06-0.035-0.06-0.056-0.03-0.096c0.206-0.23,0.391-0.54,0.505-0.836c0.021-0.055,0.03-0.055,0.101-0.024l0.295,0.13
		c0.065,0.03,0.07,0.04,0.055,0.09c-0.13,0.33-0.3,0.626-0.51,0.901c-0.03,0.04-0.045,0.04-0.101,0.01L88.777,71.596z
		 M90.759,68.542c0.3,0,0.42-0.01,0.45-0.01c0.045,0,0.05,0.005,0.05,0.06v0.291c0,0.05-0.005,0.055-0.05,0.055
		c-0.03,0-0.15-0.01-0.45-0.01h-0.511c-0.295,0-0.415,0.01-0.445,0.01c-0.05,0-0.055-0.005-0.055-0.055v-0.291
		c0-0.055,0.005-0.06,0.055-0.06c0.03,0,0.15,0.01,0.445,0.01H90.759z M90.404,71.205c0,0.1,0.02,0.165,0.08,0.2
		c0.08,0.04,0.295,0.045,0.505,0.045c0.366,0,0.505,0.005,0.611-0.056c0.085-0.045,0.125-0.189,0.13-0.43
		c0.1,0.064,0.215,0.109,0.36,0.15c0.13,0.039,0.13,0.039,0.115,0.175c-0.04,0.275-0.135,0.41-0.275,0.49
		c-0.185,0.101-0.46,0.12-0.981,0.12c-0.44,0-0.721-0.025-0.866-0.1c-0.115-0.065-0.185-0.171-0.185-0.436v-0.44
		c0-0.141,0-0.235-0.025-0.381c0.165,0,0.35,0.011,0.495,0.03c0.06,0.01,0.09,0.025,0.09,0.045c0,0.03-0.005,0.045-0.025,0.085
		c-0.021,0.045-0.03,0.096-0.03,0.181V71.205z M90.774,69.508h-0.595v0.365h0.595V69.508z M90.929,70.364
		c0.05-0.035,0.065-0.035,0.105-0.005c0.19,0.154,0.32,0.3,0.47,0.495c0.03,0.035,0.035,0.045-0.015,0.08l-0.26,0.2
		c-0.03,0.025-0.05,0.035-0.065,0.035s-0.025-0.01-0.04-0.035c-0.13-0.195-0.275-0.36-0.436-0.521c-0.04-0.04-0.04-0.045,0.02-0.09
		L90.929,70.364z M92.476,70.564c0.03-0.016,0.045-0.025,0.06-0.025c0.015,0,0.025,0.01,0.045,0.03
		c0.235,0.255,0.425,0.525,0.59,0.836c0.025,0.05,0.025,0.06-0.04,0.1l-0.31,0.19c-0.065,0.04-0.08,0.045-0.1-0.005
		c-0.14-0.33-0.306-0.605-0.536-0.866c-0.04-0.04-0.035-0.055,0.025-0.09L92.476,70.564z"/>
	<path fill="#FFFFFF" d="M94.779,67.717c0.085,0.02,0.12,0.045,0.12,0.095c0,0.055-0.03,0.115-0.05,0.165
		c-0.025,0.07-0.045,0.226-0.07,0.61c-0.055,0.871-0.075,1.332-0.075,1.922c0,0.541,0.06,0.636,0.46,0.636
		c0.446,0,1.141-0.27,1.752-0.921c0.02,0.19,0.065,0.355,0.115,0.476c0.025,0.055,0.04,0.09,0.04,0.12c0,0.045-0.02,0.085-0.1,0.155
		c-0.541,0.495-1.247,0.751-1.897,0.751c-0.641,0-0.941-0.256-0.941-1.021c0-0.841,0.045-1.562,0.07-2.162
		c0.01-0.295,0.025-0.615-0.05-0.916C94.383,67.651,94.624,67.677,94.779,67.717z M96.295,68.047
		c0.025-0.021,0.045-0.016,0.075,0.01c0.155,0.12,0.335,0.32,0.475,0.535c0.02,0.03,0.02,0.056-0.015,0.08l-0.21,0.155
		c-0.035,0.025-0.06,0.021-0.085-0.015c-0.15-0.23-0.311-0.42-0.506-0.58L96.295,68.047z M96.741,67.722
		c0.03-0.021,0.045-0.016,0.075,0.01c0.185,0.14,0.365,0.341,0.476,0.516c0.02,0.03,0.025,0.06-0.015,0.09l-0.2,0.155
		c-0.04,0.03-0.065,0.015-0.085-0.015c-0.135-0.216-0.295-0.405-0.5-0.576L96.741,67.722z"/>
	<path fill="#FFFFFF" d="M100.335,68.277c0.055-0.016,0.075,0.01,0.08,0.05c0.015,0.11,0.03,0.255,0.035,0.36
		c0.005,0.064-0.01,0.08-0.075,0.095c-0.31,0.085-0.565,0.141-0.871,0.19c-0.34,1.111-0.596,1.877-0.916,2.708
		c-0.025,0.069-0.055,0.064-0.11,0.05c-0.05-0.021-0.295-0.125-0.4-0.186c-0.04-0.024-0.055-0.064-0.04-0.1
		c0.38-0.876,0.62-1.537,0.866-2.373c-0.291,0.03-0.641,0.056-0.876,0.056c-0.075,0-0.095-0.015-0.105-0.08
		c-0.02-0.105-0.045-0.275-0.07-0.456c0.105,0.016,0.165,0.016,0.371,0.016c0.25,0,0.521-0.016,0.811-0.05
		c0.05-0.2,0.09-0.421,0.125-0.626c0.02-0.15,0.03-0.301,0.03-0.461c0.265,0.041,0.47,0.075,0.63,0.141
		c0.04,0.015,0.055,0.05,0.055,0.08c0,0.02,0,0.045-0.025,0.08c-0.04,0.07-0.08,0.12-0.105,0.2c-0.05,0.181-0.085,0.351-0.12,0.476
		C99.819,68.412,100.089,68.347,100.335,68.277z M100.139,70.669c0.05,0,0.07,0.021,0.075,0.07c0.04,0.365,0.285,0.471,0.766,0.471
		c0.28,0,0.641-0.045,0.841-0.07c0.04-0.005,0.055,0.005,0.061,0.045c0.02,0.13,0.04,0.301,0.04,0.436
		c0.005,0.061,0,0.075-0.08,0.08c-0.17,0.025-0.496,0.056-0.681,0.056c-0.656,0-0.996-0.091-1.222-0.326
		c-0.16-0.16-0.215-0.395-0.225-0.686C99.869,70.704,100.074,70.669,100.139,70.669z M100.085,69.343c0-0.069,0.015-0.085,0.09-0.1
		c0.315-0.065,0.686-0.115,0.976-0.115c0.195,0,0.411,0.02,0.585,0.05c0.07,0.01,0.085,0.016,0.085,0.075
		c0.01,0.125,0.01,0.266,0.005,0.4c0,0.085-0.025,0.105-0.095,0.09c-0.175-0.035-0.405-0.06-0.621-0.06
		c-0.3,0-0.681,0.05-1.006,0.115C100.094,69.623,100.085,69.443,100.085,69.343z"/>
</g>
<g>
	<path fill="#FFFFFF" d="M38.149,70.882v-1.039c0.11,0.01,0.229,0.02,0.339,0.02c1.18,0,1.849-0.31,1.849-0.999
		c0-0.62-0.54-0.96-1.339-0.96c-0.56,0-1.119,0.12-1.609,0.35l-0.09-1.099c0.58-0.221,1.279-0.3,1.899-0.3
		c1.569,0,2.519,0.68,2.519,1.818c0,0.93-0.66,1.489-1.659,1.619v0.03c1.049,0.109,1.749,0.76,1.749,1.709
		c0,1.26-1.189,2.039-2.878,2.039c-0.609,0-1.219-0.07-1.829-0.26l0.07-1.17c0.609,0.24,1.149,0.36,1.689,0.36
		c0.879,0,1.529-0.32,1.529-1.069c0-0.75-0.69-1.06-1.889-1.06C38.419,70.872,38.269,70.872,38.149,70.882z"/>
	<path fill="#FFFFFF" d="M47.497,68.174c-0.419-0.181-0.849-0.271-1.289-0.271c-1.169,0-1.869,0.84-1.899,2.299h0.02
		c0.35-0.47,0.979-0.76,1.619-0.76c1.329,0,2.159,0.89,2.159,2.219c0,1.39-0.969,2.409-2.559,2.409
		c-1.709,0-2.588-1.189-2.588-3.368c0-2.469,1.199-3.848,3.178-3.848c0.53,0,1.079,0.069,1.499,0.22L47.497,68.174z M44.419,71.711
		c0,0.78,0.5,1.38,1.179,1.38c0.76,0,1.149-0.609,1.149-1.329c0-0.75-0.3-1.319-1.089-1.319
		C45.029,70.442,44.419,71.012,44.419,71.711z"/>
</g>
<g>
	<path d="M48.3,2.92c0.56-0.26,1.309-0.409,2.079-0.409c1.29,0,2.389,0.649,2.389,2.019c0,0.88-0.41,1.669-1.699,2.878
		c-0.59,0.55-1.02,0.87-1.389,1.12v0.02c0.629-0.02,1.449-0.03,2.069-0.03h1.169v1.09H48.16V8.447
		c2.239-1.819,3.138-2.769,3.138-3.769c0-0.759-0.549-1.069-1.249-1.069c-0.51,0-1.049,0.15-1.609,0.47L48.3,2.92z"/>
</g>
<g>
	<path fill="#FFFFFF" d="M33.169,46.785c0.05-0.029,0.07-0.024,0.105,0.005c0.08,0.065,0.22,0.206,0.311,0.326
		c0.035,0.045,0.02,0.06-0.025,0.095l-0.115,0.075c0.29,0,0.4-0.01,0.425-0.01c0.05,0,0.055,0.005,0.055,0.05v0.335
		c0,0.051-0.005,0.056-0.055,0.056c-0.03,0-0.195-0.011-0.671-0.011h-0.49c0.04,0.341,0.105,0.661,0.21,0.946
		c0.101-0.15,0.175-0.3,0.24-0.44c0.03-0.08,0.07-0.195,0.095-0.311c0.15,0.045,0.291,0.101,0.406,0.155
		c0.04,0.021,0.06,0.05,0.06,0.07c0,0.03-0.02,0.05-0.045,0.075c-0.03,0.029-0.05,0.06-0.1,0.15c-0.12,0.25-0.26,0.505-0.44,0.745
		c0.135,0.205,0.28,0.315,0.371,0.315c0.125,0,0.175-0.141,0.235-0.48c0.075,0.07,0.175,0.13,0.25,0.165
		c0.095,0.045,0.13,0.065,0.13,0.115c0,0.025-0.01,0.06-0.025,0.11c-0.125,0.42-0.29,0.605-0.576,0.605
		c-0.24,0-0.49-0.17-0.706-0.461c-0.115,0.115-0.24,0.23-0.38,0.331c-0.06,0.04-0.095,0.064-0.12,0.064
		c-0.03,0-0.055-0.03-0.11-0.095c-0.06-0.065-0.105-0.11-0.166-0.16c-0.005,0.025-0.02,0.025-0.055,0.025
		c-0.035,0-0.13-0.011-0.426-0.011h-0.47c-0.295,0-0.39,0.011-0.425,0.011c-0.05,0-0.055-0.006-0.055-0.056
		c0-0.035,0.01-0.11,0.01-0.32v-0.33c0-0.21-0.01-0.285-0.01-0.32c0-0.05,0.005-0.056,0.055-0.056c0.035,0,0.13,0.011,0.425,0.011
		h0.47c0.295,0,0.391-0.011,0.426-0.011c0.05,0,0.055,0.006,0.055,0.056c0,0.03-0.01,0.11-0.01,0.32v0.33
		c0,0.15,0.005,0.23,0.005,0.275c0.215-0.13,0.396-0.28,0.551-0.445c-0.186-0.386-0.291-0.891-0.355-1.382h-1.782v0.336
		c0,0.275-0.035,0.75-0.09,1.006c-0.07,0.315-0.16,0.586-0.335,0.876c-0.04,0.069-0.06,0.1-0.09,0.1c-0.02,0-0.05-0.024-0.105-0.075
		c-0.11-0.1-0.22-0.17-0.32-0.215c0.2-0.275,0.295-0.495,0.36-0.796c0.065-0.275,0.095-0.601,0.095-1.065
		c0-0.351-0.01-0.516-0.01-0.546c0-0.045,0.005-0.05,0.06-0.05c0.03,0,0.195,0.01,0.676,0.01h1.497
		c-0.02-0.181-0.03-0.365-0.06-0.511c0.175,0.005,0.36,0.021,0.505,0.035c0.05,0.005,0.075,0.025,0.075,0.055
		c0,0.035-0.015,0.065-0.025,0.091c-0.015,0.055-0.01,0.154-0.005,0.33h0.48c-0.075-0.096-0.175-0.205-0.23-0.261
		c-0.02-0.015-0.025-0.029-0.025-0.045c0-0.015,0.01-0.035,0.04-0.05L33.169,46.785z M29.62,50.995
		c-0.06-0.035-0.06-0.056-0.03-0.096c0.205-0.23,0.391-0.54,0.506-0.836c0.02-0.055,0.03-0.055,0.1-0.024l0.295,0.13
		c0.065,0.03,0.07,0.04,0.055,0.09c-0.13,0.33-0.3,0.626-0.511,0.901c-0.03,0.04-0.045,0.04-0.1,0.01L29.62,50.995z M31.602,47.941
		c0.3,0,0.42-0.01,0.45-0.01c0.045,0,0.05,0.005,0.05,0.06v0.291c0,0.05-0.005,0.055-0.05,0.055c-0.03,0-0.15-0.01-0.45-0.01h-0.511
		c-0.295,0-0.416,0.01-0.445,0.01c-0.05,0-0.055-0.005-0.055-0.055v-0.291c0-0.055,0.005-0.06,0.055-0.06
		c0.03,0,0.15,0.01,0.445,0.01H31.602z M31.247,50.604c0,0.1,0.02,0.165,0.08,0.2c0.08,0.04,0.295,0.045,0.505,0.045
		c0.365,0,0.506,0.005,0.611-0.056c0.085-0.045,0.125-0.189,0.13-0.43c0.1,0.064,0.215,0.109,0.36,0.15
		c0.13,0.039,0.13,0.039,0.115,0.175c-0.04,0.275-0.135,0.41-0.275,0.49c-0.185,0.101-0.46,0.12-0.981,0.12
		c-0.44,0-0.721-0.025-0.866-0.1c-0.115-0.065-0.185-0.171-0.185-0.436v-0.44c0-0.141,0-0.235-0.025-0.381
		c0.166,0,0.351,0.011,0.496,0.03c0.06,0.01,0.09,0.025,0.09,0.045c0,0.03-0.005,0.045-0.025,0.085
		c-0.02,0.045-0.03,0.096-0.03,0.181V50.604z M31.617,48.907h-0.596v0.365h0.596V48.907z M31.772,49.764
		c0.05-0.035,0.065-0.035,0.105-0.005c0.19,0.154,0.32,0.3,0.471,0.495c0.03,0.035,0.035,0.045-0.015,0.08l-0.26,0.2
		c-0.03,0.025-0.05,0.035-0.065,0.035c-0.015,0-0.025-0.01-0.04-0.035c-0.13-0.195-0.275-0.36-0.436-0.521
		c-0.04-0.04-0.04-0.045,0.02-0.09L31.772,49.764z M33.318,49.964c0.03-0.016,0.045-0.025,0.061-0.025
		c0.015,0,0.025,0.01,0.045,0.03c0.235,0.255,0.425,0.525,0.59,0.836c0.025,0.05,0.025,0.06-0.04,0.1l-0.31,0.19
		c-0.065,0.04-0.08,0.045-0.1-0.005c-0.14-0.33-0.305-0.605-0.536-0.866c-0.04-0.04-0.035-0.055,0.025-0.09L33.318,49.964z"/>
	<path fill="#FFFFFF" d="M35.622,47.116c0.085,0.02,0.12,0.045,0.12,0.095c0,0.055-0.03,0.115-0.05,0.165
		c-0.025,0.07-0.045,0.226-0.07,0.61c-0.055,0.871-0.075,1.332-0.075,1.922c0,0.541,0.06,0.636,0.46,0.636
		c0.445,0,1.141-0.27,1.752-0.921c0.02,0.19,0.065,0.355,0.115,0.476c0.025,0.055,0.04,0.09,0.04,0.12
		c0,0.045-0.021,0.085-0.101,0.155c-0.54,0.495-1.246,0.751-1.896,0.751c-0.641,0-0.941-0.256-0.941-1.021
		c0-0.841,0.045-1.562,0.07-2.162c0.01-0.295,0.025-0.615-0.05-0.916C35.226,47.051,35.466,47.076,35.622,47.116z M37.138,47.446
		c0.025-0.021,0.045-0.016,0.075,0.01c0.155,0.12,0.335,0.32,0.476,0.535c0.02,0.03,0.02,0.056-0.015,0.08l-0.21,0.155
		c-0.035,0.025-0.06,0.021-0.085-0.015c-0.15-0.23-0.311-0.42-0.505-0.58L37.138,47.446z M37.584,47.121
		c0.03-0.021,0.045-0.016,0.075,0.01c0.185,0.14,0.365,0.341,0.475,0.516c0.021,0.03,0.025,0.06-0.015,0.09l-0.2,0.155
		c-0.04,0.03-0.065,0.015-0.085-0.015c-0.135-0.216-0.295-0.405-0.501-0.576L37.584,47.121z"/>
	<path fill="#FFFFFF" d="M40.207,48.878c0.28-0.16,0.515-0.226,0.795-0.226c0.731,0,1.241,0.48,1.241,1.201
		c0,0.836-0.675,1.371-1.747,1.371c-0.631,0-1.011-0.271-1.011-0.735c0-0.336,0.315-0.61,0.706-0.61c0.47,0,0.816,0.25,0.941,0.73
		c0.35-0.16,0.51-0.381,0.51-0.761c0-0.455-0.32-0.756-0.786-0.756c-0.416,0-0.876,0.186-1.281,0.53
		c-0.145,0.13-0.285,0.275-0.436,0.426c-0.035,0.035-0.06,0.055-0.085,0.055c-0.02,0-0.045-0.015-0.075-0.045
		c-0.105-0.09-0.215-0.22-0.295-0.325c-0.03-0.04-0.015-0.075,0.025-0.115c0.39-0.315,0.736-0.636,1.186-1.105
		c0.311-0.32,0.545-0.571,0.776-0.856c-0.3,0.056-0.656,0.125-0.966,0.19c-0.065,0.015-0.13,0.03-0.21,0.06
		c-0.025,0.011-0.075,0.025-0.1,0.025c-0.05,0-0.085-0.025-0.11-0.085c-0.061-0.115-0.105-0.256-0.175-0.541
		c0.15,0.021,0.315,0.021,0.465,0.011c0.305-0.03,0.746-0.096,1.136-0.171c0.125-0.024,0.225-0.05,0.275-0.074
		c0.025-0.016,0.07-0.041,0.095-0.041c0.05,0,0.08,0.016,0.115,0.041c0.15,0.114,0.25,0.215,0.335,0.32
		c0.04,0.045,0.055,0.08,0.055,0.119c0,0.051-0.03,0.096-0.085,0.121c-0.085,0.039-0.125,0.074-0.22,0.16
		c-0.365,0.354-0.701,0.705-1.081,1.07L40.207,48.878z M40.212,50.304c-0.146,0-0.24,0.085-0.24,0.19
		c0,0.155,0.135,0.261,0.436,0.261c0.09,0,0.155-0.006,0.23-0.021C40.572,50.459,40.422,50.304,40.212,50.304z"/>
	<path fill="#FFFFFF" d="M44.276,50.079c0,0.46,0.2,0.641,0.666,0.641c0.585,0,0.911-0.226,0.911-0.676
		c0-0.28-0.07-0.511-0.45-0.911c0.2,0.025,0.31,0,0.51-0.03c0.035-0.01,0.075-0.005,0.105,0.021c0.275,0.26,0.425,0.601,0.425,0.94
		c0,0.711-0.581,1.172-1.441,1.172c-0.886,0-1.261-0.4-1.261-1.132c0-0.104,0.015-0.245,0.035-0.47
		c-0.301-0.046-0.501-0.091-0.681-0.15c-0.035-0.01-0.05-0.035-0.055-0.096c-0.015-0.154-0.02-0.31-0.01-0.465
		c0.3,0.109,0.525,0.165,0.811,0.195c0.025-0.186,0.065-0.511,0.085-0.716c-0.35-0.045-0.531-0.075-0.721-0.141
		c-0.06-0.015-0.08-0.04-0.08-0.085c-0.005-0.12-0.015-0.285-0.015-0.465c0.34,0.109,0.581,0.154,0.906,0.189
		c0.04-0.29,0.055-0.425,0.065-0.575c0.01-0.141,0.01-0.285-0.005-0.421c0.23,0.03,0.491,0.096,0.601,0.141
		c0.07,0.025,0.11,0.07,0.11,0.115c0,0.035-0.015,0.064-0.04,0.095c-0.035,0.035-0.06,0.101-0.09,0.216
		c-0.025,0.114-0.055,0.285-0.08,0.47c0.2,0.016,0.405,0,0.615-0.03c0.035,0,0.05,0.025,0.05,0.061
		c0.005,0.12,0.005,0.26-0.01,0.375c0,0.056-0.02,0.07-0.08,0.075c-0.22,0.025-0.445,0.03-0.666,0.025
		c-0.03,0.175-0.08,0.516-0.11,0.716c0.265,0.005,0.47,0,0.71-0.016c0.065-0.01,0.08,0.011,0.08,0.056
		c0,0.09-0.01,0.271-0.025,0.375c-0.005,0.061-0.02,0.08-0.07,0.08c-0.25,0.021-0.51,0.021-0.766,0.015
		C44.282,49.868,44.276,49.988,44.276,50.079z"/>
	<path fill="#FFFFFF" d="M49.623,47.906c-0.115,0.852-0.325,1.632-0.625,2.157c-0.215,0.376-0.476,0.576-0.851,0.576
		c-0.44,0-0.886-0.471-0.886-1.287c0-0.48,0.205-0.94,0.565-1.301c0.42-0.42,0.951-0.641,1.626-0.641
		c1.201,0,1.907,0.74,1.907,1.736c0,0.932-0.525,1.517-1.542,1.822c-0.105,0.03-0.15,0.01-0.215-0.09
		c-0.055-0.086-0.16-0.2-0.351-0.315c0.846-0.2,1.512-0.551,1.512-1.497c0-0.596-0.45-1.161-1.121-1.161H49.623z M48.186,48.392
		c-0.24,0.271-0.39,0.606-0.39,0.927c0,0.46,0.185,0.716,0.34,0.716c0.13,0,0.24-0.065,0.375-0.306
		c0.22-0.405,0.445-1.126,0.53-1.792C48.691,48.007,48.411,48.146,48.186,48.392z"/>
	<path fill="#FFFFFF" d="M53.532,47.065c0.06,0.016,0.09,0.04,0.09,0.08c0,0.07-0.035,0.141-0.035,0.211
		c0,0.1,0.015,0.22,0.025,0.335c0.045,0.351,0.095,0.601,0.16,0.86c0.25-0.135,0.43-0.229,0.71-0.38
		c0.145-0.085,0.265-0.17,0.345-0.271c0.16,0.165,0.291,0.341,0.366,0.471c0.02,0.03,0.035,0.07,0.035,0.105
		c0,0.05-0.03,0.09-0.1,0.1c-0.15,0.025-0.32,0.085-0.48,0.15c-0.431,0.175-0.831,0.36-1.176,0.586
		c-0.436,0.285-0.591,0.52-0.591,0.755c0,0.296,0.22,0.421,0.796,0.421c0.63,0,1.141-0.045,1.526-0.115
		c0.055-0.01,0.08,0,0.09,0.061c0.025,0.135,0.04,0.314,0.05,0.465c0.005,0.055-0.03,0.08-0.09,0.085
		c-0.456,0.061-0.856,0.075-1.492,0.075c-0.946,0-1.446-0.311-1.446-0.961c0-0.556,0.365-0.921,0.951-1.291
		c-0.12-0.386-0.21-0.836-0.26-1.222c-0.035-0.265-0.07-0.44-0.13-0.58C53.117,47.006,53.347,47.02,53.532,47.065z"/>
	<path fill="#FFFFFF" d="M29.993,52.785c0.05-0.029,0.07-0.024,0.105,0.005c0.08,0.065,0.22,0.206,0.311,0.326
		c0.035,0.045,0.02,0.06-0.025,0.095l-0.115,0.075c0.29,0,0.4-0.01,0.425-0.01c0.05,0,0.055,0.005,0.055,0.05v0.335
		c0,0.051-0.005,0.056-0.055,0.056c-0.03,0-0.195-0.011-0.67-0.011h-0.491c0.04,0.341,0.105,0.661,0.21,0.946
		c0.1-0.15,0.175-0.3,0.24-0.44c0.03-0.08,0.07-0.195,0.095-0.311c0.15,0.045,0.291,0.101,0.405,0.155
		c0.04,0.021,0.061,0.05,0.061,0.07c0,0.03-0.021,0.05-0.045,0.075c-0.03,0.029-0.05,0.06-0.1,0.15
		c-0.12,0.25-0.26,0.505-0.44,0.745c0.135,0.205,0.28,0.315,0.371,0.315c0.125,0,0.175-0.141,0.235-0.48
		c0.075,0.07,0.175,0.13,0.25,0.165c0.095,0.045,0.13,0.065,0.13,0.115c0,0.025-0.01,0.06-0.025,0.11
		c-0.125,0.42-0.29,0.605-0.575,0.605c-0.24,0-0.491-0.17-0.706-0.461c-0.115,0.115-0.24,0.23-0.38,0.331
		c-0.06,0.04-0.095,0.064-0.12,0.064c-0.03,0-0.055-0.03-0.11-0.095c-0.06-0.065-0.105-0.11-0.165-0.16
		c-0.005,0.025-0.021,0.025-0.055,0.025c-0.035,0-0.13-0.011-0.425-0.011h-0.471c-0.295,0-0.391,0.011-0.425,0.011
		c-0.05,0-0.055-0.006-0.055-0.056c0-0.035,0.01-0.11,0.01-0.32v-0.33c0-0.21-0.01-0.285-0.01-0.32c0-0.05,0.005-0.056,0.055-0.056
		c0.035,0,0.13,0.011,0.425,0.011h0.471c0.295,0,0.39-0.011,0.425-0.011c0.05,0,0.055,0.006,0.055,0.056c0,0.03-0.01,0.11-0.01,0.32
		v0.33c0,0.15,0.005,0.23,0.005,0.275c0.215-0.13,0.396-0.28,0.551-0.445c-0.185-0.386-0.291-0.891-0.355-1.382h-1.782v0.336
		c0,0.275-0.035,0.75-0.09,1.006c-0.07,0.315-0.16,0.586-0.335,0.876c-0.04,0.069-0.06,0.1-0.09,0.1c-0.02,0-0.05-0.024-0.105-0.075
		c-0.11-0.1-0.22-0.17-0.32-0.215c0.2-0.275,0.295-0.495,0.36-0.796c0.065-0.275,0.095-0.601,0.095-1.065
		c0-0.351-0.01-0.516-0.01-0.546c0-0.045,0.005-0.05,0.06-0.05c0.03,0,0.195,0.01,0.676,0.01h1.497
		c-0.02-0.181-0.03-0.365-0.06-0.511c0.175,0.005,0.36,0.021,0.505,0.035c0.05,0.005,0.075,0.025,0.075,0.055
		c0,0.035-0.015,0.065-0.025,0.091c-0.015,0.055-0.01,0.154-0.005,0.33h0.48c-0.075-0.096-0.175-0.205-0.23-0.261
		c-0.02-0.015-0.025-0.029-0.025-0.045c0-0.015,0.01-0.035,0.04-0.05L29.993,52.785z M26.445,56.995
		c-0.06-0.035-0.06-0.056-0.03-0.096c0.206-0.23,0.391-0.54,0.505-0.836c0.021-0.055,0.03-0.055,0.101-0.024l0.295,0.13
		c0.065,0.03,0.07,0.04,0.055,0.09c-0.13,0.33-0.3,0.626-0.51,0.901c-0.03,0.04-0.045,0.04-0.101,0.01L26.445,56.995z
		 M28.427,53.941c0.3,0,0.42-0.01,0.45-0.01c0.045,0,0.05,0.005,0.05,0.06v0.291c0,0.05-0.005,0.055-0.05,0.055
		c-0.03,0-0.15-0.01-0.45-0.01h-0.511c-0.295,0-0.415,0.01-0.445,0.01c-0.05,0-0.055-0.005-0.055-0.055v-0.291
		c0-0.055,0.005-0.06,0.055-0.06c0.03,0,0.15,0.01,0.445,0.01H28.427z M28.071,56.604c0,0.1,0.02,0.165,0.08,0.2
		c0.08,0.04,0.295,0.045,0.505,0.045c0.366,0,0.505,0.005,0.611-0.056c0.085-0.045,0.125-0.189,0.13-0.43
		c0.1,0.064,0.215,0.109,0.36,0.15c0.13,0.039,0.13,0.039,0.115,0.175c-0.04,0.275-0.135,0.41-0.275,0.49
		c-0.185,0.101-0.46,0.12-0.981,0.12c-0.44,0-0.721-0.025-0.866-0.1c-0.115-0.065-0.185-0.171-0.185-0.436v-0.44
		c0-0.141,0-0.235-0.025-0.381c0.165,0,0.35,0.011,0.495,0.03c0.06,0.01,0.09,0.025,0.09,0.045c0,0.03-0.005,0.045-0.025,0.085
		c-0.021,0.045-0.03,0.096-0.03,0.181V56.604z M28.441,54.907h-0.595v0.365h0.595V54.907z M28.597,55.764
		c0.05-0.035,0.065-0.035,0.105-0.005c0.19,0.154,0.32,0.3,0.47,0.495c0.03,0.035,0.035,0.045-0.015,0.08l-0.26,0.2
		c-0.03,0.025-0.05,0.035-0.065,0.035s-0.025-0.01-0.04-0.035c-0.13-0.195-0.275-0.36-0.436-0.521c-0.04-0.04-0.04-0.045,0.02-0.09
		L28.597,55.764z M30.144,55.964c0.03-0.016,0.045-0.025,0.06-0.025c0.015,0,0.025,0.01,0.045,0.03
		c0.235,0.255,0.425,0.525,0.59,0.836c0.025,0.05,0.025,0.06-0.04,0.1l-0.31,0.19c-0.065,0.04-0.08,0.045-0.1-0.005
		c-0.14-0.33-0.306-0.605-0.536-0.866c-0.04-0.04-0.035-0.055,0.025-0.09L30.144,55.964z"/>
	<path fill="#FFFFFF" d="M32.446,53.116c0.085,0.02,0.12,0.045,0.12,0.095c0,0.055-0.03,0.115-0.05,0.165
		c-0.025,0.07-0.045,0.226-0.07,0.61c-0.055,0.871-0.075,1.332-0.075,1.922c0,0.541,0.06,0.636,0.46,0.636
		c0.446,0,1.141-0.27,1.752-0.921c0.02,0.19,0.065,0.355,0.115,0.476c0.025,0.055,0.04,0.09,0.04,0.12c0,0.045-0.02,0.085-0.1,0.155
		c-0.541,0.495-1.247,0.751-1.897,0.751c-0.641,0-0.941-0.256-0.941-1.021c0-0.841,0.045-1.562,0.07-2.162
		c0.01-0.295,0.025-0.615-0.05-0.916C32.051,53.051,32.291,53.076,32.446,53.116z M33.963,53.446
		c0.025-0.021,0.045-0.016,0.075,0.01c0.155,0.12,0.335,0.32,0.475,0.535c0.02,0.03,0.02,0.056-0.015,0.08l-0.21,0.155
		c-0.035,0.025-0.06,0.021-0.085-0.015c-0.15-0.23-0.311-0.42-0.506-0.58L33.963,53.446z M34.408,53.121
		c0.03-0.021,0.045-0.016,0.075,0.01c0.185,0.14,0.365,0.341,0.476,0.516c0.02,0.03,0.025,0.06-0.015,0.09l-0.2,0.155
		c-0.04,0.03-0.065,0.015-0.085-0.015c-0.135-0.216-0.295-0.405-0.5-0.576L34.408,53.121z"/>
	<path fill="#FFFFFF" d="M37.732,53.656c0.045-0.015,0.065-0.015,0.075,0.04c0.025,0.125,0.04,0.275,0.045,0.405
		c0,0.045-0.02,0.056-0.06,0.061c-0.27,0.055-0.516,0.09-0.826,0.135c-0.32,0.846-0.616,1.536-0.976,2.147
		c-0.02,0.035-0.035,0.05-0.055,0.05c-0.015,0-0.035-0.01-0.061-0.025c-0.115-0.069-0.26-0.175-0.345-0.255
		c-0.025-0.02-0.035-0.035-0.035-0.055c0-0.016,0.005-0.035,0.025-0.061c0.375-0.62,0.641-1.146,0.866-1.746
		c-0.19,0.01-0.345,0.01-0.5,0.01c-0.11,0-0.15,0-0.275-0.005c-0.05,0-0.06-0.016-0.07-0.08c-0.025-0.096-0.04-0.261-0.05-0.426
		c0.206,0.015,0.32,0.021,0.465,0.021c0.195,0,0.346-0.006,0.576-0.025c0.06-0.21,0.095-0.381,0.13-0.561
		c0.03-0.176,0.03-0.25,0.03-0.405c0.215,0.03,0.431,0.06,0.585,0.104c0.05,0.011,0.08,0.04,0.08,0.075
		c0,0.04-0.015,0.065-0.045,0.096c-0.03,0.04-0.05,0.085-0.08,0.185c-0.035,0.12-0.075,0.275-0.12,0.426
		C37.307,53.746,37.537,53.701,37.732,53.656z M37.872,54.998c-0.005-0.136-0.01-0.216-0.04-0.355
		c0.245,0.024,0.375,0.045,0.546,0.095c0.045,0.01,0.07,0.035,0.07,0.08c0,0.01-0.01,0.045-0.03,0.105
		c-0.021,0.06-0.025,0.12-0.021,0.205c0,0.295,0.015,0.511,0.055,0.851c0.36,0.146,0.606,0.255,0.901,0.466
		c0.05,0.035,0.055,0.055,0.03,0.104c-0.075,0.155-0.146,0.28-0.23,0.405c-0.015,0.025-0.03,0.035-0.045,0.035
		s-0.03-0.01-0.05-0.029c-0.221-0.19-0.406-0.301-0.611-0.421c0,0.501-0.36,0.73-0.931,0.73c-0.55,0-0.921-0.28-0.921-0.71
		c0-0.436,0.36-0.731,0.926-0.731c0.095,0,0.235,0.005,0.395,0.03C37.887,55.538,37.877,55.233,37.872,54.998z M37.517,56.259
		c-0.25,0-0.445,0.101-0.445,0.29c0,0.16,0.14,0.24,0.426,0.24c0.27,0,0.435-0.145,0.435-0.354c0-0.046,0-0.07-0.005-0.101
		C37.807,56.294,37.672,56.259,37.517,56.259z M38.448,53.851c0.03-0.05,0.055-0.055,0.105-0.035c0.295,0.08,0.691,0.28,0.981,0.471
		c0.03,0.02,0.045,0.035,0.045,0.055c0,0.016-0.005,0.035-0.021,0.061c-0.05,0.11-0.14,0.265-0.21,0.37
		c-0.015,0.025-0.03,0.035-0.045,0.035c-0.015,0-0.025-0.005-0.045-0.021c-0.295-0.2-0.656-0.42-1.036-0.545
		C38.308,54.092,38.383,53.941,38.448,53.851z"/>
	<path fill="#FFFFFF" d="M41.025,53.661c0.045,0.021,0.08,0.056,0.08,0.09c0,0.03-0.015,0.08-0.04,0.141
		c-0.02,0.061-0.045,0.275-0.045,0.49c0,0.32,0.01,0.681,0.09,1.142c0.07,0.396,0.2,0.735,0.411,0.735
		c0.16,0,0.285-0.175,0.48-0.695c0.11,0.175,0.22,0.29,0.32,0.385c0.06,0.056,0.06,0.115,0.035,0.186
		c-0.19,0.511-0.5,0.781-0.851,0.781c-0.391,0-0.801-0.461-0.936-1.307c-0.08-0.476-0.12-0.996-0.12-1.457
		c0-0.274-0.01-0.425-0.06-0.655C40.63,53.526,40.875,53.586,41.025,53.661z M43.348,53.976c0.02-0.01,0.04-0.02,0.055-0.02
		c0.02,0,0.035,0.01,0.055,0.029c0.455,0.396,0.855,1.087,0.98,1.712c0.015,0.065-0.015,0.085-0.055,0.11
		c-0.13,0.085-0.255,0.155-0.391,0.2c-0.06,0.02-0.095,0.005-0.105-0.055c-0.17-0.716-0.425-1.236-0.936-1.747
		C43.143,54.087,43.268,54.017,43.348,53.976z"/>
	<path fill="#FFFFFF" d="M46.407,56.079c0,0.46,0.2,0.641,0.666,0.641c0.585,0,0.911-0.226,0.911-0.676
		c0-0.28-0.07-0.511-0.45-0.911c0.2,0.025,0.31,0,0.51-0.03c0.035-0.01,0.075-0.005,0.105,0.021c0.275,0.26,0.426,0.601,0.426,0.94
		c0,0.711-0.581,1.172-1.441,1.172c-0.886,0-1.261-0.4-1.261-1.132c0-0.104,0.015-0.245,0.035-0.47c-0.3-0.046-0.5-0.091-0.681-0.15
		c-0.035-0.01-0.05-0.035-0.055-0.096c-0.015-0.154-0.02-0.31-0.01-0.465c0.3,0.109,0.526,0.165,0.811,0.195
		c0.025-0.186,0.065-0.511,0.085-0.716c-0.351-0.045-0.53-0.075-0.721-0.141c-0.06-0.015-0.08-0.04-0.08-0.085
		c-0.005-0.12-0.015-0.285-0.015-0.465c0.34,0.109,0.581,0.154,0.906,0.189c0.04-0.29,0.055-0.425,0.065-0.575
		c0.01-0.141,0.01-0.285-0.005-0.421c0.23,0.03,0.49,0.096,0.601,0.141c0.07,0.025,0.11,0.07,0.11,0.115
		c0,0.035-0.015,0.064-0.04,0.095c-0.035,0.035-0.06,0.101-0.09,0.216c-0.025,0.114-0.055,0.285-0.08,0.47
		c0.2,0.016,0.406,0,0.616-0.03c0.035,0,0.05,0.025,0.05,0.061c0.005,0.12,0.005,0.26-0.01,0.375c0,0.056-0.02,0.07-0.08,0.075
		c-0.22,0.025-0.445,0.03-0.666,0.025c-0.03,0.175-0.08,0.516-0.11,0.716c0.266,0.005,0.471,0,0.711-0.016
		c0.065-0.01,0.08,0.011,0.08,0.056c0,0.09-0.01,0.271-0.025,0.375c-0.005,0.061-0.02,0.08-0.07,0.08
		c-0.25,0.021-0.51,0.021-0.766,0.015C46.412,55.868,46.407,55.988,46.407,56.079z"/>
	<path fill="#FFFFFF" d="M51.753,53.906c-0.115,0.852-0.325,1.632-0.625,2.157c-0.215,0.376-0.476,0.576-0.851,0.576
		c-0.44,0-0.886-0.471-0.886-1.287c0-0.48,0.205-0.94,0.565-1.301c0.42-0.42,0.951-0.641,1.626-0.641
		c1.201,0,1.907,0.74,1.907,1.736c0,0.932-0.525,1.517-1.542,1.822c-0.105,0.03-0.15,0.01-0.215-0.09
		c-0.055-0.086-0.16-0.2-0.351-0.315c0.846-0.2,1.512-0.551,1.512-1.497c0-0.596-0.45-1.161-1.121-1.161H51.753z M50.316,54.392
		c-0.24,0.271-0.39,0.606-0.39,0.927c0,0.46,0.185,0.716,0.34,0.716c0.13,0,0.24-0.065,0.375-0.306
		c0.22-0.405,0.445-1.126,0.53-1.792C50.821,54.007,50.541,54.146,50.316,54.392z"/>
	<path fill="#FFFFFF" d="M55.627,53.546c0.025-0.149,0.05-0.345,0.05-0.555c0.26,0.055,0.4,0.09,0.601,0.165
		c0.05,0.015,0.08,0.055,0.08,0.1c0,0.025-0.01,0.05-0.035,0.075c-0.05,0.065-0.075,0.12-0.101,0.19
		c-0.065,0.205-0.115,0.39-0.18,0.601c0.135-0.016,0.285-0.021,0.4-0.021c0.465,0,0.715,0.325,0.715,0.966
		c0,0.541-0.1,1.207-0.27,1.566c-0.146,0.32-0.386,0.471-0.676,0.471c-0.24,0-0.41-0.024-0.521-0.075
		c-0.06-0.024-0.09-0.064-0.09-0.14c-0.015-0.16-0.025-0.301-0.095-0.466c0.225,0.105,0.42,0.13,0.576,0.13
		c0.165,0,0.24-0.06,0.32-0.265c0.105-0.28,0.195-0.756,0.195-1.246c0-0.351-0.065-0.461-0.285-0.461
		c-0.12,0-0.275,0.016-0.42,0.035c-0.33,0.961-0.616,1.651-1.006,2.353c-0.03,0.064-0.07,0.075-0.13,0.045
		c-0.09-0.045-0.285-0.165-0.345-0.221c-0.025-0.024-0.04-0.045-0.04-0.074c0-0.016,0.005-0.035,0.02-0.056
		c0.4-0.695,0.661-1.226,0.916-1.962c-0.195,0.03-0.355,0.061-0.491,0.085c-0.13,0.025-0.21,0.056-0.275,0.08
		c-0.07,0.025-0.13,0.016-0.16-0.064c-0.045-0.115-0.1-0.296-0.155-0.516c0.22,0,0.44-0.015,0.661-0.035
		c0.21-0.021,0.396-0.045,0.59-0.075C55.556,53.892,55.591,53.717,55.627,53.546z M57.608,53.882c0.035-0.021,0.06-0.01,0.095,0.024
		c0.341,0.32,0.646,0.736,0.831,1.217c0.02,0.045,0.015,0.069-0.02,0.1c-0.085,0.08-0.275,0.2-0.375,0.251
		c-0.05,0.024-0.1,0.02-0.115-0.041c-0.2-0.525-0.46-0.955-0.82-1.296C57.328,54.052,57.473,53.952,57.608,53.882z M57.743,53.181
		c0.025-0.02,0.045-0.015,0.075,0.01c0.155,0.121,0.335,0.32,0.476,0.536c0.02,0.03,0.02,0.055-0.015,0.08l-0.21,0.155
		c-0.035,0.024-0.06,0.02-0.085-0.016c-0.15-0.229-0.31-0.42-0.505-0.58L57.743,53.181z M58.189,52.855
		c0.03-0.02,0.045-0.015,0.075,0.01c0.186,0.141,0.366,0.341,0.476,0.516c0.02,0.03,0.025,0.061-0.015,0.091l-0.2,0.154
		c-0.04,0.03-0.065,0.016-0.085-0.015c-0.135-0.215-0.295-0.405-0.5-0.575L58.189,52.855z"/>
	<path fill="#FFFFFF" d="M37.972,59.02c0.06,0.021,0.09,0.051,0.09,0.09c0,0.035-0.005,0.056-0.025,0.08
		c-0.045,0.056-0.06,0.126-0.07,0.181c-0.015,0.09-0.025,0.165-0.04,0.25c0.461-0.045,0.816-0.1,1.302-0.21
		c0.06-0.015,0.075,0.005,0.085,0.05c0.025,0.105,0.05,0.23,0.05,0.341c0,0.064-0.05,0.09-0.105,0.1
		c-0.661,0.136-0.966,0.17-1.421,0.211c-0.02,0.21-0.03,0.33-0.035,0.505c0.195-0.065,0.521-0.104,0.766-0.11
		c0.03-0.08,0.08-0.225,0.085-0.365c0.18,0.056,0.375,0.136,0.445,0.186c0.06,0.04,0.09,0.08,0.09,0.11c0,0.02-0.01,0.04-0.03,0.06
		c-0.025,0.025-0.04,0.055-0.065,0.101c0.646,0.17,1.026,0.595,1.026,1.221c0,0.726-0.596,1.196-1.392,1.411
		c-0.11,0.03-0.165,0.016-0.22-0.095c-0.035-0.07-0.135-0.175-0.295-0.311c0.36-0.075,0.746-0.235,0.931-0.365
		c0.24-0.175,0.4-0.391,0.4-0.751c0-0.4-0.285-0.641-0.621-0.726c-0.29,0.551-0.585,0.946-0.946,1.312
		c0.025,0.09,0.055,0.146,0.09,0.226c0.03,0.064,0.01,0.09-0.04,0.125c-0.115,0.085-0.23,0.145-0.301,0.175
		c-0.05,0.025-0.07,0.025-0.1-0.025c-0.035-0.06-0.061-0.119-0.085-0.194c-0.355,0.245-0.616,0.36-0.871,0.36
		c-0.34,0-0.556-0.23-0.556-0.621c0-0.641,0.556-1.251,1.171-1.557c0.005-0.215,0.015-0.436,0.025-0.625
		c-0.295,0.01-0.431,0.005-0.516,0.005c-0.145,0-0.225,0-0.285-0.011c-0.055-0.005-0.085-0.029-0.09-0.114
		c-0.015-0.11-0.015-0.24-0.025-0.381c0.32,0.035,0.596,0.025,0.971,0.021c0.021-0.181,0.04-0.406,0.04-0.546
		c0-0.075-0.005-0.146-0.02-0.226C37.677,58.94,37.847,58.976,37.972,59.02z M36.641,62.233c0,0.121,0.075,0.19,0.165,0.19
		c0.141,0,0.326-0.09,0.581-0.29c-0.05-0.301-0.09-0.57-0.101-0.861C36.901,61.548,36.641,61.908,36.641,62.233z M38.418,60.933
		c-0.18,0.005-0.411,0.04-0.641,0.115c0.005,0.26,0.02,0.495,0.06,0.751C38.042,61.563,38.277,61.213,38.418,60.933z"/>
	<path fill="#FFFFFF" d="M41.517,60.833c0.615-0.206,1.101-0.306,1.461-0.306c0.681,0,1.142,0.445,1.142,1.071
		c0,0.51-0.24,0.865-0.716,1.121c-0.26,0.145-0.611,0.285-1.036,0.33c-0.09,0.015-0.13-0.005-0.165-0.07
		c-0.055-0.1-0.146-0.21-0.306-0.33c0.586-0.09,0.861-0.176,1.207-0.346c0.285-0.15,0.45-0.385,0.45-0.745
		c0-0.355-0.22-0.551-0.621-0.551c-0.345,0-0.871,0.17-1.416,0.391c-0.125,0.055-0.226,0.114-0.28,0.155
		c-0.04,0.034-0.07,0.05-0.101,0.05c-0.045,0-0.08-0.03-0.13-0.091c-0.115-0.145-0.19-0.32-0.271-0.485
		C40.986,60.987,41.231,60.923,41.517,60.833z"/>
	<path fill="#FFFFFF" d="M47.378,59.677c0.055-0.016,0.075,0.01,0.08,0.05c0.015,0.11,0.03,0.255,0.035,0.36
		c0.005,0.064-0.01,0.08-0.075,0.095c-0.31,0.085-0.565,0.141-0.871,0.19c-0.34,1.111-0.596,1.877-0.916,2.708
		c-0.025,0.069-0.055,0.064-0.11,0.05c-0.05-0.021-0.295-0.125-0.4-0.186c-0.04-0.024-0.055-0.064-0.04-0.1
		c0.381-0.876,0.621-1.537,0.866-2.373c-0.291,0.03-0.641,0.056-0.876,0.056c-0.075,0-0.095-0.015-0.105-0.08
		c-0.02-0.105-0.045-0.275-0.07-0.456c0.105,0.016,0.166,0.016,0.371,0.016c0.25,0,0.521-0.016,0.811-0.05
		c0.05-0.2,0.09-0.421,0.125-0.626c0.021-0.15,0.03-0.301,0.03-0.461c0.265,0.041,0.471,0.075,0.631,0.141
		c0.04,0.015,0.055,0.05,0.055,0.08c0,0.02,0,0.045-0.025,0.08c-0.04,0.07-0.08,0.12-0.105,0.2c-0.05,0.181-0.085,0.351-0.12,0.476
		C46.862,59.811,47.132,59.746,47.378,59.677z M47.183,62.068c0.05,0,0.07,0.021,0.075,0.07c0.04,0.365,0.286,0.471,0.766,0.471
		c0.28,0,0.641-0.045,0.841-0.07c0.04-0.005,0.055,0.005,0.06,0.045c0.021,0.13,0.04,0.301,0.04,0.436
		c0.005,0.061,0,0.075-0.08,0.08c-0.17,0.025-0.495,0.056-0.681,0.056c-0.655,0-0.996-0.091-1.221-0.326
		c-0.16-0.16-0.215-0.395-0.226-0.686C46.912,62.103,47.117,62.068,47.183,62.068z M47.128,60.742c0-0.069,0.015-0.085,0.09-0.1
		c0.315-0.065,0.686-0.115,0.976-0.115c0.195,0,0.41,0.02,0.585,0.05c0.07,0.01,0.085,0.016,0.085,0.075
		c0.01,0.125,0.01,0.266,0.005,0.4c0,0.085-0.025,0.105-0.095,0.09c-0.175-0.035-0.405-0.06-0.621-0.06
		c-0.3,0-0.681,0.05-1.006,0.115C47.137,61.022,47.128,60.843,47.128,60.742z"/>
</g>
<g>
	<path d="M57.237,5.948c0.45-0.371,0.911-0.586,1.436-0.586c0.756,0,1.247,0.516,1.247,1.271c0,0.771-0.471,1.301-1.332,1.611
		c-0.03,0.016-0.06,0.021-0.085,0.021c-0.05,0-0.095-0.025-0.13-0.07c-0.105-0.125-0.22-0.226-0.396-0.33
		c0.486-0.131,0.741-0.271,1.006-0.496c0.23-0.205,0.34-0.455,0.34-0.756c0-0.47-0.266-0.775-0.746-0.775
		c-0.46,0-0.851,0.22-1.341,0.641c0.005,0.641,0.02,1.246,0.03,1.922c0,0.04-0.025,0.06-0.065,0.06
		c-0.055,0.006-0.28,0.021-0.445,0.021c-0.045,0-0.061-0.021-0.055-0.07c0.005-0.511,0.015-1.036,0.025-1.546
		c-0.24,0.36-0.49,0.726-0.676,0.99c-0.025,0.03-0.045,0.051-0.07,0.051c-0.015,0-0.035-0.011-0.055-0.03
		c-0.115-0.101-0.21-0.195-0.305-0.301C55.6,7.56,55.59,7.54,55.59,7.519s0.01-0.04,0.03-0.06c0.44-0.536,0.726-0.892,1.101-1.407
		c0-0.125,0-0.26,0.005-0.354c-0.145,0.045-0.38,0.114-0.57,0.185c-0.085,0.035-0.135,0.085-0.166,0.085
		c-0.035,0-0.07-0.029-0.1-0.09c-0.06-0.115-0.135-0.271-0.2-0.44c0.12-0.01,0.195-0.021,0.34-0.05
		c0.13-0.03,0.326-0.075,0.711-0.181c0.01-0.215,0.01-0.436,0.01-0.65c0-0.125-0.01-0.271-0.05-0.436
		c0.29,0.03,0.456,0.05,0.581,0.085c0.105,0.03,0.125,0.085,0.09,0.176c-0.025,0.06-0.04,0.135-0.05,0.215
		c-0.005,0.12-0.015,0.235-0.025,0.45c0.015-0.005,0.025-0.01,0.04-0.015c0.01-0.005,0.025-0.01,0.035-0.01
		c0.035,0,0.09,0.05,0.135,0.115c0.06,0.08,0.08,0.119,0.08,0.154s-0.01,0.056-0.085,0.141c-0.07,0.09-0.145,0.186-0.265,0.36V5.948
		z"/>
	<path d="M62.057,4.771c0.025-0.149,0.05-0.345,0.05-0.556c0.26,0.056,0.4,0.091,0.601,0.166c0.05,0.015,0.08,0.055,0.08,0.1
		c0,0.025-0.01,0.05-0.035,0.075c-0.05,0.065-0.075,0.12-0.1,0.19c-0.065,0.205-0.115,0.391-0.18,0.601
		c0.135-0.016,0.285-0.021,0.39-0.021c0.471,0,0.726,0.32,0.726,0.926c0,0.591-0.101,1.246-0.271,1.607
		c-0.145,0.32-0.385,0.47-0.676,0.47c-0.24,0-0.385-0.02-0.495-0.055c-0.061-0.021-0.09-0.065-0.09-0.141
		c-0.015-0.16-0.025-0.3-0.095-0.465c0.226,0.085,0.396,0.11,0.551,0.11c0.165,0,0.24-0.061,0.32-0.266
		c0.105-0.28,0.195-0.756,0.195-1.241c0-0.355-0.065-0.466-0.286-0.466c-0.12,0-0.275,0.016-0.42,0.035
		c-0.33,0.961-0.615,1.651-1.006,2.353c-0.03,0.065-0.07,0.075-0.13,0.045c-0.09-0.045-0.286-0.165-0.346-0.22
		c-0.025-0.025-0.04-0.046-0.04-0.075c0-0.016,0.005-0.035,0.02-0.056c0.4-0.695,0.661-1.226,0.916-1.962
		c-0.195,0.03-0.355,0.061-0.491,0.085c-0.13,0.025-0.21,0.056-0.275,0.08c-0.07,0.025-0.13,0.016-0.16-0.064
		c-0.045-0.115-0.1-0.296-0.155-0.516c0.22,0,0.44-0.016,0.661-0.035c0.21-0.02,0.396-0.045,0.591-0.075
		C61.987,5.117,62.022,4.942,62.057,4.771z M64.094,5.107c0.035-0.021,0.06-0.011,0.095,0.024c0.34,0.32,0.646,0.736,0.831,1.217
		c0.02,0.045,0.015,0.07-0.02,0.1c-0.085,0.08-0.275,0.2-0.375,0.25c-0.05,0.025-0.1,0.021-0.115-0.039
		c-0.2-0.526-0.461-0.956-0.821-1.297C63.814,5.277,63.959,5.177,64.094,5.107z"/>
	<path d="M66.457,5.393c0.055,0.024,0.08,0.055,0.08,0.095c0,0.025-0.01,0.051-0.025,0.075c-0.045,0.08-0.08,0.17-0.1,0.266
		c-0.05,0.255-0.1,0.625-0.12,0.911c0.46-0.466,1.061-0.791,1.672-0.791c0.73,0,1.166,0.425,1.166,1.07
		c0,0.546-0.325,0.906-0.756,1.121c-0.335,0.171-0.851,0.291-1.281,0.346c-0.11,0.016-0.155,0.01-0.2-0.064
		c-0.095-0.171-0.185-0.306-0.34-0.426c0.561-0.035,1.041-0.13,1.376-0.28c0.405-0.175,0.59-0.436,0.59-0.756
		c0-0.271-0.17-0.516-0.601-0.516c-0.44,0-0.971,0.285-1.441,0.761c-0.09,0.09-0.155,0.176-0.215,0.275
		c-0.03,0.05-0.05,0.05-0.115,0.035c-0.115-0.04-0.235-0.085-0.34-0.135c-0.05-0.021-0.07-0.03-0.07-0.101
		c0.03-0.581,0.095-1.171,0.155-1.616c0.02-0.15,0.045-0.28,0.045-0.451C66.131,5.268,66.341,5.327,66.457,5.393z M66.582,4.126
		c0.025-0.024,0.055-0.04,0.095-0.024c0.371,0.145,0.681,0.335,0.981,0.595c0.025,0.021,0.035,0.035,0.035,0.056
		c0,0.015-0.01,0.035-0.025,0.06c-0.065,0.105-0.17,0.251-0.255,0.351c-0.02,0.025-0.04,0.04-0.055,0.04
		c-0.02,0-0.035-0.01-0.06-0.035c-0.28-0.245-0.616-0.476-1.011-0.65C66.406,4.337,66.502,4.206,66.582,4.126z"/>
	<path d="M72.077,4.882c0.045-0.015,0.065-0.015,0.075,0.04c0.025,0.125,0.04,0.275,0.045,0.405c0,0.045-0.02,0.056-0.06,0.061
		c-0.27,0.055-0.516,0.09-0.826,0.135c-0.32,0.846-0.616,1.537-0.976,2.147c-0.02,0.035-0.035,0.05-0.055,0.05
		c-0.015,0-0.035-0.01-0.061-0.025c-0.115-0.069-0.26-0.175-0.345-0.255C69.85,7.419,69.84,7.404,69.84,7.385
		c0-0.016,0.005-0.035,0.025-0.061c0.375-0.62,0.641-1.146,0.866-1.747c-0.19,0.011-0.345,0.011-0.5,0.011
		c-0.11,0-0.15,0-0.275-0.005c-0.05,0-0.06-0.016-0.07-0.08c-0.025-0.096-0.04-0.261-0.05-0.426c0.206,0.015,0.32,0.02,0.465,0.02
		c0.195,0,0.346-0.005,0.576-0.024c0.06-0.21,0.095-0.381,0.13-0.561c0.03-0.175,0.03-0.25,0.03-0.405
		c0.215,0.029,0.431,0.06,0.585,0.104c0.05,0.011,0.08,0.04,0.08,0.075c0,0.04-0.015,0.065-0.045,0.096
		c-0.03,0.04-0.05,0.085-0.08,0.185c-0.035,0.12-0.075,0.275-0.12,0.426C71.652,4.972,71.882,4.927,72.077,4.882z M72.217,6.224
		c-0.005-0.136-0.01-0.216-0.04-0.355c0.245,0.024,0.375,0.045,0.546,0.095c0.045,0.01,0.07,0.035,0.07,0.08
		c0,0.01-0.01,0.045-0.03,0.105c-0.021,0.06-0.025,0.12-0.021,0.205c0,0.295,0.015,0.511,0.055,0.851
		c0.36,0.146,0.606,0.256,0.901,0.466c0.05,0.035,0.055,0.055,0.03,0.104c-0.075,0.155-0.146,0.28-0.23,0.406
		c-0.015,0.024-0.03,0.034-0.045,0.034s-0.03-0.01-0.05-0.029c-0.221-0.19-0.406-0.301-0.611-0.421c0,0.501-0.36,0.73-0.931,0.73
		c-0.55,0-0.921-0.28-0.921-0.71c0-0.436,0.36-0.731,0.926-0.731c0.095,0,0.235,0.006,0.395,0.03
		C72.232,6.764,72.222,6.458,72.217,6.224z M71.862,7.484c-0.25,0-0.445,0.101-0.445,0.29c0,0.16,0.14,0.24,0.426,0.24
		c0.27,0,0.435-0.145,0.435-0.355c0-0.045,0-0.069-0.005-0.1C72.152,7.519,72.017,7.484,71.862,7.484z M72.793,5.077
		c0.03-0.05,0.055-0.055,0.105-0.035c0.295,0.08,0.691,0.28,0.981,0.471c0.03,0.02,0.045,0.035,0.045,0.055
		c0,0.016-0.005,0.035-0.021,0.061c-0.05,0.109-0.14,0.265-0.21,0.37c-0.015,0.025-0.03,0.035-0.045,0.035
		c-0.015,0-0.025-0.005-0.045-0.021c-0.295-0.2-0.656-0.42-1.036-0.545C72.653,5.317,72.728,5.167,72.793,5.077z"/>
	<path d="M75.371,4.887c0.045,0.021,0.08,0.056,0.08,0.091c0,0.029-0.015,0.08-0.04,0.14c-0.02,0.06-0.045,0.275-0.045,0.49
		c0,0.32,0.01,0.681,0.09,1.142c0.07,0.396,0.2,0.735,0.411,0.735c0.16,0,0.285-0.175,0.48-0.695c0.11,0.175,0.22,0.29,0.32,0.385
		c0.06,0.056,0.06,0.115,0.035,0.186c-0.19,0.511-0.5,0.78-0.851,0.78c-0.391,0-0.801-0.46-0.936-1.306
		c-0.08-0.476-0.12-0.996-0.12-1.456c0-0.275-0.01-0.426-0.06-0.656C74.975,4.752,75.22,4.811,75.371,4.887z M77.693,5.202
		c0.02-0.01,0.04-0.02,0.055-0.02c0.02,0,0.035,0.01,0.055,0.029c0.455,0.396,0.855,1.086,0.98,1.712
		c0.015,0.065-0.015,0.085-0.055,0.11c-0.13,0.085-0.255,0.155-0.391,0.2c-0.06,0.02-0.095,0.005-0.105-0.056
		c-0.17-0.715-0.425-1.235-0.936-1.746C77.488,5.312,77.613,5.242,77.693,5.202z"/>
</g>
<line fill="none" stroke="#000000" stroke-linecap="round" stroke-linejoin="round" stroke-miterlimit="10" x1="67.205" y1="10.702" x2="67.446" y2="16.236"/>
</svg>
