<?xml version="1.0" encoding="utf-8"?>
<!-- Generator: Adobe Illustrator 21.1.0, SVG Export Plug-In . SVG Version: 6.00 Build 0)  -->
<svg version="1.1" id="レイヤー_1" xmlns="http://www.w3.org/2000/svg" xmlns:xlink="http://www.w3.org/1999/xlink" x="0px"
	 y="0px" viewBox="0 0 141.732 141.732" enable-background="new 0 0 141.732 141.732" xml:space="preserve">
<g>
	<path fill="#C9CACA" d="M70.873,70.833l-54.73,14.665c-8.099-30.226,9.839-61.295,40.065-69.394
		c4.836-1.296,9.658-1.931,14.665-1.931V70.833z"/>
	<path fill="#9FA0A0" d="M70.873,70.833l-17.509,53.887c-19.047-6.189-32.037-19.878-37.221-39.222L70.873,70.833z"/>
	<path fill="#727171" d="M70.873,70.833l14.665,54.73c-10.881,2.916-21.46,2.639-32.174-0.842L70.873,70.833z"/>
	<path fill="#595757" d="M70.873,70.833h56.66c0,26.286-16.605,47.926-41.996,54.73L70.873,70.833z"/>
	<path fill="#3E3A39" d="M70.873,70.833v-56.66c31.293,0,56.66,25.368,56.66,56.66l0,0H70.873z"/>
</g>
<g>
	<path fill="#FFFFFF" d="M90.594,53.047c0.56-0.26,1.309-0.41,2.079-0.41c1.29,0,2.389,0.65,2.389,2.02
		c0,0.879-0.41,1.668-1.699,2.877c-0.59,0.551-1.02,0.871-1.389,1.121v0.02c0.629-0.02,1.449-0.031,2.069-0.031h1.169v1.09h-4.757
		v-1.158c2.239-1.82,3.139-2.77,3.139-3.77c0-0.758-0.55-1.068-1.25-1.068c-0.51,0-1.049,0.15-1.609,0.469L90.594,53.047z"/>
	<path fill="#FFFFFF" d="M100.951,53.807h-2.918l-0.04,1.529c0.29-0.061,0.48-0.07,0.77-0.07c1.449,0,2.439,0.83,2.439,2.168
		c0,1.49-1.129,2.42-2.898,2.42c-0.52,0-1.06-0.061-1.609-0.211l0.02-1.18c0.49,0.211,0.97,0.311,1.479,0.311
		c0.959,0,1.609-0.43,1.609-1.25c0-0.85-0.609-1.258-1.669-1.258c-0.45,0-0.91,0.08-1.369,0.229l0.05-3.738h4.138V53.807z"/>
</g>
<g>
	<path fill="#FFFFFF" d="M93.923,94.388c0.56-0.26,1.309-0.409,2.079-0.409c1.29,0,2.389,0.649,2.389,2.019
		c0,0.88-0.41,1.669-1.699,2.878c-0.59,0.55-1.02,0.87-1.389,1.12v0.02c0.629-0.02,1.449-0.03,2.069-0.03h1.169v1.09h-4.757v-1.159
		c2.239-1.819,3.139-2.769,3.139-3.769c0-0.759-0.55-1.069-1.25-1.069c-0.51,0-1.049,0.15-1.609,0.47L93.923,94.388z"/>
	<path fill="#FFFFFF" d="M103.331,101.074h-1.419v-3.648c0-0.589,0.02-1.539,0.04-1.908h-0.02c-0.16,0.159-0.49,0.439-0.85,0.729
		l-0.36,0.29l-0.689-0.939l2.029-1.5h1.27V101.074z"/>
</g>
<g>
	<path fill="#FFFFFF" d="M68.196,105.878c0.43,0.2,0.889,0.31,1.369,0.31c1.279,0,1.899-0.89,1.929-2.349h-0.02
		c-0.36,0.52-0.99,0.779-1.619,0.779c-1.27,0-2.119-0.829-2.119-2.158c0-1.39,0.939-2.438,2.539-2.438
		c1.709,0,2.569,1.179,2.569,3.357c0,2.479-1.16,3.858-3.198,3.858c-0.59,0-1.16-0.09-1.579-0.25L68.196,105.878z M71.384,102.38
		c0-0.77-0.459-1.379-1.119-1.379c-0.76,0-1.14,0.64-1.14,1.358c0,0.75,0.4,1.25,1.129,1.25
		C70.914,103.609,71.384,103.09,71.384,102.38z"/>
</g>
<g>
	<path d="M40.704,107.116h-1.419v-3.648c0-0.589,0.02-1.539,0.04-1.908h-0.02c-0.16,0.159-0.49,0.439-0.85,0.729l-0.36,0.29
		l-0.689-0.939l2.029-1.5h1.27V107.116z"/>
	<path d="M47.513,101.34c-0.419-0.181-0.849-0.271-1.289-0.271c-1.169,0-1.869,0.84-1.899,2.299h0.02
		c0.35-0.47,0.979-0.76,1.619-0.76c1.329,0,2.159,0.89,2.159,2.219c0,1.39-0.969,2.409-2.559,2.409
		c-1.709,0-2.588-1.189-2.588-3.368c0-2.469,1.199-3.848,3.178-3.848c0.53,0,1.079,0.069,1.499,0.22L47.513,101.34z M44.435,104.877
		c0,0.78,0.5,1.38,1.179,1.38c0.76,0,1.149-0.609,1.149-1.329c0-0.75-0.3-1.319-1.089-1.319
		C45.045,103.608,44.435,104.178,44.435,104.877z"/>
</g>
<g>
	<path d="M38.565,53.047c0.56-0.26,1.309-0.409,2.079-0.409c1.29,0,2.389,0.649,2.389,2.019c0,0.88-0.41,1.669-1.699,2.878
		c-0.59,0.55-1.02,0.87-1.389,1.12v0.02c0.629-0.02,1.449-0.03,2.069-0.03h1.169v1.09h-4.757v-1.159
		c2.239-1.819,3.139-2.769,3.139-3.769c0-0.759-0.55-1.069-1.25-1.069c-0.51,0-1.049,0.15-1.609,0.47L38.565,53.047z"/>
	<path d="M44.715,58.494c0.43,0.2,0.89,0.31,1.369,0.31c1.279,0,1.899-0.89,1.929-2.349h-0.02c-0.36,0.52-0.99,0.779-1.619,0.779
		c-1.27,0-2.119-0.829-2.119-2.158c0-1.39,0.939-2.438,2.539-2.438c1.709,0,2.569,1.179,2.569,3.357c0,2.479-1.16,3.858-3.198,3.858
		c-0.59,0-1.16-0.09-1.579-0.25L44.715,58.494z M47.903,54.996c0-0.77-0.459-1.379-1.119-1.379c-0.76,0-1.14,0.64-1.14,1.358
		c0,0.75,0.4,1.25,1.129,1.25C47.433,56.226,47.903,55.706,47.903,54.996z"/>
</g>
<g>
	<path fill="#FFFFFF" d="M83.323,46.225c0.15-0.055,0.305-0.12,0.456-0.18c-0.015,0.08-0.021,0.23-0.021,0.355
		c0,0.135-0.005,0.14-0.105,0.175c-0.1,0.045-0.215,0.096-0.33,0.135v0.216c0,0.48,0.015,0.751,0.015,1.001
		c0,0.275-0.045,0.41-0.155,0.495c-0.11,0.085-0.215,0.11-0.521,0.11c-0.155,0.005-0.165,0.005-0.19-0.15
		c-0.025-0.155-0.08-0.28-0.125-0.36c0.115,0.011,0.2,0.016,0.38,0.016c0.065,0,0.105-0.03,0.105-0.141v-1.016
		c-0.07,0.024-0.135,0.045-0.19,0.06c-0.09,0.03-0.145,0.065-0.175,0.09c-0.025,0.021-0.055,0.025-0.085,0.025
		c-0.03,0-0.05-0.015-0.065-0.06c-0.035-0.131-0.065-0.301-0.085-0.476c0.146-0.021,0.291-0.045,0.466-0.096l0.135-0.04v-0.961
		h-0.085c-0.311,0-0.405,0.011-0.436,0.011c-0.045,0-0.05-0.006-0.05-0.056v-0.365c0-0.05,0.005-0.055,0.05-0.055
		c0.03,0,0.125,0.01,0.436,0.01h0.085v-0.261c0-0.32-0.01-0.48-0.04-0.71c0.186,0.005,0.346,0.015,0.511,0.035
		c0.05,0.005,0.085,0.029,0.085,0.055c0,0.04-0.02,0.07-0.035,0.105c-0.03,0.06-0.03,0.165-0.03,0.505v0.271
		c0.2,0,0.28-0.01,0.31-0.01c0.05,0,0.055,0.005,0.055,0.055v0.085c0.255-0.22,0.43-0.465,0.556-0.705
		c0.05-0.101,0.11-0.246,0.13-0.376c0.145,0.025,0.3,0.065,0.406,0.105c0.055,0.02,0.085,0.045,0.085,0.075
		c0,0.029-0.02,0.05-0.045,0.07c-0.05,0.034-0.085,0.104-0.141,0.21c-0.015,0.024-0.025,0.05-0.04,0.069h0.621
		c0.07-0.125,0.11-0.215,0.14-0.3c0.025-0.06,0.045-0.125,0.055-0.215c0.15,0.024,0.315,0.055,0.42,0.085
		c0.05,0.015,0.08,0.035,0.08,0.064c0,0.025-0.01,0.045-0.035,0.065c-0.035,0.03-0.06,0.075-0.08,0.11
		c-0.03,0.064-0.065,0.125-0.1,0.189h0.345c0.416,0,0.555-0.01,0.585-0.01c0.05,0,0.055,0.005,0.055,0.051v0.255
		c0,0.05-0.005,0.055-0.055,0.055c-0.03,0-0.17-0.01-0.585-0.01H85.72v0.226h0.045c0.53,0,0.721-0.011,0.75-0.011
		c0.05,0,0.055,0.005,0.055,0.056v0.22c0,0.05-0.005,0.056-0.055,0.056c-0.03,0-0.22-0.011-0.75-0.011H85.72v0.226h0.035
		c0.536,0,0.726-0.01,0.756-0.01c0.05,0,0.055,0.005,0.055,0.055v0.221c0,0.05-0.005,0.055-0.055,0.055
		c-0.03,0-0.22-0.01-0.756-0.01H85.72v0.235h0.355c0.466,0,0.626-0.011,0.656-0.011c0.045,0,0.05,0.006,0.05,0.056v0.255
		c0,0.045-0.005,0.05-0.05,0.05c-0.03,0-0.19-0.005-0.656-0.005h-1.271c-0.471,0-0.631,0.005-0.666,0.005
		c-0.05,0-0.055-0.005-0.055-0.05c0-0.035,0.01-0.2,0.01-0.551v-0.62l-0.095,0.1c-0.03,0.03-0.05,0.046-0.07,0.046
		c-0.025,0-0.05-0.021-0.075-0.065c-0.035-0.061-0.09-0.13-0.165-0.2v0.175c0,0.05-0.005,0.056-0.055,0.056
		c-0.03,0-0.11-0.006-0.31-0.011V46.225z M85.56,46.77c0.065,0,0.101-0.005,0.125-0.02c0.02-0.011,0.05-0.025,0.065-0.025
		c0.04,0,0.075,0.015,0.2,0.08c0.115,0.06,0.165,0.1,0.165,0.135s-0.02,0.051-0.055,0.08c-0.025,0.021-0.045,0.056-0.07,0.11
		l-0.055,0.13h0.431c0.195,0,0.27-0.005,0.31-0.005s0.055,0.015,0.05,0.05c-0.02,0.155-0.04,0.28-0.06,0.391
		c-0.04,0.221-0.07,0.375-0.13,0.535c-0.09,0.24-0.305,0.306-0.576,0.306c-0.105,0-0.23,0-0.395-0.01
		c-0.105-0.005-0.105-0.01-0.13-0.141c-0.02-0.135-0.06-0.245-0.1-0.33c0.24,0.035,0.391,0.04,0.521,0.04
		c0.135,0,0.206-0.035,0.24-0.125c0.04-0.105,0.06-0.235,0.075-0.355h-0.375l-0.045,0.096c-0.025,0.064-0.055,0.064-0.15,0.05
		l-0.23-0.04c-0.085-0.016-0.09-0.051-0.065-0.096c0.09-0.149,0.175-0.325,0.22-0.465h-0.576c-0.105,0.716-0.431,1.096-1.091,1.366
		c-0.055,0.024-0.09,0.04-0.115,0.04c-0.04,0-0.06-0.035-0.105-0.115c-0.065-0.115-0.125-0.19-0.215-0.275
		c0.63-0.18,0.936-0.471,1.026-1.016h-0.125c-0.4,0-0.536,0.01-0.561,0.01c-0.05,0-0.055-0.005-0.055-0.055v-0.301
		c0-0.05,0.005-0.055,0.055-0.055c0.025,0,0.16,0.01,0.561,0.01H85.56z M85.25,45.114v-0.226h-0.691v0.226H85.25z M85.25,45.649
		v-0.226h-0.691v0.226H85.25z M85.25,46.195V45.96h-0.691v0.235H85.25z"/>
	<path fill="#FFFFFF" d="M88.998,45.92c0.451-0.37,0.911-0.586,1.437-0.586c0.756,0,1.246,0.516,1.246,1.271
		c0,0.771-0.47,1.301-1.331,1.611c-0.03,0.015-0.06,0.021-0.085,0.021c-0.05,0-0.095-0.025-0.13-0.07
		c-0.105-0.125-0.22-0.226-0.395-0.33c0.485-0.131,0.74-0.271,1.006-0.496c0.23-0.205,0.34-0.455,0.34-0.756
		c0-0.47-0.265-0.775-0.746-0.775c-0.461,0-0.851,0.221-1.342,0.641c0.005,0.641,0.021,1.246,0.03,1.922
		c0,0.04-0.025,0.061-0.065,0.061c-0.055,0.005-0.28,0.02-0.446,0.02c-0.045,0-0.06-0.02-0.055-0.07
		c0.005-0.51,0.015-1.036,0.025-1.546c-0.24,0.36-0.491,0.726-0.676,0.99c-0.025,0.03-0.045,0.051-0.07,0.051
		c-0.015,0-0.035-0.011-0.055-0.03c-0.115-0.101-0.21-0.195-0.305-0.301c-0.02-0.015-0.03-0.035-0.03-0.055s0.01-0.04,0.03-0.061
		c0.44-0.535,0.726-0.891,1.101-1.406c0-0.125,0-0.26,0.005-0.355c-0.145,0.046-0.38,0.115-0.571,0.186
		c-0.085,0.035-0.135,0.085-0.165,0.085c-0.035,0-0.07-0.03-0.1-0.09c-0.06-0.115-0.135-0.271-0.2-0.44
		c0.12-0.01,0.195-0.02,0.34-0.05c0.13-0.03,0.325-0.075,0.711-0.181c0.01-0.215,0.01-0.436,0.01-0.65
		c0-0.125-0.01-0.271-0.05-0.436c0.29,0.03,0.455,0.05,0.581,0.085c0.105,0.03,0.125,0.085,0.09,0.176
		c-0.025,0.06-0.04,0.135-0.05,0.215c-0.005,0.12-0.015,0.235-0.025,0.45c0.015-0.005,0.025-0.01,0.04-0.015
		c0.01-0.005,0.025-0.01,0.035-0.01c0.035,0,0.09,0.05,0.135,0.114c0.06,0.08,0.08,0.121,0.08,0.155c0,0.035-0.01,0.056-0.085,0.141
		c-0.07,0.09-0.146,0.185-0.266,0.36V45.92z"/>
	<path fill="#FFFFFF" d="M93.078,46.03c0.615-0.206,1.101-0.306,1.461-0.306c0.681,0,1.142,0.445,1.142,1.071
		c0,0.51-0.24,0.865-0.716,1.121c-0.26,0.145-0.611,0.285-1.036,0.33c-0.09,0.015-0.13-0.005-0.165-0.07
		c-0.055-0.1-0.146-0.21-0.306-0.33c0.586-0.09,0.861-0.176,1.207-0.346c0.285-0.15,0.45-0.385,0.45-0.745
		c0-0.355-0.22-0.551-0.621-0.551c-0.345,0-0.871,0.17-1.416,0.391c-0.125,0.055-0.226,0.114-0.28,0.155
		c-0.04,0.034-0.07,0.05-0.101,0.05c-0.045,0-0.08-0.03-0.13-0.091c-0.115-0.145-0.19-0.32-0.271-0.485
		C92.548,46.185,92.793,46.12,93.078,46.03z"/>
	<path fill="#FFFFFF" d="M98.615,45.143c-0.611,0.115-1.146,0.221-1.682,0.331c-0.19,0.045-0.24,0.055-0.315,0.08
		c-0.035,0.015-0.07,0.04-0.11,0.04c-0.035,0-0.075-0.03-0.095-0.075c-0.065-0.136-0.12-0.311-0.185-0.541
		c0.255-0.01,0.405-0.03,0.795-0.085c0.616-0.09,1.717-0.255,3.008-0.426c0.075-0.01,0.1,0.021,0.105,0.056
		c0.025,0.115,0.05,0.3,0.055,0.44c0,0.06-0.03,0.075-0.095,0.075c-0.235,0.015-0.396,0.04-0.611,0.11
		c-0.851,0.29-1.276,0.875-1.276,1.476c0,0.646,0.461,0.996,1.332,1.052c0.08,0,0.11,0.02,0.11,0.074
		c0,0.131-0.02,0.306-0.055,0.431c-0.015,0.075-0.035,0.105-0.095,0.105c-0.881,0-1.847-0.506-1.847-1.547
		c0-0.71,0.355-1.19,0.961-1.586V45.143z"/>
	<path fill="#FFFFFF" d="M101.663,44.858c0.045,0.021,0.08,0.056,0.08,0.09c0,0.03-0.015,0.08-0.04,0.141
		c-0.02,0.061-0.045,0.275-0.045,0.49c0,0.32,0.01,0.681,0.09,1.142c0.07,0.396,0.2,0.735,0.411,0.735
		c0.16,0,0.285-0.175,0.48-0.695c0.11,0.175,0.22,0.29,0.32,0.385c0.06,0.056,0.06,0.115,0.035,0.186
		c-0.19,0.511-0.501,0.781-0.851,0.781c-0.39,0-0.801-0.461-0.936-1.307c-0.08-0.476-0.12-0.996-0.12-1.457
		c0-0.274-0.01-0.425-0.06-0.655C101.267,44.724,101.513,44.783,101.663,44.858z M103.985,45.174c0.02-0.01,0.04-0.02,0.055-0.02
		c0.02,0,0.035,0.01,0.055,0.029c0.456,0.396,0.856,1.087,0.981,1.712c0.015,0.065-0.015,0.085-0.055,0.11
		c-0.13,0.085-0.255,0.155-0.391,0.2c-0.06,0.02-0.095,0.005-0.105-0.055c-0.17-0.716-0.425-1.236-0.936-1.747
		C103.78,45.284,103.905,45.214,103.985,45.174z"/>
	<path fill="#FFFFFF" d="M107.259,46.075c0.28-0.16,0.515-0.226,0.795-0.226c0.731,0,1.241,0.48,1.241,1.201
		c0,0.836-0.675,1.371-1.747,1.371c-0.631,0-1.011-0.271-1.011-0.735c0-0.336,0.315-0.61,0.706-0.61c0.47,0,0.816,0.25,0.941,0.73
		c0.35-0.16,0.51-0.381,0.51-0.761c0-0.455-0.32-0.756-0.786-0.756c-0.416,0-0.876,0.186-1.281,0.53
		c-0.145,0.13-0.285,0.275-0.436,0.426c-0.035,0.035-0.06,0.055-0.085,0.055c-0.02,0-0.045-0.015-0.075-0.045
		c-0.105-0.09-0.215-0.22-0.295-0.325c-0.03-0.04-0.015-0.075,0.025-0.115c0.39-0.315,0.736-0.636,1.186-1.105
		c0.311-0.32,0.545-0.571,0.776-0.856c-0.3,0.056-0.656,0.125-0.966,0.19c-0.065,0.015-0.13,0.03-0.21,0.06
		c-0.025,0.011-0.075,0.025-0.1,0.025c-0.05,0-0.085-0.025-0.11-0.085c-0.061-0.115-0.105-0.256-0.175-0.541
		c0.15,0.021,0.315,0.021,0.465,0.011c0.305-0.03,0.746-0.096,1.136-0.171c0.125-0.024,0.225-0.05,0.275-0.074
		c0.025-0.016,0.07-0.041,0.095-0.041c0.05,0,0.08,0.016,0.115,0.041c0.15,0.114,0.25,0.215,0.335,0.32
		c0.04,0.045,0.055,0.08,0.055,0.119c0,0.051-0.03,0.096-0.085,0.121c-0.085,0.039-0.125,0.074-0.22,0.16
		c-0.365,0.354-0.701,0.705-1.081,1.07L107.259,46.075z M107.264,47.501c-0.146,0-0.24,0.085-0.24,0.19
		c0,0.155,0.135,0.261,0.436,0.261c0.09,0,0.155-0.006,0.23-0.021C107.624,47.656,107.474,47.501,107.264,47.501z"/>
</g>
<g>
	<path fill="#FFFFFF" d="M92.086,81.853c-0.346,0.01-0.686,0.01-1.031-0.021c-0.055,0-0.075-0.02-0.08-0.085
		c-0.02-0.11-0.03-0.311-0.03-0.426c0.371,0.045,0.751,0.056,1.126,0.04c-0.005-0.189-0.005-0.385-0.01-0.575
		c-0.48,0.015-0.841,0.015-1.196-0.025c-0.055,0-0.08-0.02-0.085-0.069c-0.015-0.126-0.025-0.245-0.035-0.451
		c0.436,0.051,0.871,0.051,1.312,0.051c0-0.186-0.005-0.315-0.01-0.485c-0.01-0.115-0.021-0.206-0.061-0.336
		c0.266,0.016,0.48,0.045,0.631,0.09c0.06,0.021,0.09,0.091,0.055,0.15c-0.035,0.07-0.07,0.155-0.075,0.24
		c-0.005,0.101-0.005,0.17-0.01,0.32c0.466-0.035,0.801-0.09,1.096-0.15c0.06-0.015,0.08,0,0.085,0.061
		c0.02,0.14,0.025,0.275,0.025,0.365c0,0.065-0.015,0.075-0.055,0.08c-0.355,0.061-0.676,0.1-1.156,0.13
		c0,0.2,0.005,0.386,0.005,0.565c0.381-0.024,0.621-0.074,0.981-0.13c0.06-0.015,0.075-0.005,0.08,0.04
		c0.005,0.096,0.015,0.261,0.015,0.41c0,0.051-0.02,0.065-0.075,0.07c-0.33,0.055-0.561,0.09-0.98,0.12
		c0.01,0.23,0.02,0.476,0.035,0.706c0.48,0.135,0.891,0.315,1.327,0.605c0.05,0.045,0.05,0.06,0.035,0.12
		c-0.035,0.095-0.14,0.28-0.22,0.37c-0.02,0.03-0.04,0.04-0.065,0.04c-0.015,0-0.035-0.005-0.055-0.024
		c-0.305-0.24-0.615-0.416-0.996-0.571c-0.005,0.541-0.33,0.761-1.016,0.761c-0.651,0-1.021-0.285-1.021-0.7
		c0-0.405,0.395-0.711,1.001-0.711c0.125,0,0.245,0,0.48,0.021C92.101,82.228,92.091,82.023,92.086,81.853z M91.655,82.864
		c-0.365,0-0.541,0.104-0.541,0.265c0,0.131,0.15,0.226,0.496,0.226c0.2,0,0.385-0.06,0.455-0.15c0.04-0.055,0.055-0.14,0.055-0.28
		C91.976,82.889,91.796,82.864,91.655,82.864z"/>
	<path fill="#FFFFFF" d="M96.651,79.596c0.06,0.021,0.09,0.051,0.09,0.09c0,0.035-0.005,0.056-0.025,0.08
		c-0.045,0.056-0.06,0.126-0.07,0.181c-0.015,0.09-0.025,0.165-0.04,0.25c0.46-0.045,0.815-0.1,1.301-0.21
		c0.061-0.015,0.075,0.005,0.085,0.05c0.025,0.105,0.05,0.23,0.05,0.341c0,0.064-0.05,0.09-0.105,0.1
		c-0.661,0.136-0.966,0.17-1.421,0.211c-0.02,0.21-0.03,0.33-0.035,0.505c0.195-0.065,0.521-0.104,0.766-0.11
		c0.03-0.08,0.08-0.225,0.085-0.365c0.18,0.056,0.375,0.136,0.445,0.186c0.06,0.04,0.09,0.08,0.09,0.11c0,0.02-0.01,0.04-0.03,0.06
		c-0.025,0.025-0.04,0.055-0.065,0.101c0.646,0.17,1.026,0.595,1.026,1.221c0,0.726-0.596,1.196-1.391,1.411
		c-0.11,0.03-0.166,0.016-0.221-0.095c-0.035-0.07-0.135-0.175-0.295-0.311c0.36-0.075,0.746-0.235,0.931-0.365
		c0.24-0.175,0.4-0.391,0.4-0.751c0-0.4-0.285-0.641-0.621-0.726c-0.29,0.551-0.585,0.946-0.946,1.312
		c0.025,0.09,0.055,0.146,0.09,0.226c0.03,0.064,0.01,0.09-0.04,0.125c-0.115,0.085-0.23,0.145-0.3,0.175
		c-0.05,0.025-0.07,0.025-0.101-0.025c-0.035-0.06-0.06-0.119-0.085-0.194c-0.355,0.245-0.615,0.36-0.871,0.36
		c-0.34,0-0.556-0.23-0.556-0.621c0-0.641,0.556-1.251,1.171-1.557c0.005-0.215,0.015-0.436,0.025-0.625
		c-0.295,0.01-0.431,0.005-0.516,0.005c-0.145,0-0.225,0-0.285-0.011c-0.055-0.005-0.085-0.029-0.09-0.114
		c-0.015-0.11-0.015-0.24-0.025-0.381c0.32,0.035,0.596,0.025,0.971,0.021c0.02-0.181,0.04-0.406,0.04-0.546
		c0-0.075-0.005-0.146-0.021-0.226C96.355,79.516,96.526,79.551,96.651,79.596z M95.319,82.809c0,0.121,0.075,0.19,0.166,0.19
		c0.14,0,0.325-0.09,0.58-0.29c-0.05-0.301-0.09-0.57-0.1-0.861C95.579,82.123,95.319,82.483,95.319,82.809z M97.096,81.508
		c-0.18,0.005-0.41,0.04-0.641,0.115c0.005,0.26,0.02,0.495,0.06,0.751C96.72,82.139,96.956,81.788,97.096,81.508z"/>
	<path fill="#FFFFFF" d="M101.111,81.853c-0.346,0.01-0.686,0.01-1.031-0.021c-0.055,0-0.075-0.02-0.08-0.085
		c-0.02-0.11-0.03-0.311-0.03-0.426c0.371,0.045,0.751,0.056,1.126,0.04c-0.005-0.189-0.005-0.385-0.01-0.575
		c-0.48,0.015-0.841,0.015-1.196-0.025c-0.055,0-0.08-0.02-0.085-0.069c-0.015-0.126-0.025-0.245-0.035-0.451
		c0.436,0.051,0.871,0.051,1.312,0.051c0-0.186-0.005-0.315-0.01-0.485c-0.01-0.115-0.021-0.206-0.061-0.336
		c0.266,0.016,0.48,0.045,0.631,0.09c0.06,0.021,0.09,0.091,0.055,0.15c-0.035,0.07-0.07,0.155-0.075,0.24
		c-0.005,0.101-0.005,0.17-0.01,0.32c0.466-0.035,0.801-0.09,1.096-0.15c0.06-0.015,0.08,0,0.085,0.061
		c0.02,0.14,0.025,0.275,0.025,0.365c0,0.065-0.015,0.075-0.055,0.08c-0.355,0.061-0.676,0.1-1.156,0.13
		c0,0.2,0.005,0.386,0.005,0.565c0.381-0.024,0.621-0.074,0.981-0.13c0.06-0.015,0.075-0.005,0.08,0.04
		c0.005,0.096,0.015,0.261,0.015,0.41c0,0.051-0.02,0.065-0.075,0.07c-0.33,0.055-0.561,0.09-0.98,0.12
		c0.01,0.23,0.02,0.476,0.035,0.706c0.48,0.135,0.891,0.315,1.327,0.605c0.05,0.045,0.05,0.06,0.035,0.12
		c-0.035,0.095-0.14,0.28-0.22,0.37c-0.02,0.03-0.04,0.04-0.065,0.04c-0.015,0-0.035-0.005-0.055-0.024
		c-0.305-0.24-0.615-0.416-0.996-0.571c-0.005,0.541-0.33,0.761-1.016,0.761c-0.651,0-1.021-0.285-1.021-0.7
		c0-0.405,0.395-0.711,1.001-0.711c0.125,0,0.245,0,0.48,0.021C101.125,82.228,101.115,82.023,101.111,81.853z M100.68,82.864
		c-0.365,0-0.541,0.104-0.541,0.265c0,0.131,0.15,0.226,0.496,0.226c0.2,0,0.385-0.06,0.455-0.15c0.04-0.055,0.055-0.14,0.055-0.28
		C101,82.889,100.82,82.864,100.68,82.864z"/>
	<path fill="#FFFFFF" d="M105.676,79.596c0.06,0.021,0.09,0.051,0.09,0.09c0,0.035-0.005,0.056-0.025,0.08
		c-0.045,0.056-0.06,0.126-0.07,0.181c-0.015,0.09-0.025,0.165-0.04,0.25c0.46-0.045,0.815-0.1,1.301-0.21
		c0.061-0.015,0.075,0.005,0.085,0.05c0.025,0.105,0.05,0.23,0.05,0.341c0,0.064-0.05,0.09-0.105,0.1
		c-0.661,0.136-0.966,0.17-1.421,0.211c-0.02,0.21-0.03,0.33-0.035,0.505c0.195-0.065,0.521-0.104,0.766-0.11
		c0.03-0.08,0.08-0.225,0.085-0.365c0.18,0.056,0.375,0.136,0.445,0.186c0.06,0.04,0.09,0.08,0.09,0.11c0,0.02-0.01,0.04-0.03,0.06
		c-0.025,0.025-0.04,0.055-0.065,0.101c0.646,0.17,1.026,0.595,1.026,1.221c0,0.726-0.596,1.196-1.391,1.411
		c-0.11,0.03-0.166,0.016-0.221-0.095c-0.035-0.07-0.135-0.175-0.295-0.311c0.36-0.075,0.746-0.235,0.931-0.365
		c0.24-0.175,0.4-0.391,0.4-0.751c0-0.4-0.285-0.641-0.621-0.726c-0.29,0.551-0.585,0.946-0.946,1.312
		c0.025,0.09,0.055,0.146,0.09,0.226c0.03,0.064,0.01,0.09-0.04,0.125c-0.115,0.085-0.23,0.145-0.3,0.175
		c-0.05,0.025-0.07,0.025-0.101-0.025c-0.035-0.06-0.06-0.119-0.085-0.194c-0.355,0.245-0.615,0.36-0.871,0.36
		c-0.34,0-0.556-0.23-0.556-0.621c0-0.641,0.556-1.251,1.171-1.557c0.005-0.215,0.015-0.436,0.025-0.625
		c-0.295,0.01-0.431,0.005-0.516,0.005c-0.145,0-0.225,0-0.285-0.011c-0.055-0.005-0.085-0.029-0.09-0.114
		c-0.015-0.11-0.015-0.24-0.025-0.381c0.32,0.035,0.596,0.025,0.971,0.021c0.02-0.181,0.04-0.406,0.04-0.546
		c0-0.075-0.005-0.146-0.021-0.226C105.381,79.516,105.551,79.551,105.676,79.596z M104.344,82.809c0,0.121,0.075,0.19,0.166,0.19
		c0.14,0,0.325-0.09,0.58-0.29c-0.05-0.301-0.09-0.57-0.1-0.861C104.605,82.123,104.344,82.483,104.344,82.809z M106.121,81.508
		c-0.18,0.005-0.41,0.04-0.641,0.115c0.005,0.26,0.02,0.495,0.06,0.751C105.746,82.139,105.981,81.788,106.121,81.508z"/>
	<path fill="#FFFFFF" d="M86.652,87.602c0.15-0.055,0.305-0.12,0.456-0.18c-0.015,0.08-0.021,0.23-0.021,0.355
		c0,0.135-0.005,0.14-0.105,0.175c-0.1,0.045-0.215,0.096-0.33,0.135v0.216c0,0.48,0.015,0.751,0.015,1.001
		c0,0.275-0.045,0.41-0.155,0.495c-0.11,0.085-0.215,0.11-0.521,0.11c-0.155,0.005-0.165,0.005-0.19-0.15
		c-0.025-0.155-0.08-0.28-0.125-0.36c0.115,0.011,0.2,0.016,0.38,0.016c0.065,0,0.105-0.03,0.105-0.141v-1.016
		c-0.07,0.024-0.135,0.045-0.19,0.06c-0.09,0.03-0.145,0.065-0.175,0.09c-0.025,0.021-0.055,0.025-0.085,0.025
		c-0.03,0-0.05-0.015-0.065-0.06c-0.035-0.131-0.065-0.301-0.085-0.476c0.146-0.021,0.291-0.045,0.466-0.096l0.135-0.04v-0.961
		h-0.085c-0.311,0-0.405,0.011-0.436,0.011c-0.045,0-0.05-0.006-0.05-0.056v-0.365c0-0.05,0.005-0.055,0.05-0.055
		c0.03,0,0.125,0.01,0.436,0.01h0.085v-0.261c0-0.32-0.01-0.48-0.04-0.71c0.186,0.005,0.346,0.015,0.511,0.035
		c0.05,0.005,0.085,0.029,0.085,0.055c0,0.04-0.02,0.07-0.035,0.105c-0.03,0.06-0.03,0.165-0.03,0.505v0.271
		c0.2,0,0.28-0.01,0.31-0.01c0.05,0,0.055,0.005,0.055,0.055v0.085c0.255-0.22,0.43-0.465,0.556-0.705
		c0.05-0.101,0.11-0.246,0.13-0.376c0.145,0.025,0.3,0.065,0.406,0.105c0.055,0.02,0.085,0.045,0.085,0.075
		c0,0.029-0.02,0.05-0.045,0.07c-0.05,0.034-0.085,0.104-0.141,0.21c-0.015,0.024-0.025,0.05-0.04,0.069h0.621
		c0.07-0.125,0.11-0.215,0.14-0.3c0.025-0.06,0.045-0.125,0.055-0.215c0.15,0.024,0.315,0.055,0.42,0.085
		c0.05,0.015,0.08,0.035,0.08,0.064c0,0.025-0.01,0.045-0.035,0.065c-0.035,0.03-0.06,0.075-0.08,0.11
		c-0.03,0.064-0.065,0.125-0.1,0.189h0.345c0.416,0,0.555-0.01,0.585-0.01c0.05,0,0.055,0.005,0.055,0.051v0.255
		c0,0.05-0.005,0.055-0.055,0.055c-0.03,0-0.17-0.01-0.585-0.01h-0.366v0.226h0.045c0.53,0,0.721-0.011,0.75-0.011
		c0.05,0,0.055,0.005,0.055,0.056v0.22c0,0.05-0.005,0.056-0.055,0.056c-0.03,0-0.22-0.011-0.75-0.011h-0.045v0.226h0.035
		c0.536,0,0.726-0.01,0.756-0.01c0.05,0,0.055,0.005,0.055,0.055v0.221c0,0.05-0.005,0.055-0.055,0.055
		c-0.03,0-0.22-0.01-0.756-0.01h-0.035v0.235h0.355c0.466,0,0.626-0.011,0.656-0.011c0.045,0,0.05,0.006,0.05,0.056v0.255
		c0,0.045-0.005,0.05-0.05,0.05c-0.03,0-0.19-0.005-0.656-0.005h-1.271c-0.471,0-0.631,0.005-0.666,0.005
		c-0.05,0-0.055-0.005-0.055-0.05c0-0.035,0.01-0.2,0.01-0.551v-0.62l-0.095,0.1c-0.03,0.03-0.05,0.046-0.07,0.046
		c-0.025,0-0.05-0.021-0.075-0.065c-0.035-0.061-0.09-0.13-0.165-0.2v0.175c0,0.05-0.005,0.056-0.055,0.056
		c-0.03,0-0.11-0.006-0.31-0.011V87.602z M88.889,88.148c0.065,0,0.101-0.005,0.125-0.02c0.02-0.011,0.05-0.025,0.065-0.025
		c0.04,0,0.075,0.015,0.2,0.08c0.115,0.06,0.165,0.1,0.165,0.135s-0.02,0.051-0.055,0.08c-0.025,0.021-0.045,0.056-0.07,0.11
		l-0.055,0.13h0.431c0.195,0,0.27-0.005,0.31-0.005s0.055,0.015,0.05,0.05c-0.02,0.155-0.04,0.28-0.06,0.391
		c-0.04,0.221-0.07,0.375-0.13,0.535c-0.09,0.24-0.305,0.306-0.576,0.306c-0.105,0-0.23,0-0.395-0.01
		c-0.105-0.005-0.105-0.01-0.13-0.141c-0.02-0.135-0.06-0.245-0.1-0.33c0.24,0.035,0.391,0.04,0.521,0.04
		c0.135,0,0.206-0.035,0.24-0.125c0.04-0.105,0.06-0.235,0.075-0.355h-0.375l-0.045,0.096c-0.025,0.064-0.055,0.064-0.15,0.05
		l-0.23-0.04c-0.085-0.016-0.09-0.051-0.065-0.096c0.09-0.149,0.175-0.325,0.22-0.465h-0.576c-0.105,0.716-0.431,1.096-1.091,1.366
		c-0.055,0.024-0.09,0.04-0.115,0.04c-0.04,0-0.06-0.035-0.105-0.115c-0.065-0.115-0.125-0.19-0.215-0.275
		c0.63-0.18,0.936-0.471,1.026-1.016h-0.125c-0.4,0-0.536,0.01-0.561,0.01c-0.05,0-0.055-0.005-0.055-0.055v-0.301
		c0-0.05,0.005-0.055,0.055-0.055c0.025,0,0.16,0.01,0.561,0.01H88.889z M88.579,86.492v-0.226h-0.691v0.226H88.579z M88.579,87.027
		v-0.226h-0.691v0.226H88.579z M88.579,87.573v-0.235h-0.691v0.235H88.579z"/>
	<path fill="#FFFFFF" d="M92.327,87.298c0.451-0.37,0.911-0.586,1.437-0.586c0.756,0,1.246,0.516,1.246,1.271
		c0,0.771-0.47,1.301-1.331,1.611c-0.03,0.015-0.06,0.021-0.085,0.021c-0.05,0-0.095-0.025-0.13-0.07
		c-0.105-0.125-0.22-0.226-0.395-0.33c0.485-0.131,0.74-0.271,1.006-0.496c0.23-0.205,0.34-0.455,0.34-0.756
		c0-0.47-0.265-0.775-0.746-0.775c-0.461,0-0.851,0.221-1.342,0.641c0.005,0.641,0.021,1.246,0.03,1.922
		c0,0.04-0.025,0.061-0.065,0.061c-0.055,0.005-0.28,0.02-0.446,0.02c-0.045,0-0.06-0.02-0.055-0.07
		c0.005-0.51,0.015-1.036,0.025-1.546c-0.24,0.36-0.491,0.726-0.676,0.99c-0.025,0.03-0.045,0.051-0.07,0.051
		c-0.015,0-0.035-0.011-0.055-0.03c-0.115-0.101-0.21-0.195-0.305-0.301c-0.02-0.015-0.03-0.035-0.03-0.055s0.01-0.04,0.03-0.061
		c0.44-0.535,0.726-0.891,1.101-1.406c0-0.125,0-0.26,0.005-0.355c-0.145,0.046-0.38,0.115-0.571,0.186
		c-0.085,0.035-0.135,0.085-0.165,0.085c-0.035,0-0.07-0.03-0.1-0.09c-0.06-0.115-0.135-0.271-0.2-0.44
		c0.12-0.01,0.195-0.02,0.34-0.05c0.13-0.03,0.325-0.075,0.711-0.181c0.01-0.215,0.01-0.436,0.01-0.65
		c0-0.125-0.01-0.271-0.05-0.436c0.29,0.03,0.455,0.05,0.581,0.085c0.105,0.03,0.125,0.085,0.09,0.176
		c-0.025,0.06-0.04,0.135-0.05,0.215c-0.005,0.12-0.015,0.235-0.025,0.45c0.015-0.005,0.025-0.01,0.04-0.015
		c0.01-0.005,0.025-0.01,0.035-0.01c0.035,0,0.09,0.05,0.135,0.114c0.06,0.08,0.08,0.121,0.08,0.155c0,0.035-0.01,0.056-0.085,0.141
		c-0.07,0.09-0.146,0.185-0.266,0.36V87.298z"/>
	<path fill="#FFFFFF" d="M96.407,87.408c0.615-0.206,1.101-0.306,1.461-0.306c0.681,0,1.142,0.445,1.142,1.071
		c0,0.51-0.24,0.865-0.716,1.121c-0.26,0.145-0.611,0.285-1.036,0.33c-0.09,0.015-0.13-0.005-0.165-0.07
		c-0.055-0.1-0.146-0.21-0.306-0.33c0.586-0.09,0.861-0.176,1.207-0.346c0.285-0.15,0.45-0.385,0.45-0.745
		c0-0.355-0.22-0.551-0.621-0.551c-0.345,0-0.871,0.17-1.416,0.391c-0.125,0.055-0.226,0.114-0.28,0.155
		c-0.04,0.034-0.07,0.05-0.101,0.05c-0.045,0-0.08-0.03-0.13-0.091c-0.115-0.145-0.19-0.32-0.271-0.485
		C95.877,87.562,96.122,87.498,96.407,87.408z"/>
	<path fill="#FFFFFF" d="M101.944,86.521c-0.611,0.115-1.146,0.221-1.682,0.331c-0.19,0.045-0.24,0.055-0.315,0.08
		c-0.035,0.015-0.07,0.04-0.11,0.04c-0.035,0-0.075-0.03-0.095-0.075c-0.065-0.136-0.12-0.311-0.185-0.541
		c0.255-0.01,0.405-0.03,0.795-0.085c0.616-0.09,1.717-0.255,3.008-0.426c0.075-0.01,0.1,0.021,0.105,0.056
		c0.025,0.115,0.05,0.3,0.055,0.44c0,0.06-0.03,0.075-0.095,0.075c-0.235,0.015-0.396,0.04-0.611,0.11
		c-0.851,0.29-1.276,0.875-1.276,1.476c0,0.646,0.461,0.996,1.332,1.052c0.08,0,0.11,0.02,0.11,0.074
		c0,0.131-0.02,0.306-0.055,0.431c-0.015,0.075-0.035,0.105-0.095,0.105c-0.881,0-1.847-0.506-1.847-1.547
		c0-0.71,0.355-1.19,0.961-1.586V86.521z"/>
	<path fill="#FFFFFF" d="M104.992,86.236c0.045,0.021,0.08,0.056,0.08,0.09c0,0.03-0.015,0.08-0.04,0.141
		c-0.02,0.061-0.045,0.275-0.045,0.49c0,0.32,0.01,0.681,0.09,1.142c0.07,0.396,0.2,0.735,0.411,0.735
		c0.16,0,0.285-0.175,0.48-0.695c0.11,0.175,0.22,0.29,0.32,0.385c0.06,0.056,0.06,0.115,0.035,0.186
		c-0.19,0.511-0.501,0.781-0.851,0.781c-0.39,0-0.801-0.461-0.936-1.307c-0.08-0.476-0.12-0.996-0.12-1.457
		c0-0.274-0.01-0.425-0.06-0.655C104.596,86.101,104.842,86.161,104.992,86.236z M107.314,86.552c0.02-0.01,0.04-0.02,0.055-0.02
		c0.02,0,0.035,0.01,0.055,0.029c0.456,0.396,0.856,1.087,0.981,1.712c0.015,0.065-0.015,0.085-0.055,0.11
		c-0.13,0.085-0.255,0.155-0.391,0.2c-0.06,0.02-0.095,0.005-0.105-0.055c-0.17-0.716-0.425-1.236-0.936-1.747
		C107.109,86.662,107.234,86.592,107.314,86.552z"/>
	<path fill="#FFFFFF" d="M110.588,87.453c0.28-0.16,0.515-0.226,0.795-0.226c0.731,0,1.241,0.48,1.241,1.201
		c0,0.836-0.675,1.371-1.747,1.371c-0.631,0-1.011-0.271-1.011-0.735c0-0.336,0.315-0.61,0.706-0.61c0.47,0,0.816,0.25,0.941,0.73
		c0.35-0.16,0.51-0.381,0.51-0.761c0-0.455-0.32-0.756-0.786-0.756c-0.416,0-0.876,0.186-1.281,0.53
		c-0.145,0.13-0.285,0.275-0.436,0.426c-0.035,0.035-0.06,0.055-0.085,0.055c-0.02,0-0.045-0.015-0.075-0.045
		c-0.105-0.09-0.215-0.22-0.295-0.325c-0.03-0.04-0.015-0.075,0.025-0.115c0.39-0.315,0.736-0.636,1.186-1.105
		c0.311-0.32,0.545-0.571,0.776-0.856c-0.3,0.056-0.656,0.125-0.966,0.19c-0.065,0.015-0.13,0.03-0.21,0.06
		c-0.025,0.011-0.075,0.025-0.1,0.025c-0.05,0-0.085-0.025-0.11-0.085c-0.061-0.115-0.105-0.256-0.175-0.541
		c0.15,0.021,0.315,0.021,0.465,0.011c0.305-0.03,0.746-0.096,1.136-0.171c0.125-0.024,0.225-0.05,0.275-0.074
		c0.025-0.016,0.07-0.041,0.095-0.041c0.05,0,0.08,0.016,0.115,0.041c0.15,0.114,0.25,0.215,0.335,0.32
		c0.04,0.045,0.055,0.08,0.055,0.119c0,0.051-0.03,0.096-0.085,0.121c-0.085,0.039-0.125,0.074-0.22,0.16
		c-0.365,0.354-0.701,0.705-1.081,1.07L110.588,87.453z M110.593,88.879c-0.146,0-0.24,0.085-0.24,0.19
		c0,0.155,0.135,0.261,0.436,0.261c0.09,0,0.155-0.006,0.23-0.021C110.953,89.034,110.803,88.879,110.593,88.879z"/>
</g>
<g>
	<path d="M38.366,85.479c0.06,0.021,0.09,0.051,0.09,0.09c0,0.035-0.005,0.056-0.025,0.08c-0.045,0.056-0.06,0.126-0.07,0.181
		c-0.015,0.09-0.025,0.165-0.04,0.25c0.46-0.045,0.815-0.1,1.301-0.21c0.061-0.015,0.075,0.005,0.085,0.05
		c0.025,0.105,0.05,0.23,0.05,0.341c0,0.064-0.05,0.09-0.105,0.1c-0.661,0.136-0.966,0.17-1.421,0.211
		c-0.02,0.21-0.03,0.33-0.035,0.505c0.195-0.065,0.521-0.104,0.766-0.11c0.03-0.08,0.08-0.225,0.085-0.365
		c0.18,0.056,0.375,0.136,0.445,0.186c0.06,0.04,0.09,0.08,0.09,0.11c0,0.02-0.01,0.04-0.03,0.06
		c-0.025,0.025-0.04,0.055-0.065,0.101c0.646,0.17,1.026,0.595,1.026,1.221c0,0.726-0.596,1.196-1.391,1.411
		c-0.11,0.03-0.166,0.016-0.221-0.095c-0.035-0.07-0.135-0.175-0.295-0.311c0.36-0.075,0.746-0.235,0.931-0.365
		c0.24-0.175,0.4-0.391,0.4-0.751c0-0.4-0.285-0.641-0.621-0.726c-0.29,0.551-0.585,0.946-0.946,1.312
		c0.025,0.09,0.055,0.146,0.09,0.226c0.03,0.064,0.01,0.09-0.04,0.125c-0.115,0.085-0.23,0.145-0.3,0.175
		c-0.05,0.025-0.07,0.025-0.101-0.025c-0.035-0.06-0.06-0.119-0.085-0.194c-0.355,0.245-0.615,0.36-0.871,0.36
		c-0.34,0-0.556-0.23-0.556-0.621c0-0.641,0.556-1.251,1.171-1.557c0.005-0.215,0.015-0.436,0.025-0.625
		c-0.295,0.01-0.431,0.005-0.516,0.005c-0.145,0-0.225,0-0.285-0.011c-0.055-0.005-0.085-0.029-0.09-0.114
		c-0.015-0.11-0.015-0.24-0.025-0.381c0.32,0.035,0.596,0.025,0.971,0.021c0.02-0.181,0.04-0.406,0.04-0.546
		c0-0.075-0.005-0.146-0.021-0.226C38.071,85.399,38.241,85.435,38.366,85.479z M37.034,88.692c0,0.121,0.075,0.19,0.166,0.19
		c0.14,0,0.325-0.09,0.58-0.29c-0.05-0.301-0.09-0.57-0.1-0.861C37.295,88.007,37.034,88.367,37.034,88.692z M38.811,87.392
		c-0.18,0.005-0.41,0.04-0.641,0.115c0.005,0.26,0.02,0.495,0.06,0.751C38.436,88.022,38.671,87.672,38.811,87.392z"/>
	<path d="M42.826,87.737c-0.346,0.01-0.686,0.01-1.031-0.021c-0.055,0-0.075-0.02-0.08-0.085c-0.02-0.11-0.03-0.311-0.03-0.426
		c0.371,0.045,0.751,0.056,1.126,0.04c-0.005-0.189-0.005-0.385-0.01-0.575c-0.48,0.015-0.841,0.015-1.196-0.025
		c-0.055,0-0.08-0.02-0.085-0.069c-0.015-0.126-0.025-0.245-0.035-0.451c0.436,0.051,0.871,0.051,1.312,0.051
		c0-0.186-0.005-0.315-0.01-0.485c-0.01-0.115-0.021-0.206-0.061-0.336c0.266,0.016,0.48,0.045,0.631,0.09
		c0.06,0.021,0.09,0.091,0.055,0.15c-0.035,0.07-0.07,0.155-0.075,0.24c-0.005,0.101-0.005,0.17-0.01,0.32
		c0.466-0.035,0.801-0.09,1.096-0.15c0.06-0.015,0.08,0,0.085,0.061c0.02,0.14,0.025,0.275,0.025,0.365
		c0,0.065-0.015,0.075-0.055,0.08c-0.355,0.061-0.676,0.1-1.156,0.13c0,0.2,0.005,0.386,0.005,0.565
		c0.381-0.024,0.621-0.074,0.981-0.13c0.06-0.015,0.075-0.005,0.08,0.04c0.005,0.096,0.015,0.261,0.015,0.41
		c0,0.051-0.02,0.065-0.075,0.07c-0.33,0.055-0.561,0.09-0.98,0.12c0.01,0.23,0.02,0.476,0.035,0.706
		c0.48,0.135,0.891,0.315,1.327,0.605c0.05,0.045,0.05,0.06,0.035,0.12c-0.035,0.095-0.14,0.28-0.22,0.37
		c-0.02,0.03-0.04,0.04-0.065,0.04c-0.015,0-0.035-0.005-0.055-0.024c-0.305-0.24-0.615-0.416-0.996-0.571
		c-0.005,0.541-0.33,0.761-1.016,0.761c-0.651,0-1.021-0.285-1.021-0.7c0-0.405,0.395-0.711,1.001-0.711c0.125,0,0.245,0,0.48,0.021
		C42.841,88.112,42.831,87.907,42.826,87.737z M42.395,88.748c-0.365,0-0.541,0.104-0.541,0.265c0,0.131,0.15,0.226,0.496,0.226
		c0.2,0,0.385-0.06,0.455-0.15c0.04-0.055,0.055-0.14,0.055-0.28C42.716,88.772,42.535,88.748,42.395,88.748z"/>
	<path d="M46.495,85.585c0.065,0.025,0.095,0.055,0.095,0.1c0,0.03-0.01,0.051-0.035,0.08c-0.035,0.04-0.06,0.11-0.09,0.235
		c-0.07,0.341-0.11,0.696-0.14,0.956c-0.01,0.181-0.025,0.37-0.015,0.551c0.11-0.195,0.215-0.386,0.35-0.641
		c0.045,0.15,0.095,0.24,0.155,0.325c0.025,0.03,0.03,0.055,0.03,0.08c0,0.04-0.02,0.08-0.05,0.125
		c-0.11,0.21-0.225,0.421-0.295,0.641c-0.015,0.045-0.02,0.09-0.025,0.15c0,0.05-0.02,0.07-0.065,0.08
		c-0.06,0.015-0.275,0.045-0.4,0.06c-0.035,0.006-0.06-0.029-0.07-0.064c-0.08-0.216-0.15-0.601-0.15-1.017
		c0-0.335,0.055-0.745,0.12-1.246c0.02-0.175,0.04-0.345,0.04-0.57C46.175,85.475,46.365,85.524,46.495,85.585z M48.122,85.5
		c0.1,0.024,0.11,0.05,0.1,0.135c-0.01,0.07-0.01,0.16-0.01,0.23c0.035,0.476,0.07,0.931,0.07,1.291
		c0,0.711-0.115,1.326-0.381,1.737c-0.195,0.31-0.51,0.605-0.826,0.806c-0.035,0.024-0.07,0.034-0.1,0.034
		c-0.035,0-0.065-0.015-0.105-0.055c-0.11-0.095-0.265-0.186-0.425-0.23c0.405-0.225,0.65-0.405,0.851-0.67
		c0.291-0.396,0.42-0.807,0.42-1.597c0-0.355-0.025-0.876-0.06-1.196c-0.025-0.245-0.05-0.37-0.105-0.546
		C47.771,85.45,47.976,85.46,48.122,85.5z"/>
	<path d="M27.332,93.486c0.15-0.055,0.305-0.12,0.456-0.18c-0.015,0.08-0.021,0.23-0.021,0.355c0,0.135-0.005,0.14-0.105,0.175
		c-0.1,0.045-0.215,0.096-0.33,0.135v0.216c0,0.48,0.015,0.751,0.015,1.001c0,0.275-0.045,0.41-0.155,0.495
		c-0.11,0.085-0.215,0.11-0.521,0.11c-0.155,0.005-0.165,0.005-0.19-0.15c-0.025-0.155-0.08-0.28-0.125-0.36
		c0.115,0.011,0.2,0.016,0.38,0.016c0.065,0,0.105-0.03,0.105-0.141v-1.016c-0.07,0.024-0.135,0.045-0.19,0.06
		c-0.09,0.03-0.145,0.065-0.175,0.09c-0.025,0.021-0.055,0.025-0.085,0.025c-0.03,0-0.05-0.015-0.065-0.06
		c-0.035-0.131-0.065-0.301-0.085-0.476c0.146-0.021,0.291-0.045,0.466-0.096l0.135-0.04v-0.961h-0.085
		c-0.311,0-0.405,0.011-0.436,0.011c-0.045,0-0.05-0.006-0.05-0.056v-0.365c0-0.05,0.005-0.055,0.05-0.055
		c0.03,0,0.125,0.01,0.436,0.01h0.085V91.97c0-0.32-0.01-0.48-0.04-0.71c0.186,0.005,0.346,0.015,0.511,0.035
		c0.05,0.005,0.085,0.029,0.085,0.055c0,0.04-0.02,0.07-0.035,0.105c-0.03,0.06-0.03,0.165-0.03,0.505v0.271
		c0.2,0,0.28-0.01,0.31-0.01c0.05,0,0.055,0.005,0.055,0.055v0.085c0.255-0.22,0.43-0.465,0.556-0.705
		c0.05-0.101,0.11-0.246,0.13-0.376c0.145,0.025,0.3,0.065,0.406,0.105c0.055,0.02,0.085,0.045,0.085,0.075
		c0,0.029-0.02,0.05-0.045,0.07c-0.05,0.034-0.085,0.104-0.141,0.21c-0.015,0.024-0.025,0.05-0.04,0.069h0.621
		c0.07-0.125,0.11-0.215,0.14-0.3c0.025-0.06,0.045-0.125,0.055-0.215c0.15,0.024,0.315,0.055,0.42,0.085
		c0.05,0.015,0.08,0.035,0.08,0.064c0,0.025-0.01,0.045-0.035,0.065c-0.035,0.03-0.06,0.075-0.08,0.11
		c-0.03,0.064-0.065,0.125-0.1,0.189h0.345c0.416,0,0.555-0.01,0.585-0.01c0.05,0,0.055,0.005,0.055,0.051v0.255
		c0,0.05-0.005,0.055-0.055,0.055c-0.03,0-0.17-0.01-0.585-0.01h-0.366v0.226h0.045c0.53,0,0.721-0.011,0.75-0.011
		c0.05,0,0.055,0.005,0.055,0.056v0.22c0,0.05-0.005,0.056-0.055,0.056c-0.03,0-0.22-0.011-0.75-0.011h-0.045v0.226h0.035
		c0.536,0,0.726-0.01,0.756-0.01c0.05,0,0.055,0.005,0.055,0.055v0.221c0,0.05-0.005,0.055-0.055,0.055
		c-0.03,0-0.22-0.01-0.756-0.01h-0.035v0.235h0.355c0.466,0,0.626-0.011,0.656-0.011c0.045,0,0.05,0.006,0.05,0.056v0.255
		c0,0.045-0.005,0.05-0.05,0.05c-0.03,0-0.19-0.005-0.656-0.005h-1.271c-0.471,0-0.631,0.005-0.666,0.005
		c-0.05,0-0.055-0.005-0.055-0.05c0-0.035,0.01-0.2,0.01-0.551v-0.62l-0.095,0.1c-0.03,0.03-0.05,0.046-0.07,0.046
		c-0.025,0-0.05-0.021-0.075-0.065c-0.035-0.061-0.09-0.13-0.165-0.2v0.175c0,0.05-0.005,0.056-0.055,0.056
		c-0.03,0-0.11-0.006-0.31-0.011V93.486z M29.569,94.032c0.065,0,0.101-0.005,0.125-0.02c0.02-0.011,0.05-0.025,0.065-0.025
		c0.04,0,0.075,0.015,0.2,0.08c0.115,0.06,0.165,0.1,0.165,0.135s-0.02,0.051-0.055,0.08c-0.025,0.021-0.045,0.056-0.07,0.11
		l-0.055,0.13h0.431c0.195,0,0.27-0.005,0.31-0.005s0.055,0.015,0.05,0.05c-0.02,0.155-0.04,0.28-0.06,0.391
		c-0.04,0.221-0.07,0.375-0.13,0.535c-0.09,0.24-0.305,0.306-0.576,0.306c-0.105,0-0.23,0-0.395-0.01
		c-0.105-0.005-0.105-0.01-0.13-0.141c-0.02-0.135-0.06-0.245-0.1-0.33c0.24,0.035,0.391,0.04,0.521,0.04
		c0.135,0,0.206-0.035,0.24-0.125c0.04-0.105,0.06-0.235,0.075-0.355h-0.375l-0.045,0.096c-0.025,0.064-0.055,0.064-0.15,0.05
		l-0.23-0.04c-0.085-0.016-0.09-0.051-0.065-0.096c0.09-0.149,0.175-0.325,0.22-0.465h-0.576c-0.105,0.716-0.431,1.096-1.091,1.366
		c-0.055,0.024-0.09,0.04-0.115,0.04c-0.04,0-0.06-0.035-0.105-0.115c-0.065-0.115-0.125-0.19-0.215-0.275
		c0.63-0.18,0.936-0.471,1.026-1.016h-0.125c-0.4,0-0.536,0.01-0.561,0.01c-0.05,0-0.055-0.005-0.055-0.055v-0.301
		c0-0.05,0.005-0.055,0.055-0.055c0.025,0,0.16,0.01,0.561,0.01H29.569z M29.259,92.376V92.15h-0.691v0.226H29.259z M29.259,92.911
		v-0.226h-0.691v0.226H29.259z M29.259,93.457v-0.235h-0.691v0.235H29.259z"/>
	<path d="M33.008,93.182c0.451-0.37,0.911-0.586,1.437-0.586c0.756,0,1.246,0.516,1.246,1.271c0,0.771-0.47,1.301-1.331,1.611
		c-0.03,0.015-0.06,0.021-0.085,0.021c-0.05,0-0.095-0.025-0.13-0.07c-0.105-0.125-0.22-0.226-0.395-0.33
		c0.485-0.131,0.74-0.271,1.006-0.496c0.23-0.205,0.34-0.455,0.34-0.756c0-0.47-0.265-0.775-0.746-0.775
		c-0.461,0-0.851,0.221-1.342,0.641c0.005,0.641,0.021,1.246,0.03,1.922c0,0.04-0.025,0.061-0.065,0.061
		c-0.055,0.005-0.28,0.02-0.446,0.02c-0.045,0-0.06-0.02-0.055-0.07c0.005-0.51,0.015-1.036,0.025-1.546
		c-0.24,0.36-0.491,0.726-0.676,0.99c-0.025,0.03-0.045,0.051-0.07,0.051c-0.015,0-0.035-0.011-0.055-0.03
		c-0.115-0.101-0.21-0.195-0.305-0.301c-0.02-0.015-0.03-0.035-0.03-0.055s0.01-0.04,0.03-0.061c0.44-0.535,0.726-0.891,1.101-1.406
		c0-0.125,0-0.26,0.005-0.355c-0.145,0.046-0.38,0.115-0.571,0.186c-0.085,0.035-0.135,0.085-0.165,0.085
		c-0.035,0-0.07-0.03-0.1-0.09c-0.06-0.115-0.135-0.271-0.2-0.44c0.12-0.01,0.195-0.02,0.34-0.05c0.13-0.03,0.325-0.075,0.711-0.181
		c0.01-0.215,0.01-0.436,0.01-0.65c0-0.125-0.01-0.271-0.05-0.436c0.29,0.03,0.455,0.05,0.581,0.085
		c0.105,0.03,0.125,0.085,0.09,0.176c-0.025,0.06-0.04,0.135-0.05,0.215c-0.005,0.12-0.015,0.235-0.025,0.45
		c0.015-0.005,0.025-0.01,0.04-0.015c0.01-0.005,0.025-0.01,0.035-0.01c0.035,0,0.09,0.05,0.135,0.114
		c0.06,0.08,0.08,0.121,0.08,0.155c0,0.035-0.01,0.056-0.085,0.141c-0.07,0.09-0.146,0.185-0.266,0.36V93.182z"/>
	<path d="M37.088,93.292c0.615-0.206,1.101-0.306,1.461-0.306c0.681,0,1.142,0.445,1.142,1.071c0,0.51-0.24,0.865-0.716,1.121
		c-0.26,0.145-0.611,0.285-1.036,0.33c-0.09,0.015-0.13-0.005-0.165-0.07c-0.055-0.1-0.146-0.21-0.306-0.33
		c0.586-0.09,0.861-0.176,1.207-0.346c0.285-0.15,0.45-0.385,0.45-0.745c0-0.355-0.22-0.551-0.621-0.551
		c-0.345,0-0.871,0.17-1.416,0.391c-0.125,0.055-0.226,0.114-0.28,0.155c-0.04,0.034-0.07,0.05-0.101,0.05
		c-0.045,0-0.08-0.03-0.13-0.091c-0.115-0.145-0.19-0.32-0.271-0.485C36.557,93.446,36.802,93.382,37.088,93.292z"/>
	<path d="M42.624,92.405c-0.611,0.115-1.146,0.221-1.682,0.331c-0.19,0.045-0.24,0.055-0.315,0.08c-0.035,0.015-0.07,0.04-0.11,0.04
		c-0.035,0-0.075-0.03-0.095-0.075c-0.065-0.136-0.12-0.311-0.185-0.541c0.255-0.01,0.405-0.03,0.795-0.085
		c0.616-0.09,1.717-0.255,3.008-0.426c0.075-0.01,0.1,0.021,0.105,0.056c0.025,0.115,0.05,0.3,0.055,0.44
		c0,0.06-0.03,0.075-0.095,0.075c-0.235,0.015-0.396,0.04-0.611,0.11c-0.851,0.29-1.276,0.875-1.276,1.476
		c0,0.646,0.461,0.996,1.332,1.052c0.08,0,0.11,0.02,0.11,0.074c0,0.131-0.02,0.306-0.055,0.431
		c-0.015,0.075-0.035,0.105-0.095,0.105c-0.881,0-1.847-0.506-1.847-1.547c0-0.71,0.355-1.19,0.961-1.586V92.405z"/>
	<path d="M45.672,92.12c0.045,0.021,0.08,0.056,0.08,0.09c0,0.03-0.015,0.08-0.04,0.141c-0.02,0.061-0.045,0.275-0.045,0.49
		c0,0.32,0.01,0.681,0.09,1.142c0.07,0.396,0.2,0.735,0.411,0.735c0.16,0,0.285-0.175,0.48-0.695c0.11,0.175,0.22,0.29,0.32,0.385
		c0.06,0.056,0.06,0.115,0.035,0.186c-0.19,0.511-0.501,0.781-0.851,0.781c-0.39,0-0.801-0.461-0.936-1.307
		c-0.08-0.476-0.12-0.996-0.12-1.457c0-0.274-0.01-0.425-0.06-0.655C45.277,91.985,45.522,92.045,45.672,92.12z M47.994,92.435
		c0.02-0.01,0.04-0.02,0.055-0.02c0.02,0,0.035,0.01,0.055,0.029c0.456,0.396,0.856,1.087,0.981,1.712
		c0.015,0.065-0.015,0.085-0.055,0.11c-0.13,0.085-0.255,0.155-0.391,0.2c-0.06,0.02-0.095,0.005-0.105-0.055
		c-0.17-0.716-0.425-1.236-0.936-1.747C47.789,92.546,47.914,92.476,47.994,92.435z"/>
	<path d="M51.968,92.115c0.045-0.015,0.065-0.015,0.075,0.04c0.025,0.125,0.04,0.275,0.045,0.405c0,0.045-0.02,0.056-0.06,0.061
		c-0.27,0.055-0.515,0.09-0.826,0.135c-0.32,0.846-0.616,1.536-0.976,2.147c-0.02,0.035-0.035,0.05-0.055,0.05
		c-0.015,0-0.035-0.01-0.06-0.025c-0.115-0.069-0.261-0.175-0.346-0.255c-0.025-0.02-0.035-0.035-0.035-0.055
		c0-0.016,0.005-0.035,0.025-0.061c0.375-0.62,0.641-1.146,0.866-1.746c-0.19,0.01-0.345,0.01-0.5,0.01c-0.11,0-0.15,0-0.275-0.005
		c-0.05,0-0.06-0.016-0.07-0.08c-0.025-0.096-0.04-0.261-0.05-0.426c0.205,0.015,0.32,0.021,0.466,0.021
		c0.195,0,0.345-0.006,0.575-0.025c0.06-0.21,0.095-0.381,0.13-0.561c0.03-0.176,0.03-0.25,0.03-0.405
		c0.215,0.03,0.431,0.06,0.586,0.104c0.05,0.011,0.08,0.04,0.08,0.075c0,0.04-0.015,0.065-0.045,0.096
		c-0.03,0.04-0.05,0.085-0.08,0.185c-0.035,0.12-0.075,0.275-0.12,0.426C51.543,92.205,51.773,92.16,51.968,92.115z M52.109,93.457
		c-0.005-0.136-0.01-0.216-0.04-0.355c0.246,0.024,0.375,0.045,0.545,0.095c0.045,0.01,0.07,0.035,0.07,0.08
		c0,0.01-0.01,0.045-0.03,0.105c-0.02,0.06-0.025,0.12-0.02,0.205c0,0.295,0.015,0.511,0.055,0.851
		c0.36,0.146,0.605,0.255,0.901,0.466c0.05,0.035,0.055,0.055,0.03,0.104c-0.075,0.155-0.145,0.28-0.23,0.405
		c-0.015,0.025-0.03,0.035-0.045,0.035s-0.03-0.01-0.05-0.029c-0.22-0.19-0.405-0.301-0.61-0.421c0,0.501-0.36,0.73-0.931,0.73
		c-0.551,0-0.921-0.28-0.921-0.71c0-0.436,0.36-0.731,0.926-0.731c0.095,0,0.235,0.005,0.396,0.03
		C52.124,93.997,52.114,93.692,52.109,93.457z M51.754,94.718c-0.25,0-0.446,0.101-0.446,0.29c0,0.16,0.14,0.24,0.425,0.24
		c0.271,0,0.436-0.145,0.436-0.354c0-0.046,0-0.07-0.005-0.101C52.044,94.753,51.908,94.718,51.754,94.718z M52.684,92.31
		c0.03-0.05,0.055-0.055,0.105-0.035c0.295,0.08,0.691,0.28,0.981,0.471c0.03,0.02,0.045,0.035,0.045,0.055
		c0,0.016-0.005,0.035-0.02,0.061c-0.05,0.11-0.141,0.265-0.21,0.37c-0.015,0.025-0.03,0.035-0.045,0.035s-0.025-0.005-0.045-0.021
		c-0.295-0.2-0.655-0.42-1.036-0.545C52.544,92.551,52.619,92.4,52.684,92.31z"/>
	<path d="M55.262,92.12c0.045,0.021,0.08,0.056,0.08,0.09c0,0.03-0.015,0.08-0.04,0.141c-0.02,0.061-0.045,0.275-0.045,0.49
		c0,0.32,0.01,0.681,0.09,1.142c0.07,0.396,0.2,0.735,0.411,0.735c0.16,0,0.285-0.175,0.48-0.695c0.11,0.175,0.22,0.29,0.32,0.385
		c0.06,0.056,0.06,0.115,0.035,0.186c-0.19,0.511-0.501,0.781-0.851,0.781c-0.39,0-0.801-0.461-0.936-1.307
		c-0.08-0.476-0.12-0.996-0.12-1.457c0-0.274-0.01-0.425-0.06-0.655C54.866,91.985,55.112,92.045,55.262,92.12z M57.584,92.435
		c0.02-0.01,0.04-0.02,0.055-0.02c0.02,0,0.035,0.01,0.055,0.029c0.456,0.396,0.856,1.087,0.981,1.712
		c0.015,0.065-0.015,0.085-0.055,0.11c-0.13,0.085-0.255,0.155-0.391,0.2c-0.06,0.02-0.095,0.005-0.105-0.055
		c-0.17-0.716-0.425-1.236-0.936-1.747C57.379,92.546,57.504,92.476,57.584,92.435z"/>
</g>
<g>
	<path d="M29.317,46.225c0.15-0.055,0.305-0.12,0.456-0.18c-0.015,0.08-0.021,0.23-0.021,0.355c0,0.135-0.005,0.14-0.105,0.175
		c-0.1,0.045-0.215,0.096-0.33,0.135v0.216c0,0.48,0.015,0.751,0.015,1.001c0,0.275-0.045,0.41-0.155,0.495
		c-0.11,0.085-0.215,0.11-0.521,0.11c-0.155,0.005-0.165,0.005-0.19-0.15c-0.025-0.155-0.08-0.28-0.125-0.36
		c0.115,0.011,0.2,0.016,0.38,0.016c0.065,0,0.105-0.03,0.105-0.141v-1.016c-0.07,0.024-0.135,0.045-0.19,0.06
		c-0.09,0.03-0.145,0.065-0.175,0.09c-0.025,0.021-0.055,0.025-0.085,0.025c-0.03,0-0.05-0.015-0.065-0.06
		c-0.035-0.131-0.065-0.301-0.085-0.476c0.146-0.021,0.291-0.045,0.466-0.096l0.135-0.04v-0.961h-0.085
		c-0.311,0-0.405,0.011-0.436,0.011c-0.045,0-0.05-0.006-0.05-0.056v-0.365c0-0.05,0.005-0.055,0.05-0.055
		c0.03,0,0.125,0.01,0.436,0.01h0.085v-0.261c0-0.32-0.01-0.48-0.04-0.71c0.186,0.005,0.346,0.015,0.511,0.035
		c0.05,0.005,0.085,0.029,0.085,0.055c0,0.04-0.02,0.07-0.035,0.105c-0.03,0.06-0.03,0.165-0.03,0.505v0.271
		c0.2,0,0.28-0.01,0.31-0.01c0.05,0,0.055,0.005,0.055,0.055v0.085c0.255-0.22,0.43-0.465,0.556-0.705
		c0.05-0.101,0.11-0.246,0.13-0.376c0.145,0.025,0.3,0.065,0.406,0.105c0.055,0.02,0.085,0.045,0.085,0.075
		c0,0.029-0.02,0.05-0.045,0.07c-0.05,0.034-0.085,0.104-0.141,0.21c-0.015,0.024-0.025,0.05-0.04,0.069h0.621
		c0.07-0.125,0.11-0.215,0.14-0.3c0.025-0.06,0.045-0.125,0.055-0.215c0.15,0.024,0.315,0.055,0.42,0.085
		c0.05,0.015,0.08,0.035,0.08,0.064c0,0.025-0.01,0.045-0.035,0.065c-0.035,0.03-0.06,0.075-0.08,0.11
		c-0.03,0.064-0.065,0.125-0.1,0.189h0.345c0.416,0,0.555-0.01,0.585-0.01c0.05,0,0.055,0.005,0.055,0.051v0.255
		c0,0.05-0.005,0.055-0.055,0.055c-0.03,0-0.17-0.01-0.585-0.01h-0.366v0.226h0.045c0.53,0,0.721-0.011,0.75-0.011
		c0.05,0,0.055,0.005,0.055,0.056v0.22c0,0.05-0.005,0.056-0.055,0.056c-0.03,0-0.22-0.011-0.75-0.011h-0.045v0.226h0.035
		c0.536,0,0.726-0.01,0.756-0.01c0.05,0,0.055,0.005,0.055,0.055v0.221c0,0.05-0.005,0.055-0.055,0.055
		c-0.03,0-0.22-0.01-0.756-0.01h-0.035v0.235h0.355c0.466,0,0.626-0.011,0.656-0.011c0.045,0,0.05,0.006,0.05,0.056v0.255
		c0,0.045-0.005,0.05-0.05,0.05c-0.03,0-0.19-0.005-0.656-0.005h-1.271c-0.471,0-0.631,0.005-0.666,0.005
		c-0.05,0-0.055-0.005-0.055-0.05c0-0.035,0.01-0.2,0.01-0.551v-0.62l-0.095,0.1c-0.03,0.03-0.05,0.046-0.07,0.046
		c-0.025,0-0.05-0.021-0.075-0.065c-0.035-0.061-0.09-0.13-0.165-0.2v0.175c0,0.05-0.005,0.056-0.055,0.056
		c-0.03,0-0.11-0.006-0.31-0.011V46.225z M31.553,46.77c0.065,0,0.101-0.005,0.125-0.02c0.02-0.011,0.05-0.025,0.065-0.025
		c0.04,0,0.075,0.015,0.2,0.08c0.115,0.06,0.165,0.1,0.165,0.135s-0.02,0.051-0.055,0.08c-0.025,0.021-0.045,0.056-0.07,0.11
		l-0.055,0.13h0.431c0.195,0,0.27-0.005,0.31-0.005s0.055,0.015,0.05,0.05c-0.02,0.155-0.04,0.28-0.06,0.391
		c-0.04,0.221-0.07,0.375-0.13,0.535c-0.09,0.24-0.305,0.306-0.576,0.306c-0.105,0-0.23,0-0.395-0.01
		c-0.105-0.005-0.105-0.01-0.13-0.141c-0.02-0.135-0.06-0.245-0.1-0.33c0.24,0.035,0.391,0.04,0.521,0.04
		c0.135,0,0.206-0.035,0.24-0.125c0.04-0.105,0.06-0.235,0.075-0.355h-0.375l-0.045,0.096c-0.025,0.064-0.055,0.064-0.15,0.05
		l-0.23-0.04c-0.085-0.016-0.09-0.051-0.065-0.096c0.09-0.149,0.175-0.325,0.22-0.465h-0.576c-0.105,0.716-0.431,1.096-1.091,1.366
		c-0.055,0.024-0.09,0.04-0.115,0.04c-0.04,0-0.06-0.035-0.105-0.115c-0.065-0.115-0.125-0.19-0.215-0.275
		c0.63-0.18,0.936-0.471,1.026-1.016h-0.125c-0.4,0-0.536,0.01-0.561,0.01c-0.05,0-0.055-0.005-0.055-0.055v-0.301
		c0-0.05,0.005-0.055,0.055-0.055c0.025,0,0.16,0.01,0.561,0.01H31.553z M31.243,45.114v-0.226h-0.691v0.226H31.243z M31.243,45.649
		v-0.226h-0.691v0.226H31.243z M31.243,46.195V45.96h-0.691v0.235H31.243z"/>
	<path d="M34.992,45.92c0.451-0.37,0.911-0.586,1.437-0.586c0.756,0,1.246,0.516,1.246,1.271c0,0.771-0.47,1.301-1.331,1.611
		c-0.03,0.015-0.06,0.021-0.085,0.021c-0.05,0-0.095-0.025-0.13-0.07c-0.105-0.125-0.22-0.226-0.395-0.33
		c0.485-0.131,0.74-0.271,1.006-0.496c0.23-0.205,0.34-0.455,0.34-0.756c0-0.47-0.265-0.775-0.746-0.775
		c-0.461,0-0.851,0.221-1.342,0.641c0.005,0.641,0.021,1.246,0.03,1.922c0,0.04-0.025,0.061-0.065,0.061
		c-0.055,0.005-0.28,0.02-0.446,0.02c-0.045,0-0.06-0.02-0.055-0.07c0.005-0.51,0.015-1.036,0.025-1.546
		c-0.24,0.36-0.491,0.726-0.676,0.99c-0.025,0.03-0.045,0.051-0.07,0.051c-0.015,0-0.035-0.011-0.055-0.03
		c-0.115-0.101-0.21-0.195-0.305-0.301c-0.02-0.015-0.03-0.035-0.03-0.055s0.01-0.04,0.03-0.061c0.44-0.535,0.726-0.891,1.101-1.406
		c0-0.125,0-0.26,0.005-0.355c-0.145,0.046-0.38,0.115-0.571,0.186c-0.085,0.035-0.135,0.085-0.165,0.085
		c-0.035,0-0.07-0.03-0.1-0.09c-0.06-0.115-0.135-0.271-0.2-0.44c0.12-0.01,0.195-0.02,0.34-0.05c0.13-0.03,0.325-0.075,0.711-0.181
		c0.01-0.215,0.01-0.436,0.01-0.65c0-0.125-0.01-0.271-0.05-0.436c0.29,0.03,0.455,0.05,0.581,0.085
		c0.105,0.03,0.125,0.085,0.09,0.176c-0.025,0.06-0.04,0.135-0.05,0.215c-0.005,0.12-0.015,0.235-0.025,0.45
		c0.015-0.005,0.025-0.01,0.04-0.015c0.01-0.005,0.025-0.01,0.035-0.01c0.035,0,0.09,0.05,0.135,0.114
		c0.06,0.08,0.08,0.121,0.08,0.155c0,0.035-0.01,0.056-0.085,0.141c-0.07,0.09-0.146,0.185-0.266,0.36V45.92z"/>
	<path d="M39.072,46.03c0.615-0.206,1.101-0.306,1.461-0.306c0.681,0,1.142,0.445,1.142,1.071c0,0.51-0.24,0.865-0.716,1.121
		c-0.26,0.145-0.611,0.285-1.036,0.33c-0.09,0.015-0.13-0.005-0.165-0.07c-0.055-0.1-0.146-0.21-0.306-0.33
		c0.586-0.09,0.861-0.176,1.207-0.346c0.285-0.15,0.45-0.385,0.45-0.745c0-0.355-0.22-0.551-0.621-0.551
		c-0.345,0-0.871,0.17-1.416,0.391c-0.125,0.055-0.226,0.114-0.28,0.155c-0.04,0.034-0.07,0.05-0.101,0.05
		c-0.045,0-0.08-0.03-0.13-0.091c-0.115-0.145-0.19-0.32-0.271-0.485C38.541,46.185,38.786,46.12,39.072,46.03z"/>
	<path d="M44.609,45.143c-0.611,0.115-1.146,0.221-1.682,0.331c-0.19,0.045-0.24,0.055-0.315,0.08c-0.035,0.015-0.07,0.04-0.11,0.04
		c-0.035,0-0.075-0.03-0.095-0.075c-0.065-0.136-0.12-0.311-0.185-0.541c0.255-0.01,0.405-0.03,0.795-0.085
		c0.616-0.09,1.717-0.255,3.008-0.426c0.075-0.01,0.1,0.021,0.105,0.056c0.025,0.115,0.05,0.3,0.055,0.44
		c0,0.06-0.03,0.075-0.095,0.075c-0.235,0.015-0.396,0.04-0.611,0.11c-0.851,0.29-1.276,0.875-1.276,1.476
		c0,0.646,0.461,0.996,1.332,1.052c0.08,0,0.11,0.02,0.11,0.074c0,0.131-0.02,0.306-0.055,0.431
		c-0.015,0.075-0.035,0.105-0.095,0.105c-0.881,0-1.847-0.506-1.847-1.547c0-0.71,0.355-1.19,0.961-1.586V45.143z"/>
	<path d="M47.656,44.858c0.045,0.021,0.08,0.056,0.08,0.09c0,0.03-0.015,0.08-0.04,0.141c-0.02,0.061-0.045,0.275-0.045,0.49
		c0,0.32,0.01,0.681,0.09,1.142c0.07,0.396,0.2,0.735,0.411,0.735c0.16,0,0.285-0.175,0.48-0.695c0.11,0.175,0.22,0.29,0.32,0.385
		c0.06,0.056,0.06,0.115,0.035,0.186c-0.19,0.511-0.501,0.781-0.851,0.781c-0.39,0-0.801-0.461-0.936-1.307
		c-0.08-0.476-0.12-0.996-0.12-1.457c0-0.274-0.01-0.425-0.06-0.655C47.261,44.724,47.507,44.783,47.656,44.858z M49.979,45.174
		c0.02-0.01,0.04-0.02,0.055-0.02c0.02,0,0.035,0.01,0.055,0.029c0.456,0.396,0.856,1.087,0.981,1.712
		c0.015,0.065-0.015,0.085-0.055,0.11c-0.13,0.085-0.255,0.155-0.391,0.2c-0.06,0.02-0.095,0.005-0.105-0.055
		c-0.17-0.716-0.425-1.236-0.936-1.747C49.774,45.284,49.899,45.214,49.979,45.174z"/>
	<path d="M53.953,44.853c0.045-0.015,0.065-0.015,0.075,0.04c0.025,0.125,0.04,0.275,0.045,0.405c0,0.045-0.02,0.056-0.06,0.061
		c-0.27,0.055-0.515,0.09-0.826,0.135c-0.32,0.846-0.616,1.536-0.976,2.147c-0.02,0.035-0.035,0.05-0.055,0.05
		c-0.015,0-0.035-0.01-0.06-0.025c-0.115-0.069-0.261-0.175-0.346-0.255c-0.025-0.02-0.035-0.035-0.035-0.055
		c0-0.016,0.005-0.035,0.025-0.061c0.375-0.62,0.641-1.146,0.866-1.746c-0.19,0.01-0.345,0.01-0.5,0.01c-0.11,0-0.15,0-0.275-0.005
		c-0.05,0-0.06-0.016-0.07-0.08c-0.025-0.096-0.04-0.261-0.05-0.426c0.205,0.015,0.32,0.021,0.466,0.021
		c0.195,0,0.345-0.006,0.575-0.025c0.06-0.21,0.095-0.381,0.13-0.561c0.03-0.176,0.03-0.25,0.03-0.405
		c0.215,0.03,0.431,0.06,0.586,0.104c0.05,0.011,0.08,0.04,0.08,0.075c0,0.04-0.015,0.065-0.045,0.096
		c-0.03,0.04-0.05,0.085-0.08,0.185c-0.035,0.12-0.075,0.275-0.12,0.426C53.528,44.943,53.758,44.898,53.953,44.853z M54.093,46.195
		c-0.005-0.136-0.01-0.216-0.04-0.355c0.246,0.024,0.375,0.045,0.545,0.095c0.045,0.01,0.07,0.035,0.07,0.08
		c0,0.01-0.01,0.045-0.03,0.105c-0.02,0.06-0.025,0.12-0.02,0.205c0,0.295,0.015,0.511,0.055,0.851
		c0.36,0.146,0.605,0.255,0.901,0.466c0.05,0.035,0.055,0.055,0.03,0.104c-0.075,0.155-0.145,0.28-0.23,0.405
		c-0.015,0.025-0.03,0.035-0.045,0.035s-0.03-0.01-0.05-0.029c-0.22-0.19-0.405-0.301-0.61-0.421c0,0.501-0.36,0.73-0.931,0.73
		c-0.551,0-0.921-0.28-0.921-0.71c0-0.436,0.36-0.731,0.926-0.731c0.095,0,0.235,0.005,0.396,0.03
		C54.108,46.735,54.098,46.431,54.093,46.195z M53.738,47.456c-0.25,0-0.446,0.101-0.446,0.29c0,0.16,0.14,0.24,0.425,0.24
		c0.271,0,0.436-0.145,0.436-0.354c0-0.046,0-0.07-0.005-0.101C54.028,47.491,53.893,47.456,53.738,47.456z M54.669,45.049
		c0.03-0.05,0.055-0.055,0.105-0.035c0.295,0.08,0.691,0.28,0.981,0.471c0.03,0.02,0.045,0.035,0.045,0.055
		c0,0.016-0.005,0.035-0.02,0.061c-0.05,0.11-0.141,0.265-0.21,0.37c-0.015,0.025-0.03,0.035-0.045,0.035S55.5,46,55.479,45.984
		c-0.295-0.2-0.655-0.42-1.036-0.545C54.529,45.289,54.604,45.139,54.669,45.049z"/>
	<path d="M57.246,44.858c0.045,0.021,0.08,0.056,0.08,0.09c0,0.03-0.015,0.08-0.04,0.141c-0.02,0.061-0.045,0.275-0.045,0.49
		c0,0.32,0.01,0.681,0.09,1.142c0.07,0.396,0.2,0.735,0.411,0.735c0.16,0,0.285-0.175,0.48-0.695c0.11,0.175,0.22,0.29,0.32,0.385
		c0.06,0.056,0.06,0.115,0.035,0.186c-0.19,0.511-0.501,0.781-0.851,0.781c-0.39,0-0.801-0.461-0.936-1.307
		c-0.08-0.476-0.12-0.996-0.12-1.457c0-0.274-0.01-0.425-0.06-0.655C56.851,44.724,57.096,44.783,57.246,44.858z M59.569,45.174
		c0.02-0.01,0.04-0.02,0.055-0.02c0.02,0,0.035,0.01,0.055,0.029c0.456,0.396,0.856,1.087,0.981,1.712
		c0.015,0.065-0.015,0.085-0.055,0.11c-0.13,0.085-0.255,0.155-0.391,0.2c-0.06,0.02-0.095,0.005-0.105-0.055
		c-0.17-0.716-0.425-1.236-0.936-1.747C59.363,45.284,59.488,45.214,59.569,45.174z"/>
</g>
<g>
	<path fill="#FFFFFF" d="M65.39,112.297c0.06,0.016,0.09,0.041,0.09,0.08c0,0.07-0.035,0.141-0.035,0.211
		c0,0.1,0.015,0.22,0.025,0.335c0.045,0.351,0.095,0.601,0.16,0.861c0.25-0.136,0.43-0.23,0.71-0.381
		c0.146-0.085,0.266-0.17,0.346-0.271c0.16,0.166,0.29,0.341,0.365,0.471c0.02,0.03,0.035,0.07,0.035,0.105
		c0,0.05-0.03,0.09-0.101,0.1c-0.15,0.025-0.32,0.085-0.48,0.15c-0.43,0.175-0.831,0.36-1.176,0.586
		c-0.436,0.285-0.591,0.521-0.591,0.756c0,0.29,0.205,0.42,0.831,0.42c0.561,0,1.106-0.045,1.491-0.115
		c0.055-0.01,0.08,0,0.09,0.061c0.025,0.135,0.04,0.314,0.05,0.465c0.005,0.056-0.03,0.08-0.09,0.085
		c-0.456,0.061-0.856,0.075-1.492,0.075c-0.946,0-1.446-0.311-1.446-0.961c0-0.556,0.365-0.921,0.951-1.291
		c-0.12-0.386-0.21-0.836-0.261-1.221c-0.035-0.266-0.07-0.441-0.13-0.581C64.975,112.237,65.205,112.252,65.39,112.297z
		 M67.027,112.357c0.025-0.02,0.045-0.015,0.075,0.01c0.155,0.12,0.335,0.32,0.476,0.536c0.02,0.029,0.02,0.055-0.015,0.08
		l-0.21,0.155c-0.035,0.024-0.06,0.02-0.085-0.016c-0.15-0.23-0.31-0.42-0.505-0.58L67.027,112.357z M67.472,112.032
		c0.03-0.021,0.045-0.015,0.075,0.01c0.186,0.141,0.366,0.341,0.476,0.516c0.02,0.03,0.025,0.06-0.015,0.09l-0.2,0.155
		c-0.04,0.03-0.065,0.016-0.085-0.015c-0.135-0.216-0.295-0.405-0.5-0.576L67.472,112.032z"/>
	<path fill="#FFFFFF" d="M69.61,112.578c0.02-0.221,0.015-0.351-0.01-0.486c0.285,0.03,0.471,0.065,0.601,0.105
		c0.065,0.02,0.1,0.05,0.1,0.09c0,0.025-0.02,0.061-0.035,0.08c-0.035,0.045-0.075,0.131-0.085,0.186
		c-0.025,0.135-0.045,0.235-0.07,0.41c0.25-0.035,0.661-0.11,0.941-0.186c0.07-0.02,0.095-0.015,0.105,0.051
		c0.02,0.115,0.035,0.25,0.035,0.37c0,0.055-0.015,0.07-0.06,0.08c-0.431,0.095-0.701,0.15-1.121,0.205
		c-0.07,0.415-0.14,0.751-0.23,1.102c0.391-0.341,0.891-0.531,1.437-0.531c0.666,0,1.116,0.431,1.116,0.946
		c0,0.44-0.185,0.766-0.571,1.011c-0.3,0.195-0.73,0.315-1.276,0.4c-0.125,0.021-0.245,0.035-0.37,0.035
		c-0.05,0-0.085-0.024-0.125-0.12c-0.08-0.165-0.155-0.26-0.271-0.355c0.731-0.045,1.036-0.109,1.437-0.275
		c0.385-0.16,0.57-0.39,0.57-0.705c0-0.261-0.19-0.476-0.57-0.476c-0.541,0-1.036,0.25-1.316,0.62
		c-0.045,0.065-0.095,0.125-0.14,0.19c-0.035,0.061-0.05,0.08-0.095,0.075c-0.11-0.01-0.275-0.065-0.375-0.11
		c-0.08-0.035-0.11-0.055-0.11-0.1c0-0.021,0.005-0.056,0.02-0.101c0.025-0.085,0.045-0.16,0.065-0.235
		c0.11-0.44,0.181-0.811,0.266-1.311c-0.271,0.02-0.586,0.045-0.841,0.045c-0.055,0-0.085-0.025-0.095-0.07
		c-0.015-0.06-0.05-0.271-0.07-0.436c0.39,0,0.7-0.015,1.086-0.045C69.575,112.863,69.595,112.697,69.61,112.578z"/>
	<path fill="#FFFFFF" d="M73.91,113.353c0.055,0.025,0.08,0.055,0.08,0.095c0,0.025-0.01,0.05-0.025,0.075
		c-0.045,0.08-0.08,0.17-0.1,0.266c-0.05,0.255-0.1,0.625-0.12,0.91c0.46-0.465,1.061-0.79,1.672-0.79
		c0.73,0,1.166,0.425,1.166,1.071c0,0.545-0.325,0.905-0.756,1.121c-0.335,0.17-0.851,0.29-1.281,0.345
		c-0.11,0.015-0.155,0.01-0.2-0.065c-0.095-0.17-0.185-0.305-0.34-0.425c0.561-0.035,1.041-0.13,1.376-0.28
		c0.405-0.176,0.59-0.436,0.59-0.756c0-0.271-0.17-0.516-0.601-0.516c-0.44,0-0.971,0.285-1.441,0.761
		c-0.09,0.09-0.155,0.175-0.215,0.275c-0.03,0.05-0.05,0.05-0.115,0.035c-0.115-0.04-0.235-0.085-0.34-0.136
		c-0.05-0.02-0.07-0.029-0.07-0.1c0.03-0.58,0.095-1.171,0.155-1.616c0.02-0.15,0.045-0.28,0.045-0.451
		C73.585,113.228,73.795,113.288,73.91,113.353z M74.035,112.087c0.025-0.024,0.055-0.04,0.095-0.024
		c0.371,0.145,0.681,0.335,0.981,0.596c0.025,0.02,0.035,0.034,0.035,0.055c0,0.015-0.01,0.035-0.025,0.06
		c-0.065,0.105-0.17,0.251-0.255,0.351c-0.02,0.025-0.04,0.04-0.055,0.04c-0.02,0-0.035-0.01-0.06-0.035
		c-0.28-0.245-0.616-0.476-1.011-0.65C73.86,112.297,73.955,112.167,74.035,112.087z"/>
	<path fill="#FFFFFF" d="M63.641,119.158c-0.61,0.115-1.146,0.221-1.682,0.33c-0.19,0.045-0.24,0.056-0.315,0.08
		c-0.035,0.016-0.07,0.04-0.11,0.04c-0.035,0-0.075-0.03-0.095-0.075c-0.065-0.135-0.12-0.31-0.185-0.54
		c0.255-0.01,0.405-0.03,0.796-0.085c0.616-0.09,1.716-0.256,3.008-0.426c0.075-0.01,0.1,0.021,0.105,0.055
		c0.025,0.115,0.05,0.301,0.055,0.441c0,0.06-0.03,0.074-0.095,0.074c-0.235,0.016-0.396,0.04-0.61,0.11
		c-0.851,0.29-1.276,0.876-1.276,1.477c0,0.646,0.46,0.996,1.331,1.051c0.08,0,0.11,0.021,0.11,0.075c0,0.13-0.02,0.306-0.055,0.431
		c-0.015,0.075-0.035,0.104-0.095,0.104c-0.881,0-1.847-0.505-1.847-1.546c0-0.711,0.355-1.191,0.961-1.587V119.158z
		 M64.632,119.699c0.025-0.021,0.045-0.016,0.075,0.01c0.155,0.12,0.335,0.32,0.475,0.535c0.02,0.03,0.02,0.055-0.015,0.08
		l-0.21,0.155c-0.035,0.025-0.06,0.021-0.085-0.015c-0.15-0.23-0.311-0.421-0.506-0.581L64.632,119.699z M65.077,119.373
		c0.03-0.02,0.045-0.015,0.075,0.011c0.185,0.14,0.365,0.34,0.476,0.515c0.02,0.03,0.025,0.061-0.015,0.091l-0.2,0.155
		c-0.04,0.029-0.065,0.015-0.085-0.016c-0.135-0.215-0.295-0.405-0.5-0.575L65.077,119.373z"/>
	<path fill="#FFFFFF" d="M67.446,121.266c0,0.46,0.2,0.641,0.666,0.641c0.585,0,0.911-0.226,0.911-0.676
		c0-0.28-0.07-0.511-0.45-0.911c0.2,0.025,0.31,0,0.51-0.03c0.035-0.01,0.075-0.005,0.105,0.021c0.275,0.26,0.426,0.601,0.426,0.94
		c0,0.711-0.581,1.172-1.441,1.172c-0.886,0-1.261-0.4-1.261-1.132c0-0.104,0.015-0.245,0.035-0.47c-0.3-0.046-0.5-0.091-0.681-0.15
		c-0.035-0.01-0.05-0.035-0.055-0.096c-0.015-0.154-0.02-0.31-0.01-0.465c0.3,0.109,0.526,0.165,0.811,0.195
		c0.025-0.186,0.065-0.511,0.085-0.716c-0.351-0.045-0.53-0.075-0.721-0.141c-0.06-0.015-0.08-0.04-0.08-0.085
		c-0.005-0.12-0.015-0.285-0.015-0.465c0.34,0.109,0.581,0.154,0.906,0.189c0.04-0.29,0.055-0.425,0.065-0.575
		c0.01-0.141,0.01-0.285-0.005-0.421c0.23,0.03,0.49,0.096,0.601,0.141c0.07,0.025,0.11,0.07,0.11,0.115
		c0,0.035-0.015,0.064-0.04,0.095c-0.035,0.035-0.06,0.101-0.09,0.216c-0.025,0.114-0.055,0.285-0.08,0.47
		c0.2,0.016,0.406,0,0.616-0.03c0.035,0,0.05,0.025,0.05,0.061c0.005,0.12,0.005,0.26-0.01,0.375c0,0.056-0.02,0.07-0.08,0.075
		c-0.22,0.025-0.445,0.03-0.666,0.025c-0.03,0.175-0.08,0.516-0.11,0.716c0.266,0.005,0.471,0,0.711-0.016
		c0.065-0.01,0.08,0.011,0.08,0.056c0,0.09-0.01,0.271-0.025,0.375c-0.005,0.061-0.02,0.08-0.07,0.08
		c-0.25,0.021-0.51,0.021-0.766,0.015C67.45,121.055,67.446,121.175,67.446,121.266z"/>
	<path fill="#FFFFFF" d="M72.56,118.843c0.045-0.015,0.065-0.015,0.075,0.04c0.025,0.125,0.04,0.275,0.045,0.405
		c0,0.045-0.02,0.056-0.06,0.061c-0.27,0.055-0.516,0.09-0.826,0.135c-0.32,0.846-0.616,1.536-0.976,2.147
		c-0.02,0.035-0.035,0.05-0.055,0.05c-0.015,0-0.035-0.01-0.061-0.025c-0.115-0.069-0.26-0.175-0.345-0.255
		c-0.025-0.02-0.035-0.035-0.035-0.055c0-0.016,0.005-0.035,0.025-0.061c0.375-0.62,0.641-1.146,0.866-1.746
		c-0.19,0.01-0.345,0.01-0.5,0.01c-0.11,0-0.15,0-0.275-0.005c-0.05,0-0.06-0.016-0.07-0.08c-0.025-0.096-0.04-0.261-0.05-0.426
		c0.206,0.015,0.32,0.021,0.465,0.021c0.195,0,0.346-0.006,0.576-0.025c0.06-0.21,0.095-0.381,0.13-0.561
		c0.03-0.176,0.03-0.25,0.03-0.405c0.215,0.03,0.431,0.06,0.585,0.104c0.05,0.011,0.08,0.04,0.08,0.075
		c0,0.04-0.015,0.065-0.045,0.096c-0.03,0.04-0.05,0.085-0.08,0.185c-0.035,0.12-0.075,0.275-0.12,0.426
		C72.135,118.933,72.365,118.888,72.56,118.843z M72.7,120.185c-0.005-0.136-0.01-0.216-0.04-0.355
		c0.245,0.024,0.375,0.045,0.546,0.095c0.045,0.01,0.07,0.035,0.07,0.08c0,0.01-0.01,0.045-0.03,0.105
		c-0.021,0.06-0.025,0.12-0.021,0.205c0,0.295,0.015,0.511,0.055,0.851c0.36,0.146,0.606,0.255,0.901,0.466
		c0.05,0.035,0.055,0.055,0.03,0.104c-0.075,0.155-0.146,0.28-0.23,0.405c-0.015,0.025-0.03,0.035-0.045,0.035
		s-0.03-0.01-0.05-0.029c-0.221-0.19-0.406-0.301-0.611-0.421c0,0.501-0.36,0.73-0.931,0.73c-0.55,0-0.921-0.28-0.921-0.71
		c0-0.436,0.36-0.731,0.926-0.731c0.095,0,0.235,0.005,0.395,0.03C72.716,120.725,72.705,120.42,72.7,120.185z M72.345,121.445
		c-0.25,0-0.445,0.101-0.445,0.29c0,0.16,0.14,0.24,0.426,0.24c0.27,0,0.435-0.145,0.435-0.354c0-0.046,0-0.07-0.005-0.101
		C72.635,121.48,72.5,121.445,72.345,121.445z M73.276,119.038c0.03-0.05,0.055-0.055,0.105-0.035
		c0.295,0.08,0.691,0.28,0.981,0.471c0.03,0.02,0.045,0.035,0.045,0.055c0,0.016-0.005,0.035-0.021,0.061
		c-0.05,0.11-0.14,0.265-0.21,0.37c-0.015,0.025-0.03,0.035-0.045,0.035c-0.015,0-0.025-0.005-0.045-0.021
		c-0.295-0.2-0.656-0.42-1.036-0.545C73.136,119.278,73.211,119.128,73.276,119.038z"/>
	<path fill="#FFFFFF" d="M75.854,118.848c0.045,0.021,0.08,0.056,0.08,0.09c0,0.03-0.015,0.08-0.04,0.141
		c-0.02,0.061-0.045,0.275-0.045,0.49c0,0.32,0.01,0.681,0.09,1.142c0.07,0.396,0.2,0.735,0.411,0.735
		c0.16,0,0.285-0.175,0.48-0.695c0.11,0.175,0.22,0.29,0.32,0.385c0.06,0.056,0.06,0.115,0.035,0.186
		c-0.19,0.511-0.501,0.781-0.851,0.781c-0.39,0-0.801-0.461-0.936-1.307c-0.08-0.476-0.12-0.996-0.12-1.457
		c0-0.274-0.01-0.425-0.06-0.655C75.459,118.713,75.704,118.772,75.854,118.848z M78.176,119.163c0.02-0.01,0.04-0.02,0.055-0.02
		c0.02,0,0.035,0.01,0.055,0.029c0.456,0.396,0.856,1.087,0.981,1.712c0.015,0.065-0.015,0.085-0.055,0.11
		c-0.13,0.085-0.255,0.155-0.391,0.2c-0.06,0.02-0.095,0.005-0.105-0.055c-0.17-0.716-0.425-1.236-0.936-1.747
		C77.971,119.273,78.096,119.203,78.176,119.163z"/>
</g>
</svg>
