<?xml version="1.0" encoding="utf-8"?>
<!-- Generator: Adobe Illustrator 22.0.1, SVG Export Plug-In . SVG Version: 6.00 Build 0)  -->
<svg version="1.1" id="レイヤー_1" xmlns="http://www.w3.org/2000/svg" xmlns:xlink="http://www.w3.org/1999/xlink" x="0px"
	 y="0px" viewBox="0 0 531.2 500" style="enable-background:new 0 0 531.2 500;" xml:space="preserve">
<style type="text/css">
	.st0{fill:#898989;}
	.st1{fill:#FBFBFB;}
	.st2{fill:#231815;}
	.st3{fill:#E61673;}
	.st4{fill:#E8AD36;}
	.st5{font-family:'FrutigerNeueLTCYR-Italic';}
	.st6{font-size:15.0517px;}
</style>
<title>アートボード 1</title>
<path class="st0" d="M278.8,268.4l-0.3-0.2L40.2,130.6l170.3-98.3l0.3,0.2l238.4,137.6L278.8,268.4z M42.8,130.6l236,136.3
	l167.6-96.8l-236-136.3L42.8,130.6z"/>
<polygon class="st0" points="329.8,296.7 328.5,296.7 328.5,102.7 160.5,199.7 159.8,198.6 329.8,100.4 "/>
<polygon class="st0" points="159.5,395.4 159.5,199.1 160.8,199.1 160.8,393.1 328.8,296.1 329.5,297.2 "/>
<path class="st0" d="M278.2,463.9V267.3l0.3-0.2l170-98.1v196.6l-0.3,0.2L278.2,463.9z M279.5,268v193.6l167.6-96.8V171.2L279.5,268
	z"/>
<path class="st0" d="M364,415.1l-86.5-49.9l85.1-49.2v-98.3l86.5,49.9L364,316.8V415.1z M280.2,365.2l82.5,47.6v-95.3L280.2,365.2z
	 M364,220v95.2l82.5-47.6L364,220z"/>
<path class="st0" d="M40.8,326.9V130.2l0.3-0.2l170-98.1v196.6l-0.3,0.2L40.8,326.9z M42.1,131v193.5l167.6-96.8V34.2L42.1,131z"/>
<rect x="125.3" y="81.8" class="st0" width="1.3" height="195.1"/>
<rect x="28.4" y="178.7" transform="matrix(0.8661 -0.4998 0.4998 0.8661 -72.803 86.9767)" class="st0" width="195.1" height="1.3"/>
<rect x="244" y="150.4" class="st0" width="1.3" height="195.1"/>
<rect x="193.4" y="207.1" class="st1" width="34.4" height="32.4"/>
<path class="st2" d="M225.9,237.6h-10.1v-2.9h3.2l-3.8-10.3l-4.5-12.3l-8.8,22.5h3.3v2.9h-9.9v-2.9h3.4l10.7-25.8h3.2l9.8,25.7h3.5
	L225.9,237.6z M204.4,223.4h11l0.9,2.9h-12L204.4,223.4z"/>
<rect x="313.9" y="273.6" class="st1" width="32.8" height="33.3"/>
<path class="st2" d="M344.9,305h-10.1v-1.4h3.5l-5.1-12.8l-3.7-9.5l-8.9,22.4h3.3v1.4h-8.2v-1.4h3l11.5-27.9c0.1-0.4,0.3-0.3,0.5,0
	l11.2,27.9h2.9L344.9,305z M324.6,290.8h9.5v1.7h-9.7L324.6,290.8z"/>
<rect x="362.7" y="218.9" transform="matrix(0.5 -0.866 0.866 0.5 -92.3638 472.8639)" class="st0" width="1.3" height="195.1"/>
<rect x="193.5" y="110.7" class="st1" width="34.2" height="32.4"/>
<path class="st2" d="M225.8,141.2h-10.1v-2.4l0.7-0.2c0.7-0.2,1.8-0.4,2.5-0.5l-3.7-10l-4.5-12.3l-8.7,22.3c0.8,0.1,1.5,0.3,2.2,0.5
	l1.1,0.2v2.4h-9.9v-2.4l0.8-0.2l2.6-0.5l10.6-25.5h3.2l9.7,25.4c0.9,0.1,2,0.3,2.8,0.5l0.7,0.2V141.2z M204.4,127h11l0.9,2.7h-12
	L204.4,127z"/>
<path class="st2" d="M225.1,138.5c-0.8-0.2-2-0.4-2.8-0.5l-9.7-25.4h-3.2l-10.6,25.5l-2.6,0.5l-0.8,0.2v2.4h9.9v-2.4l-1.1-0.2
	c-0.7-0.1-1.5-0.3-2.2-0.5l3.3-8.4h10.6l3.1,8.4c-0.7,0.1-1.8,0.3-2.5,0.5l-0.7,0.2v2.4h10.1v-2.5L225.1,138.5z M210.7,115.8
	l4.1,11.2h-8.5L210.7,115.8z"/>
<rect x="229.4" y="322" class="st1" width="32.8" height="33.3"/>
<path class="st2" d="M260.4,353.4h-10.1V352h3.5l-5.1-12.8l-3.7-9.6l-8.8,22.4h3.3v1.4h-8.2V352h3l11.6-27.9c0.1-0.4,0.3-0.3,0.5,0
	l11.2,27.9h2.9L260.4,353.4z M240.1,339.2h9.5v1.7h-9.7L240.1,339.2z"/>
<path class="st2" d="M259.9,352h-2.4l-11.2-27.9c-0.1-0.3-0.3-0.4-0.5,0L234.3,352h-3v1.4h8.2V352h-3.3l4.4-11.1h8.9l4.4,11.1h-3.5
	v1.4h10.1V352H259.9z M241.3,339.2l3.8-9.6l3.7,9.5l0,0L241.3,339.2z"/>
<rect x="147.1" y="247.2" transform="matrix(0.8659 -0.5003 0.5003 0.8659 -91.2105 155.6474)" class="st0" width="195.1" height="1.3"/>
<rect x="313.8" y="181.5" class="st1" width="33" height="33.3"/>
<path class="st2" d="M344.9,212.9h-10.2v-1.2l1.2-0.3c0.7-0.2,1.3-0.4,2-0.6l-4.8-12.1l-3.7-9.5l-8.6,21.6l2,0.7l1,0.3v1.2h-8.3
	v-1.2l0.9-0.3c0.9-0.2,1.7-0.5,2.6-0.8l11.2-27c0.1-0.4,0.3-0.3,0.5,0l10.9,27l2.8,1l0.5,0.1L344.9,212.9z M324.6,198.7h9.5v1.7
	h-9.7L324.6,198.7z"/>
<path class="st2" d="M344.5,211.6l-2.8-1l-10.9-27c-0.1-0.3-0.3-0.4-0.5,0l-11.2,27c-0.9,0.2-1.7,0.5-2.6,0.8l-0.9,0.3v1.2h8.3v-1.2
	l-1-0.3l-2-0.7l4.1-10.3h8.9l4.1,10.4c-0.7,0.2-1.3,0.4-2,0.6l-1.2,0.3v1.2H345v-1.2L344.5,211.6z M325.7,198.7l3.8-9.6l3.7,9.5l0,0
	L325.7,198.7z"/>
<rect x="244" y="13.3" transform="matrix(0.5 -0.866 0.866 0.5 -7.879 287.0407)" class="st0" width="1.3" height="274.1"/>
<rect x="229.4" y="229.4" class="st1" width="32.9" height="33.3"/>
<path class="st2" d="M260.4,260.8h-10.1v-1.3l1.3-0.1c0.7,0,1.4-0.3,1.9-0.8l-4.7-12L245,237l-8.5,21.5c0.5,0.5,1.1,0.8,1.8,0.8
	l1.2,0.2v1.3h-8.2v-1.3l0.7-0.2c1-0.1,1.9-0.5,2.8-1l11.1-26.9c0.1-0.4,0.3-0.3,0.5,0l10.8,26.9c0.9,0.5,1.8,0.9,2.8,1h0.5
	L260.4,260.8z M240.1,246.6h9.5v1.7h-9.7L240.1,246.6z"/>
<path class="st3" d="M259.9,259.4c-1-0.1-2-0.5-2.8-1l-10.8-26.9c-0.1-0.3-0.3-0.4-0.5,0l-11.1,26.9c-0.8,0.5-1.8,0.9-2.8,1
	l-0.7,0.2v1.3h8.2v-1.3l-1.2-0.2c-0.7-0.1-1.3-0.3-1.8-0.8l4.1-10.2h8.9l4,10.2c-0.5,0.5-1.2,0.8-1.9,0.8l-1.3,0.1v1.3h10.1v-1.3
	L259.9,259.4z M241.2,246.6l3.8-9.6l3.7,9.5l0,0L241.2,246.6z"/>
<rect x="109.2" y="159.4" class="st1" width="34.3" height="32.4"/>
<path class="st2" d="M141.6,189.9h-10.1v-2.5l0.8-0.1c0.8,0,1.6-0.3,2.2-0.7l-3.6-9.8l-4.5-12.3l-8.6,22c0.6,0.4,1.3,0.7,2,0.7
	l1.2,0.1v2.5H111v-2.5l0.9-0.1c1-0.1,1.9-0.3,2.8-0.7l10.5-25.3h3l9.6,25.2c0.9,0.4,1.9,0.7,2.9,0.7l0.8,0.1L141.6,189.9z
	 M120.1,175.7h11l0.9,2.7h-12L120.1,175.7z"/>
<path class="st2" d="M140.8,187.2c-1,0-2-0.3-2.9-0.7l-9.6-25.2h-3.1l-10.5,25.3c-0.9,0.4-1.8,0.7-2.8,0.7l-0.9,0.1v2.5h9.8v-2.5
	l-1.2-0.1c-0.7,0-1.4-0.3-2-0.7l3.2-8.2h10.5l3,8.2c-0.7,0.4-1.4,0.7-2.2,0.7l-0.8,0.1v2.5h10.1v-2.6L140.8,187.2z M126.4,164.5
	l4.1,11.2H122L126.4,164.5z"/>
<rect x="109.3" y="62.1" class="st1" width="34.2" height="32.4"/>
<path class="st2" d="M141.6,92.6h-10.1v-2.1l1-0.2c0.9-0.1,1.6-0.6,1.8-1.5l-3.4-9.3l-4.5-12.3l-8.4,21.6c0.2,0.8,1,1.4,1.9,1.4
	l1.1,0.2v2.2h-9.7v-2.1l1.3-0.2c1-0.1,1.9-0.6,2.5-1.4L125.3,64h3l9.4,24.7c0.7,0.8,1.6,1.3,2.7,1.5l1.2,0.2L141.6,92.6z
	 M120.1,78.4h11l0.9,2.5h-12L120.1,78.4z"/>
<path class="st2" d="M140.4,90.2c-1-0.1-2-0.7-2.7-1.5L128.3,64h-3L115,88.8c-0.6,0.8-1.5,1.3-2.5,1.4l-1.3,0.2v2.2h9.7v-2.1
	l-1.1-0.2c-0.9,0-1.6-0.6-1.9-1.4l3.1-7.9h10.4l2.9,7.9c-0.2,0.8-1,1.4-1.8,1.5l-1,0.2v2.2h10.1v-2.2L140.4,90.2z M126.4,67.2
	l4.1,11.2H122L126.4,67.2z"/>
<rect x="109.8" y="256" class="st1" width="34.4" height="32.4"/>
<path class="st2" d="M142.3,286.5h-10.1v-2.9h3.2l-3.8-10.3l-4.5-12.3l-8.8,22.5h3.3v2.9h-9.9v-2.9h3.4l10.7-25.8h3.2l9.8,25.7h3.5
	L142.3,286.5z M120.8,272.3h11l0.9,2.9h-12L120.8,272.3z"/>
<path class="st2" d="M141.9,283.5h-3l-9.9-25.7h-3.2l-10.7,25.8h-3.4v2.9h9.9v-2.9h-3.3l3.3-8.5h10.7l3.2,8.5h-3.2v2.9h10.1v-3
	L141.9,283.5z M127.1,261.1l4.1,11.2h-8.5L127.1,261.1z"/>
<path class="st0" d="M279.5,463.9l-1-0.6L40.8,326.1V129.4l238.7,137.8V463.9z M42.1,325.3l236,136.3V268l-236-136.3L42.1,325.3z"/>
<rect x="159.5" y="159.6" transform="matrix(0.5 -0.866 0.866 0.5 -176.8389 287.0471)" class="st0" width="1.3" height="274.1"/>
<rect x="313" y="82.6" class="st1" width="33.2" height="33.3"/>
<path class="st2" d="M344.3,114H334v-1l1-0.6l2-1.3l-4.5-11.4l-3.7-9.5l-8.3,20.9c0.6,0.5,1.3,0.9,1.9,1.4l0.9,0.6v1h-8.5v-0.9
	l1.1-0.7l2.7-1.6l10.8-26.2c0.1-0.4,0.3-0.3,0.5,0l10.5,26.1c1.1,0.7,2.2,1.3,3.3,2l0.5,0.3L344.3,114z M323.8,99.8h9.5v1.7h-9.7
	L323.8,99.8z"/>
<rect x="431.4" y="151.1" class="st1" width="33.5" height="33.3"/>
<path class="st2" d="M463,182.6h-9.6v-0.2l0.7-0.4c0.7-0.3,1.3-0.7,2-1l-5-12.6l-4.3-11.1l-9.8,23.7l2.4,1.1l0.8,0.3v0.2h-7v-0.2
	l1-0.4l2.5-1l11.5-27.6c0.1-0.4,0.3-0.3,0.5,0l11.1,27.6l2.3,1l0.9,0.4L463,182.6z M441.8,169.1H452v0.2h-10.3L441.8,169.1z"/>
<rect x="431.4" y="245.5" class="st1" width="33.7" height="33.3"/>
<path class="st2" d="M463.2,276.9h-9.6v-0.2l0.6-0.2c0.7-0.2,1.6-0.4,2.2-0.5l-5.2-13.3l-4.3-11.1L436.8,276
	c0.7,0.2,1.5,0.3,2.2,0.5l1,0.2v0.2h-6.8v-0.2l0.8-0.2c0.9-0.1,1.7-0.3,2.5-0.5l11.7-28.4c0.1-0.4,0.3-0.3,0.5,0l11.4,28.4
	c0.8,0.1,1.6,0.3,2.4,0.5l0.7,0.2L463.2,276.9z M441.8,263.4H452v0.2h-10.3L441.8,263.4z"/>
<path class="st2" d="M462.5,276.5c-0.8-0.2-1.6-0.4-2.4-0.5l-11.4-28.4c-0.1-0.3-0.3-0.4-0.5,0L436.5,276c-0.8,0.1-1.6,0.3-2.5,0.5
	l-0.8,0.2v0.2h6.8v-0.2l-1-0.2c-0.8-0.2-1.5-0.3-2.2-0.5l5.1-12.3h9.7l4.9,12.3c-0.7,0.1-1.6,0.3-2.2,0.5l-0.6,0.2v0.2h9.6v-0.2
	L462.5,276.5z M441.9,263.4l4.9-11.9l4.3,11.1l0.3,0.8H441.9z"/>
<rect x="229.3" y="131" class="st1" width="33" height="33.3"/>
<path class="st2" d="M260.5,162.5h-10.2v-1.2l1.2-0.3c0.8-0.1,1.5-0.7,1.6-1.6l-4.4-11.2l-3.7-9.5l-8.2,20.7
	c0.1,0.8,0.8,1.5,1.6,1.7l1.1,0.3v1.2h-8.4v-1.2l0.9-0.3c1.2-0.2,2.3-0.9,3-1.9l10.7-25.9c0.1-0.4,0.3-0.3,0.5,0l10.5,25.8
	c0.8,1.1,2,1.8,3.3,2.1l0.5,0.1L260.5,162.5z M240.1,148.3h9.5v1.7h-9.7L240.1,148.3z"/>
<path class="st2" d="M260,161.1c-1.3-0.3-2.5-1-3.3-2.1l-10.4-25.9c-0.1-0.3-0.3-0.4-0.5,0l-10.7,25.9c-0.7,1-1.8,1.6-3,1.9
	l-0.9,0.3v1.2h8.4v-1.2l-1.1-0.3c-0.8-0.2-1.5-0.8-1.6-1.7l3.7-9.4h8.9l3.7,9.4c-0.1,0.8-0.8,1.5-1.6,1.6l-1.2,0.3v1.2h10.2v-1.2
	L260,161.1z M241.2,148.3l3.8-9.6l3.7,9.5l0,0L241.2,148.3z"/>
<rect x="143.8" y="180.2" class="st1" width="32.8" height="33.3"/>
<path class="st2" d="M174.8,211.6h-10.1v-1.4h1.4c1.2,0,1.7-0.8,1.3-1.9l-4.3-10.9l-3.7-9.5l-8.1,20.4c-0.5,1.2,0,2,1.3,2h1.3v1.4
	h-8.2v-1.4h0.5c1.5,0.1,2.9-0.8,3.3-2.2l10.6-25.7c0.1-0.4,0.3-0.3,0.5,0L171,208c0.5,1.4,1.8,2.3,3.3,2.2h0.5L174.8,211.6z
	 M154.5,197.4h9.5v1.7h-9.7L154.5,197.4z"/>
<rect x="263" y="245.5" class="st1" width="33.8" height="33.3"/>
<path class="st2" d="M294.9,276.9h-10.5v-0.2h0.7c2,0,2.8-1.2,2-3l-4.3-11l-4.3-11.1l-9.2,22.1c-0.8,1.9,0.1,3,2,3h0.5v0.2h-7v-0.2
	h0.1c1.8,0.1,3.4-1,4-2.7l10.9-26.4c0.1-0.4,0.3-0.3,0.5,0L291,274c0.5,1.7,2.1,2.8,3.9,2.7l0,0L294.9,276.9z M273.5,263.4h10.3v0.2
	h-10.4L273.5,263.4z"/>
<rect x="263" y="343" class="st1" width="33.8" height="33.3"/>
<path class="st2" d="M294.9,374.5h-10.1v-0.2h0.6c1.3,0,2.3-0.6,2.3-1.5l-5-12.5l-4.3-11.1l-9.8,23.6c0,0.9,0.8,1.5,2.1,1.5h0.9v0.2
	h-6.8v-0.2h0.3c1.2,0.1,2.4-0.4,3.2-1.3l11.5-27.7c0.1-0.4,0.3-0.3,0.5,0l11.2,27.7c0.8,0.9,1.9,1.4,3.1,1.3h0.2L294.9,374.5z
	 M273.5,361h10.3v0.2h-10.4L273.5,361z"/>
<path class="st2" d="M294.7,374.2c-1.2,0.1-2.4-0.4-3.1-1.3l-11.2-27.7c-0.1-0.3-0.3-0.4-0.5,0l-11.4,27.7c-0.8,0.9-2,1.4-3.2,1.3
	h-0.3v0.2h6.8v-0.2h-0.9c-1.3,0-2.1-0.6-2.1-1.5l4.8-11.5h9.7l4.6,11.5c0,0.9-1,1.5-2.3,1.5h-0.6v0.2h10.1v-0.2L294.7,374.2z
	 M273.6,361l4.9-11.9l4.3,11.1l0.3,0.8H273.6z"/>
<rect x="347.5" y="294.2" class="st1" width="33.7" height="33.3"/>
<path class="st2" d="M379.4,325.7h-9.8v-0.2l0.6-0.1c0.9,0,1.7-0.4,2.3-1l-5.1-12.9l-4.3-11.2l-9.9,24c0.5,0.6,1.3,1,2.1,1l1,0.1
	v0.2h-6.8v-0.2l0.5-0.1c1-0.1,2-0.4,2.9-1l11.6-28c0.1-0.4,0.3-0.3,0.5,0l11.3,28c0.8,0.6,1.8,0.9,2.8,1l0.5,0.1L379.4,325.7z
	 M357.9,312.2h10.3v0.2h-10.4L357.9,312.2z"/>
<path class="st2" d="M378.9,325.4c-1-0.1-2-0.4-2.8-1l-11.3-28c-0.1-0.3-0.3-0.4-0.5,0l-11.6,28c-0.8,0.6-1.8,0.9-2.9,1l-0.5,0.1
	v0.2h6.8v-0.2l-1-0.1c-0.8,0-1.6-0.4-2.1-1l5-11.9h9.7l4.7,11.9c-0.6,0.6-1.4,1-2.3,1l-0.6,0.1v0.2h9.8v-0.2L378.9,325.4z
	 M358.1,312.2l4.9-11.9l4.3,11.1l0.3,0.8L358.1,312.2z"/>
<rect x="347.5" y="200.6" class="st1" width="33.7" height="33.3"/>
<path class="st2" d="M379.3,232h-10.1v-0.2l0.7-0.2c1.1,0,2-0.9,2-2c0,0,0,0,0-0.1l-4.7-11.8l-4.3-11.1l-9.5,22.9
	c0,1.1,0.8,1.9,2.2,2.1l0.7,0.2v0.2h-7v-0.2l0.6-0.2c1.3-0.1,2.5-0.8,3.2-1.8l11.2-27c0.1-0.4,0.3-0.3,0.5,0l10.9,27
	c0.7,1,1.8,1.7,3.1,1.9l0.5,0.2L379.3,232z M357.9,218.5h10.3v0.2h-10.4L357.9,218.5z"/>
<path class="st2" d="M378.9,231.6c-1.3-0.1-2.4-0.8-3.1-1.9l-10.9-27c-0.1-0.3-0.3-0.4-0.5,0l-11.2,27c-0.8,1-2,1.7-3.2,1.8
	l-0.6,0.2v0.2h7v-0.2l-0.7-0.2c-1.4-0.2-2.2-1-2.2-2.1l4.5-10.8h9.7l4.3,10.8c0,1.1-0.8,2-1.9,2c0,0,0,0-0.1,0l-0.7,0.2v0.2h10.1
	v-0.2L378.9,231.6z M358.1,218.5l4.9-11.9l4.3,11.1l0.3,0.8L358.1,218.5z"/>
<rect x="143.8" y="369.6" class="st1" width="32.8" height="33.3"/>
<path class="st2" d="M174.8,401h-10.1v-1.4h3.5l-5.1-12.8l-3.7-9.5l-8.9,22.4h3.3v1.4h-8.1v-1.4h3l11.6-27.9c0.1-0.4,0.3-0.3,0.5,0
	l11.2,27.9h2.9L174.8,401z M154.5,386.8h9.5v1.7h-9.7L154.5,386.8z"/>
<rect x="144.9" y="273.9" class="st1" width="32.8" height="33.3"/>
<path class="st2" d="M175.9,305.4h-10.1V304h1.4c1,0,1.6-0.4,1.7-1l-4.7-11.9l-3.7-9.5l-8.5,21.4c0.1,0.6,0.7,1,1.7,1h1.2v1.4h-8.2
	v-1.4h0.5c1.1,0.1,2.1-0.3,2.9-1.1l11.1-26.8c0.1-0.4,0.3-0.3,0.5,0l10.8,26.7c0.7,0.8,1.8,1.2,2.8,1.1h0.5L175.9,305.4z
	 M155.6,291.2h9.5v1.7h-9.7L155.6,291.2z"/>
<path class="st2" d="M175.4,304c-1.1,0-2.1-0.4-2.8-1.1l-10.8-26.7c-0.1-0.3-0.3-0.4-0.5,0l-11.1,26.8c-0.8,0.8-1.8,1.2-2.9,1.1
	h-0.5v1.4h8.2v-1.4h-1.3c-1,0-1.6-0.4-1.7-1l4-10.1h8.9l4,10.1c-0.1,0.6-0.7,1-1.7,1h-1.4v1.4h10.1V304L175.4,304z M156.8,291.2
	l3.8-9.6l3.7,9.5l0,0L156.8,291.2z"/>
<rect x="347.6" y="387.8" class="st1" width="33.8" height="33.3"/>
<path class="st2" d="M379.5,419.2h-9.6V419h3l-5.5-14l-4.3-11.1L352.7,419h3.3v0.2h-6.5V419h3l12-29.1c0.1-0.4,0.3-0.3,0.5,0
	l11.7,29.1h2.9V419.2z M358,405.7h10.3v0.3H358V405.7z"/>
<path class="st2" d="M379,419h-2.4L365,389.9c-0.1-0.3-0.3-0.4-0.5,0l-12,29.1h-3v0.2h6.5V419h-3.3l5.4-13h9.7l5.1,13h-3v0.2h9.6
	V419H379z M358.1,405.7l4.9-11.9l4.3,11.1l0.3,0.8L358.1,405.7z"/>
<rect x="432.1" y="339.8" class="st1" width="33.8" height="33.3"/>
<path class="st2" d="M464,371.2h-9.6V371h3l-5.5-14l-4.3-11.1L437.2,371h3.3v0.2H434V371h3l12-29.1c0.1-0.4,0.3-0.3,0.5,0l11.7,29.1
	h2.9V371.2z M442.5,357.7h10.3v0.2h-10.4L442.5,357.7z"/>
<rect x="263" y="438.7" class="st1" width="33.8" height="33.3"/>
<path class="st2" d="M294.9,470.1h-9.6v-0.2h3l-5.5-14l-4.3-11.1l-10.4,25.1h3.3v0.2h-6.5v-0.2h3l12-29.1c0.1-0.4,0.3-0.3,0.5,0
	l11.7,29.1h2.9V470.1z M273.5,456.6h10.3v0.2h-10.4L273.5,456.6z"/>
<rect x="24.7" y="304.3" class="st1" width="34.4" height="32.4"/>
<path class="st2" d="M57.2,334.9H47.1V332h3.2l-3.8-10.3L42,309.5L33.1,332h3.3v2.9h-9.9V332H30l10.7-25.8h3.2l9.8,25.7h3.5V334.9z
	 M35.7,320.6h11l0.9,2.9h-12L35.7,320.6z"/>
<rect x="25" y="110.7" class="st1" width="34.2" height="32.4"/>
<path class="st2" d="M57.3,141.2H47.3v-2.4h1.2c1.2,0,1.8-0.7,1.3-1.9l-3.2-8.8L42,115.8l-8.3,21.1c-0.4,1.1,0,1.9,1.3,1.9h1.3v2.4
	h-9.5v-2.4h1.4c1.2,0.1,2.3-0.7,2.7-1.8l10.1-24.4h2.7l9.3,24.3c0.4,1.2,1.5,2,2.7,1.9h1.5L57.3,141.2z M35.7,127h11l0.9,2.4h-12
	L35.7,127z"/>
<rect x="194" y="17" class="st1" width="34" height="32.4"/>
<path class="st2" d="M226.1,47.5H216v-1.9l0.9-0.4c0.8-0.3,1.5-0.7,2.3-1l-3.6-9.8L211,22.2l-8.6,22l2.4,1l1,0.4v1.9h-9.9v-1.9
	l1.1-0.4l2.3-1l10.5-25.3h3.2l9.6,25.2l2.6,1l0.9,0.4L226.1,47.5z M204.8,33.3h11l0.9,2.6h-12L204.8,33.3z"/>
<path class="st4" d="M222.4,234.7l-9.8-25.7h-3.2l-10.7,25.8h-3.4v2.9h9.9v-2.9h-3.3l3.3-8.5h10.7l3.2,8.5h-3.2v2.9h10.1v-3
	L222.4,234.7L222.4,234.7z M210.7,212.2l4.1,11.2h-8.5L210.7,212.2z"/>
<path class="st4" d="M342,303.6l-11.2-27.9c-0.1-0.3-0.3-0.4-0.5,0l-11.5,27.9h-3v1.4h8.2v-1.4h-3.3l4.4-11.1h8.9l4.4,11.1h-3.5v1.4
	h10.1v-1.4H342z M325.7,290.8l3.8-9.6l3.7,9.5l0,0L325.7,290.8z"/>
<path class="st4" d="M323.3,113.1l-0.9-0.6c-0.6-0.5-1.3-0.9-1.9-1.4l3.8-9.6h8.9l3.8,9.6l-2,1.3l-1,0.6v1h10.3v-1l-0.5-0.3
	c-1.1-0.7-2.2-1.3-3.3-2L330,84.7c-0.1-0.3-0.3-0.4-0.5,0l-10.8,26.2l-2.7,1.6l-1.1,0.7v0.9h8.5L323.3,113.1z M332.5,99.8
	L332.5,99.8H325l3.8-9.6L332.5,99.8z"/>
<path class="st4" d="M440.2,182.3l-0.8-0.3l-2.4-1.1l4.8-11.6h9.7l4.6,11.6c-0.7,0.3-1.3,0.7-2,1l-0.7,0.4v0.2h9.6v-0.2l-0.9-0.4
	l-2.3-1l-11.1-27.6c-0.1-0.3-0.3-0.4-0.5,0l-11.5,27.6l-2.5,1l-1,0.4v0.2h7L440.2,182.3z M451.1,168.3l0.3,0.8h-9.5l4.9-11.9
	L451.1,168.3z"/>
<path class="st4" d="M171,208l-10.3-25.6c-0.1-0.3-0.3-0.4-0.5,0L149.6,208c-0.5,1.4-1.9,2.3-3.3,2.2h-0.5v1.4h8.2v-1.4h-1.3
	c-1.2,0-1.8-0.8-1.3-2l3.6-9.1h8.9l3.6,9.2c0.4,1.1,0,1.9-1.3,1.9h-1.4v1.4h10.1v-1.4h-0.5C172.8,210.2,171.5,209.4,171,208z
	 M155.6,197.4l3.8-9.6l3.7,9.5l0,0L155.6,197.4z"/>
<path class="st4" d="M271.9,276.7h-0.5c-2,0-2.8-1.2-2-3l4.1-10h9.7l4,10c0.7,1.9-0.1,3-2,3h-0.7v0.2H295v-0.2l0,0
	c-1.8,0.1-3.4-1-4-2.7l-10.6-26.4c-0.1-0.3-0.3-0.4-0.5,0L269,274c-0.6,1.7-2.2,2.8-4,2.7h-0.1v0.2h7L271.9,276.7z M282.8,262.7
	l0.3,0.8h-9.5l4.9-11.9L282.8,262.7z"/>
<path class="st4" d="M171.9,399.6l-11.2-27.9c-0.1-0.3-0.3-0.4-0.5,0l-11.6,27.9h-3v1.4h8.2v-1.4h-3.3l4.5-11h8.9l4.4,11.1h-3.5v1.4
	h10.1v-1.4L171.9,399.6L171.9,399.6z M155.6,386.8l3.8-9.6l3.7,9.5l0,0L155.6,386.8z"/>
<path class="st4" d="M463.5,371h-2.4l-11.7-29.1c-0.1-0.3-0.3-0.4-0.5,0L437,371h-3v0.2h6.5V371h-3.3l5.4-13h9.7l5.1,13h-3v0.2h9.6
	V371H463.5z M442.7,357.7l4.9-11.9l4.3,11.1l0.3,0.8H442.7z"/>
<path class="st4" d="M292.1,469.9l-11.7-29.1c-0.1-0.3-0.3-0.4-0.5,0l-12,29.1h-3v0.2h6.5v-0.2h-3.3l5.4-13h9.7l5.1,13h-3v0.2h9.6
	v-0.2H292.1L292.1,469.9z M273.6,456.6l4.9-11.9l4.3,11.1l0.3,0.8H273.6z"/>
<path class="st4" d="M53.7,331.9l-9.8-25.7h-3.2L30,332h-3.4v2.9h9.9V332h-3.3l3.3-8.5h10.7l3.2,8.5h-3.2v2.9h10.1v-3L53.7,331.9
	L53.7,331.9z M42,309.5l4.1,11.2h-8.5L42,309.5z"/>
<path class="st4" d="M53.1,136.9l-9.3-24.3h-2.7L31,137c-0.4,1.2-1.5,1.9-2.8,1.9h-1.4v2.4h9.4v-2.4H35c-1.2,0-1.7-0.8-1.3-1.9
	l3-7.5H47l2.8,7.5c0.4,1.2-0.1,1.9-1.3,1.9h-1.2v2.4h10.1v-2.5h-1.5C54.6,138.9,53.5,138.1,53.1,136.9z M42,115.8l4.1,11.2h-8.5
	L42,115.8z"/>
<path class="st4" d="M222.6,44.1L213,18.9h-3.2l-10.5,25.3l-2.3,1l-1.1,0.4v1.9h9.9v-1.9l-1-0.4l-2.4-1l3.2-8.3h10.5l3.1,8.3
	c-0.8,0.3-1.5,0.7-2.3,1l-0.9,0.4v2h10.1v-2l-0.9-0.4L222.6,44.1z M211.1,22.1l4.1,11.2h-8.5L211.1,22.1z"/>
<rect x="24.8" y="207.1" class="st1" width="34.3" height="32.4"/>
<path class="st2" d="M57.3,237.6H47.2V235H48c1,0,1.9-0.4,2-1l-3.5-9.5L42,212.2l-8.5,21.8c0.1,0.6,0.8,1,1.7,1h1.2v2.6h-9.7V235h1
	c1,0,2-0.3,2.8-1l10.4-25h3l9.5,25c0.8,0.7,1.8,1,2.9,1h1L57.3,237.6z M35.7,223.4h11l0.9,2.6h-12L35.7,223.4z"/>
<path class="st2" d="M56.3,234.9c-1,0-2.1-0.3-2.9-1l-9.5-25h-3L30.5,234c-0.8,0.7-1.8,1-2.8,1h-1v2.6h9.7V235h-1.2
	c-1,0-1.6-0.4-1.7-1l3.1-8h10.5l3,8c-0.1,0.6-1,1-2,1h-0.8v2.6h10v-2.7L56.3,234.9z M42,212.2l4.1,11.2h-8.5L42,212.2z"/>
<text transform="matrix(0.9966 0.578 -0.867 0.4983 30.9495 357.7704)" class="st2 st5 st6"> 1000      Thickness              0</text>
<text transform="matrix(0.9966 -0.578 0.867 0.4983 318.4695 476.0903)" class="st2 st5 st6"> 1000  </text>
<text transform="matrix(0.867 -0.4983 0.867 0.4983 365.9597 448.6798)" class="st2 st5 st6">S</text>
<text transform="matrix(0.867 -0.4983 0.867 0.4983 373.1812 444.5295)" class="st2 st5 st6">t</text>
<text transform="matrix(0.867 -0.4983 0.867 0.4983 378.4442 441.5048)" class="st2 st5 st6">r</text>
<text transform="matrix(0.867 -0.4983 0.867 0.4983 383.6125 438.5345)" class="st2 st5 st6">aighter</text>
<text transform="matrix(0.9966 -0.578 0.867 0.4983 429.3403 412.0806)" class="st2 st5 st6">       0</text>
<polygon class="st2" points="174.1,443.1 170,445.5 77,391.8 77,391.8 74.9,390.6 79,388.2 66.3,386.3 69.7,393.6 73.8,391.3 
	166.8,445 166.8,445 168.9,446.1 164.8,448.5 177.5,450.5 "/>
<polygon class="st2" points="353.1,459.7 357.2,462.1 450.2,408.4 450.2,408.4 452.2,407.2 448.2,404.8 460.9,402.9 457.5,410.2 
	453.4,407.9 360.4,461.5 360.4,461.5 358.3,462.8 362.4,465.1 349.7,467.1 "/>
<polygon class="st2" points="491.7,330 495.8,332.4 495.8,225 495.8,225 495.8,222.6 491.7,220.2 496.4,213.6 501,225.6 
	496.9,223.2 496.9,330.6 496.9,330.6 496.9,333 501,335.4 496.4,342 "/>
<text transform="matrix(0 -0.9966 0.867 0.4983 487.02 366.7608)" class="st2 st5 st6">0               Height        1000</text>
</svg>
