<?xml version="1.0" encoding="utf-8"?>
<!-- Generator: Adobe Illustrator 21.1.0, SVG Export Plug-In . SVG Version: 6.00 Build 0)  -->
<svg version="1.1" id="レイヤー_1" xmlns="http://www.w3.org/2000/svg" xmlns:xlink="http://www.w3.org/1999/xlink" x="0px"
	 y="0px" viewBox="0 0 531.2 562.1" style="enable-background:new 0 0 531.2 562.1;" xml:space="preserve">
<style type="text/css">
	.st0{clip-path:url(#SVGID_2_);}
	.st1{fill:none;stroke:#231815;stroke-width:0.79;}
	.st2{fill:none;stroke:#00A0E9;}
	.st3{fill:none;stroke:#E4007F;}
	.st4{fill:#FFFFFF;stroke:#00A0E9;}
	.st5{fill:#231815;}
	.st6{fill:none;}
	.st7{font-family:'FrutigerNeueLTCYR-Bold';}
	.st8{font-size:24px;}
	.st9{fill:#FFFFFF;stroke:#E4007F;}
	.st10{clip-path:url(#SVGID_4_);}
	.st11{opacity:0.5;fill:none;stroke:#00A0E9;enable-background:new    ;}
	.st12{opacity:0.5;fill:none;stroke:#E4007F;enable-background:new    ;}
</style>
<title>アートボード 1 のコピー</title>
<g>
	<g id="レイヤー_1_1_">
		<g>
			<defs>
				<rect id="SVGID_1_" y="181.6" width="531.2" height="186.3"/>
			</defs>
			<clipPath id="SVGID_2_">
				<use xlink:href="#SVGID_1_"  style="overflow:visible;"/>
			</clipPath>
			<g class="st0">
				<g>
					<path class="st1" d="M98.5-860h-121v-10.1h383.2v10.1h-121V329.8h121v10.1H-22.5v-10.1h121L98.5-860L98.5-860z"/>
					<path class="st2" d="M98.5-860h-121v-10.1h383.2v10.1h-121V329.8h121v10.1H-22.5v-10.1h121L98.5-860L98.5-860z"/>
				</g>
				<g>
					<path class="st1" d="M108.6-749.1h-121v-121h373.1v121h-121v968h121v121H-12.4v-121h121V-749.1z"/>
					<path class="st3" d="M108.6-749.1h-121v-121h373.1v121h-121v968h121v121H-12.4v-121h121V-749.1z"/>
				</g>
				<rect x="236.2" y="326.3" class="st4" width="6.9" height="6.9"/>
				<rect x="357.2" y="326.3" class="st4" width="6.9" height="6.9"/>
				<polygon class="st5" points="331.1,277.2 331.1,320.6 326.5,320.6 331.7,329.8 337,320.6 332.4,320.6 332.4,277.2 				"/>
				<line class="st6" x1="331.7" y1="282.3" x2="331.7" y2="218.8"/>
				<polygon class="st5" points="332.4,282.3 332.4,228.9 337.5,228.9 331.7,218.8 326,228.9 331,228.9 331,282.3 				"/>
				<text transform="matrix(1 0 0 1 387.91 291.5889)" class="st5 st7 st8">Thickness</text>
				<rect x="357.2" y="215.4" class="st9" width="6.9" height="6.9"/>
				<rect x="236.2" y="215.4" class="st9" width="6.9" height="6.9"/>
			</g>
		</g>
		<g>
			<path class="st3" d="M98.7-952.3c0-58.5-32.3-90.7-90.8-90.7h-30.2v-10.1h383.1v10.1h-30.2c-58.5,0-90.8,32.3-90.8,90.7V55.9
				c0,58.5,32.3,90.8,90.8,90.8h30.2v10.1H-22.3v-10.1H8c58.5,0,90.8-32.3,90.8-90.8L98.7-952.3L98.7-952.3z"/>
		</g>
		<g>
			<path class="st2" d="M98.7-1043.1h-121v-10.1h383.2v10.1h-121V146.7h121v10.1H-22.3v-10.1h121L98.7-1043.1L98.7-1043.1z"/>
		</g>
		<rect x="236.5" y="143.2" class="st4" width="6.9" height="6.9"/>
		<rect x="236.4" y="52.5" class="st9" width="6.9" height="6.9"/>
		<line class="st3" x1="239.9" y1="55.9" x2="336" y2="55.9"/>
		<polygon class="st5" points="321.6,94.1 321.6,137.6 317,137.6 322.3,146.7 327.5,137.6 322.9,137.6 322.9,94.1 		"/>
		<line class="st6" x1="322.3" y1="108.5" x2="322.3" y2="55.9"/>
		<polygon class="st5" points="322.9,108.5 322.9,65.1 327.5,65.1 322.3,55.9 317,65.1 321.6,65.1 321.6,108.5 		"/>
		<text transform="matrix(1 0 0 1 387.91 108.5189)" class="st5 st7 st8">Height</text>
		<text transform="matrix(1 0 0 1 387.91 436.0489)" class="st5 st7 st8">St</text>
		<text transform="matrix(1 0 0 1 410.37 436.0489)" class="st5 st7 st8">r</text>
		<text transform="matrix(1 0 0 1 419.4 436.0489)" class="st5 st7 st8">aighter</text>
		<g>
			<defs>
				<rect id="SVGID_3_" y="359.4" width="531.2" height="153.2"/>
			</defs>
			<clipPath id="SVGID_4_">
				<use xlink:href="#SVGID_3_"  style="overflow:visible;"/>
			</clipPath>
			<g class="st10">
				<g>
					<path class="st1" d="M98.7-588.5c0-44.4-26.2-70.6-70.6-70.6h-50.4v-60.5h383.1v60.5h-50.4c-44.4,0-70.6,26.2-70.6,70.6v947.8
						c0,44.4,26.2,70.6,70.6,70.6h50.4v60.5H-22.3v-60.5h50.4c44.4,0,70.6-26.2,70.6-70.6V-588.5z"/>
					<path class="st2" d="M98.7-588.5c0-44.4-26.2-70.6-70.6-70.6h-50.4v-60.5h383.1v60.5h-50.4c-44.4,0-70.6,26.2-70.6,70.6v947.8
						c0,44.4,26.2,70.6,70.6,70.6h50.4v60.5H-22.3v-60.5h50.4c44.4,0,70.6-26.2,70.6-70.6V-588.5z"/>
				</g>
				<g>
					<path class="st1" d="M98.7-608.7c-24.2-14.1-46.4-26.2-70.6-40.3l-50.4-30.3v-40.3h383.1v40.3L310.5-649
						c-24.2,14.1-46.4,26.2-70.6,40.3v988.1c24.2,14.1,46.4,26.2,70.6,40.3l50.4,30.2v40.3H-22.3V450l50.4-30.2
						c24.2-14.1,46.4-26.2,70.6-40.3L98.7-608.7L98.7-608.7z"/>
					<path class="st3" d="M98.7-608.7c-24.2-14.1-46.4-26.2-70.6-40.3l-50.4-30.3v-40.3h383.1v40.3L310.5-649
						c-24.2,14.1-46.4,26.2-70.6,40.3v988.1c24.2,14.1,46.4,26.2,70.6,40.3l50.4,30.2v40.3H-22.3V450l50.4-30.2
						c24.2-14.1,46.4-26.2,70.6-40.3L98.7-608.7L98.7-608.7z"/>
				</g>
				<path class="st11" d="M304.8,429.7c35.9,0,64.9-29.1,64.9-64.9c0-35.9-29.1-64.9-64.9-64.9c-35.9,0-64.9,29.1-64.9,64.9l0,0"/>
			</g>
		</g>
		<line class="st12" x1="360.9" y1="450" x2="443.9" y2="498.4"/>
	</g>
</g>
</svg>
