<?xml version="1.0" encoding="utf-8"?>
<!-- Generator: Adobe Illustrator 22.0.1, SVG Export Plug-In . SVG Version: 6.00 Build 0)  -->
<svg version="1.1" id="レイヤー_1" xmlns="http://www.w3.org/2000/svg" xmlns:xlink="http://www.w3.org/1999/xlink" x="0px"
	 y="0px" viewBox="0 0 935.27 500" enable-background="new 0 0 935.27 500" xml:space="preserve">
<g>
	<g>
		<path fill="#231815" d="M858.194,80.898h-15.168v-3.955h1.221c0.814,0,1.498-0.131,2.049-0.395
			c0.551-0.262,0.899-0.611,1.042-1.041L842.02,61.13l-6.829-18.474l-12.867,32.851c0.096,0.431,0.371,0.779,0.827,1.041
			c0.454,0.264,1.041,0.395,1.761,0.395h1.868v3.955h-14.592v-3.955h1.438c0.814,0,1.605-0.119,2.372-0.358
			c0.766-0.241,1.39-0.599,1.87-1.079l15.742-37.739c0.766,0,1.498,0,2.193,0c0.694,0,1.448,0,2.264,0l14.377,37.666
			c0.528,0.48,1.162,0.826,1.905,1.041c0.743,0.218,1.546,0.325,2.409,0.325h1.438V80.898z M825.702,59.476h16.604l1.367,3.955
			h-18.115L825.702,59.476z"/>
	</g>
	<g>
		<path fill="#231815" d="M518.211,80.898h-15.168v-0.36h0.934c1.006,0,1.82-0.204,2.445-0.611c0.622-0.407,0.957-0.971,1.006-1.689
			l-7.476-18.834l-6.47-16.747L478.746,78.31c-0.047,0.672,0.218,1.21,0.791,1.617c0.576,0.407,1.341,0.611,2.3,0.611h1.294v0.36
			h-10.134v-0.36h0.503c1.006,0,1.905-0.154,2.696-0.468c0.791-0.309,1.474-0.826,2.047-1.544l17.325-41.763
			c0.096-0.288,0.215-0.419,0.36-0.395c0.143,0.023,0.262,0.154,0.358,0.395l16.822,41.836c0.573,0.672,1.233,1.163,1.975,1.472
			c0.744,0.314,1.643,0.468,2.696,0.468h0.433V80.898z M485.864,60.555h15.455v0.36h-15.6L485.864,60.555z"/>
	</g>
	<g>
		<path fill="#231815" d="M518.066,418.749h-14.447v-0.359l0.934-0.216c0.477-0.143,1.018-0.287,1.617-0.431
			c0.599-0.144,1.161-0.288,1.689-0.432l-7.907-20.056l-6.47-16.748l-15.168,36.876c0.526,0.096,1.079,0.215,1.654,0.359
			c0.573,0.144,1.126,0.288,1.652,0.431l1.509,0.216v0.359h-10.134v-0.359l1.149-0.288c0.622-0.096,1.247-0.215,1.87-0.359
			c0.622-0.144,1.245-0.288,1.87-0.432l17.683-42.698c0.096-0.288,0.215-0.419,0.36-0.395c0.143,0.025,0.262,0.156,0.358,0.395
			l17.18,42.771c0.576,0.096,1.163,0.215,1.762,0.359c0.599,0.144,1.186,0.263,1.76,0.359l1.079,0.288V418.749z M485.864,398.405
			h15.455v0.36h-15.6L485.864,398.405z"/>
	</g>
	<g>
		<path fill="#231815" d="M858.516,418.749h-15.168v-3.594l1.079-0.288c0.622-0.144,1.258-0.288,1.905-0.431
			c0.647-0.144,1.258-0.263,1.833-0.36l-5.607-15.095l-6.829-18.474l-13.155,33.569c0.576,0.097,1.138,0.216,1.689,0.36
			c0.55,0.143,1.114,0.263,1.689,0.359l1.582,0.359v3.594h-14.881v-3.594l1.151-0.288c0.67-0.144,1.352-0.288,2.049-0.431
			c0.694-0.144,1.329-0.288,1.905-0.432l16.03-38.386c0.862,0,1.665,0,2.408,0s1.546,0,2.408,0l14.664,38.314
			c0.67,0.143,1.365,0.276,2.085,0.394c0.718,0.121,1.438,0.252,2.156,0.395l1.006,0.288V418.749z M826.242,397.328h16.604
			l1.367,4.097h-18.115L826.242,397.328z"/>
	</g>
	<g>
		<path fill="#E7AC35" d="M801.477,418.749h-15.239v-3.019l1.221-0.36c0.622-0.095,1.234-0.215,1.833-0.359
			c0.599-0.144,1.21-0.288,1.833-0.432l-6.182-16.174l-6.397-17.107l-13.155,33.281c0.528,0.097,1.054,0.216,1.582,0.36
			c0.526,0.144,1.102,0.287,1.726,0.431l1.653,0.288v3.091h-14.233v-3.091l1.294-0.215c0.67-0.144,1.329-0.3,1.976-0.468
			c0.647-0.167,1.281-0.346,1.905-0.538l16.246-39.105c0.622-0.095,1.21-0.144,1.761-0.144c0.55,0,1.137,0.049,1.761,0.144
			l15.311,39.033c0.622,0.144,1.306,0.312,2.049,0.503c0.743,0.192,1.425,0.385,2.049,0.576l1.006,0.215V418.749z M769.705,397.328
			h15.886l0.935,3.594h-17.037L769.705,397.328z"/>
	</g>
	<g>
		<path fill="#E7AC35" d="M744.437,418.749h-15.239v-2.444l1.582-0.359c0.574-0.191,1.15-0.347,1.725-0.468
			c0.576-0.118,1.079-0.298,1.51-0.538l-6.614-17.109l-5.966-15.742l-12.94,32.922c0.479,0.097,0.982,0.241,1.51,0.432
			c0.526,0.192,1.03,0.336,1.509,0.431l1.582,0.432v2.444H699.87v-2.444l1.15-0.432c0.718-0.143,1.389-0.311,2.012-0.503
			c0.622-0.191,1.221-0.359,1.797-0.503l16.748-39.895c0.336-0.191,0.672-0.288,1.007-0.288c0.335,0,0.694,0.097,1.078,0.288
			l15.743,39.824c0.67,0.288,1.365,0.515,2.084,0.682c0.72,0.168,1.461,0.349,2.229,0.539l0.718,0.288V418.749z M713.239,397.328
			h15.168l0.432,3.162h-15.815L713.239,397.328z"/>
	</g>
	<g>
		<path fill="#E7AC35" d="M687.427,418.749h-15.31v-1.797l1.797-0.432c0.526-0.191,1.042-0.359,1.546-0.503
			c0.503-0.144,0.993-0.311,1.473-0.503l-7.188-18.259l-5.535-14.377l-12.939,32.635c0.479,0.144,0.971,0.312,1.474,0.503
			c0.503,0.192,0.993,0.359,1.473,0.503l1.582,0.432v1.797h-12.436v-1.797l1.221-0.432c0.67-0.191,1.33-0.395,1.977-0.611
			c0.647-0.215,1.281-0.419,1.905-0.611l16.892-40.686c0.096-0.288,0.216-0.419,0.36-0.395c0.143,0.025,0.262,0.156,0.359,0.395
			l16.389,40.686c0.67,0.24,1.365,0.48,2.085,0.718c0.718,0.241,1.438,0.48,2.156,0.72l0.718,0.215V418.749z M656.734,397.328
			h14.377v2.588h-14.664L656.734,397.328z"/>
	</g>
	<g>
		<path fill="#E7AC35" d="M630.782,418.749h-15.024v-1.294l1.509-0.432c0.576-0.191,1.138-0.346,1.689-0.467
			c0.55-0.119,1.042-0.275,1.474-0.467l-7.405-18.834l-5.822-15.166l-13.73,34.072c0.526,0.097,1.053,0.241,1.581,0.432
			c0.526,0.192,1.031,0.336,1.509,0.431l1.654,0.36v1.365h-11.79v-1.365l1.223-0.36c0.718-0.191,1.389-0.37,2.012-0.538
			c0.622-0.167,1.223-0.348,1.797-0.539l17.18-41.333c0.096-0.288,0.216-0.419,0.36-0.395c0.143,0.025,0.262,0.156,0.359,0.395
			l16.677,41.26c0.574,0.288,1.21,0.529,1.905,0.72c0.694,0.192,1.402,0.384,2.12,0.574l0.72,0.288V418.749z M599.656,397.687
			h14.737v1.87H599.44L599.656,397.687z"/>
	</g>
	<g>
		<path fill="#E7AC35" d="M574.567,418.749h-14.664v-0.862l1.079-0.216c0.576-0.191,1.126-0.37,1.654-0.538
			c0.526-0.167,1.079-0.299,1.652-0.395l-7.691-19.481l-6.182-15.957l-14.377,35.439c0.48,0.144,0.983,0.287,1.512,0.431
			c0.526,0.144,1.076,0.312,1.652,0.503l1.509,0.288v0.791h-10.853v-0.791l1.076-0.359c0.672-0.144,1.317-0.311,1.942-0.503
			c0.622-0.191,1.245-0.335,1.867-0.432l17.468-42.051c0.096-0.288,0.218-0.419,0.36-0.395c0.143,0.025,0.262,0.156,0.36,0.395
			l16.965,42.124c0.62,0.096,1.245,0.228,1.867,0.395c0.622,0.168,1.271,0.348,1.942,0.538l0.861,0.216V418.749z M542.867,398.046
			h15.095v1.079h-15.31L542.867,398.046z"/>
	</g>
	<g>
		<path fill="#E7AC35" d="M518.066,362.44h-14.664v-0.359l1.079-0.216c0.576-0.095,1.151-0.252,1.725-0.467
			c0.576-0.215,1.079-0.419,1.512-0.611l-7.764-19.84l-6.47-16.748l-15.022,36.66c0.381,0.241,0.861,0.456,1.437,0.647
			c0.576,0.192,1.149,0.312,1.725,0.359l1.509,0.216v0.359h-10.134v-0.359l1.006-0.288c0.718-0.047,1.402-0.154,2.047-0.323
			c0.648-0.167,1.282-0.395,1.907-0.683l17.61-42.483c0.096-0.288,0.215-0.419,0.36-0.395c0.143,0.025,0.262,0.156,0.358,0.395
			l17.107,42.554c0.622,0.288,1.235,0.493,1.834,0.612c0.599,0.119,1.21,0.227,1.832,0.323l1.006,0.288V362.44z M485.864,342.097
			h15.455v0.36h-15.6L485.864,342.097z"/>
	</g>
	<g>
		<path fill="#E7AC35" d="M858.409,362.44H843.17v-3.666l1.15-0.216c0.622-0.095,1.258-0.239,1.905-0.431
			c0.647-0.192,1.21-0.36,1.689-0.503l-5.463-14.952l-6.829-18.474l-13.011,33.426c0.432,0.143,0.922,0.311,1.474,0.503
			c0.55,0.192,1.114,0.311,1.688,0.359l1.726,0.215v3.738h-14.88v-3.738l1.079-0.215c0.718-0.048,1.425-0.167,2.12-0.359
			c0.694-0.192,1.354-0.384,1.977-0.576l15.957-38.242c0.814,0,1.594,0,2.336,0c0.743,0,1.546,0,2.408,0l14.521,38.171
			c0.67,0.287,1.39,0.48,2.156,0.574c0.766,0.097,1.486,0.192,2.157,0.288l1.078,0.288V362.44z M826.134,341.019h16.604l1.367,4.097
			H825.99L826.134,341.019z"/>
	</g>
	<g>
		<path fill="#E7AC35" d="M801.369,362.44h-15.168v-3.091l1.294-0.215c0.622-0.144,1.221-0.311,1.797-0.503
			c0.574-0.192,1.125-0.36,1.653-0.503l-6.038-16.031l-6.397-17.107l-13.011,33.138c0.432,0.143,0.899,0.323,1.402,0.538
			c0.503,0.216,1.042,0.349,1.618,0.395l1.797,0.216v3.162h-14.161v-3.162l1.223-0.216c0.718-0.095,1.402-0.239,2.049-0.431
			c0.647-0.192,1.305-0.407,1.976-0.647l16.174-38.961c0.622-0.095,1.198-0.144,1.726-0.144c0.526,0,1.101,0.049,1.725,0.144
			l15.168,38.889c0.622,0.336,1.317,0.576,2.085,0.72c0.766,0.144,1.461,0.287,2.085,0.431l1.006,0.216V362.44z M769.668,341.019
			h15.886l0.935,3.666h-17.037L769.668,341.019z"/>
	</g>
	<g>
		<path fill="#E7AC35" d="M744.4,362.44h-15.31v-2.515l1.725-0.36c0.576-0.095,1.138-0.227,1.689-0.395
			c0.55-0.167,1.018-0.346,1.402-0.538l-6.541-17.109l-5.966-15.742l-12.867,32.922c0.431,0.144,0.899,0.3,1.402,0.467
			c0.503,0.168,0.995,0.324,1.473,0.468l1.726,0.288v2.515h-13.227v-2.515l1.079-0.36c0.718-0.095,1.402-0.239,2.049-0.431
			c0.647-0.191,1.281-0.384,1.905-0.576l16.533-39.895c0.383-0.191,0.73-0.288,1.042-0.288c0.311,0,0.683,0.097,1.114,0.288
			l15.671,39.824c0.67,0.288,1.367,0.528,2.085,0.718c0.718,0.192,1.461,0.336,2.229,0.432l0.79,0.288V362.44z M713.203,341.019
			h15.168l0.432,3.091h-15.815L713.203,341.019z"/>
	</g>
	<g>
		<path fill="#E7AC35" d="M687.356,362.44h-15.311v-1.868l1.941-0.36c0.526-0.144,1.03-0.311,1.509-0.503
			c0.479-0.191,0.935-0.383,1.367-0.574l-7.117-18.187l-5.535-14.377l-12.866,32.564c0.431,0.192,0.886,0.395,1.365,0.611
			c0.479,0.215,0.958,0.372,1.438,0.467l1.725,0.36v1.868h-12.436v-1.868l1.079-0.36c0.718-0.144,1.402-0.335,2.049-0.574
			c0.647-0.24,1.305-0.479,1.976-0.72l16.821-40.613c0.096-0.288,0.216-0.419,0.36-0.395c0.143,0.025,0.262,0.156,0.359,0.395
			l16.318,40.613c0.67,0.336,1.365,0.612,2.084,0.827c0.72,0.215,1.438,0.42,2.157,0.611l0.718,0.216V362.44z M656.734,341.019
			h14.377v2.588h-14.664L656.734,341.019z"/>
	</g>
	<g>
		<path fill="#E7AC35" d="M630.782,362.44h-15.096v-1.438l1.654-0.215c0.526-0.191,1.053-0.371,1.581-0.539
			c0.528-0.167,0.982-0.371,1.367-0.611l-7.261-18.69l-5.822-15.166l-13.587,33.928c0.432,0.144,0.899,0.336,1.402,0.576
			c0.504,0.24,1.018,0.407,1.546,0.503l1.726,0.215v1.438h-11.789v-1.438l1.078-0.288c0.72-0.143,1.403-0.323,2.049-0.538
			c0.647-0.216,1.282-0.419,1.906-0.612l17.107-41.26c0.096-0.288,0.216-0.419,0.36-0.395c0.143,0.025,0.262,0.156,0.359,0.395
			l16.604,41.189c0.576,0.384,1.223,0.659,1.941,0.827c0.72,0.168,1.413,0.347,2.085,0.538l0.791,0.144V362.44z M599.656,341.378
			h14.737v1.87H599.44L599.656,341.378z"/>
	</g>
	<g>
		<path fill="#E7AC35" d="M574.496,362.44h-14.737v-0.791l1.221-0.359c0.526-0.096,1.079-0.252,1.654-0.467
			c0.576-0.216,1.102-0.419,1.582-0.612l-7.621-19.265l-6.182-15.957l-14.304,35.222c0.431,0.193,0.91,0.408,1.439,0.647
			c0.526,0.241,1.076,0.385,1.652,0.432l1.582,0.288v0.862h-10.925v-0.862l1.006-0.216c0.765-0.143,1.46-0.323,2.083-0.538
			c0.622-0.216,1.271-0.419,1.942-0.612l17.323-41.907c0.096-0.288,0.218-0.419,0.36-0.395c0.143,0.025,0.262,0.156,0.36,0.395
			l16.82,41.98c0.672,0.192,1.329,0.384,1.977,0.574c0.646,0.192,1.306,0.336,1.977,0.432l0.791,0.359V362.44z M542.867,341.738
			h15.095v1.079h-15.31L542.867,341.738z"/>
	</g>
	<g>
		<path fill="#E7AC35" d="M518.139,306.132h-14.737v-0.359l0.936-0.144c0.669-0.144,1.294-0.335,1.867-0.576
			c0.576-0.239,1.102-0.479,1.582-0.718l-7.834-19.697l-6.47-16.748l-15.095,36.516c0.384,0.336,0.861,0.589,1.437,0.756
			c0.576,0.168,1.198,0.347,1.87,0.538l1.437,0.073v0.359h-10.134v-0.359l0.934-0.216c0.718-0.047,1.425-0.179,2.12-0.394
			c0.695-0.216,1.306-0.443,1.835-0.683l17.683-42.483c0.096-0.288,0.215-0.419,0.36-0.395c0.143,0.025,0.262,0.156,0.358,0.395
			l17.18,42.554c0.526,0.192,1.102,0.385,1.725,0.576c0.622,0.192,1.343,0.359,2.157,0.503l0.791,0.144V306.132z M485.864,285.788
			h15.455v0.36h-15.6L485.864,285.788z"/>
	</g>
	<g>
		<path fill="#E7AC35" d="M858.48,306.13h-15.311v-3.666l1.15-0.288c0.622-0.048,1.246-0.167,1.87-0.359
			c0.622-0.192,1.221-0.36,1.797-0.503l-5.607-14.952l-6.829-18.474l-13.155,33.426c0.479,0.192,0.982,0.359,1.509,0.503
			c0.528,0.143,1.102,0.287,1.726,0.431l1.797,0.073v3.809h-15.024v-3.809l1.365-0.073c0.672-0.047,1.39-0.167,2.157-0.359
			c0.765-0.191,1.389-0.406,1.868-0.647L833.68,263c0.814,0,1.594,0,2.336,0s1.546,0,2.408,0l14.664,38.171
			c0.576,0.144,1.233,0.312,1.977,0.503c0.742,0.192,1.473,0.359,2.193,0.503l1.221,0.144V306.13z M826.061,284.709h16.604
			l1.367,4.026h-18.115L826.061,284.709z"/>
	</g>
	<g>
		<path fill="#E7AC35" d="M801.332,306.13h-15.31v-3.091l1.509-0.288c0.622-0.144,1.221-0.311,1.797-0.503
			c0.574-0.191,1.102-0.359,1.581-0.503l-6.11-15.958l-6.397-17.107l-13.083,33.066c0.479,0.241,0.97,0.443,1.473,0.611
			c0.503,0.168,1.066,0.301,1.689,0.395l1.653,0.216v3.162h-14.089v-3.162l1.294-0.216c0.67-0.095,1.365-0.239,2.085-0.431
			c0.718-0.192,1.341-0.407,1.868-0.647l16.246-38.961c0.621-0.095,1.197-0.144,1.725-0.144c0.526,0,1.079,0.049,1.653,0.144
			l15.24,38.889c0.526,0.241,1.161,0.456,1.905,0.647c0.742,0.192,1.521,0.359,2.336,0.503l0.934,0.216V306.13z M769.56,284.709
			h15.886l0.935,3.594h-17.037L769.56,284.709z"/>
	</g>
	<g>
		<path fill="#E7AC35" d="M744.437,306.13h-15.311v-2.515l1.726-0.36c0.574-0.095,1.126-0.227,1.653-0.395
			c0.526-0.167,1.03-0.37,1.509-0.611l-6.685-17.036l-5.966-15.742l-13.011,32.851c0.479,0.192,0.958,0.371,1.438,0.538
			c0.479,0.168,0.982,0.349,1.509,0.539l1.797,0.144v2.588h-13.37v-2.588l1.223-0.215c0.765-0.096,1.496-0.252,2.193-0.468
			c0.694-0.215,1.281-0.442,1.761-0.682l16.604-39.824c0.336-0.191,0.659-0.288,0.971-0.288c0.311,0,0.683,0.097,1.114,0.288
			l15.815,39.751c0.576,0.288,1.21,0.552,1.905,0.791c0.694,0.241,1.45,0.432,2.265,0.576l0.862,0.144V306.13z M713.167,284.709
			h15.168l0.432,3.091h-15.815L713.167,284.709z"/>
	</g>
	<g>
		<path fill="#E7AC35" d="M687.427,306.13h-15.383v-1.868l2.013-0.36c0.526-0.144,1.03-0.311,1.509-0.503
			c0.479-0.191,0.935-0.383,1.365-0.574l-7.188-18.187l-5.535-14.377l-12.939,32.564c0.432,0.24,0.887,0.456,1.365,0.647
			c0.479,0.192,0.983,0.359,1.51,0.503l1.725,0.215v1.941h-12.507v-1.941l1.15-0.288c0.718-0.095,1.425-0.262,2.12-0.503
			c0.695-0.239,1.306-0.503,1.833-0.791l16.892-40.613c0.096-0.288,0.216-0.419,0.36-0.395c0.143,0.025,0.262,0.156,0.359,0.395
			l16.389,40.613c0.576,0.288,1.223,0.564,1.941,0.827c0.718,0.264,1.485,0.491,2.3,0.683l0.718,0.144V306.13z M656.734,284.709
			h14.377v2.588h-14.664L656.734,284.709z"/>
	</g>
	<g>
		<path fill="#E7AC35" d="M630.853,306.13h-15.239v-1.365l1.653-0.288c0.67-0.191,1.258-0.383,1.761-0.576
			c0.504-0.191,0.947-0.406,1.33-0.647l-7.332-18.618l-5.822-15.166l-13.658,33.857c0.432,0.288,0.91,0.515,1.438,0.683
			c0.526,0.168,1.078,0.347,1.653,0.538l1.653,0.144v1.438h-11.789v-1.438l1.006-0.215c0.766-0.144,1.485-0.324,2.156-0.539
			c0.67-0.215,1.294-0.467,1.87-0.755l17.107-41.189c0.096-0.288,0.216-0.419,0.36-0.395c0.143,0.025,0.262,0.156,0.359,0.395
			l16.604,41.118c0.528,0.336,1.162,0.635,1.906,0.899c0.742,0.263,1.52,0.443,2.335,0.538l0.647,0.216V306.13z M599.656,285.069
			h14.737v1.87H599.44L599.656,285.069z"/>
	</g>
	<g>
		<path fill="#E7AC35" d="M574.639,306.13h-14.952v-0.791l1.224-0.288c0.62-0.095,1.21-0.262,1.76-0.503
			c0.55-0.239,1.067-0.479,1.547-0.718l-7.621-19.193l-6.182-15.957l-14.304,35.151c0.431,0.288,0.91,0.539,1.439,0.755
			c0.526,0.215,1.076,0.395,1.652,0.539l1.654,0.071v0.935h-11.07v-0.935l1.079-0.215c0.718,0,1.425-0.131,2.12-0.395
			c0.693-0.263,1.329-0.515,1.905-0.755l17.323-41.836c0.096-0.288,0.218-0.419,0.36-0.395c0.143,0.025,0.262,0.156,0.36,0.395
			l16.82,41.907c0.576,0.241,1.198,0.48,1.87,0.72c0.669,0.24,1.437,0.431,2.3,0.574l0.718,0.144V306.13z M542.867,285.428h15.095
			v1.079h-15.31L542.867,285.428z"/>
	</g>
	<g>
		<path fill="#E7AC35" d="M518.066,249.824h-14.807v-0.359l0.934-0.216c0.814,0,1.521-0.143,2.122-0.431
			c0.597-0.288,1.065-0.647,1.402-1.079l-7.764-19.409l-6.47-16.748l-15.022,36.229c0.285,0.48,0.718,0.826,1.294,1.042
			c0.573,0.215,1.245,0.371,2.012,0.467l1.364,0.144v0.359h-10.134v-0.359l0.934-0.144c0.768-0.096,1.498-0.24,2.193-0.432
			c0.695-0.191,1.329-0.526,1.905-1.006l17.54-42.195c0.096-0.288,0.215-0.419,0.36-0.395c0.143,0.025,0.262,0.156,0.358,0.395
			l17.037,42.268c0.622,0.384,1.245,0.695,1.867,0.934c0.622,0.241,1.367,0.385,2.23,0.432l0.646,0.144V249.824z M485.864,229.481
			h15.455v0.36h-15.6L485.864,229.481z"/>
	</g>
	<g>
		<path fill="#E7AC35" d="M858.337,249.824H843.17v-3.809l1.078-0.073c0.72-0.047,1.377-0.191,1.977-0.431
			c0.599-0.24,1.114-0.503,1.546-0.791l-5.463-14.664l-6.829-18.474l-13.011,33.138c0.335,0.384,0.755,0.659,1.258,0.826
			c0.503,0.168,1.089,0.301,1.762,0.395l1.797,0.073v3.809h-14.881v-3.809l1.438-0.144c0.622-0.048,1.317-0.167,2.085-0.359
			c0.766-0.192,1.413-0.432,1.941-0.72l15.886-38.098c0.766,0,1.509,0,2.229,0c0.718,0,1.509,0,2.372,0l14.521,38.027
			c0.622,0.288,1.306,0.528,2.049,0.718c0.743,0.192,1.474,0.312,2.193,0.359l1.223,0.073V249.824z M825.99,228.403h16.604
			l1.367,4.097h-18.115L825.99,228.403z"/>
	</g>
	<g>
		<path fill="#E7AC35" d="M801.296,249.824h-15.239v-3.235l1.438-0.144c0.718-0.047,1.354-0.191,1.905-0.431
			c0.55-0.24,0.995-0.503,1.33-0.791l-5.967-15.743l-6.397-17.107l-12.939,32.851c0.335,0.336,0.742,0.599,1.221,0.791
			c0.479,0.192,1.054,0.336,1.726,0.431l1.725,0.216v3.162h-14.018v-3.162l1.294-0.288c0.72-0.047,1.413-0.167,2.085-0.359
			c0.67-0.192,1.294-0.479,1.87-0.863l16.245-38.745c0.576-0.095,1.126-0.144,1.653-0.144c0.526,0,1.079,0.049,1.653,0.144
			l15.096,38.674c0.574,0.432,1.233,0.743,1.976,0.935c0.743,0.192,1.521,0.312,2.336,0.359l1.006,0.144V249.824z M769.525,228.403
			h15.886l0.935,3.594h-17.037L769.525,228.403z"/>
	</g>
	<g>
		<path fill="#E7AC35" d="M744.364,249.824h-15.239v-2.659l1.726-0.144c0.67-0.096,1.258-0.252,1.761-0.468
			c0.503-0.215,0.945-0.467,1.33-0.755l-6.614-16.892l-5.966-15.742l-12.94,32.707c0.384,0.288,0.803,0.528,1.259,0.718
			c0.454,0.192,0.993,0.359,1.617,0.503l1.726,0.144v2.588h-13.227v-2.588l1.221-0.215c0.67-0.144,1.365-0.3,2.085-0.468
			c0.718-0.167,1.341-0.442,1.868-0.826l16.533-39.68c0.384-0.191,0.72-0.288,1.007-0.288c0.287,0,0.647,0.097,1.078,0.288
			l15.743,39.607c0.621,0.385,1.268,0.708,1.94,0.971c0.672,0.264,1.413,0.42,2.229,0.467l0.862,0.073V249.824z M713.167,228.403
			h15.168l0.432,3.162h-15.815L713.167,228.403z"/>
	</g>
	<g>
		<path fill="#E7AC35" d="M687.356,249.824h-15.311v-2.012l2.013-0.216c0.621-0.047,1.161-0.191,1.617-0.431
			c0.455-0.24,0.851-0.503,1.186-0.791l-7.117-18.043l-5.535-14.377l-12.866,32.42c0.335,0.336,0.73,0.6,1.185,0.791
			c0.455,0.192,0.995,0.359,1.618,0.503l1.725,0.215v1.941h-12.436v-1.941l1.079-0.288c0.718-0.095,1.425-0.252,2.12-0.467
			c0.695-0.215,1.33-0.539,1.905-0.97l16.821-40.471c0.096-0.288,0.216-0.419,0.36-0.395c0.143,0.025,0.262,0.156,0.359,0.395
			l16.318,40.471c0.621,0.431,1.281,0.779,1.976,1.041c0.695,0.264,1.45,0.445,2.265,0.539l0.718,0.073V249.824z M656.734,228.403
			h14.377v2.588h-14.664L656.734,228.403z"/>
	</g>
	<g>
		<path fill="#E7AC35" d="M630.853,249.824h-15.168v-1.509l1.582-0.216c0.72,0,1.341-0.131,1.87-0.394
			c0.526-0.263,0.886-0.563,1.078-0.899l-7.188-18.475l-5.822-15.166l-13.514,33.713c0.288,0.336,0.683,0.6,1.186,0.791
			c0.503,0.192,1.089,0.359,1.761,0.503l1.653,0.215v1.438h-11.717v-1.438l0.935-0.288c0.814-0.047,1.546-0.191,2.193-0.431
			c0.647-0.24,1.281-0.526,1.905-0.862l17.036-41.118c0.096-0.288,0.216-0.419,0.36-0.395c0.143,0.025,0.262,0.156,0.359,0.395
			l16.533,41.045c0.574,0.48,1.221,0.839,1.941,1.079c0.718,0.24,1.485,0.384,2.3,0.431l0.718,0.073V249.824z M599.656,228.762
			h14.737v1.87H599.44L599.656,228.762z"/>
	</g>
	<g>
		<path fill="#E7AC35" d="M574.567,249.824h-15.023v-0.862l1.367-0.216c0.669-0.047,1.28-0.215,1.832-0.503
			c0.55-0.287,1.018-0.598,1.402-0.934l-7.549-18.978l-6.182-15.957l-14.232,34.936c0.335,0.384,0.753,0.707,1.257,0.97
			c0.505,0.264,1.116,0.443,1.835,0.539l1.582,0.144v0.862h-11.07v-0.862l1.006-0.216c0.765-0.095,1.509-0.239,2.228-0.431
			c0.718-0.191,1.367-0.551,1.942-1.079l17.25-41.548c0.096-0.288,0.218-0.419,0.36-0.395c0.143,0.025,0.262,0.156,0.36,0.395
			l16.747,41.621c0.622,0.431,1.271,0.779,1.942,1.041c0.669,0.264,1.413,0.421,2.228,0.468l0.718,0.144V249.824z M542.867,229.121
			h15.095v1.079h-15.31L542.867,229.121z"/>
	</g>
	<g>
		<path fill="#E7AC35" d="M518.139,193.516h-14.88v-0.359l0.863-0.073c0.861-0.047,1.591-0.227,2.193-0.538
			c0.597-0.311,0.992-0.707,1.184-1.186l-7.546-19.337l-6.47-16.748l-14.807,36.157c0.143,0.432,0.489,0.815,1.041,1.15
			c0.55,0.336,1.233,0.48,2.05,0.432l1.364,0.144v0.359h-10.134v-0.359l0.718-0.073c0.91-0.047,1.725-0.191,2.445-0.431
			c0.718-0.24,1.364-0.622,1.94-1.15l17.468-42.124c0.096-0.288,0.215-0.419,0.36-0.395c0.143,0.025,0.262,0.156,0.358,0.395
			l16.965,42.195c0.576,0.48,1.21,0.827,1.905,1.042c0.695,0.215,1.474,0.349,2.338,0.395l0.646,0.144V193.516z M485.864,173.172
			h15.455v0.36h-15.6L485.864,173.172z"/>
	</g>
	<g>
		<path fill="#E7AC35" d="M858.266,193.516H843.17v-3.809l1.15-0.073c0.72-0.047,1.377-0.179,1.977-0.395
			c0.599-0.215,1.018-0.49,1.258-0.826l-5.319-14.664l-6.829-18.474l-12.867,33.138c0.239,0.24,0.611,0.491,1.114,0.755
			c0.503,0.263,1.042,0.372,1.618,0.323l1.868,0.216v3.809h-14.664v-3.809l1.223-0.144c0.814,0,1.582-0.108,2.3-0.324
			c0.718-0.215,1.365-0.514,1.941-0.899l15.742-37.954c0.766,0,1.521,0,2.265,0c0.742,0,1.52,0,2.335,0l14.377,37.883
			c0.622,0.432,1.306,0.718,2.049,0.862c0.743,0.144,1.521,0.215,2.336,0.215l1.223,0.216V193.516z M825.919,172.094h16.604
			l1.367,4.026h-18.115L825.919,172.094z"/>
	</g>
	<g>
		<path fill="#E7AC35" d="M801.154,193.516H786.13v-3.235l1.365-0.144c0.72-0.047,1.341-0.179,1.87-0.395
			c0.526-0.215,0.958-0.49,1.294-0.826l-5.967-15.743l-6.397-17.107l-12.939,32.851c0.287,0.288,0.658,0.551,1.114,0.791
			c0.455,0.24,0.995,0.384,1.617,0.431l1.87,0.144v3.235H756.01v-3.235l1.223-0.071c0.814-0.096,1.569-0.252,2.264-0.468
			c0.695-0.215,1.354-0.514,1.977-0.899l16.03-38.745c0.576-0.095,1.114-0.144,1.617-0.144c0.504,0,1.066,0.049,1.689,0.144
			l15.096,38.674c0.574,0.432,1.221,0.755,1.941,0.97c0.718,0.216,1.461,0.324,2.228,0.324l1.079,0.144V193.516z M769.453,172.094
			h15.886l0.935,3.522h-17.037L769.453,172.094z"/>
	</g>
	<g>
		<path fill="#E7AC35" d="M744.329,193.516H729.09v-2.659l1.797-0.073c0.67-0.095,1.258-0.239,1.761-0.431
			c0.503-0.192,0.874-0.503,1.115-0.935l-6.47-16.821l-5.966-15.742l-12.796,32.634c0.24,0.241,0.586,0.503,1.042,0.791
			c0.455,0.288,0.994,0.408,1.618,0.359l1.797,0.216v2.659h-13.155v-2.659l1.006-0.144c0.862-0.047,1.629-0.191,2.3-0.432
			c0.67-0.239,1.294-0.55,1.87-0.935l16.533-39.607c0.288-0.191,0.599-0.288,0.935-0.288c0.335,0,0.694,0.097,1.078,0.288
			l15.599,39.536c0.622,0.528,1.281,0.887,1.976,1.079s1.45,0.312,2.265,0.359l0.934,0.144V193.516z M713.132,172.094h15.168
			l0.432,3.162h-15.815L713.132,172.094z"/>
	</g>
	<g>
		<path fill="#E7AC35" d="M687.285,193.516h-15.168v-2.012l2.012-0.144c0.622-0.096,1.162-0.252,1.617-0.468
			c0.455-0.215,0.803-0.49,1.042-0.826l-7.044-18.043l-5.535-14.377l-12.795,32.42c0.239,0.288,0.586,0.564,1.042,0.826
			c0.455,0.264,0.97,0.395,1.546,0.395l1.797,0.216v2.012h-12.292v-2.012l0.862-0.144c0.862-0.096,1.629-0.263,2.3-0.503
			c0.67-0.24,1.317-0.576,1.941-1.006l16.748-40.471c0.096-0.288,0.216-0.419,0.36-0.395c0.143,0.025,0.262,0.156,0.359,0.395
			l16.245,40.471c0.622,0.479,1.282,0.839,1.977,1.078c0.694,0.241,1.448,0.384,2.264,0.432l0.72,0.144V193.516z M656.734,172.094
			h14.377v2.588h-14.664L656.734,172.094z"/>
	</g>
	<g>
		<path fill="#E7AC35" d="M630.782,193.516h-15.096v-1.438l1.654-0.215c0.67-0.047,1.281-0.204,1.832-0.467s0.874-0.563,0.971-0.899
			l-7.117-18.475l-5.822-15.166l-13.443,33.713c0.191,0.24,0.528,0.516,1.006,0.827s1.054,0.443,1.726,0.394l1.726,0.288v1.438
			h-11.646v-1.438l0.72-0.215c1.006-0.047,1.832-0.191,2.479-0.432c0.647-0.239,1.259-0.574,1.833-1.006l17.036-41.045
			c0.096-0.288,0.216-0.419,0.36-0.395c0.143,0.025,0.262,0.156,0.359,0.395l16.533,40.974c0.526,0.574,1.15,0.958,1.868,1.15
			c0.72,0.192,1.486,0.336,2.3,0.431l0.72,0.144V193.516z M599.656,172.454h14.737v1.87H599.44L599.656,172.454z"/>
	</g>
	<g>
		<path fill="#E7AC35" d="M574.567,193.516h-14.95v-0.862l1.221-0.073c0.718-0.144,1.352-0.346,1.905-0.611
			c0.55-0.263,0.971-0.611,1.259-1.042l-7.406-18.906l-6.182-15.957l-14.089,34.863c0.192,0.336,0.541,0.672,1.044,1.006
			c0.503,0.336,1.114,0.529,1.832,0.576l1.582,0.071v0.935h-10.855v-0.935h0.718c0.863-0.144,1.643-0.335,2.338-0.574
			c0.693-0.24,1.376-0.599,2.047-1.079l17.18-41.548c0.096-0.288,0.218-0.419,0.36-0.395c0.143,0.025,0.262,0.156,0.36,0.395
			L569.608,191c0.622,0.431,1.28,0.779,1.975,1.041c0.695,0.264,1.474,0.395,2.338,0.395l0.646,0.216V193.516z M542.867,172.813
			h15.095v1.079h-15.31L542.867,172.813z"/>
	</g>
	<g>
		<path fill="#E7AC35" d="M518.281,137.207h-15.095v-0.36l0.863-0.073c0.957,0,1.748-0.178,2.373-0.538
			c0.622-0.36,0.98-0.849,1.076-1.474l-7.546-19.05l-6.47-16.747l-14.807,35.869c0.047,0.576,0.358,1.041,0.934,1.402
			s1.294,0.538,2.157,0.538l1.364,0.073v0.36h-10.134v-0.36l0.576-0.073c1.006,0,1.879-0.154,2.623-0.466
			c0.742-0.311,1.402-0.73,1.977-1.259l17.395-41.979c0.096-0.288,0.215-0.419,0.36-0.395c0.143,0.023,0.262,0.154,0.358,0.395
			l16.892,42.051c0.576,0.526,1.224,0.934,1.942,1.221c0.718,0.288,1.582,0.456,2.588,0.503h0.573V137.207z M485.864,116.863h15.455
			v0.36h-15.6L485.864,116.863z"/>
	</g>
	<g>
		<path fill="#E7AC35" d="M858.301,137.207h-15.24v-3.882h1.223c0.814-0.095,1.496-0.262,2.049-0.503
			c0.55-0.239,0.97-0.526,1.258-0.862l-5.463-14.521l-6.829-18.474l-13.011,32.995c0.24,0.336,0.586,0.647,1.042,0.935
			c0.455,0.287,1.042,0.407,1.761,0.359l1.797,0.071v3.882h-14.664v-3.882h1.367c0.862-0.095,1.677-0.252,2.444-0.467
			c0.766-0.215,1.365-0.539,1.797-0.971l15.815-37.81c0.814,0,1.569,0,2.264,0c0.694,0,1.448,0,2.264,0l14.521,37.739
			c0.526,0.384,1.15,0.683,1.87,0.899c0.718,0.215,1.509,0.372,2.372,0.467h1.367V137.207z M825.81,115.786h16.604l1.367,4.026
			h-18.115L825.81,115.786z"/>
	</g>
	<g>
		<path fill="#E7AC35" d="M801.333,137.207h-15.311v-3.306h1.51c0.814-0.048,1.473-0.191,1.976-0.432
			c0.503-0.239,0.874-0.574,1.115-1.006l-5.967-15.599l-6.397-17.107l-12.939,32.707c0.191,0.432,0.503,0.779,0.934,1.042
			c0.432,0.263,1.031,0.372,1.797,0.323l1.87,0.073v3.306h-14.017v-3.306l1.294-0.073c0.862,0,1.653-0.131,2.372-0.395
			c0.72-0.262,1.319-0.586,1.797-0.97l16.174-38.674c0.528-0.095,1.054-0.144,1.582-0.144c0.526,0,1.079,0.049,1.653,0.144
			l15.096,38.602c0.479,0.431,1.089,0.755,1.832,0.97c0.743,0.215,1.546,0.372,2.409,0.467h1.221V137.207z M769.417,115.786h15.886
			l0.935,3.594H769.2L769.417,115.786z"/>
	</g>
	<g>
		<path fill="#E7AC35" d="M744.293,137.207h-15.166v-2.732l1.797-0.071c0.765-0.047,1.389-0.18,1.868-0.395
			c0.479-0.215,0.814-0.515,1.006-0.899l-6.541-16.821l-5.966-15.742l-12.867,32.634c0.191,0.288,0.503,0.564,0.935,0.827
			c0.431,0.264,0.982,0.395,1.653,0.395l1.868,0.071v2.732h-13.154v-2.732l1.006-0.071c0.909-0.047,1.725-0.18,2.444-0.395
			c0.718-0.215,1.294-0.563,1.725-1.042l16.533-39.536c0.384-0.191,0.73-0.288,1.042-0.288c0.311,0,0.659,0.097,1.042,0.288
			l15.671,39.464c0.526,0.48,1.138,0.839,1.833,1.078c0.694,0.241,1.498,0.408,2.408,0.503h0.862V137.207z M713.095,115.786h15.168
			l0.432,3.091H712.88L713.095,115.786z"/>
	</g>
	<g>
		<path fill="#E7AC35" d="M687.356,137.207h-15.239v-2.085l2.084-0.071c0.72-0.048,1.294-0.191,1.726-0.432
			c0.432-0.239,0.743-0.55,0.935-0.935l-7.117-17.971l-5.535-14.377l-12.866,32.348c0.191,0.385,0.503,0.708,0.934,0.971
			c0.432,0.263,0.982,0.395,1.653,0.395l1.87,0.071v2.085h-12.364v-2.085l0.862-0.071c0.91-0.048,1.726-0.204,2.444-0.468
			c0.72-0.262,1.317-0.634,1.797-1.114l16.821-40.398c0.096-0.288,0.216-0.419,0.36-0.395c0.143,0.025,0.262,0.156,0.359,0.395
			l16.318,40.398c0.526,0.48,1.137,0.852,1.832,1.114c0.695,0.264,1.498,0.445,2.409,0.539h0.718V137.207z M656.734,115.786h14.377
			v2.588h-14.664L656.734,115.786z"/>
	</g>
	<g>
		<path fill="#E7AC35" d="M630.853,137.207h-15.168v-1.582h1.582c0.91-0.047,1.605-0.202,2.085-0.467
			c0.479-0.263,0.766-0.659,0.862-1.186l-7.188-18.259l-5.822-15.166l-13.514,33.498c0.144,0.48,0.455,0.862,0.935,1.15
			c0.479,0.287,1.078,0.431,1.797,0.431h1.797v1.582h-11.717v-1.582h0.791c0.958-0.047,1.797-0.215,2.515-0.503
			s1.317-0.647,1.797-1.078l17.036-40.974c0.096-0.288,0.216-0.419,0.36-0.395c0.143,0.025,0.262,0.156,0.359,0.395l16.533,40.901
			c0.479,0.528,1.079,0.923,1.797,1.186c0.718,0.264,1.582,0.42,2.588,0.467h0.574V137.207z M599.656,116.145h14.737v1.87H599.44
			L599.656,116.145z"/>
	</g>
	<g>
		<path fill="#E7AC35" d="M574.639,137.207h-15.095v-0.862l1.294-0.144c0.814,0,1.509-0.18,2.085-0.539
			c0.573-0.359,0.957-0.755,1.149-1.186l-7.476-18.762l-6.182-15.957l-14.159,34.719c0.143,0.432,0.454,0.839,0.934,1.223
			c0.477,0.384,1.149,0.551,2.012,0.503l1.582,0.144v0.862h-10.998v-0.862l0.646-0.144c1.055,0,1.954-0.144,2.696-0.432
			c0.744-0.288,1.355-0.718,1.835-1.294l17.25-41.404c0.096-0.288,0.218-0.419,0.36-0.395c0.143,0.025,0.262,0.156,0.36,0.395
			l16.747,41.477c0.529,0.528,1.151,0.923,1.87,1.185c0.718,0.264,1.556,0.468,2.515,0.612h0.576V137.207z M542.867,116.504h15.095
			v1.079h-15.31L542.867,116.504z"/>
	</g>
	<g>
		<path fill="#E7AC35" d="M801.189,80.897h-15.168v-3.379h1.509c0.814,0,1.474-0.131,1.977-0.395
			c0.503-0.262,0.826-0.611,0.97-1.041l-5.894-15.528l-6.397-17.107l-12.867,32.635c0.096,0.431,0.359,0.779,0.791,1.041
			c0.432,0.264,1.03,0.395,1.797,0.395h1.868v3.379h-13.874v-3.379h1.294c0.863,0,1.654-0.118,2.373-0.359
			c0.718-0.239,1.341-0.622,1.868-1.15l16.03-38.53c0.576-0.095,1.115-0.144,1.618-0.144c0.503,0,1.042,0.049,1.617,0.144
			l15.024,38.458c0.479,0.528,1.089,0.91,1.833,1.15c0.743,0.24,1.546,0.359,2.408,0.359h1.223V80.897z M769.344,59.476h15.886
			l0.935,3.522h-17.037L769.344,59.476z"/>
	</g>
	<g>
		<path fill="#E7AC35" d="M744.257,80.897H729.09v-2.803h1.868c0.766,0,1.39-0.119,1.868-0.359c0.479-0.24,0.766-0.599,0.863-1.079
			l-6.47-16.677l-5.966-15.742l-12.796,32.49c0.096,0.385,0.359,0.708,0.791,0.971c0.432,0.264,1.006,0.395,1.726,0.395h1.868v2.803
			h-13.083v-2.803h1.006c0.91,0,1.726-0.119,2.444-0.359c0.72-0.24,1.317-0.622,1.797-1.15L721.47,37.12
			c0.335-0.191,0.658-0.288,0.97-0.288c0.311,0,0.659,0.097,1.042,0.288l15.599,39.392c0.526,0.576,1.137,0.983,1.832,1.223
			s1.498,0.359,2.409,0.359h0.934V80.897z M713.059,59.476h15.168l0.432,3.091h-15.815L713.059,59.476z"/>
	</g>
	<g>
		<path fill="#E7AC35" d="M687.285,80.897h-15.168v-2.156h2.156c0.718,0,1.294-0.132,1.724-0.395
			c0.432-0.263,0.695-0.611,0.791-1.042l-7.044-17.899l-5.535-14.377l-12.795,32.276c0.096,0.432,0.359,0.779,0.791,1.042
			c0.431,0.263,1.006,0.395,1.725,0.395h1.87v2.156h-12.292v-2.156h0.79c0.91,0,1.726-0.132,2.444-0.395
			c0.72-0.263,1.342-0.683,1.87-1.258l16.748-40.327c0.096-0.288,0.216-0.419,0.36-0.395c0.143,0.025,0.262,0.156,0.359,0.395
			l16.245,40.327c0.526,0.574,1.138,0.994,1.833,1.258c0.694,0.263,1.498,0.395,2.408,0.395h0.72V80.897z M656.734,59.476h14.377
			v2.588h-14.664L656.734,59.476z"/>
	</g>
	<g>
		<path fill="#E7AC35" d="M630.782,80.897h-15.168v-1.582h1.726c0.862,0,1.546-0.154,2.049-0.467
			c0.503-0.311,0.755-0.73,0.755-1.258l-7.117-18.187l-5.822-15.166l-13.443,33.425c0.048,0.48,0.311,0.875,0.791,1.186
			c0.479,0.312,1.125,0.467,1.941,0.467h1.726v1.582h-11.646v-1.582h0.647c1.006,0,1.87-0.144,2.588-0.431
			c0.718-0.288,1.341-0.72,1.87-1.294l16.964-40.83c0.096-0.288,0.216-0.419,0.36-0.395c0.143,0.025,0.262,0.156,0.359,0.395
			l16.462,40.757c0.477,0.672,1.089,1.14,1.832,1.402c0.743,0.264,1.594,0.395,2.552,0.395h0.576V80.897z M599.656,59.835h14.737
			v1.87H599.44L599.656,59.835z"/>
	</g>
	<g>
		<path fill="#E7AC35" d="M574.639,80.897h-15.168v-0.935h1.294c0.91,0,1.64-0.191,2.193-0.574c0.55-0.384,0.875-0.863,0.971-1.438
			l-7.333-18.546l-6.182-15.957L536.397,77.95c0,0.574,0.253,1.054,0.756,1.438c0.503,0.384,1.21,0.574,2.12,0.574h1.509v0.935
			h-10.925v-0.935h0.573c1.006,0,1.893-0.154,2.661-0.467c0.765-0.311,1.437-0.803,2.012-1.474l17.107-41.26
			c0.096-0.288,0.218-0.419,0.36-0.395c0.143,0.025,0.262,0.156,0.36,0.395l16.604,41.333c0.576,0.624,1.233,1.09,1.977,1.402
			c0.742,0.312,1.617,0.467,2.623,0.467h0.503V80.897z M542.867,60.194h15.095v1.079h-15.31L542.867,60.194z"/>
	</g>
	<g>
		<path fill="#231815" d="M479.284,465.295l-0.421,1.88l-3.187-0.05l-2.132,9.884h-2.45l2.164-9.884l-3.475,0.05l0.405-1.88H479.284
			z"/>
		<path fill="#231815" d="M482.45,467.343c-0.133,0.587-0.438,1.796-0.555,2.198h0.035c0.636-0.957,1.61-1.376,2.466-1.376
			c1.895,0,2.852,1.141,2.852,2.752c0,0.521-0.084,1.108-0.253,1.897l-0.906,4.196h-2.181l0.906-4.212
			c0.168-0.789,0.253-1.242,0.253-1.645c0-0.772-0.421-1.275-1.259-1.275c-0.906,0-1.512,0.537-1.947,1.342
			c-0.302,0.555-0.555,1.377-0.824,2.685l-0.653,3.105h-2.183l2.686-12.687h2.216L482.45,467.343z"/>
		<path fill="#231815" d="M492.53,468.366l-1.846,8.643h-2.216l1.83-8.643H492.53z M493.286,464.573l-0.47,2.132h-2.249l0.487-2.132
			H493.286z"/>
		<path fill="#231815" d="M500.062,470.38c-0.47-0.252-0.973-0.402-1.577-0.402c-1.729,0-2.787,1.494-2.787,3.357
			c0,1.175,0.655,2.064,2.132,2.064c0.555,0,1.142-0.117,1.577-0.336l-0.25,1.729c-0.587,0.218-1.191,0.302-1.898,0.302
			c-2.466,0-3.891-1.578-3.891-3.626c0-2.987,2.164-5.185,5.202-5.185c0.756,0,1.477,0.135,2.047,0.37L500.062,470.38z"/>
		<path fill="#231815" d="M502.66,477.009h-2.2l2.686-12.687h2.197l-1.61,7.367h0.033c0.152-0.185,0.772-0.839,3.274-3.323h2.904
			l-4.231,3.826l2.703,4.817h-2.567c-1.645-3.222-2.083-4.196-2.249-4.598h-0.035L502.66,477.009z"/>
		<path fill="#231815" d="M513.243,469.708c0.672-1.074,1.68-1.543,2.635-1.543c1.898,0,2.855,1.141,2.855,2.752
			c0,0.521-0.084,1.108-0.253,1.897l-0.906,4.196h-2.183l0.908-4.212c0.166-0.789,0.25-1.242,0.25-1.645
			c0-0.772-0.419-1.275-1.259-1.275c-0.906,0-1.509,0.537-1.947,1.342c-0.302,0.555-0.552,1.377-0.821,2.685l-0.655,3.105h-2.181
			l1.427-6.796c0.117-0.571,0.234-1.209,0.318-1.846h2.012c-0.033,0.386-0.15,0.939-0.234,1.342H513.243z"/>
		<path fill="#231815" d="M522.351,473.317c-0.016,0.135-0.016,0.219-0.016,0.269c0,1.241,0.805,1.947,2.284,1.947
			c0.906,0,1.795-0.168,2.717-0.655l-0.302,1.812c-0.805,0.37-1.863,0.521-2.752,0.521c-2.719,0-4.111-1.46-4.111-3.591
			c0-2.938,1.83-5.454,4.951-5.454c2.164,0,3.372,1.108,3.372,3.238c0,0.571-0.065,1.192-0.218,1.913H522.351z M526.481,471.806
			c0.016-0.117,0.033-0.284,0.033-0.453c0-1.09-0.555-1.627-1.561-1.627c-1.142,0-2.047,0.755-2.382,2.08H526.481z"/>
		<path fill="#231815" d="M535.754,470.33c-0.653-0.369-1.341-0.537-1.996-0.537c-0.889,0-1.376,0.302-1.376,0.856
			c0,0.469,0.234,0.704,1.224,1.326c1.009,0.638,1.696,1.259,1.696,2.416c0,1.914-1.493,2.82-3.592,2.82
			c-1.074,0-2.132-0.218-2.953-0.587l0.519-1.778c0.739,0.419,1.678,0.67,2.45,0.67c0.889,0,1.327-0.318,1.327-0.923
			c0-0.385-0.201-0.755-1.21-1.376c-1.376-0.855-1.762-1.477-1.762-2.416c0-1.661,1.477-2.635,3.643-2.635
			c0.838,0,1.746,0.167,2.499,0.487L535.754,470.33z"/>
		<path fill="#231815" d="M543.134,470.33c-0.653-0.369-1.341-0.537-1.996-0.537c-0.889,0-1.376,0.302-1.376,0.856
			c0,0.469,0.234,0.704,1.224,1.326c1.009,0.638,1.696,1.259,1.696,2.416c0,1.914-1.493,2.82-3.592,2.82
			c-1.074,0-2.132-0.218-2.953-0.587l0.519-1.778c0.739,0.419,1.678,0.67,2.45,0.67c0.889,0,1.327-0.318,1.327-0.923
			c0-0.385-0.201-0.755-1.21-1.376c-1.376-0.855-1.762-1.477-1.762-2.416c0-1.661,1.477-2.635,3.643-2.635
			c0.838,0,1.746,0.167,2.499,0.487L543.134,470.33z"/>
	</g>
	<g>
		<path fill="#231815" d="M422.924,410.341c-0.42,0.805-0.672,1.762-0.672,2.584c0,1.107,0.521,2.014,1.477,2.014
			c0.621,0,1.024-0.402,1.712-1.695c0.806-1.493,1.611-2.434,3.357-2.434c2.283,0,3.809,1.712,3.809,4.499
			c0,1.191-0.185,2.366-0.654,3.691l-1.947-0.604c0.487-0.973,0.772-2.031,0.772-2.87c0-1.275-0.521-2.283-1.796-2.283
			c-0.806,0-1.225,0.42-1.88,1.661c-0.923,1.729-1.694,2.367-3.088,2.367c-2.114,0-3.524-1.712-3.524-4.364
			c0-1.09,0.218-2.382,0.553-3.154L422.924,410.341z"/>
		<path fill="#231815" d="M421.934,406.973l-0.806-2.317l2.635,0.555v-2.064l1.611,0.335v2.065l3.793,0.789
			c0.336,0.067,0.587,0.101,0.738,0.101c0.519,0,0.839-0.269,0.839-0.99c0-0.285-0.05-0.605-0.151-0.923l1.762,0.352
			c0.135,0.47,0.167,0.907,0.167,1.259c0,1.627-0.839,2.5-2.281,2.5c-0.487,0-1.041-0.101-1.679-0.235l-3.188-0.704v1.627
			l-1.611-0.336v-1.627L421.934,406.973z"/>
		<path fill="#231815" d="M423.762,399.358c0.436,0.067,1.007,0.167,1.595,0.302v-0.034c-1.124-0.722-1.796-1.611-1.796-2.735
			c0-0.318,0.034-0.553,0.084-0.755l2.114,0.503c-0.101,0.268-0.135,0.487-0.135,0.805c0,1.528,1.141,2.35,3.088,2.753l3.692,0.755
			v2.216l-5.924-1.225c-1.225-0.253-2.031-0.404-2.719-0.504V399.358z"/>
		<path fill="#231815" d="M431.029,391.037c1.191,0.722,1.543,1.712,1.543,2.803c0,1.594-0.956,2.768-2.517,2.768
			c-2.585,0-3.071-2.852-3.071-4.95c0-0.235,0.016-0.756,0.034-1.09c-0.253-0.05-0.42-0.05-0.571-0.05
			c-0.839,0-1.275,0.654-1.275,1.812c0,0.755,0.167,1.744,0.587,2.635l-1.78-0.235c-0.268-0.856-0.419-1.863-0.419-2.703
			c0-2.215,0.889-3.557,2.719-3.557c0.972,0,3.591,0.638,4.614,0.789c0.402,0.067,1.024,0.151,1.51,0.151v1.762
			c-0.487-0.016-0.907-0.084-1.376-0.168V391.037z M428.378,391.507c0,2.148,0.67,2.903,1.577,2.903
			c0.688,0,1.056-0.519,1.056-1.141c0-1.343-1.191-2.299-2.601-2.5C428.378,391.054,428.378,391.288,428.378,391.507z"/>
		<path fill="#231815" d="M419.969,382.601l2.132,0.47v2.249l-2.132-0.487V382.601z M423.762,383.356l8.643,1.846v2.216l-8.643-1.83
			V383.356z"/>
		<path fill="#231815" d="M433.646,382.604c0.454-0.956,0.689-1.98,0.689-2.802c0-1.762-0.907-2.735-3.424-3.189v0.034
			c0.84,0.537,1.427,1.326,1.427,2.601c0,2.065-1.444,3.172-3.457,3.172c-3.071,0-5.32-1.929-5.32-4.447
			c0-1.207,0.469-2.014,1.477-2.484v-0.033l-1.275-0.252v-2.132l8.14,1.712c2.802,0.587,4.228,2.148,4.228,5.085
			c0,1.04-0.234,2.215-0.654,3.323L433.646,382.604z M428.646,380.17c1.209,0,2.031-0.503,2.031-1.627
			c0-1.527-1.729-2.551-3.425-2.551c-1.225,0-2.046,0.604-2.046,1.627C425.206,378.979,426.8,380.17,428.646,380.17z"/>
		<path fill="#231815" d="M422.739,368.261c0.587,0.133,1.796,0.436,2.198,0.553v-0.034c-0.957-0.638-1.376-1.611-1.376-2.466
			c0-1.897,1.141-2.854,2.752-2.854c0.521,0,1.108,0.084,1.897,0.252l4.196,0.907v2.182l-4.212-0.907
			c-0.789-0.167-1.243-0.252-1.645-0.252c-0.772,0-1.275,0.42-1.275,1.259c0,0.906,0.537,1.51,1.342,1.947
			c0.555,0.302,1.377,0.553,2.685,0.822l3.105,0.654v2.182l-12.687-2.685v-2.216L422.739,368.261z"/>
		<path fill="#231815" d="M421.934,359.522l-0.806-2.315l2.635,0.553v-2.064l1.611,0.335v2.065l3.793,0.789
			c0.336,0.067,0.587,0.101,0.738,0.101c0.519,0,0.839-0.269,0.839-0.99c0-0.285-0.05-0.605-0.151-0.923l1.762,0.352
			c0.135,0.47,0.167,0.907,0.167,1.259c0,1.627-0.839,2.5-2.281,2.5c-0.487,0-1.041-0.101-1.679-0.235l-3.188-0.704v1.627
			l-1.611-0.336v-1.627L421.934,359.522z"/>
		<path fill="#231815" d="M428.713,353.182c0.135,0.016,0.219,0.016,0.269,0.016c1.241,0,1.947-0.805,1.947-2.283
			c0-0.906-0.168-1.795-0.655-2.718l1.812,0.302c0.37,0.805,0.521,1.863,0.521,2.752c0,2.719-1.46,4.111-3.591,4.111
			c-2.938,0-5.454-1.829-5.454-4.95c0-2.164,1.108-3.373,3.238-3.373c0.571,0,1.192,0.067,1.913,0.218V353.182z M427.202,349.053
			c-0.117-0.016-0.284-0.034-0.453-0.034c-1.09,0-1.627,0.555-1.627,1.561c0,1.142,0.755,2.047,2.08,2.383V349.053z"/>
		<path fill="#231815" d="M423.762,342.514c0.436,0.067,1.007,0.167,1.595,0.302v-0.034c-1.124-0.722-1.796-1.611-1.796-2.735
			c0-0.318,0.034-0.553,0.084-0.755l2.114,0.503c-0.101,0.268-0.135,0.487-0.135,0.805c0,1.528,1.141,2.35,3.088,2.753l3.692,0.755
			v2.216l-5.924-1.225c-1.225-0.253-2.031-0.404-2.719-0.504V342.514z"/>
	</g>
	<g>
		<path fill="#231815" d="M497.09,445.362c0,6.354-2.328,10.151-6.498,10.151c-4.199,0-6.527-3.825-6.527-10.324
			c0-6.671,2.271-10.323,6.729-10.323C494.876,434.867,497.09,438.719,497.09,445.362z M485.559,445.161
			c0,6.068,1.782,9.115,4.975,9.115c3.192,0,5.089-3.106,5.089-9.058c0-6.01-1.87-9.087-5.089-9.087
			C487.371,436.131,485.559,439.208,485.559,445.161z"/>
	</g>
	<g>
		<path fill="#231815" d="M462.293,408.885c0,6.355-2.328,10.151-6.498,10.151c-4.199,0-6.527-3.823-6.527-10.324
			c0-6.671,2.271-10.322,6.729-10.322C460.08,398.39,462.293,402.242,462.293,408.885z M450.763,408.684
			c0,6.068,1.782,9.116,4.975,9.116c3.192,0,5.089-3.107,5.089-9.058c0-6.011-1.87-9.088-5.089-9.088
			C452.574,399.654,450.763,402.731,450.763,408.684z"/>
	</g>
	<g>
		<path fill="#231815" d="M408.21,80.897h-1.381V67.669c0-1.667,0.057-4.399,0.115-5.406h-0.057c-0.69,0.662-1.84,1.639-2.531,2.186
			l-1.265,1.035l-0.748-0.92l4.63-3.739h1.237V80.897z"/>
		<path fill="#231815" d="M429.515,71.034c0,6.354-2.328,10.151-6.498,10.151c-4.199,0-6.527-3.825-6.527-10.324
			c0-6.671,2.271-10.323,6.729-10.323C427.302,60.538,429.515,64.391,429.515,71.034z M417.985,70.833
			c0,6.067,1.782,9.115,4.975,9.115c3.192,0,5.089-3.106,5.089-9.058c0-6.01-1.87-9.087-5.089-9.087
			C419.796,61.803,417.985,64.88,417.985,70.833z"/>
		<path fill="#231815" d="M445.904,71.034c0,6.354-2.328,10.151-6.498,10.151c-4.199,0-6.527-3.825-6.527-10.324
			c0-6.671,2.271-10.323,6.729-10.323C443.691,60.538,445.904,64.391,445.904,71.034z M434.374,70.833
			c0,6.067,1.782,9.115,4.975,9.115c3.192,0,5.089-3.106,5.089-9.058c0-6.01-1.87-9.087-5.089-9.087
			C436.185,61.803,434.374,64.88,434.374,70.833z"/>
		<path fill="#231815" d="M462.293,71.034c0,6.354-2.328,10.151-6.498,10.151c-4.199,0-6.527-3.825-6.527-10.324
			c0-6.671,2.271-10.323,6.729-10.323C460.08,60.538,462.293,64.391,462.293,71.034z M450.763,70.833
			c0,6.067,1.782,9.115,4.975,9.115c3.192,0,5.089-3.106,5.089-9.058c0-6.01-1.87-9.087-5.089-9.087
			C452.574,61.803,450.763,64.88,450.763,70.833z"/>
	</g>
	<g>
		<path fill="#231815" d="M803.419,455.225h-1.381v-13.228c0-1.667,0.057-4.399,0.115-5.406h-0.057
			c-0.69,0.662-1.84,1.639-2.531,2.186l-1.265,1.035l-0.748-0.92l4.63-3.739h1.237V455.225z"/>
		<path fill="#231815" d="M824.724,445.362c0,6.354-2.328,10.151-6.498,10.151c-4.199,0-6.527-3.825-6.527-10.324
			c0-6.671,2.271-10.323,6.729-10.323C822.51,434.867,824.724,438.719,824.724,445.362z M813.194,445.161
			c0,6.068,1.782,9.115,4.975,9.115c3.192,0,5.089-3.106,5.089-9.058c0-6.01-1.87-9.087-5.089-9.087
			C815.005,436.131,813.194,439.208,813.194,445.161z"/>
		<path fill="#231815" d="M841.113,445.362c0,6.354-2.328,10.151-6.498,10.151c-4.199,0-6.527-3.825-6.527-10.324
			c0-6.671,2.271-10.323,6.729-10.323C838.899,434.867,841.113,438.719,841.113,445.362z M829.583,445.161
			c0,6.068,1.782,9.115,4.975,9.115c3.192,0,5.089-3.106,5.089-9.058c0-6.01-1.87-9.087-5.089-9.087
			C831.394,436.131,829.583,439.208,829.583,445.161z"/>
		<path fill="#231815" d="M857.502,445.362c0,6.354-2.328,10.151-6.498,10.151c-4.199,0-6.527-3.825-6.527-10.324
			c0-6.671,2.271-10.323,6.729-10.323C855.289,434.867,857.502,438.719,857.502,445.362z M845.972,445.161
			c0,6.068,1.782,9.115,4.975,9.115c3.192,0,5.089-3.106,5.089-9.058c0-6.01-1.87-9.087-5.089-9.087
			C847.783,436.131,845.972,439.208,845.972,445.161z"/>
	</g>
</g>
<g>
	
		<line fill="none" stroke="#888888" stroke-width="0.78" stroke-miterlimit="10" x1="319.254" y1="252.375" x2="179.599" y2="171.745"/>
	<polygon fill="none" stroke="#C8C9CA" stroke-width="0.78" stroke-miterlimit="10" points="219.845,252.376 80.19,171.745 
		179.597,114.352 319.253,194.983 	"/>
	<polygon fill="none" stroke="#C8C9CA" stroke-width="0.78" stroke-miterlimit="10" points="319.254,309.768 219.845,367.161 
		219.845,252.376 319.254,194.982 	"/>
	
		<line fill="none" stroke="#888888" stroke-width="0.78" stroke-miterlimit="10" x1="219.845" y1="309.769" x2="319.254" y2="252.375"/>
	<polygon fill="none" stroke="#C8C9CA" stroke-width="0.78" stroke-miterlimit="10" points="179.599,229.138 80.19,286.531 
		80.19,171.745 179.599,114.352 	"/>
	
		<line fill="none" stroke="#888888" stroke-width="0.78" stroke-miterlimit="10" x1="80.19" y1="229.138" x2="179.599" y2="171.745"/>
	<g>
		<g>
			<rect x="169.569" y="216.766" fill="#FAFAFA" width="20.236" height="19.057"/>
		</g>
		<g opacity="0.5">
			<path fill="#DFA839" d="M188.7,234.718h-5.924v-1.685h0.28c0.393,0,1.207,0,1.6,0l-2.246-6.036l-2.668-7.216l-5.194,13.252
				c0.393,0,0.842,0,1.236,0h0.73v1.685h-5.84v-1.685h0.309c0.477,0,1.236,0,1.712,0l6.29-15.161c0.73,0,1.151,0,1.881,0
				l5.784,15.106c0.478,0,1.292,0,1.769,0h0.28V234.718z M176.038,226.351h6.485l0.533,1.684h-7.075L176.038,226.351z"/>
		</g>
	</g>
	<g>
		<g>
			<rect x="240.473" y="255.854" fill="#FAFAFA" width="19.31" height="19.608"/>
		</g>
		<g opacity="0.5">
			<path fill="#DFA839" d="M258.678,274.357h-5.925v-0.842h0.842c0.393,0,0.814,0,1.207,0l-2.976-7.552l-2.162-5.615l-5.222,13.168
				c0.393,0,0.814,0,1.207,0h0.73v0.842h-4.801v-0.842h0.309c0.477,0,0.954,0,1.432,0l6.795-16.397c0.084-0.225,0.197-0.197,0.28,0
				l6.598,16.397c0.478,0,0.927,0,1.404,0h0.281V274.357z M246.745,265.99h5.615v1.011h-5.727L246.745,265.99z"/>
		</g>
	</g>
	<polyline fill="none" stroke="#C8C9CA" stroke-width="0.78" stroke-miterlimit="10" points="319.254,309.768 269.549,281.072 
		219.845,252.376 	"/>
	<g>
		<g>
			<rect x="169.625" y="160.037" fill="#FAFAFA" width="20.124" height="19.057"/>
		</g>
		<g>
			<path fill="#231815" d="M188.643,177.989h-5.924v-1.404l0.421-0.112c0.421-0.113,1.039-0.225,1.46-0.309l-2.19-5.896
				l-2.668-7.216l-5.138,13.111c0.449,0.085,0.898,0.197,1.319,0.281l0.646,0.14v1.404h-5.84v-1.404l0.478-0.14
				c0.477-0.085,1.095-0.197,1.544-0.281l6.233-15.021c0.73,0,1.151,0,1.881,0l5.728,14.965c0.505,0.085,1.179,0.197,1.656,0.309
				l0.393,0.112V177.989z M176.038,169.622h6.485l0.533,1.6h-7.075L176.038,169.622z"/>
		</g>
		<g>
			<path fill="#231815" d="M188.643,177.989h-5.924v-1.404l0.421-0.112c0.421-0.113,1.039-0.225,1.46-0.309l-2.19-5.896
				l-2.668-7.216l-5.138,13.111c0.449,0.085,0.898,0.197,1.319,0.281l0.646,0.14v1.404h-5.84v-1.404l0.478-0.14
				c0.477-0.085,1.095-0.197,1.544-0.281l6.233-15.021c0.73,0,1.151,0,1.881,0l5.728,14.965c0.505,0.085,1.179,0.197,1.656,0.309
				l0.393,0.112V177.989z M176.038,169.622h6.485l0.533,1.6h-7.075L176.038,169.622z"/>
		</g>
	</g>
	
		<line fill="none" stroke="#888888" stroke-width="0.78" stroke-miterlimit="10" x1="150.017" y1="269.453" x2="249.425" y2="212.061"/>
	<g>
		<g>
			<rect x="240.418" y="201.69" fill="#FAFAFA" width="19.421" height="19.608"/>
		</g>
		<g>
			<path fill="#231815" d="M258.733,220.193h-5.98v-0.702l0.702-0.197c0.393-0.112,0.786-0.252,1.179-0.365l-2.808-7.131
				l-2.162-5.615l-5.054,12.718c0.393,0.141,0.786,0.281,1.179,0.421l0.618,0.169v0.702h-4.885v-0.702l0.505-0.197
				c0.506-0.14,1.011-0.309,1.517-0.449l6.57-15.892c0.084-0.225,0.197-0.197,0.28,0l6.401,15.864
				c0.561,0.197,1.095,0.393,1.657,0.59l0.28,0.085V220.193z M246.745,211.826h5.615v1.011h-5.727L246.745,211.826z"/>
		</g>
		<g>
			<path fill="#231815" d="M258.733,220.193h-5.98v-0.702l0.702-0.197c0.393-0.112,0.786-0.252,1.179-0.365l-2.808-7.131
				l-2.162-5.615l-5.054,12.718c0.393,0.141,0.786,0.281,1.179,0.421l0.618,0.169v0.702h-4.885v-0.702l0.505-0.197
				c0.506-0.14,1.011-0.309,1.517-0.449l6.57-15.892c0.084-0.225,0.197-0.197,0.28,0l6.401,15.864
				c0.561,0.197,1.095,0.393,1.657,0.59l0.28,0.085V220.193z M246.745,211.826h5.615v1.011h-5.727L246.745,211.826z"/>
		</g>
	</g>
	<g>
		<g>
			<rect x="190.742" y="229.863" fill="#FAFAFA" width="19.366" height="19.609"/>
		</g>
		<g>
			<path fill="#231815" d="M209.002,248.366h-5.953v-0.786l0.759-0.085c0.477-0.056,0.87-0.225,1.095-0.477l-2.78-7.048
				l-2.162-5.615l-5.026,12.663c0.225,0.252,0.618,0.421,1.067,0.477l0.702,0.113v0.758h-4.857v-0.758l0.393-0.113
				c0.617-0.084,1.151-0.252,1.628-0.561l6.542-15.808c0.084-0.225,0.197-0.197,0.28,0l6.373,15.808
				c0.478,0.309,1.011,0.506,1.657,0.618l0.281,0.028V248.366z M197.042,239.999h5.615v1.011h-5.727L197.042,239.999z"/>
		</g>
		<g>
			<path fill="#E51373" d="M209.002,248.366h-5.953v-0.786l0.759-0.085c0.477-0.056,0.87-0.225,1.095-0.477l-2.78-7.048
				l-2.162-5.615l-5.026,12.663c0.225,0.252,0.618,0.421,1.067,0.477l0.702,0.113v0.758h-4.857v-0.758l0.393-0.113
				c0.617-0.084,1.151-0.252,1.628-0.561l6.542-15.808c0.084-0.225,0.197-0.197,0.28,0l6.373,15.808
				c0.478,0.309,1.011,0.506,1.657,0.618l0.281,0.028V248.366z M197.042,239.999h5.615v1.011h-5.727L197.042,239.999z"/>
		</g>
	</g>
	<g>
		<g>
			<rect x="120.014" y="188.672" fill="#FAFAFA" width="20.18" height="19.057"/>
		</g>
		<g>
			<path fill="#231815" d="M139.088,206.624h-5.924v-1.488l0.449-0.056c0.477-0.028,1.066-0.197,1.319-0.421l-2.134-5.756
				l-2.668-7.216l-5.082,12.971c0.253,0.225,0.674,0.365,1.152,0.421l0.702,0.056v1.488h-5.784v-1.488l0.533-0.056
				c0.562-0.056,1.18-0.168,1.629-0.421l6.177-14.881c0.702,0,1.095,0,1.797,0l5.672,14.825c0.449,0.253,1.123,0.393,1.685,0.421
				l0.477,0.056V206.624z M126.426,198.257h6.485l0.533,1.572h-7.075L126.426,198.257z"/>
		</g>
		<g>
			<path fill="#231815" d="M139.088,206.624h-5.924v-1.488l0.449-0.056c0.477-0.028,1.066-0.197,1.319-0.421l-2.134-5.756
				l-2.668-7.216l-5.082,12.971c0.253,0.225,0.674,0.365,1.152,0.421l0.702,0.056v1.488h-5.784v-1.488l0.533-0.056
				c0.562-0.056,1.18-0.168,1.629-0.421l6.177-14.881c0.702,0,1.095,0,1.797,0l5.672,14.825c0.449,0.253,1.123,0.393,1.685,0.421
				l0.477,0.056V206.624z M126.426,198.257h6.485l0.533,1.572h-7.075L126.426,198.257z"/>
		</g>
	</g>
	<polygon fill="none" stroke="#C8C9CA" stroke-width="0.78" stroke-miterlimit="10" points="219.845,367.161 80.19,286.531 
		80.19,171.745 219.845,252.376 	"/>
	
		<line fill="none" stroke="#888888" stroke-width="0.78" stroke-miterlimit="10" x1="80.19" y1="229.138" x2="219.845" y2="309.769"/>
	<g>
		<g>
			<rect x="239.919" y="143.497" fill="#FAFAFA" width="19.534" height="19.608"/>
		</g>
		<g opacity="0.5">
			<path fill="#DFA839" d="M258.348,162h-6.064v-0.561l0.561-0.365c0.393-0.253,0.786-0.506,1.179-0.759l-2.639-6.71l-2.162-5.615
				l-4.886,12.298c0.366,0.28,0.759,0.533,1.124,0.814l0.533,0.365V162h-4.969v-0.533l0.674-0.393
				c0.533-0.309,1.066-0.618,1.6-0.927l6.373-15.386c0.084-0.225,0.197-0.197,0.28,0l6.177,15.358
				c0.646,0.393,1.292,0.759,1.938,1.152l0.28,0.168V162z M246.303,153.633h5.615v1.011h-5.727L246.303,153.633z"/>
		</g>
	</g>
	<g>
		<g>
			<rect x="309.579" y="183.812" fill="#FAFAFA" width="19.731" height="19.608"/>
		</g>
		<g opacity="0.5">
			<path fill="#DFA839" d="M328.204,202.315h-5.644v-0.14l0.421-0.225c0.393-0.197,0.758-0.421,1.151-0.618l-2.92-7.412
				l-2.527-6.542l-5.756,13.954c0.477,0.225,0.926,0.421,1.404,0.646l0.477,0.197v0.14h-4.127v-0.14l0.618-0.253
				c0.477-0.197,0.983-0.393,1.459-0.59l6.739-16.257c0.084-0.225,0.197-0.197,0.28,0l6.542,16.257
				c0.449,0.197,0.927,0.421,1.376,0.618l0.505,0.225V202.315z M315.71,194.37h6.036v0.14h-6.092L315.71,194.37z"/>
		</g>
	</g>
	<g>
		<g>
			<rect x="309.579" y="239.332" fill="#FAFAFA" width="19.815" height="19.608"/>
		</g>
		<g>
			<path fill="#231815" d="M328.288,257.835h-5.644v-0.14l0.337-0.113c0.393-0.112,0.927-0.225,1.32-0.309l-3.089-7.833
				l-2.527-6.542l-5.925,14.375c0.421,0.112,0.871,0.197,1.32,0.309l0.59,0.113v0.14h-3.987v-0.14l0.449-0.141
				c0.505-0.084,0.983-0.197,1.459-0.28l6.907-16.678c0.084-0.225,0.197-0.197,0.28,0l6.711,16.678
				c0.477,0.084,0.926,0.197,1.404,0.309l0.393,0.113V257.835z M315.71,249.889h6.036v0.14h-6.092L315.71,249.889z"/>
		</g>
		<g>
			<path fill="#231815" d="M328.288,257.835h-5.644v-0.14l0.337-0.113c0.393-0.112,0.927-0.225,1.32-0.309l-3.089-7.833
				l-2.527-6.542l-5.925,14.375c0.421,0.112,0.871,0.197,1.32,0.309l0.59,0.113v0.14h-3.987v-0.14l0.449-0.141
				c0.505-0.084,0.983-0.197,1.459-0.28l6.907-16.678c0.084-0.225,0.197-0.197,0.28,0l6.711,16.678
				c0.477,0.084,0.926,0.197,1.404,0.309l0.393,0.113V257.835z M315.71,249.889h6.036v0.14h-6.092L315.71,249.889z"/>
		</g>
	</g>
	<g>
		<g>
			<rect x="140.403" y="200.923" fill="#FAFAFA" width="19.31" height="19.608"/>
		</g>
		<g opacity="0.5">
			<path fill="#DFA839" d="M158.607,219.425h-5.925v-0.842h0.842c0.73,0,1.011-0.449,0.758-1.123l-2.527-6.43l-2.162-5.615
				l-4.773,12.017c-0.281,0.702,0.028,1.151,0.758,1.151h0.758v0.842h-4.829v-0.842h0.309c0.954,0,1.6-0.393,1.965-1.291
				l6.261-15.106c0.084-0.225,0.197-0.197,0.28,0l6.065,15.077c0.365,0.898,0.983,1.319,1.937,1.319h0.281V219.425z
				 M146.675,211.059h5.615v1.011h-5.727L146.675,211.059z"/>
		</g>
	</g>
	<g>
		<g>
			<rect x="210.551" y="239.332" fill="#FAFAFA" width="19.871" height="19.608"/>
		</g>
		<g opacity="0.5">
			<path fill="#DFA839" d="M229.316,257.835h-6.205v-0.14h0.421c1.152,0,1.629-0.702,1.207-1.797l-2.555-6.458l-2.527-6.542
				l-5.391,12.999c-0.449,1.095,0.056,1.797,1.207,1.797h0.308v0.14h-4.127v-0.14h0.056c1.151,0,1.881-0.506,2.33-1.572l6.43-15.527
				c0.084-0.225,0.197-0.197,0.28,0l6.233,15.527c0.421,1.066,1.151,1.572,2.302,1.572h0.028V257.835z M216.682,249.889h6.036v0.14
				h-6.092L216.682,249.889z"/>
		</g>
	</g>
	<g>
		<g>
			<rect x="210.551" y="296.725" fill="#FAFAFA" width="19.871" height="19.608"/>
		</g>
		<g>
			<path fill="#231815" d="M229.316,315.228h-5.924v-0.14h0.365c0.758,0,1.347-0.365,1.347-0.899l-2.92-7.356l-2.527-6.542
				l-5.756,13.898c-0.028,0.534,0.449,0.899,1.235,0.899h0.506v0.14h-3.987v-0.14h0.168c0.842,0,1.432-0.253,1.909-0.786
				l6.739-16.313c0.084-0.225,0.197-0.197,0.28,0l6.57,16.313c0.449,0.533,1.039,0.786,1.853,0.786h0.14V315.228z M216.682,307.282
				h6.036v0.14h-6.092L216.682,307.282z"/>
		</g>
		<g>
			<path fill="#231815" d="M229.316,315.228h-5.924v-0.14h0.365c0.758,0,1.347-0.365,1.347-0.899l-2.92-7.356l-2.527-6.542
				l-5.756,13.898c-0.028,0.534,0.449,0.899,1.235,0.899h0.506v0.14h-3.987v-0.14h0.168c0.842,0,1.432-0.253,1.909-0.786
				l6.739-16.313c0.084-0.225,0.197-0.197,0.28,0l6.57,16.313c0.449,0.533,1.039,0.786,1.853,0.786h0.14V315.228z M216.682,307.282
				h6.036v0.14h-6.092L216.682,307.282z"/>
		</g>
	</g>
	<g>
		<g>
			<rect x="260.255" y="268.028" fill="#FAFAFA" width="19.843" height="19.608"/>
		</g>
		<g>
			<path fill="#231815" d="M278.992,286.531h-5.784v-0.14l0.337-0.056c0.59-0.056,1.151-0.281,1.348-0.618l-3.004-7.581
				l-2.527-6.542l-5.84,14.122c0.197,0.337,0.674,0.561,1.264,0.618l0.561,0.056v0.14h-3.987v-0.14l0.309-0.056
				c0.674-0.056,1.207-0.225,1.685-0.561l6.823-16.481c0.084-0.225,0.197-0.197,0.28,0l6.626,16.481
				c0.478,0.337,0.983,0.505,1.629,0.561l0.28,0.056V286.531z M266.387,278.585h6.036v0.14h-6.092L266.387,278.585z"/>
		</g>
		<g>
			<path fill="#231815" d="M278.992,286.531h-5.784v-0.14l0.337-0.056c0.59-0.056,1.151-0.281,1.348-0.618l-3.004-7.581
				l-2.527-6.542l-5.84,14.122c0.197,0.337,0.674,0.561,1.264,0.618l0.561,0.056v0.14h-3.987v-0.14l0.309-0.056
				c0.674-0.056,1.207-0.225,1.685-0.561l6.823-16.481c0.084-0.225,0.197-0.197,0.28,0l6.626,16.481
				c0.478,0.337,0.983,0.505,1.629,0.561l0.28,0.056V286.531z M266.387,278.585h6.036v0.14h-6.092L266.387,278.585z"/>
		</g>
	</g>
	<g>
		<g>
			<rect x="140.402" y="312.363" fill="#FAFAFA" width="19.31" height="19.608"/>
		</g>
		<g opacity="0.5">
			<path fill="#DFA839" d="M158.607,330.865h-5.925v-0.842h0.842c0.393,0,0.814,0,1.207,0l-2.976-7.552l-2.162-5.615l-5.222,13.167
				c0.393,0,0.814,0,1.207,0h0.73v0.842h-4.801v-0.842h0.309c0.477,0,0.954,0,1.432,0l6.795-16.397c0.084-0.224,0.197-0.197,0.28,0
				l6.598,16.397c0.478,0,0.927,0,1.404,0h0.281V330.865z M146.675,322.499h5.615v1.012h-5.727L146.675,322.499z"/>
		</g>
	</g>
	<g>
		<g>
			<rect x="141.729" y="256.518" fill="#FAFAFA" width="19.31" height="19.608"/>
		</g>
		<g>
			<path fill="#231815" d="M159.934,275.021h-5.925v-0.842h0.842c0.561,0,0.927-0.225,0.983-0.561l-2.751-6.991l-2.162-5.615
				l-4.998,12.578c0.056,0.365,0.421,0.59,0.983,0.59h0.758v0.842h-4.829v-0.842h0.309c0.73,0,1.291-0.197,1.712-0.646l6.514-15.751
				c0.084-0.225,0.197-0.197,0.28,0l6.345,15.723c0.421,0.449,0.955,0.673,1.657,0.673h0.281V275.021z M148.002,266.654h5.615v1.011
				h-5.727L148.002,266.654z"/>
		</g>
		<g>
			<path fill="#231815" d="M159.934,275.021h-5.925v-0.842h0.842c0.561,0,0.927-0.225,0.983-0.561l-2.751-6.991l-2.162-5.615
				l-4.998,12.578c0.056,0.365,0.421,0.59,0.983,0.59h0.758v0.842h-4.829v-0.842h0.309c0.73,0,1.291-0.197,1.712-0.646l6.514-15.751
				c0.084-0.225,0.197-0.197,0.28,0l6.345,15.723c0.421,0.449,0.955,0.673,1.657,0.673h0.281V275.021z M148.002,266.654h5.615v1.011
				h-5.727L148.002,266.654z"/>
		</g>
	</g>
	<g>
		<g>
			<rect x="310.019" y="294.806" fill="#FAFAFA" width="19.871" height="19.608"/>
		</g>
		<g opacity="0.5">
			<path fill="#DFA839" d="M328.785,313.309h-5.643v-0.14h0.28c0.393,0,1.095,0,1.488,0l-3.257-8.255l-2.527-6.542l-6.121,14.796
				c0.393,0,0.842,0,1.236,0h0.73v0.14h-3.847v-0.14h0.309c0.478,0,0.954,0,1.432,0l7.076-17.099c0.084-0.225,0.197-0.197,0.28,0
				l6.879,17.099c0.477,0,0.926,0,1.404,0h0.28V313.309z M316.151,305.364h6.036v0.14h-6.092L316.151,305.364z"/>
		</g>
	</g>
	<g>
		<g>
			<rect x="210.551" y="352.996" fill="#FAFAFA" width="19.871" height="19.608"/>
		</g>
		<g opacity="0.5">
			<path fill="#DFA839" d="M229.316,371.498h-5.643v-0.14h0.28c0.393,0,1.095,0,1.488,0l-3.257-8.255l-2.527-6.542l-6.121,14.796
				c0.393,0,0.842,0,1.236,0h0.73v0.14h-3.847v-0.14h0.308c0.478,0,0.954,0,1.432,0l7.076-17.099c0.084-0.225,0.197-0.197,0.28,0
				l6.879,17.099c0.477,0,0.926,0,1.404,0h0.28V371.498z M216.682,363.553h6.036v0.14h-6.092L216.682,363.553z"/>
		</g>
	</g>
	<g>
		<g>
			<rect x="70.307" y="273.963" fill="#FAFAFA" width="20.236" height="19.057"/>
		</g>
		<g opacity="0.5">
			<path fill="#DFA839" d="M89.438,291.915h-5.924v-1.685h0.28c0.393,0,1.207,0,1.6,0l-2.246-6.036l-2.668-7.216l-5.194,13.252
				c0.393,0,0.842,0,1.236,0h0.73v1.685h-5.84v-1.685h0.309c0.477,0,1.236,0,1.712,0l6.29-15.161c0.73,0,1.151,0,1.881,0
				l5.784,15.106c0.478,0,1.292,0,1.769,0h0.28V291.915z M76.776,283.548h6.485l0.533,1.684h-7.075L76.776,283.548z"/>
		</g>
	</g>
	<g>
		<g>
			<rect x="70.476" y="160.037" fill="#FAFAFA" width="20.152" height="19.057"/>
		</g>
		<g opacity="0.5">
			<path fill="#DFA839" d="M89.522,177.989h-5.925v-1.404h0.674c0.73,0,1.039-0.421,0.786-1.123l-1.909-5.194l-2.668-7.216
				l-4.857,12.41c-0.252,0.673,0.028,1.123,0.759,1.123h0.758v1.404h-5.559v-1.404h0.842c0.786,0,1.32-0.337,1.629-1.095
				l5.952-14.348c0.618,0,0.983,0,1.6,0l5.447,14.291c0.281,0.758,0.814,1.095,1.6,1.095h0.871V177.989z M76.776,169.622h6.485
				l0.533,1.404h-7.075L76.776,169.622z"/>
		</g>
	</g>
	<g>
		<g>
			<rect x="169.903" y="104.902" fill="#FAFAFA" width="20.012" height="19.057"/>
		</g>
		<g opacity="0.5">
			<path fill="#DFA839" d="M188.809,122.854h-5.925v-1.123l0.534-0.225c0.449-0.197,0.898-0.421,1.347-0.618l-2.134-5.756
				l-2.668-7.216l-5.082,12.971c0.478,0.197,0.927,0.393,1.404,0.59l0.562,0.253v1.123h-5.84v-1.123l0.646-0.253
				c0.449-0.197,0.926-0.393,1.376-0.59l6.177-14.881c0.73,0,1.151,0,1.881,0l5.672,14.825c0.505,0.197,1.039,0.421,1.544,0.618
				l0.506,0.225V122.854z M176.259,114.487h6.485l0.533,1.544h-7.075L176.259,114.487z"/>
		</g>
	</g>
	<g>
		<g>
			<rect x="70.391" y="216.766" fill="#FAFAFA" width="20.208" height="19.057"/>
		</g>
		<g>
			<path fill="#231815" d="M89.494,234.717H83.57v-1.544h0.477c0.561,0,1.123-0.225,1.179-0.561l-2.077-5.615l-2.668-7.216
				l-5.026,12.831c0.085,0.337,0.449,0.561,1.011,0.561h0.73v1.544h-5.699v-1.544h0.59c0.618,0,1.264-0.168,1.657-0.561l6.12-14.741
				c0.674,0,1.067,0,1.741,0l5.615,14.684c0.393,0.393,1.067,0.561,1.685,0.561h0.59V234.717z M76.776,226.351h6.485l0.533,1.544
				h-7.075L76.776,226.351z"/>
		</g>
		<g>
			<path fill="#231815" d="M89.494,234.717H83.57v-1.544h0.477c0.561,0,1.123-0.225,1.179-0.561l-2.077-5.615l-2.668-7.216
				l-5.026,12.831c0.085,0.337,0.449,0.561,1.011,0.561h0.73v1.544h-5.699v-1.544h0.59c0.618,0,1.264-0.168,1.657-0.561l6.12-14.741
				c0.674,0,1.067,0,1.741,0l5.615,14.684c0.393,0.393,1.067,0.561,1.685,0.561h0.59V234.717z M76.776,226.351h6.485l0.533,1.544
				h-7.075L76.776,226.351z"/>
		</g>
	</g>
	<polygon opacity="0.2" fill="#E7AC35" points="219.845,309.769 319.254,252.375 179.599,171.745 80.19,229.138 	"/>
</g>
</svg>
