<?xml version="1.0" encoding="utf-8"?>
<!-- Generator: Adobe Illustrator 21.1.0, SVG Export Plug-In . SVG Version: 6.00 Build 0)  -->
<svg version="1.1" id="レイヤー_1" xmlns="http://www.w3.org/2000/svg" xmlns:xlink="http://www.w3.org/1999/xlink" x="0px"
	 y="0px" viewBox="0 0 531.22 559.077" enable-background="new 0 0 531.22 559.077" xml:space="preserve">
<title>アートボード 1 のコピー</title>
<g>
	<g id="レイヤー_1_1_">
		<g>
			<defs>
				<rect id="SVGID_1_" y="182.728" width="531.22" height="186.34"/>
			</defs>
			<clipPath id="SVGID_2_">
				<use xlink:href="#SVGID_1_"  overflow="visible"/>
			</clipPath>
			<g clip-path="url(#SVGID_2_)">
				<g>
					<path fill="none" stroke="#231815" stroke-width="0.79" d="M98.48-858.912h-121v-10.08h383.16v10.08h-121v1189.78h121v10.08
						H-22.51v-10.08h121v-1189.78H98.48z"/>
					<path fill="none" stroke="#00A0E9" d="M98.48-858.912h-121v-10.08h383.16v10.08h-121v1189.78h121v10.08H-22.51v-10.08h121
						v-1189.78H98.48z"/>
				</g>
				<g>
					<path fill="none" stroke="#231815" stroke-width="0.79" d="M108.57-747.992h-121v-121h373.07v121h-121v968h121v121H-12.43v-121
						h121V-747.992z"/>
					<path fill="none" stroke="#E4007F" d="M108.57-747.992h-121v-121h373.07v121h-121v968h121v121H-12.43v-121h121V-747.992z"/>
				</g>
				<rect x="236.2" y="327.438" fill="#FFFFFF" stroke="#00A0E9" width="6.88" height="6.88"/>
				<rect x="357.2" y="327.428" fill="#FFFFFF" stroke="#00A0E9" width="6.88" height="6.88"/>
				<polygon fill="#231815" points="331.1,278.288 331.1,321.758 326.47,321.758 331.73,330.868 336.99,321.758 332.36,321.758 
					332.36,278.288 				"/>
				<line fill="none" x1="331.73" y1="283.428" x2="331.73" y2="219.958"/>
				<polygon fill="#231815" points="332.43,283.428 332.43,229.968 337.51,229.968 331.73,219.958 325.95,229.968 331.03,229.968 
					331.03,283.428 				"/>
				<text transform="matrix(1 0 0 1 387.91 292.6978)" fill="#231815" font-family="'FrutigerNeueLTCYR-Bold'" font-size="24px">Thickness</text>
				<rect x="357.2" y="216.518" fill="#FFFFFF" stroke="#E4007F" width="6.88" height="6.88"/>
				<rect x="236.2" y="216.518" fill="#FFFFFF" stroke="#E4007F" width="6.88" height="6.88"/>
			</g>
		</g>
		<g>
			<path fill="none" stroke="#E4007F" d="M98.72-951.222c0-58.48-32.27-90.75-90.75-90.75h-30.24v-10.08h383.15v10.08h-30.25
				c-58.48,0-90.75,32.27-90.75,90.75V57.048c0,58.48,32.27,90.75,90.75,90.75h30.25v10.08H-22.27v-10.1H8
				c58.48,0,90.75-32.27,90.75-90.75v-1008.25H98.72z"/>
		</g>
		<g>
			<path fill="none" stroke="#00A0E9" d="M98.72-1041.982h-121v-10.08h383.16v10.08h-121v1189.76h121v10.1H-22.27v-10.1h121
				v-1189.76H98.72z"/>
		</g>
		<rect x="236.45" y="144.358" fill="#FFFFFF" stroke="#00A0E9" width="6.88" height="6.88"/>
		<rect x="236.44" y="53.618" fill="#FFFFFF" stroke="#E4007F" width="6.88" height="6.88"/>
		<line fill="none" stroke="#E4007F" x1="239.88" y1="57.048" x2="335.99" y2="57.048"/>
		<polygon fill="#231815" points="321.64,95.218 321.64,138.678 317.01,138.678 322.27,147.798 327.54,138.678 322.91,138.678 
			322.91,95.218 		"/>
		<line fill="none" x1="322.27" y1="109.628" x2="322.27" y2="57.048"/>
		<polygon fill="#231815" points="322.91,109.628 322.91,66.168 327.54,66.168 322.27,57.048 317.01,66.168 321.64,66.168 
			321.64,109.628 		"/>
		<text transform="matrix(1 0 0 1 387.91 109.6278)" fill="#231815" font-family="'FrutigerNeueLTCYR-Bold'" font-size="24px">Height</text>
		<text transform="matrix(1 0 0 1 387.91 437.1578)" fill="#231815" font-family="'FrutigerNeueLTCYR-Bold'" font-size="24px">St</text>
		<text transform="matrix(1 0 0 1 410.37 437.1578)" fill="#231815" font-family="'FrutigerNeueLTCYR-Bold'" font-size="24px">r</text>
		<text transform="matrix(1 0 0 1 419.4 437.1578)" fill="#231815" font-family="'FrutigerNeueLTCYR-Bold'" font-size="24px">aighter</text>
		<g>
			<defs>
				<rect id="SVGID_3_" y="360.528" width="531.22" height="153.25"/>
			</defs>
			<clipPath id="SVGID_4_">
				<use xlink:href="#SVGID_3_"  overflow="visible"/>
			</clipPath>
			<g clip-path="url(#SVGID_4_)">
				<g>
					<path fill="none" stroke="#231815" stroke-width="0.79" d="M98.72-587.432c0-44.36-26.22-70.58-70.58-70.58h-50.41v-60.5
						h383.15v60.5h-50.42c-44.36,0-70.58,26.22-70.58,70.58v947.79c0,44.36,26.22,70.58,70.58,70.58h50.42v60.5H-22.27v-60.5h50.41
						c44.36,0,70.58-26.22,70.58-70.58V-587.432z"/>
					<path fill="none" stroke="#00A0E9" d="M98.72-587.432c0-44.36-26.22-70.58-70.58-70.58h-50.41v-60.5h383.15v60.5h-50.42
						c-44.36,0-70.58,26.22-70.58,70.58v947.79c0,44.36,26.22,70.58,70.58,70.58h50.42v60.5H-22.27v-60.5h50.41
						c44.36,0,70.58-26.22,70.58-70.58V-587.432z"/>
				</g>
				<g>
					<path fill="none" stroke="#231815" stroke-width="0.79" d="M98.72-607.592c-24.2-14.12-46.38-26.22-70.58-40.33l-50.41-30.3
						v-40.33h383.15v40.33l-50.42,30.3c-24.2,14.12-46.38,26.22-70.58,40.33v988.12c24.2,14.12,46.38,26.22,70.58,40.33l50.42,30.25
						v40.33H-22.27v-40.33l50.42-30.25c24.2-14.12,46.38-26.22,70.58-40.33v-988.12H98.72z"/>
					<path fill="none" stroke="#E4007F" d="M98.72-607.592c-24.2-14.12-46.38-26.22-70.58-40.33l-50.41-30.3v-40.33h383.15v40.33
						l-50.42,30.3c-24.2,14.12-46.38,26.22-70.58,40.33v988.12c24.2,14.12,46.38,26.22,70.58,40.33l50.42,30.25v40.33H-22.27v-40.33
						l50.42-30.25c24.2-14.12,46.38-26.22,70.58-40.33v-988.12H98.72z"/>
				</g>
				<path opacity="0.5" fill="none" stroke="#00A0E9" enable-background="new    " d="M304.81,430.838
					c35.86,0,64.93-29.07,64.93-64.93c0-35.86-29.07-64.93-64.93-64.93c-35.86,0-64.93,29.07-64.93,64.93l0,0"/>
			</g>
		</g>
		
			<line opacity="0.5" fill="none" stroke="#E4007F" enable-background="new    " x1="360.88" y1="451.108" x2="443.87" y2="499.518"/>
	</g>
</g>
</svg>
