<?xml version="1.0" encoding="utf-8"?>
<!-- Generator: Adobe Illustrator 22.0.1, SVG Export Plug-In . SVG Version: 6.00 Build 0)  -->
<svg version="1.1" id="レイヤー_1" xmlns="http://www.w3.org/2000/svg" xmlns:xlink="http://www.w3.org/1999/xlink" x="0px"
	 y="0px" viewBox="0 0 943.391 500" enable-background="new 0 0 943.391 500" xml:space="preserve">
<g>
	<g>
		<path fill="#231815" d="M865.043,81.103h-15.166v-3.235l1.509-0.288c0.766-0.095,1.39-0.346,1.868-0.755
			c0.478-0.406,0.791-0.898,0.935-1.473l-5.174-14.016l-6.828-18.472l-12.722,32.487c0.144,0.574,0.455,1.054,0.935,1.438
			c0.478,0.384,1.101,0.647,1.868,0.79l1.726,0.288v3.235H819.33v-3.235l1.941-0.359c0.718-0.096,1.412-0.323,2.083-0.683
			c0.672-0.359,1.246-0.826,1.726-1.401l15.525-37.446c0.766,0,1.497,0,2.192,0c0.694,0,1.448,0,2.264,0l14.231,37.302
			c0.528,0.576,1.125,1.055,1.797,1.438c0.672,0.384,1.413,0.624,2.229,0.719l1.725,0.287V81.103z M832.699,59.684h16.602
			l1.366,3.809h-18.113L832.699,59.684z"/>
	</g>
	<g>
		<path fill="#231815" d="M524.848,81.103h-15.166v-0.359l1.077-0.359c1.007-0.096,1.772-0.419,2.3-0.971
			c0.528-0.55,0.791-1.233,0.791-2.048l-7.044-17.753l-6.468-16.746l-14.304,34.5c0.047,0.862,0.359,1.558,0.935,2.085
			c0.574,0.528,1.389,0.862,2.444,1.006l1.006,0.288v0.359h-10.566v-0.359l0.935-0.359c1.006-0.144,1.904-0.432,2.695-0.863
			c0.791-0.431,1.473-1.053,2.048-1.868l16.89-40.681c0.096-0.288,0.216-0.419,0.36-0.395c0.143,0.025,0.262,0.156,0.359,0.395
			l16.387,40.681c0.576,0.815,1.233,1.449,1.977,1.904c0.742,0.456,1.64,0.755,2.695,0.898l0.647,0.288V81.103z M492.72,60.762
			h15.453v0.36h-15.597L492.72,60.762z"/>
	</g>
	<g>
		<path fill="#231815" d="M525.064,418.912h-14.446v-0.359h0.718c0.574,0,1.21,0,1.904,0c0.694,0,1.33,0,1.904,0l-8.337-21.132
			l-6.468-16.746l-15.669,37.878c0.526,0,1.053,0,1.58,0s1.054,0,1.582,0h1.868v0.359h-9.846v-0.359h0.791c0.624,0,1.233,0,1.833,0
			c0.598,0,1.21,0,1.832,0l18.113-43.772c0.096-0.288,0.216-0.419,0.36-0.395c0.143,0.025,0.262,0.156,0.359,0.395l17.61,43.772
			c0.621,0,1.221,0,1.797,0c0.574,0,1.173,0,1.797,0h0.718V418.912z M492.72,398.571h15.453v0.36h-15.597L492.72,398.571z"/>
	</g>
	<g>
		<path fill="#231815" d="M865.293,418.912h-15.166V414.6h0.719c0.621,0,1.304,0,2.048,0c0.742,0,1.425,0,2.048,0l-5.75-15.453
			l-6.828-18.472L829.068,414.6c0.528,0,1.054,0,1.582,0c0.526,0,1.053,0,1.582,0h1.868v4.312H819.15V414.6h0.79
			c0.672,0,1.403,0,2.192,0c0.791,0,1.521,0,2.192,0l16.1-38.813c0.862,0,1.665,0,2.407,0c0.743,0,1.545,0,2.408,0l14.807,38.669
			c0.718,0,1.473,0,2.264,0c0.791,0,1.545,0,2.265,0h0.718V418.912z M832.878,397.493h16.602l1.366,4.312h-18.112L832.878,397.493z"
			/>
	</g>
	<g>
		<path fill="#E7AC35" d="M808.151,418.912h-15.166v-3.665h1.15c0.622,0,1.269,0.012,1.941,0.035
			c0.67,0.025,1.294,0.013,1.869-0.035l-6.325-16.676l-6.397-17.105l-13.297,33.853c0.528-0.047,1.042-0.071,1.545-0.071
			c0.504,0,1.018,0,1.545,0h1.869v3.665h-14.087v-3.665h0.79c0.672,0,1.366,0,2.085,0c0.719,0,1.413,0,2.085,0l16.46-39.747
			c0.622-0.095,1.21-0.144,1.761-0.144c0.55,0,1.137,0.049,1.761,0.144l15.453,39.675c0.718,0,1.438,0,2.156,0s1.413,0,2.085,0
			h0.718V418.912z M776.383,397.493h15.884l0.935,3.809h-17.035L776.383,397.493z"/>
	</g>
	<g>
		<path fill="#E7AC35" d="M751.227,418.912h-15.165v-2.875h1.653c0.622,0,1.221,0,1.797,0c0.574,0,1.15,0,1.724,0l-7.044-18.04
			l-5.965-15.74l-13.369,33.78c0.526,0,1.042,0,1.545,0s1.042,0,1.617,0h1.869v2.875h-13.225v-2.875h0.79c0.672,0,1.33,0,1.977,0
			c0.647,0,1.281,0,1.905,0l17.034-40.896c0.336-0.191,0.672-0.288,1.007-0.288c0.335,0,0.694,0.097,1.077,0.288l16.172,40.825
			c0.622,0,1.258,0.013,1.905,0.036c0.647,0.025,1.305,0.035,1.977,0.035h0.718V418.912z M720.034,397.493h15.166l0.432,3.162
			h-15.813L720.034,397.493z"/>
	</g>
	<g>
		<path fill="#E7AC35" d="M694.118,418.912h-15.166v-2.156h2.156c0.526,0,1.042,0,1.545,0c0.503,0,1.018,0,1.545,0l-7.619-19.335
			l-5.534-14.375l-13.369,33.71c0.528,0,1.042,0,1.545,0c0.504,0,1.018,0,1.545,0h1.869v2.156h-12.29v-2.156h0.79
			c0.622,0,1.234,0,1.833,0c0.599,0,1.21,0,1.833,0l17.393-41.975c0.096-0.288,0.216-0.419,0.36-0.395
			c0.143,0.025,0.262,0.156,0.359,0.395l16.89,41.975c0.622,0,1.222,0,1.797,0c0.576,0,1.173,0,1.797,0h0.719V418.912z
			 M663.572,397.493h14.375v2.588h-14.663L663.572,397.493z"/>
	</g>
	<g>
		<path fill="#E7AC35" d="M637.622,418.912h-14.95v-1.582h1.726c0.526,0,1.079,0,1.653,0c0.576,0,1.125,0,1.653,0l-7.834-19.909
			l-5.821-15.165L599.96,417.33c0.478,0,0.981,0,1.51,0c0.526,0,1.053,0,1.58,0h1.869v1.582h-11.501v-1.582h0.791
			c0.622,0,1.222,0,1.797,0c0.576,0,1.197,0,1.869,0l17.608-42.549c0.096-0.288,0.216-0.419,0.36-0.395
			c0.143,0.025,0.262,0.156,0.359,0.395l17.105,42.549c0.622,0,1.222,0,1.797,0c0.576,0,1.174,0,1.797,0h0.719V418.912z
			 M606.5,397.853h14.735v1.869h-14.951L606.5,397.853z"/>
	</g>
	<g>
		<path fill="#E7AC35" d="M581.487,418.912h-14.735v-0.935h1.222c0.574,0,1.173,0,1.797,0c0.622,0,1.221,0,1.797,0l-8.122-20.556
			l-6.181-15.955l-14.878,36.44c0.576,0.048,1.115,0.071,1.618,0.071s0.993,0,1.473,0h1.941v0.935h-10.709v-0.935h0.79
			c0.67,0,1.306-0.011,1.906-0.035c0.598-0.025,1.185-0.012,1.761,0.035l17.896-43.196c0.096-0.288,0.216-0.419,0.36-0.395
			c0.143,0.025,0.262,0.156,0.359,0.395l17.393,43.196c0.622,0,1.222,0,1.797,0c0.576,0,1.173,0,1.797,0h0.719V418.912z
			 M549.718,398.212h15.094v1.079h-15.31L549.718,398.212z"/>
	</g>
	<g>
		<path fill="#E7AC35" d="M524.992,362.61h-14.591v-0.359l0.791-0.144c0.67,0,1.33-0.047,1.977-0.144
			c0.647-0.096,1.21-0.191,1.688-0.288l-8.05-20.556l-6.468-16.746l-15.382,37.302c0.432,0.192,0.898,0.324,1.403,0.395
			c0.503,0.073,1.066,0.108,1.688,0.108l1.797,0.073v0.359h-9.99v-0.359l0.791-0.144c0.67,0,1.33-0.036,1.977-0.108
			c0.647-0.073,1.281-0.18,1.904-0.324l17.896-43.196c0.096-0.288,0.216-0.419,0.36-0.395c0.143,0.025,0.262,0.156,0.359,0.395
			l17.393,43.196c0.622,0.192,1.233,0.312,1.833,0.359c0.599,0.049,1.258,0.097,1.977,0.144l0.647,0.073V362.61z M492.72,342.269
			h15.453v0.36h-15.597L492.72,342.269z"/>
	</g>
	<g>
		<path fill="#E7AC35" d="M865.258,362.61h-15.237v-4.097l0.862-0.073c0.622,0,1.281-0.047,1.977-0.143
			c0.694-0.096,1.329-0.167,1.904-0.216l-5.606-15.237l-6.828-18.472l-13.154,33.709c0.432,0.097,0.898,0.18,1.401,0.251
			c0.503,0.073,1.066,0.133,1.689,0.18l1.869-0.073v4.169h-14.95v-4.169l0.935-0.071c0.622,0.048,1.341,0.025,2.156-0.071
			c0.814-0.096,1.557-0.167,2.229-0.216l15.955-38.596c0.814,0,1.593,0,2.336,0c0.743,0,1.545,0,2.408,0l14.663,38.452
			c0.67,0.097,1.413,0.18,2.229,0.251c0.814,0.073,1.556,0.109,2.227,0.109l0.935,0.071V362.61z M832.843,341.192h16.602
			l1.366,4.241h-18.112L832.843,341.192z"/>
	</g>
	<g>
		<path fill="#E7AC35" d="M808.08,362.61h-15.166v-3.522l1.294-0.071c0.622-0.047,1.246-0.108,1.868-0.18
			c0.622-0.071,1.198-0.154,1.726-0.251l-6.181-16.316l-6.397-17.105l-13.154,33.493c0.478,0.048,0.946,0.121,1.401,0.215
			c0.455,0.097,0.994,0.144,1.618,0.144l1.868,0.071v3.522h-14.087v-3.522l0.935-0.143c0.622,0,1.304-0.036,2.048-0.109
			c0.742-0.071,1.425-0.154,2.048-0.251l16.387-39.387c0.622-0.095,1.198-0.144,1.726-0.144c0.526,0,1.101,0.049,1.724,0.144
			l15.31,39.316c0.67,0.192,1.377,0.299,2.12,0.323c0.743,0.026,1.449,0.061,2.121,0.109l0.791,0.071V362.61z M776.383,341.192
			h15.884l0.935,3.809h-17.035L776.383,341.192z"/>
	</g>
	<g>
		<path fill="#E7AC35" d="M751.191,362.61h-15.237v-2.803l1.726-0.144c0.574,0,1.137-0.036,1.689-0.108
			c0.55-0.073,1.089-0.132,1.617-0.18l-6.828-17.681l-5.965-15.74l-13.154,33.493c0.479,0.048,0.945,0.096,1.401,0.144
			c0.455,0.048,0.971,0.119,1.545,0.215h1.869v2.803H706.63v-2.803l0.934-0.144c0.622,0,1.282-0.036,1.977-0.108
			c0.694-0.073,1.353-0.132,1.977-0.18l16.746-40.537c0.383-0.191,0.73-0.288,1.042-0.288c0.311,0,0.683,0.097,1.114,0.288
			l15.957,40.466c0.622,0.096,1.269,0.192,1.941,0.288c0.67,0.096,1.365,0.143,2.085,0.143l0.79,0.073V362.61z M719.997,341.192
			h15.166l0.432,3.162h-15.813L719.997,341.192z"/>
	</g>
	<g>
		<path fill="#E7AC35" d="M694.118,362.61H678.88v-2.085l2.156-0.144c0.528,0,1.031-0.047,1.51-0.144
			c0.478-0.095,0.958-0.167,1.438-0.215l-7.404-18.903l-5.534-14.375l-13.152,33.278c0.478,0.097,0.945,0.18,1.401,0.252
			c0.455,0.073,0.97,0.132,1.545,0.18l1.868,0.071v2.085h-12.362v-2.085l0.862-0.144c0.622,0,1.258-0.047,1.904-0.144
			c0.647-0.095,1.281-0.191,1.904-0.287l17.178-41.472c0.096-0.288,0.216-0.419,0.36-0.395c0.143,0.025,0.262,0.156,0.359,0.395
			l16.675,41.472c0.622,0.144,1.245,0.251,1.868,0.323c0.622,0.073,1.269,0.132,1.941,0.18l0.719,0.071V362.61z M663.572,341.192
			h14.375v2.588h-14.663L663.572,341.192z"/>
	</g>
	<g>
		<path fill="#E7AC35" d="M637.622,362.61h-15.022v-1.582l1.724-0.071c0.528,0,1.067-0.047,1.618-0.144
			c0.55-0.096,1.042-0.191,1.473-0.288l-7.547-19.406l-5.821-15.165l-13.872,34.643c0.478,0.048,0.945,0.119,1.401,0.215
			c0.455,0.097,0.993,0.168,1.617,0.215h1.869v1.582h-11.644v-1.582l0.863-0.071c0.621,0,1.245-0.06,1.868-0.18
			c0.622-0.118,1.269-0.179,1.941-0.179l17.393-42.119c0.096-0.288,0.216-0.419,0.36-0.395c0.143,0.025,0.262,0.156,0.359,0.395
			l16.89,42.046c0.622,0.144,1.246,0.252,1.869,0.324c0.621,0.071,1.268,0.132,1.94,0.179h0.719V362.61z M606.5,341.551h14.735
			v1.869h-14.951L606.5,341.551z"/>
	</g>
	<g>
		<path fill="#E7AC35" d="M581.414,362.61h-14.805v-0.862l1.293-0.216c0.528,0.049,1.102,0.013,1.726-0.108
			c0.622-0.119,1.197-0.227,1.725-0.323l-7.907-19.982l-6.181-15.955l-14.59,35.937c0.478,0.096,0.958,0.204,1.438,0.323
			c0.478,0.12,1.006,0.18,1.582,0.18l1.868,0.071v0.935h-10.853v-0.935l0.862-0.071c0.67,0,1.329-0.047,1.976-0.144
			c0.647-0.096,1.282-0.215,1.906-0.359l17.608-42.622c0.096-0.288,0.216-0.419,0.36-0.395c0.143,0.025,0.262,0.156,0.359,0.395
			l17.105,42.693c0.672,0.097,1.306,0.192,1.906,0.288c0.598,0.097,1.233,0.144,1.904,0.144l0.718,0.144V362.61z M549.718,341.91
			h15.094v1.079h-15.31L549.718,341.91z"/>
	</g>
	<g>
		<path fill="#E7AC35" d="M524.992,306.308h-14.735v-0.359l0.863-0.144c0.765-0.047,1.461-0.156,2.083-0.324
			c0.622-0.167,1.15-0.394,1.582-0.682l-7.978-19.982l-6.468-16.746l-15.31,36.728c0.432,0.384,0.922,0.635,1.473,0.755
			c0.551,0.12,1.162,0.228,1.833,0.323l1.582,0.073v0.359h-10.063v-0.359l0.862-0.144c0.719-0.047,1.413-0.144,2.085-0.288
			c0.67-0.144,1.269-0.335,1.797-0.574l17.825-42.766c0.096-0.288,0.216-0.419,0.36-0.395c0.143,0.025,0.262,0.156,0.359,0.395
			l17.322,42.766c0.574,0.24,1.16,0.43,1.761,0.574c0.599,0.144,1.306,0.264,2.121,0.359l0.647,0.073V306.308z M492.72,285.967
			h15.453v0.36h-15.597L492.72,285.967z"/>
	</g>
	<g>
		<path fill="#E7AC35" d="M865.222,306.308h-15.237v-3.953l1.006-0.144c0.622,0,1.269-0.06,1.941-0.18
			c0.67-0.118,1.269-0.298,1.797-0.538l-5.606-14.95l-6.828-18.472l-13.154,33.493c0.432,0.192,0.91,0.336,1.438,0.432
			c0.526,0.096,1.079,0.192,1.653,0.287h1.869v4.025h-14.95v-4.025l1.222-0.071c0.621,0,1.329-0.06,2.12-0.18
			c0.791-0.118,1.474-0.275,2.048-0.467l15.884-38.381c0.814,0,1.593,0,2.336,0s1.545,0,2.408,0l14.663,38.237
			c0.67,0.144,1.377,0.288,2.121,0.432c0.742,0.144,1.473,0.24,2.191,0.287l1.079,0.073V306.308z M832.807,284.89h16.602
			l1.366,4.168h-18.112L832.807,284.89z"/>
	</g>
	<g>
		<path fill="#E7AC35" d="M808.116,306.308h-15.237v-3.306l1.365-0.144c0.67-0.096,1.306-0.215,1.904-0.359
			c0.599-0.144,1.115-0.288,1.545-0.432l-6.109-16.1l-6.397-17.105l-13.081,33.206c0.43,0.24,0.898,0.42,1.401,0.539
			c0.503,0.12,1.042,0.205,1.617,0.251l1.725,0.144v3.306h-14.016v-3.306l1.15-0.216c0.622-0.047,1.294-0.131,2.012-0.252
			c0.719-0.118,1.39-0.298,2.013-0.538l16.316-39.1c0.621-0.095,1.197-0.144,1.724-0.144c0.526,0,1.079,0.049,1.653,0.144
			l15.238,39.028c0.621,0.241,1.293,0.432,2.012,0.576c0.718,0.144,1.484,0.24,2.3,0.287l0.862,0.144V306.308z M776.348,284.89
			h15.884l0.935,3.665h-17.035L776.348,284.89z"/>
	</g>
	<g>
		<path fill="#E7AC35" d="M751.191,306.308h-15.237v-2.659l1.726-0.216c0.622-0.047,1.21-0.131,1.761-0.252
			c0.55-0.118,1.066-0.275,1.545-0.467l-6.828-17.322l-5.965-15.74l-13.154,33.133c0.479,0.193,0.958,0.336,1.438,0.432
			c0.478,0.097,1.006,0.215,1.582,0.359l1.797,0.073v2.659H706.63v-2.659l1.006-0.144c0.718-0.096,1.438-0.204,2.156-0.324
			c0.718-0.118,1.341-0.298,1.868-0.538l16.675-40.107c0.336-0.191,0.659-0.288,0.971-0.288c0.311,0,0.683,0.097,1.114,0.288
			l15.884,40.034c0.672,0.192,1.33,0.395,1.977,0.611c0.647,0.216,1.353,0.349,2.121,0.395l0.79,0.073V306.308z M719.997,284.89
			h15.166l0.432,3.091h-15.813L719.997,284.89z"/>
	</g>
	<g>
		<path fill="#E7AC35" d="M694.19,306.308h-15.31v-2.012l2.085-0.216c0.576-0.047,1.102-0.144,1.582-0.287
			c0.478-0.144,0.934-0.311,1.365-0.503l-7.331-18.473l-5.534-14.375l-13.081,32.848c0.432,0.24,0.887,0.42,1.366,0.538
			c0.478,0.121,1.006,0.228,1.58,0.324l1.797,0.144v2.012h-12.434v-2.012l1.006-0.216c0.67-0.047,1.342-0.144,2.013-0.287
			c0.67-0.144,1.294-0.36,1.868-0.647l17.034-40.969c0.096-0.288,0.216-0.419,0.36-0.395c0.143,0.025,0.262,0.156,0.359,0.395
			l16.531,40.969c0.622,0.24,1.258,0.455,1.904,0.647c0.647,0.192,1.354,0.336,2.121,0.43l0.718,0.073V306.308z M663.572,284.89
			h14.375v2.588h-14.663L663.572,284.89z"/>
	</g>
	<g>
		<path fill="#E7AC35" d="M637.694,306.308h-15.166v-1.509l1.654-0.144c0.67-0.047,1.268-0.144,1.797-0.288
			c0.526-0.144,0.982-0.359,1.365-0.647l-7.475-18.903l-5.821-15.165l-13.728,34.14c0.383,0.287,0.826,0.48,1.329,0.574
			c0.503,0.097,1.089,0.215,1.761,0.359l1.654,0.073v1.509h-11.644v-1.509l0.935-0.144c0.67-0.047,1.33-0.156,1.977-0.324
			c0.647-0.167,1.281-0.37,1.904-0.611l17.249-41.543c0.096-0.288,0.216-0.419,0.36-0.395c0.143,0.025,0.262,0.156,0.359,0.395
			l16.746,41.543c0.622,0.241,1.258,0.456,1.904,0.647c0.647,0.192,1.354,0.312,2.121,0.359l0.718,0.073V306.308z M606.5,285.249
			h14.735v1.869h-14.951L606.5,285.249z"/>
	</g>
	<g>
		<path fill="#E7AC35" d="M581.487,306.308h-14.95v-0.862l1.294-0.216c0.622,0,1.233-0.083,1.833-0.252
			c0.598-0.167,1.114-0.395,1.545-0.682l-7.763-19.479l-6.181-15.955l-14.446,35.434c0.432,0.287,0.91,0.515,1.438,0.682
			c0.526,0.168,1.077,0.277,1.653,0.324l1.724,0.071v0.935h-10.996v-0.935l1.006-0.144c0.719,0,1.413-0.083,2.085-0.252
			c0.67-0.167,1.294-0.395,1.868-0.682l17.466-42.119c0.096-0.288,0.216-0.419,0.36-0.395c0.143,0.025,0.262,0.156,0.359,0.395
			l16.963,42.19c0.621,0.241,1.258,0.456,1.904,0.647c0.647,0.192,1.353,0.312,2.12,0.359l0.719,0.073V306.308z M549.718,285.608
			h15.094v1.079h-15.31L549.718,285.608z"/>
	</g>
	<g>
		<path fill="#E7AC35" d="M524.92,250.008h-14.807v-0.359l0.935-0.216c0.814,0,1.521-0.143,2.121-0.431
			c0.598-0.288,1.066-0.647,1.401-1.079l-7.763-19.406l-6.468-16.746l-15.022,36.225c0.287,0.48,0.718,0.826,1.294,1.042
			c0.574,0.215,1.245,0.371,2.012,0.467l1.365,0.144v0.359h-10.134v-0.359l0.935-0.144c0.766-0.096,1.497-0.24,2.192-0.432
			c0.694-0.191,1.329-0.526,1.904-1.006l17.537-42.19c0.096-0.288,0.216-0.419,0.36-0.395c0.143,0.025,0.262,0.156,0.359,0.395
			l17.034,42.263c0.622,0.384,1.246,0.695,1.868,0.934c0.622,0.241,1.366,0.385,2.229,0.432l0.647,0.144V250.008z M492.72,229.667
			h15.453v0.36h-15.597L492.72,229.667z"/>
	</g>
	<g>
		<path fill="#E7AC35" d="M865.15,250.009h-15.166V246.2l1.077-0.073c0.719-0.047,1.377-0.191,1.977-0.43
			c0.599-0.24,1.114-0.503,1.545-0.791l-5.462-14.663l-6.828-18.472l-13.01,33.134c0.335,0.384,0.755,0.659,1.258,0.826
			c0.503,0.168,1.089,0.301,1.762,0.395l1.797,0.073v3.809h-14.879V246.2l1.438-0.144c0.622-0.048,1.317-0.167,2.085-0.359
			c0.766-0.192,1.413-0.432,1.941-0.719l15.884-38.093c0.766,0,1.509,0,2.229,0c0.718,0,1.509,0,2.371,0l14.519,38.022
			c0.622,0.288,1.306,0.528,2.048,0.718c0.743,0.192,1.474,0.312,2.192,0.359l1.222,0.073V250.009z M832.807,228.591h16.602
			l1.366,4.097h-18.112L832.807,228.591z"/>
	</g>
	<g>
		<path fill="#E7AC35" d="M808.116,250.009h-15.237v-3.235l1.438-0.144c0.718-0.047,1.353-0.191,1.904-0.43
			c0.55-0.24,0.994-0.503,1.33-0.791l-5.966-15.741l-6.397-17.105l-12.937,32.847c0.335,0.336,0.742,0.599,1.221,0.791
			c0.478,0.192,1.054,0.336,1.726,0.43l1.724,0.216v3.162h-14.016v-3.162l1.294-0.288c0.719-0.047,1.413-0.167,2.085-0.359
			c0.67-0.192,1.294-0.478,1.869-0.863l16.243-38.74c0.576-0.095,1.125-0.144,1.653-0.144c0.526,0,1.079,0.049,1.653,0.144
			l15.094,38.669c0.574,0.432,1.233,0.743,1.976,0.935c0.743,0.192,1.521,0.312,2.336,0.359l1.006,0.144V250.009z M776.348,228.591
			h15.884l0.935,3.594h-17.035L776.348,228.591z"/>
	</g>
	<g>
		<path fill="#E7AC35" d="M751.191,250.009h-15.237v-2.659l1.726-0.144c0.67-0.096,1.258-0.252,1.761-0.468
			c0.503-0.215,0.945-0.467,1.33-0.755l-6.613-16.89l-5.965-15.74l-12.938,32.703c0.384,0.288,0.802,0.528,1.259,0.718
			c0.454,0.192,0.993,0.359,1.617,0.503l1.726,0.144v2.588H706.63v-2.588l1.221-0.215c0.67-0.144,1.365-0.299,2.085-0.468
			c0.718-0.167,1.341-0.442,1.868-0.826l16.531-39.675c0.384-0.191,0.719-0.288,1.007-0.288c0.287,0,0.647,0.097,1.077,0.288
			l15.741,39.602c0.621,0.385,1.268,0.708,1.94,0.971c0.672,0.264,1.413,0.42,2.229,0.467l0.862,0.073V250.009z M719.997,228.591
			h15.166l0.432,3.162h-15.813L719.997,228.591z"/>
	</g>
	<g>
		<path fill="#E7AC35" d="M694.19,250.009h-15.31v-2.012l2.013-0.216c0.621-0.047,1.16-0.191,1.617-0.43
			c0.455-0.24,0.85-0.503,1.186-0.791l-7.116-18.041l-5.534-14.375l-12.865,32.416c0.335,0.336,0.73,0.6,1.185,0.791
			c0.455,0.192,0.994,0.359,1.618,0.503l1.724,0.215v1.941h-12.434v-1.941l1.079-0.288c0.718-0.095,1.425-0.252,2.12-0.467
			c0.695-0.215,1.33-0.539,1.904-0.97l16.819-40.466c0.096-0.288,0.216-0.419,0.36-0.395c0.143,0.025,0.262,0.156,0.359,0.395
			l16.316,40.466c0.621,0.43,1.281,0.779,1.976,1.041c0.695,0.264,1.449,0.445,2.265,0.539l0.718,0.073V250.009z M663.572,228.591
			h14.375v2.588h-14.663L663.572,228.591z"/>
	</g>
	<g>
		<path fill="#E7AC35" d="M637.694,250.009h-15.166V248.5l1.582-0.216c0.719,0,1.341-0.131,1.869-0.394
			c0.526-0.263,0.886-0.563,1.077-0.898l-7.187-18.473l-5.821-15.165l-13.513,33.709c0.288,0.336,0.683,0.6,1.186,0.791
			c0.503,0.192,1.089,0.359,1.761,0.503l1.653,0.215v1.438h-11.716v-1.438l0.935-0.288c0.814-0.047,1.545-0.191,2.192-0.43
			c0.647-0.24,1.281-0.526,1.904-0.862l17.034-41.113c0.096-0.288,0.216-0.419,0.36-0.395c0.143,0.025,0.262,0.156,0.359,0.395
			l16.531,41.04c0.574,0.48,1.221,0.839,1.941,1.079c0.718,0.24,1.484,0.384,2.3,0.43l0.718,0.073V250.009z M606.5,228.95h14.735
			v1.869h-14.951L606.5,228.95z"/>
	</g>
	<g>
		<path fill="#E7AC35" d="M581.414,250.009h-15.022v-0.862l1.366-0.216c0.67-0.047,1.281-0.215,1.832-0.503
			c0.551-0.287,1.018-0.598,1.401-0.934l-7.547-18.976l-6.181-15.955l-14.231,34.931c0.335,0.384,0.755,0.707,1.258,0.97
			c0.504,0.264,1.115,0.443,1.833,0.539l1.582,0.144v0.862h-11.069v-0.862l1.006-0.216c0.766-0.095,1.509-0.239,2.229-0.43
			c0.718-0.191,1.365-0.551,1.941-1.079l17.249-41.543c0.096-0.288,0.216-0.419,0.36-0.395c0.143,0.025,0.262,0.156,0.359,0.395
			l16.746,41.616c0.622,0.43,1.269,0.779,1.941,1.041c0.67,0.264,1.413,0.421,2.229,0.468l0.718,0.144V250.009z M549.718,229.309
			h15.094v1.079h-15.31L549.718,229.309z"/>
	</g>
	<g>
		<path fill="#E7AC35" d="M524.848,193.706H509.97v-0.359l1.006-0.288c0.814-0.047,1.509-0.263,2.083-0.647
			c0.576-0.383,0.983-0.838,1.222-1.365l-7.475-18.832l-6.468-16.746l-14.735,35.649c0.192,0.528,0.563,0.971,1.115,1.33
			c0.55,0.359,1.281,0.587,2.192,0.682l1.294,0.216v0.359h-10.351v-0.359l0.935-0.288c0.814-0.096,1.592-0.275,2.336-0.539
			c0.742-0.262,1.425-0.707,2.048-1.329l17.249-41.616c0.096-0.288,0.216-0.419,0.36-0.395c0.143,0.025,0.262,0.156,0.359,0.395
			l16.746,41.687c0.622,0.576,1.269,1.006,1.941,1.294c0.67,0.288,1.461,0.48,2.372,0.574l0.647,0.216V193.706z M492.72,173.365
			h15.453v0.36h-15.597L492.72,173.365z"/>
	</g>
	<g>
		<path fill="#E7AC35" d="M865.114,193.707h-15.166v-3.594l1.221-0.215c0.719,0,1.366-0.156,1.941-0.468
			c0.576-0.311,1.006-0.657,1.294-1.042l-5.318-14.446l-6.828-18.472l-12.866,32.918c0.239,0.432,0.611,0.767,1.114,1.007
			c0.503,0.24,1.115,0.43,1.833,0.574l1.797,0.144v3.594h-14.807v-3.594l1.582-0.288c0.622,0,1.294-0.131,2.012-0.395
			c0.719-0.262,1.366-0.586,1.941-0.97l15.741-37.878c0.765,0,1.496,0,2.192,0c0.694,0,1.473,0,2.335,0l14.375,37.805
			c0.576,0.385,1.233,0.708,1.977,0.971c0.742,0.263,1.497,0.395,2.264,0.395l1.366,0.215V193.707z M832.771,172.289h16.602
			l1.366,3.953h-18.113L832.771,172.289z"/>
	</g>
	<g>
		<path fill="#E7AC35" d="M808.009,193.707h-15.166v-3.091l1.509-0.288c0.67-0.047,1.282-0.215,1.833-0.503
			c0.55-0.288,0.945-0.622,1.186-1.006l-5.822-15.453l-6.397-17.105l-12.793,32.631c0.287,0.336,0.657,0.635,1.114,0.898
			c0.455,0.263,1.018,0.467,1.689,0.611l1.724,0.288v3.018h-13.943v-3.018l1.365-0.36c0.766-0.095,1.497-0.275,2.192-0.538
			c0.694-0.263,1.33-0.612,1.904-1.042l15.956-38.454c0.576-0.095,1.114-0.144,1.617-0.144c0.504,0,1.066,0.049,1.689,0.144
			l14.878,38.381c0.67,0.528,1.366,0.923,2.085,1.186c0.719,0.264,1.484,0.42,2.3,0.467l1.079,0.216V193.707z M776.312,172.289
			h15.884l0.935,3.521h-17.035L776.312,172.289z"/>
	</g>
	<g>
		<path fill="#E7AC35" d="M751.264,193.707h-15.31v-2.515l1.726-0.288c0.67-0.047,1.245-0.215,1.724-0.503
			c0.478-0.288,0.887-0.647,1.222-1.079l-6.469-16.531l-5.965-15.74l-12.794,32.344c0.288,0.336,0.647,0.647,1.079,0.934
			c0.432,0.288,1.029,0.503,1.797,0.647l1.724,0.288v2.444H706.63v-2.444l1.294-0.359c0.765-0.096,1.509-0.288,2.227-0.576
			c0.719-0.287,1.39-0.67,2.012-1.15l16.244-39.243c0.288-0.191,0.599-0.288,0.935-0.288c0.335,0,0.694,0.097,1.077,0.288
			l15.453,39.172c0.67,0.528,1.354,0.959,2.048,1.294c0.694,0.336,1.473,0.551,2.336,0.647l1.006,0.144V193.707z M719.997,172.289
			h15.166l0.432,3.091h-15.813L719.997,172.289z"/>
	</g>
	<g>
		<path fill="#E7AC35" d="M694.19,193.707h-15.31v-1.941l1.941-0.359c0.622-0.047,1.162-0.227,1.618-0.539
			c0.454-0.311,0.801-0.657,1.041-1.042l-6.9-17.609l-5.534-14.375l-12.649,31.984c0.239,0.385,0.574,0.719,1.006,1.006
			c0.432,0.288,0.982,0.503,1.653,0.647l1.726,0.36v1.868h-12.507v-1.868l1.15-0.432c0.766-0.096,1.509-0.298,2.229-0.611
			c0.718-0.311,1.389-0.73,2.012-1.259l16.531-39.961c0.096-0.288,0.216-0.419,0.36-0.395c0.143,0.025,0.262,0.156,0.359,0.395
			l16.028,39.961c0.67,0.576,1.377,1.032,2.12,1.366c0.743,0.336,1.545,0.574,2.409,0.718l0.718,0.144V193.707z M663.572,172.289
			h14.375v2.588h-14.663L663.572,172.289z"/>
	</g>
	<g>
		<path fill="#E7AC35" d="M637.622,193.707h-15.166v-1.438l1.653-0.359c0.622,0,1.198-0.18,1.725-0.539
			c0.526-0.359,0.886-0.73,1.077-1.114l-7.044-18.041l-5.821-15.165l-13.297,33.206c0.191,0.384,0.526,0.731,1.006,1.042
			c0.478,0.312,1.102,0.539,1.869,0.682l1.58,0.36v1.365h-11.787v-1.365l1.006-0.432c0.814-0.047,1.57-0.227,2.265-0.539
			c0.694-0.311,1.377-0.73,2.048-1.258l16.746-40.537c0.096-0.288,0.216-0.419,0.36-0.395c0.143,0.025,0.262,0.156,0.359,0.395
			l16.243,40.537c0.622,0.576,1.317,1.019,2.085,1.33c0.766,0.312,1.557,0.538,2.371,0.682l0.719,0.144V193.707z M606.5,172.648
			h14.735v1.869h-14.951L606.5,172.648z"/>
	</g>
	<g>
		<path fill="#E7AC35" d="M581.414,193.707h-15.166v-0.862l1.366-0.288c0.765-0.047,1.412-0.252,1.941-0.611
			c0.526-0.359,0.909-0.803,1.15-1.33l-7.26-18.4l-6.181-15.955l-13.943,34.356c0.239,0.528,0.611,0.959,1.114,1.294
			c0.503,0.336,1.162,0.576,1.977,0.718l1.438,0.216v0.862h-11.14v-0.862l1.006-0.288c0.814-0.096,1.592-0.298,2.335-0.611
			c0.743-0.311,1.426-0.755,2.05-1.33l16.961-41.04c0.096-0.288,0.216-0.419,0.36-0.395c0.143,0.025,0.262,0.156,0.359,0.395
			l16.46,41.113c0.67,0.574,1.365,1.031,2.083,1.365c0.719,0.336,1.51,0.528,2.372,0.574l0.718,0.216V193.707z M549.718,173.007
			h15.094v1.079h-15.31L549.718,173.007z"/>
	</g>
	<g>
		<path fill="#E7AC35" d="M524.92,137.404h-15.093v-0.359l1.006-0.359c1.006-0.048,1.784-0.299,2.336-0.756
			c0.55-0.454,0.849-1.041,0.898-1.761l-7.26-18.256l-6.468-16.746l-14.591,35.075c0.144,0.718,0.503,1.294,1.079,1.724
			c0.574,0.432,1.341,0.695,2.3,0.791l1.221,0.288v0.359h-10.493v-0.359l0.862-0.359c1.007-0.096,1.881-0.324,2.624-0.683
			c0.743-0.359,1.401-0.874,1.977-1.545l17.105-41.184c0.096-0.288,0.216-0.419,0.36-0.395c0.143,0.025,0.262,0.156,0.359,0.395
			l16.602,41.184c0.576,0.718,1.222,1.258,1.941,1.617c0.719,0.36,1.582,0.612,2.588,0.755l0.647,0.216V137.404z M492.72,117.063
			h15.453v0.36h-15.597L492.72,117.063z"/>
	</g>
	<g>
		<path fill="#E7AC35" d="M865.15,137.404h-15.237v-3.45l1.365-0.215c0.766-0.096,1.413-0.311,1.941-0.647
			c0.526-0.335,0.91-0.766,1.15-1.294l-5.318-14.16l-6.828-18.472l-12.866,32.703c0.239,0.48,0.599,0.888,1.079,1.222
			c0.479,0.336,1.101,0.551,1.868,0.647l1.726,0.215v3.45h-14.735v-3.45l1.726-0.288c0.718-0.095,1.425-0.288,2.12-0.574
			c0.695-0.288,1.306-0.695,1.833-1.222l15.597-37.59c0.814,0,1.569,0,2.264,0c0.694,0,1.448,0,2.264,0l14.375,37.519
			c0.576,0.48,1.198,0.875,1.869,1.185c0.67,0.312,1.412,0.516,2.227,0.612l1.582,0.215V137.404z M832.735,115.986h16.602
			l1.366,3.953h-18.113L832.735,115.986z"/>
	</g>
	<g>
		<path fill="#E7AC35" d="M808.153,137.404h-15.31v-2.947l1.582-0.288c0.765-0.095,1.389-0.311,1.868-0.647
			c0.478-0.335,0.838-0.791,1.079-1.365l-5.822-15.094l-6.397-17.105l-12.793,32.271c0.239,0.529,0.574,0.959,1.006,1.294
			c0.43,0.336,1.053,0.552,1.868,0.647l1.725,0.359v2.875h-14.088v-2.875l1.582-0.43c0.814-0.096,1.557-0.311,2.229-0.647
			c0.67-0.335,1.294-0.766,1.868-1.294l15.884-38.166c0.528-0.095,1.054-0.144,1.582-0.144c0.526,0,1.079,0.049,1.653,0.144
			l14.807,38.093c0.622,0.576,1.281,1.032,1.977,1.366c0.694,0.336,1.496,0.574,2.408,0.718l1.294,0.216V137.404z M776.312,115.986
			h15.884l0.935,3.521h-17.035L776.312,115.986z"/>
	</g>
	<g>
		<path fill="#E7AC35" d="M751.228,137.404h-15.31v-2.444l1.726-0.359c0.765-0.096,1.377-0.311,1.832-0.647
			c0.455-0.335,0.803-0.766,1.042-1.294l-6.397-16.172l-5.965-15.74l-12.722,31.983c0.239,0.48,0.563,0.888,0.97,1.222
			c0.407,0.336,0.994,0.574,1.761,0.718l1.725,0.359v2.372h-13.296v-2.372l1.365-0.43c0.814-0.144,1.592-0.384,2.336-0.719
			c0.742-0.335,1.377-0.79,1.904-1.365L728.3,93.633c0.384-0.191,0.73-0.288,1.042-0.288c0.311,0,0.659,0.097,1.042,0.288
			l15.381,38.813c0.622,0.574,1.294,1.067,2.013,1.473c0.718,0.408,1.533,0.708,2.444,0.898l1.006,0.144V137.404z M719.962,115.986
			h15.166l0.432,3.091h-15.813L719.962,115.986z"/>
	</g>
	<g>
		<path fill="#E7AC35" d="M694.261,137.404H678.88v-1.868l1.869-0.432c0.718-0.096,1.294-0.324,1.724-0.683
			c0.432-0.359,0.743-0.801,0.935-1.329l-6.828-17.179l-5.534-14.375l-12.578,31.554c0.192,0.528,0.491,0.97,0.898,1.329
			c0.407,0.359,0.971,0.611,1.689,0.755l1.726,0.432v1.797h-12.578v-1.797l1.221-0.503c0.862-0.144,1.665-0.407,2.408-0.791
			c0.743-0.383,1.403-0.91,1.977-1.582l16.387-39.458c0.096-0.288,0.216-0.419,0.36-0.395c0.143,0.025,0.262,0.156,0.359,0.395
			l15.884,39.458c0.67,0.671,1.39,1.222,2.156,1.654c0.766,0.431,1.628,0.766,2.588,1.006l0.718,0.144V137.404z M663.572,115.986
			h14.375v2.588h-14.663L663.572,115.986z"/>
	</g>
	<g>
		<path fill="#E7AC35" d="M637.694,137.404h-15.237v-1.438l1.509-0.359c0.814-0.047,1.461-0.263,1.941-0.647
			c0.478-0.383,0.766-0.91,0.862-1.582l-6.9-17.466l-5.821-15.165l-13.225,32.703c0.191,0.624,0.503,1.114,0.934,1.473
			c0.432,0.36,1.079,0.612,1.941,0.755l1.582,0.36v1.365h-11.931v-1.365l1.077-0.432c0.91-0.096,1.726-0.347,2.444-0.755
			c0.719-0.407,1.39-0.898,2.013-1.474l16.602-40.105c0.096-0.288,0.216-0.419,0.36-0.395c0.143,0.025,0.262,0.156,0.359,0.395
			l16.099,40.034c0.622,0.671,1.317,1.211,2.085,1.617c0.766,0.408,1.653,0.708,2.659,0.898l0.647,0.144V137.404z M606.5,116.345
			h14.735v1.869h-14.951L606.5,116.345z"/>
	</g>
	<g>
		<path fill="#E7AC35" d="M581.414,137.404h-15.237v-0.791l1.438-0.43c0.765-0.048,1.412-0.299,1.941-0.756
			c0.526-0.454,0.886-0.97,1.077-1.545l-7.187-17.969l-6.181-15.955l-13.872,33.853c0.192,0.624,0.539,1.163,1.042,1.617
			c0.503,0.456,1.186,0.731,2.048,0.827l1.438,0.359v0.791h-11.284v-0.791l1.006-0.43c0.958-0.096,1.82-0.324,2.588-0.683
			c0.766-0.359,1.438-0.922,2.012-1.689l16.819-40.537c0.096-0.288,0.216-0.419,0.36-0.395c0.143,0.025,0.262,0.156,0.359,0.395
			l16.316,40.608c0.621,0.673,1.317,1.211,2.083,1.618c0.766,0.407,1.605,0.708,2.516,0.898l0.718,0.215V137.404z M549.718,116.704
			h15.094v1.079h-15.31L549.718,116.704z"/>
	</g>
	<g>
		<path fill="#E7AC35" d="M808.045,81.103h-15.237V78.3l1.653-0.359c0.766-0.144,1.377-0.419,1.833-0.827
			c0.455-0.406,0.73-0.898,0.826-1.473l-5.606-14.879l-6.397-17.105l-12.578,31.984c0.144,0.574,0.432,1.067,0.862,1.473
			c0.432,0.408,1.029,0.683,1.797,0.827l1.653,0.43v2.732h-13.943v-2.732l1.724-0.503c0.814-0.144,1.557-0.406,2.229-0.791
			c0.67-0.383,1.269-0.886,1.797-1.509l15.74-37.878c0.576-0.095,1.115-0.144,1.618-0.144c0.503,0,1.042,0.049,1.617,0.144
			l14.663,37.734c0.576,0.719,1.222,1.283,1.941,1.689c0.718,0.408,1.532,0.683,2.444,0.827l1.365,0.287V81.103z M776.277,59.684
			h15.884l0.935,3.45h-17.035L776.277,59.684z"/>
	</g>
	<g>
		<path fill="#E7AC35" d="M751.228,81.103h-15.31v-2.3l1.726-0.432c0.765-0.144,1.365-0.419,1.797-0.826
			c0.431-0.407,0.718-0.898,0.862-1.474l-6.181-15.884l-5.965-15.74L715.65,76.071c0.144,0.576,0.419,1.067,0.827,1.474
			c0.406,0.407,0.993,0.708,1.761,0.898l1.653,0.43v2.229h-13.296v-2.229l1.509-0.503c0.862-0.191,1.665-0.49,2.408-0.898
			c0.743-0.406,1.377-0.945,1.904-1.617l15.957-38.525c0.335-0.191,0.657-0.288,0.97-0.288c0.311,0,0.659,0.097,1.042,0.288
			l15.166,38.381c0.622,0.718,1.306,1.33,2.048,1.833c0.743,0.503,1.592,0.85,2.551,1.042l1.079,0.215V81.103z M719.962,59.684
			h15.166l0.432,3.018h-15.813L719.962,59.684z"/>
	</g>
	<g>
		<path fill="#E7AC35" d="M694.261,81.103H678.88v-1.797l1.797-0.503c0.719-0.144,1.294-0.432,1.725-0.862
			c0.431-0.432,0.694-0.935,0.791-1.51l-6.613-16.819l-5.534-14.375l-12.362,31.122c0.095,0.624,0.346,1.15,0.755,1.582
			c0.406,0.43,0.97,0.743,1.689,0.934l1.653,0.503v1.726h-12.578v-1.726l1.294-0.574c0.909-0.191,1.748-0.515,2.515-0.971
			c0.766-0.454,1.438-1.066,2.012-1.832l16.172-39.028c0.096-0.288,0.216-0.419,0.36-0.395c0.143,0.025,0.262,0.156,0.359,0.395
			l15.669,38.955c0.67,0.815,1.412,1.486,2.227,2.013c0.814,0.528,1.726,0.91,2.732,1.15l0.718,0.215V81.103z M663.572,59.684
			h14.375v2.588h-14.663L663.572,59.684z"/>
	</g>
	<g>
		<path fill="#E7AC35" d="M637.694,81.103h-15.308v-1.365l1.509-0.432c0.814-0.096,1.461-0.383,1.941-0.862
			c0.479-0.478,0.718-1.054,0.718-1.726l-6.684-17.106l-5.821-15.165L601.11,76.718c0.048,0.671,0.299,1.234,0.755,1.689
			c0.455,0.456,1.115,0.779,1.977,0.97l1.438,0.432v1.294h-11.931v-1.294l1.15-0.503c0.958-0.144,1.807-0.455,2.551-0.935
			c0.743-0.478,1.425-1.077,2.048-1.797l16.387-39.602c0.096-0.288,0.216-0.419,0.36-0.395c0.143,0.025,0.262,0.156,0.359,0.395
			l15.884,39.531c0.622,0.815,1.341,1.473,2.156,1.976c0.814,0.504,1.726,0.852,2.732,1.042l0.718,0.216V81.103z M606.5,60.043
			h14.735v1.869h-14.951L606.5,60.043z"/>
	</g>
	<g>
		<path fill="#E7AC35" d="M581.414,81.103h-15.31v-0.791l1.366-0.43c0.862-0.096,1.545-0.407,2.048-0.935
			c0.503-0.526,0.778-1.15,0.826-1.869l-6.9-17.466l-6.181-15.955l-13.584,33.35c0.096,0.767,0.395,1.414,0.898,1.941
			c0.503,0.528,1.21,0.862,2.121,1.006l1.294,0.359v0.791h-11.357v-0.791l1.079-0.43c1.006-0.144,1.904-0.443,2.695-0.898
			c0.791-0.455,1.473-1.09,2.048-1.906l16.602-40.105c0.096-0.288,0.216-0.419,0.36-0.395c0.143,0.025,0.262,0.156,0.359,0.395
			l16.099,40.105c0.622,0.815,1.33,1.474,2.121,1.977c0.791,0.503,1.689,0.827,2.695,0.97l0.718,0.288V81.103z M549.718,60.403
			h15.094v1.079h-15.31L549.718,60.403z"/>
	</g>
	<g>
		<path fill="#231815" d="M486.141,465.454l-0.42,1.88l-3.188-0.05l-2.131,9.883h-2.45l2.164-9.883l-3.473,0.05l0.404-1.88H486.141z
			"/>
		<path fill="#231815" d="M489.306,467.501c-0.133,0.587-0.436,1.796-0.553,2.198h0.034c0.638-0.957,1.611-1.376,2.466-1.376
			c1.896,0,2.853,1.141,2.853,2.751c0,0.521-0.084,1.108-0.253,1.896l-0.905,4.195h-2.182l0.907-4.211
			c0.167-0.788,0.252-1.242,0.252-1.645c0-0.772-0.42-1.275-1.259-1.275c-0.905,0-1.51,0.537-1.947,1.342
			c-0.302,0.555-0.553,1.377-0.822,2.685l-0.654,3.105h-2.182l2.685-12.686h2.216L489.306,467.501z"/>
		<path fill="#231815" d="M499.387,468.524l-1.846,8.642h-2.216l1.83-8.642H499.387z M500.141,464.732l-0.47,2.131h-2.248
			l0.487-2.131H500.141z"/>
		<path fill="#231815" d="M506.918,470.538c-0.47-0.251-0.973-0.402-1.578-0.402c-1.728,0-2.785,1.494-2.785,3.356
			c0,1.175,0.655,2.064,2.131,2.064c0.553,0,1.141-0.117,1.577-0.336l-0.252,1.729c-0.587,0.218-1.191,0.302-1.896,0.302
			c-2.466,0-3.892-1.578-3.892-3.625c0-2.987,2.164-5.185,5.201-5.185c0.756,0,1.476,0.135,2.047,0.37L506.918,470.538z"/>
		<path fill="#231815" d="M509.514,477.166h-2.198l2.685-12.686h2.198l-1.611,7.366h0.034c0.151-0.185,0.772-0.839,3.272-3.322
			h2.904l-4.229,3.825l2.701,4.816h-2.567c-1.645-3.222-2.081-4.195-2.248-4.597h-0.034L509.514,477.166z"/>
		<path fill="#231815" d="M520.098,469.866c0.671-1.074,1.679-1.543,2.634-1.543c1.896,0,2.853,1.141,2.853,2.751
			c0,0.521-0.084,1.108-0.252,1.896l-0.907,4.195h-2.182l0.907-4.211c0.167-0.788,0.252-1.242,0.252-1.645
			c0-0.772-0.42-1.275-1.259-1.275c-0.905,0-1.51,0.537-1.947,1.342c-0.302,0.555-0.553,1.377-0.822,2.685l-0.654,3.105h-2.182
			l1.427-6.796c0.117-0.571,0.234-1.208,0.318-1.846h2.013c-0.033,0.386-0.151,0.939-0.234,1.342H520.098z"/>
		<path fill="#231815" d="M529.204,473.474c-0.016,0.135-0.016,0.219-0.016,0.269c0,1.241,0.805,1.947,2.282,1.947
			c0.905,0,1.795-0.168,2.718-0.655l-0.302,1.812c-0.805,0.37-1.862,0.521-2.751,0.521c-2.719,0-4.111-1.46-4.111-3.59
			c0-2.937,1.828-5.454,4.95-5.454c2.164,0,3.373,1.108,3.373,3.238c0,0.571-0.067,1.192-0.218,1.913H529.204z M533.332,471.964
			c0.016-0.117,0.034-0.284,0.034-0.453c0-1.09-0.555-1.627-1.561-1.627c-1.142,0-2.047,0.755-2.383,2.08H533.332z"/>
		<path fill="#231815" d="M542.605,470.487c-0.654-0.368-1.342-0.537-1.996-0.537c-0.89,0-1.377,0.302-1.377,0.856
			c0,0.469,0.235,0.704,1.225,1.325c1.007,0.638,1.695,1.259,1.695,2.416c0,1.914-1.493,2.819-3.59,2.819
			c-1.074,0-2.131-0.218-2.954-0.587l0.521-1.778c0.738,0.419,1.678,0.67,2.45,0.67c0.889,0,1.325-0.318,1.325-0.923
			c0-0.385-0.201-0.755-1.208-1.376c-1.376-0.855-1.762-1.476-1.762-2.416c0-1.661,1.476-2.634,3.642-2.634
			c0.839,0,1.745,0.167,2.5,0.487L542.605,470.487z"/>
		<path fill="#231815" d="M549.984,470.487c-0.654-0.368-1.342-0.537-1.996-0.537c-0.89,0-1.377,0.302-1.377,0.856
			c0,0.469,0.235,0.704,1.225,1.325c1.007,0.638,1.695,1.259,1.695,2.416c0,1.914-1.493,2.819-3.59,2.819
			c-1.074,0-2.131-0.218-2.954-0.587l0.521-1.778c0.738,0.419,1.678,0.67,2.45,0.67c0.889,0,1.325-0.318,1.325-0.923
			c0-0.385-0.201-0.755-1.208-1.376c-1.376-0.855-1.762-1.476-1.762-2.416c0-1.661,1.476-2.634,3.642-2.634
			c0.839,0,1.745,0.167,2.5,0.487L549.984,470.487z"/>
	</g>
	<g>
		<path fill="#231815" d="M427.557,413.843l4.648,0.99v-4.731l-4.648-1.007v-2.349l11.712,2.516v2.316l-5.134-1.074v4.732
			l5.134,1.09v2.333l-11.712-2.484V413.843z"/>
		<path fill="#231815" d="M435.578,404.185c0.135,0.016,0.219,0.016,0.269,0.016c1.241,0,1.947-0.805,1.947-2.282
			c0-0.905-0.168-1.795-0.655-2.718l1.812,0.302c0.37,0.805,0.521,1.862,0.521,2.751c0,2.719-1.46,4.111-3.59,4.111
			c-2.937,0-5.454-1.828-5.454-4.95c0-2.164,1.108-3.373,3.238-3.373c0.571,0,1.192,0.067,1.913,0.218V404.185z M434.068,400.056
			c-0.117-0.016-0.284-0.034-0.453-0.034c-1.09,0-1.627,0.555-1.627,1.561c0,1.142,0.755,2.047,2.08,2.383V400.056z"/>
		<path fill="#231815" d="M426.836,392.511l2.131,0.47v2.248l-2.131-0.487V392.511z M430.628,393.266l8.642,1.846v2.216l-8.642-1.83
			V393.266z"/>
		<path fill="#231815" d="M440.511,392.513c0.454-0.956,0.689-1.979,0.689-2.802c0-1.762-0.907-2.735-3.424-3.189v0.034
			c0.84,0.537,1.427,1.325,1.427,2.601c0,2.065-1.444,3.171-3.457,3.171c-3.071,0-5.319-1.929-5.319-4.447
			c0-1.208,0.469-2.013,1.476-2.484v-0.033l-1.275-0.252v-2.131l8.139,1.711c2.802,0.587,4.228,2.148,4.228,5.084
			c0,1.04-0.234,2.215-0.654,3.322L440.511,392.513z M435.511,390.08c1.208,0,2.031-0.503,2.031-1.627
			c0-1.527-1.729-2.55-3.424-2.55c-1.225,0-2.046,0.604-2.046,1.627C432.072,388.889,433.665,390.08,435.511,390.08z"/>
		<path fill="#231815" d="M429.605,378.172c0.587,0.133,1.796,0.436,2.198,0.553v-0.034c-0.957-0.638-1.376-1.611-1.376-2.466
			c0-1.896,1.141-2.853,2.751-2.853c0.521,0,1.108,0.084,1.896,0.253l4.195,0.905v2.182l-4.211-0.907
			c-0.788-0.167-1.242-0.252-1.645-0.252c-0.772,0-1.275,0.42-1.275,1.259c0,0.905,0.537,1.51,1.342,1.947
			c0.555,0.302,1.377,0.553,2.685,0.822l3.105,0.654v2.182l-12.686-2.685v-2.216L429.605,378.172z"/>
		<path fill="#231815" d="M428.8,369.435l-0.806-2.316l2.634,0.554v-2.064l1.611,0.335v2.065l3.793,0.788
			c0.336,0.067,0.587,0.101,0.738,0.101c0.519,0,0.839-0.269,0.839-0.99c0-0.285-0.05-0.605-0.151-0.923l1.762,0.352
			c0.135,0.47,0.167,0.907,0.167,1.259c0,1.627-0.839,2.5-2.281,2.5c-0.487,0-1.041-0.101-1.679-0.235l-3.188-0.704v1.627
			l-1.611-0.336v-1.627L428.8,369.435z"/>
	</g>
	<g>
		<path fill="#231815" d="M503.945,445.522c0,6.353-2.328,10.149-6.497,10.149c-4.199,0-6.526-3.824-6.526-10.323
			c0-6.67,2.271-10.321,6.728-10.321C501.732,435.027,503.945,438.88,503.945,445.522z M492.416,445.321
			c0,6.067,1.782,9.114,4.974,9.114c3.191,0,5.089-3.106,5.089-9.057c0-6.009-1.869-9.086-5.089-9.086
			C494.227,436.292,492.416,439.369,492.416,445.321z"/>
	</g>
	<g>
		<path fill="#231815" d="M469.153,409.05c0,6.353-2.328,10.149-6.497,10.149c-4.199,0-6.526-3.824-6.526-10.323
			c0-6.67,2.271-10.321,6.728-10.321C466.94,398.556,469.153,402.408,469.153,409.05z M457.624,408.849
			c0,6.067,1.782,9.114,4.974,9.114c3.191,0,5.089-3.106,5.089-9.057c0-6.009-1.869-9.086-5.089-9.086
			C459.435,399.82,457.624,402.897,457.624,408.849z"/>
	</g>
	<g>
		<path fill="#231815" d="M415.076,81.103h-1.38V67.877c0-1.667,0.057-4.399,0.115-5.406h-0.057c-0.69,0.662-1.84,1.639-2.53,2.185
			l-1.265,1.035l-0.748-0.919l4.629-3.739h1.237V81.103z"/>
		<path fill="#231815" d="M436.379,71.241c0,6.353-2.328,10.149-6.497,10.149c-4.199,0-6.527-3.824-6.527-10.323
			c0-6.67,2.271-10.321,6.728-10.321C434.166,60.747,436.379,64.599,436.379,71.241z M424.85,71.04c0,6.067,1.782,9.114,4.974,9.114
			c3.191,0,5.089-3.106,5.089-9.057c0-6.009-1.869-9.086-5.089-9.086C426.661,62.011,424.85,65.088,424.85,71.04z"/>
		<path fill="#231815" d="M452.766,71.241c0,6.353-2.328,10.149-6.497,10.149c-4.199,0-6.526-3.824-6.526-10.323
			c0-6.67,2.271-10.321,6.728-10.321C450.553,60.747,452.766,64.599,452.766,71.241z M441.237,71.04
			c0,6.067,1.782,9.114,4.974,9.114c3.191,0,5.089-3.106,5.089-9.057c0-6.009-1.869-9.086-5.089-9.086
			C443.048,62.011,441.237,65.088,441.237,71.04z"/>
		<path fill="#231815" d="M469.153,71.241c0,6.353-2.328,10.149-6.497,10.149c-4.199,0-6.526-3.824-6.526-10.323
			c0-6.67,2.271-10.321,6.728-10.321C466.94,60.747,469.153,64.599,469.153,71.241z M457.624,71.04c0,6.067,1.782,9.114,4.974,9.114
			c3.191,0,5.089-3.106,5.089-9.057c0-6.009-1.869-9.086-5.089-9.086C459.435,62.011,457.624,65.088,457.624,71.04z"/>
	</g>
	<g>
		<path fill="#231815" d="M810.237,455.385h-1.38v-13.226c0-1.667,0.057-4.399,0.115-5.406h-0.057
			c-0.69,0.662-1.84,1.639-2.53,2.185l-1.265,1.035l-0.747-0.919l4.629-3.739h1.237V455.385z"/>
		<path fill="#231815" d="M831.54,445.523c0,6.353-2.328,10.149-6.497,10.149c-4.199,0-6.526-3.824-6.526-10.323
			c0-6.67,2.271-10.321,6.728-10.321C829.327,435.029,831.54,438.881,831.54,445.523z M820.011,445.322
			c0,6.067,1.782,9.114,4.974,9.114c3.191,0,5.089-3.106,5.089-9.057c0-6.009-1.869-9.086-5.089-9.086
			C821.822,436.293,820.011,439.37,820.011,445.322z"/>
		<path fill="#231815" d="M847.927,445.523c0,6.353-2.328,10.149-6.497,10.149c-4.199,0-6.527-3.824-6.527-10.323
			c0-6.67,2.271-10.321,6.728-10.321C845.714,435.029,847.927,438.881,847.927,445.523z M836.398,445.322
			c0,6.067,1.782,9.114,4.974,9.114c3.191,0,5.089-3.106,5.089-9.057c0-6.009-1.869-9.086-5.089-9.086
			C838.209,436.293,836.398,439.37,836.398,445.322z"/>
		<path fill="#231815" d="M864.314,445.523c0,6.353-2.328,10.149-6.497,10.149c-4.198,0-6.526-3.824-6.526-10.323
			c0-6.67,2.271-10.321,6.728-10.321C862.101,435.029,864.314,438.881,864.314,445.523z M852.785,445.322
			c0,6.067,1.782,9.114,4.974,9.114c3.191,0,5.089-3.106,5.089-9.057c0-6.009-1.869-9.086-5.089-9.086
			C854.596,436.293,852.785,439.37,852.785,445.322z"/>
	</g>
</g>
<g>
	
		<line fill="none" stroke="#888888" stroke-width="0.78" stroke-miterlimit="10" x1="275.994" y1="337.712" x2="136.338" y2="257.082"/>
	<polygon fill="none" stroke="#C8C9CA" stroke-width="0.78" stroke-miterlimit="10" points="226.289,251.623 86.634,170.993 
		186.041,113.6 325.697,194.23 	"/>
	<polygon fill="none" stroke="#C8C9CA" stroke-width="0.78" stroke-miterlimit="10" points="325.698,309.015 226.289,366.409 
		226.289,251.623 325.698,194.23 	"/>
	
		<line fill="none" stroke="#888888" stroke-width="0.78" stroke-miterlimit="10" x1="275.994" y1="222.926" x2="275.994" y2="337.712"/>
	<polygon fill="none" stroke="#C8C9CA" stroke-width="0.78" stroke-miterlimit="10" points="186.043,228.385 86.634,285.779 
		86.634,170.993 186.043,113.599 	"/>
	
		<line fill="none" stroke="#888888" stroke-width="0.78" stroke-miterlimit="10" x1="136.338" y1="142.296" x2="136.338" y2="257.082"/>
	
		<line fill="none" stroke="#888888" stroke-width="0.78" stroke-miterlimit="10" x1="206.165" y1="182.612" x2="206.165" y2="297.398"/>
	<g>
		<g>
			<rect x="176.013" y="216.014" fill="#FAFAFA" width="20.236" height="19.057"/>
		</g>
		<g opacity="0.5">
			<path fill="#DFA839" d="M195.144,233.965h-5.924v-1.685h0.28c0.393,0,1.207,0,1.6,0l-2.246-6.036l-2.668-7.216l-5.194,13.252
				c0.393,0,0.842,0,1.236,0h0.73v1.685h-5.84v-1.685h0.309c0.477,0,1.236,0,1.712,0l6.29-15.161c0.73,0,1.151,0,1.881,0
				l5.784,15.106c0.478,0,1.292,0,1.769,0h0.28V233.965z M182.482,225.599h6.485l0.533,1.684h-7.075L182.482,225.599z"/>
		</g>
	</g>
	<g>
		<g>
			<rect x="246.917" y="255.102" fill="#FAFAFA" width="19.31" height="19.608"/>
		</g>
		<g opacity="0.5">
			<path fill="#DFA839" d="M265.122,273.605h-5.925v-0.842h0.842c0.393,0,0.814,0,1.207,0l-2.976-7.552l-2.162-5.615l-5.222,13.168
				c0.393,0,0.814,0,1.207,0h0.73v0.842h-4.801v-0.842h0.309c0.477,0,0.954,0,1.432,0l6.795-16.397c0.084-0.225,0.197-0.197,0.28,0
				l6.598,16.397c0.478,0,0.927,0,1.404,0h0.281V273.605z M253.189,265.238h5.615v1.011h-5.727L253.189,265.238z"/>
		</g>
	</g>
	<polyline fill="none" stroke="#C8C9CA" stroke-width="0.78" stroke-miterlimit="10" points="325.698,309.015 275.993,280.32 
		226.289,251.623 	"/>
	<g>
		<g>
			<rect x="197.214" y="283.577" fill="#FAFAFA" width="19.31" height="19.608"/>
		</g>
		<g>
			<path fill="#231815" d="M215.418,302.08h-5.925v-0.842h0.842c0.393,0,0.814,0,1.207,0l-2.976-7.552l-2.162-5.615l-5.222,13.168
				c0.393,0,0.814,0,1.207,0h0.73v0.842h-4.801v-0.842h0.309c0.477,0,0.954,0,1.432,0l6.795-16.397c0.084-0.225,0.197-0.197,0.28,0
				l6.598,16.397c0.478,0,0.927,0,1.404,0h0.281V302.08z M203.486,293.713h5.615v1.011h-5.727L203.486,293.713z"/>
		</g>
		<g>
			<path fill="#231815" d="M215.418,302.08h-5.925v-0.842h0.842c0.393,0,0.814,0,1.207,0l-2.976-7.552l-2.162-5.615l-5.222,13.168
				c0.393,0,0.814,0,1.207,0h0.73v0.842h-4.801v-0.842h0.309c0.477,0,0.954,0,1.432,0l6.795-16.397c0.084-0.225,0.197-0.197,0.28,0
				l6.598,16.397c0.478,0,0.927,0,1.404,0h0.281V302.08z M203.486,293.713h5.615v1.011h-5.727L203.486,293.713z"/>
		</g>
	</g>
	
		<line fill="none" stroke="#888888" stroke-width="0.78" stroke-miterlimit="10" x1="136.338" y1="142.297" x2="275.993" y2="222.927"/>
	<g>
		<g>
			<rect x="197.186" y="229.11" fill="#FAFAFA" width="19.366" height="19.608"/>
		</g>
		<g>
			<path fill="#231815" d="M215.446,247.613h-5.953v-0.786l0.759-0.085c0.477-0.056,0.87-0.225,1.095-0.477l-2.78-7.047
				l-2.162-5.615l-5.026,12.663c0.225,0.252,0.618,0.421,1.067,0.477l0.702,0.113v0.758h-4.857v-0.758l0.393-0.113
				c0.617-0.084,1.151-0.252,1.628-0.561l6.542-15.807c0.084-0.225,0.197-0.197,0.28,0l6.373,15.807
				c0.478,0.309,1.011,0.506,1.657,0.618l0.281,0.028V247.613z M203.486,239.246h5.615v1.011h-5.727L203.486,239.246z"/>
		</g>
		<g>
			<path fill="#E51373" d="M215.446,247.613h-5.953v-0.786l0.759-0.085c0.477-0.056,0.87-0.225,1.095-0.477l-2.78-7.047
				l-2.162-5.615l-5.026,12.663c0.225,0.252,0.618,0.421,1.067,0.477l0.702,0.113v0.758h-4.857v-0.758l0.393-0.113
				c0.617-0.084,1.151-0.252,1.628-0.561l6.542-15.807c0.084-0.225,0.197-0.197,0.28,0l6.373,15.807
				c0.478,0.309,1.011,0.506,1.657,0.618l0.281,0.028V247.613z M203.486,239.246h5.615v1.011h-5.727L203.486,239.246z"/>
		</g>
	</g>
	<g>
		<g>
			<rect x="126.458" y="187.92" fill="#FAFAFA" width="20.18" height="19.057"/>
		</g>
		<g>
			<path fill="#231815" d="M145.533,205.872h-5.924v-1.488l0.449-0.056c0.477-0.028,1.066-0.197,1.319-0.421l-2.134-5.756
				l-2.668-7.216l-5.082,12.971c0.253,0.225,0.674,0.365,1.152,0.421l0.702,0.056v1.488h-5.784v-1.488l0.533-0.056
				c0.562-0.056,1.18-0.168,1.629-0.421l6.177-14.881c0.702,0,1.095,0,1.797,0l5.672,14.825c0.449,0.253,1.123,0.393,1.685,0.421
				l0.477,0.056V205.872z M132.871,197.505h6.485l0.533,1.572h-7.075L132.871,197.505z"/>
		</g>
		<g>
			<path fill="#231815" d="M145.533,205.872h-5.924v-1.488l0.449-0.056c0.477-0.028,1.066-0.197,1.319-0.421l-2.134-5.756
				l-2.668-7.216l-5.082,12.971c0.253,0.225,0.674,0.365,1.152,0.421l0.702,0.056v1.488h-5.784v-1.488l0.533-0.056
				c0.562-0.056,1.18-0.168,1.629-0.421l6.177-14.881c0.702,0,1.095,0,1.797,0l5.672,14.825c0.449,0.253,1.123,0.393,1.685,0.421
				l0.477,0.056V205.872z M132.871,197.505h6.485l0.533,1.572h-7.075L132.871,197.505z"/>
		</g>
	</g>
	<g>
		<g>
			<rect x="126.543" y="130.678" fill="#FAFAFA" width="20.095" height="19.057"/>
		</g>
		<g>
			<path fill="#231815" d="M145.533,148.63h-5.924v-1.264l0.59-0.112c0.59-0.113,0.983-0.421,1.066-0.871l-2.021-5.474l-2.668-7.216
				l-4.969,12.69c0.112,0.421,0.477,0.758,1.095,0.842l0.646,0.14v1.264h-5.699v-1.264l0.758-0.14
				c0.618-0.085,1.123-0.365,1.488-0.842l6.065-14.6c0.674,0,1.067,0,1.741,0l5.56,14.544c0.393,0.477,0.926,0.758,1.572,0.87
				l0.702,0.113V148.63z M132.871,140.263h6.485l0.533,1.46h-7.075L132.871,140.263z"/>
		</g>
		<g>
			<path fill="#231815" d="M145.533,148.63h-5.924v-1.264l0.59-0.112c0.59-0.113,0.983-0.421,1.066-0.871l-2.021-5.474l-2.668-7.216
				l-4.969,12.69c0.112,0.421,0.477,0.758,1.095,0.842l0.646,0.14v1.264h-5.699v-1.264l0.758-0.14
				c0.618-0.085,1.123-0.365,1.488-0.842l6.065-14.6c0.674,0,1.067,0,1.741,0l5.56,14.544c0.393,0.477,0.926,0.758,1.572,0.87
				l0.702,0.113V148.63z M132.871,140.263h6.485l0.533,1.46h-7.075L132.871,140.263z"/>
		</g>
	</g>
	<g>
		<g>
			<rect x="126.844" y="244.773" fill="#FAFAFA" width="20.236" height="19.057"/>
		</g>
		<g>
			<path fill="#231815" d="M145.975,262.724h-5.924v-1.685h0.28c0.393,0,1.207,0,1.6,0l-2.246-6.036l-2.668-7.216l-5.194,13.252
				c0.393,0,0.842,0,1.236,0h0.73v1.685h-5.84v-1.685h0.309c0.477,0,1.236,0,1.712,0l6.29-15.161c0.73,0,1.151,0,1.881,0
				l5.784,15.106c0.478,0,1.292,0,1.769,0h0.28V262.724z M133.312,254.358h6.485l0.533,1.684h-7.075L133.312,254.358z"/>
		</g>
		<g>
			<path fill="#231815" d="M145.975,262.724h-5.924v-1.685h0.28c0.393,0,1.207,0,1.6,0l-2.246-6.036l-2.668-7.216l-5.194,13.252
				c0.393,0,0.842,0,1.236,0h0.73v1.685h-5.84v-1.685h0.309c0.477,0,1.236,0,1.712,0l6.29-15.161c0.73,0,1.151,0,1.881,0
				l5.784,15.106c0.478,0,1.292,0,1.769,0h0.28V262.724z M133.312,254.358h6.485l0.533,1.684h-7.075L133.312,254.358z"/>
		</g>
	</g>
	<polygon fill="none" stroke="#C8C9CA" stroke-width="0.78" stroke-miterlimit="10" points="226.289,366.409 86.634,285.779 
		86.634,170.993 226.289,251.623 	"/>
	<g>
		<g>
			<rect x="246.363" y="142.745" fill="#FAFAFA" width="19.534" height="19.608"/>
		</g>
		<g opacity="0.5">
			<path fill="#DFA839" d="M264.792,161.248h-6.064v-0.561l0.561-0.365c0.393-0.253,0.786-0.506,1.179-0.759l-2.639-6.71
				l-2.162-5.615l-4.886,12.298c0.366,0.28,0.759,0.533,1.124,0.814l0.533,0.365v0.533h-4.969v-0.533l0.674-0.393
				c0.533-0.309,1.066-0.618,1.6-0.927l6.373-15.386c0.084-0.225,0.197-0.197,0.28,0l6.177,15.358
				c0.646,0.393,1.292,0.759,1.938,1.152l0.28,0.168V161.248z M252.748,152.881h5.615v1.011h-5.727L252.748,152.881z"/>
		</g>
	</g>
	<g>
		<g>
			<rect x="316.023" y="183.06" fill="#FAFAFA" width="19.731" height="19.608"/>
		</g>
		<g opacity="0.5">
			<path fill="#DFA839" d="M334.648,201.563h-5.644v-0.14l0.421-0.225c0.393-0.197,0.758-0.421,1.151-0.618l-2.92-7.412
				l-2.527-6.542l-5.756,13.954c0.477,0.225,0.926,0.421,1.404,0.646l0.477,0.197v0.14h-4.127v-0.14l0.618-0.253
				c0.477-0.197,0.983-0.393,1.459-0.59l6.739-16.257c0.084-0.225,0.197-0.197,0.28,0l6.542,16.257
				c0.449,0.197,0.927,0.421,1.376,0.618l0.505,0.225V201.563z M322.154,193.617h6.036v0.14h-6.092L322.154,193.617z"/>
		</g>
	</g>
	<g>
		<g>
			<rect x="197.157" y="171.245" fill="#FAFAFA" width="19.421" height="19.608"/>
		</g>
		<g>
			<path fill="#231815" d="M215.473,189.747h-5.98v-0.702l0.702-0.197c0.561-0.112,0.898-0.477,0.954-0.926l-2.583-6.57
				l-2.162-5.615l-4.829,12.157c0.056,0.478,0.393,0.842,0.954,0.983l0.646,0.169v0.702h-4.913v-0.702l0.505-0.197
				c0.73-0.14,1.32-0.505,1.769-1.095l6.318-15.246c0.084-0.225,0.197-0.197,0.28,0l6.121,15.218
				c0.505,0.646,1.151,1.039,1.937,1.236l0.28,0.085V189.747z M203.485,181.381h5.615v1.011h-5.727L203.485,181.381z"/>
		</g>
		<g>
			<path fill="#231815" d="M215.473,189.747h-5.98v-0.702l0.702-0.197c0.561-0.112,0.898-0.477,0.954-0.926l-2.583-6.57
				l-2.162-5.615l-4.829,12.157c0.056,0.478,0.393,0.842,0.954,0.983l0.646,0.169v0.702h-4.913v-0.702l0.505-0.197
				c0.73-0.14,1.32-0.505,1.769-1.095l6.318-15.246c0.084-0.225,0.197-0.197,0.28,0l6.121,15.218
				c0.505,0.646,1.151,1.039,1.937,1.236l0.28,0.085V189.747z M203.485,181.381h5.615v1.011h-5.727L203.485,181.381z"/>
		</g>
	</g>
	<g>
		<g>
			<rect x="146.846" y="200.17" fill="#FAFAFA" width="19.31" height="19.608"/>
		</g>
		<g opacity="0.5">
			<path fill="#DFA839" d="M165.051,218.673h-5.925v-0.842h0.842c0.73,0,1.011-0.449,0.758-1.123l-2.527-6.43l-2.162-5.615
				l-4.773,12.017c-0.281,0.702,0.028,1.151,0.758,1.151h0.758v0.842h-4.829v-0.842h0.309c0.954,0,1.6-0.393,1.965-1.291
				l6.261-15.106c0.084-0.225,0.197-0.197,0.28,0l6.065,15.077c0.365,0.898,0.983,1.319,1.937,1.319h0.281V218.673z
				 M153.119,210.306h5.615v1.011h-5.727L153.119,210.306z"/>
		</g>
	</g>
	<g>
		<g>
			<rect x="216.995" y="238.579" fill="#FAFAFA" width="19.871" height="19.608"/>
		</g>
		<g opacity="0.5">
			<path fill="#DFA839" d="M235.761,257.082h-6.205v-0.14h0.421c1.152,0,1.629-0.702,1.207-1.797l-2.555-6.458l-2.527-6.542
				l-5.391,12.999c-0.449,1.095,0.056,1.797,1.207,1.797h0.308v0.14h-4.127v-0.14h0.056c1.151,0,1.881-0.506,2.33-1.572l6.43-15.527
				c0.084-0.225,0.197-0.197,0.28,0l6.233,15.527c0.421,1.066,1.151,1.572,2.302,1.572h0.028V257.082z M223.127,249.137h6.036v0.14
				h-6.092L223.127,249.137z"/>
		</g>
	</g>
	<g>
		<g>
			<rect x="266.699" y="267.276" fill="#FAFAFA" width="19.843" height="19.608"/>
		</g>
		<g>
			<path fill="#231815" d="M285.437,285.779h-5.784v-0.14l0.338-0.056c0.59-0.056,1.15-0.281,1.347-0.618l-3.004-7.581l-2.526-6.542
				l-5.841,14.122c0.197,0.337,0.675,0.561,1.264,0.618l0.561,0.056v0.14h-3.987v-0.14l0.309-0.056
				c0.673-0.056,1.207-0.225,1.685-0.561l6.822-16.481c0.084-0.225,0.197-0.197,0.28,0l6.627,16.481
				c0.477,0.337,0.983,0.505,1.629,0.561l0.28,0.056V285.779z M272.83,277.833h6.036v0.14h-6.092L272.83,277.833z"/>
		</g>
		<g>
			<path fill="#231815" d="M285.437,285.779h-5.784v-0.14l0.338-0.056c0.59-0.056,1.15-0.281,1.347-0.618l-3.004-7.581l-2.526-6.542
				l-5.841,14.122c0.197,0.337,0.675,0.561,1.264,0.618l0.561,0.056v0.14h-3.987v-0.14l0.309-0.056
				c0.673-0.056,1.207-0.225,1.685-0.561l6.822-16.481c0.084-0.225,0.197-0.197,0.28,0l6.627,16.481
				c0.477,0.337,0.983,0.505,1.629,0.561l0.28,0.056V285.779z M272.83,277.833h6.036v0.14h-6.092L272.83,277.833z"/>
		</g>
	</g>
	<g>
		<g>
			<rect x="266.699" y="212.161" fill="#FAFAFA" width="19.816" height="19.608"/>
		</g>
		<g>
			<path fill="#231815" d="M285.409,230.664h-5.925v-0.14l0.42-0.113c0.759-0.112,1.179-0.561,1.179-1.207l-2.751-6.935
				l-2.526-6.542l-5.559,13.476c0,0.646,0.477,1.095,1.29,1.207l0.393,0.113v0.14h-4.127v-0.14l0.337-0.141
				c0.815-0.084,1.432-0.449,1.91-1.066l6.569-15.892c0.084-0.225,0.197-0.197,0.28,0l6.401,15.892
				c0.422,0.618,1.039,0.983,1.825,1.095l0.282,0.113V230.664z M272.83,222.718h6.036v0.14h-6.092L272.83,222.718z"/>
		</g>
		<g>
			<path fill="#231815" d="M285.409,230.664h-5.925v-0.14l0.42-0.113c0.759-0.112,1.179-0.561,1.179-1.207l-2.751-6.935
				l-2.526-6.542l-5.559,13.476c0,0.646,0.477,1.095,1.29,1.207l0.393,0.113v0.14h-4.127v-0.14l0.337-0.141
				c0.815-0.084,1.432-0.449,1.91-1.066l6.569-15.892c0.084-0.225,0.197-0.197,0.28,0l6.401,15.892
				c0.422,0.618,1.039,0.983,1.825,1.095l0.282,0.113V230.664z M272.83,222.718h6.036v0.14h-6.092L272.83,222.718z"/>
		</g>
	</g>
	<g>
		<g>
			<rect x="146.846" y="311.61" fill="#FAFAFA" width="19.31" height="19.608"/>
		</g>
		<g opacity="0.5">
			<path fill="#DFA839" d="M165.051,330.113h-5.925v-0.842h0.842c0.393,0,0.814,0,1.207,0l-2.976-7.552l-2.162-5.615l-5.222,13.168
				c0.393,0,0.814,0,1.207,0h0.73v0.842h-4.801v-0.842h0.309c0.477,0,0.954,0,1.432,0l6.795-16.397c0.084-0.225,0.197-0.197,0.28,0
				l6.598,16.397c0.478,0,0.927,0,1.404,0h0.281V330.113z M153.119,321.746h5.615v1.011h-5.727L153.119,321.746z"/>
		</g>
	</g>
	<g>
		<g>
			<rect x="266.758" y="322.308" fill="#FAFAFA" width="19.871" height="19.608"/>
		</g>
		<g>
			<path fill="#231815" d="M285.524,340.811h-5.643v-0.14h0.28c0.393,0,1.095,0,1.488,0l-3.257-8.255l-2.526-6.542l-6.121,14.796
				c0.393,0,0.842,0,1.236,0h0.73v0.14h-3.847v-0.14h0.309c0.477,0,0.954,0,1.432,0l7.075-17.099c0.084-0.225,0.197-0.197,0.28,0
				l6.88,17.099c0.477,0,0.926,0,1.403,0h0.28V340.811z M272.89,332.866h6.036v0.14h-6.092L272.89,332.866z"/>
		</g>
		<g>
			<path fill="#231815" d="M285.524,340.811h-5.643v-0.14h0.28c0.393,0,1.095,0,1.488,0l-3.257-8.255l-2.526-6.542l-6.121,14.796
				c0.393,0,0.842,0,1.236,0h0.73v0.14h-3.847v-0.14h0.309c0.477,0,0.954,0,1.432,0l7.075-17.099c0.084-0.225,0.197-0.197,0.28,0
				l6.88,17.099c0.477,0,0.926,0,1.403,0h0.28V340.811z M272.89,332.866h6.036v0.14h-6.092L272.89,332.866z"/>
		</g>
	</g>
	<g>
		<g>
			<rect x="316.464" y="294.054" fill="#FAFAFA" width="19.871" height="19.608"/>
		</g>
		<g opacity="0.5">
			<path fill="#DFA839" d="M335.229,312.557h-5.643v-0.14h0.28c0.393,0,1.095,0,1.488,0l-3.257-8.255l-2.527-6.542l-6.121,14.796
				c0.393,0,0.842,0,1.236,0h0.731v0.14h-3.847v-0.14h0.308c0.478,0,0.955,0,1.432,0l7.076-17.099c0.084-0.225,0.197-0.197,0.28,0
				l6.878,17.099c0.477,0,0.926,0,1.405,0h0.28V312.557z M322.595,304.611h6.036v0.14h-6.092L322.595,304.611z"/>
		</g>
	</g>
	<g>
		<g>
			<rect x="216.995" y="352.243" fill="#FAFAFA" width="19.871" height="19.608"/>
		</g>
		<g opacity="0.5">
			<path fill="#DFA839" d="M235.761,370.746h-5.643v-0.14h0.28c0.393,0,1.095,0,1.488,0l-3.257-8.255l-2.527-6.542l-6.121,14.796
				c0.393,0,0.842,0,1.236,0h0.73v0.14h-3.847v-0.14h0.308c0.478,0,0.954,0,1.432,0l7.076-17.099c0.084-0.225,0.197-0.197,0.28,0
				l6.879,17.099c0.477,0,0.926,0,1.404,0h0.28V370.746z M223.127,362.8h6.036v0.14h-6.092L223.127,362.8z"/>
		</g>
	</g>
	<g>
		<g>
			<rect x="76.751" y="273.211" fill="#FAFAFA" width="20.236" height="19.057"/>
		</g>
		<g opacity="0.5">
			<path fill="#DFA839" d="M95.882,291.162h-5.924v-1.685h0.28c0.393,0,1.207,0,1.6,0l-2.246-6.036l-2.668-7.216l-5.194,13.252
				c0.393,0,0.842,0,1.236,0h0.73v1.685h-5.84v-1.685h0.309c0.477,0,1.236,0,1.712,0l6.29-15.161c0.73,0,1.151,0,1.881,0
				l5.784,15.106c0.478,0,1.292,0,1.769,0h0.28V291.162z M83.22,282.796h6.485l0.533,1.684h-7.075L83.22,282.796z"/>
		</g>
	</g>
	<g>
		<g>
			<rect x="76.92" y="159.285" fill="#FAFAFA" width="20.152" height="19.057"/>
		</g>
		<g opacity="0.5">
			<path fill="#DFA839" d="M95.966,177.237h-5.925v-1.404h0.674c0.73,0,1.039-0.421,0.786-1.123l-1.909-5.194l-2.668-7.216
				l-4.857,12.41c-0.252,0.673,0.028,1.123,0.759,1.123h0.758v1.404h-5.559v-1.404h0.842c0.786,0,1.32-0.337,1.629-1.095
				l5.952-14.348c0.618,0,0.983,0,1.6,0l5.447,14.291c0.281,0.758,0.814,1.095,1.6,1.095h0.871V177.237z M83.22,168.87h6.485
				l0.533,1.404h-7.075L83.22,168.87z"/>
		</g>
	</g>
	<g>
		<g>
			<rect x="176.347" y="104.149" fill="#FAFAFA" width="20.012" height="19.057"/>
		</g>
		<g opacity="0.5">
			<path fill="#DFA839" d="M195.253,122.101h-5.925v-1.123l0.534-0.225c0.449-0.197,0.898-0.421,1.347-0.618l-2.134-5.756
				l-2.668-7.216l-5.082,12.971c0.478,0.197,0.927,0.393,1.404,0.59l0.562,0.253v1.123h-5.84v-1.123l0.646-0.253
				c0.449-0.197,0.926-0.393,1.376-0.59l6.177-14.881c0.73,0,1.151,0,1.881,0l5.672,14.825c0.505,0.197,1.039,0.421,1.544,0.618
				l0.506,0.225V122.101z M182.703,113.734h6.485l0.533,1.544h-7.075L182.703,113.734z"/>
		</g>
	</g>
	<polygon opacity="0.2" fill="#E7AC35" points="275.994,337.712 275.994,222.926 136.338,142.296 136.338,257.082 	"/>
</g>
</svg>
