<svg id="レイヤー_1" data-name="レイヤー 1" xmlns="http://www.w3.org/2000/svg" viewBox="0 0 531.22 500"><defs><style>.cls-1{fill:#898989;}.cls-2{fill:#fff;}.cls-3,.cls-6{fill:#231815;}.cls-4{fill:#e61673;}.cls-5{fill:#13ae67;}.cls-6{font-size:15px;font-family:FrutigerNeueLTCYR-HeavyIt, Frutiger Neue LT CYR;font-style:italic;}.cls-7{letter-spacing:-0.01em;}.cls-8{letter-spacing:-0.02em;}</style></defs><title>アートボード 1</title><path class="cls-1" d="M278.84,268.41l-.33-.19L40.15,130.6,210.44,32.29l.33.19L449.13,170.09ZM42.8,130.6l236,136.28,167.63-96.78-236-136.28Z"/><polygon class="cls-1" points="329.78 296.67 328.46 296.67 328.46 102.72 160.49 199.69 159.83 198.55 329.78 100.42 329.78 296.67"/><polygon class="cls-1" points="159.5 395.37 159.5 199.12 160.82 199.12 160.82 393.07 328.79 296.1 329.45 297.24 159.5 395.37"/><path class="cls-1" d="M278.18,463.89V267.26l.33-.19,170-98.12V365.57l-.33.19ZM279.51,268V461.59l167.64-96.79V171.24Z"/><path class="cls-1" d="M364,415.11l-86.47-49.92L362.66,316V217.72l86.47,49.92L364,316.8Zm-83.82-49.92,82.49,47.63V317.56ZM364,220v95.25l82.49-47.63Z"/><path class="cls-1" d="M40.81,326.85V130.22l.33-.19,170-98.12V228.53l-.33.19ZM42.14,131V324.55l167.64-96.78V34.2Z"/><rect class="cls-1" x="125.29" y="81.82" width="1.33" height="195.1"/><rect class="cls-1" x="28.41" y="178.71" width="195.1" height="1.33" transform="translate(-72.8 86.99) rotate(-29.99)"/><rect class="cls-1" x="243.98" y="150.35" width="1.33" height="195.1"/><rect class="cls-2" x="193.39" y="207.12" width="34.39" height="32.39"/><path class="cls-3" d="M225.91,237.63H215.84v-2.86H219l-3.82-10.26-4.53-12.26-8.83,22.52h3.34v2.86h-9.93v-2.86h3.44L209.4,209h3.2l9.83,25.67h3.48Zm-21.52-14.22h11l.91,2.86h-12Z"/><rect class="cls-2" x="313.9" y="273.56" width="32.82" height="33.33"/><path class="cls-3" d="M344.85,305H334.78v-1.43h3.48l-5.06-12.84-3.67-9.54-8.88,22.38h3.29V305h-8.16v-1.43h3l11.55-27.87c.14-.38.33-.33.48,0L342,303.57h2.86Zm-20.28-14.22h9.54v1.72h-9.74Z"/><rect class="cls-1" x="362.66" y="218.87" width="1.33" height="195.1" transform="translate(-92.36 472.86) rotate(-60)"/><rect class="cls-2" x="193.49" y="110.7" width="34.2" height="32.39"/><path class="cls-3" d="M225.81,141.21H215.74v-2.39l.72-.19c.72-.19,1.77-.38,2.48-.53l-3.72-10-4.53-12.26L202,138.11c.76.14,1.53.33,2.24.48l1.1.24v2.39h-9.93v-2.39l.81-.24,2.62-.48,10.59-25.53h3.2L222.33,138c.86.14,2,.33,2.81.53l.67.19ZM204.39,127h11l.91,2.72h-12Z"/><path class="cls-3" d="M225.14,138.54c-.81-.19-2-.38-2.81-.53l-9.74-25.43h-3.2L198.8,138.11l-2.62.48-.81.24v2.39h9.93v-2.39l-1.1-.24c-.72-.14-1.48-.33-2.24-.48l3.29-8.4h10.58l3.12,8.4c-.72.14-1.77.33-2.48.53l-.72.19v2.39h10.07v-2.48Zm-14.46-22.71L214.81,127h-8.5Z"/><rect class="cls-2" x="229.43" y="321.95" width="32.82" height="33.33"/><path class="cls-3" d="M260.37,353.4H250.3V352h3.48l-5.06-12.84L245,329.59,236.17,352h3.29v1.43H231.3V352h3l11.55-27.87c.14-.38.33-.33.48,0L257.5,352h2.86Zm-20.28-14.22h9.54v1.72h-9.74Z"/><path class="cls-3" d="M259.89,352H257.5L246.29,324.1c-.14-.33-.33-.38-.48,0L234.26,352h-3v1.43h8.16V352h-3.29l4.39-11.07h8.86L253.78,352H250.3v1.43h10.07V352Zm-18.64-12.79,3.8-9.59,3.67,9.54,0,0Z"/><rect class="cls-1" x="147.09" y="247.23" width="195.1" height="1.33" transform="translate(-91.21 155.66) rotate(-30.02)"/><rect class="cls-2" x="313.81" y="181.5" width="33.01" height="33.33"/><path class="cls-3" d="M344.94,212.94H334.78v-1.19l1.19-.34c.67-.19,1.34-.43,2-.62l-4.77-12.12-3.67-9.54-8.59,21.62,2,.72,1.05.29v1.19h-8.3v-1.19l.86-.34c.86-.24,1.72-.52,2.58-.76l11.17-27c.14-.38.33-.33.48,0l10.88,27,2.81,1,.48.14Zm-20.38-14.22h9.54v1.72h-9.74Z"/><path class="cls-3" d="M344.46,211.61l-2.81-1-10.88-27c-.14-.33-.33-.38-.48,0l-11.17,27c-.86.24-1.72.52-2.58.76l-.86.34v1.19H324v-1.19l-1.05-.29-2-.72,4.1-10.31h8.86L338,210.8c-.67.19-1.34.43-2,.62l-1.19.34v1.19h10.16v-1.19Zm-18.75-12.88,3.81-9.59,3.67,9.54,0,0Z"/><rect class="cls-1" x="243.98" y="13.3" width="1.33" height="274.09" transform="translate(-7.88 287.04) rotate(-60)"/><rect class="cls-2" x="229.38" y="229.38" width="32.92" height="33.33"/><path class="cls-3" d="M260.41,260.83H250.3v-1.34l1.29-.14a2.94,2.94,0,0,0,1.86-.81l-4.72-12L245,237l-8.54,21.52a2.92,2.92,0,0,0,1.81.81l1.19.19v1.29h-8.25v-1.29l.67-.19a6.57,6.57,0,0,0,2.77-1l11.12-26.87c.14-.38.33-.33.48,0l10.83,26.87a7.34,7.34,0,0,0,2.82,1l.48,0Zm-20.33-14.22h9.54v1.72h-9.73Z"/><path class="cls-4" d="M259.94,259.44a7.34,7.34,0,0,1-2.82-1l-10.83-26.87c-.14-.33-.33-.38-.48,0l-11.12,26.87a6.57,6.57,0,0,1-2.77,1l-.67.19v1.29h8.25v-1.29l-1.19-.19a2.92,2.92,0,0,1-1.81-.81l4.05-10.21h8.86l4,10.21a2.94,2.94,0,0,1-1.86.81l-1.29.14v1.34h10.12v-1.34Zm-18.7-12.84L245,237l3.67,9.54,0,0Z"/><rect class="cls-2" x="109.16" y="159.37" width="34.3" height="32.39"/><path class="cls-3" d="M141.58,189.88H131.52v-2.53l.76-.09a4.31,4.31,0,0,0,2.24-.72l-3.63-9.78-4.53-12.26-8.64,22a3.67,3.67,0,0,0,2,.72l1.19.09v2.53H111v-2.53l.91-.09a7.4,7.4,0,0,0,2.77-.72l10.5-25.29h3.05l9.64,25.2a7,7,0,0,0,2.86.72l.81.1Zm-21.52-14.22h11l.91,2.67H120Z"/><path class="cls-3" d="M140.77,187.16a7,7,0,0,1-2.86-.72l-9.64-25.2h-3.05l-10.5,25.29a7.4,7.4,0,0,1-2.77.72l-.91.09v2.53h9.83v-2.53l-1.19-.09a3.67,3.67,0,0,1-2-.72l3.22-8.21h10.54l3,8.21a4.31,4.31,0,0,1-2.24.72l-.76.09v2.53h10.07v-2.62Zm-14.41-22.67,4.13,11.17H122Z"/><rect class="cls-2" x="109.31" y="62.08" width="34.16" height="32.39"/><path class="cls-3" d="M141.58,92.59H131.52V90.44l1-.19a2,2,0,0,0,1.81-1.48l-3.43-9.3L126.36,67.2l-8.45,21.57a2,2,0,0,0,1.86,1.43l1.1.24v2.15h-9.69V90.44l1.29-.24A3.7,3.7,0,0,0,115,88.77L125.31,64h3l9.45,24.72a4.28,4.28,0,0,0,2.67,1.48l1.19.19ZM120.06,78.37h11l.91,2.48H120Z"/><path class="cls-3" d="M140.39,90.16a4.28,4.28,0,0,1-2.67-1.48L128.27,64h-3L115,88.77a3.7,3.7,0,0,1-2.53,1.43l-1.29.24v2.15h9.69V90.44l-1.1-.24a2,2,0,0,1-1.86-1.43l3.1-7.92h10.39l2.92,7.92a2,2,0,0,1-1.81,1.48l-1,.19v2.15h10.07V90.35Zm-14-23,4.13,11.17H122Z"/><rect class="cls-2" x="109.82" y="256" width="34.39" height="32.39"/><path class="cls-3" d="M142.34,286.51H132.27v-2.86h3.2l-3.82-10.26-4.53-12.26-8.83,22.52h3.34v2.86H111.7v-2.86h3.44l10.69-25.77H129l9.83,25.67h3.48Zm-21.52-14.22h11l.91,2.86h-12Z"/><path class="cls-3" d="M141.86,283.55h-3L129,257.88h-3.2l-10.69,25.77H111.7v2.86h9.93v-2.86h-3.34l3.33-8.49H132.3l3.16,8.49h-3.2v2.86h10.07v-3Zm-14.75-22.43,4.13,11.17h-8.5Z"/><path class="cls-1" d="M279.51,463.89l-1-.57L40.81,326.08V129.45L279.51,267.26ZM42.14,325.31l236,136.28V268l-236-136.28Z"/><rect class="cls-1" x="159.5" y="159.63" width="1.33" height="274.09" transform="translate(-176.84 287.04) rotate(-60)"/><rect class="cls-2" x="312.96" y="82.59" width="33.2" height="33.33"/><path class="cls-3" d="M344.28,114H334v-1l1-.62,2-1.29-4.49-11.4-3.67-9.54-8.3,20.9c.62.48,1.29.91,1.91,1.38l.91.62V114h-8.45v-.91l1.15-.67,2.72-1.58,10.83-26.15c.14-.38.33-.33.48,0l10.5,26.1c1.1.67,2.2,1.29,3.29,2l.48.29ZM323.81,99.82h9.54v1.72h-9.73Z"/><rect class="cls-2" x="431.36" y="151.11" width="33.54" height="33.33"/><path class="cls-3" d="M463,182.56h-9.59v-.24l.71-.38c.67-.33,1.29-.72,2-1l-5-12.6-4.29-11.12-9.78,23.72,2.38,1.1.81.33v.24h-7v-.24l1.05-.43,2.48-1,11.45-27.63c.14-.38.33-.33.48,0l11.12,27.63,2.34,1,.86.38Zm-21.24-13.5H452v.24H441.68Z"/><rect class="cls-2" x="431.36" y="245.47" width="33.68" height="33.33"/><path class="cls-3" d="M463.16,276.92h-9.59v-.24l.57-.19c.67-.19,1.58-.38,2.24-.52l-5.25-13.31-4.29-11.12L436.77,276c.71.19,1.48.33,2.24.52l1,.19v.24h-6.78v-.24l.76-.24c.86-.14,1.67-.33,2.48-.48l11.74-28.35c.14-.38.33-.33.48,0L460.11,276c.81.14,1.57.33,2.39.52l.67.19Zm-21.38-13.5H452v.24H441.68Z"/><path class="cls-3" d="M462.49,276.49c-.81-.19-1.58-.38-2.39-.52L448.7,247.62c-.14-.33-.33-.38-.48,0L436.48,276c-.81.14-1.62.33-2.48.48l-.76.24v.24H440v-.24l-1-.19c-.76-.19-1.53-.33-2.24-.52l5.07-12.31h9.68L456.38,276c-.67.14-1.58.33-2.24.52l-.57.19v.24h9.59v-.24Zm-20.55-13.07,4.9-11.88,4.29,11.12.3.76Z"/><rect class="cls-2" x="229.33" y="131.03" width="33.01" height="33.33"/><path class="cls-3" d="M260.46,162.48H250.3v-1.19l1.19-.34a1.87,1.87,0,0,0,1.62-1.57l-4.39-11.17L245,138.66l-8.21,20.66a2,2,0,0,0,1.62,1.67l1.1.29v1.19h-8.35v-1.19l.86-.34a4.79,4.79,0,0,0,3-1.86l10.74-25.91c.14-.38.33-.33.48,0L256.69,159a5.81,5.81,0,0,0,3.29,2.1l.48.14Zm-20.38-14.22h9.54V150h-9.73Z"/><path class="cls-3" d="M260,161.14a5.81,5.81,0,0,1-3.29-2.1l-10.4-25.86c-.14-.33-.33-.38-.48,0l-10.74,25.91a4.79,4.79,0,0,1-3,1.86l-.86.34v1.19h8.35v-1.19l-1.1-.29a2,2,0,0,1-1.62-1.67l3.72-9.35h8.86l3.7,9.4a1.87,1.87,0,0,1-1.62,1.57l-1.19.34v1.19h10.16v-1.19Zm-18.75-12.88,3.81-9.59,3.67,9.54,0,0Z"/><rect class="cls-2" x="143.82" y="180.19" width="32.82" height="33.33"/><path class="cls-3" d="M174.76,211.64H164.69v-1.43h1.43c1.24,0,1.72-.76,1.29-1.91l-4.29-10.93-3.67-9.54-8.11,20.42c-.48,1.19,0,2,1.29,2h1.29v1.43H145.7v-1.43h.53a3.26,3.26,0,0,0,3.34-2.19l10.64-25.67c.14-.38.33-.33.48,0L171,208a3.24,3.24,0,0,0,3.29,2.24h.48Zm-20.28-14.22H164v1.72h-9.73Z"/><rect class="cls-2" x="263.05" y="245.47" width="33.77" height="33.33"/><path class="cls-3" d="M294.94,276.92H284.39v-.24h.72c2,0,2.77-1.19,2.05-3.05l-4.34-11-4.29-11.12-9.16,22.09c-.76,1.86.09,3.05,2.05,3.05h.52v.24h-7v-.24h.1a3.91,3.91,0,0,0,4-2.67l10.93-26.39c.14-.38.33-.33.48,0L291,274a3.82,3.82,0,0,0,3.91,2.67h0Zm-21.47-13.5h10.26v.24H273.37Z"/><rect class="cls-2" x="263.05" y="343.02" width="33.77" height="33.33"/><path class="cls-3" d="M294.94,374.47H284.87v-.24h.62c1.29,0,2.29-.62,2.29-1.53l-5-12.5-4.29-11.12-9.78,23.62c0,.91.76,1.53,2.1,1.53h.86v.24h-6.78v-.24h.29a4,4,0,0,0,3.24-1.34l11.45-27.73c.14-.38.33-.33.48,0l11.17,27.73a3.82,3.82,0,0,0,3.15,1.34h.24ZM273.47,361h10.26v.24H273.37Z"/><path class="cls-3" d="M294.7,374.23a3.82,3.82,0,0,1-3.15-1.34l-11.17-27.73c-.14-.33-.33-.38-.48,0L268.46,372.9a4,4,0,0,1-3.24,1.34h-.29v.24h6.78v-.24h-.86c-1.34,0-2.15-.62-2.1-1.53l4.76-11.5h9.71l4.56,11.5c0,.91-1,1.53-2.29,1.53h-.62v.24h10.07v-.24ZM273.61,361l4.92-11.88,4.29,11.12.3.76Z"/><rect class="cls-2" x="347.53" y="294.25" width="33.73" height="33.33"/><path class="cls-3" d="M379.37,325.7h-9.83v-.24l.57-.1a3.07,3.07,0,0,0,2.29-1l-5.11-12.88L363,300.31l-9.93,24a2.74,2.74,0,0,0,2.15,1l1,.1v.24h-6.78v-.24l.52-.1a5.54,5.54,0,0,0,2.86-1l11.6-28c.14-.38.33-.33.48,0l11.26,28a5.35,5.35,0,0,0,2.77,1l.48.1Zm-21.43-13.5h10.26v.24H357.85Z"/><path class="cls-3" d="M378.9,325.36a5.35,5.35,0,0,1-2.77-1l-11.26-28c-.14-.33-.33-.38-.48,0l-11.6,28a5.54,5.54,0,0,1-2.86,1l-.52.1v.24h6.78v-.24l-1-.1a2.74,2.74,0,0,1-2.15-1L358,312.43h9.7l4.71,11.88a3.07,3.07,0,0,1-2.29,1l-.57.1v.24h9.83v-.24Zm-20.8-13.17L363,300.31l4.29,11.12.3.76Z"/><rect class="cls-2" x="347.53" y="200.57" width="33.68" height="33.33"/><path class="cls-3" d="M379.33,232H369.26v-.24l.72-.19a2,2,0,0,0,2-2.05l-4.68-11.79L363,206.63l-9.45,22.91c0,1.1.81,1.86,2.19,2.05l.67.19V232h-7v-.24l.57-.24a4.5,4.5,0,0,0,3.25-1.81l11.17-27c.14-.38.33-.33.48,0l10.88,27a4.33,4.33,0,0,0,3.1,1.86l.48.19Zm-21.38-13.5h10.26v.24H357.85Z"/><path class="cls-3" d="M378.85,231.59a4.33,4.33,0,0,1-3.1-1.86l-10.88-27c-.14-.33-.33-.38-.48,0l-11.17,27a4.5,4.5,0,0,1-3.25,1.81l-.57.24V232h7v-.24l-.67-.19c-1.38-.19-2.19-1-2.19-2.05L358,218.75h9.69L372,229.54a2,2,0,0,1-2,2.05l-.72.19V232h10.07v-.24Zm-20.74-13.07,4.9-11.88,4.29,11.12.3.76Z"/><rect class="cls-2" x="143.82" y="369.6" width="32.82" height="33.33"/><path class="cls-3" d="M174.76,401H164.69v-1.43h3.48l-5.06-12.84-3.67-9.54-8.88,22.38h3.29V401H145.7v-1.43h3l11.55-27.87c.14-.38.33-.33.48,0l11.21,27.87h2.86Zm-20.28-14.22H164v1.72h-9.73Z"/><rect class="cls-2" x="144.95" y="273.93" width="32.82" height="33.33"/><path class="cls-3" d="M175.89,305.38H165.82v-1.43h1.43c1,0,1.58-.38,1.67-1l-4.68-11.88-3.67-9.54-8.49,21.38c.1.62.72,1,1.67,1H155v1.43h-8.21v-1.43h.53a3.74,3.74,0,0,0,2.91-1.1l11.07-26.77c.14-.38.33-.33.48,0l10.78,26.73a3.64,3.64,0,0,0,2.82,1.14h.48Zm-20.28-14.22h9.54v1.72h-9.73Z"/><path class="cls-3" d="M175.41,303.95a3.64,3.64,0,0,1-2.82-1.14l-10.78-26.73c-.14-.33-.33-.38-.48,0l-11.07,26.77a3.74,3.74,0,0,1-2.91,1.1h-.53v1.43H155v-1.43h-1.29c-1,0-1.57-.38-1.67-1l4-10.07h8.86l4,10.12c-.09.57-.72,1-1.67,1h-1.43v1.43h10.07v-1.43Zm-18.65-12.79,3.81-9.59,3.67,9.54,0,0Z"/><rect class="cls-2" x="347.63" y="387.78" width="33.77" height="33.33"/><path class="cls-3" d="M379.52,419.23h-9.59V419h3l-5.54-14-4.29-11.12L352.7,419H356v.24h-6.54V419h3l12-29.06c.14-.38.33-.33.48,0L376.66,419h2.86ZM358,405.73h10.26V406H358Z"/><path class="cls-3" d="M379,419h-2.39L365,389.93c-.14-.33-.33-.38-.48,0l-12,29.06h-3v.24H356V419H352.7l5.39-13h9.7l5.14,13h-3v.24h9.59V419Zm-20.85-13.27,4.92-11.88L367.4,405l.3.76Z"/><rect class="cls-2" x="432.11" y="339.76" width="33.77" height="33.33"/><path class="cls-3" d="M464,371.21h-9.59V371h3l-5.54-14-4.29-11.12L437.18,371h3.34v.24H434V371h3l12-29.06c.14-.38.33-.33.48,0L461.14,371H464Zm-21.47-13.5h10.26v.24H442.43Z"/><rect class="cls-2" x="263.05" y="438.66" width="33.77" height="33.33"/><path class="cls-3" d="M294.94,470.11h-9.59v-.24h3l-5.54-14-4.3-11.12-10.4,25.15h3.34v.24h-6.54v-.24h3l12-29.06c.14-.38.33-.33.48,0l11.69,29.06h2.86Zm-21.47-13.5h10.26v.24H273.37Z"/><rect class="cls-2" x="24.68" y="304.33" width="34.39" height="32.39"/><path class="cls-3" d="M57.2,334.85H47.13V332h3.2l-3.82-10.26L42,309.46,33.14,332h3.34v2.86H26.56V332H30l10.69-25.77h3.2l9.83,25.67H57.2ZM35.67,320.63h11l.91,2.86h-12Z"/><rect class="cls-2" x="24.97" y="110.7" width="34.25" height="32.39"/><path class="cls-3" d="M57.34,141.21H47.27v-2.39h1.15c1.24,0,1.77-.72,1.34-1.91l-3.24-8.83L42,115.82l-8.26,21.09c-.43,1.14,0,1.91,1.29,1.91h1.29v2.39H26.85v-2.39h1.43A2.72,2.72,0,0,0,31,137l10.12-24.39h2.72l9.26,24.29a2.63,2.63,0,0,0,2.72,1.86h1.48ZM35.67,127h11l.91,2.39h-12Z"/><rect class="cls-2" x="193.96" y="16.99" width="34.01" height="32.39"/><path class="cls-3" d="M226.09,47.5H216V45.59l.91-.38c.76-.33,1.53-.72,2.29-1l-3.63-9.78-4.53-12.26-8.64,22,2.39,1,1,.43V47.5h-9.93V45.59l1.1-.43,2.34-1,10.5-25.29H213l9.64,25.2,2.62,1,.86.38ZM204.76,33.28h11l.91,2.62h-12Z"/><path class="cls-5" d="M222.42,234.67,212.59,209h-3.2l-10.69,25.77h-3.44v2.86h9.93v-2.86h-3.34l3.33-8.49h10.69l3.16,8.49h-3.2v2.86h10.07v-3h-3.48Zm-11.74-22.43,4.13,11.17h-8.5Z"/><path class="cls-5" d="M342,303.57,330.77,275.7c-.14-.33-.33-.38-.48,0l-11.55,27.87h-3V305h8.16v-1.43h-3.29L325,292.5h8.86l4.36,11.07h-3.48V305h10.07v-1.43H342Zm-16.26-12.79,3.8-9.59,3.67,9.54,0,0Z"/><path class="cls-5" d="M323.29,113.13l-.91-.62c-.62-.48-1.29-.91-1.91-1.38l3.81-9.59h8.86l3.79,9.64-2,1.29-1,.62v1h10.31v-1l-.48-.29c-1.1-.67-2.2-1.29-3.29-2L330,84.74c-.14-.33-.33-.38-.48,0l-10.83,26.15L316,112.46l-1.15.67V114h8.45Zm9.16-13.36,0,0H325l3.81-9.59Z"/><path class="cls-5" d="M440.25,182.32l-.81-.33-2.38-1.1,4.78-11.6h9.69l4.57,11.6c-.67.33-1.29.72-2,1l-.71.38v.24H463v-.24l-.86-.38-2.34-1L448.7,153.26c-.14-.33-.33-.38-.48,0l-11.45,27.63-2.48,1-1.05.43v.24h7Zm10.88-14,.3.76h-9.5l4.9-11.88Z"/><path class="cls-5" d="M171,208l-10.31-25.63c-.14-.33-.33-.38-.48,0L149.56,208a3.26,3.26,0,0,1-3.34,2.19h-.53v1.43h8.21v-1.43h-1.29c-1.24,0-1.77-.76-1.29-2l3.62-9.11h8.86l3.6,9.16c.43,1.14,0,1.91-1.29,1.91h-1.43v1.43h10.07v-1.43h-.48A3.24,3.24,0,0,1,171,208Zm-15.36-10.55,3.81-9.59,3.67,9.54,0,0Z"/><path class="cls-5" d="M271.94,276.68h-.52c-2,0-2.82-1.19-2.05-3.05l4.14-10h9.72l3.95,10c.72,1.86-.09,3.05-2.05,3.05h-.72v.24h10.55v-.24h0A3.82,3.82,0,0,1,291,274l-10.59-26.39c-.14-.33-.33-.38-.48,0L269,274a3.91,3.91,0,0,1-4,2.67h-.1v.24h7Zm10.88-14,.3.76H273.6l4.93-11.88Z"/><path class="cls-5" d="M171.9,399.62l-11.21-27.87c-.14-.33-.33-.38-.48,0l-11.55,27.87h-3V401h8.16v-1.43h-3.29L155,388.55h8.86l4.36,11.07h-3.48V401h10.07v-1.43H171.9Zm-16.26-12.79,3.8-9.59,3.67,9.54,0,0Z"/><path class="cls-5" d="M463.53,371h-2.39l-11.69-29.06c-.14-.33-.33-.38-.48,0l-12,29.06h-3v.24h6.54V371h-3.34l5.39-13h9.7l5.14,13h-3v.24H464V371ZM442.67,357.7l4.92-11.88,4.29,11.12.3.76Z"/><path class="cls-5" d="M292.08,469.87l-11.69-29.06c-.14-.33-.33-.38-.48,0l-12,29.06h-3v.24h6.54v-.24h-3.34l5.39-13h9.71l5.14,13h-3v.24h9.59v-.24h-2.86Zm-18.47-13.27,4.92-11.88,4.3,11.12.3.76Z"/><path class="cls-5" d="M53.71,331.89l-9.83-25.67h-3.2L30,332H26.56v2.86h9.93V332H33.14l3.33-8.49H47.16L50.32,332h-3.2v2.86H57.2v-3H53.71ZM42,309.46l4.13,11.17H37.6Z"/><path class="cls-5" d="M53.14,136.87l-9.26-24.29H41.16L31,137a2.72,2.72,0,0,1-2.77,1.86H26.85v2.39h9.45v-2.39H35c-1.24,0-1.72-.76-1.29-1.91l3-7.54H47l2.77,7.54c.43,1.19-.1,1.91-1.34,1.91H47.27v2.39H57.34v-2.48H55.86A2.63,2.63,0,0,1,53.14,136.87ZM42,115.82,46.1,127H37.6Z"/><path class="cls-5" d="M222.61,44.06,213,18.87h-3.2l-10.5,25.29-2.34,1-1.1.43V47.5h9.93V45.59l-1-.43-2.39-1,3.23-8.26h10.5l3.06,8.26c-.76.33-1.53.72-2.29,1l-.91.38V47.5h10.07v-2l-.86-.38Zm-11.55-22,4.13,11.17h-8.5Z"/><rect class="cls-2" x="24.82" y="207.12" width="34.35" height="32.39"/><path class="cls-3" d="M57.29,237.63H47.22V235H48c1,0,1.91-.38,2-1l-3.53-9.54L42,212.24l-8.54,21.81c.14.57.76,1,1.72,1h1.24v2.62H26.7V235h1a4,4,0,0,0,2.82-1L40.92,209h3l9.54,25a4.16,4.16,0,0,0,2.86,1h1ZM35.67,223.41h11L47.6,226h-12Z"/><path class="cls-3" d="M56.29,234.91a4.16,4.16,0,0,1-2.86-1l-9.54-25h-3l-10.4,25.05a4,4,0,0,1-2.82,1h-1v2.62h9.69V235H35.15c-1,0-1.57-.38-1.72-1l3.14-8h10.5l3,8c-.1.57-1,1-2,1h-.81v2.62H57.29v-2.72ZM42,212.24l4.13,11.17H37.6Z"/><text class="cls-6" transform="matrix(1, 0.58, -0.87, 0.5, 30.95, 357.77)"><tspan xml:space="preserve"> 1000      Thickness              0</tspan></text><text class="cls-6" transform="matrix(1, -0.58, 0.87, 0.5, 318.47, 476.09)"><tspan xml:space="preserve"> 1000  </tspan></text><text class="cls-6" transform="matrix(0.87, -0.5, 0.87, 0.5, 365.96, 448.68)"><tspan class="cls-7">S</tspan><tspan x="8.3" y="0">t</tspan><tspan class="cls-8" x="14.35" y="0">r</tspan><tspan x="20.29" y="0">aighter</tspan></text><text class="cls-6" transform="matrix(1, -0.58, 0.87, 0.5, 429.34, 412.08)"><tspan xml:space="preserve">       0</tspan></text><polygon class="cls-3" points="174.08 443.15 170 445.51 76.99 391.81 76.99 391.81 74.91 390.61 79 388.25 66.29 386.28 69.7 393.62 73.79 391.26 166.79 444.95 166.79 444.95 168.87 446.15 164.78 448.52 177.49 450.48 174.08 443.15"/><polygon class="cls-3" points="353.07 459.74 357.17 462.1 450.17 408.4 450.17 408.41 452.25 407.2 448.16 404.84 460.87 402.88 457.46 410.21 453.37 407.85 360.37 461.55 360.37 461.55 358.29 462.75 362.38 465.11 349.67 467.08 353.07 459.74"/><polygon class="cls-3" points="491.72 330.02 495.81 332.38 495.81 224.99 495.81 224.99 495.81 222.59 491.72 220.22 496.37 213.61 501.02 225.59 496.93 223.23 496.93 330.63 496.93 330.63 496.93 333.03 501.02 335.39 496.37 342 491.72 330.02"/><text class="cls-6" transform="matrix(0, -1, 0.87, 0.5, 487.02, 366.76)"><tspan xml:space="preserve">0               Height        1000</tspan></text></svg>